<?xml version="1.0" standalone="no"?>
<!DOCTYPE svg PUBLIC "-//W3C//DTD SVG 1.1//EN" "http://www.w3.org/Graphics/SVG/1.1/DTD/svg11.dtd" >
<svg xmlns="http://www.w3.org/2000/svg">
<metadata>Generated by IcoMoon</metadata>
<defs>
<font id="Lumni-Sans" horiz-adv-x="1024">
<font-face units-per-em="1024" ascent="960" descent="-64" />
<missing-glyph horiz-adv-x="1024" />
<glyph unicode="&#x20;" horiz-adv-x="512" d="" />
<glyph unicode="&#x41;" glyph-name="P" d="M512 915.722c-258.316 0-467.722-209.406-467.722-467.722v0c0-258.316 209.406-467.722 467.722-467.722v0c258.315 0 467.721 209.407 467.721 467.722v0c0 258.315-209.406 467.722-467.721 467.722v0zM510.999 752.405c54.133 0.471 100.74-44.459 102.017-99.462 1.304-55.872-43.529-102.003-100.051-102.649-56.522-0.651-102.654 44.826-102.003 100.702 0 53.274 44.18 99.401 97.454 101.353 0.863 0.030 1.724 0.049 2.584 0.057zM414.106 498.996h195.733v-300.475c0-30.408-24.46-54.929-54.868-54.929h-85.938c-30.408 0-54.927 24.521-54.927 54.929v300.475z" />
<glyph unicode="&#x42;" glyph-name="Q" d="M174.879 918.135v-208.378l25.749 26.127c84.089 85.322 201.025 153.271 305.317 177.415l19.716 4.564-175.389 0.137zM849.238 918.135l-226.405-0.202 11.683-4.345c19.064-7.090 34.457-19.232 43.499-34.321 6.096-10.171 5.060-10.759-5.416-3.070-37.364 27.427-100.528 30.159-178.993 7.74-110.233-31.496-238.095-114.752-307.553-200.262l-11.175-13.756v-213.072l0.005-213.065h196.283c107.955 0 196.286 0.661 196.293 1.45 0.014 1.866-89.756 300.481-90.628 301.523-0.366 0.43-8.386-2.807-17.825-7.192-29.69-13.793-48.52-18.541-74.235-18.708-19.672-0.128-23.454 0.4-31.567 4.396-14.326 7.054-18.001 13.691-17.941 32.385 0.041 13.679 0.825 17.066 6.452 28.179 41.501 81.858 184.878 150.65 230.5 110.593 8.372-7.363 11.545-16.823 10.189-30.229-2.652-25.696-30.383-64.643-64.168-90.124-4.931-3.718-8.758-7.295-8.54-7.931 0.232-0.643 69.071-66.565 152.977-146.492s160.209-152.843 169.561-162.035l17.002-16.714v337.625zM487.577 812.282c6.038-0.041 11.753-2.431 13.082-5.867 3.579-9.326-10.87-27.080-29.174-35.85-6.547-3.135-14.522-6.19-17.73-6.799-8.515-1.6-15.414 2.595-16.131 9.797-1.154 11.746 26.268 34.726 45.77 38.357 1.379 0.257 2.789 0.373 4.183 0.363zM641.018 802.848c10.062-0.133 14.284-6.502 9.95-16.967-3.126-7.547-17.016-19.745-29.664-26.046l-0.002 0.002c-10.716-5.342-26.091-6.673-30.15-2.614-10.315 10.315 14.082 37.224 40.1 44.224 3.674 0.988 6.949 1.438 9.766 1.401zM314.135 696.354c7.577 0.161 12.329-2.987 12.329-9.288 0-10.29-20.792-30.023-38.159-36.215v0.012c-11.614-4.153-21.327-3.63-24.794 1.323-2.605 3.721-2.609 4.953-0.012 11.175 4.316 10.351 13.699 19.017 28.732 26.536 8.408 4.206 16.009 6.332 21.903 6.457zM261.562 552.776c24.276 0 11.008-29.145-19.928-43.78v-0.005c-10.913-5.158-25.526-6.384-29.441-2.468-5.769 5.769-0.825 16.736 13.23 29.376 9.927 8.927 26.955 16.877 36.14 16.877zM174.763 202.739v-187.379c-0.169-22.504 14.822-37.495 36.849-37.495h38.108v37.479h-37.479v187.395zM287.029 202.739v-187.379c-0.169-22.504 14.822-37.495 36.849-37.495h38.731c22.027 0 37.024 14.991 36.849 37.495v187.379h-37.479v-187.395h-37.479v187.395zM473.795 202.739c-2.753 0-5.395-0.233-7.912-0.687-5.035-0.908-9.569-2.696-13.47-5.244-0.982-0.637-1.91-1.319-2.804-2.049-0.888-0.731-1.748-1.508-2.559-2.328-2.025-2.050-3.777-4.374-5.23-6.946-0.293-0.514-0.577-1.038-0.843-1.571s-0.514-1.078-0.763-1.631c-0.231-0.553-0.47-1.115-0.683-1.687-0.656-1.714-1.182-3.509-1.587-5.382-0.133-0.624-0.266-1.256-0.373-1.896v-0.005c-0.106-0.64-0.204-1.287-0.284-1.942-0.16-1.315-0.266-2.661-0.31-4.038-0.024-0.688-0.033-1.383-0.028-2.087v-187.377h37.479v187.395h37.478c0-0.006 0-0.011 0-0.016v-187.382h37.479v187.377c0 0.006 0 0.011 0 0.016h37.479v-187.395h37.479v187.382c0.171 22.504-14.822 37.495-36.849 37.495h-38.732c-1.371 0-2.714-0.060-4.029-0.175v0.175h-70.294zM698.671 202.739c-22.027 0-37.022-14.991-36.851-37.495v-187.379h37.481v187.395h37.479v-187.395h37.479v187.379c0.171 22.504-14.822 37.495-36.849 37.495h-0.624zM849.218 202.739c-22.488 0-37.481-14.993-37.481-37.246v-187.628h37.481v187.628z" />
<glyph unicode="&#x43;" glyph-name="U" d="M518.444 927.987c-0.010 0-0.022 0-0.034 0-149.106 0-269.982-120.864-270.002-269.965v-0.002c0-0.002 0-0.004 0-0.006 0-149.118 120.884-270.002 270.002-270.002 0.012 0 0.024 0 0.036 0h-0.002c149.108 0.013 269.979 120.892 269.979 270.002 0 0.002 0 0.004 0 0.006v-0.001c-0.019 149.095-120.883 269.954-269.977 269.968h-0.001zM195.152 323.413c-61.848 0-111.633-49.785-111.633-111.644v-132.11c0-61.853 50.070-111.644 111.633-111.644h633.697c61.848 0 111.633 49.785 111.633 111.644v132.11c0 61.853-50.070 111.644-111.633 111.644z" />
<glyph unicode="&#x44;" glyph-name="camera" d="M304 352c0-114.876 93.124-208 208-208s208 93.124 208 208-93.124 208-208 208-208-93.124-208-208zM960 704h-224c-16 64-32 128-96 128h-256c-64 0-80-64-96-128h-224c-35.2 0-64-28.8-64-64v-576c0-35.2 28.8-64 64-64h896c35.2 0 64 28.8 64 64v576c0 35.2-28.8 64-64 64zM512 68c-156.85 0-284 127.148-284 284 0 156.85 127.15 284 284 284 156.852 0 284-127.15 284-284 0-156.852-127.146-284-284-284zM960 512h-128v64h128v-64z" />
<glyph unicode="&#x45;" glyph-name="redo2" d="M576 711.628v248.372l384-384-384-384v253.824c-446.75 10.482-427.588-303.792-313.86-509.824-280.712 303.414-221.1 789.57 313.86 775.628z" />
<glyph unicode="&#x46;" glyph-name="spinner" d="M384 832c0 70.692 57.308 128 128 128s128-57.308 128-128c0-70.692-57.308-128-128-128s-128 57.308-128 128zM655.53 719.53c0 70.692 57.308 128 128 128s128-57.308 128-128c0-70.692-57.308-128-128-128s-128 57.308-128 128zM832 448c0 35.346 28.654 64 64 64s64-28.654 64-64c0-35.346-28.654-64-64-64s-64 28.654-64 64zM719.53 176.47c0 35.346 28.654 64 64 64s64-28.654 64-64c0-35.346-28.654-64-64-64s-64 28.654-64 64zM448.002 64c0 0 0 0 0 0 0 35.346 28.654 64 64 64s64-28.654 64-64c0 0 0 0 0 0 0-35.346-28.654-64-64-64s-64 28.654-64 64zM176.472 176.47c0 0 0 0 0 0 0 35.346 28.654 64 64 64s64-28.654 64-64c0 0 0 0 0 0 0-35.346-28.654-64-64-64s-64 28.654-64 64zM144.472 719.53c0 0 0 0 0 0 0 53.019 42.981 96 96 96s96-42.981 96-96c0 0 0 0 0 0 0-53.019-42.981-96-96-96s-96 42.981-96 96zM56 448c0 39.765 32.235 72 72 72s72-32.235 72-72c0-39.765-32.235-72-72-72s-72 32.235-72 72z" />
<glyph unicode="&#x47;" glyph-name="spinner3" d="M512 656.904c-32.964 0-59.686 26.724-59.686 59.686v179.060c0 32.964 26.722 59.686 59.686 59.686 32.962 0 59.688-26.722 59.688-59.686v-179.060c0-32.964-26.726-59.686-59.688-59.686zM512-36.956c-20.602 0-37.304 16.702-37.304 37.304v179.060c0 20.602 16.702 37.304 37.304 37.304 20.604 0 37.304-16.704 37.304-37.304v-179.060c0-20.602-16.7-37.304-37.304-37.304zM377.756 624.64c-19.34 0-38.146 10.034-48.512 27.988l-89.53 155.070c-15.452 26.764-6.282 60.986 20.482 76.438 26.762 15.45 60.986 6.284 76.438-20.482l89.53-155.072c15.452-26.764 6.282-60.986-20.482-76.438-8.81-5.084-18.432-7.504-27.926-7.504zM735.856 26.744c-11.602 0-22.886 6.022-29.108 16.792l-89.53 155.070c-9.27 16.056-3.77 36.592 12.29 45.864 16.056 9.264 36.59 3.77 45.864-12.292l89.532-155.068c9.27-16.058 3.768-36.592-12.292-45.864-5.286-3.048-11.060-4.502-16.756-4.502zM279.344 530.060c-8.86 0-17.838 2.256-26.064 7.006l-155.072 89.53c-24.978 14.422-33.538 46.362-19.116 71.342 14.42 24.978 46.364 33.538 71.342 19.116l155.070-89.53c24.98-14.422 33.538-46.362 19.116-71.34-9.668-16.756-27.226-26.124-45.276-26.124zM899.648 194.326c-5.064 0-10.196 1.29-14.894 4.004l-155.068 89.53c-14.274 8.24-19.164 26.494-10.924 40.768 8.242 14.276 26.496 19.166 40.766 10.924l155.070-89.532c14.274-8.24 19.164-26.492 10.924-40.766-5.53-9.574-15.562-14.928-25.874-14.928zM243.41 399.504h-179.060c-26.784 0-48.496 21.712-48.496 48.496s21.712 48.496 48.496 48.496h179.060c26.784 0 48.496-21.712 48.496-48.496s-21.712-48.496-48.496-48.496zM959.65 418.156c-0.002 0 0 0 0 0h-179.060c-16.482 0.002-29.844 13.364-29.844 29.844s13.364 29.844 29.844 29.844c0.002 0 0 0 0 0h179.060c16.482 0 29.844-13.362 29.844-29.844 0-16.48-13.364-29.844-29.844-29.844zM124.366 179.402c-15.472 0-30.518 8.028-38.81 22.39-12.362 21.41-5.026 48.79 16.384 61.148l155.072 89.532c21.41 12.368 48.79 5.028 61.15-16.384 12.362-21.412 5.026-48.79-16.384-61.15l-155.072-89.53c-7.050-4.070-14.748-6.006-22.34-6.006zM744.632 552.448c-10.314 0-20.346 5.352-25.874 14.926-8.24 14.274-3.35 32.526 10.924 40.768l155.070 89.528c14.272 8.236 32.526 3.352 40.768-10.922 8.24-14.274 3.35-32.526-10.924-40.768l-155.070-89.528c-4.7-2.714-9.83-4.004-14.894-4.004zM288.136 19.284c-6.962 0-14.016 1.774-20.48 5.504-19.626 11.332-26.35 36.428-15.020 56.054l89.53 155.070c11.33 19.628 36.426 26.352 56.054 15.022 19.626-11.332 26.35-36.43 15.020-56.054l-89.53-155.072c-7.598-13.166-21.392-20.524-35.574-20.524zM646.266 650.758c-5.062 0-10.196 1.29-14.894 4.002-14.274 8.242-19.164 26.494-10.924 40.766l89.534 155.070c8.24 14.274 26.492 19.166 40.766 10.922 14.274-8.242 19.164-26.494 10.924-40.766l-89.532-155.070c-5.53-9.57-15.56-14.924-25.874-14.924z" />
<glyph unicode="&#x48;" glyph-name="spinner9" d="M512 960c-278.748 0-505.458-222.762-511.848-499.974 5.92 241.864 189.832 435.974 415.848 435.974 229.75 0 416-200.576 416-448 0-53.020 42.98-96 96-96s96 42.98 96 96c0 282.77-229.23 512-512 512zM512-64c278.748 0 505.458 222.762 511.848 499.974-5.92-241.864-189.832-435.974-415.848-435.974-229.75 0-416 200.576-416 448 0 53.020-42.98 96-96 96s-96-42.98-96-96c0-282.77 229.23-512 512-512z" />
<glyph unicode="&#x49;" glyph-name="spinner10" d="M0.042 446.382l-0.022-0.004c0 0 0.012-0.090 0.028-0.222 0.11-3.878 0.55-7.676 1.322-11.352 0.204-1.746 0.428-3.66 0.674-5.774 0.222-1.886 0.46-3.914 0.718-6.078 0.374-2.566 0.77-5.292 1.19-8.176 0.856-5.746 1.8-12.124 2.908-18.958 1.348-6.446 2.804-13.414 4.364-20.864 0.71-3.718 1.776-7.504 2.786-11.406 1.024-3.89 2.078-7.894 3.16-12.004 0.566-2.042 1.040-4.132 1.708-6.208 0.656-2.074 1.32-4.176 1.988-6.3 1.348-4.234 2.726-8.566 4.136-12.988 0.352-1.106 0.708-2.21 1.064-3.324 0.408-1.102 0.814-2.208 1.226-3.316 0.826-2.218 1.658-4.458 2.502-6.714 1.696-4.496 3.422-9.078 5.18-13.742 1.968-4.566 3.97-9.214 6.004-13.934 1.018-2.348 2.044-4.714 3.078-7.098 1.048-2.376 2.27-4.704 3.408-7.074 2.322-4.714 4.678-9.496 7.062-14.332 2.47-4.786 5.208-9.512 7.846-14.328 1.336-2.398 2.68-4.808 4.028-7.23 1.368-2.41 2.902-4.75 4.356-7.14 2.95-4.738 5.93-9.524 8.934-14.348 12.64-18.894 26.676-37.566 42.21-55.278 15.712-17.578 32.726-34.25 50.692-49.602 18.18-15.136 37.264-28.902 56.726-41.114 19.604-12.036 39.644-22.312 59.376-31.144 5.004-2.040 9.964-4.062 14.878-6.066 2.462-0.972 4.868-2.032 7.336-2.918 2.47-0.868 4.93-1.734 7.376-2.594 4.898-1.684 9.678-3.468 14.484-4.992 4.832-1.43 9.604-2.844 14.312-4.242 2.356-0.672 4.66-1.426 7.004-2.012 2.346-0.574 4.676-1.14 6.986-1.704 4.606-1.118 9.142-2.214 13.604-3.296 4.5-0.868 8.926-1.722 13.27-2.558 2.166-0.41 4.31-0.82 6.434-1.222 1.062-0.2 2.118-0.398 3.166-0.598 1.060-0.148 2.118-0.292 3.166-0.442 4.192-0.582 8.292-1.152 12.3-1.71 1.998-0.274 3.972-0.546 5.922-0.816 1.946-0.286 3.904-0.378 5.814-0.57 3.822-0.336 7.544-0.664 11.164-0.98 3.616-0.304 7.104-0.688 10.526-0.738 0.23-0.008 0.452-0.016 0.682-0.026 0.614-34.812 29.008-62.846 63.968-62.846 0.542 0 1.080 0.028 1.62 0.042v-0.022c0 0 0.090 0.012 0.224 0.028 3.878 0.11 7.674 0.55 11.35 1.322 1.748 0.204 3.662 0.426 5.776 0.672 1.884 0.222 3.912 0.462 6.076 0.718 2.566 0.376 5.292 0.772 8.176 1.192 5.746 0.856 12.124 1.8 18.958 2.908 6.446 1.348 13.414 2.804 20.864 4.362 3.718 0.712 7.504 1.778 11.406 2.786 3.892 1.026 7.894 2.080 12.004 3.162 2.044 0.566 4.132 1.040 6.208 1.708 2.074 0.656 4.174 1.318 6.3 1.988 4.232 1.348 8.564 2.726 12.988 4.134 1.104 0.354 2.21 0.708 3.324 1.066 1.1 0.406 2.206 0.814 3.316 1.226 2.216 0.824 4.456 1.658 6.714 2.5 4.496 1.698 9.078 3.424 13.74 5.182 4.568 1.968 9.216 3.97 13.936 6.004 2.348 1.018 4.714 2.044 7.098 3.078 2.376 1.048 4.702 2.27 7.074 3.408 4.714 2.322 9.494 4.678 14.33 7.062 4.786 2.47 9.512 5.208 14.328 7.846 2.398 1.336 4.808 2.678 7.23 4.028 2.41 1.366 4.75 2.9 7.14 4.354 4.738 2.952 9.524 5.93 14.35 8.936 18.89 12.64 37.564 26.674 55.278 42.21 17.574 15.712 34.248 32.726 49.602 50.69 15.136 18.182 28.902 37.264 41.112 56.728 12.036 19.602 22.314 39.644 31.142 59.376 2.042 5.002 4.062 9.964 6.068 14.878 0.974 2.462 2.032 4.868 2.918 7.334 0.87 2.472 1.732 4.932 2.592 7.376 1.686 4.898 3.468 9.678 4.994 14.484 1.432 4.832 2.846 9.604 4.24 14.31 0.674 2.358 1.43 4.66 2.016 7.004 0.57 2.348 1.138 4.676 1.702 6.988 1.118 4.606 2.216 9.14 3.296 13.602 0.868 4.502 1.72 8.928 2.558 13.272 0.41 2.164 0.818 4.308 1.222 6.434 0.2 1.060 0.398 2.116 0.596 3.164 0.148 1.062 0.296 2.118 0.444 3.168 0.582 4.19 1.152 8.292 1.708 12.3 0.278 1.996 0.55 3.97 0.82 5.922 0.284 1.946 0.376 3.902 0.568 5.812 0.336 3.822 0.664 7.546 0.98 11.164 0.304 3.616 0.686 7.106 0.738 10.528 0.020 0.534 0.040 1.044 0.058 1.574 35.224 0.146 63.732 28.738 63.732 63.992 0 0.542-0.028 1.080-0.042 1.62h0.022c0 0-0.012 0.090-0.028 0.224-0.11 3.878-0.55 7.674-1.322 11.35-0.204 1.748-0.428 3.662-0.674 5.776-0.222 1.886-0.46 3.914-0.718 6.076-0.374 2.566-0.77 5.294-1.19 8.176-0.856 5.746-1.8 12.124-2.908 18.958-1.348 6.444-2.804 13.414-4.364 20.862-0.71 3.72-1.776 7.506-2.786 11.408-1.024 3.892-2.078 7.894-3.16 12.002-0.566 2.044-1.040 4.134-1.708 6.208-0.656 2.076-1.32 4.174-1.988 6.3-1.348 4.234-2.726 8.566-4.136 12.99-0.352 1.102-0.708 2.21-1.064 3.324-0.408 1.1-0.814 2.206-1.226 3.316-0.826 2.216-1.658 4.454-2.502 6.714-1.696 4.498-3.422 9.080-5.18 13.74-1.968 4.57-3.97 9.216-6.004 13.936-1.020 2.348-2.044 4.714-3.078 7.098-1.048 2.376-2.27 4.702-3.408 7.076-2.322 4.714-4.678 9.494-7.062 14.33-2.47 4.786-5.208 9.512-7.846 14.328-1.336 2.398-2.68 4.808-4.028 7.23-1.368 2.41-2.902 4.75-4.356 7.14-2.95 4.74-5.93 9.524-8.934 14.35-12.64 18.892-26.676 37.564-42.21 55.278-15.712 17.576-32.726 34.25-50.692 49.602-18.18 15.136-37.264 28.902-56.726 41.112-19.604 12.036-39.644 22.314-59.376 31.142-5.004 2.040-9.964 4.062-14.878 6.068-2.462 0.974-4.868 2.032-7.336 2.918-2.47 0.87-4.93 1.734-7.376 2.592-4.898 1.684-9.678 3.468-14.484 4.994-4.832 1.432-9.604 2.846-14.312 4.242-2.356 0.672-4.66 1.428-7.004 2.014-2.346 0.572-4.676 1.138-6.986 1.702-4.606 1.118-9.142 2.216-13.604 3.298-4.5 0.868-8.926 1.72-13.27 2.558-2.166 0.412-4.31 0.82-6.434 1.222-1.062 0.2-2.118 0.398-3.166 0.596-1.060 0.148-2.118 0.296-3.166 0.442-4.192 0.584-8.292 1.154-12.3 1.71-1.998 0.276-3.972 0.55-5.922 0.82-1.946 0.284-3.904 0.376-5.814 0.57-3.822 0.336-7.544 0.664-11.164 0.98-3.616 0.304-7.104 0.686-10.526 0.738-0.852 0.032-1.674 0.062-2.512 0.092-0.65 34.78-29.028 62.778-63.966 62.778-0.542 0-1.080-0.028-1.62-0.042l-0.002 0.022c0 0-0.090-0.012-0.222-0.028-3.878-0.11-7.676-0.55-11.352-1.322-1.748-0.204-3.662-0.426-5.776-0.672-1.884-0.222-3.912-0.462-6.076-0.718-2.566-0.376-5.292-0.772-8.176-1.192-5.746-0.856-12.124-1.8-18.958-2.908-6.446-1.348-13.414-2.804-20.864-4.362-3.718-0.712-7.504-1.778-11.406-2.786-3.892-1.026-7.894-2.080-12.004-3.162-2.044-0.566-4.132-1.040-6.208-1.708-2.074-0.656-4.174-1.318-6.3-1.988-4.232-1.348-8.564-2.726-12.988-4.134-1.104-0.354-2.21-0.708-3.324-1.066-1.1-0.406-2.206-0.814-3.316-1.226-2.216-0.824-4.456-1.658-6.714-2.5-4.496-1.698-9.078-3.424-13.74-5.182-4.568-1.968-9.216-3.97-13.936-6.004-2.348-1.018-4.714-2.044-7.098-3.078-2.376-1.048-4.702-2.27-7.074-3.408-4.714-2.322-9.494-4.678-14.33-7.062-4.786-2.47-9.512-5.208-14.328-7.846-2.398-1.336-4.808-2.678-7.23-4.028-2.41-1.366-4.75-2.9-7.14-4.354-4.738-2.952-9.524-5.93-14.35-8.936-18.89-12.64-37.564-26.674-55.278-42.21-17.574-15.712-34.248-32.726-49.602-50.69-15.136-18.182-28.902-37.264-41.112-56.728-12.036-19.602-22.314-39.644-31.142-59.376-2.042-5.002-4.062-9.964-6.068-14.878-0.974-2.462-2.032-4.868-2.918-7.334-0.87-2.472-1.732-4.932-2.592-7.376-1.686-4.898-3.468-9.678-4.994-14.484-1.432-4.832-2.846-9.604-4.24-14.31-0.674-2.358-1.43-4.66-2.016-7.004-0.57-2.348-1.138-4.676-1.702-6.988-1.118-4.606-2.216-9.14-3.296-13.602-0.868-4.502-1.72-8.928-2.558-13.272-0.41-2.164-0.818-4.308-1.222-6.434-0.2-1.060-0.398-2.116-0.596-3.164-0.148-1.062-0.296-2.118-0.444-3.168-0.582-4.19-1.152-8.292-1.708-12.3-0.278-1.996-0.55-3.97-0.82-5.922-0.284-1.946-0.376-3.902-0.568-5.812-0.336-3.822-0.664-7.546-0.98-11.164-0.304-3.616-0.686-7.106-0.738-10.528-0.020-0.548-0.040-1.076-0.058-1.62-34.376-1.112-61.902-29.304-61.902-63.946 0-0.542 0.028-1.078 0.042-1.618zM73.518 511.294c0.042 0.196 0.086 0.384 0.128 0.58 0.644 3.248 1.632 6.542 2.556 9.942 0.934 3.388 1.894 6.876 2.88 10.454 0.516 1.78 0.934 3.602 1.546 5.406 0.596 1.802 1.202 3.628 1.81 5.476 1.218 3.682 2.464 7.45 3.736 11.294 0.316 0.958 0.634 1.924 0.956 2.892 0.37 0.954 0.74 1.914 1.114 2.876 0.746 1.924 1.5 3.868 2.26 5.83 1.52 3.904 3.070 7.882 4.646 11.93 1.768 3.96 3.566 7.99 5.392 12.080 0.908 2.038 1.824 4.090 2.746 6.156 0.932 2.060 2.036 4.072 3.052 6.126 2.070 4.084 4.17 8.222 6.294 12.412 2.202 4.142 4.654 8.224 6.998 12.392 1.184 2.074 2.374 4.16 3.57 6.256 1.21 2.086 2.586 4.102 3.876 6.166 2.616 4.098 5.256 8.232 7.918 12.402 11.234 16.298 23.632 32.398 37.33 47.638 13.874 15.104 28.842 29.404 44.598 42.548 15.974 12.928 32.686 24.65 49.676 35.022 17.13 10.194 34.6 18.838 51.734 26.258 4.35 1.7 8.662 3.382 12.934 5.050 2.136 0.812 4.216 1.71 6.36 2.444 2.146 0.714 4.28 1.428 6.404 2.136 4.25 1.386 8.382 2.888 12.548 4.142 4.184 1.174 8.314 2.332 12.392 3.474 2.038 0.55 4.026 1.19 6.054 1.662 2.030 0.458 4.044 0.914 6.044 1.368 3.978 0.91 7.896 1.806 11.748 2.688 3.888 0.686 7.71 1.36 11.462 2.022 1.868 0.33 3.716 0.658 5.546 0.98 0.914 0.162 1.824 0.324 2.728 0.484 0.916 0.112 1.828 0.222 2.734 0.332 3.612 0.448 7.148 0.882 10.604 1.31 1.72 0.216 3.422 0.432 5.102 0.644 1.674 0.226 3.364 0.266 5.010 0.408 3.292 0.238 6.498 0.472 9.616 0.7 3.11 0.218 6.11 0.524 9.058 0.508 5.848 0.132 11.32 0.256 16.38 0.372 4.664-0.168 8.948-0.324 12.818-0.462 1.914-0.054 3.726-0.108 5.432-0.156 2.122-0.134 4.108-0.26 5.958-0.378 2.13-0.138 4.060-0.266 5.82-0.38 3.256-0.51 6.592-0.782 9.99-0.782 0.466 0 0.93 0.026 1.396 0.036 0.132-0.008 0.224-0.014 0.224-0.014v0.020c31.14 0.778 56.75 23.784 61.556 53.754 0.542-0.12 1.064-0.236 1.612-0.356 3.246-0.644 6.542-1.632 9.942-2.556 3.386-0.934 6.876-1.894 10.454-2.88 1.778-0.516 3.602-0.934 5.404-1.546 1.802-0.596 3.63-1.202 5.478-1.812 3.68-1.218 7.448-2.464 11.292-3.736 0.96-0.316 1.924-0.634 2.892-0.956 0.956-0.37 1.914-0.74 2.876-1.112 1.926-0.746 3.868-1.5 5.83-2.26 3.904-1.52 7.884-3.070 11.932-4.646 3.96-1.768 7.988-3.566 12.080-5.392 2.038-0.908 4.088-1.824 6.156-2.746 2.060-0.932 4.072-2.036 6.126-3.054 4.082-2.070 8.222-4.17 12.41-6.294 4.144-2.202 8.226-4.654 12.394-6.998 2.074-1.184 4.16-2.374 6.256-3.572 2.086-1.21 4.102-2.586 6.166-3.876 4.098-2.616 8.23-5.256 12.402-7.918 16.296-11.234 32.398-23.632 47.636-37.33 15.104-13.874 29.406-28.842 42.55-44.598 12.928-15.974 24.648-32.686 35.020-49.676 10.196-17.13 18.84-34.6 26.26-51.736 1.698-4.348 3.382-8.662 5.050-12.932 0.812-2.136 1.71-4.216 2.444-6.36 0.714-2.146 1.428-4.28 2.136-6.404 1.386-4.25 2.888-8.384 4.142-12.548 1.174-4.184 2.33-8.316 3.474-12.392 0.55-2.038 1.19-4.026 1.66-6.054 0.46-2.030 0.916-4.046 1.368-6.046 0.91-3.978 1.808-7.896 2.688-11.748 0.688-3.888 1.362-7.71 2.024-11.462 0.33-1.868 0.656-3.716 0.98-5.548 0.162-0.914 0.324-1.824 0.484-2.728 0.11-0.916 0.222-1.828 0.332-2.734 0.446-3.612 0.882-7.148 1.31-10.604 0.216-1.72 0.432-3.42 0.642-5.1 0.226-1.674 0.268-3.364 0.41-5.010 0.238-3.292 0.472-6.498 0.7-9.616 0.218-3.11 0.524-6.11 0.508-9.058 0.132-5.848 0.256-11.32 0.372-16.38-0.168-4.664-0.324-8.948-0.462-12.818-0.054-1.914-0.108-3.726-0.156-5.432-0.134-2.122-0.26-4.108-0.378-5.958-0.138-2.13-0.266-4.060-0.38-5.82-0.498-3.256-0.768-6.592-0.768-9.99 0-0.468 0.026-0.93 0.036-1.396-0.008-0.132-0.016-0.224-0.016-0.224h0.022c0.768-30.766 23.236-56.128 52.682-61.37-0.066-0.296-0.13-0.584-0.198-0.884-0.644-3.248-1.632-6.542-2.556-9.942-0.934-3.388-1.894-6.876-2.88-10.454-0.516-1.78-0.934-3.602-1.546-5.406-0.596-1.802-1.202-3.628-1.81-5.476-1.218-3.682-2.464-7.45-3.736-11.294-0.316-0.958-0.634-1.924-0.956-2.892-0.37-0.954-0.74-1.914-1.114-2.876-0.746-1.924-1.5-3.868-2.26-5.83-1.52-3.904-3.070-7.882-4.646-11.93-1.768-3.96-3.566-7.99-5.392-12.080-0.908-2.038-1.824-4.090-2.746-6.156-0.932-2.060-2.036-4.072-3.052-6.126-2.070-4.084-4.17-8.222-6.294-12.412-2.202-4.142-4.654-8.224-6.998-12.392-1.184-2.074-2.374-4.16-3.57-6.256-1.21-2.086-2.586-4.102-3.876-6.166-2.616-4.098-5.256-8.232-7.918-12.402-11.234-16.298-23.632-32.398-37.33-47.638-13.874-15.104-28.842-29.404-44.598-42.548-15.974-12.928-32.686-24.65-49.676-35.022-17.13-10.194-34.6-18.838-51.734-26.258-4.35-1.7-8.662-3.382-12.934-5.050-2.136-0.812-4.216-1.71-6.36-2.444-2.146-0.714-4.28-1.428-6.404-2.136-4.25-1.386-8.382-2.888-12.548-4.142-4.184-1.174-8.314-2.332-12.392-3.474-2.038-0.55-4.026-1.19-6.054-1.662-2.030-0.458-4.044-0.914-6.044-1.368-3.978-0.91-7.896-1.806-11.748-2.688-3.888-0.686-7.71-1.36-11.462-2.022-1.868-0.33-3.716-0.658-5.546-0.98-0.914-0.162-1.824-0.324-2.728-0.484-0.916-0.112-1.828-0.222-2.734-0.332-3.612-0.448-7.148-0.882-10.604-1.31-1.72-0.216-3.422-0.432-5.102-0.644-1.674-0.226-3.364-0.266-5.010-0.408-3.292-0.238-6.498-0.472-9.616-0.7-3.11-0.218-6.11-0.524-9.058-0.508-5.848-0.132-11.32-0.256-16.38-0.372-4.664 0.168-8.948 0.324-12.818 0.462-1.914 0.054-3.726 0.108-5.432 0.156-2.122 0.134-4.108 0.26-5.958 0.378-2.13 0.138-4.060 0.266-5.82 0.38-3.256 0.51-6.592 0.782-9.99 0.782-0.466 0-0.93-0.026-1.396-0.036-0.132 0.008-0.224 0.014-0.224 0.014v-0.020c-31.004-0.774-56.524-23.586-61.488-53.364-3.2 0.64-6.446 1.61-9.792 2.522-3.386 0.934-6.876 1.894-10.454 2.878-1.778 0.516-3.602 0.938-5.404 1.546-1.802 0.598-3.63 1.204-5.478 1.812-3.68 1.218-7.448 2.464-11.292 3.738-0.96 0.316-1.924 0.632-2.892 0.954-0.956 0.372-1.914 0.742-2.876 1.114-1.926 0.746-3.868 1.5-5.83 2.258-3.904 1.524-7.884 3.070-11.932 4.648-3.96 1.77-7.988 3.566-12.080 5.39-2.038 0.91-4.088 1.824-6.156 2.746-2.060 0.934-4.072 2.036-6.126 3.054-4.082 2.070-8.222 4.172-12.41 6.296-4.144 2.2-8.226 4.652-12.394 6.996-2.074 1.184-4.16 2.376-6.256 3.57-2.086 1.21-4.102 2.586-6.166 3.878-4.098 2.614-8.23 5.254-12.402 7.918-16.296 11.23-32.398 23.632-47.636 37.328-15.104 13.876-29.406 28.84-42.55 44.598-12.928 15.972-24.648 32.684-35.020 49.676-10.196 17.128-18.84 34.602-26.26 51.734-1.698 4.352-3.382 8.664-5.050 12.934-0.812 2.136-1.71 4.218-2.444 6.36-0.714 2.148-1.428 4.282-2.136 6.406-1.386 4.25-2.888 8.382-4.142 12.546-1.174 4.184-2.33 8.316-3.474 12.394-0.55 2.036-1.19 4.024-1.66 6.054-0.46 2.028-0.916 4.042-1.368 6.042-0.91 3.98-1.808 7.898-2.688 11.75-0.688 3.886-1.362 7.71-2.024 11.46-0.33 1.868-0.656 3.718-0.98 5.546-0.162 0.914-0.324 1.824-0.484 2.73-0.11 0.914-0.222 1.828-0.332 2.734-0.446 3.61-0.882 7.148-1.31 10.602-0.216 1.722-0.432 3.422-0.642 5.102-0.226 1.676-0.268 3.364-0.41 5.012-0.238 3.29-0.472 6.496-0.7 9.614-0.218 3.11-0.524 6.11-0.508 9.058-0.132 5.848-0.256 11.32-0.372 16.382 0.168 4.664 0.324 8.946 0.462 12.816 0.054 1.914 0.108 3.726 0.156 5.434 0.134 2.122 0.26 4.106 0.378 5.958 0.138 2.128 0.266 4.058 0.38 5.82 0.496 3.26 0.766 6.596 0.766 9.994 0 0.466-0.026 0.93-0.036 1.396 0.008 0.132 0.016 0.224 0.016 0.224h-0.022c-0.78 31.38-24.134 57.154-54.44 61.674z" />
<glyph unicode="&#x4a;" glyph-name="loop2" d="M889.68 793.68c-93.608 102.216-228.154 166.32-377.68 166.32-282.77 0-512-229.23-512-512h96c0 229.75 186.25 416 416 416 123.020 0 233.542-53.418 309.696-138.306l-149.696-149.694h352v352l-134.32-134.32zM928 448c0-229.75-186.25-416-416-416-123.020 0-233.542 53.418-309.694 138.306l149.694 149.694h-352v-352l134.32 134.32c93.608-102.216 228.154-166.32 377.68-166.32 282.77 0 512 229.23 512 512h-96z" />
<glyph unicode="&#x4b;" glyph-name="circle-up" d="M0 448c0-282.77 229.23-512 512-512s512 229.23 512 512-229.23 512-512 512-512-229.23-512-512zM928 448c0-229.75-186.25-416-416-416s-416 186.25-416 416 186.25 416 416 416 416-186.25 416-416zM706.744 290.744l90.512 90.512-285.256 285.254-285.254-285.256 90.508-90.508 194.746 194.744z" />
<glyph unicode="&#x4c;" glyph-name="circle-right" d="M512 960c-282.77 0-512-229.23-512-512s229.23-512 512-512 512 229.23 512 512-229.23 512-512 512zM512 32c-229.75 0-416 186.25-416 416s186.25 416 416 416 416-186.25 416-416-186.25-416-416-416zM354.744 253.256l90.512-90.512 285.254 285.256-285.256 285.254-90.508-90.508 194.744-194.746z" />
<glyph unicode="&#x4d;" glyph-name="circle-down" d="M1024 448c0 282.77-229.23 512-512 512s-512-229.23-512-512 229.23-512 512-512 512 229.23 512 512zM96 448c0 229.75 186.25 416 416 416s416-186.25 416-416-186.25-416-416-416-416 186.25-416 416zM317.256 605.256l-90.512-90.512 285.256-285.254 285.254 285.256-90.508 90.508-194.746-194.744z" />
<glyph unicode="&#x4e;" glyph-name="circle-left" d="M512-64c282.77 0 512 229.23 512 512s-229.23 512-512 512-512-229.23-512-512 229.23-512 512-512zM512 864c229.75 0 416-186.25 416-416s-186.25-416-416-416-416 186.25-416 416 186.25 416 416 416zM669.256 642.744l-90.512 90.512-285.254-285.256 285.256-285.254 90.508 90.508-194.744 194.746z" />
<glyph unicode="&#x4f;" glyph-name="facebook" d="M608 768h160v192h-160c-123.514 0-224-100.486-224-224v-96h-128v-192h128v-512h192v512h160l32 192h-192v96c0 17.346 14.654 32 32 32z" />
<glyph unicode="&#x50;" glyph-name="facebook2" d="M928 960h-832c-52.8 0-96-43.2-96-96v-832c0-52.8 43.2-96 96-96h416v448h-128v128h128v64c0 105.8 86.2 192 192 192h128v-128h-128c-35.2 0-64-28.8-64-64v-64h192l-32-128h-160v-448h288c52.8 0 96 43.2 96 96v832c0 52.8-43.2 96-96 96z" />
<glyph unicode="&#x51;" glyph-name="instagram" d="M512 867.8c136.8 0 153-0.6 206.8-3 50-2.2 77-10.6 95-17.6 23.8-9.2 41-20.4 58.8-38.2 18-18 29-35 38.4-58.8 7-18 15.4-45.2 17.6-95 2.4-54 3-70.2 3-206.8s-0.6-153-3-206.8c-2.2-50-10.6-77-17.6-95-9.2-23.8-20.4-41-38.2-58.8-18-18-35-29-58.8-38.4-18-7-45.2-15.4-95-17.6-54-2.4-70.2-3-206.8-3s-153 0.6-206.8 3c-50 2.2-77 10.6-95 17.6-23.8 9.2-41 20.4-58.8 38.2-18 18-29 35-38.4 58.8-7 18-15.4 45.2-17.6 95-2.4 54-3 70.2-3 206.8s0.6 153 3 206.8c2.2 50 10.6 77 17.6 95 9.2 23.8 20.4 41 38.2 58.8 18 18 35 29 58.8 38.4 18 7 45.2 15.4 95 17.6 53.8 2.4 70 3 206.8 3zM512 960c-139 0-156.4-0.6-211-3-54.4-2.4-91.8-11.2-124.2-23.8-33.8-13.2-62.4-30.6-90.8-59.2-28.6-28.4-46-57-59.2-90.6-12.6-32.6-21.4-69.8-23.8-124.2-2.4-54.8-3-72.2-3-211.2s0.6-156.4 3-211c2.4-54.4 11.2-91.8 23.8-124.2 13.2-33.8 30.6-62.4 59.2-90.8 28.4-28.4 57-46 90.6-59 32.6-12.6 69.8-21.4 124.2-23.8 54.6-2.4 72-3 211-3s156.4 0.6 211 3c54.4 2.4 91.8 11.2 124.2 23.8 33.6 13 62.2 30.6 90.6 59s46 57 59 90.6c12.6 32.6 21.4 69.8 23.8 124.2 2.4 54.6 3 72 3 211s-0.6 156.4-3 211c-2.4 54.4-11.2 91.8-23.8 124.2-12.6 34-30 62.6-58.6 91-28.4 28.4-57 46-90.6 59-32.6 12.6-69.8 21.4-124.2 23.8-54.8 2.6-72.2 3.2-211.2 3.2v0zM512 711c-145.2 0-263-117.8-263-263s117.8-263 263-263 263 117.8 263 263c0 145.2-117.8 263-263 263zM512 277.4c-94.2 0-170.6 76.4-170.6 170.6s76.4 170.6 170.6 170.6c94.2 0 170.6-76.4 170.6-170.6s-76.4-170.6-170.6-170.6zM846.8 721.4c0-33.91-27.49-61.4-61.4-61.4s-61.4 27.49-61.4 61.4c0 33.91 27.49 61.4 61.4 61.4s61.4-27.49 61.4-61.4z" />
<glyph unicode="&#x52;" glyph-name="twitter" d="M1024 733.6c-37.6-16.8-78.2-28-120.6-33 43.4 26 76.6 67.2 92.4 116.2-40.6-24-85.6-41.6-133.4-51-38.4 40.8-93 66.2-153.4 66.2-116 0-210-94-210-210 0-16.4 1.8-32.4 5.4-47.8-174.6 8.8-329.4 92.4-433 219.6-18-31-28.4-67.2-28.4-105.6 0-72.8 37-137.2 93.4-174.8-34.4 1-66.8 10.6-95.2 26.2 0-0.8 0-1.8 0-2.6 0-101.8 72.4-186.8 168.6-206-17.6-4.8-36.2-7.4-55.4-7.4-13.6 0-26.6 1.4-39.6 3.8 26.8-83.4 104.4-144.2 196.2-146-72-56.4-162.4-90-261-90-17 0-33.6 1-50.2 3 93.2-59.8 203.6-94.4 322.2-94.4 386.4 0 597.8 320.2 597.8 597.8 0 9.2-0.2 18.2-0.6 27.2 41 29.4 76.6 66.4 104.8 108.6z" />
<glyph unicode="&#x53;" glyph-name="youtube" d="M1013.8 652.8c0 0-10 70.6-40.8 101.6-39 40.8-82.6 41-102.6 43.4-143.2 10.4-358.2 10.4-358.2 10.4h-0.4c0 0-215 0-358.2-10.4-20-2.4-63.6-2.6-102.6-43.4-30.8-31-40.6-101.6-40.6-101.6s-10.2-82.8-10.2-165.8v-77.6c0-82.8 10.2-165.8 10.2-165.8s10-70.6 40.6-101.6c39-40.8 90.2-39.4 113-43.8 82-7.8 348.2-10.2 348.2-10.2s215.2 0.4 358.4 10.6c20 2.4 63.6 2.6 102.6 43.4 30.8 31 40.8 101.6 40.8 101.6s10.2 82.8 10.2 165.8v77.6c-0.2 82.8-10.4 165.8-10.4 165.8zM406.2 315.2v287.8l276.6-144.4-276.6-143.4z" />
<glyph unicode="&#x61;" glyph-name="1" d="M889.346 635.251h-140.412v168.495c0 15.51-12.573 28.083-28.083 28.083h-561.648c-15.51 0-28.083-12.573-28.083-28.083v-645.895c0-62.039 50.292-112.33 112.33-112.33h561.648c62.039 0 112.33 50.292 112.33 112.33v449.319c0 15.508-12.573 28.081-28.083 28.081zM355.78 691.417h168.495c15.51 0 28.083-12.573 28.083-28.083s-12.573-28.083-28.083-28.083h-168.495c-15.51 0-28.083 12.573-28.083 28.083s12.575 28.083 28.083 28.083zM608.521 157.85h-336.989c-15.51 0-28.083 12.573-28.083 28.083s12.573 28.083 28.083 28.083h336.989c15.51 0 28.083-12.573 28.083-28.083s-12.573-28.083-28.083-28.083zM608.521 270.18h-336.989c-15.51 0-28.083 12.573-28.083 28.083s12.573 28.083 28.083 28.083h336.989c15.51 0 28.083-12.573 28.083-28.083s-12.573-28.083-28.083-28.083zM608.521 382.509h-336.989c-15.51 0-28.083 12.573-28.083 28.083s12.573 28.083 28.083 28.083h336.989c15.51 0 28.083-12.573 28.083-28.083s-12.573-28.083-28.083-28.083zM608.521 494.839h-336.989c-15.51 0-28.083 12.573-28.083 28.083s12.573 28.083 28.083 28.083h336.989c15.51 0 28.083-12.573 28.083-28.083s-12.573-28.083-28.083-28.083zM861.263 157.85c0-31.018-25.146-56.164-56.164-56.164s-56.164 25.146-56.164 56.164v421.236h112.33v-421.236z" />
<glyph unicode="&#x62;" glyph-name="2" d="M583.233 337.101c47.772 20.14 85.484 47.554 113.119 82.253 27.632 34.691 41.449 72.47 41.449 113.339 0 40.87-13.817 78.652-41.46 113.345-27.632 34.693-65.338 62.11-113.116 82.254-47.778 20.141-99.744 30.208-155.905 30.208-56.156 0-108.122-10.073-155.903-30.208-47.776-20.143-85.484-47.56-113.118-82.254-27.636-34.699-41.457-72.475-41.457-113.346 0-34.985 10.453-67.929 31.327-98.8 20.872-30.865 49.54-56.89 85.996-78.056-2.938-7.062-5.952-13.522-9.040-19.411-3.089-5.879-6.761-11.534-11.028-16.978-4.263-5.445-7.568-9.705-9.922-12.782-2.353-3.086-6.174-7.433-11.469-13.010-5.294-5.587-8.677-9.262-10.144-11.022 0 0.295-0.589-0.371-1.766-1.988-1.179-1.617-1.84-2.348-1.985-2.21-0.148 0.159-0.737-0.576-1.766-2.193-1.029-1.619-1.545-2.427-1.545-2.427l-1.104-2.198c-0.436-0.888-0.735-1.756-0.88-2.645-0.148-0.876-0.222-1.838-0.222-2.864s0.145-1.977 0.445-2.864c0.589-3.817 2.278-6.899 5.071-9.262 2.791-2.348 5.802-3.52 9.040-3.52h1.324c14.698 2.058 27.343 4.409 37.926 7.058 45.279 11.755 86.15 30.581 122.607 56.452 26.459-4.705 52.333-7.056 77.617-7.056 56.161-0.020 108.133 10.044 155.909 30.187zM875.843 320.788c20.881 30.723 31.314 63.715 31.314 99.001 0 36.168-11.039 70-33.082 101.457-22.054 31.453-52.048 57.625-89.972 78.501 6.757-22.049 10.138-44.393 10.138-67.037 0-39.395-9.837-76.735-29.549-112.021-19.698-35.275-47.925-66.438-84.675-93.492-34.107-24.697-72.918-43.655-116.436-56.89-43.505-13.226-88.934-19.846-136.271-19.846-8.817 0-21.756 0.582-38.806 1.756 59.095-38.802 128.485-58.212 208.159-58.212 25.288 0 51.159 2.357 77.623 7.061 36.455-25.882 77.328-44.69 122.604-56.458 10.584-2.654 23.228-5 37.929-7.056 3.527-0.295 6.767 0.735 9.705 3.088 2.94 2.351 4.853 5.576 5.731 9.688-0.137 1.766 0 2.734 0.443 2.875 0.434 0.139 0.36 1.1-0.222 2.861-0.581 1.767-0.877 2.649-0.877 2.649l-1.1 2.2c-0.306 0.581-0.803 1.395-1.543 2.421-0.735 1.020-1.321 1.766-1.766 2.204-0.433 0.439-1.089 1.179-1.977 2.2-0.877 1.020-1.469 1.687-1.766 1.982-1.469 1.766-4.849 5.439-10.139 11.028-5.297 5.581-9.112 9.917-11.465 13.003-2.353 3.088-5.661 7.348-9.923 12.793-4.26 5.434-7.94 11.096-11.028 16.978-3.086 5.879-6.1 12.35-9.040 19.402 36.458 21.187 65.119 47.134 85.989 77.867z" />
<glyph unicode="&#x63;" glyph-name="3" d="M266.808 828.547c-22.408 0-43.223-11.127-55.658-29.788l-60.969-91.456c-2.604-3.901-3.855-8.391-5.931-12.543h345.453v133.787zM873.82 707.304l-60.971 91.455c-12.433 18.662-34.735 29.788-57.143 29.788h-221.408v-133.786h345.453c-2.077 4.15-3.327 8.641-5.931 12.543zM891.852 650.165h-759.705c-0.068-1.601-0.694-3.095-0.694-4.703v-511.116c0-36.886 30.007-66.893 66.893-66.893h627.307c36.886 0 66.893 30.007 66.893 66.893v511.116c0 1.608-0.626 3.102-0.694 4.703zM601.191 427.189h-178.381c-36.886 0-66.893 30.007-66.893 66.893s30.007 66.893 66.893 66.893h178.381c36.886 0 66.893-30.007 66.893-66.893s-30.007-66.893-66.893-66.893z" />
<glyph unicode="&#x64;" glyph-name="4" d="M512 880.334c-181.58 0-329.317-147.737-329.317-329.317 0-71.859 22.698-140.137 65.694-197.421l243.323-327.714c0.608-0.794 1.537-1.098 2.212-1.807 12.159-13.021 29.706-9.744 38.37 1.807 70.068 93.492 198.502 268.099 247.883 333.963 0 0 0.017 0.051 0.034 0.084l0.304 0.405c39.788 55.899 60.814 121.83 60.814 190.683 0 181.58-147.737 329.317-329.317 329.317zM512 373.355c-97.765 0-177.662 79.897-177.662 177.662s79.897 177.662 177.662 177.662c97.765 0 177.662-79.897 177.662-177.662s-79.897-177.662-177.662-177.662z" />
<glyph unicode="&#x65;" glyph-name="5" d="M913.975 461.859c-7.256 10.145-180.232 248.106-400.379 248.106-220.164 0-396.316-237.961-403.571-248.106-5.954-8.288-5.954-19.449 0-27.72 7.256-10.145 183.408-248.105 403.571-248.105 220.146 0 393.123 237.96 400.379 248.106 5.954 8.27 5.954 19.433 0 27.719zM513.596 281.295c-91.911 0-169.881 74.795-169.881 166.706s77.97 166.706 169.881 166.706c91.911 0 166.706-74.795 166.706-166.706s-74.795-166.706-166.706-166.706zM513.596 519.445c-39.406 0-74.62-32.055-74.62-71.445 0-39.406 35.214-71.445 74.62-71.445 39.39 0 71.445 32.039 71.445 71.445 0 39.39-32.055 71.445-71.445 71.445z" />
<glyph unicode="&#x66;" glyph-name="6" d="M704.947 811.382c-44.672 0-85.628-14.156-121.728-42.075-34.61-26.766-57.652-60.859-71.218-85.649-13.566 24.792-36.608 58.882-71.218 85.649-36.1 27.919-77.056 42.075-121.728 42.075-124.663 0-218.673-101.967-218.673-237.186 0-146.083 117.284-246.031 294.837-397.338 30.151-25.696 64.327-54.821 99.848-85.884 4.682-4.1 10.696-6.358 16.934-6.358s12.252 2.257 16.934 6.356c35.525 31.068 69.699 60.191 99.867 85.901 177.533 151.291 294.817 251.239 294.817 397.322 0 135.218-94.010 237.186-218.673 237.186z" />
<glyph unicode="&#x67;" glyph-name="7" d="M806.817 602.108h-398.321l178.374 178.374c9.853 9.853 9.853 25.829 0 35.684l-45.199 45.199c-22.991 22.991-60.268 22.991-83.261 0l-46.474-46.476-23.79 23.79c-26.233 26.234-68.92 26.233-95.155 0l-92.776-92.776c-26.234-26.234-26.234-68.922 0-95.156l23.789-23.79-46.474-46.474c-22.991-22.991-22.991-60.268 0-83.261l45.199-45.199c9.852-9.853 25.829-9.855 35.682 0l63.952 63.952v-389.244c0-60.386 48.953-109.339 109.339-109.339h265.777c60.386 0 109.339 48.953 109.339 109.339zM259.687 662.642l-23.789 23.789c-6.558 6.558-6.558 17.23 0 23.79l92.776 92.776c6.56 6.56 17.232 6.558 23.789 0l23.789-23.79zM477.562 158.692c0-13.935-11.296-25.232-25.232-25.232s-25.232 11.296-25.232 25.232v302.116c0 13.935 11.296 25.232 25.232 25.232s25.232-11.296 25.232-25.232zM589.821 158.692c0-13.935-11.296-25.232-25.232-25.232s-25.232 11.296-25.232 25.232v302.116c0 13.935 11.296 25.232 25.232 25.232s25.232-11.296 25.232-25.232zM702.080 158.692c0-13.935-11.296-25.232-25.232-25.232s-25.232 11.296-25.232 25.232v302.116c0 13.935 11.296 25.232 25.232 25.232s25.232-11.296 25.232-25.232zM592.696 687.62c-15.392-5.366-26.191-19.109-27.973-35.056h242.095v41.936c0 28.794-28.333 49.059-55.543 39.833l-158.055-46.545c-0.17-0.049-0.355-0.116-0.523-0.168z" />
<glyph unicode="&#x68;" glyph-name="8" d="M921.405 234.506l-301.787 554.761c-48.487 81.628-166.684 81.737-215.236 0l-301.772-554.761c-49.567-83.41 10.444-189.035 107.593-189.035h603.584c97.068 0 157.185 105.539 107.618 189.035zM512 145.585c-27.595 0-50.057 22.462-50.057 50.057s22.462 50.057 50.057 50.057c27.595 0 50.057-22.462 50.057-50.057s-22.462-50.057-50.057-50.057zM562.057 345.815c0-27.595-22.462-50.057-50.057-50.057s-50.057 22.462-50.057 50.057v250.286c0 27.595 22.462 50.057 50.057 50.057s50.057-22.462 50.057-50.057z" />
<glyph unicode="&#x69;" glyph-name="9" d="M898.94 256.57l-114.215 114.215c-40.791 40.791-110.135 24.473-126.452-28.554-12.237-36.713-53.028-57.109-89.74-48.949-81.582 20.395-191.717 126.452-212.113 212.113-12.237 36.713 12.237 77.504 48.949 89.74 53.028 16.316 69.345 85.661 28.554 126.452l-114.215 114.215c-32.633 28.554-81.582 28.554-110.135 0l-77.503-77.503c-77.503-81.582 8.158-297.774 199.875-489.491s407.909-281.459 489.491-199.875l77.503 77.503c28.555 32.633 28.555 81.582 0 110.135z" />
<glyph unicode="&#x6a;" glyph-name="10" d="M715.136 833.906c-9.142 9.142-23.964 9.142-33.107 0l-56.931-56.931c-31.093 16.807-70.833 12.092-97.073-14.148l-108.336-108.336c-21.914-21.914-21.914-57.443 0-79.355 21.914-21.914 57.443-21.914 79.355 0l39.158 39.158c60.729-50.641 144.009-66.485 219.418-40.971l104.285-104.285c13.072 28.392 9.105 62.764-11.939 87.506l54.714 54.714c9.142 9.142 9.142 23.964 0 33.107-0.158 0.158-0.329 0.292-0.492 0.443l0.023 0.023zM543.93 223.245c-21.914 21.914-57.443 21.914-79.356 0 21.914 21.914 21.914 57.443 0 79.355-21.914 21.914-57.443 21.914-79.356 0 21.914 21.914 21.914 57.443 0 79.355-21.914 21.914-57.443 21.914-79.355 0 21.914 21.914 21.914 57.443 0 79.355-21.914 21.914-57.443 21.914-79.356 0l-72.216-72.216c-21.914-21.914-21.914-57.443 0-79.356s57.443-21.914 79.355 0c-21.914-21.914-21.914-57.443 0-79.355 21.914-21.914 57.443-21.914 79.355 0-21.914-21.914-21.914-57.443 0-79.356s57.443-21.914 79.355 0c-21.914-21.914-21.914-57.443 0-79.355 21.914-21.914 57.443-21.914 79.355 0l72.216 72.216c21.918 21.917 21.918 57.444 0.005 79.358zM543.464 553.341l-11.312-11.312c-40.133-40.133-105.437-40.133-145.57 0s-40.133 105.437 0 145.57l89.761 89.761c-25.216 9.658-53.917 7.633-77.672-6.074l-56.698 56.698c-9.142 9.142-23.964 9.142-33.107 0l-189.545-189.543c-9.142-9.142-9.142-23.964 0-33.107l56.698-56.698c-13.707-23.755-15.732-52.456-6.074-77.672l23.456 23.456c40.133 40.133 105.437 40.133 145.57 0 14.63-14.63 23.902-32.61 27.864-51.49 18.881-3.964 36.86-13.235 51.49-27.864s23.9-32.61 27.864-51.492c18.881-3.964 36.86-13.235 51.49-27.863 14.63-14.63 23.902-32.61 27.864-51.49 18.881-3.964 36.86-13.235 51.49-27.864 40.133-40.133 40.133-105.437 0-145.57l-28.969-28.969 10.14-10.14c21.914-21.914 57.443-21.914 79.356 0s21.914 57.443 0 79.356c21.914-21.914 57.443-21.914 79.356 0s21.914 57.443 0 79.356c21.914-21.914 57.443-21.914 79.356 0s21.914 57.443 0 79.356c21.914-21.914 57.443-21.914 79.356 0s21.914 57.443 0 79.356l-131.839 131.839c-68.664-15.15-140.449-3.273-200.326 32.401z" />
<glyph unicode="&#x6b;" glyph-name="11" d="M741.425 472.012c-43.442 0-78.568-35.296-78.568-78.568 0-10.351 8.485-18.836 18.836-18.836s18.836 8.485 18.836 18.836c0 22.569 18.497 41.066 41.066 41.066 10.351 0 18.836 8.485 18.836 18.836-0.17 10.351-8.654 18.666-19.006 18.666zM869.544 526.144c-4.582 4.412-9.503 8.654-14.594 12.727v0l-69.574 59.053c-26.812 19.006-58.714 31.054-93.331 33.43l3.733-3.733-42.254 42.423h-0.339c-11.709 10.691-27.49 17.309-44.629 17.309-29.527 0-54.472-19.175-62.956-45.817-8.485 5.43-18.327 8.654-29.018 9.333-1.697 0.17-3.564 0.17-5.26 0.17-12.048 0-23.248-3.564-32.751-9.503-8.654 26.472-33.599 45.648-62.956 45.648-17.139 0-32.751-6.448-44.629-17.309h-0.339l-38.52-38.69c-34.617-2.376-66.69-14.594-93.331-33.43l-69.574-59.053c-5.091-3.903-10.012-8.145-14.594-12.727-34.787-33.599-56.338-80.604-56.338-132.7 0-101.816 82.81-184.626 184.626-184.626 94.010 0 171.899 70.762 183.099 161.888 13.575-7.806 29.357-12.218 45.987-12.218 16.8 0 32.411 4.412 45.987 12.218 11.369-90.956 89.089-161.718 183.099-161.718 101.816 0 184.626 82.81 184.626 184.626 0.17 52.096-21.381 99.101-56.169 132.7zM282.913 267.361c-69.574 0-125.913 56.338-125.913 125.913s56.338 125.913 125.913 125.913c69.574 0 125.913-56.338 125.913-125.913 0.17-69.405-56.338-125.913-125.913-125.913zM512.169 410.583c-22.569 0-40.896 18.327-40.896 40.896s18.327 40.896 40.896 40.896c22.569 0 40.896-18.327 40.896-40.896s-18.327-40.896-40.896-40.896zM741.425 267.361c-69.574 0-125.913 56.338-125.913 125.913s56.338 125.913 125.913 125.913c69.574 0 125.913-56.338 125.913-125.913 0-69.405-56.338-125.913-125.913-125.913zM282.913 472.012c-43.442 0-78.568-35.296-78.568-78.568 0-10.351 8.485-18.836 18.836-18.836s18.836 8.485 18.836 18.836c0 22.569 18.497 41.066 41.066 41.066 10.351 0 18.836 8.485 18.836 18.836-0.17 10.351-8.654 18.666-19.006 18.666z" />
<glyph unicode="&#x6c;" glyph-name="12" d="M920.716 542.056c-2.824 8.696-10.339 15.033-19.385 16.346l-254.138 36.93-113.657 230.287c-4.044 8.198-12.394 13.387-21.535 13.387-9.143 0-17.491-5.189-21.537-13.387l-113.662-230.287-254.133-36.93c-9.045-1.313-16.562-7.65-19.387-16.344-2.826-8.696-0.469-18.24 6.078-24.621l183.888-179.254-43.404-253.113c-1.547-9.011 2.158-18.115 9.554-23.49 4.184-3.039 9.139-4.586 14.119-4.586 3.824 0 7.66 0.911 11.173 2.759l227.309 119.506 227.299-119.504c8.094-4.254 17.898-3.547 25.293 1.827s11.102 14.481 9.557 23.492l-43.418 253.11 183.908 179.256c6.545 6.379 8.904 15.923 6.076 24.618z" />
<glyph unicode="&#x6d;" glyph-name="13" d="M799.238 776.271h-41.033v82.068h-82.068v-82.068h-328.272v82.068h-82.068v-82.068h-41.033c-45.342 0-81.657-36.725-81.657-82.068l-0.412-574.474c0-45.342 36.725-82.068 82.068-82.068h574.476c45.342 0 82.068 36.725 82.068 82.068v574.476c-0.002 45.342-36.727 82.067-82.068 82.067zM799.238 119.729h-574.476v451.374h574.476zM454.141 201.797l243.742 243.742-43.495 43.495-200.246-200.246-86.991 86.993-43.497-43.495z" />
<glyph unicode="&#x6e;" d="M863.621 448c0-204.023-165.393-369.416-369.416-369.416s-369.416 165.393-369.416 369.416c0 204.023 165.393 369.416 369.416 369.416s369.416-165.393 369.416-369.416z" />
<glyph unicode="&#x6f;" d="M869.454 780.668c-15.429-1.017-29.054-7.997-38.731-18.633l-354.376-388.059-92.263 102.734c-10.539 11.761-25.776 19.128-42.733 19.128-14.706 0-28.117-5.54-38.262-14.646l0.053 0.047c-11.761-10.539-19.128-25.776-19.128-42.733 0-14.706 5.54-28.117 14.646-38.262l-0.047 0.053 134.715-150.281c10.531-11.659 25.704-18.954 42.58-18.954 16.742 0 31.808 7.18 42.285 18.628l0.039 0.043 397.070 434.993c9.289 10.149 14.981 23.725 14.981 38.631 0 16.736-7.175 31.796-18.617 42.272l-0.043 0.039c-10.166 9.362-23.794 15.101-38.762 15.101-1.199 0-2.388-0.037-3.569-0.109l0.162 0.008z" />
<glyph unicode="&#x70;" glyph-name="16" d="M326.327 773.928c-11.103-0.012-21.15-4.52-28.422-11.8v0l-211.039-211.038c-8.277-7.396-13.464-18.1-13.472-30.015v-0.001c0.007-11.918 5.196-22.623 13.435-29.985l0.039-0.034 211.037-211.037c7.282-7.29 17.346-11.8 28.464-11.8s21.182 4.51 28.464 11.8v0c7.237 7.273 11.712 17.302 11.712 28.375s-4.474 21.102-11.713 28.377l-144.098 144.098h363.096c22.2 0.013 40.193 18.006 40.206 40.205v0.001c-0.014 22.199-18.007 40.192-40.205 40.205h-363.097l144.1 144.1c7.237 7.273 11.712 17.302 11.712 28.375s-4.474 21.102-11.713 28.377l0.002-0.002c-7.282 7.291-17.346 11.801-28.464 11.801-0.014 0-0.029 0-0.043 0h0.002zM697.673 627.784c-0.012 0-0.026 0-0.040 0-11.118 0-21.182-4.51-28.464-11.8v0c-7.237-7.273-11.712-17.302-11.712-28.375s4.474-21.102 11.713-28.377l144.098-144.098h-363.096c-22.199-0.014-40.191-18.006-40.205-40.204v-0.001c0.014-22.199 18.006-40.192 40.204-40.206h363.098l-144.1-144.1c-7.237-7.273-11.711-17.302-11.711-28.375s4.474-21.102 11.713-28.377l-0.002 0.002c7.282-7.29 17.346-11.8 28.464-11.8s21.182 4.51 28.464 11.8v0l211.037 211.037c8.278 7.396 13.466 18.101 13.474 30.018v0.001c-0.008 11.917-5.196 22.621-13.434 29.982l-0.039 0.034-211.038 211.038c-7.273 7.281-17.321 11.789-28.421 11.801h-0.002z" />
<glyph unicode="&#x71;" glyph-name="B" d="M953.429 58.358c-28.369-26.481-54.475-50.689-81.331-76.413-127.481 136.18-253.45 270.471-379.794 405.518-77.549-40.099-156.23-48.419-237.182-18.913-64.69 23.453-114.242 65.82-147.91 125.587-67.711 119.161-39.345 268.959 66.578 356.343 105.163 86.625 258.744 84.357 362.772-4.542 94.95-81.332 141.098-238.695 40.857-385.468 124.077-132.4 248.91-265.934 376.014-402.113zM528.996 633.723c-0.348 97.596-79.061 177.037-176.657 177.037-97.217 0-176.658-79.441-177.412-176.658-0.377-98.732 80.95-180.062 178.169-178.928 98.354 1.137 176.279 80.574 175.9 178.549z" />
<glyph unicode="&#x72;" glyph-name="C" d="M68.803 880.549c67.584 0 134.756 0 203.733 0 11.35-48.341 22.7-95.655 34.566-146.147 10.833 0 21.152 0 31.471 0 176.751 0.377 353.451 0.377 530.542 1.069 19.089 0 37.146-1.78 53.706-11.711 28.891-17.438 39.209-44.781 27.859-77.877-10.318-30.232-21.668-60.098-33.534-89.609-24.248-60.093-49.011-119.836-72.537-180.285-6.191-17.077-15.478-22.029-33.534-22.029-127.997 0.714-256.046 0.377-383.683 0.377-10.319 0-21.152 0-34.050 0 4.628-21.359 7.738-39.828 12.896-57.251 1.781-5.314 8.255-11.711 13.93-13.517 35.082-12.072 62.219-33.431 81.101-65.428 2.842-4.977 10.833-9.957 16.509-9.957 39.725-0.714 79.657-0.377 118.402-0.377 48.496 71.118 105.246 95.299 169.941 73.961 56.183-18.47 94.928-73.249 93.896-131.924-1.424-60.805-41.789-112.721-100.964-129.081-63.302-17.438-118.762 7.842-162.512 76.453-20.121 0-42.305 0-64.386 0-21.152 0-42.821 0-64.695 0-23.216-43.749-57.266-72.898-106.69-79.652-40.757-5.675-77.851 4.621-108.806 31.987-34.050 30.232-49.012 68.632-46.432 114.145 2.136 36.63 15.993 60.098 63.302 108.104-37.145 164.282-74.652 329.631-113.088 498.541-41.789 0-84.3 1.426-126.605-1.069 0 36.63 0 73.961 0 111.298z" />
<glyph unicode="&#x73;" glyph-name="E" d="M790.751 917.537c11.309-3.75 23.353-5.999 33.777-11.489 40.766-21.268 60.46-55.72 60.46-101.556q0-197.217 0-394.464 0-159.331 0-318.676c0-38.622-14.564-69.909-45.926-92.752-16.369-12.349-37.033-19.807-59.436-19.888h-0.019c-170.46-0.18-340.919-0.51-511.454 0.12-55.87 0.21-105.575 46.031-105.455 110.075 0 26.488 0 52.99 0 79.493 0 30.492 0.105 60.984-0.105 91.492 0 5.624 1.245 7.919 7.499 7.784 19.228-0.405 38.487-0.135 57.73-0.165 1.95 0 3.915-0.285 6.884-0.51v-8.999q0-82.493 0-164.985c0-27.912 14.099-42.176 41.846-42.191q247.478 0 494.955 0c27.103 0 41.471 14.594 41.471 41.861q0 355.468 0 710.846c0 27.178-14.459 41.711-41.621 41.711q-247.073 0-494.145 0c-28.422 0-42.461-14.039-42.461-42.311q0-82.103 0-164.205v-9.164c-1.572-0.381-3.455-0.684-5.379-0.845l-0.141-0.009c-19.993 0-39.986 0.12-59.995-0.090-4.815 0-6.584 1.32-6.569 6.314 0.165 58.495-0.63 116.989 0.405 175.484 0.96 54.265 36.552 95.106 89.632 105.665 1.58 0.409 2.943 0.906 4.241 1.517l-0.147-0.062zM307.074 556.235c0 3.795 0 6.974 0 10.139 0.255 29.727 0.24 59.47 1.035 89.197 0.37 6.798 2.362 13.060 5.592 18.5l-0.103-0.187c6.959 12.104 23.833 14.054 34.392 4.905l153.376-132.813q53.47-46.301 106.91-92.647v0c1.414-1.243 2.302-3.057 2.302-5.077s-0.888-3.834-2.295-5.071l-0.008-0.006c-7.979-6.989-15.674-13.724-23.383-20.428q-64.989-56.44-130.038-112.865-53.725-46.571-107.6-92.992c-10.589-9.119-30.162-3.75-35.292 10.589-2.878 8.254-4.598 17.772-4.724 27.673l-0.001 0.059c-0.615 24.988-0.21 49.99-0.21 74.993v9.764h-9.554c-66.984 0-133.983 0.63-200.982-0.285-28.377-0.39-42.836 18.733-42.401 42.641 0.84 45.221 0.165 90.472 0.285 135.723 0 19.273 11.084 33.822 28.272 37.377 3.363 0.575 7.236 0.904 11.187 0.904 1.051 0 2.096-0.023 3.135-0.069l-0.148 0.005q100.101 0 200.217 0z" />
<glyph unicode="&#x74;" glyph-name="F" d="M306.852 2.384c-12.575 3.224-21.281 7.739-28.375 11.608-36.436 20.958-60.941 53.847-78.675 90.605-23.538 48.366-37.725 86.091-42.884 106.082-5.159 19.669-7.094 32.566-8.061 37.725-4.192 29.342-5.804 65.455 7.094 95.442 3.869 9.028 9.673 17.412 16.444 24.505 19.346 20.314 27.73 44.496 29.019 72.226 2.257 41.917 4.192 84.156 8.383 126.073 9.028 90.928 39.66 174.439 92.217 249.245 33.211 47.398 76.418 82.544 133.167 98.989 29.664 8.706 59.974 10.318 89.96 5.159 44.819-7.739 89.315-16.444 133.489-27.73 35.146-9.028 61.263-33.211 83.512-60.618 39.982-48.688 65.455-105.115 80.932-165.733 6.126-23.86 12.898-47.721 15.477-72.226 4.514-42.884 6.126-85.769 8.061-128.975 0.967-23.216 0.322-46.754 0.322-72.871-0.322-10.64-0.322-26.118 3.547-44.819 4.514-22.571 11.608-36.758 16.122-48.366 12.575-31.921 11.93-59.974 11.285-89.315-1.612-66.422-25.795-113.821-34.501-133.167-18.701-41.917-51.59-69.002-94.474-84.156-30.954-10.963-62.553-18.057-95.442-19.024-14.832-0.322-25.473 4.514-32.566 6.449-38.693 10.963-64.488 30.954-90.928 51.268-9.028 7.094-22.248 17.734-37.080 32.244-8.706-5.804-18.057-14.51-29.342-19.669-27.407-12.253-54.17-26.118-85.124-29.342-164.121 140.583-251.179 279.232-226.997 317.279 4.192 6.771 34.178 44.819 34.501 44.819 0 0 0-0.322 0-0.322-2.257-3.869 59.006-35.468 88.993-70.936 35.468-42.239 10.963-70.936 35.791-119.625 46.754-90.928 184.757-88.348 182.178-122.204-0.645-9.673-29.342-20.958-86.413-43.207-50.945-19.346-74.483-23.538-99.633-17.412zM742.789 464.76c5.159-3.869-3.224-19.991-9.996-49.655-1.29-5.481-3.547-10.64-6.449-18.379 13.865 57.394 15.477 105.76 14.51 138.004-1.29 43.852-4.514 120.914-49.978 199.912-19.669 33.856-44.174 62.875-75.451 85.446-35.468 25.795-60.941 29.342-70.614 30.309-13.542 1.29-27.73 0.322-42.239-3.547-33.856-8.706-61.908-29.342-85.446-54.492-18.701-20.314-40.95-40.305-51.59-64.81-33.211-77.063-48.688-158.962-51.59-243.118-0.322-9.351 0-18.701 0-28.697 44.174-0.645 79.642-16.122 108.339-46.431 25.473-26.44 43.207-58.039 59.006-90.605 6.771-14.187 12.898-28.697 20.636-45.786 2.58 6.771 3.869 11.285 5.481 15.477 12.575 37.725 31.921 71.581 57.716 102.213 34.823 40.95 77.063 67.067 131.877 69.647 9.673 0.322 19.346 0 29.987 0 9.996 6.126 13.865 5.804 15.799 4.514zM800.183 560.524c-5.804-0.322-10.318 0-14.51-0.967-2.58-0.322-4.514-2.58-6.771-4.192 2.257-2.257 3.869-5.481 6.771-6.449 4.837-1.612 10.318-1.935 16.444-2.902-0.967 6.126-1.29 9.996-1.935 14.51zM748.27 135.873c1.935-0.645 3.869-1.29 5.804-1.935 2.257 5.481 5.159 10.64 6.771 16.122 0.645 1.935-1.29 4.514-2.257 6.771-2.58-1.29-7.094-1.612-7.739-3.547-1.29-5.481-1.612-11.608-2.58-17.412zM809.211 153.607c1.29 4.514 2.58 8.061 3.224 11.608 0.322 2.257-0.322 4.837-0.322 7.094-2.902-0.645-7.416-0.645-8.061-2.257-2.257-5.481-3.224-11.608-4.837-17.412 0.645-0.322 1.612-0.645 2.257-0.967 0.967 1.935 1.935 3.869 3.224 6.126 2.58-1.935 3.547-3.224 4.514-4.192zM749.883 450.895c0.322-0.322-4.192-11.285-23.538-54.17 1.612 5.159 3.547 11.285 6.449 18.379 7.739 19.346 16.767 36.113 17.089 35.791zM800.183 560.524c0.645-4.514 0.967-8.383 1.612-14.187-6.126 0.967-11.608 1.29-16.444 2.902-2.58 0.967-4.514 4.192-6.771 6.449 2.257 1.29 4.514 3.547 6.771 4.192 4.514 0.645 8.706 0.322 14.832 0.645zM748.27 135.873c0.967 5.804 1.29 11.93 2.902 17.412 0.645 1.935 5.159 2.58 7.739 3.547 0.967-2.257 2.902-4.837 2.257-6.771-1.612-5.481-4.514-10.64-6.771-16.122-1.935 0.645-4.192 1.29-6.126 1.935zM809.211 153.607c-0.967 1.29-2.257 2.58-4.192 4.514-1.29-2.257-2.257-4.192-3.224-6.126-0.645 0.322-1.612 0.645-2.257 0.967 1.612 5.804 2.257 11.93 4.837 17.412 0.645 1.612 5.159 1.612 8.061 2.257 0-2.257 0.645-4.837 0.322-7.094-0.645-3.869-1.935-7.416-3.547-11.93z" />
<glyph unicode="&#x75;" glyph-name="H" d="M409.192 916.462c-26.116 0.458-53.342-7.334-76.013-20.948-19.448-11.669-41.118-27.505-46.119-49.509-17.225-79.308-12.78-219.199-12.78-219.199h156.694l5.285 135.49h149.248c0 0 1.029-86.793 0.391-134.329-0.1-13.725-6.667-27.949-16.115-37.84-41.118-42.952-80.403-80.553-124.132-122.232-8.891-8.446-15.002-21.17-15.002-33.395 1.203-90.154 4.689-248.032 4.689-248.032l155.138 0.52c0 0-1.348 119.248-2.366 187.077-0.29 13.336 9.446 25.338 16.669 36.173 33.339 46.675 92.349 71.612 123.132 119.91 8.335 13.224 12.78 28.949 15.558 44.396 11.669 67.934 5.456 137.751 1.845 206.902-1.333 25.227-8.89 50.898-22.226 72.29-10.557 16.614-26.671 29.616-43.341 40.174-16.669 10.724-35.561 22.559-55.009 22.559-63.066-0.086-137.579-1.359-215.593 0zM512.266 152.537c-0.002 0-0.004 0-0.006 0-47.778 0-86.509-38.732-86.509-86.509v0c0-47.778 38.732-86.509 86.509-86.509 0.002 0 0.004 0 0.006 0v0c0.002 0 0.004 0 0.006 0 47.778 0 86.509 38.732 86.509 86.509v0c0 47.778-38.732 86.509-86.509 86.509-0.002 0-0.004 0-0.006 0v0z" />
<glyph unicode="&#x76;" glyph-name="I" d="M512 918.357c0 0 0 0-0.001 0-259.77 0-470.356-210.586-470.356-470.356 0 0 0-0.001 0-0.001v0c0-259.77 210.586-470.355 470.356-470.355 0 0 0.001 0 0.001 0v0c259.77 0 470.355 210.585 470.355 470.355v0c0 0 0 0 0 0.001 0 259.77-210.585 470.356-470.355 470.356v0zM441.14 770.755c53.747-0.936 105.083-0.059 148.532 0 13.398 0 26.416-8.155 37.899-15.543 11.485-7.273 22.587-16.231 29.859-27.677 9.185-14.738 14.387-32.424 15.313-49.804 2.494-47.641 6.774-95.743-1.261-142.546-1.914-10.642-4.975-21.476-10.717-30.587-21.208-33.274-61.863-50.454-84.832-82.611-4.975-7.465-11.684-15.733-11.484-24.921 0.696-46.73 1.623-128.886 1.623-128.886l-106.881-0.361c0 0-2.414 108.77-3.231 170.882 0 8.422 4.209 17.187 10.336 23.006 30.128 28.715 57.192 54.621 85.521 84.213 6.511 6.814 11.034 16.614 11.103 26.070 0.42 32.75-0.275 92.546-0.275 92.546h-102.824l-3.64-93.347h-107.954c0 0-3.062 96.378 8.806 151.017 3.446 15.159 18.375 26.070 31.774 34.109 15.619 9.379 34.378 14.747 52.37 14.431zM512.18 244.441c0.001 0 0.003 0 0.004 0 32.916 0 59.6-26.684 59.601-59.6v0c0-32.916-26.684-59.6-59.601-59.6-0.001 0-0.003 0-0.004 0v0c-0.001 0-0.003 0-0.004 0-32.916 0-59.6 26.684-59.601 59.6v0c0 32.916 26.684 59.6 59.601 59.6 0.001 0 0.003 0 0.004 0v0z" />
<glyph unicode="&#x77;" glyph-name="K" d="M610.986 901.481c-72.301-205.122-191.719-366.082-376.231-473.388 13.085-31.733 75.247-136.393 88.007-148.17 88.983 50.38 183.854 84.387 285.272 98.78 102.068 14.396 203.482 9.465 304.9-8.855 0.651 1.963 1.33 3.609 2.312 4.919-100.761 174.042-201.209 348.089-304.261 526.713zM775.489 720.647c-13.531 0.997-26.591-1.937-36.895-9.544 26.498-46.126 53.31-92.614 80.136-139.070 36.315 26.828 43.506 77.57 17.66 113.883-14.517 20.447-38.349 33.069-60.901 34.73zM219.702 419.583c-25.518-11.777-49.072-22.539-72.954-33.009-17.667-7.525-27.808-21.264-33.698-39.256-16.029-50.053 14.391-112.219 64.443-129.231 23.557-8.178 46.457-7.882 67.395 7.822 19.3 14.393 39.261 28.786 60.852 44.815-29.444 51.035-57.578 99.459-86.039 148.859zM365.315 285.138c-33.371-13.413-81.122-43.504-109.258-70.002 9.489-15.704 18.977-30.124 28.139-44.52 29.769-49.725 59.514-99.427 89.286-149.154 18.975-31.405 29.104-33.717 61.491-15.397 14.394 8.178 28.484 16.369 42.552 24.547 29.114 17.339 32.047 30.754 13.725 59.868-38.275 59.869-76.54 119.736-114.817 179.605-3.599 5.232-7.519 10.146-11.118 15.053z" />
<glyph unicode="&#x78;" glyph-name="L" d="M12.618 568.976v-74.665l9.227 9.363c30.13 30.572 72.029 54.919 109.398 63.57l7.065 1.635-62.845 0.049zM254.25 568.976l-81.124-0.073 4.186-1.556c6.83-2.54 12.345-6.891 15.586-12.298 2.185-3.645 1.814-3.856-1.941-1.1-13.388 9.828-36.021 10.806-64.136 2.773-39.498-11.285-85.312-41.117-110.199-71.756l-4.004-4.929v-76.346l-0.001-76.345h70.331c38.682 0 70.333 0.238 70.335 0.521 0.005 0.669-32.153 107.664-32.473 108.038-0.124 0.154-3.007-1.005-6.389-2.576-10.638-4.943-17.385-6.644-26.599-6.704-7.048-0.046-8.405 0.143-11.311 1.575-5.133 2.528-6.45 4.906-6.428 11.604 0.016 4.901 0.293 6.115 2.312 10.097 14.87 29.331 66.243 53.981 82.59 39.628 3.005-2.638 4.145-6.028 3.652-10.831-0.95-9.207-10.886-23.163-22.992-32.293-1.766-1.332-3.143-2.613-3.060-2.841 0.083-0.231 24.749-23.851 54.814-52.49s57.405-54.766 60.756-58.059l6.093-5.99v120.976zM688.44 568.665c-0.296 0-0.59-0.006-0.883-0.011h-37.177c-0.288 0.005-0.577 0.010-0.868 0.010h-41.639c-23.675 0-39.788-16.109-39.606-40.29v-201.349h40.284v201.365h40.283c0-0.006 0-0.010 0-0.016v-201.349h40.283v201.349c0 0.006 0 0.012 0 0.018h40.283v-201.366h40.282v201.349c0.183 24.182-15.929 40.291-39.605 40.291h-0.678zM849.572 568.665c-23.675 0-39.788-16.11-39.606-40.291v-201.349h40.283v201.366h40.283v-201.366h40.283v201.349c0.182 24.182-15.931 40.291-39.606 40.291h-0.678zM1011.383 568.665c-24.17 0-40.283-16.11-40.283-40.022v-201.618h40.283v201.618zM286.468 568.664v-201.347c-0.186-24.182 15.931-40.291 39.606-40.291h40.959v40.274h-40.282v201.365zM407.134 568.664v-201.347c-0.186-24.182 15.931-40.291 39.606-40.291h41.638c23.675 0 39.788 16.11 39.606 40.291v201.348h-40.283v-201.365h-40.284v201.365zM124.161 531.034c2.341 0.127 4.677-0.765 5.188-2.090 1.282-3.342-3.894-9.702-10.452-12.844h-0.001c-2.345-1.124-5.204-2.22-6.353-2.436-3.051-0.575-5.525 0.928-5.78 3.509-0.408 4.209 9.413 12.442 16.401 13.743 0.328 0.061 0.665 0.1 0.999 0.119zM179.2 527.661c3.922 0.137 5.621-2.176 4.006-6.075-1.119-2.704-6.097-7.073-10.629-9.331-3.84-1.913-9.349-2.392-10.803-0.937-3.697 3.696 5.045 13.337 14.368 15.846 1.128 0.303 2.153 0.466 3.057 0.498zM62.516 489.508c2.716 0.058 4.417-1.070 4.417-3.328 0-3.687-7.451-10.758-13.674-12.976-4.162-1.483-7.641-1.297-8.884 0.478-0.934 1.333-0.934 1.774-0.004 4.004 1.547 3.709 4.909 6.813 10.296 9.508 3.013 1.507 5.738 2.27 7.849 2.315zM43.677 438.062c8.698 0 3.944-10.444-7.141-15.688v-0.001c-3.91-1.848-9.147-2.287-10.55-0.884-2.067 2.067-0.302 5.996 4.74 10.525 3.558 3.199 9.659 6.048 12.95 6.048z" />
<glyph unicode="&#x79;" glyph-name="M" d="M188.595 663.421c26.663 0 51.149 0 78.573 0 4.848 82.654 35.913 149.676 102.026 197.701 45.707 33.519 97.944 49.136 154.535 46.143 64.045-3.352 118.785-28.295 163.459-74.090 40.266-41.354 54.414-75.211 71.119-169.406 25.030 0 50.061 0 77.050 0 46.252-226.747 91.578-450.513 137.395-675.397-308.308 0-613.961 0-921.502 0 45.707 225.256 91.197 449.022 137.395 675.024zM653.614 664.91c-2.607 53.978-25.574 94.196-69.649 120.26-51.149 30.145-103.114 27.914-151.923-5.214-39.722-26.826-59.583-65.53-61.052-115.047 94.952 0 187.673 0 282.57-0.001z" />
<glyph unicode="&#x7a;" glyph-name="O" d="M513.451 601.763c-84.961-0.978-154.302 67.379-153.325 151.369 0 80.078 66.408 149.413 146.486 152.347 83.012 2.934 155.28-65.43 157.229-149.42 1.956-83.983-65.43-153.325-150.391-154.296zM364.851 524.652v-451.656c0-45.707 36.858-82.566 82.566-82.566h129.177c45.708 0 82.473 36.859 82.473 82.566v451.656h-211.65z" />
<glyph unicode="&#xe90f;" glyph-name="15" d="M512 870.929c-233.578 0-422.929-189.352-422.929-422.929 0 0 0-0.001 0-0.001v0c0-233.577 189.352-422.928 422.929-422.928v0c233.576 0 422.927 189.351 422.928 422.928v0.001c0 233.577-189.351 422.929-422.928 422.929v0zM307.682 696.818c12.239-0.008 23.318-4.967 31.344-12.981l172.971-172.971 172.974 172.972c7.307 7.288 17.142 12.044 28.076 12.842l0.145 0.008c0.946 0.072 2.050 0.113 3.163 0.113 12.241 0 23.325-4.953 31.357-12.965l-0.001 0.001c8.019-8.033 12.977-19.122 12.977-31.37s-4.959-23.337-12.978-31.37l-172.919-173.026 172.92-172.92c8.094-8.045 13.103-19.185 13.103-31.495s-5.009-23.45-13.101-31.493l-0.002-0.002c-8.033-8.018-19.122-12.977-31.369-12.977s-23.336 4.958-31.37 12.977l-172.974 173.079-172.972-173.080c-8.033-8.019-19.122-12.977-31.37-12.977s-23.337 4.959-31.37 12.978l0.001-0.001c-8.094 8.045-13.103 19.185-13.103 31.495s5.009 23.45 13.101 31.493l172.923 172.922-172.921 173.027c-8.019 8.033-12.977 19.122-12.977 31.37s4.959 23.337 12.978 31.37l-0.001-0.001c7.247 7.236 16.983 11.982 27.814 12.841l0.155 0.010c1.015 0.083 2.197 0.13 3.391 0.13 0.012 0 0.025 0 0.037 0h-0.002z" />
</font>
</defs>
</svg>
