<?xml version="1.0" encoding="UTF-8" standalone="no"?>
<!-- Generator: Adobe Illustrator 22.1.0, SVG Export Plug-In . SVG Version: 6.00 Build 0)  -->

<svg
   xmlns:dc="http://purl.org/dc/elements/1.1/"
   xmlns:cc="http://creativecommons.org/ns#"
   xmlns:rdf="http://www.w3.org/1999/02/22-rdf-syntax-ns#"
   xmlns:svg="http://www.w3.org/2000/svg"
   xmlns="http://www.w3.org/2000/svg"
   xmlns:sodipodi="http://sodipodi.sourceforge.net/DTD/sodipodi-0.dtd"
   xmlns:inkscape="http://www.inkscape.org/namespaces/inkscape"
   version="1.1"
   id="svg8"
   inkscape:version="0.92.4 (5da689c313, 2019-01-14)"
   sodipodi:docname="Font Lumni.svg"
   x="0px"
   y="0px"
   viewBox="0 0 1024 1024"
   xml:space="preserve"
   inkscape:export-filename="E:\Faculdade\4° Semestre\Projeto Integrado II\Produções Gráficas\Iconografia V2.png"
   inkscape:export-xdpi="96"
   inkscape:export-ydpi="96"
   width="1024"
   height="1024"><metadata
   id="metadata1139"><rdf:RDF><cc:Work
       rdf:about=""><dc:format>image/svg+xml</dc:format><dc:type
         rdf:resource="http://purl.org/dc/dcmitype/StillImage" /><dc:title></dc:title></cc:Work></rdf:RDF></metadata><defs
   id="defs1137"><inkscape:path-effect
     effect="spiro"
     id="path-effect1483"
     is_visible="true" /><inkscape:path-effect
     is_visible="true"
     id="path-effect1479"
     effect="spiro" /><inkscape:path-effect
     effect="spiro"
     id="path-effect1475"
     is_visible="true" /><mask
     maskUnits="userSpaceOnUse"
     id="mask1626"><g
       id="g1630"
       style="fill:#ffffff"><path
         style="fill:#ffffff;stroke-width:0.14980702"
         d="m 318.33984,169.2832 c -2.3369,0 -4.1637,1.27249 -5.0625,3.42969 -0.1199,0.2846 -0.34496,0.53889 -0.50976,0.80859 0,9.5127 -0.001,19.02564 0.0137,28.52344 0.1648,0.2846 0.37619,0.54025 0.49609,0.83985 0.8838,2.1722 2.68121,3.46093 5.03321,3.46093 8.7937,0.015 17.58716,0.015 26.38086,0 3.0561,-0.015 5.34828,-2.27726 5.36328,-5.31836 0.03,-8.7936 0.03,-17.58716 0,-26.38086 -0.015,-3.086 -2.33846,-5.36328 -5.43946,-5.36328 -8.7637,-0.015 -17.51159,-0.015 -26.27539,0 z"
         id="path1628"
         inkscape:connector-curvature="0" /></g></mask></defs><sodipodi:namedview
   pagecolor="#ffffff"
   bordercolor="#666666"
   borderopacity="1"
   objecttolerance="10"
   gridtolerance="10"
   guidetolerance="10"
   inkscape:pageopacity="0"
   inkscape:pageshadow="2"
   inkscape:window-width="1920"
   inkscape:window-height="1013"
   id="namedview1135"
   showgrid="false"
   inkscape:zoom="0.25000001"
   inkscape:cx="1428.717"
   inkscape:cy="81.515912"
   inkscape:window-x="-9"
   inkscape:window-y="-9"
   inkscape:window-maximized="1"
   inkscape:current-layer="svg8"
   showguides="true"
   inkscape:guide-bbox="true"><sodipodi:guide
     position="279.40986,167.15588"
     orientation="0,1"
     id="guide981"
     inkscape:locked="false" /><sodipodi:guide
     position="289.30126,122.68988"
     orientation="0,1"
     id="guide983"
     inkscape:locked="false" /><sodipodi:guide
     position="264.08251,137.39927"
     orientation="1,0"
     id="guide985"
     inkscape:locked="false" /><sodipodi:guide
     position="298.01298,137.30013"
     orientation="1,0"
     id="guide987"
     inkscape:locked="false" /><sodipodi:guide
     position="410.49999,427.37501"
     orientation="0,1"
     id="guide956"
     inkscape:locked="false" /><sodipodi:guide
     position="0.31367444,1022"
     orientation="0,1"
     id="guide958"
     inkscape:locked="false" /><sodipodi:guide
     position="1028,1022"
     orientation="1,0"
     id="guide270"
     inkscape:locked="false" /></sodipodi:namedview>
<style
   type="text/css"
   id="style978">
	.st0{fill:#FFFFFF;}
</style>
<path
   d="m -3789.4373,3967.1859 c -4.1992,10.3065 -7.6335,20.9925 -12.9793,30.5372 -24.4269,43.8929 -61.0713,69.4666 -112.2182,72.9038 -0.765,0 -1.9111,0 -2.6732,0 -227.8714,0 -455.7457,0.3817 -683.6199,-0.3815 -57.6366,0 -108.0193,-38.553 -124.0513,-93.1347 -5.3454,-17.94 -6.8717,-37.4062 -6.8717,-56.4901 -0.3817,-214.5154 -0.3817,-429.0309 -0.3817,-643.926 0,-4.581 0,-9.5419 0,-14.1231 1.5293,-79.0114 59.9275,-137.0278 138.939,-137.0278 221.3847,-0.3817 442.3895,0 663.7742,0 69.467,0 114.1267,32.825 136.6479,99.2393 0.3817,1.5289 2.6704,2.2933 4.1966,3.4373 -0.7646,246.576 -0.7646,492.7699 -0.7646,738.9662 z m -133.5956,-312.9929 c 0,-38.168 0,-74.8124 0,-110.6923 -51.9091,-5.343 -652.3213,-3.0524 -675.2222,3.0549 0,17.1757 0,35.1157 0,53.4378 0,17.9399 0,35.4978 0,54.5819 227.11,-0.3817 450.785,-0.3817 675.2222,-0.3817 z"
   id="path980"
   inkscape:connector-curvature="0"
   style="fill:#3f165b;fill-opacity:1;stroke-width:3.81698012" />
<path
   d="m -585.89804,-348.30542 c 0.1947,0.09 0.3895,0.1948 0.5842,0.2547 1.8876,0.5843 3.0711,2.0374 3.2358,4.0149 0.03,0.4044 0.03,0.8239 0.03,1.2284 0,8.5689 0,17.1529 0,25.7218 0,0.4495 0,0.8989 -0.045,1.3483 -0.2248,2.1722 -1.8427,3.8051 -4.0149,4.0448 -0.6292,0.075 -1.2733,0.075 -1.9025,0.075 -7.4904,0 -14.9807,-0.015 -22.4711,-0.03 -1.0786,0 -2.1722,0.045 -3.2508,0.03 -3.0261,-0.03 -4.9736,-1.9924 -4.9736,-5.0335 -0.015,-8.8686 -0.015,-17.7522 0,-26.6207 0,-2.6366 1.1835,-4.1197 3.7602,-4.8688 0.1048,-0.03 0.1797,-0.1198 0.2846,-0.1797 9.5877,0.015 19.1753,0.015 28.763,0.015 z m -13.8572,19.8794 c -0.3296,1.4682 -1.0936,2.2771 -2.2471,2.7265 -1.9025,0.7191 -4.1796,0.03 -5.3181,-1.5729 -1.1685,-1.6329 -1.0787,-3.9549 0.1797,-5.5579 1.2734,-1.5879 3.2359,-2.0374 5.2732,-1.1535 0.5094,0.2247 0.9888,0.4944 1.4981,0.749 0.5243,-0.5243 1.0187,-1.0037 1.558,-1.543 -0.4644,-0.6441 -1.0936,-1.0486 -1.7677,-1.3782 -2.5917,-1.2734 -5.8275,-0.794 -7.9548,1.1685 -2.0224,1.8576 -2.7115,4.9137 -1.7078,7.5353 1.0037,2.6366 3.5355,4.3744 6.4567,4.4193 3.3707,0.06 6.0073,-1.9775 6.5616,-5.1084 0.1498,-0.809 0.1797,-1.6179 -0.2397,-2.4419 -1.0487,0 -2.0524,0 -3.0561,0 -1.0337,0 -2.0673,0 -3.101,0 0,0.794 0,1.4082 0,2.1572 1.2734,0 2.4868,0 3.865,0 z m 6.0372,-0.7041 c 0.06,0.6742 0.1049,1.2584 0.1498,1.8726 0.4794,0 0.9139,0 1.3783,0 0.06,-0.6741 0.1048,-1.2883 0.1648,-1.9175 0.6591,-0.045 1.2434,-0.075 1.8426,-0.1198 0,-0.4794 0,-0.8839 0,-1.3333 -0.6592,-0.075 -1.2734,-0.1498 -1.9325,-0.2397 -0.03,-0.6142 -0.06,-1.1535 -0.1049,-1.7378 -0.5093,0 -0.9588,0 -1.4232,0 -0.045,0.6442 -0.09,1.1985 -0.1198,1.7677 -0.6442,0.075 -1.2284,0.1349 -1.8127,0.2098 0,0.5243 0,0.9438 0,1.3932 0.6292,0.045 1.1835,0.075 1.8576,0.1048 z"
   id="path982"
   inkscape:connector-curvature="0"
   style="stroke-width:0.14980702" />

<path
   d="m -681.17534,-348.30542 c 0.1648,0.075 0.3146,0.1798 0.4794,0.2397 1.9025,0.6142 3.116,2.1123 3.2957,4.1197 0.03,0.2996 0.03,0.5993 0.03,0.8989 0,8.7637 0,17.5274 -0.015,26.2911 0,0.5992 -0.06,1.1985 -0.2097,1.7677 -0.4794,1.8576 -2.0374,3.146 -3.9399,3.3257 -0.5244,0.045 -1.0487,0.06 -1.573,0.06 -8.4192,0 -16.8533,0.015 -25.2725,-0.015 -0.8089,0 -1.6628,-0.045 -2.4418,-0.2697 -1.8277,-0.5093 -3.0111,-2.0523 -3.1759,-3.9399 -0.03,-0.3745 -0.03,-0.749 -0.03,-1.1235 0,-8.6888 0,-17.3777 0,-26.0665 0,-0.5243 0,-1.0636 0.1049,-1.558 0.3745,-1.7078 1.3932,-2.8613 3.0411,-3.4605 0.2397,-0.09 0.4793,-0.1798 0.719,-0.2697 9.6626,0 19.3251,0 28.9877,0 z m -12.5538,29.3173 c 0,-3.7002 0,-7.2657 0,-10.9809 1.1085,0 2.0973,0 3.1309,0 0,-1.498 0,-2.8763 0,-4.3893 -1.0636,0 -2.0523,0 -2.9961,0 -0.3595,-1.7677 -0.015,-2.2172 1.573,-2.2471 0.4794,0 0.9438,0 1.4531,0 0,-1.5281 0,-2.9213 0,-4.3894 -1.2134,0 -2.337,-0.045 -3.4456,0.015 -2.7564,0.1498 -4.2994,1.7378 -4.4492,4.4942 -0.015,0.4045 0,0.824 -0.015,1.2284 -0.015,0.2847 -0.06,0.5693 -0.09,0.9288 -0.4494,0 -0.8239,-0.015 -1.1835,0 -0.3595,0.015 -0.719,0.045 -1.0936,0.06 0,1.498 0,2.8912 0,4.3893 0.824,0 1.558,0 2.3969,0 0,1.3033 0,2.4868 0,3.6853 0,1.1984 -0.015,2.3969 0,3.5953 0.03,1.1835 -0.1048,2.367 0.1049,3.5954 1.4981,0.015 2.9512,0.015 4.6141,0.015 z"
   id="path986"
   inkscape:connector-curvature="0"
   style="stroke-width:0.14980702" />
<path
   d="m -633.76144,-348.30542 c 0.1648,0.075 0.3296,0.1648 0.4944,0.2098 2.0673,0.5243 3.2658,1.8875 3.5055,3.9998 0.03,0.2996 0.045,0.5993 0.045,0.8989 0,8.7187 -0.015,17.4375 -0.015,26.1563 0,0.2996 -0.015,0.5992 -0.03,0.8988 -0.1199,2.5467 -1.9775,4.4043 -4.5392,4.4942 -1.2284,0.045 -2.4718,-0.015 -3.7002,-0.015 -7.5203,0.015 -15.0406,0.015 -22.561,0.03 -0.4793,0 -0.9737,0 -1.4531,-0.03 -2.3669,-0.1647 -4.1946,-1.9924 -4.3144,-4.3593 -0.03,-0.5543 -0.03,-1.1236 -0.03,-1.6779 0,-8.2693 0,-16.5387 0,-24.808 0,-0.7041 0.03,-1.4232 0.1648,-2.1123 0.3895,-1.8576 1.513,-3.0411 3.3856,-3.4605 0.1798,-0.045 0.3296,-0.1349 0.4944,-0.2098 9.5277,-0.015 19.0405,-0.015 28.5532,-0.015 z m -2.4119,11.2805 c -0.03,-0.045 -0.06,-0.1048 -0.1048,-0.1498 -0.7041,0.1648 -1.4082,0.3296 -2.2022,0.5243 0.3296,-0.9887 1.0636,-1.6778 1.2734,-2.7714 -0.4045,0.2397 -0.6592,0.3895 -0.8989,0.5543 -1.0337,0.6442 -1.3333,0.6442 -2.292,-0.1648 -1.6779,-1.3932 -3.5055,-1.6329 -5.438,-0.6741 -2.0074,0.9887 -2.9512,2.6815 -2.8464,4.9286 0.015,0.4045 0,0.809 0,1.3033 -2.0224,-0.3445 -3.9399,-0.749 -5.7226,-1.6628 -1.7977,-0.9138 -3.2808,-2.2621 -4.7189,-3.7901 -1.3183,2.4718 -0.5393,4.5391 0.8689,6.6364 -0.6592,-0.1198 -1.1086,-0.1947 -1.6479,-0.2996 -0.03,1.1535 0.3296,2.0973 1.0037,2.8613 0.6592,0.7341 1.4531,1.3333 2.2321,2.0074 -0.4494,0.045 -0.8389,0.09 -1.3482,0.1498 0.764,1.9625 2.2021,3.0561 4.2095,3.6553 -1.8576,1.3932 -3.865,1.7228 -5.9922,1.9475 0.1647,0.2098 0.2097,0.3296 0.2996,0.3745 2.2621,1.2734 4.674,2.0224 7.2806,1.9625 7.4604,-0.2097 13.3628,-6.0222 13.7373,-13.4976 0.045,-0.9887 0.3745,-1.8127 1.0486,-2.5168 0.4345,-0.4494 0.839,-0.9138 1.2584,-1.3782 z"
   id="path988"
   inkscape:connector-curvature="0"
   style="stroke-width:0.14980702" />




<path
   d="m -582.07804,-234.90142 c 0,4.3743 0,8.7637 0,13.138 0,0.4495 0,0.8989 -0.075,1.3483 -0.3595,2.0823 -1.9175,3.5354 -4.0448,3.7602 -0.4044,0.045 -0.8239,0.045 -1.2284,0.045 -8.6139,0 -17.2278,0 -25.8417,0 -0.3745,0 -0.749,0 -1.1235,-0.03 -2.352,-0.1947 -4.0298,-1.8126 -4.2845,-4.1646 -0.045,-0.4494 -0.045,-0.8988 -0.045,-1.3483 0,-8.4641 0,-16.9282 0,-25.3922 0,-0.3296 0,-0.6742 0.015,-1.0038 0.1349,-2.7864 1.8127,-4.5091 4.5991,-4.6889 0.3745,-0.03 0.749,-0.015 1.1236,-0.015 8.539,0 17.078,0 25.617,0 0.1498,0 0.2996,0 0.4494,0 2.9811,0.06 4.8238,1.9026 4.8387,4.8837 0.03,3.7452 0.015,7.4904 0.03,11.2355 0,0.7491 0,1.4981 0,2.2471 -0.03,-0.015 -0.03,-0.015 -0.03,-0.015 z m -20.8681,-10.7262 c -0.2696,1.2584 -0.4644,2.4868 -0.8239,3.6403 -0.4195,1.3183 -1.588,1.9025 -2.8014,2.3969 0.03,1.1985 -0.1199,2.337 0.1198,3.5954 1.0936,0 2.1123,0 3.2209,0 0.03,0.4794 0.06,0.8539 0.06,1.2134 0,1.6778 -0.015,3.3707 0.015,5.0485 0.015,0.6292 0.06,1.2734 0.1798,1.9026 0.3895,1.9624 1.8276,3.3556 3.7601,3.6852 1.8277,0.3146 4.0148,-0.6292 4.9736,-2.1722 -0.2696,-0.5693 -0.5393,-1.1685 -0.794,-1.7078 -0.6591,0.075 -1.1834,0.1798 -1.6928,0.1948 -1.573,0.045 -2.1872,-0.5543 -2.2021,-2.1273 0,-1.6479 0,-3.2958 0.015,-4.9436 0,-0.3596 0.06,-0.7191 0.1049,-1.1835 0.6591,0 1.2134,0 1.7677,0 0.5843,0 1.1685,0 1.8726,0 0,-1.3333 0.075,-2.5018 -0.045,-3.7602 -1.2884,0 -2.4269,0 -3.7152,0 0,-1.9774 0,-3.865 0,-5.8125 -1.4382,0.03 -2.7415,0.03 -4.0149,0.03 z"
   id="path998"
   inkscape:connector-curvature="0"
   style="stroke-width:0.14980702" />

<path
   d="m -666.34444,-234.67672 c 0,-4.3744 -0.015,-8.7637 0,-13.1381 0,-3.2059 1.8726,-5.1534 5.0635,-5.1683 8.8386,-0.03 17.6622,-0.03 26.5008,0 3.161,0.015 5.0635,1.9175 5.0785,5.0485 0.03,8.9135 0.03,17.812 0,26.7255 -0.015,3.0261 -1.7677,4.7939 -4.7789,4.9736 -0.2546,0.015 -0.5243,0.015 -0.779,0.015 -8.4191,0 -16.8383,0 -25.2574,0 -0.5243,0 -1.0487,-0.015 -1.573,-0.09 -2.6965,-0.3745 -4.1946,-2.0523 -4.2395,-4.7788 -0.03,-1.7528 -0.015,-3.5205 -0.015,-5.2732 0,-2.7715 0,-5.5429 0,-8.3143 -0.015,0 -0.015,0 0,0 z m 19.7446,3.2058 c -0.2098,-0.5692 -0.3446,-0.8838 -0.4345,-1.1984 -0.8089,-2.8763 -1.6179,-5.7526 -2.4418,-8.6289 -0.1498,-0.5393 -0.3146,-1.0936 -0.5993,-1.558 -0.6142,-1.0636 -1.6928,-1.3632 -2.8014,-0.8389 -0.4044,0.1947 -0.8089,0.4195 -1.1385,0.7041 -1.6628,1.3932 -3.2957,2.8164 -4.9436,4.2245 -0.4494,0.3746 -0.5843,0.839 -0.3596,1.3783 1.0487,0.1947 1.0487,0.1947 1.9326,-0.2247 1.4081,-0.6592 2.1572,-0.4045 2.7414,1.0486 0.2847,0.6891 0.4644,1.4232 0.6742,2.1422 0.5842,1.9775 1.1085,3.955 1.7677,5.9024 0.2696,0.809 0.7041,1.573 1.1984,2.2621 1.0337,1.4082 2.4569,1.7827 4.0748,1.1086 0.6142,-0.2547 1.2284,-0.5842 1.7377,-1.0037 1.0337,-0.8539 2.0674,-1.7378 2.9962,-2.7115 2.322,-2.4419 4.0298,-5.2882 5.3032,-8.4042 0.7789,-1.9025 0.8239,-3.7901 -0.2397,-5.6177 -0.6442,-1.1086 -1.618,-1.6479 -2.9063,-1.4682 -2.5917,0.3746 -4.3744,1.8127 -5.3781,4.2096 -0.1048,0.2697 -0.1198,0.5693 -0.1947,0.9138 0.5093,0.03 0.9587,0.045 1.3932,0.09 1.0636,0.075 1.3183,0.4045 1.0786,1.4382 -0.045,0.2097 -0.1198,0.4344 -0.2247,0.6292 -0.6592,1.3482 -1.2884,2.7115 -1.9924,4.0298 -0.2847,0.5243 -0.7341,0.9438 -1.2434,1.5729 z"
   id="path1002"
   inkscape:connector-curvature="0"
   style="stroke-width:0.14980702" />
<path
   d="m -677.41514,-234.63182 c 0,4.1946 0,8.3892 0,12.5838 0,0.2547 0,0.5243 0,0.779 -0.075,2.9961 -1.8277,4.8088 -4.8089,4.9886 -0.2996,0.015 -0.5992,0.015 -0.8988,0.015 -8.4191,0 -16.8533,0 -25.2724,0 -0.6292,0 -1.2734,-0.03 -1.9026,-0.1349 -1.9625,-0.3295 -3.3856,-1.7527 -3.6852,-3.7302 -0.09,-0.6292 -0.1349,-1.2733 -0.1349,-1.9025 -0.015,-8.3892 -0.015,-16.7784 0,-25.1526 0,-0.6741 0.045,-1.3483 0.1498,-2.0074 0.3146,-1.8726 1.6779,-3.2508 3.5505,-3.5954 0.5842,-0.1049 1.1834,-0.1648 1.7827,-0.1648 8.5689,-0.015 17.1529,0 25.7218,0 0.075,0 0.1498,0 0.2247,0 3.4156,0.03 5.2583,1.8726 5.2733,5.3032 0,4.3444 0,8.6738 0,13.0182 z m -17.872,-4.659 c 0.1198,-1.1984 0.5093,-2.1422 1.2434,-2.9362 0.6891,-0.749 1.5729,-1.0786 2.5916,-1.1685 0.809,-0.075 1.1985,0.4344 1.6629,0.9288 0.779,0.8389 1.8426,0.9138 2.7415,0.2547 0.8688,-0.6292 1.0936,-1.7677 0.5542,-2.6965 -0.5243,-0.9139 -1.6478,-1.3483 -2.6216,-0.809 -0.9288,0.5093 -1.9025,0.5992 -2.8913,0.749 -2.1871,0.3296 -3.6852,1.5281 -4.4642,3.6104 -0.1348,0.3445 -0.2846,0.7041 -0.3296,1.0636 -0.1198,0.8989 -0.6891,1.2284 -1.513,1.3932 -1.0936,0.2247 -2.2172,0.4494 -3.2508,0.8539 -1.2584,0.5094 -2.382,0.5543 -3.6553,-0.045 -2.1573,-1.0037 -4.1946,0.3745 -4.2995,2.7714 -0.06,1.3483 0.4644,2.4868 1.3483,3.4605 0.4344,0.4944 0.749,1.0038 0.8689,1.6629 0.2696,1.4531 1.0336,2.6366 2.1122,3.6253 0.9738,0.8989 2.0973,1.558 3.3108,2.0824 2.6965,1.1385 5.5129,1.4081 8.3742,1.0486 2.6066,-0.3146 5.0035,-1.2284 7.0109,-2.9961 1.0337,-0.9139 1.8277,-1.9925 2.1423,-3.3557 0.1947,-0.8539 0.5842,-1.603 1.1235,-2.2921 0.6742,-0.8389 1.0787,-1.7827 1.1835,-2.8613 0.2547,-2.5167 -2.0973,-4.2545 -4.2395,-3.1309 -1.1985,0.6291 -2.4419,0.5093 -3.6853,0.03 -0.719,-0.2846 -1.4831,-0.4794 -2.2471,-0.6591 -1.0037,-0.2098 -2.0224,-0.3895 -3.071,-0.5843 z"
   id="path1004"
   inkscape:connector-curvature="0"
   style="stroke-width:0.14980702" />

<path
   d="m -618.70584,-281.94082 c 0,-4.3444 -0.015,-8.6888 0.015,-13.0333 0,-0.6291 0.06,-1.2733 0.2247,-1.8875 0.4944,-1.8726 2.0074,-3.131 3.925,-3.3407 0.5243,-0.06 1.0486,-0.06 1.5729,-0.06 8.3892,0 16.7784,0 25.1676,0 0.3296,0 0.6741,0 1.0037,0.015 2.7415,0.1349 4.689,2.0973 4.7339,4.8538 0.03,2.7265 -0.015,5.4679 0,8.1944 0,6.1421 0,12.2842 0.03,18.4263 0,0.8839 -0.1049,1.7228 -0.5094,2.5018 -0.9437,1.7827 -2.4268,2.6965 -4.4492,2.7115 -1.1236,0.015 -2.2471,-0.045 -3.3707,-0.045 -7.4454,0 -14.9058,0.015 -22.3512,0.015 -0.4794,0 -0.9737,0 -1.4531,-0.03 -2.6816,-0.1498 -4.4343,-1.9475 -4.4942,-4.6441 -0.03,-0.9737 0,-1.9474 0,-2.9212 -0.045,-3.5654 -0.045,-7.1608 -0.045,-10.7561 z m 18.2615,10.1269 c 0,-0.045 0,-0.09 0,-0.1348 1.528,0 3.071,0.045 4.5991,-0.015 1.5729,-0.06 3.1459,-0.1049 4.6889,-0.3595 2.1573,-0.3596 3.4456,-2.0224 3.4756,-4.1946 0.015,-1.4232 0,-2.8464 0,-4.2695 0,-2.2471 0.03,-4.4942 -0.015,-6.7413 -0.045,-2.0075 -1.588,-3.8201 -3.4606,-3.94 -2.9512,-0.1797 -5.9024,-0.3595 -8.8536,-0.3595 -2.9512,0 -5.9024,0.2696 -8.8685,0.2996 -2.3969,0.015 -4.3145,1.9175 -4.2845,4.3744 0.06,3.5204 0.015,7.0409 0.015,10.5614 0,0.4494 0.06,0.8988 0.1797,1.3333 0.5393,1.8725 2.0224,2.9961 4.2096,3.1159 2.7714,0.1349 5.5429,0.2247 8.3143,0.3296 z"
   id="path1008"
   inkscape:connector-curvature="0"
   style="stroke-width:0.14980702" />
<path
   d="m -714.02804,-282.36032 c 0,-4.1197 0,-8.2394 0,-12.3591 0,-0.2547 0,-0.5243 0,-0.779 0.045,-3.2508 1.8426,-5.1084 5.0935,-5.1234 8.7936,-0.03 17.6023,-0.015 26.396,0 0.6291,0 1.2733,0.09 1.8875,0.2547 1.9325,0.5393 3.131,2.1572 3.2508,4.3744 0.06,1.0037 0.015,2.0224 0.015,3.0261 0,7.8199 0.015,15.6548 0.015,23.4747 0,0.6742 -0.045,1.3483 -0.1948,2.0074 -0.4344,1.9625 -1.8126,3.2059 -3.8051,3.4456 -0.8539,0.1049 -1.7227,0.1198 -2.5766,0.1198 -7.1908,0.015 -14.3815,0 -21.5722,0 -1.1985,0 -2.397,-0.015 -3.5954,-0.045 -3.101,-0.075 -4.8687,-1.8276 -4.8987,-4.9286 -0.045,-4.4793 -0.015,-8.9735 -0.015,-13.4677 0,0 0,0 0,0 z m 4.8837,13.3628 c 0.6142,-0.1948 1.0037,-0.2846 1.3783,-0.4195 1.7677,-0.6292 3.5204,-1.2434 5.2732,-1.8875 0.6741,-0.2547 1.3183,-0.2547 1.9774,-0.03 0.6442,0.2097 1.2584,0.4794 1.9175,0.6442 0.9438,0.2397 1.8876,0.5093 2.8464,0.5692 7.8349,0.4345 14.1867,-6.3518 13.2879,-14.1567 -0.839,-7.1758 -7.9548,-13.7074 -17.1979,-10.5165 -6.5765,2.2771 -9.8723,9.9172 -7.3106,16.5986 0.3895,1.0187 0.4195,1.9026 0.045,2.9063 -0.764,1.9924 -1.4232,4.0148 -2.2172,6.2919 z"
   id="path1010"
   inkscape:connector-curvature="0"
   style="stroke-width:0.14980702" />
<path
   d="m -629.68664,-281.89592 c 0,4.1946 0.015,8.3892 -0.015,12.5838 0,0.749 -0.045,1.4981 -0.2097,2.2171 -0.4345,1.8127 -1.618,2.9063 -3.4456,3.2658 -0.6592,0.1349 -1.3333,0.1648 -2.0074,0.1648 -7.3406,0.015 -14.6811,0 -22.0067,0.015 -1.2733,0 -2.5467,0.03 -3.82,0.015 -3.1909,-0.045 -5.1834,-2.0224 -5.1834,-5.2133 -0.015,-8.7188 0,-17.4375 0,-26.1713 0,-0.4794 0.015,-0.9737 0.1049,-1.4531 0.3895,-2.0224 1.7378,-3.3557 3.8351,-3.7302 0.6591,-0.1199 1.3332,-0.1648 2.0074,-0.1648 8.4191,-0.015 16.8383,-0.015 25.2724,0 0.4494,0 0.8989,0.015 1.3333,0.09 2.5018,0.4045 4.0298,2.0374 4.0897,4.5841 0.075,3.3257 0.03,6.6664 0.045,9.9921 0.015,1.2584 0,2.5317 0,3.8051 z m -18.3214,11.8198 c 1.8726,0 3.7451,0.015 5.6177,0 3.6254,-0.06 6.217,-2.4718 6.3069,-6.0672 0.09,-3.9699 0.015,-7.9248 0.015,-11.8947 0,-3.1609 -2.9212,-5.7825 -5.7526,-5.8125 -4.1197,-0.045 -8.2394,-0.09 -12.3441,0.015 -3.0261,0.075 -5.423,2.5767 -5.7376,5.5878 -0.3595,3.5354 -0.1498,7.0859 -0.1648,10.6213 0,0.3296 0,0.6741 0.015,1.0037 0.1498,3.9699 3.086,6.6664 6.6664,6.5616 1.7977,-0.06 3.5804,-0.015 5.3781,-0.015 z"
   id="path1012"
   inkscape:connector-curvature="0"
   style="stroke-width:0.14980702" />







<path
   class="st0"
   d="m -599.75524,-328.42602 c -1.3782,0 -2.5916,0 -3.865,0 0,-0.749 0,-1.3632 0,-2.1572 1.0337,0 2.0673,0 3.101,0 1.0037,0 2.0224,0 3.0561,0 0.4194,0.824 0.3745,1.6329 0.2397,2.4419 -0.5543,3.1309 -3.1909,5.1683 -6.5616,5.1084 -2.9212,-0.06 -5.438,-1.7827 -6.4567,-4.4193 -1.0037,-2.6216 -0.3146,-5.6777 1.7078,-7.5353 2.1273,-1.9625 5.3631,-2.4419 7.9548,-1.1685 0.6741,0.3296 1.2883,0.7341 1.7677,1.3782 -0.5393,0.5393 -1.0337,1.0337 -1.558,1.543 -0.5093,-0.2546 -0.9887,-0.5243 -1.4981,-0.749 -2.0373,-0.8839 -3.9998,-0.4344 -5.2732,1.1535 -1.2733,1.603 -1.3482,3.91 -0.1797,5.5579 1.1385,1.6029 3.4305,2.292 5.3181,1.5729 1.1535,-0.4494 1.9175,-1.2583 2.2471,-2.7265 z"
   id="path1028"
   inkscape:connector-curvature="0"
   style="fill:#ffffff;stroke-width:0.14980702" />
<path
   class="st0"
   d="m -593.71804,-329.13012 c -0.6741,-0.03 -1.2284,-0.06 -1.8576,-0.09 0,-0.4644 0,-0.8839 0,-1.3932 0.5843,-0.075 1.1685,-0.1349 1.8127,-0.2098 0.045,-0.5842 0.075,-1.1235 0.1198,-1.7677 0.4644,0 0.9139,0 1.4232,0 0.03,0.5843 0.06,1.1236 0.1049,1.7378 0.6441,0.075 1.2583,0.1498 1.9325,0.2397 0,0.4494 0,0.8539 0,1.3332 -0.5992,0.045 -1.1835,0.075 -1.8426,0.1199 -0.045,0.6292 -0.1049,1.2434 -0.1648,1.9175 -0.4644,0 -0.8989,0 -1.3783,0 -0.045,-0.6292 -0.09,-1.2134 -0.1498,-1.8876 z"
   id="path1030"
   inkscape:connector-curvature="0"
   style="fill:#ffffff;stroke-width:0.14980702" />

<path
   d="m -3209.6341,3180.2771 c 4.1989,-6.8719 9.924,-13.3614 12.9791,-20.6128 22.9009,-54.9641 69.4694,-87.4094 129.012,-87.4094 223.2955,-0.3817 446.2064,-0.3817 669.4995,0 79.0113,0 138.1742,58.019 138.5565,136.6481 0.7646,224.0575 0.7646,448.1148 0,672.1699 -0.3817,77.485 -58.7808,135.1217 -136.6481,135.504 -224.0575,0.3815 -448.1124,0.3815 -672.1697,0 -59.9273,0 -105.7317,-32.8274 -128.2502,-88.1738 -3.0551,-7.6337 -8.3979,-14.1232 -12.597,-21.3746 -0.3817,-241.9973 -0.3817,-484.3745 -0.3817,-726.7514 z m 530.1786,553.0794 c 0,-16.4139 0,-29.7725 0,-42.7492 -0.3817,-27.4847 0,-55.3462 -1.5289,-82.8308 -1.1461,-17.94 5.7253,-29.7725 18.7018,-41.9846 26.7202,-24.0476 51.9118,-50.7678 77.8673,-75.5768 10.3065,-9.9242 14.8877,-20.9951 14.8877,-35.4979 0,-47.7124 1.911,-95.4251 1.5288,-143.1376 -0.3817,-56.108 -38.5529,-99.2419 -94.6607,-102.6766 -50.3855,-3.0523 -101.1505,-3.0523 -151.5358,0 -41.2229,2.6728 -71.7573,25.1916 -84.3542,66.0348 -14.1233,46.1838 -11.4507,93.5142 -8.0158,142.3734 38.5527,0 75.1945,0 112.6007,0 4.199,-33.5896 -1.911,-66.0347 3.8167,-97.3335 37.0241,0 70.9957,0 107.2577,0 0,31.6809 -0.7646,62.2152 0.3818,92.3701 0.3815,14.8876 -4.9635,24.8118 -15.2698,34.7358 -27.8618,25.9559 -54.1997,53.8175 -81.6817,80.1554 -10.6886,9.9241 -15.2698,20.2306 -14.8874,35.1157 0.7646,49.6208 0,99.2419 0.3815,148.8627 0,7.2516 1.9109,14.5054 3.0549,22.5214 36.6418,-0.3817 71.7575,-0.3817 111.4542,-0.3817 z m -59.163,30.1546 c -33.2071,0.3817 -59.5452,27.4822 -58.7808,60.3071 0.7647,32.8276 29.0081,59.5452 61.4536,58.4011 31.2988,-1.1464 57.2544,-27.8642 57.2544,-59.5451 0.3817,-32.8276 -26.72,-59.5452 -59.9272,-59.1631 z"
   id="path984"
   inkscape:connector-curvature="0"
   style="fill:#3f165b;fill-opacity:1;stroke-width:3.81698012" />
<path
   class="st0"
   d="m -693.72914,-318.98812 c -1.6629,0 -3.101,0 -4.6291,0 -0.2097,-1.2284 -0.075,-2.4119 -0.1048,-3.5954 -0.03,-1.1984 0,-2.3969 0,-3.5954 0,-1.1834 0,-2.3819 0,-3.6852 -0.824,0 -1.558,0 -2.3969,0 0,-1.4981 0,-2.8913 0,-4.3894 0.3595,-0.015 0.719,-0.045 1.0935,-0.06 0.3746,-0.015 0.7491,0 1.1835,0 0.03,-0.3595 0.075,-0.6441 0.09,-0.9288 0.015,-0.4045 0,-0.8239 0.015,-1.2284 0.1498,-2.7564 1.6928,-4.3444 4.4493,-4.4942 1.1085,-0.06 2.2321,-0.015 3.4455,-0.015 0,1.4681 0,2.8763 0,4.3894 -0.5093,0 -0.9737,0 -1.4531,0 -1.6029,0.03 -1.9325,0.4644 -1.573,2.2471 0.9588,0 1.9475,0 2.9962,0 0,1.513 0,2.8763 0,4.3893 -1.0337,0 -2.0224,0 -3.131,0 0.015,3.6853 0.015,7.2657 0.015,10.9659 z"
   id="path1036"
   inkscape:connector-curvature="0"
   style="fill:#ffffff;stroke-width:0.14980702" />
<path
   class="st0"
   d="m -636.17334,-337.02492 c -0.4194,0.4644 -0.8239,0.9288 -1.2434,1.3782 -0.6741,0.7041 -0.9887,1.5281 -1.0486,2.5168 -0.3745,7.4604 -6.2919,13.2729 -13.7373,13.4976 -2.5917,0.075 -5.0186,-0.6741 -7.2806,-1.9625 -0.09,-0.045 -0.1349,-0.1647 -0.2997,-0.3745 2.1273,-0.2247 4.1347,-0.5692 5.9923,-1.9475 -2.0074,-0.5992 -3.4605,-1.6928 -4.2096,-3.6553 0.5094,-0.06 0.9139,-0.1048 1.3483,-0.1498 -0.764,-0.6891 -1.573,-1.2733 -2.2321,-2.0074 -0.6742,-0.764 -1.0337,-1.7078 -1.0037,-2.8613 0.5393,0.09 0.9887,0.1798 1.6479,0.2996 -1.4082,-2.0973 -2.1872,-4.1646 -0.8689,-6.6364 1.4381,1.528 2.9062,2.8763 4.7189,3.7901 1.7827,0.9138 3.7002,1.3183 5.7226,1.6628 0,-0.4943 0.015,-0.8988 0,-1.3033 -0.1048,-2.2471 0.8389,-3.9399 2.8464,-4.9286 1.9175,-0.9588 3.7601,-0.7191 5.4379,0.6741 0.9588,0.794 1.2584,0.809 2.2921,0.1648 0.2547,-0.1498 0.5093,-0.2996 0.8988,-0.5543 -0.2097,1.0936 -0.9437,1.7677 -1.2733,2.7714 0.794,-0.1947 1.498,-0.3595 2.2021,-0.5243 0.015,0.06 0.06,0.1049 0.09,0.1498 z"
   id="path1038"
   inkscape:connector-curvature="0"
   style="fill:#ffffff;stroke-width:0.14980702" />
<path
   d="m -4715.3217,1661.6115 c 4.5809,-8.0158 9.542,-16.0316 13.3588,-24.4295 22.5209,-50.3829 59.5448,-80.5377 115.2735,-85.8805 12.2147,-1.1463 24.8116,-1.5289 37.0239,-1.5289 206.8817,0 414.1436,0 621.0227,0 14.1231,0 28.6284,0.3818 42.7514,1.911 65.2702,7.254 115.6533,59.9274 119.8521,125.5798 0.3818,6.4898 0.3818,13.359 0.3818,19.8484 0,217.5679 0.3817,435.1357 -0.3818,652.3215 0,22.139 -4.1988,46.1862 -12.5941,66.4143 -17.5581,40.8432 -50.0034,67.5608 -94.2813,75.5766 -22.9008,4.1991 -46.9478,3.8168 -73.6656,5.7251 0,-11.8325 -0.3817,-20.2278 0,-28.2436 1.9109,-24.8119 3.4348,-49.6209 6.1048,-74.0506 3.437,-30.1546 -7.6335,-54.202 -29.0083,-74.0504 -24.4295,-22.9008 -54.1994,-35.4978 -86.6449,-41.2231 -18.7044,-3.4345 -37.7881,-4.9607 -56.8723,-4.9607 -83.9749,-0.3815 -167.9469,-1.1464 -251.9216,0.3817 -26.3379,0.3815 -53.438,4.1989 -79.0113,11.0681 -18.7046,4.9633 -37.0242,15.2672 -53.4378,26.3379 -29.3904,20.2307 -43.5138,49.239 -40.4611,86.2628 2.6726,30.9165 4.1987,62.2179 6.1073,92.7522 -80.9197,16.4137 -144.2816,-17.5576 -172.9076,-89.6972 -2.673,-6.8719 -7.6339,-12.9791 -11.0711,-19.4687 0.3817,-239.7044 0.3817,-480.1756 0.3817,-720.6442 z m 479.0312,182.4523 c -103.0586,-0.7649 -186.6511,81.6816 -186.6511,183.9785 0,100.7681 82.8306,183.5961 183.9785,183.5961 101.9145,0.3817 183.5988,-80.5399 184.3604,-182.8343 0.3817,-102.2944 -80.1552,-183.9785 -181.6878,-184.7403 z"
   id="path990"
   inkscape:connector-curvature="0"
   style="fill:#3f165b;fill-opacity:1;stroke-width:3.81698012" />

<path
   class="st0"
   d="m -602.94614,-245.62762 c 1.2734,0 2.5617,0 3.9999,0 0,1.9475 0,3.835 0,5.8125 1.2883,0 2.4268,0 3.7152,0 0.1198,1.2584 0.045,2.4269 0.045,3.7602 -0.6891,0 -1.2883,0 -1.8726,0 -0.5542,0 -1.1085,0 -1.7677,0 -0.045,0.4644 -0.09,0.8239 -0.1048,1.1834 -0.015,1.6479 -0.03,3.2958 -0.015,4.9437 0,1.5729 0.6142,2.1722 2.2021,2.1272 0.5094,-0.015 1.0337,-0.1198 1.6929,-0.1947 0.2546,0.5393 0.5243,1.1235 0.7939,1.7078 -0.9587,1.543 -3.1459,2.4868 -4.9736,2.1722 -1.9175,-0.3296 -3.3706,-1.7378 -3.7601,-3.6853 -0.1199,-0.6142 -0.1648,-1.2584 -0.1798,-1.9025 -0.03,-1.6779 0,-3.3707 -0.015,-5.0485 0,-0.3596 -0.045,-0.7341 -0.06,-1.2135 -1.0936,0 -2.1273,0 -3.2208,0 -0.2397,-1.2583 -0.09,-2.3969 -0.1199,-3.5953 1.2134,-0.4944 2.3969,-1.0786 2.8014,-2.3969 0.3895,-1.1985 0.5693,-2.4119 0.8389,-3.6703 z"
   id="path1044"
   inkscape:connector-curvature="0"
   style="fill:#ffffff;stroke-width:0.14980702" />
<g
   id="g1030"
   transform="matrix(25.479312,0,0,25.479312,-11642.722,-983.6)"><path
     style="fill:#3f165b;fill-opacity:1;stroke-width:0.14980702"
     inkscape:connector-curvature="0"
     id="path1000"
     d="m 248.30329,179.75981 c 0,4.1497 0,8.3143 0,12.464 0,0.7041 0,1.4381 -0.1647,2.1123 -0.5543,2.3519 -2.5917,3.9848 -5.0485,4.0148 -2.6516,0.03 -5.3182,0.015 -7.9698,0.015 -6.1421,0 -12.2841,-0.015 -18.4262,0 -1.8576,0 -3.3407,-0.7041 -4.4493,-2.1722 -0.749,-0.9888 -1.0487,-2.1273 -1.0487,-3.3707 0.015,-3.9998 0,-8.0147 0,-12.0145 0,-4.7189 -0.015,-9.4379 0.015,-14.1568 0.015,-2.6665 1.7528,-4.7489 4.3295,-5.2732 0.4044,-0.075 0.8239,-0.09 1.2284,-0.09 8.6888,0 17.3776,0.015 26.0514,-0.015 3.116,-0.015 5.5129,2.5317 5.4829,5.3331 -0.03,4.3893 0,8.7637 0,13.153 0,0 0,0 0,0 z m -5.2881,2.322 c 0,-1.5879 0,-2.9961 0,-4.4492 -3.6104,-0.1049 -7.1458,0.045 -10.8011,-0.09 0,-3.7152 0,-7.2956 0,-10.891 -0.2547,-0.045 -0.4045,-0.09 -0.5393,-0.075 -2.2172,0.1348 -3.8501,1.7677 -3.91,3.9999 -0.06,1.9774 -0.015,3.9699 -0.015,5.9473 0,0.3146 -0.045,0.6442 -0.09,1.0487 -3.7601,0.045 -7.4454,-0.015 -11.1456,0.03 0,1.558 0,2.9512 0,4.5092 3.7602,0 7.4454,0 11.2655,0 0,3.7452 0,7.3555 0,11.0258 1.543,0.03 2.9362,0.06 4.4493,-0.015 0,-1.3183 0,-2.5167 0,-3.7002 0,-1.2284 0,-2.4718 0,-3.7002 0,-1.1835 0.03,-2.352 0.045,-3.6404 3.6703,0 7.1758,0 10.7412,0 z" /></g>
<path
   class="st0"
   d="m -646.59984,-231.47092 c 0.5093,-0.6291 0.9737,-1.0336 1.2434,-1.543 0.704,-1.3183 1.3332,-2.6815 1.9924,-4.0298 0.09,-0.1947 0.1648,-0.4194 0.2247,-0.6292 0.2397,-1.0336 -0.015,-1.3632 -1.0786,-1.4381 -0.4345,-0.03 -0.8839,-0.06 -1.3932,-0.09 0.075,-0.3595 0.09,-0.6591 0.1947,-0.9138 1.0037,-2.3969 2.7864,-3.8351 5.3781,-4.2096 1.2883,-0.1798 2.2621,0.3595 2.9063,1.4681 1.0636,1.8277 1.0186,3.7152 0.2397,5.6178 -1.2734,3.101 -2.9812,5.9623 -5.3032,8.4041 -0.9288,0.9738 -1.9625,1.8577 -2.9962,2.7116 -0.5093,0.4194 -1.1235,0.749 -1.7377,1.0037 -1.6179,0.6741 -3.0411,0.2996 -4.0748,-1.1086 -0.4943,-0.6891 -0.9438,-1.4681 -1.1984,-2.2621 -0.6442,-1.9475 -1.1835,-3.9399 -1.7677,-5.9024 -0.2098,-0.7191 -0.3895,-1.4531 -0.6742,-2.1422 -0.5842,-1.4382 -1.3333,-1.7078 -2.7414,-1.0487 -0.8839,0.4195 -0.8839,0.4195 -1.9326,0.2247 -0.2097,-0.5393 -0.09,-0.9887 0.3596,-1.3782 1.6479,-1.4082 3.2808,-2.8313 4.9436,-4.2246 0.3446,-0.2846 0.7341,-0.5243 1.1385,-0.704 1.1086,-0.5244 2.1872,-0.2098 2.8014,0.8389 0.2847,0.4794 0.4495,1.0336 0.5993,1.558 0.8239,2.8763 1.6179,5.7526 2.4418,8.6289 0.09,0.2846 0.2247,0.5842 0.4345,1.1684 z"
   id="path1048"
   inkscape:connector-curvature="0"
   style="fill:#ffffff;stroke-width:0.14980702" />
<path
   class="st0"
   d="m -695.28714,-239.29082 c 1.0486,0.2097 2.0673,0.3745 3.071,0.5992 0.764,0.1798 1.5281,0.3746 2.2471,0.6592 1.2434,0.4944 2.4868,0.5992 3.6853,-0.03 2.1422,-1.1235 4.4792,0.6142 4.2395,3.131 -0.1048,1.0786 -0.5093,2.0224 -1.1835,2.8613 -0.5542,0.6891 -0.9288,1.4232 -1.1235,2.2921 -0.3146,1.3632 -1.1086,2.4418 -2.1423,3.3556 -2.0074,1.7827 -4.4043,2.6816 -7.0109,2.9962 -2.8613,0.3595 -5.6777,0.09 -8.3742,-1.0487 -1.2135,-0.5093 -2.337,-1.1834 -3.3108,-2.0823 -1.0786,-0.9887 -1.8426,-2.1722 -2.1122,-3.6253 -0.1199,-0.6442 -0.4345,-1.1685 -0.8689,-1.6629 -0.8839,-0.9737 -1.4082,-2.1123 -1.3483,-3.4605 0.1049,-2.3969 2.1422,-3.7752 4.2995,-2.7714 1.2733,0.5992 2.3969,0.5393 3.6553,0.045 1.0336,-0.4045 2.1422,-0.6292 3.2508,-0.8539 0.8239,-0.1648 1.3782,-0.4944 1.513,-1.3932 0.045,-0.3595 0.1948,-0.7191 0.3296,-1.0636 0.779,-2.0824 2.2771,-3.2808 4.4642,-3.6104 0.9888,-0.1498 1.9625,-0.2397 2.8913,-0.749 0.9738,-0.5393 2.0973,-0.09 2.6216,0.8089 0.5394,0.9288 0.2997,2.0674 -0.5542,2.6966 -0.8839,0.6441 -1.9475,0.5842 -2.7415,-0.2547 -0.4644,-0.4944 -0.8539,-1.0037 -1.6629,-0.9288 -1.0187,0.09 -1.9025,0.4194 -2.5916,1.1685 -0.7341,0.764 -1.1236,1.7228 -1.2434,2.9212 z m -0.6592,12.1494 c 2.1273,0.045 4.0298,-0.7491 5.1983,-2.1722 0.2098,-0.2547 0.4045,-0.5393 0.5244,-0.8539 0.1498,-0.3446 0.015,-0.6442 -0.3146,-0.8689 -0.3446,-0.2397 -0.6292,-0.1498 -0.8989,0.1049 -0.1648,0.1647 -0.2846,0.3445 -0.4344,0.5093 -2.0374,2.2771 -5.6777,2.352 -7.805,0.1348 -0.1797,-0.1947 -0.3295,-0.4494 -0.5393,-0.5543 -0.2397,-0.1048 -0.6142,-0.1348 -0.794,-0.015 -0.1947,0.1348 -0.3595,0.5093 -0.3145,0.749 0.045,0.2996 0.2846,0.5992 0.4943,0.8539 1.2884,1.4831 2.9812,2.0523 4.8837,2.1123 z m -4.1496,-7.7451 c -0.6891,0.03 -1.1535,0.5543 -1.0936,1.2734 0.045,0.6741 0.4943,1.0636 1.1984,1.0487 0.7341,-0.015 1.2135,-0.5094 1.1835,-1.1985 -0.045,-0.6891 -0.5693,-1.1385 -1.2883,-1.1236 z m 8.5989,2.3221 c 0.7041,0 1.1086,-0.4045 1.1385,-1.0936 0.015,-0.7341 -0.4344,-1.2135 -1.1385,-1.2285 -0.7191,0 -1.1985,0.4495 -1.2134,1.1685 -0.015,0.7191 0.4644,1.1536 1.2134,1.1536 z"
   id="path1050"
   inkscape:connector-curvature="0"
   style="fill:#ffffff;stroke-width:0.14980702" />

<path
   class="st0"
   d="m -600.44434,-271.81392 c -2.7714,-0.1198 -5.5429,-0.2097 -8.2993,-0.3445 -2.1722,-0.1199 -3.6703,-1.2434 -4.2096,-3.116 -0.1198,-0.4195 -0.1798,-0.8839 -0.1798,-1.3333 -0.015,-3.5205 0.03,-7.0409 -0.015,-10.5614 -0.03,-2.4568 1.8726,-4.3594 4.2844,-4.3744 2.9512,-0.015 5.9174,-0.2996 8.8686,-0.2996 2.9512,0 5.9024,0.1798 8.8536,0.3596 1.8726,0.1198 3.4306,1.9325 3.4606,3.9399 0.045,2.2471 0.015,4.4942 0.015,6.7413 0,1.4232 0.015,2.8463 0,4.2695 -0.03,2.1722 -1.3183,3.8351 -3.4755,4.1946 -1.543,0.2547 -3.131,0.2996 -4.6889,0.3595 -1.5281,0.06 -3.0711,0.015 -4.5991,0.015 -0.015,0.06 -0.015,0.1049 -0.015,0.1498 z m -3.1909,-13.3328 c 0,2.2471 0,4.3144 0,6.5615 2.2022,-1.1085 4.2995,-2.1722 6.5466,-3.2957 -2.2621,-1.1386 -4.3444,-2.1872 -6.5466,-3.2658 z"
   id="path1054"
   inkscape:connector-curvature="0"
   style="fill:#ffffff;stroke-width:0.14980702" />
<path
   class="st0"
   d="m -709.14434,-268.99752 c 0.794,-2.2771 1.4532,-4.2995 2.2022,-6.2919 0.3745,-1.0037 0.3445,-1.8876 -0.045,-2.9063 -2.5617,-6.6814 0.7341,-14.3215 7.3106,-16.5986 9.2431,-3.1909 16.3739,3.3257 17.1979,10.5165 0.8988,7.8049 -5.453,14.5912 -13.2879,14.1567 -0.9588,-0.06 -1.9026,-0.3295 -2.8463,-0.5692 -0.6442,-0.1648 -1.2734,-0.4345 -1.9176,-0.6442 -0.6591,-0.2247 -1.3033,-0.2097 -1.9774,0.03 -1.7528,0.6591 -3.5205,1.2733 -5.2732,1.8875 -0.3596,0.1349 -0.7491,0.2397 -1.3633,0.4195 z m 3.4606,-3.5055 c 1.2583,-0.4494 2.292,-0.779 3.2807,-1.1835 0.824,-0.3445 1.5281,-0.2696 2.337,0.1498 3.925,2.0524 7.79,1.7378 11.2805,-0.8988 3.5354,-2.6666 4.9287,-6.3818 3.9399,-10.7262 -0.9587,-4.2245 -3.7002,-7.011 -7.9248,-7.9847 -4.1796,-0.9588 -7.8349,0.2846 -10.5314,3.6403 -2.7864,3.4605 -3.116,7.3555 -1.2584,11.3704 0.3895,0.8539 0.4944,1.6029 0.1199,2.4568 -0.4195,0.9588 -0.764,1.9475 -1.2434,3.1759 z"
   id="path1056"
   inkscape:connector-curvature="0"
   style="fill:#ffffff;stroke-width:0.14980702" />
<path
   class="st0"
   d="m -648.00804,-270.07612 c -1.7977,0 -3.5954,-0.045 -5.3931,0.015 -3.5804,0.1198 -6.5166,-2.5767 -6.6664,-6.5616 -0.015,-0.3296 -0.015,-0.6741 -0.015,-1.0037 0.015,-3.5354 -0.1947,-7.0859 0.1648,-10.6213 0.3146,-3.0111 2.6965,-5.5129 5.7376,-5.5878 4.1197,-0.09 8.2244,-0.06 12.3441,-0.015 2.8314,0.03 5.7526,2.6516 5.7526,5.8125 0,3.9699 0.075,7.9398 -0.015,11.8947 -0.09,3.6103 -2.6815,6.0222 -6.3068,6.0672 -1.8577,0.03 -3.7302,0 -5.6028,0 z m -10.142,-11.8797 c 0,0 -0.015,0 -0.015,0 0,1.7527 0,3.5204 0,5.2732 0,0.1798 0.045,0.3745 0.03,0.5543 -0.09,2.2321 1.8277,4.1946 4.2096,4.2095 2.4718,0.03 4.9286,0.1499 7.4005,0.1648 1.6029,0.015 3.2358,0.03 4.8088,-0.1947 2.4568,-0.3446 3.85,-2.4119 3.9699,-4.3444 0.2247,-3.895 0.1348,-7.79 -0.06,-11.67 -0.1198,-2.2621 -2.0074,-4.1047 -4.2695,-4.1347 -3.9699,-0.045 -7.9397,-0.03 -11.9096,0 -1.2135,0 -2.2322,0.5543 -3.0711,1.4382 -0.794,0.8389 -1.0936,1.8576 -1.0936,2.9812 0,1.9025 0,3.805 0,5.7226 z"
   id="path1058"
   inkscape:connector-curvature="0"
   style="fill:#ffffff;stroke-width:0.14980702" />

<path
   d="m -695.94634,-227.14142 c -1.9025,-0.06 -3.5953,-0.6292 -4.8987,-2.1123 -0.2097,-0.2547 -0.4494,-0.5543 -0.4943,-0.8539 -0.045,-0.2397 0.1198,-0.6142 0.3146,-0.749 0.1797,-0.1199 0.5543,-0.09 0.7939,0.015 0.2248,0.09 0.3596,0.3596 0.5393,0.5543 2.1273,2.2022 5.7676,2.1423 7.805,-0.1348 0.1498,-0.1648 0.2846,-0.3446 0.4344,-0.5093 0.2697,-0.2697 0.5543,-0.3596 0.8989,-0.1049 0.3146,0.2247 0.4494,0.5243 0.3146,0.8689 -0.1349,0.2996 -0.3146,0.5842 -0.5244,0.8539 -1.1385,1.4231 -3.041,2.2171 -5.1833,2.1722 z"
   id="path1062"
   inkscape:connector-curvature="0"
   style="stroke-width:0.14980702" />
<path
   d="m -700.09594,-234.88652 c 0.719,-0.03 1.2434,0.4345 1.2733,1.1236 0.03,0.6891 -0.4494,1.1835 -1.1834,1.1985 -0.7041,0.015 -1.1536,-0.3746 -1.1985,-1.0487 -0.03,-0.7191 0.4195,-1.2434 1.1086,-1.2734 z"
   id="path1064"
   inkscape:connector-curvature="0"
   style="stroke-width:0.14980702" />
<path
   d="m -691.49704,-232.56442 c -0.749,0 -1.2134,-0.4345 -1.1985,-1.1536 0.015,-0.719 0.4944,-1.1685 1.2135,-1.1685 0.7041,0 1.1535,0.4944 1.1385,1.2285 -0.045,0.6891 -0.4494,1.0936 -1.1535,1.0936 z"
   id="path1066"
   inkscape:connector-curvature="0"
   style="stroke-width:0.14980702" />
<path
   d="m -603.63524,-285.14672 c 2.1872,1.0936 4.2695,2.1272 6.5466,3.2658 -2.2471,1.1385 -4.3444,2.1872 -6.5466,3.2957 0,-2.2471 0,-4.3144 0,-6.5615 z"
   id="path1068"
   inkscape:connector-curvature="0"
   style="stroke-width:0.14980702" />
<path
   d="m -705.68374,-272.50302 c 0.4794,-1.2284 0.8239,-2.2171 1.2434,-3.1759 0.3745,-0.8539 0.2696,-1.6029 -0.1199,-2.4568 -1.8576,-4.0299 -1.528,-7.9099 1.2584,-11.3704 2.6965,-3.3557 6.3518,-4.5991 10.5314,-3.6403 4.2396,0.9588 6.9661,3.7602 7.9248,7.9847 0.9888,4.3444 -0.4045,8.0596 -3.9399,10.7262 -3.4905,2.6366 -7.3555,2.9512 -11.2805,0.8988 -0.8089,-0.4194 -1.513,-0.4943 -2.337,-0.1498 -0.9887,0.4045 -2.0224,0.7341 -3.2807,1.1835 z m 13.183,-3.865 c 0.9588,-0.2547 1.9325,-0.4644 2.8913,-0.764 0.5542,-0.1798 0.9587,-0.5843 1.0186,-1.2285 0.1648,-1.483 -1.498,-2.7414 -2.8613,-2.1572 -0.3295,0.1498 -0.6292,0.3895 -0.9288,0.5993 -0.4644,0.3295 -0.9587,0.4793 -1.4681,0.2097 -0.749,-0.4045 -1.558,-0.764 -2.1722,-1.3333 -0.7041,-0.6442 -1.2733,-1.4681 -1.8126,-2.2621 -0.8539,-1.2733 -0.809,-1.4232 0.1797,-2.5767 0.5243,-0.6142 0.6442,-1.3332 0.2996,-2.0973 -0.3595,-0.779 -1.2583,-1.3482 -2.0673,-1.3183 -0.8689,0.03 -1.2134,0.6592 -1.4531,1.3483 -0.7191,2.0074 -0.6292,3.9699 0.3445,5.8575 1.2135,2.3369 3.101,4.0148 5.4979,5.0634 0.7491,0.3596 1.618,0.4345 2.5318,0.6592 z"
   id="path1070"
   inkscape:connector-curvature="0"
   style="stroke-width:0.14980702" />
<path
   d="m -658.15004,-281.95582 c 0,-1.9026 0,-3.8201 0,-5.7226 0,-1.1236 0.2996,-2.1423 1.0936,-2.9812 0.8389,-0.8839 1.8427,-1.4232 3.0711,-1.4382 3.9699,-0.015 7.9397,-0.045 11.9096,0 2.2621,0.03 4.1497,1.8726 4.2695,4.1347 0.1948,3.895 0.2996,7.775 0.06,11.67 -0.1049,1.9325 -1.5131,3.9998 -3.9699,4.3444 -1.588,0.2247 -3.2059,0.1947 -4.8088,0.1947 -2.4719,-0.015 -4.9287,-0.1348 -7.4005,-0.1648 -2.3819,-0.03 -4.2995,-1.9924 -4.2096,-4.2095 0.015,-0.1798 -0.03,-0.3745 -0.03,-0.5543 0,-1.7528 0,-3.5205 0,-5.2732 0,0 0.015,0 0.015,0 z m 16.329,-0.015 c 0.015,-3.4755 -2.6965,-6.232 -6.1421,-6.2769 -3.3706,-0.045 -6.2619,2.7864 -6.2919,6.172 -0.03,3.4905 2.7714,6.3369 6.247,6.3069 3.5204,-0.015 6.187,-2.6965 6.187,-6.202 z m 1.8127,-6.5915 c 0,-0.8389 -0.4944,-1.3483 -1.2884,-1.3483 -0.8239,0 -1.3033,0.4794 -1.3033,1.3183 -0.015,0.8389 0.4794,1.3483 1.2883,1.3483 0.809,0.015 1.3034,-0.4794 1.3034,-1.3183 z"
   id="path1072"
   inkscape:connector-curvature="0"
   style="stroke-width:0.14980702" />
<path
   class="st0"
   d="m -692.50074,-276.36802 c -0.8989,-0.2247 -1.7827,-0.3146 -2.5467,-0.6442 -2.4119,-1.0486 -4.2845,-2.7115 -5.498,-5.0635 -0.9887,-1.8875 -1.0636,-3.865 -0.3445,-5.8574 0.2547,-0.6891 0.5992,-1.3033 1.4531,-1.3483 0.794,-0.03 1.7078,0.5393 2.0674,1.3183 0.3445,0.764 0.2247,1.4681 -0.2997,2.0973 -0.9737,1.1535 -1.0336,1.3183 -0.1797,2.5767 0.5393,0.794 1.1085,1.6179 1.8126,2.2621 0.6142,0.5692 1.4232,0.9288 2.1722,1.3333 0.5094,0.2696 1.0187,0.1198 1.4682,-0.2098 0.2996,-0.2247 0.5992,-0.4644 0.9288,-0.5992 1.3632,-0.5842 3.0261,0.6741 2.8613,2.1572 -0.06,0.6292 -0.4644,1.0487 -1.0187,1.2284 -0.9438,0.2847 -1.9325,0.4944 -2.8763,0.7491 z"
   id="path1074"
   inkscape:connector-curvature="0"
   style="fill:#ffffff;stroke-width:0.14980702" />
<path
   class="st0"
   d="m -641.82104,-281.97082 c -0.015,3.5055 -2.6815,6.172 -6.187,6.202 -3.4606,0.015 -6.2769,-2.8164 -6.247,-6.3069 0.03,-3.3856 2.9063,-6.217 6.2919,-6.172 3.4606,0.045 6.1571,2.8014 6.1421,6.2769 z m -1.7677,-0.06 c 0.075,-2.322 -1.8726,-4.3594 -4.2545,-4.4493 -2.4269,-0.09 -4.5542,1.9026 -4.6141,4.3594 -0.06,2.4868 1.7977,4.4942 4.2395,4.5691 2.0973,0.075 4.6441,-1.2284 4.6291,-4.4792 z"
   id="path1076"
   inkscape:connector-curvature="0"
   style="fill:#ffffff;stroke-width:0.14980702" />
<path
   class="st0"
   d="m -640.00834,-288.56232 c 0,0.8239 -0.4944,1.3333 -1.3183,1.3183 -0.809,0 -1.3034,-0.5094 -1.2884,-1.3483 0.015,-0.8389 0.4944,-1.3333 1.3033,-1.3183 0.809,0.015 1.2884,0.5244 1.3034,1.3483 z"
   id="path1078"
   inkscape:connector-curvature="0"
   style="fill:#ffffff;stroke-width:0.14980702" />
<path
   d="m -643.58874,-282.03072 c 0,3.2508 -2.5318,4.5541 -4.6291,4.4792 -2.4268,-0.09 -4.2994,-2.0823 -4.2395,-4.5691 0.06,-2.4568 2.1722,-4.4493 4.6141,-4.3594 2.3819,0.09 4.3294,2.1123 4.2545,4.4493 z"
   id="path1080"
   inkscape:connector-curvature="0"
   style="stroke-width:0.14980702" />












<rect
   y="1319.4108"
   x="338.76791"
   height="2.8456721"
   width="4.3337126"
   id="rect1045"
   style="opacity:1;fill:#000000;fill-opacity:1;stroke:#ffffff;stroke-width:0;stroke-miterlimit:4;stroke-dasharray:none;stroke-dashoffset:0;stroke-opacity:0.95794391" /><g
   id="g1097"
   transform="matrix(25.479312,0,0,25.479312,-11642.722,-983.6)"><path
     id="path1722"
     d="m 157.29883,219.64062 c -2.3369,0 -4.1637,1.27249 -5.0625,3.42969 -0.1199,0.2846 -0.34497,0.5389 -0.50977,0.8086 0,9.5127 6.3e-4,19.02563 0.0156,28.52343 0.1648,0.2846 0.37424,0.54025 0.49414,0.83985 0.8838,2.1722 2.6812,3.46093 5.0332,3.46093 8.7937,0.015 17.58716,0.015 26.38086,0 3.0561,-0.015 5.34828,-2.27725 5.36328,-5.31835 0.03,-8.7936 0.03,-17.58716 0,-26.38086 -0.015,-3.086 -2.3365,-5.36329 -5.4375,-5.36329 -8.7637,-0.015 -17.51354,-0.015 -26.27734,0 z"
     style="fill:#3f165b;fill-opacity:1;stroke-width:0.14980702"
     inkscape:connector-curvature="0" /><g
     style="fill:#f9f9f9;fill-opacity:1"
     transform="matrix(1.2107939,0,0,1.2107939,-34.699095,11.301292)"
     id="g1716"><g
       style="fill:#f9f9f9;fill-opacity:1"
       transform="translate(-56.75,19.75)"
       id="g1714"><g
         transform="matrix(-1.373986,0,0,-1.373986,1154.3974,486.4389)"
         style="fill:#f9f9f9;fill-opacity:1"
         id="g1710"><path
           class="st0"
           d="m 675.58182,234.39565 c 1.3033,-0.015 2.367,1.0336 2.352,2.322 0,1.2284 -1.0187,2.292 -2.2471,2.337 -1.2734,0.045 -2.382,-1.0037 -2.4119,-2.2921 -0.03,-1.2883 1.0037,-2.352 2.307,-2.3669 z"
           id="path1708"
           inkscape:connector-curvature="0"
           style="fill:#f9f9f9;fill-opacity:1;stroke-width:0.14980702" /></g><path
         style="opacity:1;fill:#f9f9f9;fill-opacity:1;stroke:none;stroke-width:3.4793222;stroke-miterlimit:4;stroke-dasharray:none;stroke-dashoffset:0;stroke-opacity:0.95794391"
         d="m 223.02539,166.00781 v 1.74024 1.70507 6.07422 c 0,0.96337 0.77685,1.74024 1.74023,1.74024 h 2.72266 c 0.96338,0 1.73828,-0.77687 1.73828,-1.74024 v -6.07422 -1.70507 -1.74024 h -1.73828 -2.72266 z"
         id="path1712"
         inkscape:connector-curvature="0" /></g></g></g><g
   id="g1088"
   transform="matrix(25.479312,0,0,25.479312,-11642.722,-983.6)"><path
     inkscape:connector-curvature="0"
     style="fill:#3f165b;fill-opacity:1;stroke-width:0.14980702"
     d="m 217.29883,219.64062 c -2.3369,0 -4.1637,1.27249 -5.0625,3.42969 -0.1199,0.2846 -0.34497,0.5389 -0.50977,0.8086 0,9.5127 6.3e-4,19.02563 0.0156,28.52343 0.1648,0.2846 0.37424,0.54025 0.49414,0.83985 0.8838,2.1722 2.6812,3.46093 5.0332,3.46093 8.7937,0.015 17.58716,0.015 26.38086,0 3.0561,-0.015 5.34828,-2.27725 5.36328,-5.31835 0.03,-8.7936 0.03,-17.58716 0,-26.38086 -0.015,-3.086 -2.3365,-5.36329 -5.4375,-5.36329 -8.7637,-0.015 -17.51354,-0.015 -26.27734,0 z"
     id="path1727" /><g
     style="fill:#f9f9f9;fill-opacity:1"
     id="g822"
     transform="matrix(0.03710518,0,0,0.03710518,219.41028,226.04135)"><path
       style="fill:#f9f9f9;fill-opacity:1"
       d="m 631,-16 c 7.54,2.5 15.57,4 22.52,7.66 27.18,14.18 40.31,37.15 40.31,67.71 q 0,131.49 0,263 0,106.23 0,212.47 c 0,25.75 -9.71,46.61 -30.62,61.84 a 66.58,66.58 0 0 1 -39.64,13.26 c -113.65,0.12 -227.3,0.34 -341,-0.08 -37.25,-0.14 -70.39,-30.69 -70.31,-73.39 0,-17.66 0,-35.33 0,-53 0,-20.33 0.07,-40.66 -0.07,-61 0,-3.75 0.83,-5.28 5,-5.19 12.82,0.27 25.66,0.09 38.49,0.11 1.3,0 2.61,0.19 4.59,0.34 v 6 q 0,55 0,110 c 0,18.61 9.4,28.12 27.9,28.13 q 165,0 330,0 c 18.07,0 27.65,-9.73 27.65,-27.91 q 0,-237 0,-473.94 c 0,-18.12 -9.64,-27.81 -27.75,-27.81 q -164.73,0 -329.46,0 c -18.95,0 -28.31,9.36 -28.31,28.21 q 0,54.74 0,109.48 V 176 a 25.68,25.68 0 0 1 -3.68,0.57 c -13.33,0 -26.66,-0.08 -40,0.06 -3.21,0 -4.39,-0.88 -4.38,-4.21 0.11,-39 -0.42,-78 0.27,-117 0.64,-36.18 24.37,-63.41 59.76,-70.45 A 16,16 0 0 0 275,-16 Z"
       transform="translate(-139.9,16)"
       id="path4"
       inkscape:connector-curvature="0" /><path
       style="fill:#f9f9f9;fill-opacity:1"
       d="m 308.52,224.89 c 0,-2.53 0,-4.65 0,-6.76 0.17,-19.82 0.16,-39.65 0.69,-59.47 a 27,27 0 0 1 3.66,-12.21 c 4.64,-8.07 15.89,-9.37 22.93,-3.27 l 102.26,88.55 q 35.65,30.87 71.28,61.77 v 0 a 4.5,4.5 0 0 1 0,6.77 c -5.32,4.66 -10.45,9.15 -15.59,13.62 q -43.33,37.63 -86.7,75.25 -35.82,31.05 -71.74,62 c -7.06,6.08 -20.11,2.5 -23.53,-7.06 a 60.2,60.2 0 0 1 -3.15,-18.49 c -0.41,-16.66 -0.14,-33.33 -0.14,-50 v -6.51 h -6.37 c -44.66,0 -89.33,-0.42 -134,0.19 -18.92,0.26 -28.56,-12.49 -28.27,-28.43 0.56,-30.15 0.11,-60.32 0.19,-90.49 0,-12.85 7.39,-22.55 18.85,-24.92 a 46.45,46.45 0 0 1 9.45,-0.56 q 66.74,0 133.49,0 z"
       transform="translate(-139.9,16)"
       id="path6"
       inkscape:connector-curvature="0" /></g></g><g
   id="g1082"
   transform="matrix(25.479312,0,0,25.479312,-11642.722,-983.6)"><path
     id="path1729"
     d="m 277.29883,219.64062 c -2.3369,0 -4.1637,1.27249 -5.0625,3.42969 -0.1199,0.2846 -0.34497,0.5389 -0.50977,0.8086 0,9.5127 6.3e-4,19.02563 0.0156,28.52343 0.1648,0.2846 0.37424,0.54025 0.49414,0.83985 0.8838,2.1722 2.6812,3.46093 5.0332,3.46093 8.7937,0.015 17.58716,0.015 26.38086,0 3.0561,-0.015 5.34828,-2.27725 5.36328,-5.31835 0.03,-8.7936 0.03,-17.58716 0,-26.38086 -0.015,-3.086 -2.3365,-5.36329 -5.4375,-5.36329 -8.7637,-0.015 -17.51354,-0.015 -26.27734,0 z"
     style="fill:#3f165b;fill-opacity:1;stroke-width:0.14980702"
     inkscape:connector-curvature="0" /><path
     inkscape:connector-curvature="0"
     id="path1695"
     d="m 283.21783,248.76257 c -0.85361,-0.22956 -1.60199,-1.02128 -1.78012,-1.8832 -0.0341,-0.16527 -0.0513,-1.28797 -0.0513,-3.36195 0,-2.61371 0.0108,-3.13413 0.0671,-3.24027 0.0369,-0.0695 1.9175,-1.97345 4.17906,-4.23091 3.30518,-3.29919 4.14178,-4.11065 4.2641,-4.13595 0.36409,-0.0753 0.20795,-0.21666 4.56846,4.13595 2.26156,2.25746 4.14213,4.16137 4.17905,4.23091 0.0563,0.1061 0.0671,0.62265 0.0671,3.21056 0,1.99357 -0.0178,3.18236 -0.0503,3.36195 -0.11885,0.65679 -0.64646,1.37476 -1.24451,1.69352 -0.53653,0.28597 -0.61192,0.2934 -2.9757,0.2934 h -2.14374 l -0.012,-3.05527 -0.012,-3.05527 h -2.22417 -2.22415 l -0.012,3.05527 -0.012,3.05527 -2.16527,-0.003 c -1.73597,-0.003 -2.2153,-0.0165 -2.41756,-0.0709 z m -4.25107,-9.87971 c -0.27062,-0.0998 -0.60438,-0.40699 -0.75295,-0.69298 -0.0993,-0.19114 -0.12502,-0.30652 -0.12655,-0.56767 -0.004,-0.6616 -0.33463,-0.28651 4.72145,-5.35463 2.50129,-2.50725 4.70096,-4.69095 4.88818,-4.85268 0.65308,-0.56419 1.30044,-0.81645 2.18812,-0.85266 0.62374,-0.0254 1.02937,0.0374 1.51977,0.23549 0.60444,0.24414 0.78329,0.39177 2.33151,1.9245 l 1.51008,1.49497 v -0.73178 c 0,-0.40247 0.0239,-0.84298 0.053,-0.97891 0.13897,-0.64799 0.66108,-1.06762 1.32831,-1.06762 0.56058,0 0.99253,0.27776 1.23647,0.79509 l 0.12143,0.25753 0.0137,2.24756 0.0137,2.24756 1.9112,1.91979 c 2.13299,2.14256 2.08998,2.08657 2.08628,2.71579 -0.003,0.4071 -0.14836,0.71706 -0.47172,1.0017 -0.39467,0.3474 -1.00313,0.42714 -1.47294,0.19305 -0.14746,-0.0735 -1.55242,-1.4458 -4.86632,-4.75328 -2.56244,-2.55748 -4.72643,-4.68363 -4.80885,-4.72477 -0.19167,-0.0957 -0.49193,-0.0957 -0.6836,0 -0.0824,0.0411 -2.2464,2.16729 -4.80885,4.72477 -3.34473,3.33826 -4.71844,4.67974 -4.86971,4.75549 -0.27088,0.13564 -0.78333,0.16638 -1.06177,0.0637 z"
     style="fill:#f9f9f9;fill-opacity:1;stroke-width:0.0468241" /></g><g
   id="g1078"
   transform="matrix(25.479312,0,0,25.479312,-11642.722,-983.6)"><path
     inkscape:connector-curvature="0"
     style="fill:#3f165b;fill-opacity:1;stroke-width:0.14980702"
     d="m 337.29883,219.64062 c -2.3369,0 -4.1637,1.27249 -5.0625,3.42969 -0.1199,0.2846 -0.34497,0.5389 -0.50977,0.8086 0,9.5127 6.3e-4,19.02563 0.0156,28.52343 0.1648,0.2846 0.37424,0.54025 0.49414,0.83985 0.8838,2.1722 2.6812,3.46093 5.0332,3.46093 8.7937,0.015 17.58716,0.015 26.38086,0 3.0561,-0.015 5.34828,-2.27725 5.36328,-5.31835 0.03,-8.7936 0.03,-17.58716 0,-26.38086 -0.015,-3.086 -2.3365,-5.36329 -5.4375,-5.36329 -8.7637,-0.015 -17.51354,-0.015 -26.27734,0 z"
     id="path1731" /><g
     style="fill:#f9f9f9;fill-opacity:1"
     transform="matrix(0.77532195,0,0,0.77532195,132.50377,-110.75477)"
     id="g1033"><path
       style="opacity:1;fill:#f9f9f9;fill-opacity:1;stroke:#ffffff;stroke-width:0;stroke-miterlimit:4;stroke-dasharray:none;stroke-dashoffset:0;stroke-opacity:0.95794391"
       d="m 266.44921,436.72268 c -1.36913,0 -2.47007,1.10096 -2.47007,2.47007 v 11.72508 c 0,1.36911 1.10094,2.47267 2.47007,2.47267 h 9.09933 l 6.74341,6.02471 1.8837,-6.02471 h 0.64606 c 1.36911,0 2.47267,-1.10356 2.47267,-2.47267 v -11.72508 c 0,-1.36911 -1.10356,-2.47007 -2.47267,-2.47007 z m 2.51159,6.38536 a 2.0032196,1.849126 0 0 1 2.00305,1.84996 2.0032196,1.849126 0 0 1 -2.00305,1.84996 2.0032196,1.849126 0 0 1 -2.00305,-1.84996 2.0032196,1.849126 0 0 1 2.00305,-1.84996 z m 6.52287,0 a 2.0032196,1.849126 0 0 1 2.00305,1.84996 2.0032196,1.849126 0 0 1 -2.00305,1.84996 2.0032196,1.849126 0 0 1 -2.00304,-1.84996 2.0032196,1.849126 0 0 1 2.00304,-1.84996 z m 6.55401,0 a 2.0032196,1.849126 0 0 1 2.00305,1.84996 2.0032196,1.849126 0 0 1 -2.00305,1.84996 2.0032196,1.849126 0 0 1 -2.00303,-1.84996 2.0032196,1.849126 0 0 1 2.00303,-1.84996 z"
       id="rect993"
       inkscape:connector-curvature="0" /><path
       inkscape:connector-curvature="0"
       style="opacity:1;fill:#f9f9f9;fill-opacity:1;stroke:#ffffff;stroke-width:0;stroke-miterlimit:4;stroke-dasharray:none;stroke-dashoffset:0;stroke-opacity:0.95794391"
       d="m 296.54869,449.5475 c 0.83331,0 1.50341,0.6701 1.50341,1.50339 v 7.13646 c 0,0.8333 -0.6701,1.50498 -1.50341,1.50498 h -5.53828 l -4.10436,3.66693 -1.14652,-3.66693 h -0.39322 c -0.8333,0 -1.50499,-0.67168 -1.50499,-1.50498 v -7.13646 c 0,-0.83329 0.67169,-1.50339 1.50499,-1.50339 z m -1.52866,3.88643 a 1.2192544,1.1254657 0 0 0 -1.21917,1.12598 1.2192544,1.1254657 0 0 0 1.21917,1.12598 1.2192544,1.1254657 0 0 0 1.21913,-1.12598 1.2192544,1.1254657 0 0 0 -1.21913,-1.12598 z m -3.97015,0 a 1.2192544,1.1254657 0 0 0 -1.21915,1.12598 1.2192544,1.1254657 0 0 0 1.21915,1.12598 1.2192544,1.1254657 0 0 0 1.21916,-1.12598 1.2192544,1.1254657 0 0 0 -1.21916,-1.12598 z m -3.98908,0 a 1.2192544,1.1254657 0 0 0 -1.21915,1.12598 1.2192544,1.1254657 0 0 0 1.21915,1.12598 1.2192544,1.1254657 0 0 0 1.21915,-1.12598 1.2192544,1.1254657 0 0 0 -1.21915,-1.12598 z"
       id="path1029" /></g></g><g
   id="g1182"
   transform="matrix(14.734174,0,0,14.734174,-8522.5349,917.62202)"><g
     transform="translate(2,-0.1459235)"
     id="g996"><g
       id="g1068"><g
         transform="matrix(0.62985736,0,0,0.62985736,44.533788,16.373467)"
         id="g1272"><g
           id="g1265" /><g
           id="g1313"><g
             transform="translate(-157.53813,-285.98495)"
             id="g1346"><g
               transform="matrix(1.7292663,0,0,1.7292663,-397.22073,-395.45248)"
               id="g1133"><path
                 transform="matrix(1.5876611,0,0,1.5876611,86.833569,259.98943)"
                 inkscape:connector-curvature="0"
                 style="fill:#3f165b;fill-opacity:1;stroke-width:0.14980702"
                 d="m 155.73922,99.932467 c -2.3369,0 -4.1637,1.272493 -5.0625,3.429693 -0.1199,0.2846 -0.34497,0.5389 -0.50977,0.8086 0,9.5127 6.3e-4,19.02563 0.0156,28.52343 0.1648,0.2846 0.37424,0.54025 0.49414,0.83985 0.8838,2.1722 2.6812,3.46093 5.0332,3.46093 8.7937,0.015 17.58716,0.015 26.38086,0 3.0561,-0.015 5.34828,-2.27725 5.36328,-5.31835 0.03,-8.7936 0.03,-17.58716 0,-26.38086 -0.015,-3.086 -2.3365,-5.363293 -5.4375,-5.363293 -8.7637,-0.015 -17.51354,-0.015 -26.27734,0 z"
                 id="path1733" /><rect
                 y="435.74307"
                 x="337.63443"
                 height="29.825037"
                 width="34.442619"
                 id="rect1037"
                 style="opacity:1;fill:none;fill-opacity:1;stroke:#ffffff;stroke-width:1.90414166;stroke-miterlimit:4;stroke-dasharray:none;stroke-dashoffset:0;stroke-opacity:0.95794391"
                 ry="2.7529914" /><path
                 inkscape:connector-curvature="0"
                 style="opacity:1;fill:#f9f9f9;fill-opacity:1;stroke:#f9f9f9;stroke-width:0;stroke-miterlimit:4;stroke-dasharray:none;stroke-dashoffset:0;stroke-opacity:1"
                 d="m 346.10938,429.61914 c -0.90493,0 -1.63477,1.10227 -1.63477,2.4707 v 0.68555 c 0,0.0869 0.0119,0.16939 0.0176,0.25391 h -5.2793 c -1.36538,0 -2.464,1.06934 -2.5293,2.41797 h -0.0117 v 0.12304 1.33594 2.9043 h 36.38671 v -2.9043 -1.33594 -0.12304 h -0.0117 c -0.0653,-1.34865 -1.16391,-2.41797 -2.5293,-2.41797 h -4.79297 c 0.006,-0.0845 0.0176,-0.16703 0.0176,-0.25391 v -0.68555 c 0,-1.36843 -0.72789,-2.4707 -1.63281,-2.4707 -0.90493,0 -1.63477,1.10227 -1.63477,2.4707 v 0.68555 c 0,0.0869 0.0119,0.16939 0.0176,0.25391 h -14.76758 c 0.006,-0.0845 0.0176,-0.16703 0.0176,-0.25391 v -0.68555 c 0,-1.36843 -0.72789,-2.4707 -1.63281,-2.4707 z"
                 id="rect1035" /><g
                 style="fill:#f9f9f9;fill-opacity:1"
                 id="g1249"
                 transform="matrix(0.96409777,0,0,1.1375515,12.745095,-61.612441)"><rect
                   y="444.22372"
                   x="342.48337"
                   height="3.877691"
                   width="5.0741186"
                   id="rect1202"
                   style="opacity:1;fill:#f9f9f9;fill-opacity:1;stroke:#ffffff;stroke-width:0;stroke-miterlimit:4;stroke-dasharray:none;stroke-dashoffset:0;stroke-opacity:0.95794391"
                   ry="0.35792917" /><rect
                   ry="0.35792917"
                   style="opacity:1;fill:#f9f9f9;fill-opacity:1;stroke:#ffffff;stroke-width:0;stroke-miterlimit:4;stroke-dasharray:none;stroke-dashoffset:0;stroke-opacity:0.95794391"
                   id="rect1204"
                   width="5.0741186"
                   height="3.877691"
                   x="342.48337"
                   y="449.30237" /><rect
                   y="454.34103"
                   x="342.48337"
                   height="3.877691"
                   width="5.0741186"
                   id="rect1206"
                   style="opacity:1;fill:#f9f9f9;fill-opacity:1;stroke:#ffffff;stroke-width:0;stroke-miterlimit:4;stroke-dasharray:none;stroke-dashoffset:0;stroke-opacity:0.95794391"
                   ry="0.35792917" /><rect
                   ry="0.35792917"
                   style="opacity:1;fill:#f9f9f9;fill-opacity:1;stroke:#ffffff;stroke-width:0;stroke-miterlimit:4;stroke-dasharray:none;stroke-dashoffset:0;stroke-opacity:0.95794391"
                   id="rect1216"
                   width="5.0741186"
                   height="3.877691"
                   x="349.22217"
                   y="444.22372" /><rect
                   y="449.30237"
                   x="349.22217"
                   height="3.877691"
                   width="5.0741186"
                   id="rect1218"
                   style="opacity:1;fill:#f9f9f9;fill-opacity:1;stroke:#ffffff;stroke-width:0;stroke-miterlimit:4;stroke-dasharray:none;stroke-dashoffset:0;stroke-opacity:0.95794391"
                   ry="0.35792917" /><rect
                   ry="0.35792917"
                   style="opacity:1;fill:#f9f9f9;fill-opacity:1;stroke:#ffffff;stroke-width:0;stroke-miterlimit:4;stroke-dasharray:none;stroke-dashoffset:0;stroke-opacity:0.95794391"
                   id="rect1220"
                   width="5.0741186"
                   height="3.877691"
                   x="349.22217"
                   y="454.34103" /><rect
                   y="444.22372"
                   x="355.80405"
                   height="3.877691"
                   width="5.0741186"
                   id="rect1222"
                   style="opacity:1;fill:#f9f9f9;fill-opacity:1;stroke:#ffffff;stroke-width:0;stroke-miterlimit:4;stroke-dasharray:none;stroke-dashoffset:0;stroke-opacity:0.95794391"
                   ry="0.35792917" /><rect
                   ry="0.35792917"
                   style="opacity:1;fill:#f9f9f9;fill-opacity:1;stroke:#ffffff;stroke-width:0;stroke-miterlimit:4;stroke-dasharray:none;stroke-dashoffset:0;stroke-opacity:0.95794391"
                   id="rect1224"
                   width="5.0741186"
                   height="3.877691"
                   x="355.80405"
                   y="449.30237" /><rect
                   y="454.34103"
                   x="355.80405"
                   height="3.877691"
                   width="5.0741186"
                   id="rect1226"
                   style="opacity:1;fill:#f9f9f9;fill-opacity:1;stroke:#ffffff;stroke-width:0;stroke-miterlimit:4;stroke-dasharray:none;stroke-dashoffset:0;stroke-opacity:0.95794391"
                   ry="0.35792917" /><rect
                   ry="0.35792917"
                   style="opacity:1;fill:#f9f9f9;fill-opacity:1;stroke:#ffffff;stroke-width:0;stroke-miterlimit:4;stroke-dasharray:none;stroke-dashoffset:0;stroke-opacity:0.95794391"
                   id="rect1228"
                   width="5.0741186"
                   height="3.877691"
                   x="362.4313"
                   y="444.22372" /><rect
                   y="449.30237"
                   x="362.4313"
                   height="3.877691"
                   width="5.0741186"
                   id="rect1230"
                   style="opacity:1;fill:#f9f9f9;fill-opacity:1;stroke:#ffffff;stroke-width:0;stroke-miterlimit:4;stroke-dasharray:none;stroke-dashoffset:0;stroke-opacity:0.95794391"
                   ry="0.35792917" /><rect
                   ry="0.35792917"
                   style="opacity:1;fill:#f9f9f9;fill-opacity:1;stroke:#ffffff;stroke-width:0;stroke-miterlimit:4;stroke-dasharray:none;stroke-dashoffset:0;stroke-opacity:0.95794391"
                   id="rect1232"
                   width="5.0741186"
                   height="3.877691"
                   x="362.4313"
                   y="454.34103" /></g><ellipse
                 style="opacity:1;fill:none;fill-opacity:1;stroke:#f9f9f9;stroke-width:2.2436769;stroke-miterlimit:4;stroke-dasharray:none;stroke-dashoffset:0;stroke-opacity:1"
                 id="path1251"
                 cx="364.61075"
                 cy="457.58102"
                 rx="4.7749152"
                 ry="4.8226647" /><path
                 style="fill:#800080;fill-opacity:1;stroke:none;stroke-width:1px;stroke-linecap:butt;stroke-linejoin:miter;stroke-opacity:1"
                 d="m 360.63972,456.36641 h 0.6409 l 1.75822,-1.48031 h -0.63523 z"
                 id="path1257"
                 inkscape:connector-curvature="0" /><path
                 style="fill:#800080;fill-opacity:1;stroke:none;stroke-width:1px;stroke-linecap:butt;stroke-linejoin:miter;stroke-opacity:1"
                 d="m 369.51562,453.03436 -0.64062,0.004 -0.42187,0.38672 0.60156,0.0195 z"
                 id="path1259"
                 inkscape:connector-curvature="0"
                 sodipodi:nodetypes="ccccc" /><rect
                 ry="2.7529914"
                 style="opacity:1;fill:none;fill-opacity:1;stroke:#f9f9f9;stroke-width:1.90414166;stroke-miterlimit:4;stroke-dasharray:none;stroke-dashoffset:0;stroke-opacity:1"
                 id="rect1315"
                 width="34.442619"
                 height="29.825037"
                 x="337.63443"
                 y="435.74307" /><path
                 inkscape:connector-curvature="0"
                 id="path1255"
                 d="m 361.4965,455.6296 c 2.65252,3.16543 2.66717,3.16543 2.66717,3.16543 l 5.4662,-4.90934"
                 style="fill:none;stroke:#3f165b;stroke-width:2.29145169;stroke-linecap:butt;stroke-linejoin:miter;stroke-miterlimit:4;stroke-dasharray:none;stroke-opacity:1" /><path
                 inkscape:connector-curvature="0"
                 id="path1253"
                 d="m 362.14587,455.6296 c 2.65252,3.16543 2.66717,3.16543 2.66717,3.16543 l 5.4662,-4.90934"
                 style="fill:none;stroke:#f9f9f9;stroke-width:2.29145169;stroke-linecap:butt;stroke-linejoin:miter;stroke-miterlimit:4;stroke-dasharray:none;stroke-opacity:1" /></g></g></g></g></g></g></g><path
   inkscape:connector-curvature="0"
   style="fill:#3f165b;fill-opacity:1;stroke-width:3.81698012"
   d="m -1519.8217,3103.0427 c -59.5426,0 -106.0883,32.422 -128.989,87.386 -3.055,7.2514 -8.7897,13.731 -12.9886,20.6026 0,242.377 0.016,484.76 0.3978,726.7574 4.1989,7.2514 9.5354,13.7651 12.5903,21.3988 22.5186,55.3462 68.315,88.1822 128.2425,88.1822 224.0574,0.3815 448.1087,0.3815 672.16608,0 77.8673,-0.3817 136.2705,-58.0228 136.6527,-135.508 0.7647,-224.0549 0.7647,-448.1088 0,-672.1663 -0.3816,-78.6289 -59.5324,-136.6527 -138.5436,-136.6527 -223.29328,-0.3817 -446.23308,-0.3817 -669.52858,0 z"
   id="path1735" /><path
   class="st0"
   d="m -1479.7771,3319.2137 c 41.2802,0 82.3415,0 124.4903,0 6.951,29.5462 13.9036,58.4426 21.0737,89.2923 6.5174,0 12.8189,0 19.1186,0 107.9778,-0.2295 215.9556,-0.2295 324.15068,-0.6525 11.5151,0 22.8127,1.0872 32.8064,7.1684 17.5976,10.6465 24.1148,27.3752 17.1638,47.5803 -6.3012,18.4677 -13.2538,36.7177 -20.6399,54.7501 -14.774,36.7163 -29.9812,73.2163 -44.32158,110.1503 -3.9098,10.4273 -9.5585,13.47 -20.4224,13.47 -78.2125,-0.436 -156.4267,-0.2297 -234.4216,-0.2297 -6.3014,0 -12.8189,0 -20.8577,0 2.8251,13.035 4.7799,24.3327 7.8212,34.9789 1.0874,3.2589 4.9976,7.1701 8.4739,8.2563 21.5088,7.3862 38.0199,20.4212 49.5351,39.9751 1.7376,3.0412 6.5175,6.0839 9.9937,6.0839 24.3325,0.436 48.6666,0.2297 72.3478,0.2297 29.546,-43.4515 64.3075,-58.2251 103.8488,-45.1889 34.32758,11.2976 58.00908,44.7553 57.35618,80.6028 -0.8708,37.1512 -25.6363,68.8714 -61.70118,78.8653 -38.6712,10.6446 -72.5638,-4.7803 -99.2878,-46.7118 -12.3836,0 -25.8539,0 -39.3237,0 -13.0349,0 -26.0699,0 -39.5414,0 -14.1211,26.7242 -34.9775,44.539 -65.1775,48.6665 -24.9839,3.4764 -47.5789,-2.8236 -66.4815,-19.5525 -20.8561,-18.4675 -29.9813,-41.9311 -28.2423,-69.7401 1.304,-22.3789 9.7763,-36.7175 38.671,-66.0477 -22.8123,-100.3739 -45.6235,-201.399 -69.0874,-304.5968 -25.6377,0 -51.4913,-0.8709 -77.3452,0.6527 0,-22.3775 0,-45.1901 0,-68.0012 z"
   id="path992"
   inkscape:connector-curvature="0"
   style="fill:#f9f9f9;fill-opacity:1;stroke-width:2.17259216" /><g
   id="g1137"
   transform="matrix(14.734174,0,0,14.734174,-8522.5349,902.2307)"><path
     inkscape:connector-curvature="0"
     style="fill:#3f165b;fill-opacity:1;stroke-width:0.25905624"
     d="m 475.27015,44.051807 c -4.04112,0 -7.20015,2.200474 -8.75441,5.930847 -0.20734,0.492149 -0.59655,0.931902 -0.88153,1.398285 0,16.449992 10e-4,32.900381 0.027,49.324611 0.28498,0.49215 0.64716,0.93423 0.8545,1.45232 1.52832,3.75631 4.6365,5.98487 8.70374,5.98487 15.20665,0.0259 30.41288,0.0259 45.61953,0 5.28481,-0.0259 9.2486,-3.93797 9.27454,-9.196844 0.0519,-15.206476 0.0519,-30.412883 0,-45.619533 -0.0259,-5.336515 -4.04043,-9.274556 -9.40288,-9.274556 -15.15478,-0.02594 -30.28558,-0.02594 -45.44052,0 z"
     id="path1737" /><path
     d="m 485.43128,67.796103 c 1.03312,0 1.98012,0 3.0276,0 0.18659,-3.185447 1.39184,-5.768227 3.93161,-7.619234 1.76499,-1.29145 3.77385,-1.894117 5.95483,-1.779276 2.46805,0.129176 4.57737,1.090492 6.29917,2.855381 1.54976,1.592776 2.09497,2.898493 2.74073,6.528776 0.96138,0 1.93712,0 2.97024,0 1.77926,8.738571 3.52978,17.362284 5.29466,26.029021 -11.88092,0 -23.66134,0 -35.51364,0 1.76489,-8.681107 3.51553,-17.30482 5.2948,-26.014668 z m 17.92186,-0.05741 c -0.10047,-2.080602 -0.97574,-3.630267 -2.68327,-4.634746 -1.96585,-1.162239 -3.9747,-1.076122 -5.85434,0.200959 -1.5354,1.033115 -2.29583,2.525403 -2.35329,4.433787 3.659,0 7.23189,0 10.8909,0 z"
     id="path1741"
     inkscape:connector-curvature="0"
     style="fill:#f9f9f9;fill-opacity:1;stroke-width:0.14348964" /></g><g
   id="g1142"
   transform="matrix(14.734174,0,0,14.734174,-8524.7711,944.53593)"><g
     transform="matrix(1.7292663,0,0,1.7292663,-218.25009,-129.55031)"
     id="g1072"><path
       inkscape:connector-curvature="0"
       style="fill:#3f165b;fill-opacity:1;stroke-width:0.14980702"
       d="m 339.29883,99.64062 c -2.3369,0 -4.1637,1.27249 -5.0625,3.42969 -0.1199,0.2846 -0.34497,0.5389 -0.50977,0.8086 0,9.5127 6.3e-4,19.02563 0.0156,28.52343 0.1648,0.2846 0.37424,0.54025 0.49414,0.83985 0.8838,2.1722 2.6812,3.46093 5.0332,3.46093 8.7937,0.015 17.58716,0.015 26.38086,0 3.0561,-0.015 5.34828,-2.27725 5.36328,-5.31835 0.03,-8.7936 0.03,-17.58716 0,-26.38086 -0.015,-3.086 -2.3365,-5.36329 -5.4375,-5.36329 -8.7637,-0.015 -17.51354,-0.015 -26.27734,0 z"
       id="path1739" /><path
       class="st0"
       d="m 362.08471,126.73683 c -0.62367,0.5821 -1.19744,1.11424 -1.7878,1.67968 -2.80224,-2.99346 -5.57123,-5.94539 -8.34849,-8.91393 -1.70465,0.88144 -3.43418,1.06433 -5.21365,0.41574 -1.42191,-0.51554 -2.51122,-1.44682 -3.25129,-2.7606 -1.4884,-2.61935 -0.86479,-5.91215 1.46348,-7.833 2.31167,-1.90415 5.68763,-1.8543 7.97432,0.0998 2.08715,1.7878 3.10158,5.2469 0.89804,8.47321 2.72741,2.91036 5.47142,5.84565 8.26539,8.8391 z m -9.32973,-12.64745 c -0.008,-2.14532 -1.7379,-3.89155 -3.88322,-3.89155 -2.13699,0 -3.88322,1.74623 -3.89982,3.88322 -0.008,2.1703 1.77942,3.95805 3.91647,3.93313 2.16197,-0.025 3.8749,-1.77115 3.86657,-3.9248 z"
       id="path1018"
       inkscape:connector-curvature="0"
       style="fill:#f9f9f9;fill-opacity:1;stroke-width:0.08315239" /></g></g><g
   id="g1026"
   transform="matrix(25.479312,0,0,25.479312,-15719.412,647.07606)"><path
     inkscape:connector-curvature="0"
     style="fill:#3f165b;fill-opacity:1;stroke-width:0.14980702"
     d="m 317.29883,99.64062 c -2.3369,0 -4.1637,1.27249 -5.0625,3.42969 -0.1199,0.2846 -0.34497,0.5389 -0.50977,0.8086 0,9.5127 6.3e-4,19.02563 0.0156,28.52343 0.1648,0.2846 0.37424,0.54025 0.49414,0.83985 0.8838,2.1722 2.6812,3.46093 5.0332,3.46093 8.7937,0.015 17.58716,0.015 26.38086,0 3.0561,-0.015 5.34828,-2.27725 5.36328,-5.31835 0.03,-8.7936 0.03,-17.58716 0,-26.38086 -0.015,-3.086 -2.3365,-5.36329 -5.4375,-5.36329 -8.7637,-0.015 -17.51354,-0.015 -26.27734,0 z"
     id="path1006" /><g
     transform="matrix(0.08397665,0,0,0.08397665,180.02756,-103.43394)"
     id="g1096"
     style="fill:#f9f9f9;fill-opacity:1">
	<path
   style="fill:#f9f9f9;fill-opacity:1"
   inkscape:connector-curvature="0"
   id="path1082"
   d="m 1726.8,2777.1 c -3.9,-1 -6.6,-2.4 -8.8,-3.6 -11.3,-6.5 -18.9,-16.7 -24.4,-28.1 -7.3,-15 -11.7,-26.7 -13.3,-32.9 -1.6,-6.1 -2.2,-10.1 -2.5,-11.7 -1.3,-9.1 -1.8,-20.3 2.2,-29.6 1.2,-2.8 3,-5.4 5.1,-7.6 6,-6.3 8.6,-13.8 9,-22.4 0.7,-13 1.3,-26.1 2.6,-39.1 2.8,-28.2 12.3,-54.1 28.6,-77.3 10.3,-14.7 23.7,-25.6 41.3,-30.7 9.2,-2.7 18.6,-3.2 27.9,-1.6 13.9,2.4 27.7,5.1 41.4,8.6 10.9,2.8 19,10.3 25.9,18.8 12.4,15.1 20.3,32.6 25.1,51.4 1.9,7.4 4,14.8 4.8,22.4 1.4,13.3 1.9,26.6 2.5,40 0.3,7.2 0.1,14.5 0.1,22.6 -0.1,3.3 -0.1,8.1 1.1,13.9 1.4,7 3.6,11.4 5,15 3.9,9.9 3.7,18.6 3.5,27.7 -0.5,20.6 -8,35.3 -10.7,41.3 -5.8,13 -16,21.4 -29.3,26.1 -9.6,3.4 -19.4,5.6 -29.6,5.9 -4.6,0.1 -7.9,-1.4 -10.1,-2 -12,-3.4 -20,-9.6 -28.2,-15.9 -2.8,-2.2 -6.9,-5.5 -11.5,-10 -2.7,1.8 -5.6,4.5 -9.1,6.1 -8.5,3.8 -16.8,8.1 -26.4,9.1 -50.9,-43.6 -77.9,-86.6 -70.4,-98.4 1.3,-2.1 10.6,-13.9 10.7,-13.9 0,0 0,0.1 0,0.1 -0.7,1.2 18.3,11 27.6,22 11,13.1 3.4,22 11.1,37.1 14.5,28.2 57.3,27.4 56.5,37.9 -0.2,3 -9.1,6.5 -26.8,13.4 -15.8,6 -23.1,7.3 -30.9,5.4 z M 1862,2633.7 c 1.6,1.2 -1,6.2 -3.1,15.4 -0.4,1.7 -1.1,3.3 -2,5.7 4.3,-17.8 4.8,-32.8 4.5,-42.8 -0.4,-13.6 -1.4,-37.5 -15.5,-62 -6.1,-10.5 -13.7,-19.5 -23.4,-26.5 -11,-8 -18.9,-9.1 -21.9,-9.4 -4.2,-0.4 -8.6,-0.1 -13.1,1.1 -10.5,2.7 -19.2,9.1 -26.5,16.9 -5.8,6.3 -12.7,12.5 -16,20.1 -10.3,23.9 -15.1,49.3 -16,75.4 -0.1,2.9 0,5.8 0,8.9 13.7,0.2 24.7,5 33.6,14.4 7.9,8.2 13.4,18 18.3,28.1 2.1,4.4 4,8.9 6.4,14.2 0.8,-2.1 1.2,-3.5 1.7,-4.8 3.9,-11.7 9.9,-22.2 17.9,-31.7 10.8,-12.7 23.9,-20.8 40.9,-21.6 3,-0.1 6,0 9.3,0 3.1,-1.9 4.3,-1.8 4.9,-1.4 z m 17.8,-29.7 c -1.8,0.1 -3.2,0 -4.5,0.3 -0.8,0.1 -1.4,0.8 -2.1,1.3 0.7,0.7 1.2,1.7 2.1,2 1.5,0.5 3.2,0.6 5.1,0.9 -0.3,-1.9 -0.4,-3.1 -0.6,-4.5 z m -16.1,131.7 c 0.6,0.2 1.2,0.4 1.8,0.6 0.7,-1.7 1.6,-3.3 2.1,-5 0.2,-0.6 -0.4,-1.4 -0.7,-2.1 -0.8,0.4 -2.2,0.5 -2.4,1.1 -0.4,1.7 -0.5,3.6 -0.8,5.4 z m 18.9,-5.5 c 0.4,-1.4 0.8,-2.5 1,-3.6 0.1,-0.7 -0.1,-1.5 -0.1,-2.2 -0.9,0.2 -2.3,0.2 -2.5,0.7 -0.7,1.7 -1,3.6 -1.5,5.4 0.2,0.1 0.5,0.2 0.7,0.3 0.3,-0.6 0.6,-1.2 1,-1.9 0.8,0.6 1.1,1 1.4,1.3 z"
   class="st0" />
	<path
   style="fill:#f9f9f9;fill-opacity:1"
   inkscape:connector-curvature="0"
   id="path1084"
   d="m 1864.2,2638 c 0.1,0.1 -1.3,3.5 -7.3,16.8 0.5,-1.6 1.1,-3.5 2,-5.7 2.4,-6 5.2,-11.2 5.3,-11.1 z"
   class="st0" />
	<path
   style="fill:#f9f9f9;fill-opacity:1"
   inkscape:connector-curvature="0"
   id="path1086"
   d="m 1879.8,2604 c 0.2,1.4 0.3,2.6 0.5,4.4 -1.9,-0.3 -3.6,-0.4 -5.1,-0.9 -0.8,-0.3 -1.4,-1.3 -2.1,-2 0.7,-0.4 1.4,-1.1 2.1,-1.3 1.4,-0.2 2.7,-0.1 4.6,-0.2 z"
   class="st0" />
	<path
   style="fill:#f9f9f9;fill-opacity:1"
   inkscape:connector-curvature="0"
   id="path1088"
   d="m 1863.7,2735.7 c 0.3,-1.8 0.4,-3.7 0.9,-5.4 0.2,-0.6 1.6,-0.8 2.4,-1.1 0.3,0.7 0.9,1.5 0.7,2.1 -0.5,1.7 -1.4,3.3 -2.1,5 -0.6,-0.2 -1.3,-0.4 -1.9,-0.6 z"
   class="st0" />
	<path
   style="fill:#f9f9f9;fill-opacity:1"
   inkscape:connector-curvature="0"
   id="path1090"
   d="m 1882.6,2730.2 c -0.3,-0.4 -0.7,-0.8 -1.3,-1.4 -0.4,0.7 -0.7,1.3 -1,1.9 -0.2,-0.1 -0.5,-0.2 -0.7,-0.3 0.5,-1.8 0.7,-3.7 1.5,-5.4 0.2,-0.5 1.6,-0.5 2.5,-0.7 0,0.7 0.2,1.5 0.1,2.2 -0.2,1.2 -0.6,2.3 -1.1,3.7 z"
   class="st0" />
	<path
   style="fill:#f9f9f9;fill-opacity:1"
   inkscape:connector-curvature="0"
   id="path1092"
   d="M 1894.3,2633.6"
   class="st0" />
	<path
   style="fill:#f9f9f9;fill-opacity:1"
   inkscape:connector-curvature="0"
   id="path1094"
   d="M 1731.4,2755.8"
   class="st0" />
</g></g><g
   id="g1151"
   transform="matrix(14.734174,0,0,14.734174,-8522.5349,917.62202)"><g
     style="fill:#800080;fill-opacity:1"
     transform="matrix(1.7292663,0,0,1.7292663,-280.93599,-129.29797)"
     id="g1038"><path
       inkscape:connector-curvature="0"
       style="fill:#3f165b;fill-opacity:1;stroke-width:0.14980702"
       d="m 257.29883,99.64062 c -2.3369,0 -4.1637,1.27249 -5.0625,3.42969 -0.1199,0.2846 -0.34497,0.5389 -0.50977,0.8086 0,9.5127 6.3e-4,19.02563 0.0156,28.52343 0.1648,0.2846 0.37424,0.54025 0.49414,0.83985 0.8838,2.1722 2.6812,3.46093 5.0332,3.46093 8.7937,0.015 17.58716,0.015 26.38086,0 3.0561,-0.015 5.34828,-2.27725 5.36328,-5.31835 0.03,-8.7936 0.03,-17.58716 0,-26.38086 -0.015,-3.086 -2.3365,-5.36329 -5.4375,-5.36329 -8.7637,-0.015 -17.51354,-0.015 -26.27734,0 z"
       id="path1009" /><g
       id="g1015"
       transform="matrix(0.60882242,0,0,0.60882242,129.31201,50.044169)"
       style="fill:#f9f9f9;fill-opacity:1"><path
         style="fill:#f9f9f9;fill-opacity:1;stroke-width:0.14980702"
         inkscape:connector-curvature="0"
         id="path1016"
         d="m 248.78725,114.66385 c -4.6441,-0.8389 -9.2881,-1.0636 -13.962,-0.4044 -4.6441,0.6591 -8.9885,2.2171 -13.0632,4.5241 -0.5843,-0.5393 -3.4306,-5.3331 -4.0298,-6.7862 8.4491,-4.9137 13.917,-12.284205 17.2278,-21.677105 4.7189,8.1795 9.318,16.149205 13.932,24.118905 -0.045,0.06 -0.075,0.1348 -0.1048,0.2247 z"
         class="st0" /><path
         style="fill:#f9f9f9;fill-opacity:1;stroke-width:0.14980702"
         inkscape:connector-curvature="0"
         id="path1020"
         d="m 218.70595,121.74975 c 1.2884,-1.2134 3.4755,-2.5917 5.0036,-3.2059 0.1648,0.2247 0.3445,0.4495 0.5093,0.6891 1.7528,2.7415 3.5055,5.483 5.2582,8.2245 0.839,1.3332 0.7041,1.9474 -0.6291,2.7414 -0.6442,0.3745 -1.2884,0.7491 -1.9475,1.1236 -1.4831,0.8389 -1.9475,0.734 -2.8164,-0.7041 -1.3633,-2.2771 -2.7265,-4.5542 -4.0897,-6.8312 -0.4195,-0.6592 -0.8539,-1.3183 -1.2884,-2.0374 z"
         class="st0" /><path
         style="fill:#f9f9f9;fill-opacity:1;stroke-width:0.14980702"
         inkscape:connector-curvature="0"
         id="path1022"
         d="m 220.98305,119.20305 c -0.9887,0.734 -1.9026,1.3932 -2.7864,2.0523 -0.9588,0.7191 -2.0074,0.7341 -3.0861,0.3596 -2.292,-0.779 -3.6852,-3.6254 -2.9512,-5.9174 0.2697,-0.8239 0.7341,-1.4531 1.5431,-1.7977 1.0936,-0.4794 2.1722,-0.9737 3.3407,-1.513 1.3033,2.2621 2.5916,4.4792 3.9399,6.8162 z"
         class="st0" /><path
         style="fill:#f9f9f9;fill-opacity:1;stroke-width:0.14980702"
         inkscape:connector-curvature="0"
         id="path1024"
         d="m 244.47275,105.40585 c -1.2284,-2.1273 -2.4568,-4.2546 -3.6702,-6.366805 1.2583,-0.9288 3.4156,-0.3446 4.4792,1.153505 1.1835,1.6628 0.8539,3.9848 -0.809,5.2133 z"
         class="st0" /></g></g></g><g
   transform="matrix(14.734174,0,0,14.734174,-5241.5115,-589.22402)"
   id="g278"
   style="fill:#000000"><g
     id="g276"
     transform="matrix(1.7292663,0,0,1.7292663,-218.25009,-129.55031)"
     style="fill:#000000"><path
       style="fill:#000000;fill-opacity:1;stroke-width:0.08315239"
       inkscape:connector-curvature="0"
       id="path274"
       d="m 362.08471,126.73683 c -0.62367,0.5821 -1.19744,1.11424 -1.7878,1.67968 -2.80224,-2.99346 -5.57123,-5.94539 -8.34849,-8.91393 -1.70465,0.88144 -3.43418,1.06433 -5.21365,0.41574 -1.42191,-0.51554 -2.51122,-1.44682 -3.25129,-2.7606 -1.4884,-2.61935 -0.86479,-5.91215 1.46348,-7.833 2.31167,-1.90415 5.68763,-1.8543 7.97432,0.0998 2.08715,1.7878 3.10158,5.2469 0.89804,8.47321 2.72741,2.91036 5.47142,5.84565 8.26539,8.8391 z m -9.32973,-12.64745 c -0.008,-2.14532 -1.7379,-3.89155 -3.88322,-3.89155 -2.13699,0 -3.88322,1.74623 -3.89982,3.88322 -0.008,2.1703 1.77942,3.95805 3.91647,3.93313 2.16197,-0.025 3.8749,-1.77115 3.86657,-3.9248 z"
       class="st0" /></g></g></svg>