<?xml version="1.0" encoding="UTF-8" standalone="no"?>
<!-- Created with Inkscape (http://www.inkscape.org/) -->

<svg
   xmlns:dc="http://purl.org/dc/elements/1.1/"
   xmlns:cc="http://creativecommons.org/ns#"
   xmlns:rdf="http://www.w3.org/1999/02/22-rdf-syntax-ns#"
   xmlns:svg="http://www.w3.org/2000/svg"
   xmlns="http://www.w3.org/2000/svg"
   xmlns:sodipodi="http://sodipodi.sourceforge.net/DTD/sodipodi-0.dtd"
   xmlns:inkscape="http://www.inkscape.org/namespaces/inkscape"
   width="210mm"
   height="297mm"
   viewBox="0 0 210 297"
   version="1.1"
   id="svg8"
   sodipodi:docname="Icones Web.svg"
   inkscape:version="0.92.4 (5da689c313, 2019-01-14)">
  <defs
     id="defs2" />
  <sodipodi:namedview
     id="base"
     pagecolor="#ffffff"
     bordercolor="#666666"
     borderopacity="1.0"
     inkscape:pageopacity="0.0"
     inkscape:pageshadow="2"
     inkscape:zoom="0.35"
     inkscape:cx="4295.1171"
     inkscape:cy="-817.93317"
     inkscape:document-units="mm"
     inkscape:current-layer="layer1"
     showgrid="false"
     inkscape:window-width="1920"
     inkscape:window-height="1013"
     inkscape:window-x="-9"
     inkscape:window-y="-9"
     inkscape:window-maximized="1" />
  <metadata
     id="metadata5">
    <rdf:RDF>
      <cc:Work
         rdf:about="">
        <dc:format>image/svg+xml</dc:format>
        <dc:type
           rdf:resource="http://purl.org/dc/dcmitype/StillImage" />
      </cc:Work>
    </rdf:RDF>
  </metadata>
  <g
     inkscape:label="Camada 1"
     inkscape:groupmode="layer"
     id="layer1">
    <path
       style="fill:#000000;stroke-width:0.26458332"
       d="m 345.91025,236.89739 c -3.96407,-0.93393 -6.61196,-4.38267 -6.60742,-8.60585 l 0.002,-1.88228 -10.55695,-6.15447 -10.55696,-6.15447 -0.98803,0.68232 c -2.40041,1.65769 -5.46717,2.08483 -8.20097,1.14223 -1.85079,-0.6381 -4.05527,-2.66936 -5.01242,-4.61847 -0.63432,-1.2917 -0.73894,-1.82489 -0.73673,-3.75446 0.004,-3.18488 1.04106,-5.29739 3.53667,-7.20187 1.04129,-0.79464 3.86805,-1.79397 5.07455,-1.79397 1.48652,0 3.40738,0.57964 4.90053,1.47876 l 1.51982,0.91519 10.3423,-6.02974 10.3423,-6.02973 0.14814,-2.5135 c 0.12369,-2.0987 0.27381,-2.74439 0.90965,-3.91266 0.94875,-1.74314 2.40567,-3.07873 4.33441,-3.97343 2.11982,-0.98334 5.0904,-0.98195 7.21465,0.003 1.89861,0.88067 3.52529,2.5046 4.41963,4.41217 0.9412,2.00753 0.99702,5.33651 0.12142,7.24037 -1.44152,3.13434 -4.67351,5.2754 -7.99474,5.29619 -2.08931,0.0131 -3.38856,-0.35395 -5.12697,-1.44834 l -1.26547,-0.79666 -3.62932,2.09822 c -1.99612,1.15401 -6.69238,3.87761 -10.43613,6.05243 l -6.80682,3.95423 0.004,2.24896 0.004,2.24895 10.58804,6.12371 10.58804,6.12371 1.29931,-0.87437 c 1.2667,-0.85243 3.22307,-1.45117 4.74165,-1.45117 0.41407,0 1.52779,0.23935 2.47494,0.5319 2.18396,0.67456 4.09582,2.32877 5.13335,4.44158 0.63507,1.29323 0.74093,1.83014 0.74093,3.75777 0,1.92763 -0.10586,2.46454 -0.74093,3.75777 -1.77962,3.62399 -5.90254,5.5992 -9.78037,4.6856 z"
       id="path826"
       inkscape:connector-curvature="0" />
    <path
       style="fill:#000000;stroke-width:0.06081162"
       d="m 391.81915,232.85654 c -2.60478,-0.25016 -4.79907,-2.12798 -5.51327,-4.71811 l -0.16649,-0.60378 v -13.53058 -13.53059 l 0.16649,-0.60377 c 0.66807,-2.42282 2.60087,-4.20458 5.06332,-4.66761 0.61359,-0.11538 5.11213,-0.1127 5.74669,0.003 2.88386,0.52773 4.96873,2.82956 5.23287,5.7774 0.0423,0.47232 0.0562,4.96346 0.0419,13.53804 -0.0235,14.04496 0.003,13.05849 -0.37276,14.13181 -0.73085,2.09026 -2.5316,3.65301 -4.74994,4.12215 -0.49702,0.10511 -4.56906,0.1661 -5.44877,0.0816 z m 4.62874,-5.48912 c 0.15986,-0.081 0.32011,-0.22362 0.39296,-0.34966 0.12227,-0.21155 0.12311,-0.29008 0.13891,-12.95378 l 0.0159,-12.74094 -0.13753,-0.27275 c -0.10073,-0.19979 -0.21072,-0.30993 -0.41117,-0.41173 -0.271,-0.13764 -0.29323,-0.13882 -2.2913,-0.12163 -1.93771,0.0167 -2.02443,0.0224 -2.18921,0.14458 -0.0944,0.07 -0.23315,0.21768 -0.30841,0.32825 l -0.13682,0.20104 v 12.79488 c 0,13.85758 -0.0221,12.94305 0.32074,13.26325 0.0824,0.077 0.22869,0.16357 0.32503,0.19241 0.0964,0.0289 1.03823,0.0548 2.09307,0.0577 1.87361,0.005 1.92411,0.002 2.18782,-0.1316 z m 16.80185,5.48142 c -2.95879,-0.20026 -6.06014,-1.0835 -8.34996,-2.37801 l -0.69933,-0.39536 -0.0153,-16.00202 -0.0153,-16.00203 1.44439,-10e-4 c 1.62399,-0.002 1.60556,0.002 2.30473,-0.49358 0.7182,-0.50954 1.90872,-1.59858 2.34874,-2.14854 0.9009,-1.126 2.5101,-3.46903 3.96175,-5.76841 0.96891,-1.53473 1.77606,-3.22695 2.1361,-4.47841 0.34021,-1.18254 0.34313,-1.21746 0.38433,-4.59306 l 0.0386,-3.16221 0.17718,-0.42568 c 0.31004,-0.74489 0.64821,-1.24612 1.25189,-1.85555 0.60993,-0.61574 0.91597,-0.8267 1.54006,-1.0616 0.64512,-0.24283 1.28126,-0.34556 2.13905,-0.34545 2.23468,3e-4 4.28325,0.86496 5.75339,2.42841 2.67718,2.84708 3.07223,7.50661 1.17922,13.90869 -0.14834,0.5017 -0.48736,1.58785 -0.75338,2.41366 -0.81545,2.53145 -0.85259,2.77888 -0.51133,3.40589 0.32185,0.59135 -0.35168,0.53521 6.42661,0.53573 3.80323,2.3e-4 6.10986,0.0232 6.36182,0.0632 0.59468,0.0944 1.31151,0.32919 1.85116,0.60626 1.58829,0.81548 2.69986,2.20858 3.17738,3.98215 0.14926,0.55434 0.16371,0.7049 0.16347,1.70272 -4.6e-4,1.55757 -0.1057,2.1826 -0.75447,4.4778 l -0.19998,0.70747 0.23158,0.47835 c 0.76389,1.57785 1.0208,2.93033 0.79831,4.20256 -0.16398,0.93766 -0.43075,1.58536 -1.15861,2.81305 -0.49411,0.8334 -0.50288,0.88005 -0.30912,1.64306 0.1986,0.7821 0.26331,1.80245 0.15634,2.4655 -0.22939,1.42201 -0.99785,2.70818 -2.52239,4.22172 l -0.76475,0.75923 v 0.72285 c 0,1.65963 -0.38766,3.04211 -1.20462,4.29593 -0.3227,0.49526 -1.31109,1.46008 -1.86636,1.82186 -1.26462,0.82393 -2.75456,1.30263 -4.54879,1.46146 -0.82638,0.0731 -19.06264,0.0674 -20.15237,-0.006 z"
       id="path839"
       inkscape:connector-curvature="0" />
    <path
       style="fill:#000000;stroke-width:0.16933332"
       d="m 561.28128,230.71467 v -43.34686 h 30.988 30.988 v 43.35933 c 0,23.84762 -0.0571,43.3267 -0.127,43.28684 -0.0699,-0.0399 -6.8326,-2.72351 -15.02833,-5.96366 -9.30796,-3.67987 -15.18736,-5.9175 -15.66334,-5.96128 -0.73536,-0.0676 -6.4631,2.13113 -30.35299,11.65194 l -0.80434,0.32055 z m 23.74386,16.82526 c 0.25329,-0.12733 1.98684,-1.3426 3.85233,-2.70061 l 3.39181,-2.46912 3.39181,2.46912 c 1.86549,1.35801 3.63536,2.59505 3.93304,2.74899 0.68882,0.3562 2.0952,0.36014 2.77661,0.008 1.1434,-0.59128 1.86832,-1.97185 1.69591,-3.22976 -0.0529,-0.38601 -0.67803,-2.48255 -1.38916,-4.65896 -0.71113,-2.17642 -1.22351,-4.00372 -1.13863,-4.06067 1.64304,-1.10237 6.91011,-5.07588 7.22609,-5.4514 1.24211,-1.47616 0.76534,-3.84506 -0.95927,-4.76634 -0.68919,-0.36816 -0.91521,-0.38678 -5.32622,-0.43886 l -4.60648,-0.0544 -1.35854,-4.1934 c -0.7472,-2.30636 -1.51994,-4.39857 -1.71719,-4.64934 -1.16602,-1.48235 -3.88992,-1.48235 -5.05594,0 -0.19725,0.25077 -0.96999,2.34298 -1.71718,4.64934 l -1.35855,4.1934 -4.60648,0.0544 c -4.41052,0.0521 -4.63709,0.0707 -5.32596,0.43873 -1.73514,0.92691 -2.20912,3.28141 -0.95953,4.76647 0.31598,0.37552 5.58305,4.34903 7.22609,5.4514 0.0849,0.0569 -0.4275,1.88425 -1.13863,4.06067 -1.50167,4.59588 -1.60245,5.11164 -1.20314,6.1572 0.30843,0.80762 1.21783,1.72994 1.83546,1.86154 0.89505,0.19072 1.08175,0.20598 1.56322,0.12782 0.2794,-0.0454 0.71524,-0.18666 0.96853,-0.31399 z m -0.2671,-5.77379 c 0.41037,-1.28058 1.1181,-3.44804 1.57274,-4.81657 l 0.82661,-2.48823 -4.15038,-3.0151 -4.15038,-3.0151 5.14124,-0.0447 5.14125,-0.0447 1.52275,-4.73827 c 0.83751,-2.60605 1.56084,-4.73827 1.60741,-4.73827 0.0466,0 0.76991,2.13222 1.60742,4.73827 l 1.52275,4.73827 5.14124,0.0447 5.14124,0.0447 -4.1431,3.00982 -4.14311,3.00981 1.55999,4.77952 c 0.858,2.62873 1.54014,4.80447 1.51588,4.83497 -0.0242,0.0305 -1.87916,-1.28137 -4.122,-2.91527 l -4.07789,-2.97072 -4.06952,2.9576 c -2.23823,1.62668 -4.09668,2.9576 -4.12988,2.9576 -0.0332,0 0.27538,-1.04775 0.68574,-2.32833 z"
       id="path863"
       inkscape:connector-curvature="0" />
    <path
       sodipodi:type="star"
       style="fill:#000000;fill-opacity:1;stroke:none;stroke-width:0.66499996;stroke-miterlimit:4;stroke-dasharray:none;stroke-dashoffset:0;stroke-opacity:1"
       id="path894"
       sodipodi:sides="5"
       sodipodi:cx="779.62518"
       sodipodi:cy="368.36093"
       sodipodi:r1="39.054291"
       sodipodi:r2="17.183887"
       sodipodi:arg1="1.0397662"
       sodipodi:arg2="1.6680848"
       inkscape:flatsided="false"
       inkscape:rounded="0"
       inkscape:randomized="0"
       d="m 799.40313,402.03689 -21.44711,-16.57333 -24.24686,12.11376 9.13466,-25.51885 -19.01357,-19.31678 27.09264,0.80182 12.49583,-24.05219 7.60951,26.0144 26.73642,4.45171 -22.3897,15.27597 z"
       inkscape:transform-center-x="0.1313507"
       inkscape:transform-center-y="-3.6042235"
       transform="rotate(-6.1977742,779.62519,368.36094)" />
    <path
       style="fill:#000000;stroke-width:0.13986498"
       d="m 536.66086,484.02791 c -1.42824,-0.16349 -2.84962,-0.4656 -4.00225,-0.85065 -1.1229,-0.37512 -1.23643,-0.60934 -0.75247,-1.55225 0.41575,-0.81002 1.48231,-1.87523 4.26519,-4.25978 2.66765,-2.28581 5.63324,-5.19783 6.81671,-6.69358 2.25713,-2.85272 3.87574,-6.10881 4.46021,-8.97247 l 0.17879,-0.87597 -1.88259,-1.79568 c -8.16342,-7.78659 -13.14228,-17.2631 -14.63316,-27.85207 -0.18769,-1.33301 -0.24671,-2.69521 -0.24845,-5.73447 -0.002,-3.46692 0.0401,-4.26853 0.32329,-6.15406 2.31391,-15.40706 12.32848,-28.71101 27.45517,-36.47306 6.40914,-3.28876 13.3231,-5.34712 21.09797,-6.28109 2.54781,-0.30606 10.49665,-0.35116 13.07739,-0.0742 12.02653,1.29067 22.61914,5.54856 31.53956,12.6779 2.26383,1.80929 5.98391,5.53527 7.82965,7.842 5.57941,6.97307 8.98856,14.97644 10.00907,23.49731 0.3066,2.5603 0.31268,7.44169 0.0122,9.94335 -1.7571,14.63598 -10.39533,27.47121 -24.06971,35.76425 -5.90964,3.58396 -13.02048,6.26298 -20.08643,7.56758 -3.98019,0.73488 -6.6943,0.96644 -11.38853,0.97166 -4.50614,0.005 -6.88125,-0.16818 -10.33144,-0.7534 l -1.55709,-0.2641 -2.09677,0.99464 c -6.15325,2.91891 -12.78304,5.44988 -18.60324,7.10192 -6.852,1.94491 -13.00208,2.73118 -17.41319,2.22623 z"
       id="path1389"
       inkscape:connector-curvature="0" />
    <path
       style="fill:#000000;stroke-width:0.24660194"
       d="m 660.5688,621.28458 c -14.53245,-1.355 -28.89453,-7.57875 -42.53883,-18.43402 -3.43106,-2.72971 -11.78605,-10.97157 -13.65385,-13.46896 -1.97321,-2.63835 -1.97321,-3.06534 0,-5.70369 1.8678,-2.49739 10.22279,-10.73925 13.65385,-13.46896 13.81127,-10.98811 28.02725,-17.10082 42.90874,-18.45028 13.363,-1.21175 28.10636,2.51791 41.61665,10.52786 7.04156,4.17479 12.71246,8.62918 19.06973,14.97892 4.60976,4.60429 7.12307,7.55325 7.40926,8.69353 0.32029,1.27613 -0.63775,2.76409 -4.41632,6.85912 -18.26265,19.79219 -42.33508,30.49111 -64.04923,28.46648 z m 10.00336,-8.2548 c 19.44233,-3.39046 28.73377,-25.8953 17.35038,-42.02443 -9.58901,-13.58668 -29.15129,-15.24651 -40.92535,-3.47245 -10.51286,10.51286 -10.51286,27.48085 0,37.99371 6.17608,6.17608 15.02855,8.99354 23.57497,7.50317 z m -6.83946,-8.27512 c -4.08892,-0.53797 -7.81408,-2.36794 -10.70485,-5.25871 -7.16883,-7.16883 -7.16883,-18.76356 0,-25.93239 7.16883,-7.16883 18.76356,-7.16883 25.93239,0 6.98401,6.98401 7.17945,18.25703 0.4427,25.53354 -1.44679,1.5627 -3.9732,3.38019 -5.85696,4.21347 -2.77666,1.22825 -6.87261,1.831 -9.81328,1.44409 z m 5.40421,-4.53898 c 2.64977,-0.62476 4.68022,-1.77885 6.72222,-3.82084 2.77947,-2.77948 4.38927,-6.61825 4.12847,-9.84486 -0.0904,-1.11854 -0.23526,-1.4498 -0.88962,-2.03447 -1.68671,-1.50708 -4.22331,-0.58585 -4.59528,1.66889 -0.48182,2.92061 -0.71344,3.6386 -1.60213,4.96636 -0.60728,0.9073 -1.45192,1.74948 -2.33722,2.33038 -1.27984,0.8398 -2.05554,1.08559 -4.91466,1.55727 -0.57477,0.0948 -1.24466,0.44148 -1.66456,0.86138 -1.26513,1.26513 -0.7713,3.78037 0.87262,4.44459 0.80413,0.3249 2.58322,0.27141 4.28016,-0.1287 z"
       id="path4531"
       inkscape:connector-curvature="0" />
    <path
       style="fill:#000000;stroke-width:0.20511377"
       d="m 1006.1239,595.77077 v -12.71706 h -4.41 -4.40992 v -5.12784 -5.12785 h 4.40992 4.41 v -4.99247 c 0,-4.32134 0.055,-5.21058 0.4114,-6.61493 0.6244,-2.46251 1.5091,-4.08988 3.0592,-5.62762 2.6327,-2.61165 5.1994,-3.48146 10.2734,-3.48146 1.7696,0 4.0639,0.06 5.0987,0.13352 l 1.8813,0.13352 -0.055,4.63537 -0.054,4.63534 -3.7947,0.10261 c -4.4952,0.12152 -5.099,0.31652 -5.9198,1.91151 -0.4543,0.88251 -0.4971,1.24606 -0.5962,5.05776 l -0.1069,4.10688 h 5.0549 c 4.5748,0 5.055,0.0325 5.055,0.34078 0,0.38685 -0.9636,8.22883 -1.1363,9.24831 l -0.113,0.6666 h -4.4007 -4.4006 v 12.71707 12.71705 h -5.1279 -5.1278 z"
       id="path4556"
       inkscape:connector-curvature="0" />
    <path
       style="fill:#000000;stroke-width:0.29502439"
       d="m 936.27909,609.19346 c -4.432,-0.57445 -8.83267,-2.00312 -13.22843,-4.29465 l -2.40785,-1.2552 3.68782,-0.18811 c 5.60448,-0.2859 9.36444,-1.39491 13.93493,-4.11014 2.32276,-1.37992 2.32923,-1.35231 -0.47346,-2.01624 -2.36023,-0.55912 -4.65646,-1.84019 -6.42036,-3.58194 -1.47443,-1.45596 -3.20578,-4.15221 -3.20578,-4.99249 0,-0.17926 0.82035,-0.3065 1.99138,-0.30886 1.09531,-0.002 2.30537,-0.0881 2.68906,-0.19076 0.60904,-0.16305 0.4856,-0.27301 -0.97333,-0.86654 -1.7833,-0.72552 -3.93536,-2.18899 -5.24967,-3.56983 -1.39192,-1.46247 -3.08524,-5.10056 -3.32152,-7.13622 -0.11741,-1.01197 -0.15845,-1.89503 -0.0914,-1.96236 0.0669,-0.0674 0.7783,0.12464 1.57991,0.42659 0.80173,0.30194 2.05505,0.64677 2.78518,0.76627 l 1.32759,0.21728 -1.7067,-1.79477 c -2.96705,-3.12013 -4.1664,-6.76734 -3.71057,-11.28297 0.10816,-1.06859 0.49052,-2.62708 0.85023,-3.46331 l 0.65409,-1.52043 2.98912,2.84296 c 3.51298,3.34133 6.17439,5.28389 9.62704,7.02703 4.46779,2.2556 8.72618,3.50609 14.01588,4.11581 l 1.47733,0.17027 -0.10481,-2.31384 c -0.25948,-5.71348 2.7486,-10.70667 7.91877,-13.14446 1.68529,-0.79464 2.29912,-0.91776 5.06579,-1.01613 3.8621,-0.13733 5.99219,0.46926 8.64702,2.46246 0.97043,0.72852 2.06518,1.32459 2.43282,1.32459 0.82168,0 3.73386,-0.97965 6.20248,-2.0865 1.01414,-0.4547 1.84396,-0.7649 1.84396,-0.68932 0,0.74598 -2.15328,4.04398 -3.55646,5.44712 -1.57412,1.57412 -1.67882,1.74889 -0.95025,1.58601 1.11729,-0.2498 5.12646,-1.337 5.59891,-1.51832 0.21063,-0.0808 0.38291,-0.0202 0.38291,0.13467 0,0.47847 -3.68347,4.59941 -4.94671,5.53432 l -1.19567,0.88485 -0.19146,2.95046 c -0.67996,10.48376 -4.28593,19.08276 -10.92975,26.06433 -5.61295,5.89823 -12.81296,9.73947 -20.77288,11.08234 -2.5625,0.43232 -9.77533,0.58876 -12.26524,0.26603 z"
       id="path4580"
       inkscape:connector-curvature="0" />
    <path
       style="fill:#000000;stroke-width:0.26458332"
       d="m 1059.5746,609.80597 c -2.1101,-0.12317 -4.5509,-0.41527 -5.424,-0.64911 -5.9399,-1.59085 -10.0479,-5.69754 -11.657,-11.65325 -1.0988,-4.06714 -1.1022,-30.29173 0,-34.39583 1.5749,-5.88755 5.7825,-10.09067 11.6615,-11.64882 3.7132,-0.98415 27.9694,-1.19452 32.7038,-0.28364 7.45,1.43333 11.7739,5.67889 13.3817,13.13921 0.4304,1.99721 0.4812,3.68472 0.4812,15.99116 0,12.30645 -0.051,13.99397 -0.4812,15.99117 -1.598,7.41454 -5.873,11.64432 -13.2772,13.13649 -2.2604,0.45556 -21.4828,0.71712 -27.3843,0.37262 z m 27.6375,-5.92932 c 2.2734,-0.67073 3.4857,-1.35748 4.8203,-2.73068 1.5731,-1.6186 2.4501,-3.4341 2.9026,-6.00861 0.5395,-3.0697 0.5395,-26.59363 0,-29.66333 -0.453,-2.5771 -1.4012,-4.53653 -2.94,-6.07534 -1.37,-1.36999 -2.5497,-1.99507 -5.0361,-2.66847 -1.71,-0.46315 -2.9374,-0.50154 -16.0073,-0.50077 l -14.1552,8.5e-4 -2.1166,0.72075 c -3.5921,1.22314 -5.6477,3.36566 -6.7956,7.08277 -0.6086,1.9708 -0.6128,2.08212 -0.6128,16.27187 0,14.18975 0,14.30108 0.6128,16.27188 1.3859,4.48801 4.3508,6.90834 9.41,7.68159 0.7449,0.11385 7.4265,0.17899 14.8481,0.14475 11.9812,-0.0553 13.6704,-0.11438 15.0698,-0.52726 z m -19.6705,-8.75954 c -2.8364,-0.79485 -4.8254,-1.96211 -6.936,-4.07054 -3.0957,-3.09246 -4.4706,-6.39589 -4.4706,-10.74088 0,-4.34441 1.3747,-7.64766 4.4706,-10.74188 3.299,-3.29725 6.952,-4.68373 11.6118,-4.40716 8.0032,0.47502 14.1791,7.07341 14.1791,15.14904 0,6.52728 -4.0519,12.21413 -10.3034,14.46089 -2.0696,0.74377 -6.5001,0.92538 -8.5515,0.35053 z m 7.5331,-5.79165 c 1.9763,-0.90476 3.0827,-1.80689 4.1842,-3.41175 2.3401,-3.4095 2.3401,-7.80653 0,-11.21603 -1.1096,-1.61656 -2.1962,-2.49722 -4.2762,-3.46576 -1.2766,-0.5944 -1.8751,-0.70548 -3.7694,-0.69959 -1.9591,0.006 -2.4751,0.11302 -3.9687,0.82227 -2.1858,1.0379 -3.8202,2.66841 -4.8619,4.85005 -0.7302,1.52942 -0.8211,1.98339 -0.8211,4.10104 0,2.11766 0.091,2.57163 0.8211,4.10105 2.3378,4.89621 7.9719,7.07969 12.692,4.91872 z m 10.2405,-21.75403 c -1.134,-0.55915 -2.0493,-2.41211 -1.8131,-3.67081 0.5779,-3.08041 4.6608,-4.02234 6.3921,-1.47464 0.7111,1.04657 0.8395,2.64669 0.2981,3.71657 -0.8231,1.62681 -3.1143,2.29806 -4.8771,1.42888 z"
       id="path4593"
       inkscape:connector-curvature="0" />
  </g>
</svg>
