<svg id="Camada_1" data-name="Camada 1" xmlns="http://www.w3.org/2000/svg" viewBox="0 0 553.96 626.08"><title>porta</title><path d="M631-16c7.54,2.5,15.57,4,22.52,7.66,27.18,14.18,40.31,37.15,40.31,67.71q0,131.49,0,263,0,106.23,0,212.47c0,25.75-9.71,46.61-30.62,61.84a66.58,66.58,0,0,1-39.64,13.26c-113.65.12-227.3.34-341-.08-37.25-.14-70.39-30.69-70.31-73.39,0-17.66,0-35.33,0-53,0-20.33.07-40.66-.07-61,0-3.75.83-5.28,5-5.19,12.82.27,25.66.09,38.49.11,1.3,0,2.61.19,4.59.34v6q0,55,0,110c0,18.61,9.4,28.12,27.9,28.13q165,0,330,0c18.07,0,27.65-9.73,27.65-27.91q0-237,0-473.94c0-18.12-9.64-27.81-27.75-27.81q-164.73,0-329.46,0c-18.95,0-28.31,9.36-28.31,28.21q0,54.74,0,109.48V176a25.68,25.68,0,0,1-3.68.57c-13.33,0-26.66-.08-40,.06-3.21,0-4.39-.88-4.38-4.21.11-39-.42-78,.27-117,.64-36.18,24.37-63.41,59.76-70.45A16,16,0,0,0,275-16Z" transform="translate(-139.9 16)"/><path d="M308.52,224.89c0-2.53,0-4.65,0-6.76.17-19.82.16-39.65.69-59.47a27,27,0,0,1,3.66-12.21c4.64-8.07,15.89-9.37,22.93-3.27l102.26,88.55q35.65,30.87,71.28,61.77l0,0a4.5,4.5,0,0,1,0,6.77c-5.32,4.66-10.45,9.15-15.59,13.62q-43.33,37.63-86.7,75.25-35.82,31.05-71.74,62c-7.06,6.08-20.11,2.5-23.53-7.06a60.2,60.2,0,0,1-3.15-18.49c-.41-16.66-.14-33.33-.14-50v-6.51h-6.37c-44.66,0-89.33-.42-134,.19-18.92.26-28.56-12.49-28.27-28.43.56-30.15.11-60.32.19-90.49,0-12.85,7.39-22.55,18.85-24.92a46.45,46.45,0,0,1,9.45-.56q66.74,0,133.49,0Z" transform="translate(-139.9 16)"/></svg>