<svg id="Camada_1" data-name="Camada 1" xmlns="http://www.w3.org/2000/svg" viewBox="0 0 509 484"><defs><style>.cls-1{fill:none;stroke:#1d1d1b;stroke-miterlimit:10;}</style></defs><title>THALIA</title><polyline class="cls-1" points="0.5 283 0.5 483.5 508.5 483.5 508.5 0.5 372.02 0.5"/><line class="cls-1" x1="372.02" y1="0.5" x2="369.09" y2="0.5"/><polyline class="cls-1" points="0.5 159.54 0.5 0.5 212.21 0.5"/><ellipse class="cls-1" cx="101.17" cy="319.82" rx="26.85" ry="12.28" transform="translate(-204.5 61.82) rotate(-33.58)"/><ellipse class="cls-1" cx="382.01" cy="133.39" rx="26.85" ry="12.28" transform="translate(-54.53 186.03) rotate(-33.58)"/><ellipse class="cls-1" cx="139.38" cy="212.84" rx="26.85" ry="12.28" transform="translate(-138.96 65.1) rotate(-33.58)"/><ellipse class="cls-1" cx="269.6" cy="126.4" rx="26.85" ry="12.28" transform="translate(-69.42 122.7) rotate(-33.58)"/><polyline class="cls-1" points="0.5 158.61 0.5 0.5 217.88 0.5"/><line class="cls-1" x1="270.92" y1="0.5" x2="217.88" y2="0.5"/><line class="cls-1" x1="0.5" y1="158.61" x2="0.5" y2="183.6"/><line class="cls-1" x1="368.23" y1="0.5" x2="352.85" y2="0.5"/><line class="cls-1" x1="270.92" y1="0.5" x2="352.85" y2="0.5"/><line class="cls-1" x1="0.5" y1="183.6" x2="0.5" y2="310.06"/><polyline class="cls-1" points="0.5 310.06 0.5 483.5 508.5 483.5 508.5 0.5 368.23 0.5"/><line class="cls-1" x1="508.5" y1="483.5" x2="256.33" y2="243.74"/><line class="cls-1" x1="253.98" y1="241.5" x2="256.33" y2="243.74"/><line class="cls-1" x1="231.72" y1="259.97" x2="299.54" y2="483.5"/><line class="cls-1" x1="230.73" y1="256.7" x2="231.72" y2="259.97"/><path class="cls-1" d="M298.48,289c41.95-31.19,64.48-70.5,50.87-91-14.67-22.1-65.73-14-114,18.06s-75.58,76-60.91,98.09c13.33,20.09,56.75,15.22,100.84-9.93" transform="translate(-44.5 -47.5)"/><path class="cls-1" d="M426.26,65.68a52,52,0,0,1,4.71,6c32.83,49.45-25.15,146.12-130.14,219.52" transform="translate(-44.5 -47.5)"/><path class="cls-1" d="M276.22,307.47c-92,57.08-185.71,76.41-231.22,50.09" transform="translate(-44.5 -47.5)"/><path class="cls-1" d="M315.42,48c-45,9.39-97.26,31.67-148.2,65.48C113.37,149.23,70.83,191.34,45,231.1" transform="translate(-44.5 -47.5)"/><path class="cls-1" d="M426.26,65.68C419,57.62,409.19,51.76,397.35,48" transform="translate(-44.5 -47.5)"/><path class="cls-1" d="M426.26,65.68A50.8,50.8,0,0,0,422.53,59a52.87,52.87,0,0,0-9.8-11" transform="translate(-44.5 -47.5)"/><path class="cls-1" d="M45,206.11c26.21-36,65.43-73.26,113.78-105.35C193.61,77.64,229.06,59.91,262.38,48" transform="translate(-44.5 -47.5)"/></svg>