<svg xmlns="http://www.w3.org/2000/svg" xmlns:xlink="http://www.w3.org/1999/xlink" viewBox="0 0 1024 768"><defs><style>.a{clip-path:url(#dv);}.b{opacity:0.6;}.c{fill:#646e74;stroke:#646e74;opacity:0.8;}.d,.i,.j,.s{fill:#fff;}.d{font-size:30px;}.d,.f,.g,.h,.k{font-family:Helvetica;}.e,.l{fill:#beb3b3;stroke:#beb3b3;}.e{opacity:0.49;}.f,.o,.q{fill:none;}.f,.h{stroke:#fff;opacity:0.75;}.f,.g,.h{stroke-width:10px;font-size:80px;}.g,.m{fill:#5f9ea0;stroke:#5f9ea0;}.g{opacity:0.88;}.i,.k,.o{stroke:#707070;}.k,.r{fill:#707070;}.k,.l,.m,.n{stroke-width:5px;}.k{font-size:46px;}.n{fill:#92581f;stroke:#92581f;}.p,.r{stroke:none;}.t{filter:url(#ds);}.u{filter:url(#dq);}.v{filter:url(#do);}.w{filter:url(#dm);}.x{filter:url(#dk);}.y{filter:url(#di);}.z{filter:url(#dg);}.aa{filter:url(#de);}.ab{filter:url(#dc);}.ac{filter:url(#da);}.ad{filter:url(#cy);}.ae{filter:url(#cw);}.af{filter:url(#cu);}.ag{filter:url(#cs);}.ah{filter:url(#cq);}.ai{filter:url(#co);}.aj{filter:url(#cm);}.ak{filter:url(#ck);}.al{filter:url(#ci);}.am{filter:url(#cg);}.an{filter:url(#ce);}.ao{filter:url(#cc);}.ap{filter:url(#ca);}.aq{filter:url(#by);}.ar{filter:url(#bw);}.as{filter:url(#bu);}.at{filter:url(#bs);}.au{filter:url(#bq);}.av{filter:url(#bo);}.aw{filter:url(#bm);}.ax{filter:url(#bk);}.ay{filter:url(#bi);}.az{filter:url(#bg);}.ba{filter:url(#be);}.bb{filter:url(#bc);}.bc{filter:url(#ba);}.bd{filter:url(#ay);}.be{filter:url(#aw);}.bf{filter:url(#au);}.bg{filter:url(#as);}.bh{filter:url(#aq);}.bi{filter:url(#ao);}.bj{filter:url(#am);}.bk{filter:url(#ak);}.bl{filter:url(#ai);}.bm{filter:url(#ag);}.bn{filter:url(#ae);}.bo{filter:url(#ac);}.bp{filter:url(#aa);}.bq{filter:url(#y);}.br{filter:url(#w);}.bs{filter:url(#u);}.bt{filter:url(#s);}.bu{filter:url(#q);}.bv{filter:url(#o);}.bw{filter:url(#m);}.bx{filter:url(#k);}.by{filter:url(#i);}.bz{filter:url(#g);}.ca{filter:url(#e);}.cb{filter:url(#c);}.cc{filter:url(#a);}</style><filter id="a" x="310.105" y="68" width="83" height="132" filterUnits="userSpaceOnUse"><feOffset dy="3" input="SourceAlpha"/><feGaussianBlur stdDeviation="3" result="b"/><feFlood flood-opacity="0.549"/><feComposite operator="in" in2="b"/><feComposite in="SourceGraphic"/></filter><filter id="c" x="341.62" y="68" width="83" height="132" filterUnits="userSpaceOnUse"><feOffset dy="3" input="SourceAlpha"/><feGaussianBlur stdDeviation="3" result="d"/><feFlood flood-opacity="0.549"/><feComposite operator="in" in2="d"/><feComposite in="SourceGraphic"/></filter><filter id="e" x="456.51" y="68" width="83" height="132" filterUnits="userSpaceOnUse"><feOffset dy="3" input="SourceAlpha"/><feGaussianBlur stdDeviation="3" result="f"/><feFlood flood-opacity="0.549"/><feComposite operator="in" in2="f"/><feComposite in="SourceGraphic"/></filter><filter id="g" x="488.025" y="68" width="83" height="132" filterUnits="userSpaceOnUse"><feOffset dy="3" input="SourceAlpha"/><feGaussianBlur stdDeviation="3" result="h"/><feFlood flood-opacity="0.549"/><feComposite operator="in" in2="h"/><feComposite in="SourceGraphic"/></filter><filter id="i" x="602.915" y="68" width="83" height="132" filterUnits="userSpaceOnUse"><feOffset dy="3" input="SourceAlpha"/><feGaussianBlur stdDeviation="3" result="j"/><feFlood flood-opacity="0.549"/><feComposite operator="in" in2="j"/><feComposite in="SourceGraphic"/></filter><filter id="k" x="634.43" y="68" width="83" height="132" filterUnits="userSpaceOnUse"><feOffset dy="3" input="SourceAlpha"/><feGaussianBlur stdDeviation="3" result="l"/><feFlood flood-opacity="0.549"/><feComposite operator="in" in2="l"/><feComposite in="SourceGraphic"/></filter><filter id="m" x="749.32" y="68" width="83" height="132" filterUnits="userSpaceOnUse"><feOffset dy="3" input="SourceAlpha"/><feGaussianBlur stdDeviation="3" result="n"/><feFlood flood-opacity="0.549"/><feComposite operator="in" in2="n"/><feComposite in="SourceGraphic"/></filter><filter id="o" x="780.836" y="68" width="83" height="132" filterUnits="userSpaceOnUse"><feOffset dy="3" input="SourceAlpha"/><feGaussianBlur stdDeviation="3" result="p"/><feFlood flood-opacity="0.549"/><feComposite operator="in" in2="p"/><feComposite in="SourceGraphic"/></filter><filter id="q" x="895.726" y="68" width="83" height="132" filterUnits="userSpaceOnUse"><feOffset dy="3" input="SourceAlpha"/><feGaussianBlur stdDeviation="3" result="r"/><feFlood flood-opacity="0.549"/><feComposite operator="in" in2="r"/><feComposite in="SourceGraphic"/></filter><filter id="s" x="927.241" y="68" width="83" height="132" filterUnits="userSpaceOnUse"><feOffset dy="3" input="SourceAlpha"/><feGaussianBlur stdDeviation="3" result="t"/><feFlood flood-opacity="0.549"/><feComposite operator="in" in2="t"/><feComposite in="SourceGraphic"/></filter><filter id="u" x="17.294" y="182.242" width="83" height="132" filterUnits="userSpaceOnUse"><feOffset dy="3" input="SourceAlpha"/><feGaussianBlur stdDeviation="3" result="v"/><feFlood flood-opacity="0.549"/><feComposite operator="in" in2="v"/><feComposite in="SourceGraphic"/></filter><filter id="w" x="48.809" y="182.242" width="83" height="132" filterUnits="userSpaceOnUse"><feOffset dy="3" input="SourceAlpha"/><feGaussianBlur stdDeviation="3" result="x"/><feFlood flood-opacity="0.549"/><feComposite operator="in" in2="x"/><feComposite in="SourceGraphic"/></filter><filter id="y" x="163.7" y="182.242" width="83" height="132" filterUnits="userSpaceOnUse"><feOffset dy="3" input="SourceAlpha"/><feGaussianBlur stdDeviation="3" result="z"/><feFlood flood-opacity="0.549"/><feComposite operator="in" in2="z"/><feComposite in="SourceGraphic"/></filter><filter id="aa" x="195.215" y="182.242" width="83" height="132" filterUnits="userSpaceOnUse"><feOffset dy="3" input="SourceAlpha"/><feGaussianBlur stdDeviation="3" result="ab"/><feFlood flood-opacity="0.549"/><feComposite operator="in" in2="ab"/><feComposite in="SourceGraphic"/></filter><filter id="ac" x="310.105" y="182.242" width="83" height="132" filterUnits="userSpaceOnUse"><feOffset dy="3" input="SourceAlpha"/><feGaussianBlur stdDeviation="3" result="ad"/><feFlood flood-opacity="0.549"/><feComposite operator="in" in2="ad"/><feComposite in="SourceGraphic"/></filter><filter id="ae" x="341.62" y="182.242" width="83" height="132" filterUnits="userSpaceOnUse"><feOffset dy="3" input="SourceAlpha"/><feGaussianBlur stdDeviation="3" result="af"/><feFlood flood-opacity="0.549"/><feComposite operator="in" in2="af"/><feComposite in="SourceGraphic"/></filter><filter id="ag" x="456.51" y="182.242" width="83" height="132" filterUnits="userSpaceOnUse"><feOffset dy="3" input="SourceAlpha"/><feGaussianBlur stdDeviation="3" result="ah"/><feFlood flood-opacity="0.549"/><feComposite operator="in" in2="ah"/><feComposite in="SourceGraphic"/></filter><filter id="ai" x="488.025" y="182.242" width="83" height="132" filterUnits="userSpaceOnUse"><feOffset dy="3" input="SourceAlpha"/><feGaussianBlur stdDeviation="3" result="aj"/><feFlood flood-opacity="0.549"/><feComposite operator="in" in2="aj"/><feComposite in="SourceGraphic"/></filter><filter id="ak" x="602.915" y="182.242" width="83" height="132" filterUnits="userSpaceOnUse"><feOffset dy="3" input="SourceAlpha"/><feGaussianBlur stdDeviation="3" result="al"/><feFlood flood-opacity="0.549"/><feComposite operator="in" in2="al"/><feComposite in="SourceGraphic"/></filter><filter id="am" x="634.43" y="182.242" width="83" height="132" filterUnits="userSpaceOnUse"><feOffset dy="3" input="SourceAlpha"/><feGaussianBlur stdDeviation="3" result="an"/><feFlood flood-opacity="0.549"/><feComposite operator="in" in2="an"/><feComposite in="SourceGraphic"/></filter><filter id="ao" x="749.32" y="182.242" width="83" height="132" filterUnits="userSpaceOnUse"><feOffset dy="3" input="SourceAlpha"/><feGaussianBlur stdDeviation="3" result="ap"/><feFlood flood-opacity="0.549"/><feComposite operator="in" in2="ap"/><feComposite in="SourceGraphic"/></filter><filter id="aq" x="780.836" y="182.242" width="83" height="132" filterUnits="userSpaceOnUse"><feOffset dy="3" input="SourceAlpha"/><feGaussianBlur stdDeviation="3" result="ar"/><feFlood flood-opacity="0.549"/><feComposite operator="in" in2="ar"/><feComposite in="SourceGraphic"/></filter><filter id="as" x="895.726" y="182.242" width="83" height="132" filterUnits="userSpaceOnUse"><feOffset dy="3" input="SourceAlpha"/><feGaussianBlur stdDeviation="3" result="at"/><feFlood flood-opacity="0.549"/><feComposite operator="in" in2="at"/><feComposite in="SourceGraphic"/></filter><filter id="au" x="927.241" y="182.242" width="83" height="132" filterUnits="userSpaceOnUse"><feOffset dy="3" input="SourceAlpha"/><feGaussianBlur stdDeviation="3" result="av"/><feFlood flood-opacity="0.549"/><feComposite operator="in" in2="av"/><feComposite in="SourceGraphic"/></filter><filter id="aw" x="17.294" y="296.484" width="83" height="132" filterUnits="userSpaceOnUse"><feOffset dy="3" input="SourceAlpha"/><feGaussianBlur stdDeviation="3" result="ax"/><feFlood flood-opacity="0.549"/><feComposite operator="in" in2="ax"/><feComposite in="SourceGraphic"/></filter><filter id="ay" x="48.809" y="296.484" width="83" height="132" filterUnits="userSpaceOnUse"><feOffset dy="3" input="SourceAlpha"/><feGaussianBlur stdDeviation="3" result="az"/><feFlood flood-opacity="0.549"/><feComposite operator="in" in2="az"/><feComposite in="SourceGraphic"/></filter><filter id="ba" x="163.7" y="296.484" width="83" height="132" filterUnits="userSpaceOnUse"><feOffset dy="3" input="SourceAlpha"/><feGaussianBlur stdDeviation="3" result="bb"/><feFlood flood-opacity="0.549"/><feComposite operator="in" in2="bb"/><feComposite in="SourceGraphic"/></filter><filter id="bc" x="195.215" y="296.484" width="83" height="132" filterUnits="userSpaceOnUse"><feOffset dy="3" input="SourceAlpha"/><feGaussianBlur stdDeviation="3" result="bd"/><feFlood flood-opacity="0.549"/><feComposite operator="in" in2="bd"/><feComposite in="SourceGraphic"/></filter><filter id="be" x="310.105" y="296.484" width="83" height="132" filterUnits="userSpaceOnUse"><feOffset dy="3" input="SourceAlpha"/><feGaussianBlur stdDeviation="3" result="bf"/><feFlood flood-opacity="0.549"/><feComposite operator="in" in2="bf"/><feComposite in="SourceGraphic"/></filter><filter id="bg" x="341.62" y="296.484" width="83" height="132" filterUnits="userSpaceOnUse"><feOffset dy="3" input="SourceAlpha"/><feGaussianBlur stdDeviation="3" result="bh"/><feFlood flood-opacity="0.549"/><feComposite operator="in" in2="bh"/><feComposite in="SourceGraphic"/></filter><filter id="bi" x="456.51" y="296.484" width="83" height="132" filterUnits="userSpaceOnUse"><feOffset dy="3" input="SourceAlpha"/><feGaussianBlur stdDeviation="3" result="bj"/><feFlood flood-opacity="0.549"/><feComposite operator="in" in2="bj"/><feComposite in="SourceGraphic"/></filter><filter id="bk" x="488.025" y="296.484" width="83" height="132" filterUnits="userSpaceOnUse"><feOffset dy="3" input="SourceAlpha"/><feGaussianBlur stdDeviation="3" result="bl"/><feFlood flood-opacity="0.549"/><feComposite operator="in" in2="bl"/><feComposite in="SourceGraphic"/></filter><filter id="bm" x="602.915" y="296.484" width="83" height="132" filterUnits="userSpaceOnUse"><feOffset dy="3" input="SourceAlpha"/><feGaussianBlur stdDeviation="3" result="bn"/><feFlood flood-opacity="0.549"/><feComposite operator="in" in2="bn"/><feComposite in="SourceGraphic"/></filter><filter id="bo" x="634.43" y="296.484" width="83" height="132" filterUnits="userSpaceOnUse"><feOffset dy="3" input="SourceAlpha"/><feGaussianBlur stdDeviation="3" result="bp"/><feFlood flood-opacity="0.549"/><feComposite operator="in" in2="bp"/><feComposite in="SourceGraphic"/></filter><filter id="bq" x="749.32" y="296.484" width="83" height="132" filterUnits="userSpaceOnUse"><feOffset dy="3" input="SourceAlpha"/><feGaussianBlur stdDeviation="3" result="br"/><feFlood flood-opacity="0.549"/><feComposite operator="in" in2="br"/><feComposite in="SourceGraphic"/></filter><filter id="bs" x="780.836" y="296.484" width="83" height="132" filterUnits="userSpaceOnUse"><feOffset dy="3" input="SourceAlpha"/><feGaussianBlur stdDeviation="3" result="bt"/><feFlood flood-opacity="0.549"/><feComposite operator="in" in2="bt"/><feComposite in="SourceGraphic"/></filter><filter id="bu" x="895.726" y="296.484" width="83" height="132" filterUnits="userSpaceOnUse"><feOffset dy="3" input="SourceAlpha"/><feGaussianBlur stdDeviation="3" result="bv"/><feFlood flood-opacity="0.549"/><feComposite operator="in" in2="bv"/><feComposite in="SourceGraphic"/></filter><filter id="bw" x="927.241" y="296.484" width="83" height="132" filterUnits="userSpaceOnUse"><feOffset dy="3" input="SourceAlpha"/><feGaussianBlur stdDeviation="3" result="bx"/><feFlood flood-opacity="0.549"/><feComposite operator="in" in2="bx"/><feComposite in="SourceGraphic"/></filter><filter id="by" x="17.294" y="410.727" width="83" height="132" filterUnits="userSpaceOnUse"><feOffset dy="3" input="SourceAlpha"/><feGaussianBlur stdDeviation="3" result="bz"/><feFlood flood-opacity="0.549"/><feComposite operator="in" in2="bz"/><feComposite in="SourceGraphic"/></filter><filter id="ca" x="48.809" y="410.727" width="83" height="132" filterUnits="userSpaceOnUse"><feOffset dy="3" input="SourceAlpha"/><feGaussianBlur stdDeviation="3" result="cb"/><feFlood flood-opacity="0.549"/><feComposite operator="in" in2="cb"/><feComposite in="SourceGraphic"/></filter><filter id="cc" x="163.7" y="410.727" width="83" height="132" filterUnits="userSpaceOnUse"><feOffset dy="3" input="SourceAlpha"/><feGaussianBlur stdDeviation="3" result="cd"/><feFlood flood-opacity="0.549"/><feComposite operator="in" in2="cd"/><feComposite in="SourceGraphic"/></filter><filter id="ce" x="195.215" y="410.727" width="83" height="132" filterUnits="userSpaceOnUse"><feOffset dy="3" input="SourceAlpha"/><feGaussianBlur stdDeviation="3" result="cf"/><feFlood flood-opacity="0.549"/><feComposite operator="in" in2="cf"/><feComposite in="SourceGraphic"/></filter><filter id="cg" x="310.105" y="410.727" width="83" height="132" filterUnits="userSpaceOnUse"><feOffset dy="3" input="SourceAlpha"/><feGaussianBlur stdDeviation="3" result="ch"/><feFlood flood-opacity="0.549"/><feComposite operator="in" in2="ch"/><feComposite in="SourceGraphic"/></filter><filter id="ci" x="341.62" y="410.727" width="83" height="132" filterUnits="userSpaceOnUse"><feOffset dy="3" input="SourceAlpha"/><feGaussianBlur stdDeviation="3" result="cj"/><feFlood flood-opacity="0.549"/><feComposite operator="in" in2="cj"/><feComposite in="SourceGraphic"/></filter><filter id="ck" x="456.51" y="410.727" width="83" height="132" filterUnits="userSpaceOnUse"><feOffset dy="3" input="SourceAlpha"/><feGaussianBlur stdDeviation="3" result="cl"/><feFlood flood-opacity="0.549"/><feComposite operator="in" in2="cl"/><feComposite in="SourceGraphic"/></filter><filter id="cm" x="488.025" y="410.727" width="83" height="132" filterUnits="userSpaceOnUse"><feOffset dy="3" input="SourceAlpha"/><feGaussianBlur stdDeviation="3" result="cn"/><feFlood flood-opacity="0.549"/><feComposite operator="in" in2="cn"/><feComposite in="SourceGraphic"/></filter><filter id="co" x="602.915" y="410.727" width="83" height="132" filterUnits="userSpaceOnUse"><feOffset dy="3" input="SourceAlpha"/><feGaussianBlur stdDeviation="3" result="cp"/><feFlood flood-opacity="0.549"/><feComposite operator="in" in2="cp"/><feComposite in="SourceGraphic"/></filter><filter id="cq" x="634.43" y="410.727" width="83" height="132" filterUnits="userSpaceOnUse"><feOffset dy="3" input="SourceAlpha"/><feGaussianBlur stdDeviation="3" result="cr"/><feFlood flood-opacity="0.549"/><feComposite operator="in" in2="cr"/><feComposite in="SourceGraphic"/></filter><filter id="cs" x="749.32" y="410.727" width="83" height="132" filterUnits="userSpaceOnUse"><feOffset dy="3" input="SourceAlpha"/><feGaussianBlur stdDeviation="3" result="ct"/><feFlood flood-opacity="0.549"/><feComposite operator="in" in2="ct"/><feComposite in="SourceGraphic"/></filter><filter id="cu" x="780.836" y="410.727" width="83" height="132" filterUnits="userSpaceOnUse"><feOffset dy="3" input="SourceAlpha"/><feGaussianBlur stdDeviation="3" result="cv"/><feFlood flood-opacity="0.549"/><feComposite operator="in" in2="cv"/><feComposite in="SourceGraphic"/></filter><filter id="cw" x="895.726" y="410.727" width="83" height="132" filterUnits="userSpaceOnUse"><feOffset dy="3" input="SourceAlpha"/><feGaussianBlur stdDeviation="3" result="cx"/><feFlood flood-opacity="0.549"/><feComposite operator="in" in2="cx"/><feComposite in="SourceGraphic"/></filter><filter id="cy" x="927.241" y="410.727" width="83" height="132" filterUnits="userSpaceOnUse"><feOffset dy="3" input="SourceAlpha"/><feGaussianBlur stdDeviation="3" result="cz"/><feFlood flood-opacity="0.549"/><feComposite operator="in" in2="cz"/><feComposite in="SourceGraphic"/></filter><filter id="da" x="17.294" y="524.969" width="83" height="132" filterUnits="userSpaceOnUse"><feOffset dy="3" input="SourceAlpha"/><feGaussianBlur stdDeviation="3" result="db"/><feFlood flood-opacity="0.549"/><feComposite operator="in" in2="db"/><feComposite in="SourceGraphic"/></filter><filter id="dc" x="48.809" y="524.969" width="83" height="132" filterUnits="userSpaceOnUse"><feOffset dy="3" input="SourceAlpha"/><feGaussianBlur stdDeviation="3" result="dd"/><feFlood flood-opacity="0.549"/><feComposite operator="in" in2="dd"/><feComposite in="SourceGraphic"/></filter><filter id="de" x="163.7" y="524.969" width="83" height="132" filterUnits="userSpaceOnUse"><feOffset dy="3" input="SourceAlpha"/><feGaussianBlur stdDeviation="3" result="df"/><feFlood flood-opacity="0.549"/><feComposite operator="in" in2="df"/><feComposite in="SourceGraphic"/></filter><filter id="dg" x="195.215" y="524.969" width="83" height="132" filterUnits="userSpaceOnUse"><feOffset dy="3" input="SourceAlpha"/><feGaussianBlur stdDeviation="3" result="dh"/><feFlood flood-opacity="0.549"/><feComposite operator="in" in2="dh"/><feComposite in="SourceGraphic"/></filter><filter id="di" x="310.105" y="524.969" width="83" height="132" filterUnits="userSpaceOnUse"><feOffset dy="3" input="SourceAlpha"/><feGaussianBlur stdDeviation="3" result="dj"/><feFlood flood-opacity="0.549"/><feComposite operator="in" in2="dj"/><feComposite in="SourceGraphic"/></filter><filter id="dk" x="341.62" y="524.969" width="83" height="132" filterUnits="userSpaceOnUse"><feOffset dy="3" input="SourceAlpha"/><feGaussianBlur stdDeviation="3" result="dl"/><feFlood flood-opacity="0.549"/><feComposite operator="in" in2="dl"/><feComposite in="SourceGraphic"/></filter><filter id="dm" x="456.51" y="524.969" width="83" height="132" filterUnits="userSpaceOnUse"><feOffset dy="3" input="SourceAlpha"/><feGaussianBlur stdDeviation="3" result="dn"/><feFlood flood-opacity="0.549"/><feComposite operator="in" in2="dn"/><feComposite in="SourceGraphic"/></filter><filter id="do" x="488.025" y="524.969" width="83" height="132" filterUnits="userSpaceOnUse"><feOffset dy="3" input="SourceAlpha"/><feGaussianBlur stdDeviation="3" result="dp"/><feFlood flood-opacity="0.549"/><feComposite operator="in" in2="dp"/><feComposite in="SourceGraphic"/></filter><filter id="dq" x="602.915" y="524.969" width="83" height="132" filterUnits="userSpaceOnUse"><feOffset dy="3" input="SourceAlpha"/><feGaussianBlur stdDeviation="3" result="dr"/><feFlood flood-opacity="0.549"/><feComposite operator="in" in2="dr"/><feComposite in="SourceGraphic"/></filter><filter id="ds" x="634.43" y="524.969" width="83" height="132" filterUnits="userSpaceOnUse"><feOffset dy="3" input="SourceAlpha"/><feGaussianBlur stdDeviation="3" result="dt"/><feFlood flood-opacity="0.549"/><feComposite operator="in" in2="dt"/><feComposite in="SourceGraphic"/></filter><clipPath id="dv"><rect width="1024" height="768"/></clipPath><image id="dw" width="16.139" height="16.139" xlink:href="Calendario-image.png"/></defs><g id="du" class="a"><rect class="s" width="1024" height="768"/><rect class="b" width="151" height="767.278" transform="translate(875)"/><g class="c" transform="translate(1025.57 651.365) rotate(90)"><rect class="p" width="116" height="71.141" rx="8"/><rect class="q" x="0.5" y="0.5" width="115" height="70.141" rx="7.5"/></g><rect class="b" width="145" height="767.278" transform="translate(584)"/><rect class="b" width="146" height="767.278"/><rect class="b" width="146" height="767.365" transform="translate(146)"/><rect class="b" width="146" height="767.365" transform="translate(292)"/><rect class="b" width="146" height="767.278" transform="translate(438)"/><rect class="b" width="146" height="767.365" transform="translate(729)"/><text class="d" transform="translate(15 55)"><tspan x="0" y="0">Domingo</tspan></text><text class="d" transform="translate(159 55)"><tspan x="0" y="0">Segunda</tspan></text><text class="d" transform="translate(327 55)"><tspan x="0" y="0">Terça</tspan></text><text class="d" transform="translate(466 55)"><tspan x="0" y="0">Quarta</tspan></text><text class="d" transform="translate(612 55)"><tspan x="0" y="0">Quinta</tspan></text><text class="d" transform="translate(764 55)"><tspan x="0" y="0">Sexta</tspan></text><text class="d" transform="translate(899 55)"><tspan x="0" y="0">Sábado</tspan></text><g class="e" transform="translate(15 532)"><ellipse class="p" cx="57" cy="58.5" rx="57" ry="58.5"/><ellipse class="q" cx="57" cy="58.5" rx="56.5" ry="58"/></g><g class="cc" transform="matrix(1, 0, 0, 1, 0, 0)"><text class="f" transform="translate(329.1 160)"><tspan x="0" y="0">0</tspan></text></g><g class="cb" transform="matrix(1, 0, 0, 1, 0, 0)"><text class="g" transform="translate(360.62 160)"><tspan x="0" y="0">1</tspan></text></g><g class="ca" transform="matrix(1, 0, 0, 1, 0, 0)"><text class="f" transform="translate(475.51 160)"><tspan x="0" y="0">0</tspan></text></g><g class="bz" transform="matrix(1, 0, 0, 1, 0, 0)"><text class="g" transform="translate(507.03 160)"><tspan x="0" y="0">2</tspan></text></g><g class="by" transform="matrix(1, 0, 0, 1, 0, 0)"><text class="f" transform="translate(621.92 160)"><tspan x="0" y="0">0</tspan></text></g><g class="bx" transform="matrix(1, 0, 0, 1, 0, 0)"><text class="g" transform="translate(653.43 160)"><tspan x="0" y="0">3</tspan></text></g><g class="bw" transform="matrix(1, 0, 0, 1, 0, 0)"><text class="f" transform="translate(768.32 160)"><tspan x="0" y="0">0</tspan></text></g><g class="bv" transform="matrix(1, 0, 0, 1, 0, 0)"><text class="g" transform="translate(799.84 160)"><tspan x="0" y="0">4</tspan></text></g><g class="bu" transform="matrix(1, 0, 0, 1, 0, 0)"><text class="f" transform="translate(914.73 160)"><tspan x="0" y="0">0</tspan></text></g><g class="bt" transform="matrix(1, 0, 0, 1, 0, 0)"><text class="g" transform="translate(946.24 160)"><tspan x="0" y="0">5</tspan></text></g><g class="bs" transform="matrix(1, 0, 0, 1, 0, 0)"><text class="f" transform="translate(36.29 274.24)"><tspan x="0" y="0">0</tspan></text></g><g class="br" transform="matrix(1, 0, 0, 1, 0, 0)"><text class="g" transform="translate(67.81 274.24)"><tspan x="0" y="0">6</tspan></text></g><g class="bq" transform="matrix(1, 0, 0, 1, 0, 0)"><text class="f" transform="translate(182.7 274.24)"><tspan x="0" y="0">0</tspan></text></g><g class="bp" transform="matrix(1, 0, 0, 1, 0, 0)"><text class="g" transform="translate(214.21 274.24)"><tspan x="0" y="0">7</tspan></text></g><g class="bo" transform="matrix(1, 0, 0, 1, 0, 0)"><text class="f" transform="translate(329.1 274.24)"><tspan x="0" y="0">0</tspan></text></g><g class="bn" transform="matrix(1, 0, 0, 1, 0, 0)"><text class="g" transform="translate(360.62 274.24)"><tspan x="0" y="0">8</tspan></text></g><g class="bm" transform="matrix(1, 0, 0, 1, 0, 0)"><text class="f" transform="translate(475.51 274.24)"><tspan x="0" y="0">0</tspan></text></g><g class="bl" transform="matrix(1, 0, 0, 1, 0, 0)"><text class="g" transform="translate(507.03 274.24)"><tspan x="0" y="0">9</tspan></text></g><g class="bk" transform="matrix(1, 0, 0, 1, 0, 0)"><text class="f" transform="translate(621.92 274.24)"><tspan x="0" y="0">1</tspan></text></g><g class="bj" transform="matrix(1, 0, 0, 1, 0, 0)"><text class="g" transform="translate(653.43 274.24)"><tspan x="0" y="0">0</tspan></text></g><g class="bi" transform="matrix(1, 0, 0, 1, 0, 0)"><text class="f" transform="translate(768.32 274.24)"><tspan x="0" y="0">1</tspan></text></g><g class="bh" transform="matrix(1, 0, 0, 1, 0, 0)"><text class="g" transform="translate(799.84 274.24)"><tspan x="0" y="0">1</tspan></text></g><g class="bg" transform="matrix(1, 0, 0, 1, 0, 0)"><text class="f" transform="translate(914.73 274.24)"><tspan x="0" y="0">1</tspan></text></g><g class="bf" transform="matrix(1, 0, 0, 1, 0, 0)"><text class="g" transform="translate(946.24 274.24)"><tspan x="0" y="0">2</tspan></text></g><g class="be" transform="matrix(1, 0, 0, 1, 0, 0)"><text class="f" transform="translate(36.29 388.48)"><tspan x="0" y="0">1</tspan></text></g><g class="bd" transform="matrix(1, 0, 0, 1, 0, 0)"><text class="g" transform="translate(67.81 388.48)"><tspan x="0" y="0">3</tspan></text></g><g class="bc" transform="matrix(1, 0, 0, 1, 0, 0)"><text class="f" transform="translate(182.7 388.48)"><tspan x="0" y="0">1</tspan></text></g><g class="bb" transform="matrix(1, 0, 0, 1, 0, 0)"><text class="g" transform="translate(214.21 388.48)"><tspan x="0" y="0">4</tspan></text></g><g class="ba" transform="matrix(1, 0, 0, 1, 0, 0)"><text class="f" transform="translate(329.1 388.48)"><tspan x="0" y="0">1</tspan></text></g><g class="az" transform="matrix(1, 0, 0, 1, 0, 0)"><text class="g" transform="translate(360.62 388.48)"><tspan x="0" y="0">5</tspan></text></g><g class="ay" transform="matrix(1, 0, 0, 1, 0, 0)"><text class="f" transform="translate(475.51 388.48)"><tspan x="0" y="0">1</tspan></text></g><g class="ax" transform="matrix(1, 0, 0, 1, 0, 0)"><text class="g" transform="translate(507.03 388.48)"><tspan x="0" y="0">6</tspan></text></g><g class="aw" transform="matrix(1, 0, 0, 1, 0, 0)"><text class="f" transform="translate(621.92 388.48)"><tspan x="0" y="0">1</tspan></text></g><g class="av" transform="matrix(1, 0, 0, 1, 0, 0)"><text class="g" transform="translate(653.43 388.48)"><tspan x="0" y="0">7</tspan></text></g><g class="au" transform="matrix(1, 0, 0, 1, 0, 0)"><text class="f" transform="translate(768.32 388.48)"><tspan x="0" y="0">1</tspan></text></g><g class="at" transform="matrix(1, 0, 0, 1, 0, 0)"><text class="g" transform="translate(799.84 388.48)"><tspan x="0" y="0">8</tspan></text></g><g class="as" transform="matrix(1, 0, 0, 1, 0, 0)"><text class="f" transform="translate(914.73 388.48)"><tspan x="0" y="0">1</tspan></text></g><g class="ar" transform="matrix(1, 0, 0, 1, 0, 0)"><text class="g" transform="translate(946.24 388.48)"><tspan x="0" y="0">9</tspan></text></g><g class="aq" transform="matrix(1, 0, 0, 1, 0, 0)"><text class="f" transform="translate(36.29 502.73)"><tspan x="0" y="0">2</tspan></text></g><g class="ap" transform="matrix(1, 0, 0, 1, 0, 0)"><text class="g" transform="translate(67.81 502.73)"><tspan x="0" y="0">0</tspan></text></g><g class="ao" transform="matrix(1, 0, 0, 1, 0, 0)"><text class="f" transform="translate(182.7 502.73)"><tspan x="0" y="0">2</tspan></text></g><g class="an" transform="matrix(1, 0, 0, 1, 0, 0)"><text class="g" transform="translate(214.21 502.73)"><tspan x="0" y="0">1</tspan></text></g><g class="am" transform="matrix(1, 0, 0, 1, 0, 0)"><text class="f" transform="translate(329.1 502.73)"><tspan x="0" y="0">2</tspan></text></g><g class="al" transform="matrix(1, 0, 0, 1, 0, 0)"><text class="g" transform="translate(360.62 502.73)"><tspan x="0" y="0">2</tspan></text></g><g class="ak" transform="matrix(1, 0, 0, 1, 0, 0)"><text class="f" transform="translate(475.51 502.73)"><tspan x="0" y="0">2</tspan></text></g><g class="aj" transform="matrix(1, 0, 0, 1, 0, 0)"><text class="g" transform="translate(507.03 502.73)"><tspan x="0" y="0">3</tspan></text></g><g class="ai" transform="matrix(1, 0, 0, 1, 0, 0)"><text class="f" transform="translate(621.92 502.73)"><tspan x="0" y="0">2</tspan></text></g><g class="ah" transform="matrix(1, 0, 0, 1, 0, 0)"><text class="g" transform="translate(653.43 502.73)"><tspan x="0" y="0">4</tspan></text></g><g class="ag" transform="matrix(1, 0, 0, 1, 0, 0)"><text class="f" transform="translate(768.32 502.73)"><tspan x="0" y="0">2</tspan></text></g><g class="af" transform="matrix(1, 0, 0, 1, 0, 0)"><text class="g" transform="translate(799.84 502.73)"><tspan x="0" y="0">5</tspan></text></g><g class="ae" transform="matrix(1, 0, 0, 1, 0, 0)"><text class="f" transform="translate(914.73 502.73)"><tspan x="0" y="0">2</tspan></text></g><g class="ad" transform="matrix(1, 0, 0, 1, 0, 0)"><text class="g" transform="translate(946.24 502.73)"><tspan x="0" y="0">6</tspan></text></g><g class="ac" transform="matrix(1, 0, 0, 1, 0, 0)"><text class="h" transform="translate(36.29 616.97)"><tspan x="0" y="0">2</tspan></text></g><g class="ab" transform="matrix(1, 0, 0, 1, 0, 0)"><text class="g" transform="translate(67.81 616.97)"><tspan x="0" y="0">7</tspan></text></g><g class="aa" transform="matrix(1, 0, 0, 1, 0, 0)"><text class="f" transform="translate(182.7 616.97)"><tspan x="0" y="0">2</tspan></text></g><g class="z" transform="matrix(1, 0, 0, 1, 0, 0)"><text class="g" transform="translate(214.21 616.97)"><tspan x="0" y="0">8</tspan></text></g><g class="y" transform="matrix(1, 0, 0, 1, 0, 0)"><text class="f" transform="translate(329.1 616.97)"><tspan x="0" y="0">2</tspan></text></g><g class="x" transform="matrix(1, 0, 0, 1, 0, 0)"><text class="g" transform="translate(360.62 616.97)"><tspan x="0" y="0">9</tspan></text></g><g class="w" transform="matrix(1, 0, 0, 1, 0, 0)"><text class="f" transform="translate(475.51 616.97)"><tspan x="0" y="0">3</tspan></text></g><g class="v" transform="matrix(1, 0, 0, 1, 0, 0)"><text class="g" transform="translate(507.03 616.97)"><tspan x="0" y="0">0</tspan></text></g><g class="u" transform="matrix(1, 0, 0, 1, 0, 0)"><text class="f" transform="translate(621.92 616.97)"><tspan x="0" y="0">3</tspan></text></g><g class="t" transform="matrix(1, 0, 0, 1, 0, 0)"><text class="g" transform="translate(653.43 616.97)"><tspan x="0" y="0">1</tspan></text></g><use transform="translate(969.756 737.358)" xlink:href="#dw"/><use transform="matrix(-1, -0.017, 0.017, -1, 1008.606, 753.582)" xlink:href="#dw"/><g class="i" transform="translate(977.31 665.298)"><rect class="p" width="24.975" height="18.163"/><rect class="q" x="0.5" y="0.5" width="23.975" height="17.163"/></g><g class="j" transform="translate(973.544 652.137)"><path class="p" d="M 30.65118217468262 14.93140602111816 L 1.42993950843811 14.93140602111816 L 16.57609748840332 2.863808393478394 L 30.65118217468262 14.93140602111816 Z"/><path class="r" d="M 16.56442832946777 3.512407302856445 L 2.859888076782227 14.43140602111816 L 29.29984092712402 14.43140602111816 L 16.56442832946777 3.512407302856445 M 16.58778381347656 2.215206146240234 L 32.00254440307617 15.43140602111816 L 3.814697265625e-06 15.43140602111816 L 16.58778381347656 2.215206146240234 Z"/></g><g class="i" transform="translate(733 651)"><rect class="p" width="225" height="118" rx="8"/><rect class="q" x="0.5" y="0.5" width="224" height="117" rx="7.5"/></g><text class="k" transform="translate(841.5 727.5)"><tspan x="0" y="0">2019</tspan></text><path class="l" d="M17.272-48.091h4.993v23.346q0,4.793-2.747,7.4T11.7-14.739q-5.168,0-7.978-2.43A7.793,7.793,0,0,1,1.14-23.861v-2.253H5.806v2.253a5.279,5.279,0,0,0,1.455,3.987,5.725,5.725,0,0,0,4.14,1.4,5.59,5.59,0,0,0,4.29-1.69,6.441,6.441,0,0,0,1.581-4.583h0Z" transform="translate(742.83 744.383)"/><path class="m" d="M.949-14.739,14.134-48.091h5.393L32.071-14.739H27L23.438-24.4H9.493L5.825-14.739H.949ZM16.615-43.19,11-28.4H21.987L16.6-43.19Z" transform="translate(760.922 743.923)"/><path class="n" d="M10.2-20.711H5.713V-53.833H11.3l17.21,26.918h0V-53.833H33v33.122H27.9L10.2-47.732h0Z" transform="translate(784.058 750.125)"/><g class="i" transform="translate(983.476 694.382) rotate(17)"><rect class="p" width="20.87" height="27.131"/><rect class="q" x="0.5" y="0.5" width="19.87" height="26.131"/></g><line class="o" x2="15.652" transform="translate(984.902 698.638) rotate(17)"/><line class="o" x2="15.652" transform="translate(983.987 701.631) rotate(17)"/><line class="o" x2="15.652" transform="translate(983.072 704.625) rotate(17)"/><line class="o" x2="15.652" transform="translate(982.157 707.619) rotate(17)"/><line class="o" x2="15.652" transform="translate(981.241 710.612) rotate(17)"/><line class="o" x2="15.652" transform="translate(980.326 713.606) rotate(17)"/></g></svg>