<svg xmlns="http://www.w3.org/2000/svg" xmlns:xlink="http://www.w3.org/1999/xlink" viewBox="0 0 1024 768"><defs><style>.a{clip-path:url(#b);}.b{fill:#964ad8;stroke:#964ad8;}.ae,.b,.c,.d,.e,.f,.g,.h,.i,.j,.m,.p,.q{stroke-width:10px;}.b,.c,.d,.e,.f,.g,.h,.j{font-size:146px;}.b,.c,.d,.e,.f,.g,.h,.i,.j,.p,.q{font-family:Helvetica;}.b,.c,.d,.e,.f{opacity:0.7;}.c{fill:#4a9fd8;stroke:#4a9fd8;}.d{fill:#111d84;stroke:#111d84;}.e,.g{fill:rgba(174,211,233,0.99);stroke:#aed3e9;}.f{fill:rgba(110,183,226,0.99);stroke:#6eb7e2;}.g,.h,.i{opacity:0.75;}.h{fill:rgba(119,64,230,0.99);stroke:#7740e6;}.i{fill:rgba(167,232,239,0.99);stroke:#a7e8ef;font-size:154px;}.j{fill:rgba(34,92,126,0.99);stroke:#225c7e;}.ah,.ai,.k,.m,.o{fill:none;}.ae,.l,.n{fill:#fff;}.ae,.m,.n,.o{stroke:#707070;}.ae,.m{stroke-linecap:round;}.p{fill:#eedcdc;stroke:#eedcdc;font-size:224px;letter-spacing:0.011em;opacity:0.84;}.q{fill:#beb3b3;stroke:#beb3b3;stroke-linecap:square;stroke-linejoin:round;font-size:214px;opacity:0.74;}.r{opacity:0.25;}.aa,.ab,.ac,.ad,.s,.t,.u,.v,.w,.x,.y,.z{stroke:#000;}.s{stroke-width:0.245px;}.t{stroke-width:0.245px;}.u{stroke-width:0.325px;}.v{stroke-width:0.327px;}.w{stroke-width:0.318px;}.x{stroke-width:0.319px;}.y{stroke-width:0.308px;}.z{stroke-width:0.322px;}.aa{stroke-width:0.317px;}.ab{stroke-width:0.328px;}.ac{stroke-width:0.325px;}.ad{stroke-width:0.328px;}.af,.ag{stroke:none;}.ag{fill:#707070;}.ah{clip-path:url(#d);}</style><clipPath id="b"><rect width="1024" height="768"/></clipPath><clipPath id="d"><use xlink:href="#c"/></clipPath></defs><g id="a" class="a"><rect class="l" width="1024" height="768"/><g transform="translate(245 339)"><text class="b" transform="translate(86.5 32)"><tspan x="0" y="0">M</tspan></text><text class="c" transform="translate(142.5 62)"><tspan x="0" y="0">A</tspan></text><text class="d" transform="translate(210.5 111)"><tspan x="0" y="0">I</tspan></text><text class="e" transform="translate(218.5 168)"><tspan x="0" y="0">O</tspan></text></g><text class="f" transform="translate(472 230.5)"><tspan x="0" y="0">1</tspan></text><text class="g" transform="translate(516 230.5)"><tspan x="0" y="0">0</tspan></text><text class="h" transform="translate(582 230.5)"><tspan x="0" y="0">4</tspan></text><text class="i" transform="translate(631.5 238.5)"><tspan x="0" y="0">5</tspan></text><text class="j" transform="translate(577 221.5)"><tspan x="0" y="0">:</tspan></text><text class="c" transform="translate(98.461 269.042)"><tspan x="0" y="0">E</tspan></text><text class="d" transform="translate(168.823 269.042)"><tspan x="0" y="0">Z</tspan></text><g transform="translate(98 922)"><g class="k" transform="translate(19 -409.825)"><path class="af" d="M43.356,0C67.3,0,86.713,13.358,86.713,29.837S67.3,59.673,43.356,59.673,0,46.315,0,29.837,19.411,0,43.356,0Z"/><path class="ag" d="M 43.35646438598633 9.999996185302734 C 23.69900512695313 9.999996185302734 10.00000762939453 20.45422744750977 10.00000762939453 29.83670616149902 C 10.00000762939453 39.21918487548828 23.69900512695313 49.67341613769531 43.35646438598633 49.67341613769531 C 63.01392364501953 49.67341613769531 76.71292114257813 39.21918487548828 76.71292114257813 29.83670616149902 C 76.71292114257813 20.45422744750977 63.01392364501953 9.999996185302734 43.35646438598633 9.999996185302734 M 43.35646438598633 -3.814697265625e-06 C 67.30156707763672 -3.814697265625e-06 86.71292114257813 13.35835266113281 86.71292114257813 29.83670616149902 C 86.71292114257813 46.31505966186523 67.30156707763672 59.67341613769531 43.35646438598633 59.67341613769531 C 19.41136169433594 59.67341613769531 7.62939453125e-06 46.31505966186523 7.62939453125e-06 29.83670616149902 C 7.62939453125e-06 13.35835266113281 19.41136169433594 -3.814697265625e-06 43.35646438598633 -3.814697265625e-06 Z"/></g><g class="k" transform="translate(56.296 -431.27)"><path class="af" d="M43.356,0C67.3,0,86.713,16.489,86.713,36.83S67.3,73.659,43.356,73.659,0,57.17,0,36.83,19.411,0,43.356,0Z"/><path class="ag" d="M 43.35646438598633 9.999996185302734 C 24.96365356445313 9.999996185302734 10.00000762939453 22.03574752807617 10.00000762939453 36.82968521118164 C 10.00000762939453 51.62362289428711 24.96365356445313 63.65937042236328 43.35646438598633 63.65937042236328 C 61.74927520751953 63.65937042236328 76.71292114257813 51.62362289428711 76.71292114257813 36.82968521118164 C 76.71292114257813 22.03574752807617 61.74927520751953 9.999996185302734 43.35646438598633 9.999996185302734 M 43.35646438598633 0 C 67.30156707763672 0 86.71292114257813 16.48920440673828 86.71292114257813 36.82968521118164 C 86.71292114257813 57.17014312744141 67.30156707763672 73.65937042236328 43.35646438598633 73.65937042236328 C 19.41136169433594 73.65937042236328 7.62939453125e-06 57.17014312744141 7.62939453125e-06 36.82968521118164 C 7.62939453125e-06 16.48920440673828 19.41136169433594 0 43.35646438598633 0 Z"/></g><g class="k" transform="translate(93.592 -399.569)"><path class="af" d="M42.89,0c23.688,0,42.89,11.689,42.89,26.107s-19.2,26.107-42.89,26.107S0,40.526,0,26.107,19.2,0,42.89,0Z"/><path class="ag" d="M 42.89026641845703 9.999992370605469 C 24.0658073425293 9.999992370605469 9.999992370605469 18.5037841796875 9.999992370605469 26.10711860656738 C 9.999992370605469 33.71044921875 24.0658073425293 42.2142448425293 42.89026641845703 42.2142448425293 C 61.71472549438477 42.2142448425293 75.78054046630859 33.71044921875 75.78054046630859 26.10711860656738 C 75.78054046630859 18.5037841796875 61.71472549438477 9.999992370605469 42.89026641845703 9.999992370605469 M 42.89026641845703 -7.62939453125e-06 C 66.57791137695313 -7.62939453125e-06 85.78054046630859 11.68855667114258 85.78054046630859 26.10711860656738 C 85.78054046630859 40.52568054199219 66.57791137695313 52.2142448425293 42.89026641845703 52.2142448425293 C 19.20262145996094 52.2142448425293 -7.62939453125e-06 40.52568054199219 -7.62939453125e-06 26.10711860656738 C -7.62939453125e-06 11.68855667114258 19.20262145996094 -7.62939453125e-06 42.89026641845703 -7.62939453125e-06 Z"/></g><g class="k" transform="translate(100.119 -435)"><path class="af" d="M27.506,0C42.7,0,55.011,11.271,55.011,25.175S42.7,50.349,27.506,50.349,0,39.078,0,25.175,12.315,0,27.506,0Z"/><path class="ag" d="M 27.50571441650391 9.999992370605469 C 17.85304260253906 9.999992370605469 10.00000381469727 16.80733871459961 10.00000381469727 25.17472076416016 C 10.00000381469727 33.5421028137207 17.85304260253906 40.34944915771484 27.50571441650391 40.34944915771484 C 37.15838623046875 40.34944915771484 45.01142120361328 33.5421028137207 45.01142120361328 25.17472076416016 C 45.01142120361328 16.80733871459961 37.15838623046875 9.999992370605469 27.50571441650391 9.999992370605469 M 27.50571441650391 -7.62939453125e-06 C 42.69669723510742 -7.62939453125e-06 55.01142501831055 11.27110290527344 55.01142501831055 25.17472076416016 C 55.01142501831055 39.07833862304688 42.69669723510742 50.34944915771484 27.50571441650391 50.34944915771484 C 12.31473159790039 50.34944915771484 3.814697265625e-06 39.07833862304688 3.814697265625e-06 25.17472076416016 C 3.814697265625e-06 11.27110290527344 12.31473159790039 -7.62939453125e-06 27.50571441650391 -7.62939453125e-06 Z"/></g><path class="l" d="M35.227,0C54.683,0,70.454,9.735,70.454,21.744S54.683,43.489,35.227,43.489,0,33.753,0,21.744,15.772,0,35.227,0Z" transform="translate(27.392 -401.1)"/><path class="l" d="M33.751,0C52.391,0,67.5,10.854,67.5,24.242S52.391,48.485,33.751,48.485,0,37.631,0,24.242,15.111,0,33.751,0Z" transform="translate(66.708 -421.946)"/><path class="l" d="M35.767,0C55.521,0,71.535,8.915,71.535,19.912S55.521,39.823,35.767,39.823,0,30.908,0,19.912,16.014,0,35.767,0Z" transform="translate(99.186 -394.441)"/><path class="l" d="M18.929,0C29.383,0,37.858,8.087,37.858,18.064S29.383,36.128,18.929,36.128,0,28.04,0,18.064,8.475,0,18.929,0Z" transform="translate(108.741 -428.068)"/><line class="m" y1="10.256" x2="9.423" transform="translate(56.762 -341.294)"/><line class="m" y1="10.256" x2="9.423" transform="translate(128.557 -340.362)"/><line class="m" y1="10.256" x2="9.423" transform="translate(27.858 -345.024)"/><line class="m" y1="10.256" x2="9.423" transform="translate(151.867 -341.294)"/><path class="m" d="M14.918,0,0,14.918" transform="matrix(0.996, -0.087, 0.087, 0.996, 77.585, -356.466)"/><path class="m" d="M14.918,0,0,14.918" transform="translate(79.011 -325.575) rotate(-89)"/><path class="m" d="M14.918,0,0,14.918" transform="matrix(0.996, -0.087, 0.087, 0.996, 78.518, -322.9)"/><path class="m" d="M10.069,0,0,10.547" transform="matrix(0.998, 0.07, -0.07, 0.998, 98.04, -354.889)"/><path class="m" d="M6.2,6.118,0,0" transform="matrix(0.995, 0.105, -0.105, 0.995, 95.661, -336.162)"/><path class="m" d="M21.755,0h0L0,17.093" transform="translate(78.915 -324.965) rotate(-8)"/><g class="n" transform="translate(87.997 -357.611)"><rect id="c" class="af" width="0.932" height="0.932"/><path class="ah" d="M0,0.4323970079421997h0.9323970079421997M0.5,0v0.9323970079421997M0.9323970079421997,0.5h-0.9323970079421997M0.4323970079421997,0.9323970079421997v-0.9323970079421997"/></g><path class="l" d="M12.176-3.579l7.61,6.918L8.18,19.325l8.379,11.106L-1.757,50.112,8.18,32.185-2.926,17.377,3.759,4.953Z" transform="translate(84.128 -359.788)"/></g><g class="o" transform="translate(344 540)"><rect class="af" width="179" height="179"/><rect class="ai" x="0.5" y="0.5" width="178" height="178"/></g><text class="p" transform="translate(686.5 718.5)"><tspan x="0" y="0">D</tspan></text><text class="q" transform="translate(783.975 571.431)"><tspan x="0" y="0">1</tspan></text><text class="q" transform="translate(858.5 571.431)"><tspan x="0" y="0">2</tspan></text><g class="r" transform="translate(353.403 287.116)"><path class="s" d="M267.433,104.556l-6.966,11.612-4.4-11.558H245.582l-12.628,33.142h8.837l2.169-6.038h13.747l2.146,6.038h8.516v.022h6.37v-7.192h3.744v-5.14h-3.744V104.557Zm.936,6.454v14.43H264l-1.563-4.1Zm-17.535,1.369,4.43,12.54v.645h-9.112Zm15.125,18.2h2.411v6.327Z" transform="translate(318.517 -87)"/><g transform="translate(550.583 128.827)"><path class="t" d="M64.99,131.505a11.844,11.844,0,0,0-7.7,2.3,7.41,7.41,0,0,0-2.712,4.953l-2.485-6.709H41.752L29.3,165.675h8.717l2.14-6.127h13.56l2.117,6.127h7.932c.4.023.807.036,1.228.036q5.436,0,8.34-2.562,2.927-2.562,2.927-7.353a8.119,8.119,0,0,0-1.8-5.344,8.787,8.787,0,0,0-5-2.937,7.941,7.941,0,0,0,4.423-2.672,7.326,7.326,0,0,0,1.606-4.792,7.659,7.659,0,0,0-2.795-6.249q-2.795-2.3-7.7-2.3Zm0,3.533a6.47,6.47,0,0,1,4.467,1.435,5.719,5.719,0,0,1,0,7.994A6.47,6.47,0,0,1,64.99,145.9a6.505,6.505,0,0,1-4.489-1.436,5.833,5.833,0,0,1,0-7.994A6.505,6.505,0,0,1,64.99,135.038Zm-18.057,4.891,4.6,13.379H42.316Zm10.322,6.057a8.73,8.73,0,0,0,3.29,1.528,10.579,10.579,0,0,0-2.4.862Zm7.735,3.427a7,7,0,0,1,5,1.7,6.913,6.913,0,0,1,0,9.363,7.043,7.043,0,0,1-5,1.7,9.8,9.8,0,0,1-1.8-.157L59.4,151.775a5.46,5.46,0,0,1,.6-.661,7.043,7.043,0,0,1,5-1.7Z" transform="translate(-29.296 -131.505)"/></g><g transform="translate(26.665 15.921)"><path class="u" d="M-439.818,365.444v22.78a8.645,8.645,0,0,1-.464,3.358,3.139,3.139,0,0,1-3.182,1.679q-2.431,0-3.182-1.525a14.49,14.49,0,0,1-.818-5.325v-.751h-6.43v.751q0,5.745,2.165,9.081,2.165,3.314,8.507,3.314t8.772-4.11a12.918,12.918,0,0,0,1.436-6.584V375.8h.856v22.979h6.449v-33.32h-5.234a5.684,5.684,0,0,1-.243,1.333,5.824,5.824,0,0,1-1.236,2.39,5.52,5.52,0,0,1-.591.557v-4.3Z" transform="translate(453.893 -365.444)"/></g><path class="v" d="M16.235,148.559v33.428h6.509V159.377q0-.975-.022-2.721-.022-1.769-.022-2.721l6.282,28.054h6.781l6.327-28.054q0,.953-.022,2.721-.022,1.746-.022,2.721v22.611h6.509v-4.941a8.757,8.757,0,0,0,1.958,2.31,11.627,11.627,0,0,0,7.711,2.517q5.828,0,8.754-3.583a12.524,12.524,0,0,0,2.926-8.142q0-5.239-3.039-7.983a10.286,10.286,0,0,0-7.121-2.744,9.891,9.891,0,0,0-3.424.522,13.5,13.5,0,0,0-2.336,1.293l1.179-7.189H68.612v-5.488H50.491l-1.935,15.2v-15.2H38.509l-6.033,26.285L26.4,148.559Zm42.077,16.125a4.121,4.121,0,0,1,3.674,1.746,7.333,7.333,0,0,1,1.179,4.241,6.929,6.929,0,0,1-1.27,4.264,4.265,4.265,0,0,1-3.651,1.678,4.2,4.2,0,0,1-3.175-1.134,6.306,6.306,0,0,1-1.474-3.266H48.552v-5.471L53.98,167a4.057,4.057,0,0,1,2.291-2.018,6.323,6.323,0,0,1,2.041-.295Z" transform="translate(0 -19.383)"/><g transform="translate(191.59 127.906)"><path class="w" d="M-234.944,142.174a9.712,9.712,0,0,0-5.31,1.41c-.041.026-.079.055-.119.081v-1.447h-6.769v22.66a8.6,8.6,0,0,1-.462,3.341,3.123,3.123,0,0,1-3.165,1.67q-2.418,0-3.165-1.516a14.411,14.411,0,0,1-.813-5.3v-.747h-6.4v.747q0,5.714,2.154,9.033,2.154,3.3,8.462,3.3,5.477,0,8.02-3.084a9.623,9.623,0,0,0,7.365,2.943q5.618,0,8.283-3.415a12.457,12.457,0,0,0,2.666-7.887,10.3,10.3,0,0,0-2.732-7.381,9.124,9.124,0,0,0-6.962-2.886,9.143,9.143,0,0,0-3.525.639,7.048,7.048,0,0,0-2.71,2.027,21.328,21.328,0,0,1,.969-5.6q1.3-3.437,4.362-3.437a3.447,3.447,0,0,1,3.062,1.5,3.2,3.2,0,0,1,.595,1.7h6.256a8.63,8.63,0,0,0-2.974-6.058,10.456,10.456,0,0,0-7.094-2.291Zm-.331,16.545a4.357,4.357,0,0,1,3.348,1.5,6.075,6.075,0,0,1,1.366,4.274,6.563,6.563,0,0,1-1.212,4.1,3.9,3.9,0,0,1-3.283,1.564,4.427,4.427,0,0,1-3.525-1.63,6.265,6.265,0,0,1-1.388-4.208q0-3.195,1.851-4.627a4.472,4.472,0,0,1,2.842-.969Z" transform="translate(261.143 -142.174)"/></g><path class="x" d="M33.168,196.374q-5.976,0-9.061,2.806a9.125,9.125,0,0,0-3.084,7.047q0,4.648,3.192,6.833a21.116,21.116,0,0,0,6.812,2.42l3.342.75a14.742,14.742,0,0,1,4.305,1.478,2.7,2.7,0,0,1,1.371,2.42,3.664,3.664,0,0,1-2.763,3.663,11.618,11.618,0,0,1-3.791.514q-3.9,0-5.5-1.949a6.483,6.483,0,0,1-1.178-3.234h-6.3a9.39,9.39,0,0,0,3.534,7.754q3.534,2.806,9.7,2.806,6.041,0,9.339-2.849a10.263,10.263,0,0,0,1.634-1.776,7.778,7.778,0,0,0,2.234,2.586,10.619,10.619,0,0,0,6.469,2.12q7.551,0,10.377-7.4a27.456,27.456,0,0,0,1.479-9.693,25.189,25.189,0,0,0-1.545-9.648q-2.716-6.469-10.024-6.469a10.076,10.076,0,0,0-7.727,3.2,10.4,10.4,0,0,0-1.672,2.4,8.735,8.735,0,0,0-2.639-3.129,13.692,13.692,0,0,0-8.5-2.656Zm20.807,5.438a4.178,4.178,0,0,1,3.467,1.59,6.669,6.669,0,0,1,1.28,4.3q0,3.378-2.142,4.747a4.861,4.861,0,0,1-6.028-.663,6.759,6.759,0,0,1-1.148-4.283q0-3.378,1.81-4.791a4.322,4.322,0,0,1,2.76-.905Zm-21.256.046a8.333,8.333,0,0,1,3.834.793,4.529,4.529,0,0,1,2.485,4.048h4.045c-.038.449-.058.909-.058,1.383q0,4.968,2.959,7.618a9.914,9.914,0,0,0,6.778,2.627,8.316,8.316,0,0,0,4.349-1.06,6.8,6.8,0,0,0,1.833-1.656,20.093,20.093,0,0,1-.861,5.542Q56.823,224.6,53.71,224.6a3.692,3.692,0,0,1-2.583-.883,3.788,3.788,0,0,1-1.192-2.3H46.251a10.216,10.216,0,0,0,.155-1.781,7.72,7.72,0,0,0-2.827-6.447,14.066,14.066,0,0,0-5.4-2.292L32.74,209.59a18.355,18.355,0,0,1-4.113-1.307,2.717,2.717,0,0,1-1.5-2.528,3.274,3.274,0,0,1,1.521-2.87,7.159,7.159,0,0,1,4.07-1.028Z" transform="translate(0 51.689)"/><g transform="translate(179.941 247.038)"><path class="y" d="M90.506,88.855q-6.737,0-10.3,3.667-4.776,4.328-4.776,12.963,0,8.464,4.776,12.963,3.561,3.667,10.3,3.667t10.3-3.667q4.755-4.5,4.755-12.963a23.55,23.55,0,0,0-.734-6.1h1.6v22.384h6.536v-3.2q2.549,4,8.5,4.006,6.2,0,8.685-4.342,2.507-4.343,2.507-12.379t-2.507-12.4q-2.485-4.365-8.685-4.365-5.952,0-8.5,4.026v-3.8h-5.305a5.343,5.343,0,0,1-.246,1.3,5.6,5.6,0,0,1-1.254,2.328,5.967,5.967,0,0,1-3.134,1.7c-.095.021-.2.041-.311.061a12.816,12.816,0,0,0-1.905-2.177q-3.561-3.667-10.3-3.667Zm30.951,5.491a3.594,3.594,0,0,1,3.716,2.82,30.952,30.952,0,0,1,.9,8.685,31.429,31.429,0,0,1-.9,8.573,3.624,3.624,0,0,1-3.716,2.955,3.693,3.693,0,0,1-3.761-2.955,30.7,30.7,0,0,1-.918-8.573,30.233,30.233,0,0,1,.918-8.685,3.665,3.665,0,0,1,3.761-2.82Zm-30.951.073a7.45,7.45,0,0,1,6.183,2.9q2.3,2.878,2.3,8.166,0,5.309-2.3,8.187a7.472,7.472,0,0,1-6.183,2.878,7.591,7.591,0,0,1-6.226-2.878q-2.324-2.878-2.324-8.187T84.28,97.3A7.591,7.591,0,0,1,90.506,94.42Z" transform="translate(-75.432 -88.855)"/></g><g transform="translate(362.938 248.355)"><path class="z" d="M36.936,54.731V88.05h6.488V64.383L57.031,88.05h6.963V65.357h1.793v22.6h6.6V65.443H75v22.6h6.6V55.271H76.241a5.4,5.4,0,0,1-.249,1.311,5.657,5.657,0,0,1-1.266,2.351,5.776,5.776,0,0,1-2.339,1.482V55.185H67.03a5.4,5.4,0,0,1-.249,1.311,5.274,5.274,0,0,1-2.787,3.484V54.731H57.506v23.26L44.237,54.731Z" transform="translate(-36.936 -54.731)"/></g><g transform="translate(547.85 248.348)"><path class="aa" d="M-175.677,238.572v32.833h14.145q7.44,0,11-6.126a21.824,21.824,0,0,0,2.628-11.093,25.311,25.311,0,0,0-.586-5.251h1.348v22.521h26.017V265.8h-14.255a7.383,7.383,0,0,1,1.486-1.779q.9-.766,3.311-2.477l2.567-1.824a21.542,21.542,0,0,0,4.662-4.167,10.289,10.289,0,0,0,2.162-6.441,9.893,9.893,0,0,0-3.062-7.59,11.539,11.539,0,0,0-8.243-2.882q-5.374,0-8.067,3.288V238.8H-145.9a5.375,5.375,0,0,1-.248,1.306,5.637,5.637,0,0,1-1.261,2.342,5.956,5.956,0,0,1-3.009,1.675c-.142-.227-.29-.453-.446-.675a10.84,10.84,0,0,0-5.591-4.166,17.255,17.255,0,0,0-5.079-.713Zm43.5,5.5a4.044,4.044,0,0,1,3.288,1.374,5.19,5.19,0,0,1,1.149,3.446,6.723,6.723,0,0,1-2,4.684,47.574,47.574,0,0,1-5.743,4.549,24.666,24.666,0,0,0-5.072,4.593V250.265h3.676a10.837,10.837,0,0,1,.721-4.009,4.01,4.01,0,0,1,3.986-2.184Zm-36.839.2h6.326q4.678,0,6.237,2.7,1.582,2.673,1.582,7.685a16.889,16.889,0,0,1-1.047,6.259q-1.916,4.789-6.772,4.789h-6.326Z" transform="translate(175.677 -238.572)"/></g><path class="ab" d="M115.629,15.9c-.317,0-.624.011-.927.029V15.91H91.135v33.2h6.9V35.169h14.591V29.4H98.036V21.751h8.05a17.714,17.714,0,0,0-1.1,5.933h6.246a11.117,11.117,0,0,1,.722-4.066,3.608,3.608,0,0,1,1.964-1.866h.785v-.232a6.242,6.242,0,0,1,1.242-.118,4.027,4.027,0,0,1,3.293,1.394,5.308,5.308,0,0,1,1.15,3.5,6.864,6.864,0,0,1-2.007,4.751,47.739,47.739,0,0,1-5.75,4.615q-5.119,3.7-6.495,7.013a15.731,15.731,0,0,0-1.511,6.51h22.392V43.446H112.743a7.468,7.468,0,0,1,1.488-1.8q.9-.777,3.315-2.513l2.571-1.85a21.668,21.668,0,0,0,4.668-4.226,10.526,10.526,0,0,0,2.165-6.534,10.1,10.1,0,0,0-3.067-7.7,11.465,11.465,0,0,0-8.254-2.924Z" transform="translate(102.933)"/><g transform="translate(364.461 16.359)"><path class="ac" d="M102.6,63.742a12.807,12.807,0,0,0-4.205.6,8.525,8.525,0,0,0-2.959,1.736,11.285,11.285,0,0,0-1.51,1.771V63.937h-9.98L77.95,90.046,71.913,63.937H61.82V97.142h6.465V74.683q0-.969-.023-2.7-.022-1.757-.023-2.7l6.24,27.866h6.736L87.5,69.276q0,.946-.023,2.7-.022,1.735-.023,2.7V97.142h6.465V93.59q2.8,3.366,8.741,3.368,5.562,0,8.388-3.092a10.36,10.36,0,0,0,2.847-7.208,7.961,7.961,0,0,0-2.425-6.141,4.576,4.576,0,0,0-2.492-1.491,5.773,5.773,0,0,0,2.225-1.668,7.1,7.1,0,0,0,1.691-4.806,7.92,7.92,0,0,0-2.848-6.407,11.112,11.112,0,0,0-7.453-2.4Zm-.2,5.162a3.912,3.912,0,0,1,3.026,1.157,4.2,4.2,0,0,1,1.09,3q0,2.848-2.113,3.782a12.006,12.006,0,0,1-4.316.6v4.539a13.1,13.1,0,0,1,4.627.6,4.148,4.148,0,0,1,2.581,4.249,4.769,4.769,0,0,1-1.4,3.693A4.642,4.642,0,0,1,102.64,91.8a4.269,4.269,0,0,1-4.205-2.336,7.255,7.255,0,0,1-.623-3.2H93.921V74.132h4.158a6.086,6.086,0,0,1,1-3.8,3.874,3.874,0,0,1,3.315-1.424Z" transform="translate(-61.82 -63.742)"/></g><g transform="translate(365.179 127.858)"><path class="ad" d="M349.586-105.832v22.541a8.554,8.554,0,0,1-.459,3.323,3.107,3.107,0,0,1-3.148,1.662q-2.4,0-3.148-1.509a14.338,14.338,0,0,1-.809-5.269v-.743h-6.362v.743q0,5.684,2.143,8.986,2.143,3.279,8.417,3.279t8.68-4.067A12.782,12.782,0,0,0,356.32-83.4v-16.57h11.2a43.6,43.6,0,0,0-5.986,8.285Q356-82.1,355.705-73.228h6.737a31.186,31.186,0,0,1,1.115-7.283,45.174,45.174,0,0,1,2.5-7.51,44.742,44.742,0,0,1,4.347-7.579,40.733,40.733,0,0,1,4.051-5.121V-105.8H356.32v-.035Z" transform="translate(-335.659 105.832)"/></g></g><g transform="translate(40.5 120.5)"><circle class="ae" cx="40.5" cy="40.5" r="40.5" transform="translate(81 212)"/><line class="m" y1="30" transform="translate(121.5 170.5)"/><line class="m" y1="30" transform="translate(121.5 304.5)"/><line class="m" y1="30" transform="translate(179.107 311.213) rotate(135)"/><line class="m" y1="30" transform="translate(180.107 195) rotate(45)"/><line class="m" y1="30" transform="translate(85.107 290) rotate(45)"/><line class="m" y1="30" transform="translate(84.107 216.213) rotate(135)"/><line class="m" y1="30" transform="translate(203.5 252.5) rotate(90)"/><line class="m" y1="30" transform="translate(69.5 252.5) rotate(90)"/></g><g transform="translate(18.714 797.714)"><g transform="translate(49.286 -183.714)"><circle class="ae" cx="32.535" cy="32.535" r="32.535" transform="translate(33.339 33.339)"/><line class="m" y1="24.1" transform="translate(65.874)"/><line class="m" y1="24.1" transform="translate(112.152 113.041) rotate(135)"/><line class="m" y1="24.1" transform="translate(112.955 19.682) rotate(45)"/><line class="m" y1="24.1" transform="translate(36.638 95.999) rotate(45)"/><line class="m" y1="24.1" transform="translate(35.834 36.723) rotate(135)"/><line class="m" y1="24.1" transform="translate(24.1 65.874) rotate(90)"/></g><g transform="translate(57.937 -133.369)"><g class="k" transform="translate(0 23.332)"><path class="af" d="M40.183,0C62.375,0,80.365,12.38,80.365,27.653S62.375,55.305,40.183,55.305,0,42.925,0,27.653,17.99,0,40.183,0Z"/><path class="ag" d="M 40.18259048461914 9.999996185302734 C 22.39553070068359 9.999996185302734 9.999992370605469 19.30313491821289 9.999992370605469 27.65253448486328 C 9.999992370605469 36.00193405151367 22.39553070068359 45.30507659912109 40.18259048461914 45.30507659912109 C 57.96963119506836 45.30507659912109 70.36517333984375 36.00193405151367 70.36517333984375 27.65253448486328 C 70.36517333984375 19.30313491821289 57.96963119506836 9.999996185302734 40.18259048461914 9.999996185302734 M 40.18259048461914 -3.814697265625e-06 C 62.37480926513672 -3.814697265625e-06 80.36517333984375 12.38045501708984 80.36517333984375 27.65253448486328 C 80.36517333984375 42.92461395263672 62.37480926513672 55.30507278442383 40.18259048461914 55.30507278442383 C 17.99037170410156 55.30507278442383 -7.62939453125e-06 42.92461395263672 -7.62939453125e-06 27.65253448486328 C -7.62939453125e-06 12.38045501708984 17.99037170410156 -3.814697265625e-06 40.18259048461914 -3.814697265625e-06 Z"/></g><g class="k" transform="translate(34.566 3.457)"><path class="af" d="M40.183,0C62.375,0,80.365,15.282,80.365,34.134S62.375,68.267,40.183,68.267,0,52.985,0,34.134,17.99,0,40.183,0Z"/><path class="ag" d="M 40.18259048461914 10 C 23.53985214233398 10 9.999992370605469 20.82627868652344 9.999992370605469 34.13359832763672 C 9.999992370605469 47.44091796875 23.53985214233398 58.26719665527344 40.18259048461914 58.26719665527344 C 56.82533264160156 58.26719665527344 70.36517333984375 47.44091796875 70.36517333984375 34.13359832763672 C 70.36517333984375 20.82627868652344 56.82533264160156 10 40.18259048461914 10 M 40.18259048461914 0 C 62.37480926513672 0 80.36517333984375 15.28213882446289 80.36517333984375 34.13359832763672 C 80.36517333984375 52.98505783081055 62.37480926513672 68.26719665527344 40.18259048461914 68.26719665527344 C 17.99037170410156 68.26719665527344 -7.62939453125e-06 52.98505783081055 -7.62939453125e-06 34.13359832763672 C -7.62939453125e-06 15.28213882446289 17.99037170410156 0 40.18259048461914 0 Z"/></g><g class="k" transform="translate(69.131 32.837)"><path class="af" d="M39.751,0C61.7,0,79.5,10.833,79.5,24.2s-17.8,24.2-39.751,24.2S0,37.559,0,24.2,17.8,0,39.751,0Z"/><path class="ag" d="M 39.75052261352539 10.00000762939453 C 21.58958435058594 10.00000762939453 10 18.40780830383301 10 24.19596862792969 C 10 29.98412895202637 21.58958435058594 38.39192962646484 39.75052261352539 38.39192962646484 C 57.91146087646484 38.39192962646484 69.50104522705078 29.98412895202637 69.50104522705078 24.19596862792969 C 69.50104522705078 18.40780830383301 57.91146087646484 10.00000762939453 39.75052261352539 10.00000762939453 M 39.75052261352539 7.62939453125e-06 C 61.70412445068359 7.62939453125e-06 79.50104522705078 10.83290863037109 79.50104522705078 24.19596862792969 C 79.50104522705078 37.55902862548828 61.70412445068359 48.39192962646484 39.75052261352539 48.39192962646484 C 17.79690170288086 48.39192962646484 0 37.55902862548828 0 24.19596862792969 C 0 10.83290863037109 17.79690170288086 7.62939453125e-06 39.75052261352539 7.62939453125e-06 Z"/></g><g class="k" transform="translate(75.18 0)"><path class="af" d="M25.492,0C39.571,0,50.984,10.446,50.984,23.332S39.571,46.664,25.492,46.664,0,36.218,0,23.332,11.413,0,25.492,0Z"/><path class="ag" d="M 25.4921817779541 9.999992370605469 C 16.94976425170898 9.999992370605469 10 15.98062705993652 10 23.33182716369629 C 10 30.68302726745605 16.94976425170898 36.66365814208984 25.4921817779541 36.66365814208984 C 34.03459930419922 36.66365814208984 40.98436737060547 30.68302726745605 40.98436737060547 23.33182716369629 C 40.98436737060547 15.98062705993652 34.03459930419922 9.999992370605469 25.4921817779541 9.999992370605469 M 25.4921817779541 -7.62939453125e-06 C 39.57111358642578 -7.62939453125e-06 50.9843635559082 10.44601058959961 50.9843635559082 23.33182716369629 C 50.9843635559082 36.21764373779297 39.57111358642578 46.66366195678711 25.4921817779541 46.66366195678711 C 11.41323089599609 46.66366195678711 0 36.21764373779297 0 23.33182716369629 C 0 10.44601058959961 11.41323089599609 -7.62939453125e-06 25.4921817779541 -7.62939453125e-06 Z"/></g><path class="l" d="M32.648,0C50.68,0,65.3,9.023,65.3,20.153S50.68,40.305,32.648,40.305,0,31.283,0,20.153,14.617,0,32.648,0Z" transform="translate(7.777 31.419)"/><path class="l" d="M31.28,0C48.556,0,62.56,10.059,62.56,22.468s-14,22.468-31.28,22.468S0,34.876,0,22.468,14,0,31.28,0Z" transform="translate(44.215 12.098)"/><path class="l" d="M33.149,0C51.457,0,66.3,8.262,66.3,18.454S51.457,36.908,33.149,36.908,0,28.646,0,18.454,14.841,0,33.149,0Z" transform="translate(74.316 37.59)"/><path class="l" d="M17.543,0c9.689,0,17.543,7.5,17.543,16.742S27.232,33.483,17.543,33.483,0,25.988,0,16.742,7.854,0,17.543,0Z" transform="translate(83.171 6.425)"/><path class="l" d="M13,0c7.177,0,13,5.5,13,12.292S20.172,24.585,13,24.585,0,19.081,0,12.292,5.818,0,13,0Z" transform="translate(60.49 40.126)"/></g></g></g></svg>