<svg xmlns="http://www.w3.org/2000/svg" xmlns:xlink="http://www.w3.org/1999/xlink" viewBox="0 0 432.166 269.666"><defs><style>.a{fill:#beb3b3;stroke:#beb3b3;opacity:0.49;}.b,.f{fill:none;}.b,.d{stroke:#fff;}.b,.c{stroke-width:3px;font-size:27px;font-family:Helvetica;}.b{opacity:0.75;}.c{fill:#5f9ea0;stroke:#5f9ea0;opacity:0.88;}.d{fill:#fff;}.e{stroke:none;}.g{filter:url(#ds);}.h{filter:url(#dq);}.i{filter:url(#do);}.j{filter:url(#dm);}.k{filter:url(#dk);}.l{filter:url(#di);}.m{filter:url(#dg);}.n{filter:url(#de);}.o{filter:url(#dc);}.p{filter:url(#da);}.q{filter:url(#cy);}.r{filter:url(#cw);}.s{filter:url(#cu);}.t{filter:url(#cs);}.u{filter:url(#cq);}.v{filter:url(#co);}.w{filter:url(#cm);}.x{filter:url(#ck);}.y{filter:url(#ci);}.z{filter:url(#cg);}.aa{filter:url(#ce);}.ab{filter:url(#cc);}.ac{filter:url(#ca);}.ad{filter:url(#by);}.ae{filter:url(#bw);}.af{filter:url(#bu);}.ag{filter:url(#bs);}.ah{filter:url(#bq);}.ai{filter:url(#bo);}.aj{filter:url(#bm);}.ak{filter:url(#bk);}.al{filter:url(#bi);}.am{filter:url(#bg);}.an{filter:url(#be);}.ao{filter:url(#bc);}.ap{filter:url(#ba);}.aq{filter:url(#ay);}.ar{filter:url(#aw);}.as{filter:url(#au);}.at{filter:url(#as);}.au{filter:url(#aq);}.av{filter:url(#ao);}.aw{filter:url(#am);}.ax{filter:url(#ak);}.ay{filter:url(#ai);}.az{filter:url(#ag);}.ba{filter:url(#ae);}.bb{filter:url(#ac);}.bc{filter:url(#aa);}.bd{filter:url(#y);}.be{filter:url(#w);}.bf{filter:url(#u);}.bg{filter:url(#s);}.bh{filter:url(#q);}.bi{filter:url(#o);}.bj{filter:url(#m);}.bk{filter:url(#k);}.bl{filter:url(#i);}.bm{filter:url(#g);}.bn{filter:url(#e);}.bo{filter:url(#c);}.bp{filter:url(#a);}</style><filter id="a" x="126.946" y="0" width="40" height="56" filterUnits="userSpaceOnUse"><feOffset dy="3" input="SourceAlpha"/><feGaussianBlur stdDeviation="3" result="b"/><feFlood flood-opacity="0.549"/><feComposite operator="in" in2="b"/><feComposite in="SourceGraphic"/></filter><filter id="c" x="138.273" y="0" width="40" height="56" filterUnits="userSpaceOnUse"><feOffset dy="3" input="SourceAlpha"/><feGaussianBlur stdDeviation="3" result="d"/><feFlood flood-opacity="0.549"/><feComposite operator="in" in2="d"/><feComposite in="SourceGraphic"/></filter><filter id="e" x="190.42" y="0" width="40" height="56" filterUnits="userSpaceOnUse"><feOffset dy="3" input="SourceAlpha"/><feGaussianBlur stdDeviation="3" result="f"/><feFlood flood-opacity="0.549"/><feComposite operator="in" in2="f"/><feComposite in="SourceGraphic"/></filter><filter id="g" x="201.746" y="0" width="40" height="56" filterUnits="userSpaceOnUse"><feOffset dy="3" input="SourceAlpha"/><feGaussianBlur stdDeviation="3" result="h"/><feFlood flood-opacity="0.549"/><feComposite operator="in" in2="h"/><feComposite in="SourceGraphic"/></filter><filter id="i" x="253.893" y="0" width="40" height="56" filterUnits="userSpaceOnUse"><feOffset dy="3" input="SourceAlpha"/><feGaussianBlur stdDeviation="3" result="j"/><feFlood flood-opacity="0.549"/><feComposite operator="in" in2="j"/><feComposite in="SourceGraphic"/></filter><filter id="k" x="265.22" y="0" width="40" height="56" filterUnits="userSpaceOnUse"><feOffset dy="3" input="SourceAlpha"/><feGaussianBlur stdDeviation="3" result="l"/><feFlood flood-opacity="0.549"/><feComposite operator="in" in2="l"/><feComposite in="SourceGraphic"/></filter><filter id="m" x="317.366" y="0" width="40" height="56" filterUnits="userSpaceOnUse"><feOffset dy="3" input="SourceAlpha"/><feGaussianBlur stdDeviation="3" result="n"/><feFlood flood-opacity="0.549"/><feComposite operator="in" in2="n"/><feComposite in="SourceGraphic"/></filter><filter id="o" x="328.693" y="0" width="40" height="56" filterUnits="userSpaceOnUse"><feOffset dy="3" input="SourceAlpha"/><feGaussianBlur stdDeviation="3" result="p"/><feFlood flood-opacity="0.549"/><feComposite operator="in" in2="p"/><feComposite in="SourceGraphic"/></filter><filter id="q" x="380.839" y="0" width="40" height="56" filterUnits="userSpaceOnUse"><feOffset dy="3" input="SourceAlpha"/><feGaussianBlur stdDeviation="3" result="r"/><feFlood flood-opacity="0.549"/><feComposite operator="in" in2="r"/><feComposite in="SourceGraphic"/></filter><filter id="s" x="392.166" y="0" width="40" height="56" filterUnits="userSpaceOnUse"><feOffset dy="3" input="SourceAlpha"/><feGaussianBlur stdDeviation="3" result="t"/><feFlood flood-opacity="0.549"/><feComposite operator="in" in2="t"/><feComposite in="SourceGraphic"/></filter><filter id="u" x="0" y="53.416" width="40" height="56" filterUnits="userSpaceOnUse"><feOffset dy="3" input="SourceAlpha"/><feGaussianBlur stdDeviation="3" result="v"/><feFlood flood-opacity="0.549"/><feComposite operator="in" in2="v"/><feComposite in="SourceGraphic"/></filter><filter id="w" x="11.327" y="53.416" width="40" height="56" filterUnits="userSpaceOnUse"><feOffset dy="3" input="SourceAlpha"/><feGaussianBlur stdDeviation="3" result="x"/><feFlood flood-opacity="0.549"/><feComposite operator="in" in2="x"/><feComposite in="SourceGraphic"/></filter><filter id="y" x="63.473" y="53.416" width="40" height="56" filterUnits="userSpaceOnUse"><feOffset dy="3" input="SourceAlpha"/><feGaussianBlur stdDeviation="3" result="z"/><feFlood flood-opacity="0.549"/><feComposite operator="in" in2="z"/><feComposite in="SourceGraphic"/></filter><filter id="aa" x="74.8" y="53.416" width="40" height="56" filterUnits="userSpaceOnUse"><feOffset dy="3" input="SourceAlpha"/><feGaussianBlur stdDeviation="3" result="ab"/><feFlood flood-opacity="0.549"/><feComposite operator="in" in2="ab"/><feComposite in="SourceGraphic"/></filter><filter id="ac" x="126.946" y="53.416" width="40" height="56" filterUnits="userSpaceOnUse"><feOffset dy="3" input="SourceAlpha"/><feGaussianBlur stdDeviation="3" result="ad"/><feFlood flood-opacity="0.549"/><feComposite operator="in" in2="ad"/><feComposite in="SourceGraphic"/></filter><filter id="ae" x="138.273" y="53.416" width="40" height="56" filterUnits="userSpaceOnUse"><feOffset dy="3" input="SourceAlpha"/><feGaussianBlur stdDeviation="3" result="af"/><feFlood flood-opacity="0.549"/><feComposite operator="in" in2="af"/><feComposite in="SourceGraphic"/></filter><filter id="ag" x="190.42" y="53.416" width="40" height="56" filterUnits="userSpaceOnUse"><feOffset dy="3" input="SourceAlpha"/><feGaussianBlur stdDeviation="3" result="ah"/><feFlood flood-opacity="0.549"/><feComposite operator="in" in2="ah"/><feComposite in="SourceGraphic"/></filter><filter id="ai" x="201.746" y="53.416" width="40" height="56" filterUnits="userSpaceOnUse"><feOffset dy="3" input="SourceAlpha"/><feGaussianBlur stdDeviation="3" result="aj"/><feFlood flood-opacity="0.549"/><feComposite operator="in" in2="aj"/><feComposite in="SourceGraphic"/></filter><filter id="ak" x="253.893" y="53.416" width="40" height="56" filterUnits="userSpaceOnUse"><feOffset dy="3" input="SourceAlpha"/><feGaussianBlur stdDeviation="3" result="al"/><feFlood flood-opacity="0.549"/><feComposite operator="in" in2="al"/><feComposite in="SourceGraphic"/></filter><filter id="am" x="265.22" y="53.416" width="40" height="56" filterUnits="userSpaceOnUse"><feOffset dy="3" input="SourceAlpha"/><feGaussianBlur stdDeviation="3" result="an"/><feFlood flood-opacity="0.549"/><feComposite operator="in" in2="an"/><feComposite in="SourceGraphic"/></filter><filter id="ao" x="317.366" y="53.416" width="40" height="56" filterUnits="userSpaceOnUse"><feOffset dy="3" input="SourceAlpha"/><feGaussianBlur stdDeviation="3" result="ap"/><feFlood flood-opacity="0.549"/><feComposite operator="in" in2="ap"/><feComposite in="SourceGraphic"/></filter><filter id="aq" x="328.693" y="53.416" width="40" height="56" filterUnits="userSpaceOnUse"><feOffset dy="3" input="SourceAlpha"/><feGaussianBlur stdDeviation="3" result="ar"/><feFlood flood-opacity="0.549"/><feComposite operator="in" in2="ar"/><feComposite in="SourceGraphic"/></filter><filter id="as" x="380.839" y="53.416" width="40" height="56" filterUnits="userSpaceOnUse"><feOffset dy="3" input="SourceAlpha"/><feGaussianBlur stdDeviation="3" result="at"/><feFlood flood-opacity="0.549"/><feComposite operator="in" in2="at"/><feComposite in="SourceGraphic"/></filter><filter id="au" x="392.166" y="53.416" width="40" height="56" filterUnits="userSpaceOnUse"><feOffset dy="3" input="SourceAlpha"/><feGaussianBlur stdDeviation="3" result="av"/><feFlood flood-opacity="0.549"/><feComposite operator="in" in2="av"/><feComposite in="SourceGraphic"/></filter><filter id="aw" x="0" y="106.833" width="40" height="56" filterUnits="userSpaceOnUse"><feOffset dy="3" input="SourceAlpha"/><feGaussianBlur stdDeviation="3" result="ax"/><feFlood flood-opacity="0.549"/><feComposite operator="in" in2="ax"/><feComposite in="SourceGraphic"/></filter><filter id="ay" x="11.327" y="106.833" width="40" height="56" filterUnits="userSpaceOnUse"><feOffset dy="3" input="SourceAlpha"/><feGaussianBlur stdDeviation="3" result="az"/><feFlood flood-opacity="0.549"/><feComposite operator="in" in2="az"/><feComposite in="SourceGraphic"/></filter><filter id="ba" x="63.473" y="106.833" width="40" height="56" filterUnits="userSpaceOnUse"><feOffset dy="3" input="SourceAlpha"/><feGaussianBlur stdDeviation="3" result="bb"/><feFlood flood-opacity="0.549"/><feComposite operator="in" in2="bb"/><feComposite in="SourceGraphic"/></filter><filter id="bc" x="74.8" y="106.833" width="40" height="56" filterUnits="userSpaceOnUse"><feOffset dy="3" input="SourceAlpha"/><feGaussianBlur stdDeviation="3" result="bd"/><feFlood flood-opacity="0.549"/><feComposite operator="in" in2="bd"/><feComposite in="SourceGraphic"/></filter><filter id="be" x="126.946" y="106.833" width="40" height="56" filterUnits="userSpaceOnUse"><feOffset dy="3" input="SourceAlpha"/><feGaussianBlur stdDeviation="3" result="bf"/><feFlood flood-opacity="0.549"/><feComposite operator="in" in2="bf"/><feComposite in="SourceGraphic"/></filter><filter id="bg" x="138.273" y="106.833" width="40" height="56" filterUnits="userSpaceOnUse"><feOffset dy="3" input="SourceAlpha"/><feGaussianBlur stdDeviation="3" result="bh"/><feFlood flood-opacity="0.549"/><feComposite operator="in" in2="bh"/><feComposite in="SourceGraphic"/></filter><filter id="bi" x="190.42" y="106.833" width="40" height="56" filterUnits="userSpaceOnUse"><feOffset dy="3" input="SourceAlpha"/><feGaussianBlur stdDeviation="3" result="bj"/><feFlood flood-opacity="0.549"/><feComposite operator="in" in2="bj"/><feComposite in="SourceGraphic"/></filter><filter id="bk" x="201.746" y="106.833" width="40" height="56" filterUnits="userSpaceOnUse"><feOffset dy="3" input="SourceAlpha"/><feGaussianBlur stdDeviation="3" result="bl"/><feFlood flood-opacity="0.549"/><feComposite operator="in" in2="bl"/><feComposite in="SourceGraphic"/></filter><filter id="bm" x="253.893" y="106.833" width="40" height="56" filterUnits="userSpaceOnUse"><feOffset dy="3" input="SourceAlpha"/><feGaussianBlur stdDeviation="3" result="bn"/><feFlood flood-opacity="0.549"/><feComposite operator="in" in2="bn"/><feComposite in="SourceGraphic"/></filter><filter id="bo" x="265.22" y="106.833" width="40" height="56" filterUnits="userSpaceOnUse"><feOffset dy="3" input="SourceAlpha"/><feGaussianBlur stdDeviation="3" result="bp"/><feFlood flood-opacity="0.549"/><feComposite operator="in" in2="bp"/><feComposite in="SourceGraphic"/></filter><filter id="bq" x="317.366" y="106.833" width="40" height="56" filterUnits="userSpaceOnUse"><feOffset dy="3" input="SourceAlpha"/><feGaussianBlur stdDeviation="3" result="br"/><feFlood flood-opacity="0.549"/><feComposite operator="in" in2="br"/><feComposite in="SourceGraphic"/></filter><filter id="bs" x="328.693" y="106.833" width="40" height="56" filterUnits="userSpaceOnUse"><feOffset dy="3" input="SourceAlpha"/><feGaussianBlur stdDeviation="3" result="bt"/><feFlood flood-opacity="0.549"/><feComposite operator="in" in2="bt"/><feComposite in="SourceGraphic"/></filter><filter id="bu" x="380.839" y="106.833" width="40" height="56" filterUnits="userSpaceOnUse"><feOffset dy="3" input="SourceAlpha"/><feGaussianBlur stdDeviation="3" result="bv"/><feFlood flood-opacity="0.549"/><feComposite operator="in" in2="bv"/><feComposite in="SourceGraphic"/></filter><filter id="bw" x="392.166" y="106.833" width="40" height="56" filterUnits="userSpaceOnUse"><feOffset dy="3" input="SourceAlpha"/><feGaussianBlur stdDeviation="3" result="bx"/><feFlood flood-opacity="0.549"/><feComposite operator="in" in2="bx"/><feComposite in="SourceGraphic"/></filter><filter id="by" x="0" y="160.249" width="40" height="56" filterUnits="userSpaceOnUse"><feOffset dy="3" input="SourceAlpha"/><feGaussianBlur stdDeviation="3" result="bz"/><feFlood flood-opacity="0.549"/><feComposite operator="in" in2="bz"/><feComposite in="SourceGraphic"/></filter><filter id="ca" x="11.327" y="160.249" width="40" height="56" filterUnits="userSpaceOnUse"><feOffset dy="3" input="SourceAlpha"/><feGaussianBlur stdDeviation="3" result="cb"/><feFlood flood-opacity="0.549"/><feComposite operator="in" in2="cb"/><feComposite in="SourceGraphic"/></filter><filter id="cc" x="63.473" y="160.249" width="40" height="56" filterUnits="userSpaceOnUse"><feOffset dy="3" input="SourceAlpha"/><feGaussianBlur stdDeviation="3" result="cd"/><feFlood flood-opacity="0.549"/><feComposite operator="in" in2="cd"/><feComposite in="SourceGraphic"/></filter><filter id="ce" x="74.8" y="160.249" width="40" height="56" filterUnits="userSpaceOnUse"><feOffset dy="3" input="SourceAlpha"/><feGaussianBlur stdDeviation="3" result="cf"/><feFlood flood-opacity="0.549"/><feComposite operator="in" in2="cf"/><feComposite in="SourceGraphic"/></filter><filter id="cg" x="126.946" y="160.249" width="40" height="56" filterUnits="userSpaceOnUse"><feOffset dy="3" input="SourceAlpha"/><feGaussianBlur stdDeviation="3" result="ch"/><feFlood flood-opacity="0.549"/><feComposite operator="in" in2="ch"/><feComposite in="SourceGraphic"/></filter><filter id="ci" x="138.273" y="160.249" width="40" height="56" filterUnits="userSpaceOnUse"><feOffset dy="3" input="SourceAlpha"/><feGaussianBlur stdDeviation="3" result="cj"/><feFlood flood-opacity="0.549"/><feComposite operator="in" in2="cj"/><feComposite in="SourceGraphic"/></filter><filter id="ck" x="190.42" y="160.249" width="40" height="56" filterUnits="userSpaceOnUse"><feOffset dy="3" input="SourceAlpha"/><feGaussianBlur stdDeviation="3" result="cl"/><feFlood flood-opacity="0.549"/><feComposite operator="in" in2="cl"/><feComposite in="SourceGraphic"/></filter><filter id="cm" x="201.746" y="160.249" width="40" height="56" filterUnits="userSpaceOnUse"><feOffset dy="3" input="SourceAlpha"/><feGaussianBlur stdDeviation="3" result="cn"/><feFlood flood-opacity="0.549"/><feComposite operator="in" in2="cn"/><feComposite in="SourceGraphic"/></filter><filter id="co" x="253.893" y="160.249" width="40" height="56" filterUnits="userSpaceOnUse"><feOffset dy="3" input="SourceAlpha"/><feGaussianBlur stdDeviation="3" result="cp"/><feFlood flood-opacity="0.549"/><feComposite operator="in" in2="cp"/><feComposite in="SourceGraphic"/></filter><filter id="cq" x="265.22" y="160.249" width="40" height="56" filterUnits="userSpaceOnUse"><feOffset dy="3" input="SourceAlpha"/><feGaussianBlur stdDeviation="3" result="cr"/><feFlood flood-opacity="0.549"/><feComposite operator="in" in2="cr"/><feComposite in="SourceGraphic"/></filter><filter id="cs" x="317.366" y="160.249" width="40" height="56" filterUnits="userSpaceOnUse"><feOffset dy="3" input="SourceAlpha"/><feGaussianBlur stdDeviation="3" result="ct"/><feFlood flood-opacity="0.549"/><feComposite operator="in" in2="ct"/><feComposite in="SourceGraphic"/></filter><filter id="cu" x="328.693" y="160.249" width="40" height="56" filterUnits="userSpaceOnUse"><feOffset dy="3" input="SourceAlpha"/><feGaussianBlur stdDeviation="3" result="cv"/><feFlood flood-opacity="0.549"/><feComposite operator="in" in2="cv"/><feComposite in="SourceGraphic"/></filter><filter id="cw" x="380.839" y="160.249" width="40" height="56" filterUnits="userSpaceOnUse"><feOffset dy="3" input="SourceAlpha"/><feGaussianBlur stdDeviation="3" result="cx"/><feFlood flood-opacity="0.549"/><feComposite operator="in" in2="cx"/><feComposite in="SourceGraphic"/></filter><filter id="cy" x="392.166" y="160.249" width="40" height="56" filterUnits="userSpaceOnUse"><feOffset dy="3" input="SourceAlpha"/><feGaussianBlur stdDeviation="3" result="cz"/><feFlood flood-opacity="0.549"/><feComposite operator="in" in2="cz"/><feComposite in="SourceGraphic"/></filter><filter id="da" x="0" y="213.666" width="40" height="56" filterUnits="userSpaceOnUse"><feOffset dy="3" input="SourceAlpha"/><feGaussianBlur stdDeviation="3" result="db"/><feFlood flood-opacity="0.549"/><feComposite operator="in" in2="db"/><feComposite in="SourceGraphic"/></filter><filter id="dc" x="11.327" y="213.666" width="40" height="56" filterUnits="userSpaceOnUse"><feOffset dy="3" input="SourceAlpha"/><feGaussianBlur stdDeviation="3" result="dd"/><feFlood flood-opacity="0.549"/><feComposite operator="in" in2="dd"/><feComposite in="SourceGraphic"/></filter><filter id="de" x="63.473" y="213.666" width="40" height="56" filterUnits="userSpaceOnUse"><feOffset dy="3" input="SourceAlpha"/><feGaussianBlur stdDeviation="3" result="df"/><feFlood flood-opacity="0.549"/><feComposite operator="in" in2="df"/><feComposite in="SourceGraphic"/></filter><filter id="dg" x="74.8" y="213.666" width="40" height="56" filterUnits="userSpaceOnUse"><feOffset dy="3" input="SourceAlpha"/><feGaussianBlur stdDeviation="3" result="dh"/><feFlood flood-opacity="0.549"/><feComposite operator="in" in2="dh"/><feComposite in="SourceGraphic"/></filter><filter id="di" x="126.946" y="213.666" width="40" height="56" filterUnits="userSpaceOnUse"><feOffset dy="3" input="SourceAlpha"/><feGaussianBlur stdDeviation="3" result="dj"/><feFlood flood-opacity="0.549"/><feComposite operator="in" in2="dj"/><feComposite in="SourceGraphic"/></filter><filter id="dk" x="138.273" y="213.666" width="40" height="56" filterUnits="userSpaceOnUse"><feOffset dy="3" input="SourceAlpha"/><feGaussianBlur stdDeviation="3" result="dl"/><feFlood flood-opacity="0.549"/><feComposite operator="in" in2="dl"/><feComposite in="SourceGraphic"/></filter><filter id="dm" x="190.42" y="213.666" width="40" height="56" filterUnits="userSpaceOnUse"><feOffset dy="3" input="SourceAlpha"/><feGaussianBlur stdDeviation="3" result="dn"/><feFlood flood-opacity="0.549"/><feComposite operator="in" in2="dn"/><feComposite in="SourceGraphic"/></filter><filter id="do" x="201.746" y="213.666" width="40" height="56" filterUnits="userSpaceOnUse"><feOffset dy="3" input="SourceAlpha"/><feGaussianBlur stdDeviation="3" result="dp"/><feFlood flood-opacity="0.549"/><feComposite operator="in" in2="dp"/><feComposite in="SourceGraphic"/></filter><filter id="dq" x="253.893" y="213.666" width="40" height="56" filterUnits="userSpaceOnUse"><feOffset dy="3" input="SourceAlpha"/><feGaussianBlur stdDeviation="3" result="dr"/><feFlood flood-opacity="0.549"/><feComposite operator="in" in2="dr"/><feComposite in="SourceGraphic"/></filter><filter id="ds" x="265.22" y="213.666" width="40" height="56" filterUnits="userSpaceOnUse"><feOffset dy="3" input="SourceAlpha"/><feGaussianBlur stdDeviation="3" result="dt"/><feFlood flood-opacity="0.549"/><feComposite operator="in" in2="dt"/><feComposite in="SourceGraphic"/></filter></defs><g transform="translate(-4 -433.365)"><g class="a" transform="translate(8 651)"><ellipse class="e" cx="20.5" cy="21.5" rx="20.5" ry="21.5"/><ellipse class="f" cx="20.5" cy="21.5" rx="20" ry="21"/></g><g class="bp" transform="matrix(1, 0, 0, 1, 4, 433.37)"><text class="b" transform="translate(138.95 35)"><tspan x="0" y="0">0</tspan></text></g><g class="bo" transform="matrix(1, 0, 0, 1, 4, 433.37)"><text class="c" transform="translate(150.27 35)"><tspan x="0" y="0">1</tspan></text></g><g class="bn" transform="matrix(1, 0, 0, 1, 4, 433.37)"><text class="b" transform="translate(202.42 35)"><tspan x="0" y="0">0</tspan></text></g><g class="bm" transform="matrix(1, 0, 0, 1, 4, 433.37)"><text class="c" transform="translate(213.75 35)"><tspan x="0" y="0">2</tspan></text></g><g class="bl" transform="matrix(1, 0, 0, 1, 4, 433.37)"><text class="b" transform="translate(265.89 35)"><tspan x="0" y="0">0</tspan></text></g><g class="bk" transform="matrix(1, 0, 0, 1, 4, 433.37)"><text class="c" transform="translate(277.22 35)"><tspan x="0" y="0">3</tspan></text></g><g class="bj" transform="matrix(1, 0, 0, 1, 4, 433.37)"><text class="b" transform="translate(329.37 35)"><tspan x="0" y="0">0</tspan></text></g><g class="bi" transform="matrix(1, 0, 0, 1, 4, 433.37)"><text class="c" transform="translate(340.69 35)"><tspan x="0" y="0">4</tspan></text></g><g class="bh" transform="matrix(1, 0, 0, 1, 4, 433.37)"><text class="b" transform="translate(392.84 35)"><tspan x="0" y="0">0</tspan></text></g><g class="bg" transform="matrix(1, 0, 0, 1, 4, 433.37)"><text class="c" transform="translate(404.17 35)"><tspan x="0" y="0">5</tspan></text></g><g class="bf" transform="matrix(1, 0, 0, 1, 4, 433.37)"><text class="b" transform="translate(12 88.42)"><tspan x="0" y="0">0</tspan></text></g><g class="be" transform="matrix(1, 0, 0, 1, 4, 433.37)"><text class="c" transform="translate(23.33 88.42)"><tspan x="0" y="0">6</tspan></text></g><g class="bd" transform="matrix(1, 0, 0, 1, 4, 433.37)"><text class="b" transform="translate(75.47 88.42)"><tspan x="0" y="0">0</tspan></text></g><g class="bc" transform="matrix(1, 0, 0, 1, 4, 433.37)"><text class="c" transform="translate(86.8 88.42)"><tspan x="0" y="0">7</tspan></text></g><g class="bb" transform="matrix(1, 0, 0, 1, 4, 433.37)"><text class="b" transform="translate(138.95 88.42)"><tspan x="0" y="0">0</tspan></text></g><g class="ba" transform="matrix(1, 0, 0, 1, 4, 433.37)"><text class="c" transform="translate(150.27 88.42)"><tspan x="0" y="0">8</tspan></text></g><g class="az" transform="matrix(1, 0, 0, 1, 4, 433.37)"><text class="b" transform="translate(202.42 88.42)"><tspan x="0" y="0">0</tspan></text></g><g class="ay" transform="matrix(1, 0, 0, 1, 4, 433.37)"><text class="c" transform="translate(213.75 88.42)"><tspan x="0" y="0">9</tspan></text></g><g class="ax" transform="matrix(1, 0, 0, 1, 4, 433.37)"><text class="b" transform="translate(265.89 88.42)"><tspan x="0" y="0">1</tspan></text></g><g class="aw" transform="matrix(1, 0, 0, 1, 4, 433.37)"><text class="c" transform="translate(277.22 88.42)"><tspan x="0" y="0">0</tspan></text></g><g class="av" transform="matrix(1, 0, 0, 1, 4, 433.37)"><text class="b" transform="translate(329.37 88.42)"><tspan x="0" y="0">1</tspan></text></g><g class="au" transform="matrix(1, 0, 0, 1, 4, 433.37)"><text class="c" transform="translate(340.69 88.42)"><tspan x="0" y="0">1</tspan></text></g><g class="at" transform="matrix(1, 0, 0, 1, 4, 433.37)"><text class="b" transform="translate(392.84 88.42)"><tspan x="0" y="0">1</tspan></text></g><g class="as" transform="matrix(1, 0, 0, 1, 4, 433.37)"><text class="c" transform="translate(404.17 88.42)"><tspan x="0" y="0">2</tspan></text></g><g class="ar" transform="matrix(1, 0, 0, 1, 4, 433.37)"><text class="b" transform="translate(12 141.83)"><tspan x="0" y="0">1</tspan></text></g><g class="aq" transform="matrix(1, 0, 0, 1, 4, 433.37)"><text class="c" transform="translate(23.33 141.83)"><tspan x="0" y="0">3</tspan></text></g><g class="ap" transform="matrix(1, 0, 0, 1, 4, 433.37)"><text class="b" transform="translate(75.47 141.83)"><tspan x="0" y="0">1</tspan></text></g><g class="ao" transform="matrix(1, 0, 0, 1, 4, 433.37)"><text class="c" transform="translate(86.8 141.83)"><tspan x="0" y="0">4</tspan></text></g><g class="an" transform="matrix(1, 0, 0, 1, 4, 433.37)"><text class="b" transform="translate(138.95 141.83)"><tspan x="0" y="0">1</tspan></text></g><g class="am" transform="matrix(1, 0, 0, 1, 4, 433.37)"><text class="c" transform="translate(150.27 141.83)"><tspan x="0" y="0">5</tspan></text></g><g class="al" transform="matrix(1, 0, 0, 1, 4, 433.37)"><text class="b" transform="translate(202.42 141.83)"><tspan x="0" y="0">1</tspan></text></g><g class="ak" transform="matrix(1, 0, 0, 1, 4, 433.37)"><text class="c" transform="translate(213.75 141.83)"><tspan x="0" y="0">6</tspan></text></g><g class="aj" transform="matrix(1, 0, 0, 1, 4, 433.37)"><text class="b" transform="translate(265.89 141.83)"><tspan x="0" y="0">1</tspan></text></g><g class="ai" transform="matrix(1, 0, 0, 1, 4, 433.37)"><text class="c" transform="translate(277.22 141.83)"><tspan x="0" y="0">7</tspan></text></g><g class="ah" transform="matrix(1, 0, 0, 1, 4, 433.37)"><text class="b" transform="translate(329.37 141.83)"><tspan x="0" y="0">1</tspan></text></g><g class="ag" transform="matrix(1, 0, 0, 1, 4, 433.37)"><text class="c" transform="translate(340.69 141.83)"><tspan x="0" y="0">8</tspan></text></g><g class="af" transform="matrix(1, 0, 0, 1, 4, 433.37)"><text class="b" transform="translate(392.84 141.83)"><tspan x="0" y="0">1</tspan></text></g><g class="ae" transform="matrix(1, 0, 0, 1, 4, 433.37)"><text class="c" transform="translate(404.17 141.83)"><tspan x="0" y="0">9</tspan></text></g><g class="ad" transform="matrix(1, 0, 0, 1, 4, 433.37)"><text class="b" transform="translate(12 195.25)"><tspan x="0" y="0">2</tspan></text></g><g class="ac" transform="matrix(1, 0, 0, 1, 4, 433.37)"><text class="c" transform="translate(23.33 195.25)"><tspan x="0" y="0">0</tspan></text></g><g class="ab" transform="matrix(1, 0, 0, 1, 4, 433.37)"><text class="b" transform="translate(75.47 195.25)"><tspan x="0" y="0">2</tspan></text></g><g class="aa" transform="matrix(1, 0, 0, 1, 4, 433.37)"><text class="c" transform="translate(86.8 195.25)"><tspan x="0" y="0">1</tspan></text></g><g class="z" transform="matrix(1, 0, 0, 1, 4, 433.37)"><text class="b" transform="translate(138.95 195.25)"><tspan x="0" y="0">2</tspan></text></g><g class="y" transform="matrix(1, 0, 0, 1, 4, 433.37)"><text class="c" transform="translate(150.27 195.25)"><tspan x="0" y="0">2</tspan></text></g><g class="x" transform="matrix(1, 0, 0, 1, 4, 433.37)"><text class="b" transform="translate(202.42 195.25)"><tspan x="0" y="0">2</tspan></text></g><g class="w" transform="matrix(1, 0, 0, 1, 4, 433.37)"><text class="c" transform="translate(213.75 195.25)"><tspan x="0" y="0">3</tspan></text></g><g class="v" transform="matrix(1, 0, 0, 1, 4, 433.37)"><text class="b" transform="translate(265.89 195.25)"><tspan x="0" y="0">2</tspan></text></g><g class="u" transform="matrix(1, 0, 0, 1, 4, 433.37)"><text class="c" transform="translate(277.22 195.25)"><tspan x="0" y="0">4</tspan></text></g><g class="t" transform="matrix(1, 0, 0, 1, 4, 433.37)"><text class="b" transform="translate(329.37 195.25)"><tspan x="0" y="0">2</tspan></text></g><g class="s" transform="matrix(1, 0, 0, 1, 4, 433.37)"><text class="c" transform="translate(340.69 195.25)"><tspan x="0" y="0">5</tspan></text></g><g class="r" transform="matrix(1, 0, 0, 1, 4, 433.37)"><text class="b" transform="translate(392.84 195.25)"><tspan x="0" y="0">2</tspan></text></g><g class="q" transform="matrix(1, 0, 0, 1, 4, 433.37)"><text class="c" transform="translate(404.17 195.25)"><tspan x="0" y="0">6</tspan></text></g><g class="p" transform="matrix(1, 0, 0, 1, 4, 433.37)"><text class="b" transform="translate(12 248.67)"><tspan x="0" y="0">2</tspan></text></g><g class="o" transform="matrix(1, 0, 0, 1, 4, 433.37)"><text class="c" transform="translate(23.33 248.67)"><tspan x="0" y="0">7</tspan></text></g><g class="n" transform="matrix(1, 0, 0, 1, 4, 433.37)"><text class="b" transform="translate(75.47 248.67)"><tspan x="0" y="0">2</tspan></text></g><g class="m" transform="matrix(1, 0, 0, 1, 4, 433.37)"><text class="c" transform="translate(86.8 248.67)"><tspan x="0" y="0">8</tspan></text></g><g class="l" transform="matrix(1, 0, 0, 1, 4, 433.37)"><text class="b" transform="translate(138.95 248.67)"><tspan x="0" y="0">2</tspan></text></g><g class="k" transform="matrix(1, 0, 0, 1, 4, 433.37)"><text class="c" transform="translate(150.27 248.67)"><tspan x="0" y="0">9</tspan></text></g><g class="j" transform="matrix(1, 0, 0, 1, 4, 433.37)"><text class="b" transform="translate(202.42 248.67)"><tspan x="0" y="0">3</tspan></text></g><g class="i" transform="matrix(1, 0, 0, 1, 4, 433.37)"><text class="c" transform="translate(213.75 248.67)"><tspan x="0" y="0">0</tspan></text></g><g class="h" transform="matrix(1, 0, 0, 1, 4, 433.37)"><text class="b" transform="translate(265.89 248.67)"><tspan x="0" y="0">3</tspan></text></g><g class="g" transform="matrix(1, 0, 0, 1, 4, 433.37)"><text class="c" transform="translate(277.22 248.67)"><tspan x="0" y="0">1</tspan></text></g><g class="d" transform="translate(340.793 473)"><circle class="e" cx="5" cy="5" r="5"/><circle class="f" cx="5" cy="5" r="4.5"/></g></g></svg>