<svg xmlns="http://www.w3.org/2000/svg" xmlns:xlink="http://www.w3.org/1999/xlink" viewBox="0 0 1024 768"><defs><style>.a,.am,.v{fill:none;}.b{clip-path:url(#ej);}.ab,.ae,.ah,.ak,.al,.ar,.c,.e,.g,.k,.l,.q{fill:#fff;}.ag,.ah,.al,.am,.c,.j,.s{stroke:#707070;}.d,.r,.y{opacity:0.6;}.e,.f,.o,.r,.y,.z{stroke:#92581f;}.ap,.f,.o,.r,.s,.t{fill:#92581f;}.f,.h{font-size:17px;opacity:0.8;}.ak,.an,.f,.h,.q{font-family:Helvetica-Bold, Helvetica;font-weight:700;}.g,.h,.n,.p,.w,.x{stroke:#5f9ea0;}.h,.n,.p,.w{fill:#5f9ea0;}.i{fill:#646e74;stroke:#646e74;}.j{fill:#f5f5f5;}.ab,.k,.l,.v{stroke:#fff;}.k,.v,.w{stroke-width:3px;}.aa,.l,.x,.y,.z{stroke-width:10px;}.m,.u{fill:#beb3b3;stroke:#beb3b3;}.m,.n,.o{stroke-width:7px;}.q{font-size:20px;}.s{opacity:0.1;}.t{opacity:0.2;}.u{opacity:0.49;}.v,.w{font-size:27px;}.ad,.ag,.ai,.aj,.v,.w{font-family:Helvetica;}.v{opacity:0.75;}.w{opacity:0.88;}.x{fill:rgba(95,158,160,0.99);}.y,.z{fill:rgba(146,88,31,0.99);}.z{opacity:0.61;}.aa{fill:rgba(0,0,0,0.99);stroke:#000;opacity:0.68;}.ac{clip-path:url(#ec);}.ad,.ag,.ai,.aj,.aq{fill:#707070;}.ad{font-size:21px;}.af{clip-path:url(#ed);}.ag{font-size:58px;}.ah{stroke-width:2px;}.ai{font-size:23px;}.aj,.ak{font-size:22px;}.al,.am{stroke-linecap:round;stroke-width:6px;}.an{fill:#a7794a;font-size:18px;}.ao,.ap,.aq{stroke:none;}.as{filter:url(#ea);}.at{filter:url(#dy);}.au{filter:url(#dw);}.av{filter:url(#du);}.aw{filter:url(#ds);}.ax{filter:url(#dq);}.ay{filter:url(#do);}.az{filter:url(#dm);}.ba{filter:url(#dk);}.bb{filter:url(#di);}.bc{filter:url(#dg);}.bd{filter:url(#de);}.be{filter:url(#dc);}.bf{filter:url(#da);}.bg{filter:url(#cy);}.bh{filter:url(#cw);}.bi{filter:url(#cu);}.bj{filter:url(#cs);}.bk{filter:url(#cq);}.bl{filter:url(#co);}.bm{filter:url(#cm);}.bn{filter:url(#ck);}.bo{filter:url(#ci);}.bp{filter:url(#cg);}.bq{filter:url(#ce);}.br{filter:url(#cc);}.bs{filter:url(#ca);}.bt{filter:url(#by);}.bu{filter:url(#bw);}.bv{filter:url(#bu);}.bw{filter:url(#bs);}.bx{filter:url(#bq);}.by{filter:url(#bo);}.bz{filter:url(#bm);}.ca{filter:url(#bk);}.cb{filter:url(#bi);}.cc{filter:url(#bg);}.cd{filter:url(#be);}.ce{filter:url(#bc);}.cf{filter:url(#ba);}.cg{filter:url(#ay);}.ch{filter:url(#aw);}.ci{filter:url(#au);}.cj{filter:url(#as);}.ck{filter:url(#aq);}.cl{filter:url(#ao);}.cm{filter:url(#am);}.cn{filter:url(#ak);}.co{filter:url(#ai);}.cp{filter:url(#ag);}.cq{filter:url(#ae);}.cr{filter:url(#ac);}.cs{filter:url(#aa);}.ct{filter:url(#y);}.cu{filter:url(#w);}.cv{filter:url(#u);}.cw{filter:url(#s);}.cx{filter:url(#q);}.cy{filter:url(#o);}.cz{filter:url(#m);}.da{filter:url(#k);}.db{filter:url(#i);}.dc{filter:url(#g);}.dd{filter:url(#e);}.de{filter:url(#c);}.df{filter:url(#a);}</style><filter id="a" x="-9" y="-5" width="461" height="402" filterUnits="userSpaceOnUse"><feOffset dy="3" input="SourceAlpha"/><feGaussianBlur stdDeviation="3" result="b"/><feFlood flood-opacity="0.161"/><feComposite operator="in" in2="b"/><feComposite in="SourceGraphic"/></filter><filter id="c" x="434.341" y="-1.587" width="599" height="401.587" filterUnits="userSpaceOnUse"><feOffset dy="7" input="SourceAlpha"/><feGaussianBlur stdDeviation="3" result="d"/><feFlood flood-opacity="0.161"/><feComposite operator="in" in2="d"/><feComposite in="SourceGraphic"/></filter><filter id="e" x="479.079" y="9.906" width="250.48" height="193.87" filterUnits="userSpaceOnUse"><feOffset dy="3" input="SourceAlpha"/><feGaussianBlur stdDeviation="3" result="f"/><feFlood flood-color="#464646"/><feComposite operator="in" in2="f"/><feComposite in="SourceGraphic"/></filter><filter id="g" x="481.7" y="726.413" width="510.871" height="58.587" filterUnits="userSpaceOnUse"><feOffset dy="7" input="SourceAlpha"/><feGaussianBlur stdDeviation="3" result="h"/><feFlood flood-opacity="0.161"/><feComposite operator="in" in2="h"/><feComposite in="SourceGraphic"/></filter><filter id="i" x="130.946" y="433.365" width="40" height="56" filterUnits="userSpaceOnUse"><feOffset dy="3" input="SourceAlpha"/><feGaussianBlur stdDeviation="3" result="j"/><feFlood flood-opacity="0.549"/><feComposite operator="in" in2="j"/><feComposite in="SourceGraphic"/></filter><filter id="k" x="142.273" y="433.365" width="40" height="56" filterUnits="userSpaceOnUse"><feOffset dy="3" input="SourceAlpha"/><feGaussianBlur stdDeviation="3" result="l"/><feFlood flood-opacity="0.549"/><feComposite operator="in" in2="l"/><feComposite in="SourceGraphic"/></filter><filter id="m" x="194.42" y="433.365" width="40" height="56" filterUnits="userSpaceOnUse"><feOffset dy="3" input="SourceAlpha"/><feGaussianBlur stdDeviation="3" result="n"/><feFlood flood-opacity="0.549"/><feComposite operator="in" in2="n"/><feComposite in="SourceGraphic"/></filter><filter id="o" x="205.746" y="433.365" width="40" height="56" filterUnits="userSpaceOnUse"><feOffset dy="3" input="SourceAlpha"/><feGaussianBlur stdDeviation="3" result="p"/><feFlood flood-opacity="0.549"/><feComposite operator="in" in2="p"/><feComposite in="SourceGraphic"/></filter><filter id="q" x="257.893" y="433.365" width="40" height="56" filterUnits="userSpaceOnUse"><feOffset dy="3" input="SourceAlpha"/><feGaussianBlur stdDeviation="3" result="r"/><feFlood flood-opacity="0.549"/><feComposite operator="in" in2="r"/><feComposite in="SourceGraphic"/></filter><filter id="s" x="269.22" y="433.365" width="40" height="56" filterUnits="userSpaceOnUse"><feOffset dy="3" input="SourceAlpha"/><feGaussianBlur stdDeviation="3" result="t"/><feFlood flood-opacity="0.549"/><feComposite operator="in" in2="t"/><feComposite in="SourceGraphic"/></filter><filter id="u" x="321.366" y="433.365" width="40" height="56" filterUnits="userSpaceOnUse"><feOffset dy="3" input="SourceAlpha"/><feGaussianBlur stdDeviation="3" result="v"/><feFlood flood-opacity="0.549"/><feComposite operator="in" in2="v"/><feComposite in="SourceGraphic"/></filter><filter id="w" x="332.693" y="433.365" width="40" height="56" filterUnits="userSpaceOnUse"><feOffset dy="3" input="SourceAlpha"/><feGaussianBlur stdDeviation="3" result="x"/><feFlood flood-opacity="0.549"/><feComposite operator="in" in2="x"/><feComposite in="SourceGraphic"/></filter><filter id="y" x="384.839" y="433.365" width="40" height="56" filterUnits="userSpaceOnUse"><feOffset dy="3" input="SourceAlpha"/><feGaussianBlur stdDeviation="3" result="z"/><feFlood flood-opacity="0.549"/><feComposite operator="in" in2="z"/><feComposite in="SourceGraphic"/></filter><filter id="aa" x="396.166" y="433.365" width="40" height="56" filterUnits="userSpaceOnUse"><feOffset dy="3" input="SourceAlpha"/><feGaussianBlur stdDeviation="3" result="ab"/><feFlood flood-opacity="0.549"/><feComposite operator="in" in2="ab"/><feComposite in="SourceGraphic"/></filter><filter id="ac" x="4" y="486.782" width="40" height="56" filterUnits="userSpaceOnUse"><feOffset dy="3" input="SourceAlpha"/><feGaussianBlur stdDeviation="3" result="ad"/><feFlood flood-opacity="0.549"/><feComposite operator="in" in2="ad"/><feComposite in="SourceGraphic"/></filter><filter id="ae" x="15.327" y="486.782" width="40" height="56" filterUnits="userSpaceOnUse"><feOffset dy="3" input="SourceAlpha"/><feGaussianBlur stdDeviation="3" result="af"/><feFlood flood-opacity="0.549"/><feComposite operator="in" in2="af"/><feComposite in="SourceGraphic"/></filter><filter id="ag" x="67.473" y="486.782" width="40" height="56" filterUnits="userSpaceOnUse"><feOffset dy="3" input="SourceAlpha"/><feGaussianBlur stdDeviation="3" result="ah"/><feFlood flood-opacity="0.549"/><feComposite operator="in" in2="ah"/><feComposite in="SourceGraphic"/></filter><filter id="ai" x="78.8" y="486.782" width="40" height="56" filterUnits="userSpaceOnUse"><feOffset dy="3" input="SourceAlpha"/><feGaussianBlur stdDeviation="3" result="aj"/><feFlood flood-opacity="0.549"/><feComposite operator="in" in2="aj"/><feComposite in="SourceGraphic"/></filter><filter id="ak" x="130.946" y="486.782" width="40" height="56" filterUnits="userSpaceOnUse"><feOffset dy="3" input="SourceAlpha"/><feGaussianBlur stdDeviation="3" result="al"/><feFlood flood-opacity="0.549"/><feComposite operator="in" in2="al"/><feComposite in="SourceGraphic"/></filter><filter id="am" x="142.273" y="486.782" width="40" height="56" filterUnits="userSpaceOnUse"><feOffset dy="3" input="SourceAlpha"/><feGaussianBlur stdDeviation="3" result="an"/><feFlood flood-opacity="0.549"/><feComposite operator="in" in2="an"/><feComposite in="SourceGraphic"/></filter><filter id="ao" x="194.42" y="486.782" width="40" height="56" filterUnits="userSpaceOnUse"><feOffset dy="3" input="SourceAlpha"/><feGaussianBlur stdDeviation="3" result="ap"/><feFlood flood-opacity="0.549"/><feComposite operator="in" in2="ap"/><feComposite in="SourceGraphic"/></filter><filter id="aq" x="205.746" y="486.782" width="40" height="56" filterUnits="userSpaceOnUse"><feOffset dy="3" input="SourceAlpha"/><feGaussianBlur stdDeviation="3" result="ar"/><feFlood flood-opacity="0.549"/><feComposite operator="in" in2="ar"/><feComposite in="SourceGraphic"/></filter><filter id="as" x="257.893" y="486.782" width="40" height="56" filterUnits="userSpaceOnUse"><feOffset dy="3" input="SourceAlpha"/><feGaussianBlur stdDeviation="3" result="at"/><feFlood flood-opacity="0.549"/><feComposite operator="in" in2="at"/><feComposite in="SourceGraphic"/></filter><filter id="au" x="269.22" y="486.782" width="40" height="56" filterUnits="userSpaceOnUse"><feOffset dy="3" input="SourceAlpha"/><feGaussianBlur stdDeviation="3" result="av"/><feFlood flood-opacity="0.549"/><feComposite operator="in" in2="av"/><feComposite in="SourceGraphic"/></filter><filter id="aw" x="321.366" y="486.782" width="40" height="56" filterUnits="userSpaceOnUse"><feOffset dy="3" input="SourceAlpha"/><feGaussianBlur stdDeviation="3" result="ax"/><feFlood flood-opacity="0.549"/><feComposite operator="in" in2="ax"/><feComposite in="SourceGraphic"/></filter><filter id="ay" x="332.693" y="486.782" width="40" height="56" filterUnits="userSpaceOnUse"><feOffset dy="3" input="SourceAlpha"/><feGaussianBlur stdDeviation="3" result="az"/><feFlood flood-opacity="0.549"/><feComposite operator="in" in2="az"/><feComposite in="SourceGraphic"/></filter><filter id="ba" x="384.839" y="486.782" width="40" height="56" filterUnits="userSpaceOnUse"><feOffset dy="3" input="SourceAlpha"/><feGaussianBlur stdDeviation="3" result="bb"/><feFlood flood-opacity="0.549"/><feComposite operator="in" in2="bb"/><feComposite in="SourceGraphic"/></filter><filter id="bc" x="396.166" y="486.782" width="40" height="56" filterUnits="userSpaceOnUse"><feOffset dy="3" input="SourceAlpha"/><feGaussianBlur stdDeviation="3" result="bd"/><feFlood flood-opacity="0.549"/><feComposite operator="in" in2="bd"/><feComposite in="SourceGraphic"/></filter><filter id="be" x="4" y="540.198" width="40" height="56" filterUnits="userSpaceOnUse"><feOffset dy="3" input="SourceAlpha"/><feGaussianBlur stdDeviation="3" result="bf"/><feFlood flood-opacity="0.549"/><feComposite operator="in" in2="bf"/><feComposite in="SourceGraphic"/></filter><filter id="bg" x="15.327" y="540.198" width="40" height="56" filterUnits="userSpaceOnUse"><feOffset dy="3" input="SourceAlpha"/><feGaussianBlur stdDeviation="3" result="bh"/><feFlood flood-opacity="0.549"/><feComposite operator="in" in2="bh"/><feComposite in="SourceGraphic"/></filter><filter id="bi" x="67.473" y="540.198" width="40" height="56" filterUnits="userSpaceOnUse"><feOffset dy="3" input="SourceAlpha"/><feGaussianBlur stdDeviation="3" result="bj"/><feFlood flood-opacity="0.549"/><feComposite operator="in" in2="bj"/><feComposite in="SourceGraphic"/></filter><filter id="bk" x="78.8" y="540.198" width="40" height="56" filterUnits="userSpaceOnUse"><feOffset dy="3" input="SourceAlpha"/><feGaussianBlur stdDeviation="3" result="bl"/><feFlood flood-opacity="0.549"/><feComposite operator="in" in2="bl"/><feComposite in="SourceGraphic"/></filter><filter id="bm" x="130.946" y="540.198" width="40" height="56" filterUnits="userSpaceOnUse"><feOffset dy="3" input="SourceAlpha"/><feGaussianBlur stdDeviation="3" result="bn"/><feFlood flood-opacity="0.549"/><feComposite operator="in" in2="bn"/><feComposite in="SourceGraphic"/></filter><filter id="bo" x="142.273" y="540.198" width="40" height="56" filterUnits="userSpaceOnUse"><feOffset dy="3" input="SourceAlpha"/><feGaussianBlur stdDeviation="3" result="bp"/><feFlood flood-opacity="0.549"/><feComposite operator="in" in2="bp"/><feComposite in="SourceGraphic"/></filter><filter id="bq" x="194.42" y="540.198" width="40" height="56" filterUnits="userSpaceOnUse"><feOffset dy="3" input="SourceAlpha"/><feGaussianBlur stdDeviation="3" result="br"/><feFlood flood-opacity="0.549"/><feComposite operator="in" in2="br"/><feComposite in="SourceGraphic"/></filter><filter id="bs" x="205.746" y="540.198" width="40" height="56" filterUnits="userSpaceOnUse"><feOffset dy="3" input="SourceAlpha"/><feGaussianBlur stdDeviation="3" result="bt"/><feFlood flood-opacity="0.549"/><feComposite operator="in" in2="bt"/><feComposite in="SourceGraphic"/></filter><filter id="bu" x="257.893" y="540.198" width="40" height="56" filterUnits="userSpaceOnUse"><feOffset dy="3" input="SourceAlpha"/><feGaussianBlur stdDeviation="3" result="bv"/><feFlood flood-opacity="0.549"/><feComposite operator="in" in2="bv"/><feComposite in="SourceGraphic"/></filter><filter id="bw" x="269.22" y="540.198" width="40" height="56" filterUnits="userSpaceOnUse"><feOffset dy="3" input="SourceAlpha"/><feGaussianBlur stdDeviation="3" result="bx"/><feFlood flood-opacity="0.549"/><feComposite operator="in" in2="bx"/><feComposite in="SourceGraphic"/></filter><filter id="by" x="321.366" y="540.198" width="40" height="56" filterUnits="userSpaceOnUse"><feOffset dy="3" input="SourceAlpha"/><feGaussianBlur stdDeviation="3" result="bz"/><feFlood flood-opacity="0.549"/><feComposite operator="in" in2="bz"/><feComposite in="SourceGraphic"/></filter><filter id="ca" x="332.693" y="540.198" width="40" height="56" filterUnits="userSpaceOnUse"><feOffset dy="3" input="SourceAlpha"/><feGaussianBlur stdDeviation="3" result="cb"/><feFlood flood-opacity="0.549"/><feComposite operator="in" in2="cb"/><feComposite in="SourceGraphic"/></filter><filter id="cc" x="384.839" y="540.198" width="40" height="56" filterUnits="userSpaceOnUse"><feOffset dy="3" input="SourceAlpha"/><feGaussianBlur stdDeviation="3" result="cd"/><feFlood flood-opacity="0.549"/><feComposite operator="in" in2="cd"/><feComposite in="SourceGraphic"/></filter><filter id="ce" x="396.166" y="540.198" width="40" height="56" filterUnits="userSpaceOnUse"><feOffset dy="3" input="SourceAlpha"/><feGaussianBlur stdDeviation="3" result="cf"/><feFlood flood-opacity="0.549"/><feComposite operator="in" in2="cf"/><feComposite in="SourceGraphic"/></filter><filter id="cg" x="4" y="593.615" width="40" height="56" filterUnits="userSpaceOnUse"><feOffset dy="3" input="SourceAlpha"/><feGaussianBlur stdDeviation="3" result="ch"/><feFlood flood-opacity="0.549"/><feComposite operator="in" in2="ch"/><feComposite in="SourceGraphic"/></filter><filter id="ci" x="15.327" y="593.615" width="40" height="56" filterUnits="userSpaceOnUse"><feOffset dy="3" input="SourceAlpha"/><feGaussianBlur stdDeviation="3" result="cj"/><feFlood flood-opacity="0.549"/><feComposite operator="in" in2="cj"/><feComposite in="SourceGraphic"/></filter><filter id="ck" x="67.473" y="593.615" width="40" height="56" filterUnits="userSpaceOnUse"><feOffset dy="3" input="SourceAlpha"/><feGaussianBlur stdDeviation="3" result="cl"/><feFlood flood-opacity="0.549"/><feComposite operator="in" in2="cl"/><feComposite in="SourceGraphic"/></filter><filter id="cm" x="78.8" y="593.615" width="40" height="56" filterUnits="userSpaceOnUse"><feOffset dy="3" input="SourceAlpha"/><feGaussianBlur stdDeviation="3" result="cn"/><feFlood flood-opacity="0.549"/><feComposite operator="in" in2="cn"/><feComposite in="SourceGraphic"/></filter><filter id="co" x="130.946" y="593.615" width="40" height="56" filterUnits="userSpaceOnUse"><feOffset dy="3" input="SourceAlpha"/><feGaussianBlur stdDeviation="3" result="cp"/><feFlood flood-opacity="0.549"/><feComposite operator="in" in2="cp"/><feComposite in="SourceGraphic"/></filter><filter id="cq" x="142.273" y="593.615" width="40" height="56" filterUnits="userSpaceOnUse"><feOffset dy="3" input="SourceAlpha"/><feGaussianBlur stdDeviation="3" result="cr"/><feFlood flood-opacity="0.549"/><feComposite operator="in" in2="cr"/><feComposite in="SourceGraphic"/></filter><filter id="cs" x="194.42" y="593.615" width="40" height="56" filterUnits="userSpaceOnUse"><feOffset dy="3" input="SourceAlpha"/><feGaussianBlur stdDeviation="3" result="ct"/><feFlood flood-opacity="0.549"/><feComposite operator="in" in2="ct"/><feComposite in="SourceGraphic"/></filter><filter id="cu" x="205.746" y="593.615" width="40" height="56" filterUnits="userSpaceOnUse"><feOffset dy="3" input="SourceAlpha"/><feGaussianBlur stdDeviation="3" result="cv"/><feFlood flood-opacity="0.549"/><feComposite operator="in" in2="cv"/><feComposite in="SourceGraphic"/></filter><filter id="cw" x="257.893" y="593.615" width="40" height="56" filterUnits="userSpaceOnUse"><feOffset dy="3" input="SourceAlpha"/><feGaussianBlur stdDeviation="3" result="cx"/><feFlood flood-opacity="0.549"/><feComposite operator="in" in2="cx"/><feComposite in="SourceGraphic"/></filter><filter id="cy" x="269.22" y="593.615" width="40" height="56" filterUnits="userSpaceOnUse"><feOffset dy="3" input="SourceAlpha"/><feGaussianBlur stdDeviation="3" result="cz"/><feFlood flood-opacity="0.549"/><feComposite operator="in" in2="cz"/><feComposite in="SourceGraphic"/></filter><filter id="da" x="321.366" y="593.615" width="40" height="56" filterUnits="userSpaceOnUse"><feOffset dy="3" input="SourceAlpha"/><feGaussianBlur stdDeviation="3" result="db"/><feFlood flood-opacity="0.549"/><feComposite operator="in" in2="db"/><feComposite in="SourceGraphic"/></filter><filter id="dc" x="332.693" y="593.615" width="40" height="56" filterUnits="userSpaceOnUse"><feOffset dy="3" input="SourceAlpha"/><feGaussianBlur stdDeviation="3" result="dd"/><feFlood flood-opacity="0.549"/><feComposite operator="in" in2="dd"/><feComposite in="SourceGraphic"/></filter><filter id="de" x="384.839" y="593.615" width="40" height="56" filterUnits="userSpaceOnUse"><feOffset dy="3" input="SourceAlpha"/><feGaussianBlur stdDeviation="3" result="df"/><feFlood flood-opacity="0.549"/><feComposite operator="in" in2="df"/><feComposite in="SourceGraphic"/></filter><filter id="dg" x="396.166" y="593.615" width="40" height="56" filterUnits="userSpaceOnUse"><feOffset dy="3" input="SourceAlpha"/><feGaussianBlur stdDeviation="3" result="dh"/><feFlood flood-opacity="0.549"/><feComposite operator="in" in2="dh"/><feComposite in="SourceGraphic"/></filter><filter id="di" x="4" y="647.031" width="40" height="56" filterUnits="userSpaceOnUse"><feOffset dy="3" input="SourceAlpha"/><feGaussianBlur stdDeviation="3" result="dj"/><feFlood flood-opacity="0.549"/><feComposite operator="in" in2="dj"/><feComposite in="SourceGraphic"/></filter><filter id="dk" x="15.327" y="647.031" width="40" height="56" filterUnits="userSpaceOnUse"><feOffset dy="3" input="SourceAlpha"/><feGaussianBlur stdDeviation="3" result="dl"/><feFlood flood-opacity="0.549"/><feComposite operator="in" in2="dl"/><feComposite in="SourceGraphic"/></filter><filter id="dm" x="67.473" y="647.031" width="40" height="56" filterUnits="userSpaceOnUse"><feOffset dy="3" input="SourceAlpha"/><feGaussianBlur stdDeviation="3" result="dn"/><feFlood flood-opacity="0.549"/><feComposite operator="in" in2="dn"/><feComposite in="SourceGraphic"/></filter><filter id="do" x="78.8" y="647.031" width="40" height="56" filterUnits="userSpaceOnUse"><feOffset dy="3" input="SourceAlpha"/><feGaussianBlur stdDeviation="3" result="dp"/><feFlood flood-opacity="0.549"/><feComposite operator="in" in2="dp"/><feComposite in="SourceGraphic"/></filter><filter id="dq" x="130.946" y="647.031" width="40" height="56" filterUnits="userSpaceOnUse"><feOffset dy="3" input="SourceAlpha"/><feGaussianBlur stdDeviation="3" result="dr"/><feFlood flood-opacity="0.549"/><feComposite operator="in" in2="dr"/><feComposite in="SourceGraphic"/></filter><filter id="ds" x="142.273" y="647.031" width="40" height="56" filterUnits="userSpaceOnUse"><feOffset dy="3" input="SourceAlpha"/><feGaussianBlur stdDeviation="3" result="dt"/><feFlood flood-opacity="0.549"/><feComposite operator="in" in2="dt"/><feComposite in="SourceGraphic"/></filter><filter id="du" x="194.42" y="647.031" width="40" height="56" filterUnits="userSpaceOnUse"><feOffset dy="3" input="SourceAlpha"/><feGaussianBlur stdDeviation="3" result="dv"/><feFlood flood-opacity="0.549"/><feComposite operator="in" in2="dv"/><feComposite in="SourceGraphic"/></filter><filter id="dw" x="205.746" y="647.031" width="40" height="56" filterUnits="userSpaceOnUse"><feOffset dy="3" input="SourceAlpha"/><feGaussianBlur stdDeviation="3" result="dx"/><feFlood flood-opacity="0.549"/><feComposite operator="in" in2="dx"/><feComposite in="SourceGraphic"/></filter><filter id="dy" x="257.893" y="647.031" width="40" height="56" filterUnits="userSpaceOnUse"><feOffset dy="3" input="SourceAlpha"/><feGaussianBlur stdDeviation="3" result="dz"/><feFlood flood-opacity="0.549"/><feComposite operator="in" in2="dz"/><feComposite in="SourceGraphic"/></filter><filter id="ea" x="269.22" y="647.031" width="40" height="56" filterUnits="userSpaceOnUse"><feOffset dy="3" input="SourceAlpha"/><feGaussianBlur stdDeviation="3" result="eb"/><feFlood flood-opacity="0.549"/><feComposite operator="in" in2="eb"/><feComposite in="SourceGraphic"/></filter><clipPath id="ec"><rect class="a" width="431.53" height="55"/></clipPath><clipPath id="ed"><rect class="a" width="431.109" height="55"/></clipPath><clipPath id="ej"><rect width="1024" height="768"/></clipPath><image id="ek" width="16.832" height="16.832" xlink:href="Home-image.png"/></defs><g id="ei" class="b"><rect class="ar" width="1024" height="768"/><g class="df" transform="matrix(1, 0, 0, 1, 0, 0)"><g class="c" transform="translate(0 1)"><rect class="ao" width="443" height="384"/><rect class="a" x="0.5" y="0.5" width="442" height="383"/></g></g><g class="c" transform="translate(443)"><rect class="ao" width="581" height="384"/><rect class="a" x="0.5" y="0.5" width="580" height="383"/></g><g class="de" transform="matrix(1, 0, 0, 1, 0, 0)"><rect class="d" width="581" height="383.587" transform="translate(443.34 0.41)"/></g><g class="e" transform="translate(140 213)"><ellipse class="ao" cx="14.113" cy="13.6" rx="14.113" ry="13.6"/><ellipse class="a" cx="14.113" cy="13.6" rx="13.613" ry="13.1"/></g><text class="f" transform="translate(148.211 232.053)"><tspan x="0" y="0">D</tspan></text><g class="g" transform="translate(182 213)"><ellipse class="ao" cx="14.113" cy="13.6" rx="14.113" ry="13.6"/><ellipse class="a" cx="14.113" cy="13.6" rx="13.613" ry="13.1"/></g><text class="h" transform="translate(190.211 232.053)"><tspan x="0" y="0">S</tspan></text><g class="g" transform="translate(227.591 213)"><ellipse class="ao" cx="14.113" cy="13.6" rx="14.113" ry="13.6"/><ellipse class="a" cx="14.113" cy="13.6" rx="13.613" ry="13.1"/></g><text class="h" transform="translate(236.803 232.053)"><tspan x="0" y="0">T</tspan></text><g class="g" transform="translate(271.387 213)"><ellipse class="ao" cx="14.113" cy="13.6" rx="14.113" ry="13.6"/><ellipse class="a" cx="14.113" cy="13.6" rx="13.613" ry="13.1"/></g><text class="h" transform="translate(278.598 232.053)"><tspan x="0" y="0">Q</tspan></text><g class="g" transform="translate(315.183 213)"><ellipse class="ao" cx="14.113" cy="13.6" rx="14.113" ry="13.6"/><ellipse class="a" cx="14.113" cy="13.6" rx="13.613" ry="13.1"/></g><text class="h" transform="translate(322.394 232.053)"><tspan x="0" y="0">Q</tspan></text><g class="g" transform="translate(360.774 213)"><ellipse class="ao" cx="14.113" cy="13.6" rx="14.113" ry="13.6"/><ellipse class="a" cx="14.113" cy="13.6" rx="13.613" ry="13.1"/></g><text class="h" transform="translate(368.985 232.053)"><tspan x="0" y="0">S</tspan></text><g class="g" transform="translate(402.774 213)"><ellipse class="ao" cx="14.113" cy="13.6" rx="14.113" ry="13.6"/><ellipse class="a" cx="14.113" cy="13.6" rx="13.613" ry="13.1"/></g><text class="h" transform="translate(410.985 232.053)"><tspan x="0" y="0">S</tspan></text><rect class="d" width="63.039" height="383.962" transform="translate(0 384)"/><rect class="d" width="63.039" height="384" transform="translate(63.039 384)"/><rect class="d" width="63.039" height="384" transform="translate(126.078 384)"/><rect class="d" width="62.607" height="383.962" transform="translate(252.156 384)"/><rect class="d" width="63.039" height="383.962" transform="translate(189.117 384)"/><rect class="d" width="63.039" height="384" transform="translate(314.763 384)"/><rect class="d" width="65.198" height="383.962" transform="translate(377.802 384)"/><g class="i" transform="translate(984 208) rotate(90)"><path class="ao" d="M20,0H34a0,0,0,0,1,0,0V493.57a0,0,0,0,1,0,0H20a20,20,0,0,1-20-20V20A20,20,0,0,1,20,0Z"/><path class="a" d="M20,.5H33a.5.5,0,0,1,.5.5V492.57a.5.5,0,0,1-.5.5H20A19.5,19.5,0,0,1,.5,473.57V20A19.5,19.5,0,0,1,20,.5Z"/></g><g class="j" transform="translate(490.7 239.348)"><rect class="ao" width="493.154" height="101.141"/><rect class="a" x="0.5" y="0.5" width="492.154" height="100.141"/></g><path class="k" d="M0,30.278a18.857,18.857,0,0,1,1.483-6.785,12.545,12.545,0,0,1,5.031-5.246l3.722-2.339a17.64,17.64,0,0,0,3.509-2.7,5.782,5.782,0,0,0,1.59-4,5.864,5.864,0,0,0-1.454-4.182A5.066,5.066,0,0,0,10,3.477a5,5,0,0,0-4.963,2.95,11.347,11.347,0,0,0-.814,4.383H.679A14.513,14.513,0,0,1,2.016,4.383Q4.285,0,10.023,0q4.769,0,6.97,2.8a9.854,9.854,0,0,1,2.2,6.237,8.866,8.866,0,0,1-2.346,6.195,23.039,23.039,0,0,1-4.866,3.624l-2.656,1.6a17.194,17.194,0,0,0-2.986,2.17A8,8,0,0,0,3.9,26.7H19.057v3.582ZM31.581.105A8.113,8.113,0,0,1,39.375,4.93q1.861,3.729,1.861,10.219a26.494,26.494,0,0,1-1.687,10.177Q37.107,31.1,31.562,31.1a7.92,7.92,0,0,1-7.445-4.72Q22.082,22.44,22.082,15.8A28.219,28.219,0,0,1,23.3,6.974Q25.591.105,31.581.105Zm-.039,27.538a4.889,4.889,0,0,0,4.323-2.613q1.609-2.613,1.609-9.734a25.967,25.967,0,0,0-1.163-8.46,4.451,4.451,0,0,0-4.517-3.319,4.717,4.717,0,0,0-4.507,3.15q-1.425,3.15-1.425,9.281a24.637,24.637,0,0,0,.911,7.417Q28.169,27.644,31.542,27.644ZM46.722,8.913V6A13.3,13.3,0,0,0,52,4.667q1.493-.938,2.229-4.435h2.753V30.278H53.256V8.913ZM70.277,22.987q.155,3.139,2.229,4.34a4.624,4.624,0,0,0,2.4.632,5.256,5.256,0,0,0,4.265-2.265q1.764-2.265,2.5-9.2A6.681,6.681,0,0,1,78.8,19.311a8.531,8.531,0,0,1-3.693.811A7.938,7.938,0,0,1,68.756,17.4a10.351,10.351,0,0,1-2.336-7,11.825,11.825,0,0,1,2.307-7.227,7.93,7.93,0,0,1,6.8-3.118Q81.6.063,83.906,6a22.574,22.574,0,0,1,1.28,8.175A29.046,29.046,0,0,1,83.654,24q-2.54,7.122-8.608,7.122A7.948,7.948,0,0,1,68.862,28.8a8.3,8.3,0,0,1-2.113-5.815Zm5.293-6.195a5.659,5.659,0,0,0,3.79-1.485q1.716-1.485,1.716-5.194a7,7,0,0,0-1.541-4.962,5.163,5.163,0,0,0-3.926-1.633,4.942,4.942,0,0,0-4.062,1.865,7.709,7.709,0,0,0-1.5,4.983,7.576,7.576,0,0,0,1.318,4.688A4.94,4.94,0,0,0,75.57,16.793Z" transform="translate(983.57 104.509) rotate(90)"/><g class="i" transform="translate(490.43 368) rotate(-90)"><path class="ao" d="M20,0h8a0,0,0,0,1,0,0V493.57a0,0,0,0,1,0,0H20a20,20,0,0,1-20-20V20A20,20,0,0,1,20,0Z"/><path class="a" d="M20,.5h7a.5.5,0,0,1,.5.5V492.57a.5.5,0,0,1-.5.5H20A19.5,19.5,0,0,1,.5,473.57V20A19.5,19.5,0,0,1,20,.5Z"/></g><g class="i" transform="translate(751.546 431.143) rotate(90)"><path class="ao" d="M15.546,0H43.5a0,0,0,0,1,0,0V31.091a0,0,0,0,1,0,0H15.546A15.546,15.546,0,0,1,0,15.546v0A15.546,15.546,0,0,1,15.546,0Z"/><path class="a" d="M15.546.5H42.615A.386.386,0,0,1,43,.886v29.32a.386.386,0,0,1-.386.386H15.546A15.046,15.046,0,0,1,.5,15.546v0A15.046,15.046,0,0,1,15.546.5Z"/></g><g class="i" transform="translate(720.454 725.183) rotate(-90)"><path class="ao" d="M15.546,0H43.5a0,0,0,0,1,0,0V31.091a0,0,0,0,1,0,0H15.546A15.546,15.546,0,0,1,0,15.546v0A15.546,15.546,0,0,1,15.546,0Z"/><path class="a" d="M15.546.5H42.615A.386.386,0,0,1,43,.886v29.32a.386.386,0,0,1-.386.386H15.546A15.046,15.046,0,0,1,.5,15.546v0A15.046,15.046,0,0,1,15.546.5Z"/></g><g class="j" transform="translate(752 474.999) rotate(90)"><rect class="ao" width="207.103" height="32"/><rect class="a" x="0.5" y="0.5" width="206.103" height="31"/></g><use transform="translate(744.33 440.017) rotate(90)" xlink:href="#ek"/><use transform="matrix(-0.017, -1, 1, -0.017, 728.294, 713.124)" xlink:href="#ek"/><use transform="translate(748 211.635) rotate(90) scale(1.188)" xlink:href="#ek"/><use transform="matrix(0.021, -1.188, 1.188, 0.021, 727.827, 363.459)" xlink:href="#ek"/><g class="dd" transform="matrix(1, 0, 0, 1, 0, 0)"><path class="l" d="M1.438,133.594Q2.473,112.24,9.36,96.426T36.232,67.684L56.115,54.872Q69.474,46.215,74.859,40.1a32.118,32.118,0,0,0,8.492-21.931q0-14.429-7.767-22.912T54.873-13.231q-19.158,0-26.51,16.16-3.935,8.657-4.349,24.009l-22.5-.121C1.723,12.427,4.8-.694,9.36-9.774c8.077-16.006,25.181-22.5,45.617-22.5q25.475,0,37.229,15.352a54.853,54.853,0,0,1,11.754,34.167q0,19.854-12.53,33.936-7.249,8.2-25.993,19.854L51.248,79.8A92,92,0,0,0,35.3,91.693q-10.356,10.042-13.048,22.278h80.981v19.623ZM223.67-32.276v21.47q-7.145,7.734-19,26.895A282.563,282.563,0,0,0,183.7,57.411a302.885,302.885,0,0,0-13.669,39.361q-3,11.427-7.767,36.822H141.653Q148.695,86.268,172.72,39.4q14.187-27.472,29.824-47.441H120.527v-24.24Z" transform="translate(491.89 53.18)"/></g><path class="m" d="M45.6-48.091H59.354V9.26q0,11.774-7.567,18.176t-21.526,6.4q-14.235,0-21.975-5.968T1.169,11.43V5.9H14.023V11.43q0,6.348,4.008,9.794t11.4,3.445q7.463,0,11.817-4.151T45.6,9.26h0Z" transform="translate(687.783 153.599)"/><path class="n" d="M.949,33.838,37.267-48.091H52.121L86.672,33.838H72.7L62.893,10.1H24.484l-10.1,23.743H.949ZM44.1-36.052,28.622.286H58.9L44.06-36.052Z" transform="translate(756.602 152.599)"/><path class="o" d="M18.079,27.6H5.713V-53.833H21.106l47.4,66.177h0V-53.833H80.876V27.6H66.835L18.079-38.834h0Z" transform="translate(854.592 159.342)"/><g class="p" transform="translate(718.57 384.365) rotate(90)"><rect class="ao" width="44" height="228.141" rx="10"/><rect class="a" x="0.5" y="0.5" width="43" height="227.141" rx="9.5"/></g><text class="q" transform="translate(503 410)"><tspan x="0" y="0">Eventos</tspan></text><g class="r" transform="translate(983.57 384.365) rotate(90)"><rect class="ao" width="43" height="228" rx="10"/><rect class="a" x="0.5" y="0.5" width="42" height="227" rx="9.5"/></g><text class="q" transform="translate(766.141 410)"><tspan x="0" y="0">Horários</tspan></text><g class="dc" transform="matrix(1, 0, 0, 1, 0, 0)"><path class="d" d="M10.1,0H482.771a10.05,10.05,0,0,1,10.1,10V40.587H0V10A10.05,10.05,0,0,1,10.1,0Z" transform="translate(490.7 728.41)"/></g><g class="s" transform="translate(758 428)"><rect class="ao" width="225.35" height="300" rx="8"/><rect class="a" x="0.5" y="0.5" width="224.35" height="299" rx="7.5"/></g><g class="t" transform="translate(984.424 441.365) rotate(90)"><path class="ao" d="M 35 227.1802978515625 L 8 227.1802978515625 C 3.864500045776367 227.1802978515625 0.5 224.053466796875 0.5 220.2100677490234 L 0.5 7.470266342163086 C 0.5 3.62685489654541 3.864500045776367 0.500001847743988 8 0.500001847743988 L 35 0.500001847743988 C 39.13550186157227 0.500001847743988 42.5 3.62685489654541 42.5 7.470266342163086 L 42.5 220.2100677490234 C 42.5 224.053466796875 39.13550186157227 227.1802978515625 35 227.1802978515625 Z"/><path class="ap" d="M 8 1 C 4.140174865722656 1 1 3.90252685546875 1 7.470230102539063 L 1 220.2100677490234 C 1 223.7777709960938 4.140174865722656 226.6802978515625 8 226.6802978515625 L 35 226.6802978515625 C 38.85982513427734 226.6802978515625 42 223.7777709960938 42 220.2100677490234 L 42 7.470230102539063 C 42 3.90252685546875 38.85982513427734 1 35 1 L 8 1 M 8 0 L 35 0 C 39.41826629638672 0 43 3.344528198242188 43 7.470230102539063 L 43 220.2100677490234 C 43 224.3357391357422 39.41826629638672 227.6802978515625 35 227.6802978515625 L 8 227.6802978515625 C 3.581733703613281 227.6802978515625 0 224.3357391357422 0 220.2100677490234 L 0 7.470230102539063 C 0 3.344528198242188 3.581733703613281 0 8 0 Z"/></g><g class="u" transform="translate(8 651)"><ellipse class="ao" cx="20.5" cy="21.5" rx="20.5" ry="21.5"/><ellipse class="a" cx="20.5" cy="21.5" rx="20" ry="21"/></g><g class="db" transform="matrix(1, 0, 0, 1, 0, 0)"><text class="v" transform="translate(142.95 468.37)"><tspan x="0" y="0">0</tspan></text></g><g class="da" transform="matrix(1, 0, 0, 1, 0, 0)"><text class="w" transform="translate(154.27 468.37)"><tspan x="0" y="0">1</tspan></text></g><g class="cz" transform="matrix(1, 0, 0, 1, 0, 0)"><text class="v" transform="translate(206.42 468.37)"><tspan x="0" y="0">0</tspan></text></g><g class="cy" transform="matrix(1, 0, 0, 1, 0, 0)"><text class="w" transform="translate(217.75 468.37)"><tspan x="0" y="0">2</tspan></text></g><g class="cx" transform="matrix(1, 0, 0, 1, 0, 0)"><text class="v" transform="translate(269.89 468.37)"><tspan x="0" y="0">0</tspan></text></g><g class="cw" transform="matrix(1, 0, 0, 1, 0, 0)"><text class="w" transform="translate(281.22 468.37)"><tspan x="0" y="0">3</tspan></text></g><g class="cv" transform="matrix(1, 0, 0, 1, 0, 0)"><text class="v" transform="translate(333.37 468.37)"><tspan x="0" y="0">0</tspan></text></g><g class="cu" transform="matrix(1, 0, 0, 1, 0, 0)"><text class="w" transform="translate(344.69 468.37)"><tspan x="0" y="0">4</tspan></text></g><g class="ct" transform="matrix(1, 0, 0, 1, 0, 0)"><text class="v" transform="translate(396.84 468.37)"><tspan x="0" y="0">0</tspan></text></g><g class="cs" transform="matrix(1, 0, 0, 1, 0, 0)"><text class="w" transform="translate(408.17 468.37)"><tspan x="0" y="0">5</tspan></text></g><g class="cr" transform="matrix(1, 0, 0, 1, 0, 0)"><text class="v" transform="translate(16 521.78)"><tspan x="0" y="0">0</tspan></text></g><g class="cq" transform="matrix(1, 0, 0, 1, 0, 0)"><text class="w" transform="translate(27.33 521.78)"><tspan x="0" y="0">6</tspan></text></g><g class="cp" transform="matrix(1, 0, 0, 1, 0, 0)"><text class="v" transform="translate(79.47 521.78)"><tspan x="0" y="0">0</tspan></text></g><g class="co" transform="matrix(1, 0, 0, 1, 0, 0)"><text class="w" transform="translate(90.8 521.78)"><tspan x="0" y="0">7</tspan></text></g><g class="cn" transform="matrix(1, 0, 0, 1, 0, 0)"><text class="v" transform="translate(142.95 521.78)"><tspan x="0" y="0">0</tspan></text></g><g class="cm" transform="matrix(1, 0, 0, 1, 0, 0)"><text class="w" transform="translate(154.27 521.78)"><tspan x="0" y="0">8</tspan></text></g><g class="cl" transform="matrix(1, 0, 0, 1, 0, 0)"><text class="v" transform="translate(206.42 521.78)"><tspan x="0" y="0">0</tspan></text></g><g class="ck" transform="matrix(1, 0, 0, 1, 0, 0)"><text class="w" transform="translate(217.75 521.78)"><tspan x="0" y="0">9</tspan></text></g><g class="cj" transform="matrix(1, 0, 0, 1, 0, 0)"><text class="v" transform="translate(269.89 521.78)"><tspan x="0" y="0">1</tspan></text></g><g class="ci" transform="matrix(1, 0, 0, 1, 0, 0)"><text class="w" transform="translate(281.22 521.78)"><tspan x="0" y="0">0</tspan></text></g><g class="ch" transform="matrix(1, 0, 0, 1, 0, 0)"><text class="v" transform="translate(333.37 521.78)"><tspan x="0" y="0">1</tspan></text></g><g class="cg" transform="matrix(1, 0, 0, 1, 0, 0)"><text class="w" transform="translate(344.69 521.78)"><tspan x="0" y="0">1</tspan></text></g><g class="cf" transform="matrix(1, 0, 0, 1, 0, 0)"><text class="v" transform="translate(396.84 521.78)"><tspan x="0" y="0">1</tspan></text></g><g class="ce" transform="matrix(1, 0, 0, 1, 0, 0)"><text class="w" transform="translate(408.17 521.78)"><tspan x="0" y="0">2</tspan></text></g><g class="cd" transform="matrix(1, 0, 0, 1, 0, 0)"><text class="v" transform="translate(16 575.2)"><tspan x="0" y="0">1</tspan></text></g><g class="cc" transform="matrix(1, 0, 0, 1, 0, 0)"><text class="w" transform="translate(27.33 575.2)"><tspan x="0" y="0">3</tspan></text></g><g class="cb" transform="matrix(1, 0, 0, 1, 0, 0)"><text class="v" transform="translate(79.47 575.2)"><tspan x="0" y="0">1</tspan></text></g><g class="ca" transform="matrix(1, 0, 0, 1, 0, 0)"><text class="w" transform="translate(90.8 575.2)"><tspan x="0" y="0">4</tspan></text></g><g class="bz" transform="matrix(1, 0, 0, 1, 0, 0)"><text class="v" transform="translate(142.95 575.2)"><tspan x="0" y="0">1</tspan></text></g><g class="by" transform="matrix(1, 0, 0, 1, 0, 0)"><text class="w" transform="translate(154.27 575.2)"><tspan x="0" y="0">5</tspan></text></g><g class="bx" transform="matrix(1, 0, 0, 1, 0, 0)"><text class="v" transform="translate(206.42 575.2)"><tspan x="0" y="0">1</tspan></text></g><g class="bw" transform="matrix(1, 0, 0, 1, 0, 0)"><text class="w" transform="translate(217.75 575.2)"><tspan x="0" y="0">6</tspan></text></g><g class="bv" transform="matrix(1, 0, 0, 1, 0, 0)"><text class="v" transform="translate(269.89 575.2)"><tspan x="0" y="0">1</tspan></text></g><g class="bu" transform="matrix(1, 0, 0, 1, 0, 0)"><text class="w" transform="translate(281.22 575.2)"><tspan x="0" y="0">7</tspan></text></g><g class="bt" transform="matrix(1, 0, 0, 1, 0, 0)"><text class="v" transform="translate(333.37 575.2)"><tspan x="0" y="0">1</tspan></text></g><g class="bs" transform="matrix(1, 0, 0, 1, 0, 0)"><text class="w" transform="translate(344.69 575.2)"><tspan x="0" y="0">8</tspan></text></g><g class="br" transform="matrix(1, 0, 0, 1, 0, 0)"><text class="v" transform="translate(396.84 575.2)"><tspan x="0" y="0">1</tspan></text></g><g class="bq" transform="matrix(1, 0, 0, 1, 0, 0)"><text class="w" transform="translate(408.17 575.2)"><tspan x="0" y="0">9</tspan></text></g><g class="bp" transform="matrix(1, 0, 0, 1, 0, 0)"><text class="v" transform="translate(16 628.61)"><tspan x="0" y="0">2</tspan></text></g><g class="bo" transform="matrix(1, 0, 0, 1, 0, 0)"><text class="w" transform="translate(27.33 628.61)"><tspan x="0" y="0">0</tspan></text></g><g class="bn" transform="matrix(1, 0, 0, 1, 0, 0)"><text class="v" transform="translate(79.47 628.61)"><tspan x="0" y="0">2</tspan></text></g><g class="bm" transform="matrix(1, 0, 0, 1, 0, 0)"><text class="w" transform="translate(90.8 628.61)"><tspan x="0" y="0">1</tspan></text></g><g class="bl" transform="matrix(1, 0, 0, 1, 0, 0)"><text class="v" transform="translate(142.95 628.61)"><tspan x="0" y="0">2</tspan></text></g><g class="bk" transform="matrix(1, 0, 0, 1, 0, 0)"><text class="w" transform="translate(154.27 628.61)"><tspan x="0" y="0">2</tspan></text></g><g class="bj" transform="matrix(1, 0, 0, 1, 0, 0)"><text class="v" transform="translate(206.42 628.61)"><tspan x="0" y="0">2</tspan></text></g><g class="bi" transform="matrix(1, 0, 0, 1, 0, 0)"><text class="w" transform="translate(217.75 628.61)"><tspan x="0" y="0">3</tspan></text></g><g class="bh" transform="matrix(1, 0, 0, 1, 0, 0)"><text class="v" transform="translate(269.89 628.61)"><tspan x="0" y="0">2</tspan></text></g><g class="bg" transform="matrix(1, 0, 0, 1, 0, 0)"><text class="w" transform="translate(281.22 628.61)"><tspan x="0" y="0">4</tspan></text></g><g class="bf" transform="matrix(1, 0, 0, 1, 0, 0)"><text class="v" transform="translate(333.37 628.61)"><tspan x="0" y="0">2</tspan></text></g><g class="be" transform="matrix(1, 0, 0, 1, 0, 0)"><text class="w" transform="translate(344.69 628.61)"><tspan x="0" y="0">5</tspan></text></g><g class="bd" transform="matrix(1, 0, 0, 1, 0, 0)"><text class="v" transform="translate(396.84 628.61)"><tspan x="0" y="0">2</tspan></text></g><g class="bc" transform="matrix(1, 0, 0, 1, 0, 0)"><text class="w" transform="translate(408.17 628.61)"><tspan x="0" y="0">6</tspan></text></g><g class="bb" transform="matrix(1, 0, 0, 1, 0, 0)"><text class="v" transform="translate(16 682.03)"><tspan x="0" y="0">2</tspan></text></g><g class="ba" transform="matrix(1, 0, 0, 1, 0, 0)"><text class="w" transform="translate(27.33 682.03)"><tspan x="0" y="0">7</tspan></text></g><g class="az" transform="matrix(1, 0, 0, 1, 0, 0)"><text class="v" transform="translate(79.47 682.03)"><tspan x="0" y="0">2</tspan></text></g><g class="ay" transform="matrix(1, 0, 0, 1, 0, 0)"><text class="w" transform="translate(90.8 682.03)"><tspan x="0" y="0">8</tspan></text></g><g class="ax" transform="matrix(1, 0, 0, 1, 0, 0)"><text class="v" transform="translate(142.95 682.03)"><tspan x="0" y="0">2</tspan></text></g><g class="aw" transform="matrix(1, 0, 0, 1, 0, 0)"><text class="w" transform="translate(154.27 682.03)"><tspan x="0" y="0">9</tspan></text></g><g class="av" transform="matrix(1, 0, 0, 1, 0, 0)"><text class="v" transform="translate(206.42 682.03)"><tspan x="0" y="0">3</tspan></text></g><g class="au" transform="matrix(1, 0, 0, 1, 0, 0)"><text class="w" transform="translate(217.75 682.03)"><tspan x="0" y="0">0</tspan></text></g><g class="at" transform="matrix(1, 0, 0, 1, 0, 0)"><text class="v" transform="translate(269.89 682.03)"><tspan x="0" y="0">3</tspan></text></g><g class="as" transform="matrix(1, 0, 0, 1, 0, 0)"><text class="w" transform="translate(281.22 682.03)"><tspan x="0" y="0">1</tspan></text></g><path class="x" d="M16.865-80.276v-13c9.83-1.2,16.118-3.2,20-6s7.084-9.55,9-20h11v135h-15v-96Z" transform="translate(60.635 171.776)"/><path class="y" d="M39.32-119.3c13.033,0,23.187,6.976,29,21,4.5,10.84,7,25.138,7,44,0,17.883-2.921,33.3-7,45-5.907,16.78-15.592,25-29,25-12.1,0-21.093-7.282-27-21-4.922-11.452-7-26.709-7-46,0-14.943,1.047-27.283,4-38C14.852-109.264,24.834-119.3,39.32-119.3Zm0,120c6.563,0,12.109-4.406,16-12s6-21.3,6-42c0-14.943-1.187-27.354-4-37s-8.89-14-17-14c-7.454,0-12.554,3.844-16,13s-5,23.179-5,41c0,13.412.8,23.855,3,32C25.7-5.867,31.163.7,39.32.7Z" transform="translate(101.18 171.799)"/><path class="x" d="M56.008-33.52v-60l-38,60Zm1,48v-33h-53v-16l55-85h13v86h17v15h-17v33Z" transform="translate(220.492 173.02)"/><path class="z" d="M20.043-20.984c.916,9.536,4.639,15.346,11,19a21.4,21.4,0,0,0,11,3c8.143,0,14.081-2.684,18-9a39.16,39.16,0,0,0,6-21c0-9.289-2.343-16.922-7-22s-10.486-7-17-7c-4.733,0-8.616.771-12,3a28.347,28.347,0,0,0-9,9l-12-1,9-71h57v16h-47l-5,37a34.391,34.391,0,0,1,8-5,30.544,30.544,0,0,1,14-3c10.026,0,18.028,3.136,25,11s11,17.925,11,30a58.109,58.109,0,0,1-10,33c-6.387,9.6-16,15-30,15a35.239,35.239,0,0,1-24-9c-6.845-6.1-10.186-15.367-11-28Z" transform="translate(279.457 171.484)"/><path class="aa" d="M18.964-87.34h12v17h-12Zm0,64h12v16h-12Z" transform="translate(174.536 163.84)"/><g class="ab" transform="translate(728.212 747.085)"><rect class="ao" width="15.788" height="2.952"/><rect class="a" x="0.5" y="0.5" width="14.788" height="1.952"/></g><g class="ab" transform="translate(734.63 757.911) rotate(-90)"><rect class="ao" width="18.699" height="2.952"/><rect class="a" x="0.5" y="0.5" width="17.699" height="1.952"/></g><g class="ab" transform="translate(957.793 400)"><circle class="ao" cx="5" cy="5" r="5"/><circle class="a" cx="5" cy="5" r="4.5"/></g><g class="c" transform="translate(888 16)"><ellipse class="ao" cx="22.139" cy="21.241" rx="22.139" ry="21.241"/><ellipse class="a" cx="22.139" cy="21.241" rx="21.639" ry="20.741"/></g><image width="28.72" height="28.72" transform="translate(895.18 22.582)" xlink:href="Home-image2.png"/><g class="c" transform="translate(940.055 16)"><ellipse class="ao" cx="22.139" cy="21.241" rx="22.139" ry="21.241"/><ellipse class="a" cx="22.139" cy="21.241" rx="21.639" ry="20.741"/></g><image width="26.327" height="21.764" transform="translate(948.629 26.172)" xlink:href="Home-image3.png"/><g class="ac" transform="translate(767 450)"><g transform="translate(-512 -256)"><text class="ad" transform="translate(512 276)"><tspan x="0" y="0">07:00 - Trabalho POO </tspan></text></g></g><g class="ae" transform="translate(767 450)"><path class="ao" d="M207.99,52h0Z"/><path class="aq" d="M -1.52587890625e-05 52 L 207.9898529052734 52 L -1.52587890625e-05 52 Z"/></g><g class="af" transform="translate(767 497.621)"><g transform="translate(-512 -256)"><text class="ad" transform="translate(512 276)"><tspan x="0" y="0">08:30 - Entrega Des... </tspan></text></g></g><g class="af" transform="translate(767 547.611)"><g transform="translate(-512 -256)"><text class="ad" transform="translate(512 276)"><tspan x="0" y="0">10:00 - Feira de Agr... </tspan></text></g></g><g class="af" transform="translate(767 597.601)"><g transform="translate(-512 -256)"><text class="ad" transform="translate(512 276)"><tspan x="0" y="0">11:25 - Trabalho fin... </tspan></text></g></g><g class="af" transform="translate(767 647.591)"><g transform="translate(-512 -256)"><text class="ad" transform="translate(512 276)"><tspan x="0" y="0">12:00 - Almoço com... </tspan></text></g></g><g class="af" transform="translate(767 695.212)"><g transform="translate(-512 -256)"><text class="ad" transform="translate(512 276)"><tspan x="0" y="0">14:00 - Workshop... </tspan></text></g></g><g class="c" transform="translate(720 475)"><rect class="ao" width="32" height="21"/><rect class="a" x="0.5" y="0.5" width="31" height="20"/></g><g class="ae" transform="translate(503 261)"><path class="ao" d="M444,52h0Z"/><path class="aq" d="M 0 52 L 444 52 L 0 52 Z"/></g><text class="ag" transform="translate(140.206 303.981)"><tspan x="0" y="0">40 C</tspan></text><g class="ah" transform="translate(207.264 265.451)"><circle class="ao" cx="5.294" cy="5.294" r="5.294"/><circle class="a" cx="5.294" cy="5.294" r="4.294"/></g><text class="ai" transform="translate(139.944 331)"><tspan x="0" y="0">Sensação térmica</tspan></text><text class="aj" transform="translate(335.236 331)"><tspan x="0" y="0">40</tspan></text><g class="c" transform="translate(362.294 316.914)"><circle class="ao" cx="2.353" cy="2.353" r="2.353"/><circle class="a" cx="2.353" cy="2.353" r="1.853"/></g><text class="ak" transform="translate(6.189 410)"><tspan x="0" y="0">Dom</tspan></text><text class="ak" transform="translate(72.189 410)"><tspan x="0" y="0">Seg</tspan></text><text class="ak" transform="translate(139.492 410)"><tspan x="0" y="0">Ter</tspan></text><text class="ak" transform="translate(199.11 410)"><tspan x="0" y="0">Qua</tspan></text><text class="ak" transform="translate(264.733 410)"><tspan x="0" y="0">Qui</tspan></text><text class="ak" transform="translate(326.353 410)"><tspan x="0" y="0">Sex</tspan></text><text class="ak" transform="translate(391 410)"><tspan x="0" y="0">Sab</tspan></text><g class="al" transform="translate(44.155 271.796)"><ellipse class="ao" cx="21.251" cy="21.951" rx="21.251" ry="21.951"/><ellipse class="a" cx="21.251" cy="21.951" rx="18.251" ry="18.951"/></g><line class="am" y1="16.26" transform="translate(65.406 247.494)"/><line class="am" y1="16.26" transform="translate(65.406 323.74)"/><line class="am" y1="16.26" transform="translate(99.561 327.378) rotate(135)"/><line class="am" y1="16.26" transform="translate(102.112 261.533) rotate(45)"/><line class="am" y1="16.26" transform="translate(42.748 315.881) rotate(45)"/><line class="am" y1="16.26" transform="translate(40.198 273.03) rotate(135)"/><line class="am" y1="16.26" transform="translate(114.791 293.747) rotate(90)"/><line class="am" y1="16.26" transform="translate(32.281 293.747) rotate(90)"/><text class="an" transform="translate(25.189 233)"><tspan x="0" y="0">Hoje</tspan></text><text class="ad" transform="translate(503 281)"><tspan x="0" y="0">12/08 - Dia em que Jao, grande nome no Swiss</tspan><tspan x="0" y="25" xml:space="preserve"> Style nasceu.</tspan></text></g></svg>