<svg xmlns="http://www.w3.org/2000/svg" xmlns:xlink="http://www.w3.org/1999/xlink" viewBox="0 0 1024 768"><defs><style>.a,.u,.z{fill:none;}.b{clip-path:url(#dz);}.c,.l{opacity:0.6;}.aa,.ac,.d,.e,.k,.r{fill:#5f9ea0;}.d{opacity:0.07;}.aa,.e,.k,.r{stroke:#5f9ea0;}.e{opacity:0.3;}.ae,.f,.i,.m,.n,.w,.x{fill:#fff;}.f{stroke:#fffdfd;stroke-width:10px;font-size:115px;}.aa,.f,.j,.p,.z{font-family:Helvetica;}.g{fill:#646e74;stroke:#646e74;}.h{fill:#f5f5f5;}.h,.n,.p{stroke:#707070;}.i,.z{stroke:#fff;}.j{font-size:34px;}.l,.s{fill:#92581f;stroke:#92581f;}.m{font-size:20px;}.m,.v,.x{font-family:Helvetica-Bold, Helvetica;font-weight:700;}.o{fill:url(#c);}.ad,.p{fill:#707070;}.p,.q,.r,.s{stroke-width:5px;}.p{font-size:46px;}.q,.y{fill:#beb3b3;stroke:#beb3b3;}.t{clip-path:url(#d);}.u{stroke:#c4c3c3;}.v{font-size:19px;}.x{font-size:18px;}.y{opacity:0.49;}.aa,.z{stroke-width:3px;font-size:22px;}.z{opacity:0.75;}.aa{opacity:0.88;}.ab,.ac,.ad{stroke:none;}.af{filter:url(#dw);}.ag{filter:url(#du);}.ah{filter:url(#ds);}.ai{filter:url(#dq);}.aj{filter:url(#do);}.ak{filter:url(#dm);}.al{filter:url(#dk);}.am{filter:url(#di);}.an{filter:url(#dg);}.ao{filter:url(#de);}.ap{filter:url(#dc);}.aq{filter:url(#da);}.ar{filter:url(#cy);}.as{filter:url(#cw);}.at{filter:url(#cu);}.au{filter:url(#cs);}.av{filter:url(#cq);}.aw{filter:url(#co);}.ax{filter:url(#cm);}.ay{filter:url(#ck);}.az{filter:url(#ci);}.ba{filter:url(#cg);}.bb{filter:url(#ce);}.bc{filter:url(#cc);}.bd{filter:url(#ca);}.be{filter:url(#by);}.bf{filter:url(#bw);}.bg{filter:url(#bu);}.bh{filter:url(#bs);}.bi{filter:url(#bq);}.bj{filter:url(#bo);}.bk{filter:url(#bm);}.bl{filter:url(#bk);}.bm{filter:url(#bi);}.bn{filter:url(#bg);}.bo{filter:url(#be);}.bp{filter:url(#bc);}.bq{filter:url(#ba);}.br{filter:url(#ay);}.bs{filter:url(#aw);}.bt{filter:url(#au);}.bu{filter:url(#as);}.bv{filter:url(#aq);}.bw{filter:url(#ao);}.bx{filter:url(#am);}.by{filter:url(#ak);}.bz{filter:url(#ai);}.ca{filter:url(#ag);}.cb{filter:url(#ae);}.cc{filter:url(#ac);}.cd{filter:url(#aa);}.ce{filter:url(#y);}.cf{filter:url(#w);}.cg{filter:url(#u);}.ch{filter:url(#s);}.ci{filter:url(#q);}.cj{filter:url(#o);}.ck{filter:url(#m);}.cl{filter:url(#k);}.cm{filter:url(#i);}.cn{filter:url(#g);}.co{filter:url(#e);}.cp{filter:url(#a);}</style><filter id="a" x="-8.659" y="-1.587" width="1042" height="58.587" filterUnits="userSpaceOnUse"><feOffset dy="7" input="SourceAlpha"/><feGaussianBlur stdDeviation="3" result="b"/><feFlood flood-opacity="0.161"/><feComposite operator="in" in2="b"/><feComposite in="SourceGraphic"/></filter><pattern id="c" preserveAspectRatio="none" width="100%" height="100%" viewBox="0 0 1518 405"><image width="1518" height="405" xlink:href="Home%201%20%E2%80%93%204-image2.png"/></pattern><clipPath id="d"><rect class="a" width="433.734" height="299"/></clipPath><filter id="e" x="746.23" y="129.088" width="37" height="50" filterUnits="userSpaceOnUse"><feOffset dy="3" input="SourceAlpha"/><feGaussianBlur stdDeviation="3" result="f"/><feFlood flood-opacity="0.549"/><feComposite operator="in" in2="f"/><feComposite in="SourceGraphic"/></filter><filter id="g" x="756.188" y="129.088" width="37" height="50" filterUnits="userSpaceOnUse"><feOffset dy="3" input="SourceAlpha"/><feGaussianBlur stdDeviation="3" result="h"/><feFlood flood-opacity="0.549"/><feComposite operator="in" in2="h"/><feComposite in="SourceGraphic"/></filter><filter id="i" x="802.028" y="129.088" width="37" height="50" filterUnits="userSpaceOnUse"><feOffset dy="3" input="SourceAlpha"/><feGaussianBlur stdDeviation="3" result="j"/><feFlood flood-opacity="0.549"/><feComposite operator="in" in2="j"/><feComposite in="SourceGraphic"/></filter><filter id="k" x="811.985" y="129.088" width="37" height="50" filterUnits="userSpaceOnUse"><feOffset dy="3" input="SourceAlpha"/><feGaussianBlur stdDeviation="3" result="l"/><feFlood flood-opacity="0.549"/><feComposite operator="in" in2="l"/><feComposite in="SourceGraphic"/></filter><filter id="m" x="857.826" y="129.088" width="37" height="50" filterUnits="userSpaceOnUse"><feOffset dy="3" input="SourceAlpha"/><feGaussianBlur stdDeviation="3" result="n"/><feFlood flood-opacity="0.549"/><feComposite operator="in" in2="n"/><feComposite in="SourceGraphic"/></filter><filter id="o" x="867.783" y="129.088" width="37" height="50" filterUnits="userSpaceOnUse"><feOffset dy="3" input="SourceAlpha"/><feGaussianBlur stdDeviation="3" result="p"/><feFlood flood-opacity="0.549"/><feComposite operator="in" in2="p"/><feComposite in="SourceGraphic"/></filter><filter id="q" x="913.623" y="129.088" width="37" height="50" filterUnits="userSpaceOnUse"><feOffset dy="3" input="SourceAlpha"/><feGaussianBlur stdDeviation="3" result="r"/><feFlood flood-opacity="0.549"/><feComposite operator="in" in2="r"/><feComposite in="SourceGraphic"/></filter><filter id="s" x="923.58" y="129.088" width="37" height="50" filterUnits="userSpaceOnUse"><feOffset dy="3" input="SourceAlpha"/><feGaussianBlur stdDeviation="3" result="t"/><feFlood flood-opacity="0.549"/><feComposite operator="in" in2="t"/><feComposite in="SourceGraphic"/></filter><filter id="u" x="969.421" y="129.088" width="37" height="50" filterUnits="userSpaceOnUse"><feOffset dy="3" input="SourceAlpha"/><feGaussianBlur stdDeviation="3" result="v"/><feFlood flood-opacity="0.549"/><feComposite operator="in" in2="v"/><feComposite in="SourceGraphic"/></filter><filter id="w" x="979.378" y="129.088" width="37" height="50" filterUnits="userSpaceOnUse"><feOffset dy="3" input="SourceAlpha"/><feGaussianBlur stdDeviation="3" result="x"/><feFlood flood-opacity="0.549"/><feComposite operator="in" in2="x"/><feComposite in="SourceGraphic"/></filter><filter id="y" x="634.635" y="186.459" width="37" height="50" filterUnits="userSpaceOnUse"><feOffset dy="3" input="SourceAlpha"/><feGaussianBlur stdDeviation="3" result="z"/><feFlood flood-opacity="0.549"/><feComposite operator="in" in2="z"/><feComposite in="SourceGraphic"/></filter><filter id="aa" x="644.592" y="186.459" width="37" height="50" filterUnits="userSpaceOnUse"><feOffset dy="3" input="SourceAlpha"/><feGaussianBlur stdDeviation="3" result="ab"/><feFlood flood-opacity="0.549"/><feComposite operator="in" in2="ab"/><feComposite in="SourceGraphic"/></filter><filter id="ac" x="690.433" y="186.459" width="37" height="50" filterUnits="userSpaceOnUse"><feOffset dy="3" input="SourceAlpha"/><feGaussianBlur stdDeviation="3" result="ad"/><feFlood flood-opacity="0.549"/><feComposite operator="in" in2="ad"/><feComposite in="SourceGraphic"/></filter><filter id="ae" x="700.39" y="186.459" width="37" height="50" filterUnits="userSpaceOnUse"><feOffset dy="3" input="SourceAlpha"/><feGaussianBlur stdDeviation="3" result="af"/><feFlood flood-opacity="0.549"/><feComposite operator="in" in2="af"/><feComposite in="SourceGraphic"/></filter><filter id="ag" x="746.23" y="186.459" width="37" height="50" filterUnits="userSpaceOnUse"><feOffset dy="3" input="SourceAlpha"/><feGaussianBlur stdDeviation="3" result="ah"/><feFlood flood-opacity="0.549"/><feComposite operator="in" in2="ah"/><feComposite in="SourceGraphic"/></filter><filter id="ai" x="756.188" y="186.459" width="37" height="50" filterUnits="userSpaceOnUse"><feOffset dy="3" input="SourceAlpha"/><feGaussianBlur stdDeviation="3" result="aj"/><feFlood flood-opacity="0.549"/><feComposite operator="in" in2="aj"/><feComposite in="SourceGraphic"/></filter><filter id="ak" x="802.028" y="186.459" width="37" height="50" filterUnits="userSpaceOnUse"><feOffset dy="3" input="SourceAlpha"/><feGaussianBlur stdDeviation="3" result="al"/><feFlood flood-opacity="0.549"/><feComposite operator="in" in2="al"/><feComposite in="SourceGraphic"/></filter><filter id="am" x="811.985" y="186.459" width="37" height="50" filterUnits="userSpaceOnUse"><feOffset dy="3" input="SourceAlpha"/><feGaussianBlur stdDeviation="3" result="an"/><feFlood flood-opacity="0.549"/><feComposite operator="in" in2="an"/><feComposite in="SourceGraphic"/></filter><filter id="ao" x="857.826" y="186.459" width="37" height="50" filterUnits="userSpaceOnUse"><feOffset dy="3" input="SourceAlpha"/><feGaussianBlur stdDeviation="3" result="ap"/><feFlood flood-opacity="0.549"/><feComposite operator="in" in2="ap"/><feComposite in="SourceGraphic"/></filter><filter id="aq" x="867.783" y="186.459" width="37" height="50" filterUnits="userSpaceOnUse"><feOffset dy="3" input="SourceAlpha"/><feGaussianBlur stdDeviation="3" result="ar"/><feFlood flood-opacity="0.549"/><feComposite operator="in" in2="ar"/><feComposite in="SourceGraphic"/></filter><filter id="as" x="913.623" y="186.459" width="37" height="50" filterUnits="userSpaceOnUse"><feOffset dy="3" input="SourceAlpha"/><feGaussianBlur stdDeviation="3" result="at"/><feFlood flood-opacity="0.549"/><feComposite operator="in" in2="at"/><feComposite in="SourceGraphic"/></filter><filter id="au" x="923.58" y="186.459" width="37" height="50" filterUnits="userSpaceOnUse"><feOffset dy="3" input="SourceAlpha"/><feGaussianBlur stdDeviation="3" result="av"/><feFlood flood-opacity="0.549"/><feComposite operator="in" in2="av"/><feComposite in="SourceGraphic"/></filter><filter id="aw" x="969.421" y="186.459" width="37" height="50" filterUnits="userSpaceOnUse"><feOffset dy="3" input="SourceAlpha"/><feGaussianBlur stdDeviation="3" result="ax"/><feFlood flood-opacity="0.549"/><feComposite operator="in" in2="ax"/><feComposite in="SourceGraphic"/></filter><filter id="ay" x="979.378" y="186.459" width="37" height="50" filterUnits="userSpaceOnUse"><feOffset dy="3" input="SourceAlpha"/><feGaussianBlur stdDeviation="3" result="az"/><feFlood flood-opacity="0.549"/><feComposite operator="in" in2="az"/><feComposite in="SourceGraphic"/></filter><filter id="ba" x="634.635" y="243.83" width="37" height="50" filterUnits="userSpaceOnUse"><feOffset dy="3" input="SourceAlpha"/><feGaussianBlur stdDeviation="3" result="bb"/><feFlood flood-opacity="0.549"/><feComposite operator="in" in2="bb"/><feComposite in="SourceGraphic"/></filter><filter id="bc" x="644.592" y="243.83" width="37" height="50" filterUnits="userSpaceOnUse"><feOffset dy="3" input="SourceAlpha"/><feGaussianBlur stdDeviation="3" result="bd"/><feFlood flood-opacity="0.549"/><feComposite operator="in" in2="bd"/><feComposite in="SourceGraphic"/></filter><filter id="be" x="690.433" y="243.83" width="37" height="50" filterUnits="userSpaceOnUse"><feOffset dy="3" input="SourceAlpha"/><feGaussianBlur stdDeviation="3" result="bf"/><feFlood flood-opacity="0.549"/><feComposite operator="in" in2="bf"/><feComposite in="SourceGraphic"/></filter><filter id="bg" x="700.39" y="243.83" width="37" height="50" filterUnits="userSpaceOnUse"><feOffset dy="3" input="SourceAlpha"/><feGaussianBlur stdDeviation="3" result="bh"/><feFlood flood-opacity="0.549"/><feComposite operator="in" in2="bh"/><feComposite in="SourceGraphic"/></filter><filter id="bi" x="746.23" y="243.83" width="37" height="50" filterUnits="userSpaceOnUse"><feOffset dy="3" input="SourceAlpha"/><feGaussianBlur stdDeviation="3" result="bj"/><feFlood flood-opacity="0.549"/><feComposite operator="in" in2="bj"/><feComposite in="SourceGraphic"/></filter><filter id="bk" x="756.188" y="243.83" width="37" height="50" filterUnits="userSpaceOnUse"><feOffset dy="3" input="SourceAlpha"/><feGaussianBlur stdDeviation="3" result="bl"/><feFlood flood-opacity="0.549"/><feComposite operator="in" in2="bl"/><feComposite in="SourceGraphic"/></filter><filter id="bm" x="802.028" y="243.83" width="37" height="50" filterUnits="userSpaceOnUse"><feOffset dy="3" input="SourceAlpha"/><feGaussianBlur stdDeviation="3" result="bn"/><feFlood flood-opacity="0.549"/><feComposite operator="in" in2="bn"/><feComposite in="SourceGraphic"/></filter><filter id="bo" x="811.985" y="243.83" width="37" height="50" filterUnits="userSpaceOnUse"><feOffset dy="3" input="SourceAlpha"/><feGaussianBlur stdDeviation="3" result="bp"/><feFlood flood-opacity="0.549"/><feComposite operator="in" in2="bp"/><feComposite in="SourceGraphic"/></filter><filter id="bq" x="857.826" y="243.83" width="37" height="50" filterUnits="userSpaceOnUse"><feOffset dy="3" input="SourceAlpha"/><feGaussianBlur stdDeviation="3" result="br"/><feFlood flood-opacity="0.549"/><feComposite operator="in" in2="br"/><feComposite in="SourceGraphic"/></filter><filter id="bs" x="867.783" y="243.83" width="37" height="50" filterUnits="userSpaceOnUse"><feOffset dy="3" input="SourceAlpha"/><feGaussianBlur stdDeviation="3" result="bt"/><feFlood flood-opacity="0.549"/><feComposite operator="in" in2="bt"/><feComposite in="SourceGraphic"/></filter><filter id="bu" x="913.623" y="243.83" width="37" height="50" filterUnits="userSpaceOnUse"><feOffset dy="3" input="SourceAlpha"/><feGaussianBlur stdDeviation="3" result="bv"/><feFlood flood-opacity="0.549"/><feComposite operator="in" in2="bv"/><feComposite in="SourceGraphic"/></filter><filter id="bw" x="923.58" y="243.83" width="37" height="50" filterUnits="userSpaceOnUse"><feOffset dy="3" input="SourceAlpha"/><feGaussianBlur stdDeviation="3" result="bx"/><feFlood flood-opacity="0.549"/><feComposite operator="in" in2="bx"/><feComposite in="SourceGraphic"/></filter><filter id="by" x="969.421" y="243.83" width="37" height="50" filterUnits="userSpaceOnUse"><feOffset dy="3" input="SourceAlpha"/><feGaussianBlur stdDeviation="3" result="bz"/><feFlood flood-opacity="0.549"/><feComposite operator="in" in2="bz"/><feComposite in="SourceGraphic"/></filter><filter id="ca" x="979.378" y="243.83" width="37" height="50" filterUnits="userSpaceOnUse"><feOffset dy="3" input="SourceAlpha"/><feGaussianBlur stdDeviation="3" result="cb"/><feFlood flood-opacity="0.549"/><feComposite operator="in" in2="cb"/><feComposite in="SourceGraphic"/></filter><filter id="cc" x="634.635" y="301.201" width="37" height="50" filterUnits="userSpaceOnUse"><feOffset dy="3" input="SourceAlpha"/><feGaussianBlur stdDeviation="3" result="cd"/><feFlood flood-opacity="0.549"/><feComposite operator="in" in2="cd"/><feComposite in="SourceGraphic"/></filter><filter id="ce" x="644.592" y="301.201" width="37" height="50" filterUnits="userSpaceOnUse"><feOffset dy="3" input="SourceAlpha"/><feGaussianBlur stdDeviation="3" result="cf"/><feFlood flood-opacity="0.549"/><feComposite operator="in" in2="cf"/><feComposite in="SourceGraphic"/></filter><filter id="cg" x="690.433" y="301.201" width="37" height="50" filterUnits="userSpaceOnUse"><feOffset dy="3" input="SourceAlpha"/><feGaussianBlur stdDeviation="3" result="ch"/><feFlood flood-opacity="0.549"/><feComposite operator="in" in2="ch"/><feComposite in="SourceGraphic"/></filter><filter id="ci" x="700.39" y="301.201" width="37" height="50" filterUnits="userSpaceOnUse"><feOffset dy="3" input="SourceAlpha"/><feGaussianBlur stdDeviation="3" result="cj"/><feFlood flood-opacity="0.549"/><feComposite operator="in" in2="cj"/><feComposite in="SourceGraphic"/></filter><filter id="ck" x="746.23" y="301.201" width="37" height="50" filterUnits="userSpaceOnUse"><feOffset dy="3" input="SourceAlpha"/><feGaussianBlur stdDeviation="3" result="cl"/><feFlood flood-opacity="0.549"/><feComposite operator="in" in2="cl"/><feComposite in="SourceGraphic"/></filter><filter id="cm" x="756.188" y="301.201" width="37" height="50" filterUnits="userSpaceOnUse"><feOffset dy="3" input="SourceAlpha"/><feGaussianBlur stdDeviation="3" result="cn"/><feFlood flood-opacity="0.549"/><feComposite operator="in" in2="cn"/><feComposite in="SourceGraphic"/></filter><filter id="co" x="802.028" y="301.201" width="37" height="50" filterUnits="userSpaceOnUse"><feOffset dy="3" input="SourceAlpha"/><feGaussianBlur stdDeviation="3" result="cp"/><feFlood flood-opacity="0.549"/><feComposite operator="in" in2="cp"/><feComposite in="SourceGraphic"/></filter><filter id="cq" x="811.985" y="301.201" width="37" height="50" filterUnits="userSpaceOnUse"><feOffset dy="3" input="SourceAlpha"/><feGaussianBlur stdDeviation="3" result="cr"/><feFlood flood-opacity="0.549"/><feComposite operator="in" in2="cr"/><feComposite in="SourceGraphic"/></filter><filter id="cs" x="857.826" y="301.201" width="37" height="50" filterUnits="userSpaceOnUse"><feOffset dy="3" input="SourceAlpha"/><feGaussianBlur stdDeviation="3" result="ct"/><feFlood flood-opacity="0.549"/><feComposite operator="in" in2="ct"/><feComposite in="SourceGraphic"/></filter><filter id="cu" x="867.783" y="301.201" width="37" height="50" filterUnits="userSpaceOnUse"><feOffset dy="3" input="SourceAlpha"/><feGaussianBlur stdDeviation="3" result="cv"/><feFlood flood-opacity="0.549"/><feComposite operator="in" in2="cv"/><feComposite in="SourceGraphic"/></filter><filter id="cw" x="913.623" y="301.201" width="37" height="50" filterUnits="userSpaceOnUse"><feOffset dy="3" input="SourceAlpha"/><feGaussianBlur stdDeviation="3" result="cx"/><feFlood flood-opacity="0.549"/><feComposite operator="in" in2="cx"/><feComposite in="SourceGraphic"/></filter><filter id="cy" x="923.58" y="301.201" width="37" height="50" filterUnits="userSpaceOnUse"><feOffset dy="3" input="SourceAlpha"/><feGaussianBlur stdDeviation="3" result="cz"/><feFlood flood-opacity="0.549"/><feComposite operator="in" in2="cz"/><feComposite in="SourceGraphic"/></filter><filter id="da" x="969.421" y="301.201" width="37" height="50" filterUnits="userSpaceOnUse"><feOffset dy="3" input="SourceAlpha"/><feGaussianBlur stdDeviation="3" result="db"/><feFlood flood-opacity="0.549"/><feComposite operator="in" in2="db"/><feComposite in="SourceGraphic"/></filter><filter id="dc" x="979.378" y="301.201" width="37" height="50" filterUnits="userSpaceOnUse"><feOffset dy="3" input="SourceAlpha"/><feGaussianBlur stdDeviation="3" result="dd"/><feFlood flood-opacity="0.549"/><feComposite operator="in" in2="dd"/><feComposite in="SourceGraphic"/></filter><filter id="de" x="634.635" y="358.572" width="37" height="50" filterUnits="userSpaceOnUse"><feOffset dy="3" input="SourceAlpha"/><feGaussianBlur stdDeviation="3" result="df"/><feFlood flood-opacity="0.549"/><feComposite operator="in" in2="df"/><feComposite in="SourceGraphic"/></filter><filter id="dg" x="644.592" y="358.572" width="37" height="50" filterUnits="userSpaceOnUse"><feOffset dy="3" input="SourceAlpha"/><feGaussianBlur stdDeviation="3" result="dh"/><feFlood flood-opacity="0.549"/><feComposite operator="in" in2="dh"/><feComposite in="SourceGraphic"/></filter><filter id="di" x="690.433" y="358.572" width="37" height="50" filterUnits="userSpaceOnUse"><feOffset dy="3" input="SourceAlpha"/><feGaussianBlur stdDeviation="3" result="dj"/><feFlood flood-opacity="0.549"/><feComposite operator="in" in2="dj"/><feComposite in="SourceGraphic"/></filter><filter id="dk" x="700.39" y="358.572" width="37" height="50" filterUnits="userSpaceOnUse"><feOffset dy="3" input="SourceAlpha"/><feGaussianBlur stdDeviation="3" result="dl"/><feFlood flood-opacity="0.549"/><feComposite operator="in" in2="dl"/><feComposite in="SourceGraphic"/></filter><filter id="dm" x="746.23" y="358.572" width="37" height="50" filterUnits="userSpaceOnUse"><feOffset dy="3" input="SourceAlpha"/><feGaussianBlur stdDeviation="3" result="dn"/><feFlood flood-opacity="0.549"/><feComposite operator="in" in2="dn"/><feComposite in="SourceGraphic"/></filter><filter id="do" x="756.188" y="358.572" width="37" height="50" filterUnits="userSpaceOnUse"><feOffset dy="3" input="SourceAlpha"/><feGaussianBlur stdDeviation="3" result="dp"/><feFlood flood-opacity="0.549"/><feComposite operator="in" in2="dp"/><feComposite in="SourceGraphic"/></filter><filter id="dq" x="802.028" y="358.572" width="37" height="50" filterUnits="userSpaceOnUse"><feOffset dy="3" input="SourceAlpha"/><feGaussianBlur stdDeviation="3" result="dr"/><feFlood flood-opacity="0.549"/><feComposite operator="in" in2="dr"/><feComposite in="SourceGraphic"/></filter><filter id="ds" x="811.985" y="358.572" width="37" height="50" filterUnits="userSpaceOnUse"><feOffset dy="3" input="SourceAlpha"/><feGaussianBlur stdDeviation="3" result="dt"/><feFlood flood-opacity="0.549"/><feComposite operator="in" in2="dt"/><feComposite in="SourceGraphic"/></filter><filter id="du" x="857.826" y="358.572" width="37" height="50" filterUnits="userSpaceOnUse"><feOffset dy="3" input="SourceAlpha"/><feGaussianBlur stdDeviation="3" result="dv"/><feFlood flood-opacity="0.549"/><feComposite operator="in" in2="dv"/><feComposite in="SourceGraphic"/></filter><filter id="dw" x="867.783" y="358.572" width="37" height="50" filterUnits="userSpaceOnUse"><feOffset dy="3" input="SourceAlpha"/><feGaussianBlur stdDeviation="3" result="dx"/><feFlood flood-opacity="0.549"/><feComposite operator="in" in2="dx"/><feComposite in="SourceGraphic"/></filter><clipPath id="dz"><rect width="1024" height="768"/></clipPath><image id="ea" width="28.498" height="28.498" xlink:href="Home%201%20%E2%80%93%204-image.png"/></defs><g id="dy" class="b"><rect class="ae" width="1024" height="768"/><g class="cp" transform="matrix(1, 0, 0, 1, 0, 0)"><rect class="c" width="1024" height="40.587" transform="translate(0.34 0.41)"/></g><g class="d" transform="translate(65 88.411)"><path class="ab" d="M 110.5 390.6217041015625 L 0.5 390.6217041015625 L 0.5 -3.481626272201538 L 110.5 0.4936349987983704 L 110.5 390.6217041015625 Z"/><path class="ac" d="M 1 -2.96319580078125 L 1 390.1217041015625 L 110 390.1217041015625 L 110 0.975860595703125 L 1 -2.96319580078125 M 0 -4 L 111 0.0113525390625 L 111 391.1217041015625 L 0 391.1217041015625 L 0 -4 Z"/></g><g class="e" transform="translate(176.57 195.365) rotate(90)"><rect class="ab" width="202" height="110.141" rx="10"/><rect class="a" x="0.5" y="0.5" width="201" height="109.141" rx="9.5"/></g><text class="f" transform="translate(700.5 155.5)"><tspan x="0" y="0">2019</tspan></text><g transform="translate(2)"><g class="g" transform="translate(14.46 482.532) rotate(-90)"><path class="ab" d="M18.627,0H44a0,0,0,0,1,0,0V37.254a0,0,0,0,1,0,0H18.627A18.627,18.627,0,0,1,0,18.627v0A18.627,18.627,0,0,1,18.627,0Z"/><path class="a" d="M18.627.5H43.035A.465.465,0,0,1,43.5.965V36.289a.465.465,0,0,1-.465.465H18.627A18.127,18.127,0,0,1,.5,18.627v0A18.127,18.127,0,0,1,18.627.5Z"/></g><g transform="translate(14 137.53)"><g class="h" transform="translate(38.173) rotate(90)"><rect class="ab" width="301.426" height="38.173"/><rect class="a" x="0.5" y="0.5" width="300.426" height="37.173"/></g></g><g transform="translate(14.46 95.709)"><g class="g" transform="translate(37.254) rotate(90)"><path class="ab" d="M18.627,0H44a0,0,0,0,1,0,0V37.254a0,0,0,0,1,0,0H18.627A18.627,18.627,0,0,1,0,18.627v0A18.627,18.627,0,0,1,18.627,0Z"/><path class="a" d="M18.627.5H43.035A.465.465,0,0,1,43.5.965V36.289a.465.465,0,0,1-.465.465H18.627A18.127,18.127,0,0,1,.5,18.627v0A18.127,18.127,0,0,1,18.627.5Z"/></g><g transform="translate(4.136 5.291)"><use transform="translate(28.498) rotate(90)" xlink:href="#ea"/></g></g><use transform="matrix(-0.017, -1, 1, -0.017, 18.847, 474.268)" xlink:href="#ea"/></g><use transform="translate(744 214) rotate(90) scale(0.702)" xlink:href="#ea"/><g class="i" transform="translate(160.391 62)"><ellipse class="ab" cx="6.5" cy="6" rx="6.5" ry="6"/><ellipse class="a" cx="6.5" cy="6" rx="6" ry="5.5"/></g><text class="j" transform="translate(78 151.709)"><tspan x="0" y="0">10:00</tspan></text><text class="j" transform="translate(78 227.657)"><tspan x="0" y="0">11:00</tspan></text><text class="j" transform="translate(78 303.604)"><tspan x="0" y="0">12:00</tspan></text><text class="j" transform="translate(78 379.552)"><tspan x="0" y="0">13:00</tspan></text><g class="k" transform="translate(326.57 46.365) rotate(90)"><rect class="ab" width="43" height="312.141" rx="10"/><rect class="a" x="0.5" y="0.5" width="42" height="311.141" rx="9.5"/></g><g transform="translate(326.57 46.365)"><g class="l" transform="translate(306 0) rotate(90)"><rect class="ab" width="43" height="306" rx="10"/><rect class="a" x="0.5" y="0.5" width="42" height="305" rx="9.5"/></g><text class="m" transform="translate(11.57 26.635)"><tspan x="0" y="0">Horários</tspan></text></g><text class="m" transform="translate(26 75)"><tspan x="0" y="0">Eventos</tspan></text><g class="i" transform="translate(297.918 62)"><ellipse class="ab" cx="6.5" cy="6" rx="6.5" ry="6"/><ellipse class="a" cx="6.5" cy="6" rx="6" ry="5.5"/></g><g class="n" transform="translate(0 491)"><rect class="ab" width="1024" height="277"/><rect class="a" x="0.5" y="0.5" width="1023" height="276"/></g><rect class="o" width="1030" height="275" transform="translate(-3 493)"/><text class="p" transform="translate(818.5 84.5)"><tspan x="0" y="0">2019</tspan></text><g transform="translate(720.953 52.832)"><path class="q" d="M17.272-48.091h4.993v23.346q0,4.793-2.747,7.4T11.7-14.739q-5.168,0-7.978-2.43A7.793,7.793,0,0,1,1.14-23.861v-2.253H5.806v2.253a5.279,5.279,0,0,0,1.455,3.987,5.725,5.725,0,0,0,4.14,1.4,5.59,5.59,0,0,0,4.29-1.69,6.441,6.441,0,0,0,1.581-4.583h0Z" transform="translate(-1.123 48.551)"/><path class="r" d="M.949-14.739,14.134-48.091h5.393L32.071-14.739H27L23.438-24.4H9.493L5.825-14.739H.949ZM16.615-43.19,11-28.4H21.987L16.6-43.19Z" transform="translate(16.97 48.091)"/><path class="s" d="M10.2-20.711H5.713V-53.833H11.3l17.21,26.918h0V-53.833H33v33.122H27.9L10.2-47.732h0Z" transform="translate(40.105 54.293)"/></g><g transform="translate(269.814 -800)"><g class="n" transform="translate(674 806)"><ellipse class="ab" cx="15.583" cy="14.951" rx="15.583" ry="14.951"/><ellipse class="a" cx="15.583" cy="14.951" rx="15.083" ry="14.451"/></g><image width="20.215" height="20.215" transform="translate(679.054 810.633)" xlink:href="Home%201%20%E2%80%93%204-image3.png"/><g class="n" transform="translate(710.64 806)"><ellipse class="ab" cx="15.583" cy="14.951" rx="15.583" ry="14.951"/><ellipse class="a" cx="15.583" cy="14.951" rx="15.083" ry="14.451"/></g><image width="18.531" height="15.319" transform="translate(716.675 813.16)" xlink:href="Home%201%20%E2%80%93%204-image4.png"/></g><text class="m" transform="translate(65 28)"><tspan x="0" y="0">10:45</tspan></text><text class="m" transform="translate(425 28)"><tspan x="0" y="0">27 de Janeiro de 2019</tspan></text><g class="t" transform="translate(183.833 149.157)"><g transform="translate(-203.833 -144.157)"><line class="u" x2="433.734" transform="translate(203.833 144.157)"/></g><g transform="translate(-203.833 -124.157)"><line class="u" x2="433.734" transform="translate(203.833 144.157)"/></g><g transform="translate(-203.833 -104.157)"><line class="u" x2="433.734" transform="translate(203.833 144.157)"/></g><g transform="translate(-203.833 -84.157)"><line class="u" x2="433.734" transform="translate(203.833 144.157)"/></g><g transform="translate(-203.833 -64.157)"><line class="u" x2="433.734" transform="translate(203.833 144.157)"/></g><g transform="translate(-203.833 -44.157)"><line class="u" x2="433.734" transform="translate(203.833 144.157)"/></g><g transform="translate(-203.833 -24.157)"><line class="u" x2="433.734" transform="translate(203.833 144.157)"/></g><g transform="translate(-203.833 -4.157)"><line class="u" x2="433.734" transform="translate(203.833 144.157)"/></g><g transform="translate(-203.833 15.843)"><line class="u" x2="433.734" transform="translate(203.833 144.157)"/></g><g transform="translate(-203.833 35.843)"><line class="u" x2="433.734" transform="translate(203.833 144.157)"/></g><g transform="translate(-203.833 55.843)"><line class="u" x2="433.734" transform="translate(203.833 144.157)"/></g><g transform="translate(-203.833 75.843)"><line class="u" x2="433.734" transform="translate(203.833 144.157)"/></g><g transform="translate(-203.833 95.843)"><line class="u" x2="433.734" transform="translate(203.833 144.157)"/></g><g transform="translate(-203.833 115.843)"><line class="u" x2="433.734" transform="translate(203.833 144.157)"/></g><g transform="translate(-203.833 135.843)"><line class="u" x2="433.734" transform="translate(203.833 144.157)"/></g></g><text class="v" transform="translate(183.249 113.53)"><tspan x="0" y="0">Título</tspan></text><g transform="translate(-2141.453 903.221)"><g class="n" transform="translate(2169.419 -884.781)"><rect class="ab" width="13.78" height="10.022"/><rect class="a" x="0.5" y="0.5" width="12.78" height="9.022"/></g><g class="w" transform="translate(2167.341 -893.036)"><path class="ab" d="M 16.30694961547852 9.007614135742188 L 1.429946184158325 9.007614135742188 L 9.141095161437988 2.863820791244507 L 16.30694961547852 9.007614135742188 Z"/><path class="ad" d="M 9.129420280456543 3.51241397857666 L 2.859884262084961 8.507614135742188 L 14.95560646057129 8.507614135742188 L 9.129420280456543 3.51241397857666 M 9.152775764465332 2.215213775634766 L 17.65831565856934 9.507614135742188 L -3.814697265625e-06 9.507614135742188 L 9.152775764465332 2.215213775634766 Z"/></g></g><rect class="c" width="55.416" height="387.719" transform="translate(632.57 91.781)"/><rect class="c" width="55.416" height="387.752" transform="translate(687.986 91.781)"/><rect class="c" width="55.416" height="387.752" transform="translate(743.402 91.781)"/><rect class="c" width="55.036" height="387.719" transform="translate(854.234 91.781)"/><rect class="c" width="55.416" height="387.719" transform="translate(798.818 91.781)"/><rect class="c" width="55.416" height="387.752" transform="translate(909.27 91.781)"/><rect class="c" width="57.314" height="387.719" transform="translate(964.686 91.781)"/><text class="x" transform="translate(640.482 113.176)"><tspan x="0" y="0">Dom</tspan></text><text class="x" transform="translate(695.864 113.176)"><tspan x="0" y="0">Seg</tspan></text><text class="x" transform="translate(757.399 113.176)"><tspan x="0" y="0">Ter</tspan></text><text class="x" transform="translate(808.385 113.176)"><tspan x="0" y="0">Qua</tspan></text><text class="x" transform="translate(866.404 113.176)"><tspan x="0" y="0">Qui</tspan></text><text class="x" transform="translate(920.027 113.176)"><tspan x="0" y="0">Sex</tspan></text><text class="x" transform="translate(976.288 113.176)"><tspan x="0" y="0">Sab</tspan></text><g transform="translate(981.594 434.743) rotate(-3)"><use transform="translate(0 19.283) rotate(-42) scale(0.405)" xlink:href="#ea"/><use transform="matrix(-0.266, -0.306, 0.306, -0.266, 19.135, 28.434)" xlink:href="#ea"/><use transform="translate(28.428 9.309) rotate(139) scale(0.405)" xlink:href="#ea"/><use transform="translate(9.018 0) rotate(47) scale(0.405)" xlink:href="#ea"/></g><g transform="translate(938.833 428.564) rotate(42)"><use transform="translate(0 18.691) rotate(-42) scale(0.405)" xlink:href="#ea"/><use transform="matrix(-0.306, 0.266, -0.266, -0.306, 28.428, 8.716)" xlink:href="#ea"/></g><g transform="translate(0 -5)"><g class="y" transform="translate(639.603 367.169)"><ellipse class="ab" cx="18.021" cy="19.592" rx="18.021" ry="19.592"/><ellipse class="a" cx="18.021" cy="19.592" rx="17.521" ry="19.092"/></g><g transform="translate(646.635 143.088)"><g transform="translate(111.595 0)"><g class="co" transform="matrix(1, 0, 0, 1, -758.23, -138.09)"><text class="z" transform="translate(758.23 159.09)"><tspan x="0" y="0">0</tspan></text></g><g class="cn" transform="matrix(1, 0, 0, 1, -758.23, -138.09)"><text class="aa" transform="translate(768.19 159.09)"><tspan x="0" y="0">1</tspan></text></g></g><g transform="translate(167.393 0)"><g class="cm" transform="matrix(1, 0, 0, 1, -814.03, -138.09)"><text class="z" transform="translate(814.03 159.09)"><tspan x="0" y="0">0</tspan></text></g><g class="cl" transform="matrix(1, 0, 0, 1, -814.03, -138.09)"><text class="aa" transform="translate(823.99 159.09)"><tspan x="0" y="0">2</tspan></text></g></g><g transform="translate(223.19 0)"><g class="ck" transform="matrix(1, 0, 0, 1, -869.83, -138.09)"><text class="z" transform="translate(869.83 159.09)"><tspan x="0" y="0">0</tspan></text></g><g class="cj" transform="matrix(1, 0, 0, 1, -869.83, -138.09)"><text class="aa" transform="translate(879.78 159.09)"><tspan x="0" y="0">3</tspan></text></g></g><g transform="translate(278.988 0)"><g class="ci" transform="matrix(1, 0, 0, 1, -925.62, -138.09)"><text class="z" transform="translate(925.62 159.09)"><tspan x="0" y="0">0</tspan></text></g><g class="ch" transform="matrix(1, 0, 0, 1, -925.62, -138.09)"><text class="aa" transform="translate(935.58 159.09)"><tspan x="0" y="0">4</tspan></text></g></g><g transform="translate(334.786 0)"><g class="cg" transform="matrix(1, 0, 0, 1, -981.42, -138.09)"><text class="z" transform="translate(981.42 159.09)"><tspan x="0" y="0">0</tspan></text></g><g class="cf" transform="matrix(1, 0, 0, 1, -981.42, -138.09)"><text class="aa" transform="translate(991.38 159.09)"><tspan x="0" y="0">5</tspan></text></g></g><g transform="translate(0 57.371)"><g class="ce" transform="matrix(1, 0, 0, 1, -646.64, -195.46)"><text class="z" transform="translate(646.64 216.46)"><tspan x="0" y="0">0</tspan></text></g><g class="cd" transform="matrix(1, 0, 0, 1, -646.64, -195.46)"><text class="aa" transform="translate(656.59 216.46)"><tspan x="0" y="0">6</tspan></text></g></g><g transform="translate(55.798 57.371)"><g class="cc" transform="matrix(1, 0, 0, 1, -702.43, -195.46)"><text class="z" transform="translate(702.43 216.46)"><tspan x="0" y="0">0</tspan></text></g><g class="cb" transform="matrix(1, 0, 0, 1, -702.43, -195.46)"><text class="aa" transform="translate(712.39 216.46)"><tspan x="0" y="0">7</tspan></text></g></g><g transform="translate(111.595 57.371)"><g class="ca" transform="matrix(1, 0, 0, 1, -758.23, -195.46)"><text class="z" transform="translate(758.23 216.46)"><tspan x="0" y="0">0</tspan></text></g><g class="bz" transform="matrix(1, 0, 0, 1, -758.23, -195.46)"><text class="aa" transform="translate(768.19 216.46)"><tspan x="0" y="0">8</tspan></text></g></g><g transform="translate(167.393 57.371)"><g class="by" transform="matrix(1, 0, 0, 1, -814.03, -195.46)"><text class="z" transform="translate(814.03 216.46)"><tspan x="0" y="0">0</tspan></text></g><g class="bx" transform="matrix(1, 0, 0, 1, -814.03, -195.46)"><text class="aa" transform="translate(823.99 216.46)"><tspan x="0" y="0">9</tspan></text></g></g><g transform="translate(223.19 57.371)"><g class="bw" transform="matrix(1, 0, 0, 1, -869.83, -195.46)"><text class="z" transform="translate(869.83 216.46)"><tspan x="0" y="0">1</tspan></text></g><g class="bv" transform="matrix(1, 0, 0, 1, -869.83, -195.46)"><text class="aa" transform="translate(879.78 216.46)"><tspan x="0" y="0">0</tspan></text></g></g><g transform="translate(278.988 57.371)"><g class="bu" transform="matrix(1, 0, 0, 1, -925.62, -195.46)"><text class="z" transform="translate(925.62 216.46)"><tspan x="0" y="0">1</tspan></text></g><g class="bt" transform="matrix(1, 0, 0, 1, -925.62, -195.46)"><text class="aa" transform="translate(935.58 216.46)"><tspan x="0" y="0">1</tspan></text></g></g><g transform="translate(334.786 57.371)"><g class="bs" transform="matrix(1, 0, 0, 1, -981.42, -195.46)"><text class="z" transform="translate(981.42 216.46)"><tspan x="0" y="0">1</tspan></text></g><g class="br" transform="matrix(1, 0, 0, 1, -981.42, -195.46)"><text class="aa" transform="translate(991.38 216.46)"><tspan x="0" y="0">2</tspan></text></g></g><g transform="translate(0 114.742)"><g class="bq" transform="matrix(1, 0, 0, 1, -646.64, -252.83)"><text class="z" transform="translate(646.64 273.83)"><tspan x="0" y="0">1</tspan></text></g><g class="bp" transform="matrix(1, 0, 0, 1, -646.64, -252.83)"><text class="aa" transform="translate(656.59 273.83)"><tspan x="0" y="0">3</tspan></text></g></g><g transform="translate(55.798 114.742)"><g class="bo" transform="matrix(1, 0, 0, 1, -702.43, -252.83)"><text class="z" transform="translate(702.43 273.83)"><tspan x="0" y="0">1</tspan></text></g><g class="bn" transform="matrix(1, 0, 0, 1, -702.43, -252.83)"><text class="aa" transform="translate(712.39 273.83)"><tspan x="0" y="0">4</tspan></text></g></g><g transform="translate(111.595 114.742)"><g class="bm" transform="matrix(1, 0, 0, 1, -758.23, -252.83)"><text class="z" transform="translate(758.23 273.83)"><tspan x="0" y="0">1</tspan></text></g><g class="bl" transform="matrix(1, 0, 0, 1, -758.23, -252.83)"><text class="aa" transform="translate(768.19 273.83)"><tspan x="0" y="0">5</tspan></text></g></g><g transform="translate(167.393 114.742)"><g class="bk" transform="matrix(1, 0, 0, 1, -814.03, -252.83)"><text class="z" transform="translate(814.03 273.83)"><tspan x="0" y="0">1</tspan></text></g><g class="bj" transform="matrix(1, 0, 0, 1, -814.03, -252.83)"><text class="aa" transform="translate(823.99 273.83)"><tspan x="0" y="0">6</tspan></text></g></g><g transform="translate(223.19 114.742)"><g class="bi" transform="matrix(1, 0, 0, 1, -869.83, -252.83)"><text class="z" transform="translate(869.83 273.83)"><tspan x="0" y="0">1</tspan></text></g><g class="bh" transform="matrix(1, 0, 0, 1, -869.83, -252.83)"><text class="aa" transform="translate(879.78 273.83)"><tspan x="0" y="0">7</tspan></text></g></g><g transform="translate(278.988 114.742)"><g class="bg" transform="matrix(1, 0, 0, 1, -925.62, -252.83)"><text class="z" transform="translate(925.62 273.83)"><tspan x="0" y="0">1</tspan></text></g><g class="bf" transform="matrix(1, 0, 0, 1, -925.62, -252.83)"><text class="aa" transform="translate(935.58 273.83)"><tspan x="0" y="0">8</tspan></text></g></g><g transform="translate(334.786 114.742)"><g class="be" transform="matrix(1, 0, 0, 1, -981.42, -252.83)"><text class="z" transform="translate(981.42 273.83)"><tspan x="0" y="0">1</tspan></text></g><g class="bd" transform="matrix(1, 0, 0, 1, -981.42, -252.83)"><text class="aa" transform="translate(991.38 273.83)"><tspan x="0" y="0">9</tspan></text></g></g><g transform="translate(0 172.113)"><g class="bc" transform="matrix(1, 0, 0, 1, -646.64, -310.2)"><text class="z" transform="translate(646.64 331.2)"><tspan x="0" y="0">2</tspan></text></g><g class="bb" transform="matrix(1, 0, 0, 1, -646.64, -310.2)"><text class="aa" transform="translate(656.59 331.2)"><tspan x="0" y="0">0</tspan></text></g></g><g transform="translate(55.798 172.113)"><g class="ba" transform="matrix(1, 0, 0, 1, -702.43, -310.2)"><text class="z" transform="translate(702.43 331.2)"><tspan x="0" y="0">2</tspan></text></g><g class="az" transform="matrix(1, 0, 0, 1, -702.43, -310.2)"><text class="aa" transform="translate(712.39 331.2)"><tspan x="0" y="0">1</tspan></text></g></g><g transform="translate(111.595 172.113)"><g class="ay" transform="matrix(1, 0, 0, 1, -758.23, -310.2)"><text class="z" transform="translate(758.23 331.2)"><tspan x="0" y="0">2</tspan></text></g><g class="ax" transform="matrix(1, 0, 0, 1, -758.23, -310.2)"><text class="aa" transform="translate(768.19 331.2)"><tspan x="0" y="0">2</tspan></text></g></g><g transform="translate(167.393 172.113)"><g class="aw" transform="matrix(1, 0, 0, 1, -814.03, -310.2)"><text class="z" transform="translate(814.03 331.2)"><tspan x="0" y="0">2</tspan></text></g><g class="av" transform="matrix(1, 0, 0, 1, -814.03, -310.2)"><text class="aa" transform="translate(823.99 331.2)"><tspan x="0" y="0">3</tspan></text></g></g><g transform="translate(223.19 172.113)"><g class="au" transform="matrix(1, 0, 0, 1, -869.83, -310.2)"><text class="z" transform="translate(869.83 331.2)"><tspan x="0" y="0">2</tspan></text></g><g class="at" transform="matrix(1, 0, 0, 1, -869.83, -310.2)"><text class="aa" transform="translate(879.78 331.2)"><tspan x="0" y="0">4</tspan></text></g></g><g transform="translate(278.988 172.113)"><g class="as" transform="matrix(1, 0, 0, 1, -925.62, -310.2)"><text class="z" transform="translate(925.62 331.2)"><tspan x="0" y="0">2</tspan></text></g><g class="ar" transform="matrix(1, 0, 0, 1, -925.62, -310.2)"><text class="aa" transform="translate(935.58 331.2)"><tspan x="0" y="0">5</tspan></text></g></g><g transform="translate(334.786 172.113)"><g class="aq" transform="matrix(1, 0, 0, 1, -981.42, -310.2)"><text class="z" transform="translate(981.42 331.2)"><tspan x="0" y="0">2</tspan></text></g><g class="ap" transform="matrix(1, 0, 0, 1, -981.42, -310.2)"><text class="aa" transform="translate(991.38 331.2)"><tspan x="0" y="0">6</tspan></text></g></g><g transform="translate(0 229.484)"><g class="ao" transform="matrix(1, 0, 0, 1, -646.64, -367.57)"><text class="z" transform="translate(646.64 388.57)"><tspan x="0" y="0">2</tspan></text></g><g class="an" transform="matrix(1, 0, 0, 1, -646.64, -367.57)"><text class="aa" transform="translate(656.59 388.57)"><tspan x="0" y="0">7</tspan></text></g></g><g transform="translate(55.798 229.484)"><g class="am" transform="matrix(1, 0, 0, 1, -702.43, -367.57)"><text class="z" transform="translate(702.43 388.57)"><tspan x="0" y="0">2</tspan></text></g><g class="al" transform="matrix(1, 0, 0, 1, -702.43, -367.57)"><text class="aa" transform="translate(712.39 388.57)"><tspan x="0" y="0">8</tspan></text></g></g><g transform="translate(111.595 229.484)"><g class="ak" transform="matrix(1, 0, 0, 1, -758.23, -367.57)"><text class="z" transform="translate(758.23 388.57)"><tspan x="0" y="0">2</tspan></text></g><g class="aj" transform="matrix(1, 0, 0, 1, -758.23, -367.57)"><text class="aa" transform="translate(768.19 388.57)"><tspan x="0" y="0">9</tspan></text></g></g><g transform="translate(167.393 229.484)"><g class="ai" transform="matrix(1, 0, 0, 1, -814.03, -367.57)"><text class="z" transform="translate(814.03 388.57)"><tspan x="0" y="0">3</tspan></text></g><g class="ah" transform="matrix(1, 0, 0, 1, -814.03, -367.57)"><text class="aa" transform="translate(823.99 388.57)"><tspan x="0" y="0">0</tspan></text></g></g><g transform="translate(223.19 229.484)"><g class="ag" transform="matrix(1, 0, 0, 1, -869.83, -367.57)"><text class="z" transform="translate(869.83 388.57)"><tspan x="0" y="0">3</tspan></text></g><g class="af" transform="matrix(1, 0, 0, 1, -869.83, -367.57)"><text class="aa" transform="translate(879.78 388.57)"><tspan x="0" y="0">1</tspan></text></g></g></g></g><text class="v" transform="translate(619.249 459.53)"><tspan x="-116.208" y="0">16 / 01 / 2019</tspan></text><g class="i" transform="translate(821.793 278)"><circle class="ab" cx="5" cy="5" r="5"/><circle class="a" cx="5" cy="5" r="4.5"/></g></g></svg>