<?xml version="1.0" encoding="UTF-8" standalone="no"?>
<svg
   xmlns:dc="http://purl.org/dc/elements/1.1/"
   xmlns:cc="http://creativecommons.org/ns#"
   xmlns:rdf="http://www.w3.org/1999/02/22-rdf-syntax-ns#"
   xmlns:svg="http://www.w3.org/2000/svg"
   xmlns="http://www.w3.org/2000/svg"
   xmlns:sodipodi="http://sodipodi.sourceforge.net/DTD/sodipodi-0.dtd"
   xmlns:inkscape="http://www.inkscape.org/namespaces/inkscape"
   width="841.90002mm"
   height="595.29999mm"
   viewBox="0 0 841.90002 595.29999"
   version="1.1"
   id="svg2511"
   inkscape:version="1.0.1 (3bc2e813f5, 2020-09-07)"
   sodipodi:docname="acompanhamento.svg">
  <defs
     id="defs2505" />
  <sodipodi:namedview
     id="base"
     pagecolor="#ffffff"
     bordercolor="#666666"
     borderopacity="1.0"
     inkscape:pageopacity="0.0"
     inkscape:pageshadow="2"
     inkscape:zoom="0.0875"
     inkscape:cx="2139.3906"
     inkscape:cy="2080.7965"
     inkscape:document-units="mm"
     inkscape:current-layer="layer1"
     inkscape:document-rotation="0"
     showgrid="false"
     inkscape:window-width="1366"
     inkscape:window-height="738"
     inkscape:window-x="0"
     inkscape:window-y="0"
     inkscape:window-maximized="0" />
  <metadata
     id="metadata2508">
    <rdf:RDF>
      <cc:Work
         rdf:about="">
        <dc:format>image/svg+xml</dc:format>
        <dc:type
           rdf:resource="http://purl.org/dc/dcmitype/StillImage" />
        <dc:title />
      </cc:Work>
    </rdf:RDF>
  </metadata>
  <g
     inkscape:label="Layer 1"
     inkscape:groupmode="layer"
     id="layer1">
    <g
       id="g11445"
       transform="matrix(1.3167961,0,0,1.3167961,-204.92696,-2171.2723)">
      <g
         opacity="0.2"
         id="g2716">
        <path
           opacity="0.2"
           d="m 703.628,1911.36 c -3.624,10.54 -9.883,29.64 -24.706,48.09 -21.083,25.69 -53.695,43.8 -53.695,43.8 0,0 0.659,15.48 3.294,28.66 0.989,4.61 1.647,7.24 7.906,27.01 2.306,7.24 4.942,15.81 8.236,25.36 -4.283,-2.97 -10.871,-7.58 -17.789,-14.16 -7.576,-6.92 -12.517,-13.18 -21.412,-24.05 -7.576,-9.22 -16.141,-20.42 -16.141,-20.42 -26.353,10.87 -64.894,21.08 -106.4,9.22 -29.318,-8.23 -62.26,-28.32 -61.271,-45.12 0.329,-5.6 5.6,-21.08 5.6,-21.08 0,0 45.459,-2.97 80.706,-18.45 12.518,-5.6 45.788,-21.08 69.177,-59.61 2.306,-3.96 28.988,-49.74 22.071,-104.41 -3.953,-31.62 -19.436,-71.81 -19.436,-71.81 0,0 42.165,1.65 69.177,18.78 13.177,8.23 43.483,30.96 57.318,75.75 14.494,47.43 1.647,88.6 -2.635,102.44 z"
           fill="#6b4f94"
           id="path2714" />
      </g>
      <path
         d="m 245.413,2041.79 c -0.329,0.33 -0.329,0.66 0,0.66 0,0 0.659,0 1.318,0 0.329,0 0.659,0 1.318,0 l 1.317,-1.32 -1.317,0.33 -0.659,0.33 h -0.33 c -0.988,-0.33 -1.317,0 -1.647,0 z"
         fill="#6b4f94"
         id="path2718" />
      <path
         d="m 259.578,2041.13 c 1.977,-0.99 4.282,-2.63 2.635,-3.29 -1.976,1.64 -2.635,1.31 -4.611,2.96 -1.977,0.66 -3.295,0.33 -3.295,0 -0.658,0.33 -2.964,0.33 -3.953,1.32 2.636,0.33 5.93,-0.33 8.895,-1.65 0.988,0 0.329,0.33 0.329,0.66 z"
         fill="#6b4f94"
         id="path2720" />
      <path
         d="m 533.321,1943.97 c -0.988,0.33 -1.318,0.65 -1.318,0.65 0.988,-0.32 1.647,-0.65 1.318,-0.65 z"
         fill="#6b4f94"
         id="path2722" />
      <path
         d="m 552.427,1935.73 c -0.33,0.33 -0.659,0.33 -0.989,0.66 0.33,0 0.659,-0.33 0.989,-0.66 z"
         fill="#6b4f94"
         id="path2724" />
      <path
         d="m 415.72,1964.72 3.294,0.33 c 0.33,-0.33 -1.647,0 -3.294,-0.33 z"
         fill="#6b4f94"
         id="path2726" />
      <path
         d="m 283.625,2030.26 c -0.659,0.33 -0.988,0.66 -1.317,0.99 0.329,-0.33 0.988,-0.33 1.317,-0.99 0,0.33 0,0 0,0 z"
         fill="#6b4f94"
         id="path2728" />
      <path
         d="m 363.343,1962.41 c -0.329,0 -0.659,0 -0.988,0 -0.329,0 -0.659,0.33 -0.659,0.33 0.33,0 0.989,-0.33 1.647,-0.33 z"
         fill="#6b4f94"
         id="path2730" />
      <path
         d="m 340.943,1987.11 c 0.659,-0.66 0,-1.64 -0.329,-1.97 0,0.66 -0.33,1.31 -0.659,1.97 0.329,0 0.659,0 0.988,0 z"
         fill="#6b4f94"
         id="path2732" />
      <path
         d="m 293.508,2029.93 -0.989,0.66 c 0,-0.33 0.659,-0.33 0.989,-0.66 z"
         fill="#6b4f94"
         id="path2734" />
      <path
         d="m 392.002,1966.03 0.33,0.33 c 0,-0.33 0,-0.33 -0.33,-0.33 z"
         fill="#6b4f94"
         id="path2736" />
      <path
         d="m 282.308,2012.48 c 0,-0.33 -0.33,0 0,0 -0.33,0 -0.33,0 0,0 z"
         fill="#6b4f94"
         id="path2738" />
      <path
         d="m 246.401,2043.44 c 0.33,-0.66 0.33,-0.66 0,-0.99 z"
         fill="#6b4f94"
         id="path2740" />
      <path
         d="m 583.062,1913.33 c -0.659,0.66 -0.329,0.33 0,0 z"
         fill="#6b4f94"
         id="path2742" />
      <path
         d="m 467.438,1658.4 c 3.953,1.32 -6.588,0.33 -0.659,1.97 -0.659,-0.65 5.6,-0.98 0.659,-1.97 z"
         fill="#6b4f94"
         id="path2744" />
      <path
         d="m 284.613,2029.93 c 0.33,-0.33 0.989,-0.33 1.648,-0.66 -0.989,0.33 -1.318,0.66 -1.648,0.66 z"
         fill="#6b4f94"
         id="path2746" />
      <path
         d="m 466.779,1660.37 0.659,0.33 c -0.329,-0.33 -0.329,-0.33 -0.659,-0.33 z"
         fill="#6b4f94"
         id="path2748" />
      <path
         d="m 618.639,1833.63 c -0.329,0 -0.329,0.65 -0.659,0.98 0.33,0 0.33,-0.33 0.659,-0.98 z"
         fill="#6b4f94"
         id="path2750" />
      <path
         d="m 595.909,1894.56 0.989,-1.32 c -0.659,0.33 -0.989,0.99 -0.989,1.32 z"
         fill="#6b4f94"
         id="path2752" />
      <path
         d="m 617.651,1800.03 c 0,-0.99 0,-1.32 0,-2.31 v 0.33 c 0,0.33 0.329,0.99 0,1.98 z"
         fill="#6b4f94"
         id="path2754" />
      <path
         d="m 612.38,1765.44 c 0,0.33 0,0.33 0,0.66 0,0.33 0.329,0.66 0.329,0.99 z"
         fill="#6b4f94"
         id="path2756" />
      <path
         d="m 273.084,1926.18 c 0.659,0.66 0.659,0.99 0.988,1.65 0,-0.99 4.283,1.64 -0.988,-1.65 z"
         fill="#6b4f94"
         id="path2758" />
      <path
         d="m 283.955,2030.92 c 0,-0.33 0.329,-0.66 0.658,-0.66 -0.329,0 -0.658,0 -0.658,0.66 -0.33,-0.33 -0.33,0 0,0 z"
         fill="#6b4f94"
         id="path2760" />
      <path
         d="m 610.404,1799.04 -0.33,-5.27 c 0,1.65 0,3.62 0.33,5.27 z"
         fill="#6b4f94"
         id="path2762" />
      <path
         d="m 251.672,1720.32 -0.659,0.99 c 0.33,-0.33 0.659,-0.66 0.659,-0.99 z"
         fill="#6b4f94"
         id="path2764" />
      <path
         d="m 607.439,1777.96 c 0,-0.99 0.329,-1.98 0,-2.96 0,-0.33 -0.33,-0.33 -0.33,-0.66 z"
         fill="#6b4f94"
         id="path2766" />
      <path
         d="m 304.049,1947.59 c 0.329,-0.33 0.329,-0.33 0,0 0.329,-0.33 -0.659,-0.33 -0.988,-0.66 -0.33,0 -0.989,-0.33 -1.318,-0.33 l -0.659,-0.33 c -0.329,0 -0.329,0 -0.329,0 -0.33,0 -0.33,0 -0.659,-0.33 -0.33,0 -0.33,-0.33 -0.659,-0.33 h -0.329 c 0,-0.33 0,0 -0.33,0.33 -0.329,0 -0.659,0.33 -0.988,0.33 -0.988,0.33 -1.977,0.66 -2.965,0.66 h -0.329 c 0,0 0,0 0,0.33 h 0.659 c 0.329,0 0.988,0 1.317,0 0.989,0 1.977,0 2.636,-0.33 h 0.329 l -0.988,-4.94 h 0.329 c 0.33,0 0.659,0 0.659,0 0.329,0.33 -0.988,0.99 0.659,0.99 1.318,0 1.976,0.99 1.976,1.31 -0.329,-0.32 -0.658,-1.31 -0.658,-1.64 -0.659,-0.99 -0.989,-1.32 -1.648,-1.65 -0.658,-0.66 -0.988,-0.99 -0.988,-0.99 0,-0.33 0.659,-0.66 -0.659,-1.64 -2.635,-0.99 -4.282,-0.99 -5.929,-0.99 -1.647,0 -3.294,0 -4.282,-0.66 0,-0.33 -0.33,-0.33 0,-0.66 -0.989,0 -1.648,-0.33 -2.636,-0.66 -0.988,-0.66 -2.306,-1.65 -3.623,-2.63 -2.636,-1.98 -5.271,-3.63 -7.577,-4.61 -0.329,-0.33 -0.329,-0.33 -0.329,-0.66 0.329,0.98 0,1.64 -0.33,1.64 -1.976,-1.31 -3.953,-1.64 -4.282,-2.96 1.318,0.66 1.647,0.66 2.306,0.66 l -2.306,-0.99 c -1.318,-2.31 2.965,1.32 3.624,0.66 -4.283,-2.31 -9.883,-4.28 -12.518,-6.59 0,-1.32 7.247,3.95 3.623,0.66 l 4.612,3.29 c -2.965,-3.95 2.965,1.98 0.33,-1.64 -3.295,-2.31 -4.942,-2.97 -6.589,-3.96 -1.647,-0.98 -3.294,-1.97 -5.929,-4.28 -1.647,-0.66 -0.33,0.99 -1.977,0.33 -4.282,-2.96 -4.941,-5.27 -5.6,-6.92 -0.658,-1.64 -0.988,-2.96 -3.953,-5.59 -1.976,-0.99 -3.294,-0.66 -6.258,-5.6 l 2.305,0.66 c -4.282,-5.93 -3.953,-2.31 -7.906,-8.9 1.318,0.66 3.624,4.28 3.295,3.3 -1.977,-4.62 -2.636,-2.31 -4.942,-5.27 l 0.33,-1.32 c -4.612,-5.93 -10.212,-12.52 -14.494,-19.76 0.658,0.33 1.647,1.31 0.988,-0.66 -2.635,-4.28 -4.941,-9.55 -6.259,-14.82 -1.318,-5.27 -1.976,-10.54 -2.306,-15.81 -0.329,-1.32 -0.988,-2.31 -1.318,-3.63 0,-0.99 0.33,-1.64 0.659,-0.66 0,-3.95 -0.659,0 -0.988,-1.97 -0.329,-2.31 0.329,-2.97 0.659,-1.65 -0.659,-3.29 -0.988,-8.23 -0.988,-13.5 0,-4.94 0.988,-10.21 1.976,-13.51 v 1.32 c 1.318,-5.6 -0.659,-6.59 1.318,-11.86 v 0.99 c 1.647,-5.93 3.623,-12.19 5.6,-18.12 2.306,-5.6 4.941,-10.87 7.576,-14.82 -0.329,-2.3 6.589,-10.54 5.271,-12.18 2.306,-2.64 3.294,-3.3 4.612,-4.62 1.317,-1.31 2.635,-2.3 5.929,-7.24 0.659,-0.99 0,-0.33 0.659,-0.99 0.329,-0.33 0.329,-0.99 0.659,-1.65 0.329,-0.99 0.988,-2.3 1.976,-3.62 l 0.659,0.66 2.306,-3.95 2.635,-0.99 c 0.659,-0.66 1.318,-1.65 1.977,-2.31 -0.988,0.66 -2.306,1.65 -2.306,1.32 2.965,-3.95 8.894,-7.58 9.553,-7.25 2.635,-2.63 5.6,-5.27 8.565,-7.57 0,0.33 -1.318,1.64 -2.636,2.96 4.283,-4.61 1.647,0.33 5.6,-3.95 -0.658,0.33 0,-0.66 0,-0.99 2.636,-0.99 7.906,-4.61 11.859,-7.24 l -0.329,0.98 c 7.247,-4.28 15.482,-9.88 23.718,-14.82 -3.294,1.32 -2.965,0 -0.659,-1.64 l 1.647,0.32 c 1.318,-1.31 -2.635,0.99 0,-1.31 3.294,-1.65 2.635,0 0.988,1.31 l 3.624,-2.3 c 0.329,0.33 -0.33,0.66 -0.659,1.32 1.318,-1.32 7.247,-2.31 8.894,-4.29 l 0.329,0.33 c 0.989,-0.33 1.977,-0.98 2.965,-1.31 0.988,-0.33 1.647,-0.66 2.635,-0.99 1.648,-0.66 3.295,-1.32 4.942,-1.98 2.964,-0.99 5.6,-1.97 9.223,-2.63 0,-0.99 2.965,-1.32 4.942,-2.64 2.964,-0.33 5.929,-0.66 9.223,-0.66 3.294,-0.33 6.588,-0.33 9.882,-0.98 4.942,-0.99 1.318,-0.99 3.624,-1.65 0.329,0.66 7.247,0 3.953,0.99 4.282,-0.33 6.918,-0.66 9.882,-0.99 2.965,-0.33 6.259,-0.66 11.53,-1.32 -1.318,-0.33 -2.635,-0.33 -1.977,-0.66 1.977,-0.33 4.283,0.33 4.283,0.66 h -0.659 c 11.859,-1.98 27.341,1.65 36.894,0.33 h -0.659 c 3.295,-0.33 6.589,-0.33 9.883,-0.66 4.612,0.33 -2.635,0.66 0.659,1.32 5.27,-0.66 9.553,-0.33 13.506,0.33 3.953,0.33 7.576,0.66 11.859,0.66 6.258,3.29 23.717,2.63 32.282,6.58 l -0.329,-0.65 c 2.306,0 2.635,0.98 4.282,1.31 0,-0.66 -2.306,-0.98 -0.988,-0.98 4.941,0.65 9.553,2.3 14.494,3.95 2.306,0.66 4.612,1.97 6.918,2.96 2.306,0.99 4.612,1.98 6.917,3.3 8.895,4.94 17.459,10.54 25.695,16.46 2.964,2.31 4.282,1.98 5.6,2.64 1.317,0.33 2.964,0.99 5.929,4.28 l -2.635,-0.99 c 12.518,8.24 21.412,21.08 29.647,32.61 -0.659,-0.66 -0.988,-0.33 -1.647,-1.65 0.988,2.97 5.6,9.89 5.929,9.56 0.989,1.97 -0.329,0.65 0,1.97 0.989,2.97 3.953,6.59 3.953,8.24 0,0.33 -0.658,-0.66 -0.658,-1.32 1.317,1.65 2.964,8.56 3.294,6.59 1.317,5.27 3.294,9.88 3.294,14.16 1.647,2.63 0.988,9.55 2.635,10.21 -1.647,0 0.33,9.55 0.988,13.18 -0.658,-0.99 -0.329,2.96 -0.988,1.64 0.33,3.95 0.659,7.58 1.647,6.92 -1.317,7.25 1.647,14.82 -0.988,18.77 0,11.53 -1.318,22.4 -3.953,32.61 -0.988,-0.66 2.965,-11.2 0.988,-11.2 -1.647,9.88 -1.976,15.81 -6.259,24.71 -1.317,2.3 0,-1.65 0,-2.64 -0.658,2.31 -1.647,4.61 -2.635,6.92 -0.988,2.3 -1.976,4.28 -3.294,6.26 -2.306,3.95 -4.612,7.9 -6.918,11.85 0,0 0.33,-0.99 0.659,-1.64 -0.988,1.31 -2.635,3.29 -1.976,3.29 l 0.988,-1.65 c 2.635,-1.64 -2.306,6.92 -2.306,7.25 0.329,-3.62 -5.929,6.59 -4.941,1.32 -0.659,0.99 -1.318,2.3 -0.988,2.3 -1.318,1.32 -1.647,1.32 -0.989,-0.33 -3.953,4.94 -1.976,3.63 -5.929,7.58 -0.33,-0.33 0.659,-0.99 0.659,-1.98 -1.647,2.31 -3.294,4.94 -7.247,7.91 0,-0.33 -0.659,-0.33 0.658,-0.99 -6.258,5.27 -10.211,10.21 -18.447,14.16 1.647,-2.63 -2.964,0.99 -3.953,0.33 l -4.282,2.64 1.976,-0.33 c -3.623,1.97 -6.917,4.28 -10.541,5.6 0.988,-0.66 1.977,-0.99 2.635,-1.65 -2.305,1.32 -4.941,2.31 -7.247,3.29 1.318,-0.33 2.965,-0.98 4.283,-1.31 -3.624,2.3 0.988,1.31 -4.283,2.96 0.989,-0.66 -3.953,1.65 -6.588,1.65 -1.976,0.99 -3.953,1.97 -6.918,2.63 -0.988,0 0.33,-1.64 -0.329,-1.64 -1.647,1.64 -9.882,2.63 -12.188,4.28 0.658,-0.33 0.658,-0.99 0.329,-1.32 l -1.647,1.32 c -1.976,0.33 -2.306,0 -1.976,-0.33 -5.93,1.32 2.305,0.99 -4.942,1.97 0.659,-0.33 0.33,-0.33 1.318,-0.65 -7.247,1.31 -13.835,2.3 -20.424,3.62 -2.306,-0.66 5.93,-1.65 3.294,-1.98 -2.305,0.66 -4.941,1.32 -7.247,1.98 -2.306,0.99 -4.611,1.65 -6.917,2.3 -4.612,1.32 -9.224,2.64 -13.836,2.97 h 1.647 c -0.988,1.97 -6.917,0 -11.529,1.32 0.988,-0.33 1.318,-0.99 0.988,-0.99 -6.259,0.33 -12.847,0.99 -22.4,1.64 l 1.318,-0.32 c -3.624,-0.33 -9.883,-0.33 -13.836,-0.33 -1.317,0.33 -3.623,0.33 -1.976,0.98 -6.259,-1.31 -12.189,-0.65 -17.789,-0.65 -5.6,-0.33 -11.2,0 -16.47,-2.31 1.317,0.33 2.964,0.33 1.976,0 -2.964,-0.33 -6.259,-0.99 -9.553,-1.32 0.659,0.99 1.318,0.66 2.965,1.32 -1.318,0.33 -3.953,0.33 -6.259,0.33 4.282,-0.33 0,-1.32 -1.647,-1.65 0.329,0.33 -0.329,0.33 -0.329,0.66 -0.659,0 -0.989,-0.33 -1.318,-0.33 -0.329,0 -0.659,0 -0.988,0 -0.659,0 -0.659,0 -0.989,0.33 -0.329,0.33 -0.329,0.66 -1.976,0.66 -0.329,0.66 -0.659,1.32 -1.318,2.31 l -0.329,-0.66 c -0.659,1.31 -0.988,2.63 -1.318,3.62 -0.329,1.32 -0.988,2.31 -1.647,3.62 -1.317,0.66 0.659,-2.63 0.33,-2.96 -1.647,3.29 -1.977,7.57 -4.283,9.88 0.659,-1.65 1.647,-3.62 2.306,-4.94 -2.635,2.96 -2.635,3.29 -4.282,5.6 v -0.33 c -1.318,1.65 -2.306,3.62 -3.624,5.27 l 0.988,-1.32 c -0.658,5.27 -4.941,8.24 -7.247,14.49 2.306,-5.92 0,-1.31 -0.658,-2.3 -1.318,1.32 -2.965,2.96 -2.636,2.3 -0.988,2.97 -3.623,3.63 -5.27,7.58 -0.33,0 -1.977,2.31 -2.306,1.32 -2.306,2.96 0.988,-0.33 0.988,0.33 -3.294,5.27 -10.541,9.22 -16.471,15.48 -1.317,1.31 -2.635,2.3 -3.623,2.96 -0.989,0.99 -1.647,1.65 -2.636,2.31 -1.647,1.64 -3.294,2.96 -6.258,4.61 -2.306,0.66 0.988,-1.98 0.988,-1.98 -3.624,1.32 -5.93,2.64 -9.224,4.61 0.659,-0.66 -0.329,-0.33 -1.317,-0.33 -2.636,1.32 -1.318,1.98 -4.942,2.64 0.33,-0.66 0.989,-1.32 2.306,-2.31 -2.964,1.65 -5.929,3.3 -9.223,4.61 -0.989,-0.32 1.647,-1.64 2.635,-2.3 -3.624,1.65 -9.553,3.62 -10.541,4.61 l 2.635,-0.33 c -1.318,0.33 -0.988,-0.66 0,-0.99 2.965,-1.64 4.612,-0.99 4.941,-0.99 -0.659,0.33 -1.647,0.66 -2.306,0.99 2.965,0.99 9.553,-3.62 13.836,-5.27 l -1.318,1.98 4.282,-2.97 c 0.989,0 2.306,0.33 0,1.32 3.624,-0.99 2.636,-1.97 5.93,-2.63 0.329,0 0.329,0 0,0.33 0.988,-0.66 1.976,-1.32 2.965,-1.98 -0.33,0.66 0.988,0.66 -0.989,1.32 2.965,-1.32 5.271,-2.64 6.918,-3.95 1.647,-1.32 2.965,-2.31 4.282,-2.64 l -0.329,0.33 c 6.918,-5.6 0.329,-1.32 4.612,-6.26 1.647,-0.33 3.294,-0.66 4.941,-0.99 v -1.31 c 0.659,-0.66 1.976,-1.65 1.976,-1.32 1.977,-2.97 -0.658,0 0.33,-1.65 3.953,-2.3 7.906,-8.89 9.882,-8.89 0.33,-1.65 -3.294,2.96 -0.659,-0.99 2.306,0 3.295,-4.28 6.259,-7.25 0,1.65 -2.635,4.29 0.33,1.65 0.329,-2.96 4.941,-6.26 6.588,-9.22 -0.988,-0.66 3.624,-6.59 5.93,-11.53 0,0.33 1.647,-1.98 3.294,-4.94 0.988,-1.32 1.647,-2.96 2.635,-4.61 0.329,-0.66 0.659,-1.65 1.318,-2.31 0.329,-0.33 0.329,-0.66 0.658,-0.99 v 0.33 c -0.329,-0.33 -0.329,-0.98 0,-1.31 0.659,-0.33 1.647,-0.33 2.965,-0.33 1.647,0 3.294,0 4.612,0 -0.329,0.66 -0.988,0.99 -2.965,1.31 h 3.624 c 0.988,-0.32 1.976,-0.32 4.282,0 l -0.988,0.66 c 2.306,0.33 4.941,0.66 7.576,0.99 2.636,0.33 5.6,0.33 8.895,0.99 0.329,-0.66 -4.942,-2.64 1.976,-2.64 0.329,0.33 0.329,1.32 -1.318,1.32 0.659,0 1.977,-0.33 3.295,0 l -2.636,0.66 c 2.965,0.66 1.647,-0.66 3.953,-0.33 0,0.66 1.647,0.66 1.318,0.99 -0.659,0 -1.977,-0.33 -2.965,-0.33 2.635,0.33 5.93,0.66 6.918,1.32 -0.33,-0.33 0,-0.99 1.976,-0.99 4.942,0 1.647,0.66 4.612,0.99 1.318,-0.33 4.282,0 4.612,-0.99 1.318,0 1.647,0.33 2.306,0.66 2.635,-0.33 11.859,0 8.894,-1.32 h -0.659 0.33 c 8.235,-0.99 17.458,0.66 25.694,-0.33 v 0.33 c 4.941,-0.66 11.2,-1.32 14.494,-2.63 1.318,-0.33 3.624,0 2.965,0.65 3.623,-0.98 3.953,-1.31 9.553,-1.97 -3.624,1.32 1.317,0.33 -3.624,1.32 4.941,-0.99 6.259,-0.66 11.2,-2.97 -1.317,1.32 3.624,0 5.93,-0.33 -0.989,0 -2.306,0 -3.294,0 2.305,-0.66 4.611,-0.99 6.917,-1.32 l -0.988,1.32 c 4.941,0 9.553,-0.99 13.835,-2.63 3.953,-1.32 7.906,-2.64 11.859,-2.31 2.306,-1.32 -5.6,0.66 -3.294,-0.66 4.612,-0.99 9.883,-0.66 11.2,-0.99 6.259,-1.31 5.271,-3.29 11.859,-5.27 -0.988,0 -1.976,-0.65 2.635,-2.96 4.283,-1.65 5.93,-0.66 3.295,0.66 -0.989,0.33 -1.647,0.66 -1.647,0.33 -1.318,0.66 -3.295,1.65 -1.318,1.32 l 0.329,-0.66 c 2.306,-0.33 8.236,-3.3 7.247,-1.98 2.965,-1.98 0.989,-1.32 -1.317,-0.33 5.929,-1.97 8.564,-3.95 14.164,-6.92 -0.988,0.33 -1.976,0.33 -0.988,0 8.236,-4.28 2.965,-2.63 8.236,-6.25 3.294,-1.65 -0.33,1.97 4.611,-1.98 3.295,-1.98 1.318,0.33 0.33,1.65 4.282,-3.96 8.894,-6.26 11.529,-8.24 l -1.976,2.31 c 1.317,-1.32 2.306,-2.31 3.623,-3.3 l -1.976,0.66 c 1.318,-0.98 2.635,-1.97 2.635,-1.97 0.988,-1.65 -1.976,0 0.33,-2.97 1.976,-1.31 4.941,-5.27 5.929,-5.27 -5.271,5.27 1.318,0.33 -2.965,4.61 0.659,-0.98 1.977,-1.97 3.294,-3.29 0.33,0 0,0.33 -0.329,0.66 5.6,-4.61 1.318,-3.29 6.259,-8.89 0,0.98 1.976,-0.66 2.635,-1.65 -1.976,2.3 -1.647,0.66 -0.329,-1.98 3.294,-3.62 2.635,-4.28 4.282,-6.26 l -1.647,2.31 c 0,-0.99 1.318,-2.96 2.965,-5.93 0.659,0 -1.318,2.64 -0.659,1.65 0.988,-3.62 5.271,-6.26 6.918,-11.2 1.317,-1.98 0.988,0.33 2.306,-1.32 0.988,-2.63 1.647,-3.95 2.635,-5.6 0.659,-1.31 1.647,-2.96 2.306,-5.93 -1.318,1.32 -1.318,1.65 -0.33,-2.63 -0.988,2.96 -1.976,6.26 -3.294,9.22 0.659,-1.97 0.988,-4.28 1.318,-6.26 -0.659,1.32 -0.988,2.97 -1.318,4.29 -0.329,1.31 -0.988,2.63 -1.317,3.29 0.658,-2.96 0.658,-2.64 -0.33,-1.65 1.318,-1.64 1.977,-3.62 2.635,-5.6 0.659,-1.97 1.318,-3.95 2.306,-6.25 l 1.647,0.65 c 1.318,-3.29 2.306,-6.25 2.636,-9.88 0.329,-1.64 0.659,-3.29 0.988,-5.27 0.329,-1.97 0.659,-3.95 1.318,-6.26 l -0.989,2.97 c -0.658,-1.32 0.989,-5.6 0.989,-8.56 0.658,0.32 0.988,-1.32 1.647,-2.64 -0.33,0 0.659,-6.59 -0.659,-7.58 0.329,-1.31 0.659,-2.63 0.988,-3.95 0.33,-3.62 0,-5.93 -0.659,-7.9 -0.329,-1.98 -0.988,-3.96 -0.988,-7.58 0.659,1.98 0.988,-0.99 1.647,3.62 0,-2.3 0,-4.61 -0.329,-4.61 0.329,-1.31 -1.318,-6.58 -0.989,-8.56 -0.329,-0.99 -0.988,-1.32 -1.317,-3.95 0,-0.33 0.329,0 0.329,0 -0.329,0 -0.988,-3.96 -1.317,-1.65 1.317,-7.58 -2.965,-19.76 -2.965,-26.35 -1.318,-4.94 -3.624,-10.87 -5.6,-15.15 0.329,0.33 0.329,0 0.659,0.66 -0.989,-2.97 -1.647,-3.95 -2.636,-4.61 -0.988,-0.66 -1.647,-1.65 -2.964,-5.27 -0.659,-3.96 2.305,3.29 1.647,0.98 1.647,-1.97 -4.283,-7.9 -5.93,-12.51 l 0.659,0.99 c -1.318,-3.63 -5.6,-7.25 -9.553,-12.19 0,0 0.329,0 0.329,-0.33 -3.294,-2.63 -8.894,-8.23 -13.506,-12.19 1.977,0.66 2.306,1.65 1.977,0 -1.976,-1.64 -0.329,1.32 -4.282,-1.97 -0.989,-1.65 -3.624,-4.28 -3.295,-5.27 1.318,0.99 2.636,1.97 3.953,3.29 -0.988,-2.63 -4.941,-4.28 -6.917,-5.93 l 0.659,-0.33 c -6.259,-4.61 -7.248,-3.62 -13.836,-8.23 l 0.659,0.66 c -4.282,-1.32 -2.635,-2.64 -6.918,-4.28 l -0.329,-1.98 c -2.635,-1.32 -9.553,-3.95 -14.494,-6.26 3.294,0.33 8.894,2.97 12.517,4.28 -2.635,-1.64 -8.894,-4.61 -10.541,-4.94 0.988,0.33 2.636,0.99 3.624,1.65 -1.977,-0.33 -3.953,-0.99 -6.259,-1.65 -2.306,-0.66 -4.941,-1.64 -7.577,-2.63 0.33,-0.33 0,-0.99 -1.317,-1.98 -1.318,-0.66 -3.294,-1.65 -5.271,-2.3 -4.282,-1.32 -9.223,-2.97 -10.871,-4.29 -10.211,-1.64 -20.094,-4.94 -32.282,-5.92 3.953,2.3 -3.624,-0.33 -2.965,1.64 -2.635,-0.33 -3.953,-0.33 -3.953,-0.66 -2.635,-0.66 -5.6,-1.31 -8.235,-1.97 -1.977,-0.66 2.635,-0.33 2.635,-0.66 -6.259,-0.66 -2.635,-0.99 -6.588,-1.98 0.659,0.66 -2.306,0.99 -5.6,0.33 l 4.941,1.32 c -8.565,0.33 -7.247,-1.98 -16.141,-1.32 l 2.635,-0.66 c -4.612,0 -16.471,-0.33 -20.753,1.32 -0.659,-0.33 -1.976,-0.66 0,-0.99 -5.271,0 -11.2,0.33 -16.8,0.99 -5.6,0.66 -10.871,0.99 -14.824,0.66 l 0.659,-0.66 c -1.976,0.33 -3.294,1.32 -5.929,0.99 0,-0.33 0.659,-0.66 0,-0.66 -0.989,0.33 -5.271,1.32 -7.906,0.99 l 2.306,-0.66 c -10.212,0.33 -15.812,2.63 -24.048,4.28 -0.329,-1.65 -8.235,-0.66 -12.517,0 v -0.33 c -2.965,0.66 -5.93,0.99 -8.565,1.98 -2.635,0.99 -5.271,1.64 -7.577,2.96 l -3.294,1.65 c -1.317,0.66 -2.306,1.32 -3.623,1.65 -2.306,1.31 -4.612,2.63 -7.247,3.95 -3.624,0.66 -8.894,3.29 -14.494,6.59 -5.601,3.29 -11.201,6.91 -16.471,9.22 1.647,-0.66 0.329,0.99 -1.318,2.3 -2.306,0.99 -5.6,4.62 -5.929,3.3 l 0.659,-0.33 c -2.306,0 -6.589,3.29 -10.212,5.6 l 0.329,1.97 c -5.27,2.31 -10.871,6.92 -15.482,11.53 -4.612,4.94 -8.236,9.55 -11.2,11.2 -0.659,1.32 -1.647,2.31 -2.636,3.62 -0.659,1.32 -0.988,1.65 -1.317,2.31 -0.33,0.66 -0.659,1.32 -0.659,1.65 l -0.659,-0.66 c -1.976,2.63 -3.624,4.61 -5.6,7.24 -1.977,2.64 -3.294,5.27 -5.6,9.56 l 0.329,-1.98 c -2.635,4.61 -0.658,6.92 -2.964,11.2 l -1.977,0.66 c -3.953,8.23 -8.235,16.47 -9.553,25.36 0,-0.33 -0.329,-0.66 0,-1.98 -0.659,1.98 -1.976,5.93 -2.635,9.22 -0.659,3.3 -0.988,5.93 0,5.27 -1.318,0 -1.977,9.23 -1.647,14.17 l -0.988,-0.99 c 0.658,4.28 0.988,4.28 1.317,10.21 0,1.32 -0.659,1.32 -0.659,-0.66 -0.658,4.61 0.659,3.62 0.659,8.89 l -0.659,-1.97 c 0,4.61 0.659,4.28 1.318,6.92 0.659,2.96 0.988,8.89 0.329,9.55 0.659,0.66 1.647,2.96 2.306,5.6 -0.329,0.33 -0.659,-0.33 -0.988,-0.99 1.318,7.9 4.282,10.87 5.6,16.14 -0.329,0.33 -0.329,0.66 0,0.99 -2.635,-5.6 -4.282,-10.54 -3.953,-10.21 -0.988,0.32 0.659,5.27 -1.647,1.64 1.977,3.95 5.93,9.55 8.235,14.17 0,0.32 0,0.32 0,0.65 l -0.329,-0.33 c 0.329,0.99 0.988,1.98 1.647,2.64 0.659,1.32 0.988,2.31 1.977,3.62 -0.33,0.99 2.964,4.94 4.282,6.92 0.659,-0.66 2.306,1.98 1.318,-0.99 0.329,0.33 -0.33,-0.33 -1.318,-1.65 -0.33,-0.33 -0.659,-0.65 -0.659,-0.65 -0.988,-1.32 -2.306,-2.97 -3.294,-5.27 1.318,1.31 2.965,2.96 3.953,5.6 1.318,0.65 2.635,1.64 3.294,1.97 0.988,3.62 4.282,9.22 3.953,10.21 4.941,5.6 10.871,13.84 15.482,16.47 1.648,1.65 1.318,2.31 1.648,2.96 -0.989,-0.65 -1.977,-1.97 -2.636,-2.3 1.647,1.65 3.624,3.95 5.93,5.93 1.976,1.97 3.953,3.29 4.941,3.29 3.953,3.95 -3.294,-0.99 2.965,3.62 l -0.989,-0.32 c 2.636,2.63 5.93,4.61 8.565,5.92 2.635,1.32 5.271,2.64 8.235,3.96 2.636,1.31 5.271,2.96 7.906,4.61 1.318,0.99 2.636,1.97 4.283,3.29 1.647,1.32 3.623,1.98 5.6,2.64 -0.988,-0.33 -1.647,-0.66 -1.647,-0.99 2.306,0.66 4.612,1.32 6.588,1.97 0.988,0.33 1.976,0.66 2.635,1.32 0.33,0.33 0.33,0.33 0.659,0.66 0,0 0,0.66 0.33,0.99 0.329,0.66 0.988,1.65 1.647,1.98 l 0.329,0.32 h 0.329 c -0.329,0 0.659,0 1.318,-0.65 0.659,-0.66 0.33,-1.65 0.33,-1.32 v -0.33 c 0,-0.33 0,-0.66 -0.33,-1.32 0,0 0,-0.33 -0.329,-0.66 0,0 -0.33,-0.33 -0.659,-0.66 -0.659,-0.65 -1.647,-0.65 -2.306,-0.33 -0.329,0.33 -0.659,0.66 -0.988,0.66 v 0.33 c 0,0.33 0,0.33 0,0.33 0,0.33 0,0.66 -0.33,0.99 -0.329,1.32 -0.329,2.31 -0.329,3.62 l -0.659,6.92 c -1.318,9.22 -2.965,18.45 -6.588,26.68 -1.977,4.61 -1.318,5.27 -1.977,8.56 l -1.317,0.66 c -0.33,1.65 -0.659,3.63 -1.318,5.27 -2.635,7.25 -8.565,9.88 -12.847,18.45 l 1.318,-0.66 c -1.977,2.63 -6.589,8.56 -6.918,7.57 0,0.33 -0.33,1.32 -1.318,1.98 l -0.329,-0.33 c -1.647,2.31 -3.294,4.61 -5.271,6.59 -4.941,4.28 -0.659,-1.98 -7.576,4.28 -2.306,2.64 -6.589,7.58 -5.6,6.92 0.988,-0.66 2.964,-1.98 3.294,-1.65 l -2.306,2.31 c 0.329,1.64 -0.659,4.61 6.588,0 1.318,-1.32 2.635,-2.97 3.624,-4.62 l 1.976,-0.65 -3.623,3.29 c 2.635,-1.32 3.294,-2.96 4.611,-4.61 0.659,0 1.318,-0.33 2.306,-0.99 0.989,-1.65 1.977,-3.29 2.965,-4.94 0.988,0 -0.988,2.63 1.976,0 1.318,-2.31 -2.635,0.99 0,-2.64 2.306,-1.64 2.306,-0.65 3.953,-3.29 0.659,0 0.33,0.66 -0.329,1.65 1.647,-2.31 4.612,-5.93 4.941,-7.58 2.636,-1.64 5.6,-7.9 6.589,-6.91 0.329,-0.99 1.976,-4.95 2.964,-7.25 -0.329,2.63 0.659,0.33 2.306,-1.98 1.318,-2.63 2.965,-5.6 3.624,-4.61 0.329,-3.95 4.611,-12.19 5.27,-18.77 0,0.33 0,0.99 0,1.64 0.989,-3.29 1.647,-4.28 2.636,-6.25 -0.989,-0.66 -0.33,-6.26 -0.33,-9.23 1.977,-3.95 0.988,2.97 2.306,1.65 -0.988,0 0.33,-7.58 -0.659,-6.26 1.318,-2.96 0.659,-2.63 1.977,-4.28 -1.647,-0.66 0,-2.96 -0.33,-5.93 0.659,-2.3 0.989,-2.63 1.318,-2.63 0,0 0.329,-0.33 0.329,-0.66 0,-0.33 0,-0.33 0,-0.66 h -0.329 c -0.329,0 -0.659,-0.33 -0.988,-0.33 -0.988,-0.33 -0.988,-0.33 -1.647,-0.33 -0.33,0 -0.33,-0.33 -0.659,-0.33 -0.33,-0.33 -0.33,0 -0.33,-0.33 0,-0.33 0,0 -0.329,0.33 -0.329,0 -0.988,0.33 -1.647,0.66 l -0.988,0.33 h -0.659 -0.329 c 0,0.66 -0.33,0.33 -0.659,0 -0.33,0 0.658,0 0.988,-0.33 0.659,0 0.988,-0.33 1.647,-0.33 0.988,-0.33 1.647,-0.66 1.976,-0.99 0,0 0,0 0.33,0.33 0.329,0.33 0.659,0.33 0.988,0.33 h 0.33 l 0.658,0.33 0.989,0.33 c 0.329,5.27 1.317,5.6 0.988,5.93 0,-0.33 0,0 0,0 z m -86.636,-81.36 c 0.659,0.99 0.988,1.65 1.318,1.98 -0.33,-0.33 -0.659,-0.99 -1.318,-1.98 z m -4.282,-8.89 c 0.329,0.99 0.988,2.64 1.647,3.95 0,0.33 -0.659,0.33 -0.989,-0.66 0.659,0.33 -0.329,-1.97 -0.658,-3.29 z m 4.941,22.07 c -0.988,-1.32 -1.318,-1.98 -0.988,-2.31 0.329,0.66 0.988,1.32 1.647,2.31 0,0 0,0 0.329,0 -0.659,0.33 -0.659,0 -0.988,0 z"
         fill="#6b4f94"
         id="path2768" />
      <path
         d="m 220.707,1881.06 c 0,0.32 0.33,0.32 0.33,0.65 0,-0.33 -0.33,-0.65 -0.33,-0.65 -0.329,-0.33 -0.329,-0.66 -0.659,-0.66 0.33,0.33 0.33,0.66 0.659,0.66 z"
         fill="#6b4f94"
         id="path2770" />
      <path
         d="m 244.425,1728.55 -0.329,0.66 z"
         fill="#6b4f94"
         id="path2772" />
      <path
         d="m 358.073,1958.13 c 0,0 -0.33,-0.33 -0.659,-0.33 0,0 0.329,0 0.659,0.33 z"
         fill="#6b4f94"
         id="path2774" />
      <path
         d="m 342.59,1975.92 -1.976,2.63 c 0.988,-0.99 1.647,-1.98 1.976,-2.63 z"
         fill="#6b4f94"
         id="path2776" />
      <path
         d="m 589.98,1891.92 c 0,-0.32 0.329,-0.32 0.329,-0.65 0.659,-1.32 0.33,-0.33 -0.329,0.65 z"
         fill="#6b4f94"
         id="path2778" />
      <path
         d="m 522.121,1944.62 c 0.988,-0.33 1.647,-0.98 2.635,-1.31 -1.647,0.33 -2.635,0.66 -2.635,1.31 z"
         fill="#6b4f94"
         id="path2780" />
      <path
         d="m 528.38,1941.99 c -1.647,0.33 -2.636,0.99 -3.953,1.32 1.317,-0.33 2.964,-0.99 3.953,-1.32 z"
         fill="#6b4f94"
         id="path2782" />
      <path
         d="m 268.143,2035.86 -0.989,0.33 c 0,0 0,0 0,0.33 z"
         fill="#6b4f94"
         id="path2784" />
      <path
         d="m 267.154,2036.19 -0.988,0.33 c 0.659,0 0.988,0 0.988,-0.33 z"
         fill="#6b4f94"
         id="path2786" />
      <path
         d="m 264.519,2037.51 1.977,-0.66 c -0.989,0 -1.647,0.33 -1.977,0.66 z"
         fill="#6b4f94"
         id="path2788" />
      <path
         d="m 297.461,2023.67 c -1.647,0.66 -4.283,1.65 -6.259,2.64 v 0.33 c 0.659,-0.66 4.941,-1.65 6.259,-2.97 z"
         fill="#6b4f94"
         id="path2790" />
      <path
         d="m 324.472,2007.21 c -1.647,1.64 -2.964,2.96 -4.611,4.28 0.988,-0.66 2.306,-1.32 0.329,0.99 6.588,-4.95 -1.647,0.98 4.282,-5.27 z"
         fill="#6b4f94"
         id="path2792" />
      <path
         d="m 336.99,1992.05 c -1.976,2.97 0.33,0.33 0.659,0.66 0.988,-2.3 0.988,-2.63 -0.659,-0.66 z"
         fill="#6b4f94"
         id="path2794" />
      <path
         d="m 458.873,1962.74 -0.329,0.99 c 2.965,-0.66 0.329,-0.66 0.329,-0.99 z"
         fill="#6b4f94"
         id="path2796" />
      <path
         d="m 484.568,1952.53 -2.636,-0.33 -0.988,0.99 z"
         fill="#6b4f94"
         id="path2798" />
      <path
         d="m 501.697,1955.49 -1.318,0.33 4.283,-1.31 z"
         fill="#6b4f94"
         id="path2800" />
      <path
         d="m 614.686,1771.37 -0.988,0.99 c 0.659,1.65 1.647,1.98 0.988,-0.99 z"
         fill="#6b4f94"
         id="path2802" />
      <path
         d="m 554.403,1688.37 c -0.659,-0.99 -2.965,-2.96 -4.612,-3.29 1.977,1.32 3.624,2.96 4.612,3.29 z"
         fill="#6b4f94"
         id="path2804" />
      <path
         d="m 258.919,1703.85 1.318,-1.32 -2.965,2.64 z"
         fill="#6b4f94"
         id="path2806" />
      <path
         d="m 560.992,1692.98 c -0.659,0 -0.33,0.99 0.988,0.99 l 0.988,-0.99 z"
         fill="#6b4f94"
         id="path2808" />
      <path
         d="m 569.227,1695.95 c 1.647,-0.66 3.294,-1.65 2.306,-2.64 -1.647,0.99 -1.647,0.66 -3.294,1.98 -1.318,0 -1.977,-0.66 -1.977,-0.99 -0.329,0.33 -1.976,-0.66 -2.635,0 1.317,0.99 3.623,1.65 5.929,0.99 0,0.33 -0.329,0.66 -0.329,0.66 z"
         fill="#6b4f94"
         id="path2810" />
      <path
         d="m 686.498,1736.46 -0.659,-0.66 c 0.33,0.33 0.659,0.33 0.659,0.66 z"
         fill="#6b4f94"
         id="path2812" />
      <path
         d="m 733.604,1797.06 c -0.329,-0.65 -0.329,-0.65 -0.658,-0.65 0.658,0.33 0.658,0.65 0.658,0.65 z"
         fill="#6b4f94"
         id="path2814" />
      <path
         d="m 737.228,1809.58 c 0,-0.33 0,-0.66 0,-0.66 -0.33,0.33 -0.33,0.66 0,0.66 z"
         fill="#6b4f94"
         id="path2816" />
      <path
         d="m 686.498,1736.46 1.318,1.65 c 0.659,-0.33 -0.659,-0.99 -1.318,-1.65 z"
         fill="#6b4f94"
         id="path2818" />
      <path
         d="m 586.686,1694.3 c -0.33,0 -0.988,0 -1.318,0.33 l 1.318,-0.33 c 0,0.33 0,0 0,0 z"
         fill="#6b4f94"
         id="path2820" />
      <path
         d="m 657.18,1719.33 -0.658,-0.33 c -0.33,0 -0.33,0 -0.659,0.33 z"
         fill="#6b4f94"
         id="path2822" />
      <path
         d="m 632.474,1711.1 c 0.659,0.33 0.989,-0.66 1.318,-0.99 -0.329,0.33 -0.988,0.33 -1.318,0.33 0,0 0,0.33 0,0.66 z"
         fill="#6b4f94"
         id="path2824" />
      <path
         d="m 673.322,1728.23 v 0.32 c 0.329,0 0.329,0 0,-0.32 z"
         fill="#6b4f94"
         id="path2826" />
      <path
         d="m 430.873,1992.05 c 0,0 0,-0.33 0,0 -0.329,-0.33 -0.329,-0.33 0,0 z"
         fill="#6b4f94"
         id="path2828" />
      <path
         d="m 409.791,1968.67 0.329,0.33 0.329,-0.33 z"
         fill="#6b4f94"
         id="path2830" />
      <path
         d="m 741.181,1833.3 c 0,-0.33 0,-0.33 0,0 -0.33,-0.99 -0.33,-0.66 0,0 z"
         fill="#6b4f94"
         id="path2832" />
      <path
         d="m 649.274,2010.83 c 0.33,-2.64 1.647,3.95 1.977,0 -0.33,0.66 -1.977,-3.3 -1.977,0 z"
         fill="#6b4f94"
         id="path2834" />
      <path
         d="m 738.216,1887.64 c 0.33,0 0.33,-0.33 0.659,-0.33 0,0 -0.329,0 -0.659,0.33 z"
         fill="#6b4f94"
         id="path2836" />
      <path
         d="m 733.275,1908.39 c -0.329,0.33 -0.33,0.66 -0.659,1.32 0,0 0,0 0.329,-0.33 -0.329,0 10e-4,-0.33 0.33,-0.99 z"
         fill="#6b4f94"
         id="path2838" />
      <path
         d="m 723.722,1928.81 0.329,-0.32 c 0,-0.33 0.33,-0.33 0.33,-0.66 z"
         fill="#6b4f94"
         id="path2840" />
      <path
         d="m 495.768,2018.4 c -0.33,-0.33 -0.659,-0.65 -0.989,-0.98 0.33,0.65 -2.964,0.33 0.989,0.98 z"
         fill="#6b4f94"
         id="path2842" />
      <path
         d="m 586.686,1694.96 c 0,-0.33 0.329,-0.33 0.659,-0.33 -0.33,0 -0.659,0 -0.659,0.33 -0.33,-0.33 -0.33,0 0,0 z"
         fill="#6b4f94"
         id="path2844" />
      <path
         d="m 739.534,1912.02 -1.647,3.29 c 0.659,-0.66 1.317,-1.98 1.647,-3.29 z"
         fill="#6b4f94"
         id="path2846" />
      <path
         d="m 634.451,2055.62 -0.659,-0.33 c 0,0.33 0.329,0.33 0.659,0.33 z"
         fill="#6b4f94"
         id="path2848" />
      <path
         d="m 733.604,1925.52 c -0.658,0.33 -0.988,0.99 -1.647,1.65 0,0.33 0,0.33 0,0.66 z"
         fill="#6b4f94"
         id="path2850" />
      <path
         d="m 471.062,2013.13 c 3.294,0.99 1.976,-0.65 2.964,-0.98 3.953,0.98 1.647,1.31 2.636,2.63 2.635,0.66 4.941,0 6.588,0.66 0,0.33 0.329,0.33 0,0.66 2.965,-0.33 7.906,1.97 11.529,1.64 0.33,0 0.33,0.33 0.33,0.33 -0.33,-0.65 -0.33,-1.31 0,-1.64 1.647,0.33 2.965,-0.33 3.294,0.66 -0.988,-0.33 -0.988,0 -1.647,0.33 h 1.647 c 1.318,1.31 -2.306,0 -2.306,0.65 3.294,0.33 6.918,0 9.553,0.66 0.329,1.32 -5.6,-0.66 -2.635,0.99 l -3.624,-0.99 c 2.636,2.31 -2.306,-0.66 0,1.65 4.283,0.99 5.271,0.66 8.894,0.99 h 0.33 c -0.33,0 0.659,0 1.317,0.33 1.318,-0.66 -0.329,-0.99 0.989,-1.32 7.247,-0.66 5.6,3.29 10.87,1.65 1.318,-0.66 1.977,-2.31 5.6,-1.32 l -1.317,1.32 c 4.941,0 2.635,-1.98 7.906,-0.99 -0.989,0.66 -3.624,0.66 -2.965,0.66 3.294,0.99 2.306,-0.66 4.941,-0.99 l 0.659,0.99 c 5.271,-0.33 10.871,-1.65 16.471,-2.31 -0.33,0.33 -1.318,0.66 0,0.99 7.247,-1.32 15.153,-1.65 22.07,-2.31 l 2.306,-1.31 c 0.659,0 1.318,0.33 0.659,0.66 2.635,-0.33 0,-0.66 1.318,-1.32 1.647,-0.33 1.976,0 1.317,0.66 2.306,-0.99 5.6,-1.98 8.895,-2.97 1.647,-0.66 3.294,-0.99 4.611,-1.31 0.659,0 1.318,-0.33 1.977,-0.33 0.329,0 0.659,0 0.988,0 0.329,0 0.329,0 0.329,0 l -0.329,0.33 c 0.659,0 0.988,-0.66 1.647,-0.66 0.659,0 0.988,0.33 0.988,1.64 0,-0.33 -0.329,-0.33 -0.329,-0.33 1.318,3.63 3.623,7.91 6.259,11.53 2.635,3.63 4.941,6.59 6.588,9.55 1.977,0 5.6,6.26 7.247,5.27 2.635,3.96 1.647,3.3 4.941,8.57 0.989,0.99 1.977,1.64 3.295,1.97 l 0.329,0.33 h 0.329 l 0.33,0.33 c 0.329,0 0.659,0.33 0.659,0.66 l -0.659,0.66 2.964,1.32 0.33,1.97 1.647,1.32 c -0.659,-0.66 -0.988,-1.65 -0.659,-1.65 2.965,1.98 5.93,5.6 5.6,6.26 2.306,1.32 4.612,2.64 6.918,3.95 -0.33,0.33 -1.647,-0.32 -2.635,-0.65 3.952,1.64 0,1.31 3.623,2.63 -0.329,-0.33 0.659,-0.33 0.659,-0.33 1.318,1.65 4.941,3.95 7.906,5.27 l -0.988,0.33 c 4.941,3.29 10.87,5.6 17.129,8.24 -1.976,-1.32 -0.988,-1.98 0.659,-1.32 l 0.329,1.32 c 1.318,0 -1.647,-0.99 0.989,-0.99 2.305,0.99 0.988,1.64 -0.33,1.64 l 3.294,0.99 c 0.33,0.33 -0.988,0 -1.317,0.33 0.988,0 2.964,0.99 5.27,1.98 2.306,0.99 4.941,1.97 6.259,1.97 l 0.659,0.66 c 11.2,4.94 17.459,7.91 25.694,11.86 -0.329,-0.66 -0.988,-0.99 -1.317,-1.65 -0.33,-0.33 -0.659,-0.66 -0.659,-0.98 -0.33,-0.33 -0.659,-0.99 -0.988,-1.32 -2.965,-2.31 -4.942,-4.61 -8.565,-7.91 -1.647,-2.3 -3.294,-4.61 -4.941,-6.91 -1.977,-2.64 -4.283,-5.6 -6.918,-8.57 -3.624,-3.95 -1.647,-0.99 -3.624,-2.3 0,0 0,-0.66 -0.329,-0.99 0,-0.33 -0.33,-0.99 -0.659,-1.32 -0.329,-0.99 -0.659,-1.32 0.329,-0.66 -3.623,-4.61 -4.282,-5.6 -8.894,-10.87 0,0.66 0.659,1.65 0,1.32 -0.988,-0.99 -1.317,-2.63 -0.988,-2.63 l 0.33,0.32 c -2.636,-2.96 -4.612,-6.91 -6.259,-10.86 -1.647,-3.96 -2.965,-7.58 -4.942,-10.21 l 0.33,0.32 c -1.318,-1.64 -2.306,-3.62 -3.294,-5.27 -0.989,-2.63 1.317,1.32 0.988,-0.65 -1.977,-2.97 -2.635,-5.6 -3.294,-7.91 -0.659,-2.31 -0.988,-4.61 -1.977,-7.25 0.33,-1.31 0.33,-2.63 0.33,-4.61 0,-0.98 -0.33,-1.97 -0.33,-2.96 -0.329,-0.99 -0.658,-2.31 -0.658,-2.97 -0.989,-3.29 -0.989,-7.57 -0.33,-10.54 l -0.659,0.33 c -0.659,-1.64 0.33,-1.97 0.659,-2.96 -0.329,0.33 -0.659,1.65 -0.988,0.66 v -2.31 -0.33 -0.33 -0.33 c 0,-0.33 0,-0.65 0.329,-0.65 0.33,0 0.33,0 0.659,0 h 0.33 0.988 c 0.988,0 1.317,0 1.976,0 h 0.988 0.659 l 1.318,-0.33 c 0.988,0 1.976,-0.33 2.635,-0.33 7.247,-1.32 14.165,-3.63 20.424,-6.59 4.612,-2.31 1.318,-3.95 7.247,-6.26 -0.329,0.66 -0.659,1.32 -0.988,1.98 4.282,-3.3 8.565,-6.26 12.517,-9.55 3.953,-3.3 7.906,-6.92 10.871,-11.2 -0.329,0.66 0,0.99 -0.659,1.64 1.977,-0.98 5.271,-5.92 4.612,-6.25 0.988,-1.32 0.659,0 1.647,-0.33 1.647,-1.32 2.306,-4.94 3.624,-5.27 0.329,0 0,0.66 -0.33,0.98 0.659,-1.31 3.624,-5.27 2.306,-4.61 2.306,-2.96 3.294,-6.25 5.271,-8.89 0,-2.31 3.294,-5.6 2.306,-6.92 1.317,0.99 3.953,-5.6 3.953,-7.9 0,0.99 1.317,-1.65 1.317,-0.66 0.989,-2.64 1.647,-4.94 0.659,-4.94 3.294,-4.28 1.647,-9.88 4.612,-12.19 1.318,-7.9 2.306,-15.48 2.965,-22.72 0.658,0.32 0.329,2.3 0.329,4.28 -0.329,1.97 -0.659,3.62 0.33,3.62 0.658,-6.92 -0.33,-10.87 0.658,-17.79 0.33,-1.64 0.659,0.99 0.659,1.65 0,-6.92 0.659,-13.17 -0.329,-19.43 0,0 0.329,0.66 0.329,1.32 0,-1.32 0,-2.97 -0.659,-2.64 l 0.33,1.32 c -0.33,0.99 -0.989,-0.33 -1.647,-1.65 -0.659,-1.32 -0.989,-2.96 -1.318,-3.29 1.976,1.97 0,-5.93 2.635,-2.97 -0.329,-0.66 -0.659,-1.64 -0.988,-1.64 0,-1.32 0.33,-1.65 0.988,-0.33 -0.658,-4.29 -1.317,-2.64 -1.976,-6.59 0.329,0 0.659,0.66 0.988,0.99 -0.988,-1.98 -1.976,-3.63 -2.306,-6.92 0.33,0 0.33,-0.33 0.659,0.66 -0.659,-2.64 -1.647,-4.94 -2.635,-7.25 -0.659,-2.3 -1.647,-4.61 -2.636,-7.57 1.977,1.32 -0.329,-2.31 0.989,-2.97 l -1.318,-2.96 v 1.32 c -0.988,-2.64 -2.965,-4.94 -3.294,-7.25 l 1.317,1.98 -2.305,-4.94 0.658,2.96 c -1.647,-2.31 -1.317,0.99 -2.305,-2.63 0.329,0.65 -0.989,-2.64 -1.318,-4.29 -0.988,-0.98 -1.977,-2.3 -2.635,-4.28 0,-0.66 1.317,-0.33 1.317,-0.66 -1.647,-0.66 -3.623,-5.93 -5.6,-6.91 0.659,0.33 0.988,0 0.988,-0.33 l -1.317,-0.66 c -0.33,-1.32 -0.33,-1.65 0,-1.65 -1.977,-3.62 -0.659,1.98 -2.635,-2.3 0.329,0.32 0.329,0 0.658,0.65 -2.306,-4.28 -5.6,-7.24 -8.235,-10.87 0,-1.64 2.635,2.97 2.635,0.99 -4.282,-4.94 -9.553,-9.22 -13.835,-13.83 l 0.659,0.99 c -1.977,0.66 -2.636,-3.96 -5.6,-5.27 0.659,0.33 1.317,0 0.988,0 -2.965,-2.97 -6.588,-5.6 -11.859,-9.23 h 0.988 c -1.647,-1.97 -4.941,-4.28 -6.917,-5.92 -0.989,0 -1.977,-0.99 -1.647,0 -5.271,-6.92 -13.836,-7.58 -19.436,-12.85 0.659,0.33 1.977,0.66 1.318,0.33 -1.977,-0.99 -3.953,-1.65 -5.93,-2.31 0,0.99 0.659,0.66 1.647,1.98 -0.988,0 -2.635,-0.33 -3.953,-0.99 2.636,0.66 0.33,-0.99 -0.329,-1.97 0,0.33 -0.329,0.33 -0.329,0.65 -2.636,-2.63 -0.989,0.99 -4.942,-1.31 l 0.33,-0.33 c -1.647,-0.33 -3.294,-0.33 -4.941,-0.99 -0.33,-0.99 1.647,0.33 2.305,-0.33 -2.305,-0.66 -5.27,0 -7.247,-1.65 0.989,0 2.636,0.66 3.624,0.66 -1.977,-1.64 -2.306,-1.64 -4.282,-2.3 h 0.329 l -3.953,-1.65 0.988,0.66 c -3.623,1.32 -6.259,-0.99 -10.87,-0.66 4.282,-0.33 0.988,-0.66 1.317,-1.65 -0.988,-0.66 -2.635,-1.31 -1.976,-1.31 -1.977,0.32 -2.965,-1.32 -5.93,-0.99 0,-0.33 -1.976,-0.66 -1.317,-1.32 -2.636,-0.33 0.329,0.66 0,0.99 -4.283,0 -8.894,-3.63 -14.495,-3.63 -1.317,0 -1.976,-0.32 -2.964,-0.32 -0.988,0 -1.647,-0.33 -2.306,-0.33 -1.647,0 -2.965,0 -5.271,-0.33 -1.317,-0.99 1.647,-0.99 1.647,-0.99 -2.306,-0.99 -4.282,-1.32 -6.917,-0.99 0.658,-0.33 0,-0.66 -0.659,-0.99 -1.977,0 -1.318,1.32 -3.624,0.66 0.33,-0.33 0.988,-0.99 1.647,-1.32 -1.976,0.33 -4.282,0.66 -6.588,0.66 -0.659,-0.66 1.647,-0.66 2.306,-0.99 -2.306,0 -6.918,-0.33 -7.906,0.66 0.659,0 1.318,0.33 1.647,0.33 -0.988,0 -0.329,-0.66 0.329,-0.99 2.306,-0.33 3.295,0.66 3.295,0.99 h -1.647 c 0.658,0.99 2.305,1.32 4.282,0.99 1.976,0 3.623,-0.66 5.6,-0.66 l -1.318,1.32 c 0.989,-0.33 2.306,-0.66 3.624,-0.99 0.659,0.33 0.988,1.32 -0.659,1.32 2.306,0.99 2.306,-0.33 3.953,0.66 0.329,0 0,0.33 0,0.33 0.659,0 1.647,0 2.306,0 -0.659,0.33 0,0.98 -1.318,0.66 3.624,1.64 6.589,0.98 7.906,2.63 h -0.329 c 5.929,1.32 0.988,-0.66 5.27,-0.66 l 2.306,3.3 0.659,-0.99 c 0.659,0.33 1.647,0.66 1.318,0.99 2.306,0 -0.33,-0.66 1.317,-0.99 2.636,1.64 7.906,1.64 7.906,3.29 1.318,-0.66 -2.635,-1.32 0.659,-0.99 0.33,1.98 3.624,0.66 5.93,1.98 -0.989,0.66 -3.295,-0.33 -0.989,0.99 1.977,-0.99 4.942,1.31 7.247,1.64 0.33,-0.98 4.942,0.66 8.565,1.32 -0.329,0.33 6.259,2.64 9.553,4.28 h -0.329 c 0.988,-0.98 4.282,0.66 6.588,1.32 -0.329,0.66 -0.988,0.66 -2.306,0.33 l 2.306,0.99 c 0.659,0 1.318,0 2.965,0.66 l -0.988,0.66 c 2.964,1.31 6.258,1.97 9.553,4.61 0.658,-0.66 -1.648,-3.63 2.305,-1.98 0,0.33 -0.329,1.32 -1.317,0.66 0.329,0 1.317,0.33 1.976,0.99 l -1.976,-0.33 c 1.317,1.32 1.317,0 2.306,0.66 -0.33,0.66 0.659,0.99 0.329,1.31 -0.329,0 -0.988,-0.98 -1.647,-0.98 1.318,0.98 2.965,2.3 3.294,3.29 0,-0.33 0.33,-0.66 1.647,0 2.636,1.65 0.659,1.32 1.977,2.64 0.988,0 2.306,1.64 2.964,0.98 0.659,0.66 0.659,0.99 0.659,1.32 1.647,0.66 6.259,4.61 5.271,2.64 l -0.33,-0.33 c 0,0 0.001,0 0.33,0 4.941,2.63 8.235,7.57 12.518,11.2 l -0.33,0.32 c 2.636,1.98 5.271,4.95 7.577,5.93 0.659,0.66 0.988,1.98 0.659,1.98 1.976,1.65 2.305,1.65 4.282,4.61 -1.977,-1.32 0.329,0.99 -1.977,-1.65 1.977,2.64 1.977,3.3 4.942,5.6 -1.318,-0.33 0.658,2.64 1.976,3.63 l -0.988,-1.98 c 0.988,1.32 1.976,2.31 2.965,3.62 h -1.318 c 2.635,5.93 8.565,8.24 9.224,13.84 1.647,0.99 -1.318,-3.3 0.329,-2.31 1.318,2.64 1.647,6.26 1.976,6.92 1.318,3.95 3.295,2.63 4.612,6.59 0,-0.66 0.988,-1.65 2.636,1.31 0.988,2.97 0,3.96 -0.989,2.31 -0.329,-0.66 -0.329,-0.99 -0.329,-0.99 -0.659,-0.99 -0.988,-1.98 -0.988,-0.66 l 0.658,0.33 c 0.33,1.65 1.648,5.27 0.989,4.61 1.317,1.98 0.988,0.66 0.659,-0.99 0.329,1.98 0.988,3.3 1.647,4.62 0.329,1.31 0.988,2.96 1.317,4.94 0,-0.66 0.33,-1.32 0.33,-0.66 1.317,5.6 1.647,2.3 2.964,5.93 0,2.3 -1.647,-0.33 -0.329,3.29 0,2.31 -0.988,0.66 -1.318,0 1.647,3.29 0.989,6.59 1.318,8.56 l -0.659,-1.64 c 0.33,0.98 0.659,1.97 0.659,2.96 l 0.659,-1.32 c 0,0.99 0.329,1.98 0,1.98 0.659,0.99 0.988,-0.99 2.306,0.99 -0.33,1.64 1.317,4.28 0,4.94 -0.33,-4.61 -0.989,0.66 -1.647,-3.3 0.329,0.66 0.329,1.65 0.329,2.64 0,0.33 -0.329,0 -0.329,-0.33 -0.33,4.61 1.317,1.98 1.647,6.59 -0.659,-0.66 -0.989,0.99 -0.659,1.97 0,-1.97 0.988,-0.98 1.647,0.66 -0.329,2.97 0.329,3.3 0.329,4.61 l 0.33,-1.64 c 0.659,0.66 0.659,1.97 0.659,4.28 -0.33,0.33 -0.33,-1.98 -0.659,-0.99 1.317,2.31 -0.988,5.27 -0.33,8.56 -0.329,1.32 -0.988,0 -1.317,1.32 0.659,3.63 -0.989,3.95 -0.659,7.58 0.988,-0.99 0.659,-1.32 1.318,1.64 v -6.25 l 0.658,3.95 c 0.33,-1.98 0,-3.95 0,-5.27 0.33,1.98 0.33,1.65 0.989,0.99 -1.318,2.63 0.329,5.27 -0.989,8.23 l -1.976,-0.33 c -1.318,4.28 0,7.91 -1.647,13.51 l 0.659,-1.65 c 0.658,0.99 -0.659,3.62 -0.659,5.6 -0.659,-0.33 -0.988,0.66 -1.647,1.32 0.659,0 -0.988,3.95 0,4.94 l -1.647,2.3 c -1.647,4.28 0.329,5.6 -1.318,9.88 -0.329,-1.64 -1.318,0.33 -0.988,-2.63 -0.33,1.32 -0.988,2.63 -0.659,2.96 -0.659,0.66 -0.659,4.29 -1.647,5.27 0,0.66 0.659,1.32 0,2.64 -0.329,0 -0.33,0 -0.33,0 0.33,0 -0.658,2.63 0.659,1.65 -3.623,3.62 -5.27,11.85 -8.894,14.49 -1.318,2.96 -3.294,6.26 -5.271,8.89 0,-0.33 -0.329,-0.33 0,-0.66 -2.964,2.97 0,3.3 -3.294,6.59 -2.306,1.32 0.989,-2.31 0,-1.32 -1.976,-0.99 -3.294,4.61 -6.588,5.93 l 0.33,-0.66 c -2.306,1.32 -3.295,4.61 -6.589,7.25 0,0 0,-0.33 -0.329,-0.33 -1.318,2.63 -4.941,6.26 -7.906,8.56 0.329,-1.31 0.988,-1.31 0,-1.64 -1.318,0.98 1.318,0.98 -1.318,2.96 -1.317,0.33 -3.623,1.32 -4.282,0.66 l 2.635,-1.65 c -1.976,0 -3.294,2.31 -4.941,2.97 V 1969 c -3.953,2.63 -3.624,3.62 -8.235,5.93 h 0.658 c -1.976,2.3 -2.635,0.33 -4.611,2.3 l -1.318,-0.99 c -1.647,0.99 -5.929,3.63 -8.894,4.62 1.647,-1.32 5.27,-2.97 7.247,-4.29 -1.647,0.66 -5.929,1.98 -6.588,2.97 0.659,-0.33 1.647,-0.99 2.306,-0.99 -1.977,1.65 -4.942,2.96 -8.236,3.29 0.33,-0.66 -0.329,-0.98 -1.647,-0.98 -0.659,0 -1.318,0 -1.647,0 -0.659,0 -1.976,0 -2.965,0.32 -0.988,0 -1.976,0.33 -2.964,0.99 -0.989,0.66 -1.318,1.65 -1.318,2.31 -0.329,0.99 -0.329,1.97 -0.329,2.63 0,0.99 -0.33,1.32 -0.659,1.98 0.659,3.29 0.329,6.59 0.329,10.21 0,1.98 0,3.95 0.33,5.93 0.329,1.65 0.658,3.62 0.988,5.6 1.647,-2.97 0.329,2.3 2.306,1.32 0.329,1.64 0.659,2.63 0.329,2.63 0,1.98 0,3.95 0,5.93 -0.329,1.65 -0.988,-1.65 -1.318,-1.32 0.989,4.28 -0.329,1.98 0,4.94 0.659,-0.66 1.318,0.99 1.977,3.63 0,-1.32 0,-2.31 0,-3.63 1.318,2.64 1.318,3.96 1.318,5.27 0,1.32 0,2.64 1.647,5.27 l -1.318,-1.64 c 1.318,2.63 4.612,10.21 7.247,11.85 0,0.66 0,1.32 -0.988,0.33 3.294,6.59 9.553,12.52 11.859,17.46 h -0.659 c 0.988,0.99 1.976,1.32 2.635,2.96 -0.329,0 -0.659,0 -0.329,0.33 0.659,0.33 2.635,2.31 3.623,3.96 l -1.317,-0.99 c 0.988,1.31 1.647,2.63 2.635,3.62 0.329,0.33 0.659,0.99 0.988,1.32 0.33,0.33 0.659,0.33 0.989,0.66 l 0.988,0.66 0.988,0.65 c 0.659,0.33 1.318,0.99 1.976,1.65 -1.317,-0.33 -1.976,-0.33 -2.305,-0.33 -0.33,0 -0.659,0 -0.989,0 l -0.658,-0.33 c 0,0 -10e-4,0 0.329,0.33 0.329,0.33 0.329,0.66 0.329,0.99 0,0.33 -0.659,0.66 -1.976,0.33 -0.33,-0.33 -0.659,-0.66 -0.659,-0.66 -0.329,0 0,0 -0.329,-0.33 -0.33,-0.33 -0.659,-0.33 -0.989,-0.66 -1.647,-0.99 -3.294,-1.64 -4.941,-2.63 -3.623,-1.65 -7.576,-3.63 -10.212,-5.93 0.659,0.66 -0.658,0.99 -1.976,0.33 -1.318,-0.99 -4.612,-1.65 -3.624,-2.64 l 0.33,0.33 c -0.33,-1.64 -3.294,-3.29 -5.6,-4.94 l -1.318,1.32 c -2.306,-2.97 -5.929,-5.6 -9.553,-7.91 -3.294,-2.3 -6.588,-4.61 -6.918,-6.91 -0.329,0 -0.329,-0.33 -0.658,-0.33 l 0.329,0.33 c -1.318,-0.66 -2.306,-1.98 -3.624,-2.97 l 0.659,-0.66 c -2.964,-3.95 -4.612,-5.92 -9.223,-9.88 l 1.317,0.33 c -2.306,-2.3 -4.941,-0.99 -6.917,-3.29 l 0.329,-1.65 c -1.976,-1.97 -3.294,-4.61 -4.941,-6.91 -1.318,-2.31 -2.635,-4.62 -4.612,-6.92 0.329,0 0.659,0 0.988,0.66 -0.329,-0.66 -0.659,-1.32 -0.988,-2.31 -0.329,-0.66 -0.329,-0.99 -0.659,-1.65 -0.329,-0.98 -0.988,-1.97 -1.317,-2.96 -0.989,-1.65 -2.306,-2.63 -3.295,-2.63 -0.988,0 -1.647,0.32 -1.317,0.65 0,-0.33 -0.33,-0.65 -1.318,-0.65 -0.988,0 -2.635,0.65 -3.294,0.65 -1.976,0.66 -4.282,1.65 -5.6,2.31 l 0.329,-0.99 c -2.306,1.65 -2.306,1.98 -5.929,3.3 -0.988,0 -0.988,-0.66 0.329,-0.66 -2.964,0.33 -1.976,1.31 -5.6,1.64 l 1.318,-0.98 c -2.965,0.65 -2.635,0.65 -3.953,1.64 -1.647,0.66 -5.6,0.66 -6.259,0 -0.329,0.66 -1.647,1.65 -3.623,1.65 -0.33,-0.33 0.329,-0.66 0.658,-0.66 -4.941,0 -7.247,1.98 -10.87,1.65 0,-0.33 -0.33,-0.33 -0.659,-0.33 3.953,-0.33 7.247,-0.99 6.918,-0.66 0,-0.99 -3.295,-0.66 -0.989,-1.98 -2.306,0.99 -6.588,2.97 -9.882,2.97 0,0 -0.329,0 -0.329,-0.33 h 0.329 c -0.659,0 -1.318,0 -1.977,0.33 -0.988,0 -1.647,0 -2.635,0 -0.329,-0.66 -3.623,0 -5.27,0 0.329,0.98 -1.977,0.98 0,1.64 -0.33,0 0.329,0 1.317,-0.33 0.33,0 0.659,0 0.659,0 0.988,0 2.306,-0.33 3.953,-0.33 -1.318,0.66 -2.635,0.99 -4.282,0.66 -0.659,0.66 -1.647,1.32 -1.977,1.65 -2.306,-0.99 -6.588,-1.65 -7.247,-2.31 -4.941,0.66 -11.529,0.66 -14.494,1.98 -1.318,0.33 -1.647,-0.66 -1.977,-0.99 0.659,0 1.647,0 2.306,-0.33 -2.635,0.33 -8.235,-0.33 -8.894,0.99 -3.294,-0.66 1.318,-0.99 -1.647,-0.99 h 0.329 c -0.329,0 -0.658,0 -1.317,0 l 0.659,-0.33 c -4.612,-1.64 -8.236,-1.31 -12.189,-1.64 -3.953,0 -8.235,-0.33 -12.847,-2.97 0.659,0.33 0.988,0.66 0.988,0.66 -11.2,-4.28 -23.717,-6.92 -33.27,-13.83 -2.636,-1.98 -3.295,-1.32 -5.6,-1.98 v -1.32 c -1.318,-0.32 -2.306,-0.65 -3.624,-0.65 -2.306,-0.99 -3.953,-2.64 -5.6,-4.29 -1.647,-1.64 -3.294,-3.62 -6.259,-4.61 l 0.33,0.99 c -1.648,-1.32 -5.93,-3.95 -5.271,-4.28 -0.329,0 -0.988,0 -1.647,-0.66 l 0.329,-0.33 c -1.647,-0.99 -3.294,-1.98 -4.941,-2.96 -2.965,-3.3 1.977,-0.99 -2.635,-5.27 -1.977,-1.32 -5.6,-3.63 -5.271,-2.64 0.659,0.66 1.318,1.98 1.318,2.31 l -1.647,-1.32 c -1.318,0.66 -3.624,0.66 -0.659,5.27 0.988,0.66 2.306,1.32 3.294,1.98 l 0.329,1.31 -2.305,-1.97 c 0.988,1.64 1.976,1.97 3.294,2.63 0,0.66 0.329,0.99 0.659,1.65 l 3.623,1.32 c 0,0.66 -1.976,0 -0.329,1.64 1.647,0.66 -0.33,-1.97 1.976,-0.66 0.988,1.65 0.33,1.65 2.306,2.64 0,0.66 -0.659,0.33 -1.318,0 1.647,0.66 3.953,2.96 5.271,2.96 0.988,1.65 5.271,3.3 4.282,4.62 0.659,0 3.295,0.98 4.942,1.64 -3.624,-0.33 5.27,3.3 3.623,4.61 2.635,0 7.577,3.63 11.859,4.61 -0.329,0 -0.659,0 -0.988,-0.32 1.976,0.98 2.306,1.97 3.623,2.63 0.659,-0.99 4.283,0.33 6.259,0.33 1.977,2.3 -2.306,0.66 -1.976,2.31 0.329,-0.99 4.941,0.98 4.282,-0.33 1.647,1.64 1.647,0.98 2.306,2.3 0.988,-1.32 1.976,0.33 3.953,0 2.635,1.98 0.329,1.65 3.623,2.31 0.659,-3.3 -2.305,-3.63 -2.305,-3.63 z m 81.035,5.27 c -0.658,0 -1.317,0.33 -1.647,0.33 0.33,-0.33 0.989,-0.33 1.647,-0.33 z m 6.918,-0.98 c -0.988,0 -1.976,0.32 -2.965,0.32 -0.329,-0.32 0,-0.65 0.659,-0.65 -0.329,0.33 1.318,0.33 2.306,0.33 z m -14.824,-4.94 c 0.989,-0.33 1.318,0 1.647,0 -0.329,0 -0.988,-0.01 -1.976,0.32 0,0 0,0 0.329,-0.32 z"
         fill="#6b4f94"
         id="path2852" />
      <path
         d="m 542.215,2013.79 h -0.33 c 0.33,0.33 0.33,0.33 0.33,0 0.329,0 0.329,0 0.659,0 0,0 -0.33,0 -0.659,0 z"
         fill="#6b4f94"
         id="path2854" />
      <path
         d="m 628.192,2051.01 v -0.33 h -0.659 z"
         fill="#6b4f94"
         id="path2856" />
      <path
         d="m 655.533,1714.06 c 0,0 0,-0.33 -0.329,-0.33 0,0 0.329,0 0.329,0.33 z"
         fill="#6b4f94"
         id="path2858" />
      <path
         d="m 640.38,1708.13 -1.976,-0.98 c 0.659,0.65 1.317,0.98 1.976,0.98 z"
         fill="#6b4f94"
         id="path2860" />
      <path
         d="m 628.192,1704.84 c -0.329,0 -0.329,0.33 -0.329,0.33 z"
         fill="#6b4f94"
         id="path2862" />
      <path
         d="m 750.075,1846.14 c 0,0.33 0,0.33 0,0 0.329,1.32 0.329,0.66 0,0 z"
         fill="#6b4f94"
         id="path2864" />
      <path
         d="m 734.263,1789.16 c 0.33,0.33 0.988,0.99 1.318,1.65 -0.659,-1.32 -0.988,-1.98 -1.318,-1.65 z"
         fill="#6b4f94"
         id="path2866" />
      <path
         d="m 739.863,1911.69 -0.329,0.33 z"
         fill="#6b4f94"
         id="path2868" />
      <path
         d="m 736.569,1793.11 c -0.329,-0.99 -0.659,-1.97 -0.988,-2.63 0,0.99 0.329,1.97 0.988,2.63 z"
         fill="#6b4f94"
         id="path2870" />
      <path
         d="m 575.156,1693.31 h -0.659 c 0.33,0.33 0.659,0.33 0.659,0 z"
         fill="#6b4f94"
         id="path2872" />
      <path
         d="m 572.85,1693.64 1.647,-0.33 c -0.658,0 -1.317,0 -1.647,0.33 z"
         fill="#6b4f94"
         id="path2874" />
      <path
         d="m 597.556,1696.61 c -1.317,-0.33 -2.964,-1.65 -4.611,-1.65 l -0.33,0.33 c 0.988,-0.66 3.624,1.32 4.941,1.32 z"
         fill="#6b4f94"
         id="path2876" />
      <path
         d="m 616.333,1706.16 -3.953,-1.32 c 0.659,0.66 1.318,1.32 -0.329,0.99 4.611,2.3 -0.989,-0.99 4.282,0.33 z"
         fill="#6b4f94"
         id="path2878" />
      <path
         d="m 628.851,1709.45 c -2.306,-0.33 0,0.66 -0.33,0.66 1.318,0 1.647,0 0.33,-0.66 z"
         fill="#6b4f94"
         id="path2880" />
      <path
         d="m 706.592,1755.89 -0.658,0.33 c 1.317,1.32 0.329,-0.33 0.658,-0.33 z"
         fill="#6b4f94"
         id="path2882" />
      <path
         d="m 721.416,1766.76 -0.659,-1.64 -0.988,-0.33 z"
         fill="#6b4f94"
         id="path2884" />
      <path
         d="m 722.404,1778.62 -0.329,-0.33 1.647,1.98 z"
         fill="#6b4f94"
         id="path2886" />
      <path
         d="m 724.71,1924.86 h 1.318 c 0.329,-0.99 -0.659,-1.97 -1.318,0 z"
         fill="#6b4f94"
         id="path2888" />
      <path
         d="m 678.592,1970.32 c -0.988,0 -2.635,0.32 -3.623,1.31 1.647,-0.66 2.964,-0.99 3.623,-1.31 z"
         fill="#6b4f94"
         id="path2890" />
      <path
         d="m 647.298,2055.95 1.318,0.33 -2.306,-1.32 z"
         fill="#6b4f94"
         id="path2892" />
    </g>
  </g>
</svg>
