<?xml version="1.0" encoding="UTF-8" standalone="no"?>
<svg
   xmlns:dc="http://purl.org/dc/elements/1.1/"
   xmlns:cc="http://creativecommons.org/ns#"
   xmlns:rdf="http://www.w3.org/1999/02/22-rdf-syntax-ns#"
   xmlns:svg="http://www.w3.org/2000/svg"
   xmlns="http://www.w3.org/2000/svg"
   xmlns:sodipodi="http://sodipodi.sourceforge.net/DTD/sodipodi-0.dtd"
   xmlns:inkscape="http://www.inkscape.org/namespaces/inkscape"
   width="841.90002mm"
   height="595.29999mm"
   viewBox="0 0 841.90002 595.29999"
   version="1.1"
   id="svg2511"
   inkscape:version="1.0.1 (3bc2e813f5, 2020-09-07)"
   sodipodi:docname="autonomia.svg">
  <defs
     id="defs2505" />
  <sodipodi:namedview
     id="base"
     pagecolor="#ffffff"
     bordercolor="#666666"
     borderopacity="1.0"
     inkscape:pageopacity="0.0"
     inkscape:pageshadow="2"
     inkscape:zoom="0.175"
     inkscape:cx="1474.1516"
     inkscape:cy="915.50727"
     inkscape:document-units="mm"
     inkscape:current-layer="layer1"
     inkscape:document-rotation="0"
     showgrid="false"
     inkscape:window-width="1366"
     inkscape:window-height="738"
     inkscape:window-x="0"
     inkscape:window-y="0"
     inkscape:window-maximized="0" />
  <metadata
     id="metadata2508">
    <rdf:RDF>
      <cc:Work
         rdf:about="">
        <dc:format>image/svg+xml</dc:format>
        <dc:type
           rdf:resource="http://purl.org/dc/dcmitype/StillImage" />
        <dc:title />
      </cc:Work>
    </rdf:RDF>
  </metadata>
  <g
     inkscape:label="Layer 1"
     inkscape:groupmode="layer"
     id="layer1">
    <g
       id="g11244"
       transform="matrix(1.3867011,0,0,1.3867011,-1611.2864,-3122.2904)">
      <path
         d="m 1342.69,2606.34 c 0.33,0.98 0.99,0.33 0.66,-1.98 l -0.99,-1.65 z"
         fill="#6b4f94"
         id="path3382" />
      <path
         d="m 1345.66,2589.87 c -0.33,-2.97 -0.66,-6.26 -1.98,-4.61 0.66,2.96 0.33,3.62 1.32,6.91 0,2.31 -0.66,4.29 -0.99,3.96 0.33,0.98 -0.33,3.95 0.33,5.27 0.99,-3.3 1.32,-7.25 0.99,-11.53 0,-0.99 0,-0.33 0.33,0 z"
         fill="#6b4f94"
         id="path3384" />
      <path
         d="m 1516.29,2469.32 c -0.66,0 -0.99,0.33 -1.32,0.33 0,0 0.66,-0.33 1.32,-0.33 z"
         fill="#6b4f94"
         id="path3386" />
      <path
         d="m 1651.35,2489.41 c -0.99,-0.66 -1.32,-0.99 -1.32,-0.99 0.66,0.99 1.32,1.32 1.32,0.99 z"
         fill="#6b4f94"
         id="path3388" />
      <path
         d="m 1666.5,2508.84 c -0.33,-0.33 -0.65,-0.66 -0.65,-1.32 0.32,0.66 0.65,0.99 0.65,1.32 z"
         fill="#6b4f94"
         id="path3390" />
      <path
         d="m 1516.29,2469.32 3.63,-0.99 c 0,-0.33 -1.98,0.33 -3.63,0.99 z"
         fill="#6b4f94"
         id="path3392" />
      <path
         d="m 1349.61,2556.93 c -0.33,0.66 -0.33,1.65 -0.33,2.31 0,-0.66 0.33,-1.32 0.33,-2.31 z"
         fill="#6b4f94"
         id="path3394" />
      <path
         d="m 1462.27,2503.57 -0.99,0.66 c -0.33,0.33 -0.33,0.66 -0.33,0.99 z"
         fill="#6b4f94"
         id="path3396" />
      <path
         d="m 1425.04,2535.85 c 1.32,0.66 1.98,0 2.64,-0.33 -0.66,0 -1.98,-0.33 -2.97,-0.33 0,0 0,0.33 0.33,0.66 z"
         fill="#6b4f94"
         id="path3398" />
      <path
         d="m 1357.84,2548.37 -0.66,1.31 c 0.33,-0.33 0.33,-0.98 0.66,-1.31 z"
         fill="#6b4f94"
         id="path3400" />
      <path
         d="m 1431.3,2339.21 c 0,-0.33 0,-0.33 0,0 -0.33,-0.33 -0.33,-0.33 0,0 z"
         fill="#6b4f94"
         id="path3402" />
      <path
         d="m 1450.41,2305.95 -0.66,-0.33 -0.33,0.33 z"
         fill="#6b4f94"
         id="path3404" />
      <path
         d="m 1681.66,2550.01 c 0,-0.33 0,-0.33 0,0 -0.33,-1.31 -0.33,-0.66 0,0 z"
         fill="#6b4f94"
         id="path3406" />
      <path
         d="m 1340.71,2662.99 c 4.62,1.32 -7.57,0.33 -0.65,1.98 -0.66,-0.66 6.58,-0.99 0.65,-1.98 z"
         fill="#6b4f94"
         id="path3408" />
      <path
         d="m 1350.27,2555.61 c 0.33,-0.66 0.66,-1.31 0.66,-1.97 -0.33,0.98 -0.66,1.64 -0.66,1.97 z"
         fill="#6b4f94"
         id="path3410" />
      <path
         d="m 1340.06,2664.64 0.65,0.33 c -0.33,0 -0.33,0 -0.65,-0.33 z"
         fill="#6b4f94"
         id="path3412" />
      <path
         d="m 1648.39,2640.59 c 0.33,0 0.66,0 0.98,-0.33 0,0 0,0 -0.98,0.33 z"
         fill="#6b4f94"
         id="path3414" />
      <path
         d="m 1684.29,2575.7 -0.33,1.98 c 0.33,-0.66 0.33,-1.32 0.33,-1.98 z"
         fill="#6b4f94"
         id="path3416" />
      <path
         d="m 1613.14,2658.38 c -0.99,0.33 -1.32,0.33 -2.64,0.66 h 0.33 c 0.33,-0.33 0.99,-0.66 2.31,-0.66 z"
         fill="#6b4f94"
         id="path3418" />
      <path
         d="m 1571.96,2666.28 c 0.33,0 0.66,0 0.66,0 0.33,0 0.99,0 1.32,-0.33 z"
         fill="#6b4f94"
         id="path3420" />
      <path
         d="m 1478.74,2272.68 c 0.33,0.99 0.33,1.65 0.33,2.31 0,-0.99 3.29,4.61 -0.33,-2.31 z"
         fill="#6b4f94"
         id="path3422" />
      <path
         d="m 1350.27,2557.26 c 0,-0.33 0,-0.66 0,-1.32 -0.33,0.33 -0.33,0.99 -0.33,1.32 0,0 0,0 0.33,0 z"
         fill="#6b4f94"
         id="path3424" />
      <path
         d="m 1613.47,2665.62 c -2.31,0.66 -4.61,1.32 -6.92,1.65 2.31,-0.33 4.61,-0.66 6.92,-1.65 z"
         fill="#6b4f94"
         id="path3426" />
      <path
         d="m 1275.49,2449.88 0.33,-1.64 c 0,0.66 -0.33,0.99 -0.33,1.64 z"
         fill="#6b4f94"
         id="path3428" />
      <path
         d="m 1586.79,2671.55 c -1.32,0 -2.64,0 -3.96,0 -0.33,0 -0.66,0.33 -0.66,0.33 z"
         fill="#6b4f94"
         id="path3430" />
      <path
         d="m 1500.48,2314.51 c -2.64,-6.26 -2.31,-2.3 -3.62,-3.62 -3.63,-6.92 -0.66,-3.62 -1.32,-6.26 -2.31,-4.28 -4.94,-7.25 -6.59,-10.21 0,-0.33 -0.33,-0.99 0.33,-0.33 -2.97,-4.28 -6.59,-13.5 -10.54,-18.44 0,-0.33 0,-0.66 0,-0.99 0,0.99 -0.66,1.64 -0.99,1.64 -1.32,-2.63 -3.29,-4.28 -2.96,-5.6 0.98,1.65 1.31,1.65 1.97,2.31 l -1.65,-2.63 c -0.32,-2.97 2.31,3.62 2.97,2.96 -3.29,-5.27 -7.58,-10.87 -11.2,-14.16 0,-0.66 2.31,0.98 3.62,2.63 1.32,1.65 2.31,2.97 0.66,0 1.65,1.98 2.64,4.28 3.95,6.26 -1.31,-5.6 2.31,3.95 1.32,-1.65 -2.3,-4.28 -4.28,-6.58 -6.59,-8.56 -0.65,-0.66 -1.31,-0.99 -1.97,-1.65 -0.66,-0.33 -1.65,-0.99 -2.31,-1.32 -1.65,-0.65 -3.62,-1.64 -6.26,-2.3 -2.3,0 0.66,0.99 -1.97,0.99 -3.63,-0.33 -5.93,-0.33 -7.91,-0.66 -1.98,0 -3.29,-0.33 -4.28,-0.66 -2.31,-0.33 -4.28,-0.66 -9.23,1.32 -2.3,1.64 -2.96,2.96 -9.55,4.94 l 1.65,-1.98 c -4.28,1.65 -5.27,2.64 -6.26,3.62 -0.99,0.99 -2.31,1.65 -6.59,3.63 1.32,-1.32 6.26,-3.63 4.94,-3.3 -5.93,1.98 -3.62,2.64 -7.57,4.94 l -1.32,-0.32 c -8.24,4.94 -16.8,11.52 -25.04,18.11 0.33,-0.66 1.65,-1.98 -0.66,-0.66 -10.54,8.24 -22.73,17.13 -33.27,24.71 -0.98,1.31 -2.3,2.63 -3.29,4.28 -0.99,0.99 -1.98,1.31 -0.99,0.33 -3.95,3.62 0.33,0.66 -1.32,2.63 -1.97,2.31 -2.96,2.64 -1.97,0.99 -2.97,3.62 -6.59,9.55 -9.23,15.15 -2.63,5.6 -6.58,10.54 -9.55,13.83 l 0.99,-1.64 c -4.61,5.6 -3.3,7.9 -7.58,12.84 l 0.66,-1.31 c -9.22,12.84 -16.8,28.98 -22.73,39.52 0.33,1.32 -1.65,4.94 -2.96,8.56 -1.32,3.63 -2.64,6.92 -1.98,7.91 -3.62,8.23 -2.96,5.6 -7.91,17.13 -1.31,2.96 -0.65,4.94 -1.97,8.89 l -0.99,-0.33 -1.32,5.6 -2.3,2.31 -1.32,3.62 c 0.66,-1.32 1.65,-2.97 1.97,-2.64 -1.97,5.93 -6.25,13.84 -6.58,13.84 -1.32,4.61 -2.64,9.55 -3.63,14.16 -0.33,-0.33 0.33,-2.63 0.66,-4.61 -1.32,7.9 -1.32,0.99 -2.63,8.23 0.33,-0.98 0.33,0.66 0.66,0.99 -1.65,3.3 -3.63,10.87 -5.28,16.8 l -0.32,-1.32 c -2.97,10.21 -5.6,22.07 -8.24,33.6 1.32,-4.28 2.31,-2.97 1.65,0.66 l -1.32,0.98 c 0,2.31 1.32,-3.62 0.99,1.32 -0.99,4.28 -1.98,2.64 -1.65,0 l -1.98,5.93 c -0.33,0.33 -0.33,-0.99 -0.65,-1.32 0,2.31 -2.97,8.9 -2.64,12.52 l -0.33,0.33 c -2.31,11.86 -2.96,17.46 -3.95,27.34 0.33,0 0.66,1.31 0.66,2.63 0,0.66 0,1.65 0.33,2.31 0,0.99 0,1.64 0.33,2.3 -0.33,1.65 -0.33,3.63 -0.66,5.27 -0.33,1.65 -0.33,3.96 -0.66,5.27 -0.33,0.66 -0.66,1.98 -0.99,3.3 0,0.99 0,1.31 0,1.64 v 1.65 c 0,2.31 0,3.95 -0.33,5.93 -0.33,5.93 0.66,1.98 0.99,4.61 -0.33,0 -0.99,2.64 -0.99,4.28 -0.33,1.65 -0.33,2.64 -0.66,0.33 0,4.94 -0.66,8.57 0.66,13.18 1.32,4.28 4.28,8.23 9.55,12.84 -0.99,-1.31 -1.97,-2.63 -0.99,-2.3 1.98,1.64 3.96,4.28 3.3,4.28 l -0.66,-0.33 c 6.26,4.61 13.51,9.88 21.08,13.5 7.58,3.63 15.16,6.26 21.08,6.92 h -0.65 c 3.95,0.66 7.9,1.65 12.18,2.31 5.6,1.31 -3.62,-0.33 0.66,1.31 6.59,0.99 11.86,1.98 16.8,2.64 4.94,0.66 9.56,1.32 15.16,1.65 8.23,3.29 29.97,1.97 40.84,4.28 l -0.98,-0.33 c 2.96,-0.33 3.62,0.66 5.6,0.99 -0.33,-0.33 -2.97,-0.66 -1.32,-0.99 12.19,0.66 25.03,2.3 37.88,3.62 12.85,1.32 26.02,2.31 38.54,2.97 9.23,0.33 5.27,-2.97 17.13,-1.65 l -3.29,0.99 c 4.61,-0.33 9.55,-0.66 14.16,-0.66 4.94,-0.33 9.55,-0.66 14.5,-0.99 9.55,-0.66 19.1,-1.32 28,-2.63 -0.99,0.32 -0.99,0.65 -2.97,0.65 3.95,0.66 14.17,-0.98 14.17,-1.64 2.96,0 0.66,0.66 2.63,0.66 3.95,0.33 9.55,-1.65 11.86,-0.99 0.33,0 -0.99,0.33 -1.65,0.33 2.64,-0.66 11.86,-0.66 9.23,-1.65 0.33,0 0.33,0 0.33,0 h -0.33 1.64 1.32 c 0.99,0 1.65,0 2.31,-0.33 1.64,-0.33 3.29,-0.33 4.61,-0.66 2.96,-0.33 5.93,-0.99 8.56,-0.99 3.3,-1.31 11.86,-1.31 12.85,-2.96 -0.33,1.65 12.19,-1.32 16.47,-3.29 -1.32,0.98 3.96,-0.66 2.31,0.33 4.94,-1.65 9.22,-3.63 8.23,-3.96 2.31,-0.33 4.62,-1.31 6.59,-2.3 1.65,-0.99 3.63,-1.65 5.6,-2.64 1.98,-0.99 3.95,-1.64 5.6,-2.3 1.98,-0.66 3.3,-1.32 4.94,-1.65 13.51,-8.56 22.4,-19.76 29.32,-31.62 0.66,0.66 -1.32,3.95 -3.62,6.92 -1.98,2.96 -4.29,5.93 -3.63,5.93 3.96,-5.27 6.26,-9.89 8.57,-14.5 2.3,-4.61 4.28,-9.22 6.92,-14.82 1.31,-2.96 0,1.98 -0.33,2.97 0.66,-1.32 0.98,-2.97 1.64,-4.29 l 0.66,-2.3 0.33,-0.99 0.33,-0.66 v -0.33 c 0,0.33 -0.33,0.33 -0.33,0.33 l 0.33,-0.99 c 2.97,-9.22 4.61,-18.11 4.61,-27.01 0,0 0.33,1.32 0.33,2.64 0,-2.31 0.33,-5.27 -0.33,-4.94 v 2.3 c -0.66,1.65 -0.99,-0.65 -1.31,-3.29 -0.33,-2.63 -0.99,-5.93 -1.32,-6.26 0.99,1.98 0.99,-0.99 0.99,-3.62 0,-2.64 0,-4.94 1.64,-1.98 -0.33,-1.64 -0.66,-3.29 -1.31,-2.96 0,-2.31 0,-2.97 0.98,-0.66 -1.64,-7.91 -1.64,-4.94 -3.29,-12.19 0.33,0 0.66,1.32 1.32,1.98 -1.32,-3.62 -2.97,-6.92 -4.61,-12.85 0.32,0.33 0.32,-0.33 0.98,1.32 -1.64,-5.27 -4.28,-9.55 -6.26,-14.16 -0.65,-0.99 -0.98,-1.65 -1.64,-2.64 -0.66,-0.99 -1.32,-1.97 -1.98,-2.96 -1.32,-1.98 -2.63,-3.95 -4.28,-6.26 3.29,1.98 -1.98,-3.62 -1.32,-4.61 -1.32,-1.65 -2.96,-2.96 -4.28,-4.61 0.33,0.66 0.66,1.65 1.32,2.3 -3.63,-4.28 -7.25,-7.24 -10.54,-10.54 l 3.29,2.64 c -2.31,-2.31 -4.94,-4.61 -7.58,-6.92 1.32,1.32 2.64,2.97 3.96,4.28 -4.29,-3.29 -0.66,1.65 -5.6,-3.62 1.31,0.99 -3.96,-3.62 -5.6,-5.93 -2.31,-1.32 -4.62,-2.96 -7.91,-5.27 -0.66,-0.99 1.32,-0.66 0.99,-1.32 -1.32,-0.32 -3.95,-1.97 -7.25,-3.62 -1.65,-0.66 -3.29,-0.99 -4.61,-1.65 -1.32,-0.32 -2.31,-0.98 -3.29,-0.98 0.98,0.33 1.64,-0.33 1.31,-0.66 -0.99,0 -1.64,-0.33 -2.63,-0.33 -2.31,-1.32 -2.64,-1.32 -1.98,-1.65 -3.29,-1.32 -2.96,-0.99 -2.63,-0.33 0.33,0.33 0.33,0.99 -3.63,-1.32 0.66,0.33 0.33,0 1.98,0.66 -1.98,-1.31 -4.28,-1.97 -6.26,-2.63 -2.31,-0.66 -3.95,-0.99 -6.26,-1.65 -0.99,-0.33 -2.31,-0.33 -3.29,-0.33 -1.32,0 -1.98,0 -2.97,0 -1.97,0 -3.95,-0.33 -6.26,-0.66 -1.31,-0.66 0.66,-0.66 2.31,-0.33 1.65,0.33 3.29,0.33 1.98,-0.33 -1.32,0 -2.97,-0.32 -4.62,-0.32 -1.64,0 -3.29,0 -4.61,0 -2.96,0 -6.26,0 -9.22,0.32 -6.26,0.33 -12.19,0.66 -18.12,0.99 h 2.31 c -1.32,1.98 -8.57,0 -14.17,1.98 1.32,-0.33 1.65,-1.32 1.32,-0.99 -1.98,0.33 -3.95,0.66 -5.93,0.99 -1.98,0.33 -4.28,1.32 -6.26,1.65 -1.98,0.65 -4.61,0.98 -6.92,1.97 -2.63,0.99 -4.94,1.98 -7.9,3.3 l 1.32,-0.99 c -2.31,0.66 -5.28,1.64 -8.24,2.63 -2.97,1.32 -5.6,2.64 -7.91,3.63 -0.98,0.98 -3.62,2.3 -1.97,1.97 -7.58,2.31 -13.84,6.26 -19.77,10.21 -5.93,4.28 -10.87,8.9 -17.13,12.19 1.32,-0.99 2.97,-2.64 1.65,-1.98 -2.96,2.64 -5.93,5.27 -8.89,7.91 1.31,0 1.31,-0.66 3.62,-1.65 -0.99,1.32 -3.29,3.62 -5.27,5.6 3.62,-3.95 -0.99,-0.99 -2.97,0.33 0.33,0 0,0.66 0.33,0.66 -5.27,2.96 0.33,1.65 -6.58,6.92 v -0.66 c -1.98,2.3 -3.63,4.94 -5.6,7.57 -1.65,0.66 1.64,-2.96 1.31,-3.62 -2.96,3.95 -3.95,8.89 -7.57,11.2 0.66,-0.66 1.31,-1.65 1.97,-2.64 0.66,-0.98 1.32,-1.97 1.98,-2.96 -3.62,2.96 -3.95,3.29 -6.26,5.93 l 0.33,-0.33 -2.96,2.63 -0.66,0.66 -0.33,0.33 -0.33,0.33 -0.66,0.66 0.99,-0.66 c 0,0.66 -0.33,0.99 -0.66,1.65 0,0.33 -0.33,0.66 -0.66,0.66 -0.33,0 -0.66,0 -0.66,-0.33 -0.99,-0.33 -2.31,-0.66 -3.95,-1.32 -2.97,-0.99 -6.59,-2.31 -10.54,-2.31 7.9,0.33 1.31,-0.65 2.3,-1.31 -1.97,-0.66 -4.94,-1.65 -3.95,-1.65 -2.64,0 -4.61,-0.66 -7.25,-0.99 h -0.33 c -0.99,0 -2.96,0 -4.61,0.33 -0.33,-0.33 -3.95,0 -3.29,-0.66 -4.94,0.33 1.31,0.66 0.66,0.99 -3.96,0.66 -8.24,0.66 -13.18,0.99 -2.31,0 -4.94,0.33 -7.58,0.99 -1.32,0.33 -2.63,0.66 -3.95,0.98 -1.32,0.33 -2.31,0.66 -3.62,0.99 -1.32,0.33 -3.63,0.66 -4.62,1.32 -3.29,2.31 -2.96,5.6 -3.62,7.25 -0.33,1.97 -1.32,4.28 -2.96,7.57 -1.98,2.31 0.33,-2.63 0.33,-2.63 -2.64,3.62 -4.62,6.91 -5.93,11.2 0,-0.99 -0.66,-0.33 -1.32,0.98 -1.32,3.63 0.33,2.64 -1.65,6.92 0,-0.99 -0.33,-1.98 0,-3.95 -0.99,4.28 -1.65,8.56 -2.3,12.84 -0.66,0.99 -0.33,-2.63 -0.33,-4.28 -0.99,4.94 -1.98,12.85 -1.32,14.16 l 0.66,-2.96 c -0.33,1.65 -0.99,0.66 -0.99,-0.66 0,-4.28 1.32,-5.93 1.65,-6.26 l -0.33,2.97 c 2.3,-2.64 2.3,-12.19 4.61,-18.12 0,0.99 0.33,1.98 0.33,2.97 0.33,-1.98 0.66,-4.29 1.32,-6.26 0.98,-0.99 1.97,-1.65 0.98,1.32 2.31,-3.63 1.32,-3.63 3.63,-6.92 0.33,-0.33 0.33,0 0,0.33 l 1.97,-3.95 c -0.33,0.98 1.32,0 -0.33,1.97 2.31,-2.96 3.63,-5.93 3.96,-8.56 0.33,-2.31 1.31,-3.62 2.63,-3.95 0.33,0 0.33,0 0.66,0 l -0.33,0.33 c 0.99,-0.66 1.65,-0.66 2.31,-0.66 0.66,0 1.32,-0.33 1.64,-0.33 0.66,-0.33 0.66,-0.33 0.66,-0.66 0,-0.33 -0.66,-0.66 3.3,-1.98 1.97,0.33 3.95,0.99 5.93,1.32 l 0.99,-1.32 c 0.98,0 3.29,-0.33 2.96,0 3.95,-1.31 -0.66,-0.33 1.65,-1.32 5.27,0 14.82,-1.64 16.14,0.33 1.97,-0.65 -5.27,-0.65 0.66,-0.98 0.66,0.66 1.31,0.66 2.63,0.98 2.31,0 5.6,0 8.57,0.99 -1.65,0.66 -5.93,-0.66 -1.32,0.99 3.29,-0.99 8.89,2.64 12.85,3.62 0,-0.33 0.66,-0.33 1.97,0 0.66,0 1.32,0.33 1.98,0.66 0.33,0 0.66,0.33 0.99,0.33 0.33,0.33 0.33,0 0.66,-0.33 l 0.33,-0.66 c 1.31,-1.31 2.63,-2.63 3.95,-4.28 1.32,-1.32 2.63,-2.63 3.62,-4.28 0,0.33 2.64,-1.98 4.94,-5.27 1.32,-1.65 2.64,-3.29 3.96,-4.94 1.31,-1.65 2.96,-2.96 4.28,-3.95 v 0.33 c 0,-1.65 4.94,-5.93 8.56,-9.56 0.33,0.66 0,1.32 -1.97,3.3 l 3.29,-2.97 c 0.66,-0.98 1.65,-1.97 3.63,-3.95 l -0.33,1.32 c 4.61,-3.95 8.89,-8.56 15.48,-12.52 0,-0.99 -6.59,1.65 0,-3.62 0.66,0.33 1.32,0.66 -0.33,1.98 0.66,-0.33 1.98,-1.65 3.29,-2.31 l -2.3,2.64 c 2.96,-1.65 1.31,-1.65 3.62,-2.97 0.33,0.66 1.98,-0.66 1.98,0 -0.66,0.33 -2.31,0.99 -2.97,1.98 2.64,-1.65 6.26,-3.3 7.58,-3.3 -0.33,-0.33 -0.33,-0.66 1.65,-1.97 5.27,-2.97 2.3,-0.33 5.6,-1.65 0.98,-0.99 4.61,-2.31 4.28,-3.29 1.65,-0.66 1.97,-0.66 2.96,-0.66 2.64,-1.98 13.18,-6.26 9.56,-5.6 l -0.66,0.33 c 0,0 0.33,0 0.33,-0.33 2.3,-1.32 4.61,-1.98 7.24,-2.97 2.31,-0.98 4.95,-1.97 7.58,-2.3 2.64,-0.66 5.27,-0.66 7.91,-1.32 2.63,-0.66 4.94,-1.32 7.57,-1.98 v 0.33 c 5.93,-1.64 13.18,-2.3 17.46,-3.29 1.65,0 4.28,0.33 3.63,0.66 4.61,-0.33 5.27,-0.66 11.85,0 -4.61,0.33 1.65,0.66 -4.94,0.33 5.93,0.33 7.25,0.99 13.84,0.33 -1.32,0.33 0,0.66 1.65,0.99 1.64,0.33 3.95,0.65 5.6,0.65 l -4.29,-0.98 c 1.65,0 2.97,0.33 4.61,0.33 0.66,0 1.65,0 2.31,0.33 h 1.98 c -0.33,0.32 -0.99,0.65 -1.65,0.98 1.65,0 2.31,0.33 3.62,0.66 0.99,0.33 2.64,0.99 3.96,0.99 2.63,0.66 5.27,0.99 7.24,1.98 2.64,0.98 5.27,1.64 7.25,2.63 0.99,0.33 1.65,0.99 3.3,1.65 1.31,0.66 2.3,1.32 3.29,1.97 1.65,0.33 0.33,-0.32 -1.65,-1.31 -1.64,-0.66 -3.29,-1.98 -1.64,-1.65 2.96,1.32 5.6,2.64 7.24,3.95 1.65,1.32 2.97,2.64 3.63,3.3 2.96,2.3 4.61,3.29 6.25,3.95 1.65,0.99 3.63,1.65 6.26,4.61 -0.66,-0.99 -0.66,-2.31 4.29,1.32 3.95,3.95 3.95,5.93 0.98,3.62 -0.98,-0.99 -1.31,-1.32 -1.31,-1.65 -1.32,-0.98 -3.3,-2.63 -1.98,-0.65 l 0.66,0.32 c 1.98,1.98 7.25,7.58 5.6,6.92 3.29,2.97 1.65,0.99 -0.33,-1.65 4.61,5.6 7.58,8.24 11.86,14.5 -0.66,-0.99 -0.99,-2.31 0,-1.32 2.96,4.61 3.62,5.27 4.28,5.93 0.66,0.66 0.99,0.66 2.97,3.62 0.65,1.65 0.32,1.65 0.32,1.98 0,0 -0.32,0 0,0.33 0,0 0,0.33 0.33,0.66 0.33,0.33 0.33,0.65 0.66,1.31 l -0.33,-0.33 c 0.33,0.33 0.66,0.99 0.99,1.65 1.32,4.28 -0.66,1.32 -1.65,-0.33 1.65,2.97 2.64,5.93 3.3,8.56 0.66,2.64 0.99,4.95 1.65,6.92 -0.33,-0.99 -0.99,-2.3 -1.32,-3.29 0.66,1.97 1.32,3.62 1.65,5.27 l 0.32,-1.98 c 0.33,1.98 0.99,3.62 0.66,3.62 0.99,1.98 0.99,-1.97 2.64,1.98 0.33,2.64 1.98,8.24 0.99,9.22 -0.99,-8.56 -0.66,0.99 -2.31,-5.92 0.33,1.31 0.66,2.96 0.99,4.94 0,0.33 -0.33,-0.33 -0.33,-0.66 0,4.28 0.66,4.94 0.99,5.93 0.33,0.98 1.32,1.97 1.32,6.25 -0.66,-0.98 -0.99,1.98 -0.99,3.3 0,-3.3 0.99,-1.65 1.32,1.64 -0.66,5.6 0.32,5.93 0,8.9 0.32,-0.99 0.32,-2.31 0.32,-3.3 0.66,1.32 0.33,3.96 0,7.91 -0.32,0.33 0,-3.62 -0.32,-2.31 0.32,2.31 -0.33,4.61 -0.99,7.25 -0.99,2.63 -1.65,5.27 -2.31,8.23 -1.32,2.64 -0.99,0 -1.98,2.31 0,0.33 -0.32,0.99 -0.32,1.32 l 0.32,-0.99 c -0.32,0.33 -0.32,0.66 -0.32,0.99 v 0.33 0.33 c 0,0.32 -0.33,0.65 -0.33,0.65 -0.33,0.66 -0.33,0.99 -0.66,1.32 -0.33,0.99 -0.66,1.65 -1.32,2.31 -0.99,1.64 -1.65,2.96 -2.97,6.26 1.65,-1.32 1.65,-1.98 0,2.96 1.65,-3.62 2.97,-7.25 4.29,-10.87 -0.66,2.31 -1.32,4.94 -1.98,7.25 1.65,-3.3 2.64,-6.92 3.29,-8.9 -0.65,3.63 -0.65,3.3 0.33,1.65 -2.96,3.95 -3.29,9.22 -6.58,13.83 l -1.65,-0.98 c -2.31,3.29 -3.95,6.58 -6.26,9.88 -1.98,3.29 -4.28,6.91 -8.24,10.54 l 2.64,-2.31 c -0.33,1.65 -4.28,4.94 -6.92,7.25 -0.33,-0.66 -1.97,0.66 -3.29,0.99 0.33,0 -1.32,1.31 -2.97,2.63 -1.64,1.32 -3.29,2.64 -3.62,3.29 -1.65,0.66 -2.96,0.99 -4.61,1.65 -3.63,1.65 -6.26,2.64 -8.24,3.95 -0.99,0.66 -2.3,1.32 -3.62,2.31 -1.32,0.66 -2.64,1.32 -4.61,2.31 1.97,-1.65 -1.65,-0.66 3.29,-3.3 -2.63,0.99 -4.94,1.98 -4.94,2.31 -1.65,0.33 -6.92,3.62 -9.55,3.62 -0.99,0.66 -1.32,1.32 -4.29,2.31 -0.32,0 0,-0.33 0,-0.33 0,0.33 -4.61,1.64 -1.97,1.64 -8.9,0.33 -24.05,4.94 -31.95,3.96 -1.32,0.33 -2.97,0.33 -4.29,0.65 l -2.3,0.33 h -0.99 -0.66 -0.33 v 1.98 -1.98 c -3.95,0.33 -7.58,0.66 -10.54,0.99 0.33,-0.33 0,-0.33 0.99,-0.33 -7.91,0 -4.61,2.31 -13.51,2.31 -4.61,-0.66 4.61,-0.99 1.98,-0.99 -1.32,-1.98 -10.87,0.99 -16.8,0.33 l 1.32,-0.33 c -4.62,-0.33 -11.2,1.65 -18.45,1.98 0,0 0.33,-0.33 0,-0.33 -4.94,1.31 -14.83,2.63 -21.74,3.29 2.3,-0.99 3.29,-0.66 1.97,-1.32 -3.29,0.33 0.99,1.32 -5.27,1.65 -1.97,-0.33 -6.59,-0.66 -7.24,-1.65 h 5.93 c -2.97,-0.98 -7.91,0 -11.2,0 l 0.32,-0.66 c -9.22,0 -9.55,1.32 -19.43,0.99 l 0.99,0.33 c -5.6,0.99 -4.61,-0.99 -9.88,0 l -1.65,-1.32 c -3.63,0 -12.52,0.66 -19.11,0.33 3.63,-0.65 11.2,-0.65 16.14,-0.98 -3.62,-0.33 -12.18,-0.66 -13.83,0 1.32,0 3.29,-0.33 4.61,0 -4.28,0.65 -10.21,0.98 -17.46,0 1.65,-2.31 -18.45,-2.64 -23.39,-4.94 -12.84,0 -25.03,-1.98 -39.53,-2.97 4.94,2.31 -4.28,-0.33 -3.62,1.98 -3.29,0 -4.61,-0.33 -4.94,-0.33 l -10.21,-2.31 c -2.31,-0.99 3.29,0 2.96,-0.66 -7.25,-0.98 -2.96,-1.31 -7.58,-2.3 0.99,0.66 -2.63,0.99 -6.91,-0.33 1.97,0.66 3.62,1.32 5.6,1.65 -5.27,0 -7.25,-0.99 -9.56,-1.98 -1.97,-0.99 -4.28,-1.65 -9.22,-2.64 l 3.29,0.33 c -5.27,-0.66 -19.1,-5.27 -24.37,-5.27 -0.66,-0.66 -1.65,-1.31 0.33,-0.98 -5.93,-1.98 -12.52,-4.29 -18.12,-7.25 -5.6,-2.97 -10.87,-6.92 -13.51,-10.87 l 0.99,0.33 c -1.65,-1.65 -3.29,-2.31 -3.95,-4.94 0.33,0 0.99,0.33 0.33,-0.33 -0.33,-0.33 -0.99,-1.32 -1.65,-2.64 -0.66,-1.31 -0.66,-2.96 -0.66,-4.61 0.33,0.99 0.33,1.65 0.66,2.31 0,-2.64 0.33,-5.27 0.33,-8.24 0,-1.31 0,-2.3 0,-3.62 0,-0.99 0,-2.3 0,-3.29 0,-2.31 0,-4.61 -0.33,-7.25 0,-0.99 -0.33,-2.3 -0.33,-3.29 0,-0.66 0,-0.99 0,-1.65 0,-0.66 0.33,-0.99 0.33,-1.65 1.98,0.33 2.97,-10.54 3.3,-15.48 h 0.32 c 0,-3.29 0.66,-6.58 0.66,-9.55 0.33,-3.29 0.66,-6.26 0.99,-9.22 0.66,-5.93 1.32,-11.86 2.31,-18.78 3.29,-7.9 6.92,-27.66 11.53,-40.51 -0.66,1.98 -0.99,-0.66 -0.66,-2.96 0.99,-2.97 1.32,-8.9 2.63,-7.91 l -0.33,0.99 c 1.98,-1.98 3.3,-8.23 4.95,-13.17 l -1.32,-1.32 c 2.96,-5.93 5.6,-14.17 8.23,-21.74 2.64,-7.58 5.27,-14.16 7.58,-17.13 0.66,-3.29 2.31,-6.92 2.96,-10.21 l 0.66,0.33 c 1.65,-4.28 2.97,-7.25 3.96,-10.87 1.31,-3.62 1.97,-6.92 3.95,-12.19 l -0.33,2.31 c 2.31,-5.6 0.33,-8.23 2.63,-13.5 l 1.98,-0.99 c 4.61,-9.88 10.87,-18.78 15.48,-28.33 0,0.33 0.33,0.66 -0.65,2.31 2.63,-4.29 11.52,-15.81 8.89,-15.15 0.99,0.65 6.92,-8.9 9.55,-14.5 l 0.33,1.32 c 1.65,-4.94 1.32,-5.6 4.61,-11.2 0.99,-1.32 1.32,-0.66 0,0.99 1.65,-1.98 1.98,-2.96 2.64,-3.95 0.33,-0.99 1.32,-2.31 3.62,-4.28 l -1.32,2.3 c 3.63,-3.95 3.3,-3.95 4.95,-6.59 2.3,-2.63 8.23,-6.58 9.55,-6.58 0.33,-0.99 2.3,-3.3 4.94,-5.27 0.66,0 -0.33,0.98 -0.66,1.31 7.91,-5.27 10.21,-9.55 16.14,-12.51 0.33,0 0.66,0 1.32,-0.33 -5.93,4.61 -10.87,8.23 -10.21,7.57 0.66,0.66 5.27,-2.96 2.3,0.99 3.3,-3.62 9.23,-9.55 14.17,-12.84 0.33,0 0.66,-0.33 0.66,-0.33 l -0.33,0.33 c 0.99,-0.66 1.97,-1.65 2.96,-2.31 1.65,-0.99 2.64,-1.65 3.96,-2.63 0.98,0.33 5.93,-3.63 8.23,-4.94 -0.66,-0.66 2.64,-2.64 -0.99,-1.32 0.33,-0.33 -0.33,0.33 -1.97,1.64 -0.33,0.33 -0.66,0.66 -0.99,0.66 0,0 0,0 0,-0.33 -1.65,0.99 -3.63,2.64 -6.26,4.29 1.65,-1.65 3.62,-3.63 6.59,-4.94 0.99,-1.32 1.97,-2.64 2.63,-3.63 4.29,-1.32 11.2,-4.61 12.52,-4.28 3.95,-2.31 8.57,-4.94 12.85,-6.92 4.28,-1.97 8.56,-3.62 11.2,-4.94 2.3,-0.66 2.96,0 3.95,0.33 -1.32,0.33 -2.96,0.66 -3.62,0.99 2.3,-0.66 5.93,-1.32 9.22,-1.32 3.3,0 5.6,0.33 6.59,0 2.96,1.32 1.98,1.32 1.32,1.32 -0.33,0 -0.66,0 -0.33,0 0.33,0.33 1.32,0.33 2.96,1.32 h -0.99 c 1.98,0.99 2.97,1.97 3.96,3.29 1.31,1.32 2.3,2.64 3.29,4.28 1.98,2.97 4.28,5.93 6.26,9.23 3.95,6.25 7.91,12.84 11.2,22.39 -0.33,-1.31 -0.66,-1.97 -0.66,-2.3 2.31,5.27 4.61,10.21 6.92,15.48 0.99,2.63 2.3,5.27 2.96,7.9 0.66,2.64 1.32,5.27 0.99,7.58 -0.66,1.98 -2.3,4.28 -4.61,5.6 -2.31,1.65 -4.61,2.63 -7.25,3.29 -5.27,1.65 -10.87,1.98 -16.14,1.98 -6.26,-0.33 -6.92,0.33 -10.54,0.66 l -1.32,-0.99 c -2.3,0 -4.28,0.33 -6.59,0 -4.61,-0.33 -8.23,-2.31 -11.85,-4.28 -3.63,-2.31 -7.25,-4.61 -10.87,-8.24 l 0.32,1.65 c -1.31,-1.65 -2.63,-4.28 -2.96,-6.92 -0.33,-2.63 0,-4.61 0.33,-3.95 0,-0.33 -0.66,-1.32 0.33,-2.63 h 0.66 c 0.66,-2.97 2.3,-5.6 4.94,-7.58 1.65,-0.99 2.63,-0.99 2.96,-0.66 0.33,0 0.33,0.33 0.66,0.66 0.33,0.66 0.66,0.33 5.93,0.33 1.98,0 4.61,0 6.92,0 2.31,0 3.95,0.33 3.29,0 -1.64,-0.66 -3.95,-1.65 -4.28,-1.98 1.32,0.33 2.64,0.33 3.95,0.66 0.66,-0.66 1.65,-0.99 1.65,-1.97 0,-0.66 -1.65,-2.31 -6.92,-3.63 -2.63,0 -5.27,0 -7.57,0.66 -0.99,-0.33 -1.65,-0.33 -2.64,-0.33 2.31,-0.33 4.28,-0.66 6.59,-0.66 -3.62,-0.66 -6.26,0.33 -8.56,1.32 -0.66,0 -1.98,0 -3.63,0.66 -2.3,1.65 -4.28,3.95 -5.6,6.59 -0.99,0.66 1.32,-3.96 -2.3,0.66 -0.66,1.97 0,1.31 0.65,0.98 0.66,-0.33 0.66,-0.66 0,2.31 -0.98,1.65 -1.31,2.3 -1.64,2.96 -0.33,0.66 -0.33,1.65 0,3.96 -0.33,0.65 -0.66,-0.33 -0.66,-2.31 0,1.98 0.33,4.94 0.99,7.25 0.66,2.3 1.97,4.28 2.96,4.94 0.66,1.97 3.3,4.61 5.27,6.26 2.31,1.64 3.96,2.63 3.63,3.29 1.31,0.33 6.25,1.98 9.55,2.63 -3.3,-0.33 -0.33,0.99 3.29,1.98 3.63,0.99 7.58,1.65 6.92,2.31 2.31,-0.33 6.26,0 10.87,0 4.61,0 9.22,0 13.18,-0.99 -0.33,0.33 -1.32,0.66 -1.98,0.66 4.61,-0.33 5.93,-0.33 8.9,-0.66 0.32,-1.32 7.24,-3.63 10.21,-6.26 2.63,-0.99 2.3,-0.33 1.31,0.99 -0.98,0.99 -2.63,2.3 -1.31,2.3 -0.33,-0.33 1.97,-1.64 3.62,-3.62 1.98,-1.65 3.29,-3.95 1.98,-3.29 0.99,-0.66 1.64,-1.65 1.97,-1.98 0.33,-0.66 0.66,-0.99 0.99,-1.32 0.33,-0.66 0.66,-1.31 1.65,-2.63 -0.66,-0.66 -0.66,-1.98 -0.66,-3.3 0,-1.64 -0.33,-3.29 -1.32,-4.94 -0.33,-2.96 -0.33,-3.62 -0.33,-3.95 0,-0.66 0,-0.99 -1.64,-3.95 -0.33,-1.65 0,-0.99 0.65,0 1.98,2.3 2.97,3.62 2.97,3.62 z m -114.64,-30.63 c 0.99,-0.66 1.98,-1.32 2.64,-1.98 -0.99,0.66 -1.65,1.32 -2.64,1.98 z m -10.21,7.9 c 1.32,-0.98 2.64,-1.97 4.28,-3.29 0.66,0 0.33,0.66 -0.65,1.32 0.32,-0.66 -1.98,0.99 -3.63,1.97 z m 25.37,-10.54 c -1.65,1.32 -2.31,1.32 -2.64,1.32 0.66,-0.66 1.65,-1.32 2.64,-1.97 0,0 0,0 0,-0.33 0.33,0.33 0,0.66 0,0.98 z"
         fill="#6b4f94"
         id="path3432" />
      <path
         d="m 1403.3,2278.28 c 0.33,-0.33 0.33,-0.33 0.66,-0.66 -0.33,0.33 -0.66,0.33 -0.66,0.66 -0.33,0 -0.66,0 -0.66,0.33 0,0 0.33,-0.33 0.66,-0.33 z"
         fill="#6b4f94"
         id="path3434" />
      <path
         d="m 1514.32,2469.97 c 0.32,-0.32 0,0 0,0 z"
         fill="#6b4f94"
         id="path3436" />
      <path
         d="m 1280.43,2436.71 h 0.33 v -1.32 z"
         fill="#6b4f94"
         id="path3438" />
      <path
         d="m 1454.36,2504.89 c 0,0 -0.33,0 -0.99,0.33 0.33,0 0.66,0 0.99,-0.33 z"
         fill="#6b4f94"
         id="path3440" />
      <path
         d="m 1433.94,2527.29 -2.97,2.96 c 1.32,-1.32 2.31,-2.3 2.97,-2.96 z"
         fill="#6b4f94"
         id="path3442" />
      <path
         d="m 1416.48,2527.95 c -0.33,0 -0.33,0.32 -0.66,0.32 z"
         fill="#6b4f94"
         id="path3444" />
      <path
         d="m 1643.77,2478.21 c 0.99,0.66 1.98,1.32 2.97,1.98 -1.32,-1.32 -2.64,-2.31 -2.97,-1.98 z"
         fill="#6b4f94"
         id="path3446" />
      <path
         d="m 1614.46,2665.62 c -0.33,0 -0.33,0 -0.66,0.33 z"
         fill="#6b4f94"
         id="path3448" />
      <path
         d="m 1650.69,2483.48 c -1.32,-1.32 -2.63,-2.63 -3.95,-3.29 1.32,0.98 2.63,2.3 3.95,3.29 z"
         fill="#6b4f94"
         id="path3450" />
      <path
         d="m 1344.34,2577.35 -0.33,0.99 z"
         fill="#6b4f94"
         id="path3452" />
      <path
         d="m 1358.83,2539.47 c -0.99,1.65 -3.29,4.29 -4.61,7.25 v 0.33 c 0.33,-1.65 4.28,-5.6 4.61,-7.58 z"
         fill="#6b4f94"
         id="path3454" />
      <path
         d="m 1394.74,2529.92 c -2.64,0 -5.27,0 -7.58,0.33 1.32,0.33 3.3,0.66 -0.33,0.99 9.55,0.33 -1.97,-0.66 7.91,-1.32 z"
         fill="#6b4f94"
         id="path3456" />
      <path
         d="m 1418.13,2532.89 c -3.96,-0.99 0,0.65 -0.33,0.65 2.3,0.66 2.96,0.66 0.33,-0.65 z"
         fill="#6b4f94"
         id="path3458" />
      <path
         d="m 1567.02,2459.44 -0.33,0.98 c 3.3,-0.33 0,-0.33 0.33,-0.98 z"
         fill="#6b4f94"
         id="path3460" />
      <path
         d="m 1600.95,2456.8 c -0.99,-0.33 -2.31,-0.66 -3.62,-0.99 -0.33,0.33 -0.99,0.33 -1.32,0.66 1.32,0.33 2.96,0 4.94,0.33 z"
         fill="#6b4f94"
         id="path3462" />
      <path
         d="m 1617.75,2468.99 -1.32,-0.33 c 1.65,0.66 3.3,0.99 4.62,1.65 -1.32,-0.33 -2.31,-0.66 -3.3,-1.32 z"
         fill="#6b4f94"
         id="path3464" />
      <path
         d="m 1579.21,2664.64 0.99,0.98 c 2.3,-0.66 2.63,-1.97 -0.99,-0.98 z"
         fill="#6b4f94"
         id="path3466" />
      <path
         d="m 1453.04,2672.54 c -1.31,-0.66 -4.94,-0.99 -7.24,-0.66 2.96,0.33 5.93,0.66 7.24,0.66 z"
         fill="#6b4f94"
         id="path3468" />
      <path
         d="m 1276.15,2470.63 -0.33,2.64 1.32,-4.61 z"
         fill="#6b4f94"
         id="path3470" />
      <path
         d="m 1386.5,2370.18 c -0.33,-0.33 -0.99,-0.33 -0.99,0 l 0.99,0.65 z"
         fill="#6b4f94"
         id="path3472" />
      <path
         d="m 1383.87,2372.15 c 0.33,0.66 1.31,1.32 2.3,1.32 -0.99,-0.66 -0.33,-0.66 -1.64,-1.32 0,-0.33 0.65,-0.66 0.98,-0.33 -0.33,-0.33 0.33,-0.66 -0.33,-0.99 -0.98,0.33 -0.98,0.99 -0.65,1.65 -0.33,0 -0.66,-0.33 -0.66,-0.33 z"
         fill="#6b4f94"
         id="path3474" />
      <path
         d="m 1375.63,2407.39 -0.33,0.66 c 0.33,0 0.33,-0.33 0.33,-0.66 z"
         fill="#6b4f94"
         id="path3476" />
      <path
         d="m 1385.18,2377.75 c 0,0 0,-0.33 -0.32,-0.33 0,0 0,0 0.32,0.33 z"
         fill="#6b4f94"
         id="path3478" />
      <path
         d="m 1375.63,2397.18 c 0,-0.33 -0.33,-0.33 -0.33,-0.33 z"
         fill="#6b4f94"
         id="path3480" />
      <path
         d="m 1376.95,2389.94 c 0,0 0.66,0.33 1.32,0.66 -0.33,-0.33 -0.66,-0.33 -0.66,-0.66 -0.33,0 -0.33,0 -0.66,0 z"
         fill="#6b4f94"
         id="path3482" />
      <path
         d="m 1344.01,2615.56 h -0.33 l -0.33,-0.33 z"
         fill="#6b4f94"
         id="path3484" />
      <path
         d="m 1372.01,2503.24 c 0.99,-0.33 0.66,1.32 1.97,0.66 -0.32,-0.33 -1.31,-1.32 -1.97,-0.66 z"
         fill="#6b4f94"
         id="path3486" />
      <path
         d="m 1376.29,2462.4 c 0,0 -0.33,0.33 0,0 0,0.33 0,0.33 0,0 z"
         fill="#6b4f94"
         id="path3488" />
      <path
         d="m 1348.62,2587.23 c -0.33,0 -0.66,0.33 -0.99,0.33 0.99,0 1.32,0.66 0.99,-0.33 z"
         fill="#6b4f94"
         id="path3490" />
      <path
         d="m 1384.53,2377.42 c 0.33,0 0.33,0.33 0.33,0.33 v -0.33 c 0,0 0,0 -0.33,0 z"
         fill="#6b4f94"
         id="path3492" />
      <path
         d="m 1383.54,2467.01 c -0.33,0.33 -0.66,0.33 -0.66,0.66 0,0 0,0 0.33,0 z"
         fill="#6b4f94"
         id="path3494" />
      <path
         d="m 1350.27,2594.15 c 0,-0.99 -1.32,-0.33 -1.98,-0.66 -0.33,-1.32 0.99,-0.66 1.65,-0.99 -0.33,-0.66 -1.65,-1.31 -1.32,-1.64 0.33,0 0.33,0 0.66,0 -0.99,-0.66 0,-2.31 -1.32,-2.97 h 0.33 c -0.66,0 -1.32,0 -1.65,0 0,-0.33 -0.66,-0.66 0,-0.99 0,0.33 0.33,0.33 0.66,0.33 l -0.33,-0.33 c 1.32,-0.33 0.33,0.66 1.32,0.66 -0.33,-0.66 -1.32,-1.97 -0.66,-2.3 0.99,0 0.33,1.31 1.32,0.66 -0.33,0.32 -0.33,0.65 -0.66,0.98 1.98,-0.66 0,0.66 1.65,0 0.33,-0.98 -0.33,-0.98 0,-2.3 -0.66,-0.33 -0.99,0 -1.32,-0.66 -0.66,-2.31 2.96,-0.99 1.98,-2.64 -0.66,-0.65 -1.98,-0.98 -0.99,-1.97 l 1.32,0.66 c 0.33,-1.32 -1.65,-1.32 -0.33,-2.31 0.33,0.33 0.33,0.99 0.33,0.99 1.31,-0.66 -0.66,-0.66 -0.33,-1.65 h 0.98 c 0,-1.32 -0.32,-3.29 -0.32,-4.94 0.32,0 0.65,0.66 0.98,0.33 0,-1.98 1.32,-3.62 2.64,-5.27 l -0.66,-0.99 h 0.66 c 0.66,-0.66 -0.66,-0.33 -0.66,-0.66 0,-0.33 0.66,-0.33 0.99,0 -0.33,-1.64 -0.33,-4.28 1.32,-5.27 l 0.33,0.33 c 0.65,-0.98 -1.32,-1.97 -0.33,-2.63 v 0.33 c 1.31,-1.98 1.31,-4.94 3.29,-5.6 -0.99,-0.99 1.65,-1.65 0,-2.64 1.65,-0.98 1.65,-0.33 3.29,-2.3 0.33,-0.66 -0.98,-0.99 -0.98,-1.65 l 0.98,0.33 c -0.33,-0.33 -0.33,-0.66 -0.65,-0.99 h 1.31 v -0.66 c 0,0 -0.66,0.33 -0.99,0 0,-0.98 1.65,-1.64 1.98,-1.31 0,-0.66 0,-1.32 0.33,-2.31 0.33,0.33 0.33,0.66 0.33,0.99 -0.33,-1.32 0.99,0.33 0.66,-0.99 -0.33,0 -0.33,-0.33 -0.66,-0.66 0.66,0 1.32,-0.99 1.65,-1.97 l 0.33,0.65 c 0.98,-1.31 1.64,-2.96 2.63,-4.28 -0.66,0.33 -1.65,-0.33 -1.32,-0.99 l 0.99,0.33 c -0.33,-0.66 -0.66,0.33 -0.99,-0.98 0.66,-0.33 1.32,0.32 1.32,0.98 l 0.33,-0.98 c 0.33,0 0.33,0.32 0.66,0.65 -0.33,-0.65 1.65,-0.65 0.99,-1.64 h 0.33 c 0.99,-1.65 1.32,-2.64 1.97,-3.96 -0.65,-0.65 -0.33,-0.98 -0.65,-1.64 0.65,-0.66 2.3,-1.65 2.63,-3.3 0,-1.31 -0.66,-0.65 -0.99,-1.31 0.99,0.33 1.32,-1.32 1.65,-0.33 0.33,-1.98 0.33,-2.31 0,-4.61 -0.33,0.33 -0.66,0.33 -0.99,0.33 0,-0.33 0.33,-0.66 0.99,-0.66 -0.33,-1.32 0.33,-2.64 0.99,-3.63 0.66,-0.98 1.32,-1.64 0.66,-2.63 -0.33,-0.66 -0.33,-1.32 -0.33,-1.98 0.33,-0.66 0.33,0.66 0.99,0.33 -0.99,-2.3 0.98,-2.96 0.65,-4.94 1.32,-0.33 1.65,-1.65 1.65,-3.29 0,-1.32 0,-2.31 0.66,-3.3 h -0.66 c -0.66,-0.33 0.33,-0.66 0.66,-0.66 -0.33,0 -0.66,0.33 -0.99,0 0,-1.97 0.33,-3.62 0.99,-5.59 l 0.99,-2.97 c 0.33,-0.99 0.66,-1.65 0.99,-3.29 0.33,-1.65 -2.97,-0.99 -1.65,-2.97 l 0.99,0.33 c -0.66,-1.32 -0.66,-2.96 -0.66,-3.62 0,-0.99 0.66,-2.31 0.33,-3.95 0.33,0.33 0.66,0.33 0.33,0.66 0.99,-0.33 0.33,-2.64 -0.33,-2.64 0,-0.33 0.66,0 0.99,-0.33 0.33,-0.66 -0.99,-1.65 -0.33,-1.65 l 0.33,0.33 c -0.33,-0.33 0,-1.64 -0.66,-1.31 0.33,-0.99 -0.33,-1.98 0,-2.97 -0.99,-0.66 0.33,-1.65 -0.99,-1.97 1.65,0 1.32,-1.98 0.66,-2.64 0.33,0.33 0.33,-0.66 0.99,-0.33 0,-0.66 -0.33,-1.32 -0.99,-1.32 1.65,-1.31 -1.32,-2.96 0.99,-3.62 -0.66,-2.3 -1.32,-4.28 -1.65,-6.26 1.65,0 0,2.31 1.65,2.31 -0.66,-1.98 -1.98,-2.97 -1.65,-4.94 0.33,-0.33 0.66,0.33 0.99,0.33 -0.66,-1.98 0,-3.63 -0.66,-5.27 l 0.33,0.33 c 0,-0.33 0.33,-0.66 -0.33,-0.66 l 0.33,0.33 c -0.99,0.66 -1.98,-1.32 -2.64,-1.32 1.98,0.66 0.33,-1.65 2.97,-0.66 0,-0.33 -0.33,-0.66 -0.99,-0.33 0,-0.33 0.33,-0.33 0.99,0 -0.33,-1.32 -0.99,-0.66 -0.99,-1.97 0.33,0 0.33,0.32 0.99,0.32 -0.66,-0.65 -1.32,-0.98 -0.99,-1.97 0.33,0 0.33,0 0.33,0.33 0,-1.65 -1.65,-2.64 -0.99,-4.61 1.32,0.66 0.33,-0.66 1.65,-0.99 l -0.33,-0.99 -0.66,0.66 c 0,-0.99 -0.99,-1.65 -0.99,-2.31 l 0.66,0.66 -0.66,-1.64 -0.33,0.98 c -0.66,-0.66 -1.65,0.33 -1.32,-0.66 0.33,0.33 0,-0.98 0.66,-1.31 -0.33,-0.33 -0.99,-0.66 -0.66,-0.99 0.33,0 1.32,0.33 1.65,0.33 -0.99,-0.33 0,-2.31 -0.99,-2.64 0,0 0,0 -0.33,0 h 0.33 c 0.33,0 0.66,0 0.66,0 -0.33,0 -0.66,-0.33 -0.99,-0.33 0.33,-0.33 0.33,-0.65 0.66,-0.65 -0.33,-1.32 -1.32,0.65 -1.32,-0.66 0,0 0.33,0 0.33,0.33 -0.33,-1.65 -1.31,-2.31 -0.98,-3.3 1.31,-0.33 0.33,0.66 1.31,0.33 -0.33,-0.33 -0.33,-1.32 -0.66,-2.3 -0.32,-0.99 -0.32,-1.98 -0.32,-2.97 v 0.33 c -1.65,-0.33 0.98,-1.32 0,-2.3 0,0.32 0.98,0.32 0.65,0.32 0.33,-1.31 -0.65,-2.63 -0.98,-4.28 l 0.33,0.33 c 0,-0.33 0,-0.33 0.32,-0.66 v -0.33 -0.33 h -2.3 0.33 0.99 0.33 c 0.33,0 0,0 0,0 v -0.32 -0.33 c 0,-0.33 0,-0.33 0,-0.66 -0.33,-0.33 -0.33,-0.66 -0.99,-0.33 2.63,-1.98 -0.99,-4.61 1.32,-6.26 0,0.33 0.32,0.66 0.32,0.33 v -1.65 c -0.65,0 -0.32,0 -0.98,0.33 -0.33,-0.33 -0.66,-0.99 -0.66,-1.32 0.33,0.99 1.32,0.33 1.64,0 -0.32,0 -0.32,0 -0.65,0 1.64,-0.65 -1.65,-0.33 -0.33,-1.64 h 0.33 c 0,-0.66 -0.66,-0.99 -0.33,-1.65 0.98,0 0.33,0.66 0.98,0.66 0,-0.66 -1.31,-1.65 -0.32,-2.31 0.32,0.33 0,0.66 0.32,0.99 0.99,-0.33 0.99,-0.66 1.32,-0.99 l 0.66,-0.98 -0.33,0.32 c -1.97,-1.31 0,-1.97 -1.32,-3.29 0.99,1.32 0.66,0.33 1.65,0.66 0.33,-0.33 0.66,-0.66 0.99,-0.33 -0.66,-0.66 0.66,-0.66 0,-1.65 0.33,0 0,-0.66 0.99,-0.33 0,-0.65 -0.66,0 -0.99,0 -0.99,-1.31 1.98,-2.3 0.66,-4.28 -0.33,-1.64 -1.32,-1.97 -1.65,-3.29 0.66,-0.33 0.99,0.66 0.99,0.66 0.66,-0.66 0.66,-0.99 0.33,-1.98 0.33,0.33 0.66,0 0.99,0 0,-0.66 -0.99,-0.66 -0.33,-1.32 0.33,0.33 0.99,0.33 0.99,0.99 0,-0.66 -0.66,-1.32 -0.66,-1.97 0.66,0 0.66,0.65 0.99,0.98 0,-0.66 0,-1.97 -0.99,-2.3 l -0.33,0.33 c 0,-0.33 0.66,0 0.99,0.33 0.65,0.66 -0.66,0.66 -0.99,0.66 v -0.66 c -1.98,0 0,1.97 -0.33,2.63 l -1.32,-0.66 0.99,1.32 c -0.33,0 -1.32,0 -1.32,-0.33 -0.66,0.66 0.33,0.66 -0.66,0.99 h -0.33 l 0.33,0.66 c -0.33,-0.33 -0.99,0 -0.66,-0.33 -0.98,0.99 0.66,1.97 -0.66,2.3 0,1.65 0.99,0.33 1.98,1.98 l -2.63,0.33 0.98,0.33 c 0,0 -0.33,0.33 -0.65,0.33 0.65,0.66 0.32,0 0.98,0.33 -0.98,0.66 0,2.3 -1.64,1.97 0.66,0.33 0.66,-0.65 0.98,0.33 -1.64,0 0,0.99 -0.98,1.65 -0.66,-0.33 -0.33,-0.99 -0.99,-0.33 1.32,0.66 -0.66,1.32 -0.33,1.98 1.32,0.33 0.33,1.31 0.33,2.63 -0.33,0 -0.99,1.98 -1.65,2.64 h -0.33 c 0.99,0.33 0.66,1.31 0.99,2.3 -0.66,0 -0.99,-0.33 -1.32,-0.66 v 0.66 c 0.33,0.33 0.66,0.33 0.66,0.99 l -0.99,-0.33 c 0,0.99 0.66,1.98 0,3.3 0.99,0 2.31,-0.66 2.97,0.65 -0.33,0 -1.32,0 -1.32,-0.33 0,0 0.33,0.33 0,0.66 l -0.66,-0.66 c -0.33,0.66 0.66,0.33 0.66,0.66 -0.66,0 -0.33,0.33 -0.99,0.33 0,0 0.33,-0.33 0,-0.66 0,0.33 -0.66,0.99 -0.99,1.32 0.33,0 0.99,0 0.99,0.33 0,0.99 -0.66,0.33 -1.32,0.66 0.33,0.33 0,0.99 0.99,0.99 0,0.33 -0.33,0.33 -0.66,0.33 0.33,0.66 0,2.3 0.99,1.64 0.99,1.65 -0.33,3.3 0,4.94 h -0.33 c 0.33,0.99 0,1.98 0.66,2.64 0,0.33 -0.66,0.66 -0.99,0.33 0.33,0.66 0.66,0.66 0,1.65 -0.33,-0.66 -0.66,0.33 -0.33,-0.66 -0.33,0.99 -0.98,0.99 0,2.3 -0.66,-0.66 -0.98,0.99 -0.66,1.65 0,-0.33 0.33,-0.66 0.66,-0.99 0,0.66 0,1.32 0.33,1.98 -0.33,0 -0.66,0 -0.99,0 -0.32,1.32 0.33,1.97 0.99,2.3 0.66,0.33 0.99,0.99 0.99,1.32 0,0 -0.33,0.33 -0.66,0.33 0.66,0.33 0.66,-0.66 1.32,-0.33 0,0.33 -0.33,0.66 -0.99,0.66 -0.33,0.33 -0.99,0.66 -0.99,0.66 -0.66,1.97 1.65,1.97 1.32,3.29 0.33,-0.33 1.32,-0.66 1.98,0.33 0,0.99 -1.32,1.32 -1.65,0.99 0,-0.33 0,-0.33 0,-0.33 -0.33,-0.33 -0.33,-0.66 -0.66,0 h 0.33 c -0.33,0.66 0,1.65 -0.66,1.32 0.33,0.66 0.66,0 0.66,-0.33 -0.33,0.99 0.33,1.65 0,2.3 0.33,0 0.66,-0.33 0.66,-0.33 -0.33,1.32 0.66,0.66 0.99,1.65 -0.66,0.66 -1.32,-0.33 -0.99,0.99 -0.33,0.66 -0.99,0 -1.32,0 0.66,0.99 -0.66,1.98 -0.66,2.63 l -0.33,-0.65 c 0.33,0.33 0.33,0.65 0.33,0.98 l 0.66,-0.33 c 0,0.33 0,0.66 -0.33,0.66 0.66,0.33 1.32,-0.33 1.98,0.33 -0.33,0.33 0.33,1.32 -0.66,1.32 0.33,-1.32 -0.99,0 -1.32,-0.99 0,0.33 0,0.33 0,0.66 h -0.33 c -0.98,1.32 1.32,0.66 0.99,1.98 -0.66,-0.33 -0.99,0.33 -0.99,0.66 0,-0.66 0.99,-0.33 1.32,0.33 -0.33,0.98 0.33,0.98 0.33,1.31 l 0.33,-0.66 c 0.66,0.33 0.66,0.66 0.66,1.32 -0.33,0 -0.33,-0.66 -0.66,-0.33 0.99,0.66 -0.99,1.65 -0.33,2.31 -0.33,0.33 -0.99,0 -1.32,0.33 0.66,0.98 -0.66,0.99 -0.33,2.3 0.66,-0.33 0.66,-0.33 1.32,0.33 l -0.66,-1.65 0.99,1.32 c 0,-0.66 -0.66,-0.99 -0.33,-1.32 0.66,0.66 0.33,0.33 0.99,0.33 -1.32,0.66 0.66,1.32 0,2.31 h -1.98 c -0.99,1.32 0.99,2.31 0.66,3.95 l 0.33,-0.66 c 0.66,0.33 0,0.99 0.33,1.65 -0.66,0 -0.99,0.33 -1.32,0.66 0.33,0 0,1.32 1.32,1.32 l -0.99,0.66 c -0.33,1.31 1.98,1.64 1.65,2.96 -0.66,-0.33 -1.32,0.33 -1.65,-0.66 0,0.33 0,0.66 0.33,0.99 -0.33,0.33 0.99,1.32 0.33,1.65 0.33,0.33 0.99,0.33 0.99,0.66 h -0.33 c 0.33,0 0.33,0.65 1.32,0.32 -1.98,1.32 0,3.63 -1.65,4.94 0.33,0.99 0.33,1.98 0.33,2.97 -0.33,0 -0.33,0 -0.33,-0.33 -0.66,1.32 1.98,0.66 1.32,1.98 -0.99,0.66 -0.66,-0.66 -0.99,-0.33 -1.98,0 0.33,1.31 -1.32,1.97 v -0.33 c -0.66,0.33 0.33,1.65 0,2.97 h -0.33 c 0.99,0.99 1.32,2.63 1.65,3.95 -0.99,-0.33 -0.33,-0.33 -1.32,-0.33 0,0.66 1.32,-0.33 1.65,0.66 -0.33,0.33 -0.66,0.99 -1.65,1.32 v -0.99 c -0.99,0.66 0,1.32 0,1.65 h -0.66 c 0.33,1.31 1.65,1.31 1.32,2.63 h 0.33 c 1.32,0.99 -0.66,0.66 0,1.65 h -1.32 c 0.33,0.66 0.99,1.97 0.99,2.96 -0.99,-0.66 -1.32,-1.97 -1.65,-2.63 0,0.66 0,1.97 0.33,2.3 0,-0.33 -0.33,-0.66 0,-0.66 0.99,0.66 1.32,1.65 0.99,2.64 -2.63,-0.33 -0.99,2.63 -2.96,3.29 0.66,1.98 -0.99,3.96 -0.99,5.6 1.98,-0.33 0,0.66 1.98,0.99 0,0.66 0,0.66 -0.33,0.66 l -1.65,0.99 c -0.66,0.33 -0.33,-0.66 -0.66,-0.66 -0.33,0.99 -0.99,0.33 -1.65,0.66 0.66,0 0.99,0.66 0.33,1.31 l 0.99,-0.65 c 0.66,1.64 -1.98,0.98 -1.32,2.63 l -0.33,-0.66 c 0,0.99 -0.98,3.3 0.66,4.61 -0.33,0 -0.99,0.33 -0.99,-0.33 -0.65,2.31 1.32,4.62 0,5.93 l -0.33,-0.33 c 0,0.33 0.66,0.66 0.33,0.99 -0.33,0 -0.33,-0.33 -0.65,0 0,0.33 0.65,0.99 0.32,1.32 l -0.32,-0.33 c -0.99,1.32 0.65,2.63 0.32,3.95 -1.31,-0.66 -2.3,0.33 -2.96,0.66 -1.32,1.65 -0.99,3.62 -1.65,5.6 -1.97,0 -2.96,2.96 -4.94,4.28 0.33,0 0.99,0.66 0.66,0.99 -0.66,0.33 0,1.65 -0.99,0.99 -1.32,-0.33 -1.64,0.66 -1.97,1.32 l 1.31,0.98 c -1.64,0.33 -2.3,1.65 -2.63,2.97 -0.33,1.32 -0.66,2.63 -1.65,2.63 0,0.33 0,0.66 0,0.99 0,0.33 0,0.33 0.33,0.66 l -0.99,-0.33 c -0.66,0.99 -0.99,1.32 -1.64,2.97 l -0.33,-0.66 c -0.66,0.98 1.64,2.3 1.31,3.29 l -1.31,-0.33 c -0.33,0.33 -0.33,0.99 -0.66,1.32 l -0.66,0.99 c -0.33,0.66 -0.66,1.64 -0.33,2.63 -0.33,0 -0.66,-0.33 -0.66,-0.66 -0.33,0.66 -1.98,2.64 0,2.97 -1.32,-0.33 -0.66,1.64 -0.33,2.63 l -0.66,-0.33 c 0.66,0.99 0.99,1.32 0.99,2.31 -0.33,0.33 -0.66,0 -0.33,-0.33 -0.66,0.66 0.66,0.99 -0.33,1.65 l -0.33,-0.66 c -0.33,0.66 0,0.99 0.33,1.64 0,0.66 -0.66,1.32 -1.65,1.32 0.33,0.33 0.99,0.99 0.66,1.32 -0.33,0 -0.33,-0.33 -0.66,-0.33 -0.98,1.32 0.33,2.31 -0.65,3.29 -0.33,0 -0.33,0 -0.66,0 0.33,-1.31 0.66,-1.97 0.66,-1.97 -0.66,-0.33 -1.32,0.66 -1.98,-0.33 0.33,0.99 1.32,2.63 0.66,3.62 h -0.33 c 0,0.33 0,0.33 0,0.66 -0.33,0.33 -0.33,0.33 -0.33,0.66 -0.66,0 -0.66,0.99 -0.66,1.32 0.99,0.33 0.66,0.65 1.65,0.33 0,0 0,0 0,-0.33 0,0 0,0 0,-0.33 0,-0.33 0,-0.66 0.33,-0.99 0.33,0.33 0.66,0.99 0,1.32 0.66,0.33 0.98,0.65 1.31,0.98 -1.31,0.33 -2.3,1.32 -3.29,1.32 0.33,1.65 -0.33,3.3 1.32,4.61 0,0.33 -0.66,0.33 -0.99,0.33 0,-0.33 0,-0.66 -0.33,-0.66 0.33,0.99 -0.33,2.31 0.66,2.64 -0.66,0.99 -0.99,-0.99 -0.99,0.66 l -0.33,-0.33 c -1.32,1.32 -0.66,2.96 0,3.95 0.66,1.32 1.32,2.31 0.33,3.95 0,-0.33 0.33,-0.33 0.33,-0.33 -0.99,3.3 0.99,6.92 -0.66,10.21 -0.33,0.99 0.33,0.99 0.99,1.65 l -0.99,0.33 0.99,0.99 c 0.33,0.66 -0.33,1.32 -0.66,1.97 -0.66,0.66 -0.99,0.99 -0.33,1.98 h 0.66 c -0.33,0.66 0,1.98 -0.66,1.65 0,0 0.66,0.33 0.33,0.66 h -0.66 l 0.66,1.64 c -0.66,1.32 -1.98,-0.66 -2.31,1.32 0,0.66 1.32,2.31 1.65,1.98 0,-0.33 0.33,-0.66 0.99,-0.66 l 0.33,0.66 c 1.65,0.33 2.96,0.66 4.28,-0.66 -0.33,-0.33 -0.66,-0.66 -0.99,-0.99 l 0.66,-0.33 v 0.66 c 0.66,-0.33 0,-0.66 -0.33,-0.99 0.33,0 0.66,0 0.99,-0.33 l -1.32,-1.32 c 0.66,0 0.99,0.66 1.65,0 -0.66,-0.65 -1.32,0.33 -1.65,-0.65 0.66,-0.33 1.32,-0.33 0.66,-0.99 0.33,0 0.66,0 0.66,0.33 -0.33,-0.66 0,-1.65 -0.66,-1.98 0.99,-0.33 0,-1.98 1.32,-1.98 -0.33,-0.32 -0.99,-0.98 -1.32,-1.64 1.65,0.99 0,-1.65 1.98,-1.65 -1.65,-0.66 -0.66,-2.3 -1.65,-3.62 l 0.33,0.33 c 0,-0.66 0.66,-0.99 0.99,-1.32 -1.32,0 -1.65,-0.99 -2.31,-1.65 1.32,-0.66 1.65,0.33 2.64,0.33 -0.99,0 -0.99,-1.32 -1.98,-0.99 0.66,-0.65 0.33,-0.65 1.32,-0.98 -1.65,0 -0.33,-0.66 -1.32,-0.99 0.66,-0.99 1.65,-0.33 0.99,-1.32 1.32,-0.66 1.98,0.33 1.98,0.33 z m 0,-21.74 c 0,0.33 0,0.33 0,0 0,0.33 0,0 0,0 z m 0.33,-1.98 c 0,0.33 -0.33,0.33 -0.33,0.66 -0.33,0 -0.66,-0.33 -0.66,-0.33 0.33,0.33 0.66,0 0.99,-0.33 z m -6.92,2.31 c 0,-0.33 0,-0.33 0.33,-0.33 -0.33,0.33 -0.33,0.33 -0.33,0.33 l 0.33,0.33 c -0.33,0 -0.33,0 -0.33,-0.33 z"
         fill="#6b4f94"
         id="path3496" />
      <path
         d="m 1362.13,2546.72 h -0.33 v 0.33 z"
         fill="#6b4f94"
         id="path3498" />
      <path
         d="m 1379.91,2397.18 c 0,0 0.33,-0.33 0,0 0.33,-0.33 0,-0.33 0,0 z"
         fill="#6b4f94"
         id="path3500" />
      <path
         d="m 1380.9,2392.57 0.33,-0.66 c 0,0.33 0,0.66 -0.33,0.66 z"
         fill="#6b4f94"
         id="path3502" />
      <path
         d="m 1382.55,2443.96 c 0,0.32 0,0.32 0,0 0.33,0.65 0,0.32 0,0 z"
         fill="#6b4f94"
         id="path3504" />
      <path
         d="m 1379.26,2427.49 c 0.32,0 0.32,0.33 0.65,0.33 0,-0.33 0,-0.66 -0.65,-0.33 z"
         fill="#6b4f94"
         id="path3506" />
      <path
         d="m 1384.2,2380.39 c 0,-0.33 0.98,-0.66 0.66,-1.32 h -0.33 c 0.65,0.33 -0.66,0.99 -0.33,1.32 z"
         fill="#6b4f94"
         id="path3508" />
      <path
         d="m 1378.93,2385.33 0.65,-0.99 c -0.32,0 -0.98,0.33 -0.98,-0.33 -1.32,0.99 0.66,-0.33 0.33,1.32 z"
         fill="#6b4f94"
         id="path3510" />
      <path
         d="m 1377.61,2388.62 c 0,-0.66 -0.66,0 -0.66,-0.33 0.33,0.66 0.33,0.99 0.66,0.33 z"
         fill="#6b4f94"
         id="path3512" />
      <path
         d="m 1374.97,2415.3 h -0.99 c 0.33,0.33 0.33,0 0.99,0 z"
         fill="#6b4f94"
         id="path3514" />
      <path
         d="m 1379.26,2419.91 0.32,-0.33 h -0.65 z"
         fill="#6b4f94"
         id="path3516" />
      <path
         d="m 1375.63,2467.67 h 0.99 c -0.33,-0.33 -1.32,-0.33 -0.99,0 z"
         fill="#6b4f94"
         id="path3518" />
      <path
         d="m 1375.63,2486.77 c -0.66,0 -0.99,0.66 -0.33,0.99 0,-0.33 0.33,-0.66 0.33,-0.99 z"
         fill="#6b4f94"
         id="path3520" />
      <path
         d="m 1356.86,2538.49 -0.33,-0.33 v 0.65 z"
         fill="#6b4f94"
         id="path3522" />
      <path
         d="m 1470.5,2342.84 c 0,0.33 0,0.99 0.33,0.66 z"
         fill="#6b4f94"
         id="path3524" />
      <path
         d="m 1472.15,2344.81 c 0.33,-0.66 0.66,-1.31 0.33,-2.3 -0.33,0.99 -0.33,0.66 -0.66,1.97 -0.33,0 -0.33,-0.33 -0.33,-0.65 0,0.32 -0.33,-0.33 -0.33,0.32 0.33,0.66 0.66,0.99 0.99,0 0,0 0,0.33 0,0.66 z"
         fill="#6b4f94"
         id="path3526" />
      <path
         d="m 1466.55,2366.55 c 0,0 0.33,0 0,0 0.33,-0.33 0,-0.33 0,0 z"
         fill="#6b4f94"
         id="path3528" />
      <path
         d="m 1477.09,2359.96 h -0.33 c 0,0.33 0,0.33 0.33,0 z"
         fill="#6b4f94"
         id="path3530" />
      <path
         d="m 1475.77,2342.51 c 0,0 -0.33,0 -0.33,0.33 0,-0.33 0,-0.33 0.33,-0.33 z"
         fill="#6b4f94"
         id="path3532" />
      <path
         d="m 1368.06,2357 0.32,-0.66 z"
         fill="#6b4f94"
         id="path3534" />
      <path
         d="m 1428.34,2373.14 c 0.33,0.66 -0.66,0.99 0,1.98 0,-0.33 0.66,-1.32 0,-1.98 z"
         fill="#6b4f94"
         id="path3536" />
      <path
         d="m 1454.36,2367.87 v 0.33 c 0.33,0 0.33,0 0,-0.33 z"
         fill="#6b4f94"
         id="path3538" />
      <path
         d="m 1451.07,2369.84 c 0,0 0,-0.32 0,0 -0.33,0 0,0 0,0 z"
         fill="#6b4f94"
         id="path3540" />
      <path
         d="m 1377.94,2370.5 c 0,-0.32 0.33,-0.65 0.33,-0.65 -0.33,0.33 -0.99,0.33 -0.33,0.65 z"
         fill="#6b4f94"
         id="path3542" />
      <path
         d="m 1475.44,2342.84 c 0,-0.33 0.33,-0.33 0.33,-0.33 0,0 0,0 -0.33,0 0,0.33 0,0.33 0,0.33 z"
         fill="#6b4f94"
         id="path3544" />
      <path
         d="m 1450.08,2377.42 c 0,-0.33 -0.33,-0.33 -0.33,-0.66 0,0 0,0 0,0.33 z"
         fill="#6b4f94"
         id="path3546" />
      <path
         d="m 1373.66,2368.86 c 0.32,0.33 0.98,-0.66 1.64,-1.32 0.66,0.33 -0.33,0.99 -0.66,1.65 0.66,0 1.65,-0.66 1.65,-0.33 0,0.33 0,0.33 -0.33,0.33 0.99,-0.33 1.32,0.66 2.31,0 v 0.33 c 0.33,-0.66 0.66,-0.99 0.99,-1.32 0.32,0 0.65,-0.33 0.32,0.33 0,0 -0.32,0 -0.65,0.33 h 0.33 c -0.33,0.99 -0.66,0 -0.99,0.99 0.66,0 1.64,-0.33 1.97,0 -0.66,0.98 -0.98,-0.33 -0.98,0.98 l -0.33,-0.65 c -0.66,1.64 -0.33,-0.33 -0.99,1.64 0.66,0.66 0.99,0 1.64,0.66 0.33,-0.33 0.33,-0.66 0.99,-1.32 1.65,-0.33 -0.66,2.97 0.99,1.98 0.66,-0.66 1.32,-1.65 1.32,-0.66 l -0.66,0.99 c 0.66,0.33 1.32,-1.32 1.32,-0.33 -0.33,0.33 -0.66,0 -0.66,0.33 0,0.99 0.66,-0.33 0.99,-0.33 l -0.66,0.99 c 0.66,0.33 2.63,0.33 3.62,0.33 0,0.33 -0.33,0.66 -0.33,0.99 0.33,0 0.99,0 0.99,0 0,0 0.33,0 0.33,0.32 0.33,0.33 0.66,0.66 0.99,1.32 l 0.66,-0.66 c 0,0 0,0.33 0,0.66 0.33,0.66 0.33,-0.66 0.66,-0.99 0.33,0 0.33,0.66 0,0.99 1.31,-0.33 2.96,-0.99 3.29,0.33 l -0.33,0.33 c 0.66,0.66 1.32,-1.65 1.65,-0.66 1.32,0.66 2.96,0 3.62,1.65 0.33,-1.32 1.32,0.66 1.65,-0.99 0.66,0.99 0.33,1.32 1.32,2.31 0.33,0 0.65,-1.32 0.98,-1.32 v 0.99 l 0.66,-0.99 v 1.32 l 0.33,-0.33 c 0,0 -0.33,-0.33 -0.33,-0.66 0.66,-0.33 1.32,0.66 1.32,1.32 l 1.32,-0.66 c 0,0.33 -0.33,0.66 -0.33,0.66 0.66,-0.99 0,0.98 0.66,0.32 0,-0.32 0,-0.65 0,-0.65 0.33,0.65 0.99,0.65 1.32,0.65 l -0.33,0.66 c 0.98,0.33 1.97,0 2.96,0 -0.33,-0.33 0,-1.64 0,-1.64 v 0.98 c 0.33,-0.65 -0.33,-0.32 0.33,-1.31 0.33,0 0.33,1.32 0,1.64 l 0.66,-0.33 c 0,0.33 0,0.33 -0.33,0.99 0.33,-0.66 0.66,0.99 0.99,0 v 0.33 c 0.99,0 1.64,-0.33 2.63,-0.33 0,-0.99 0.33,-0.66 0.66,-1.31 0.66,0.33 1.32,0.98 1.65,0.98 0.33,-0.33 0.33,-0.66 0.33,-1.31 0,0.98 0.66,0.98 0.33,1.31 0.66,0 0.99,0 2.3,-0.66 0,-0.32 -0.33,-0.65 0,-0.65 0.33,0 0.33,0.33 0.33,0.65 1.32,-0.98 2.64,2.97 4.29,1.32 0.32,-0.33 0.98,-0.66 1.31,-0.99 0.66,0 -0.33,0.66 0,1.32 0.99,-1.32 1.98,0 2.97,-0.99 0.99,2.31 2.63,-0.33 3.95,0.99 v -0.66 c 0.33,-0.66 0.33,0.33 0.66,0.33 0,-0.33 -0.33,-0.33 -0.33,-0.99 1.98,-0.98 4.61,0.33 6.92,0.33 0.99,0 -0.33,-2.96 0.99,-1.97 v 0.99 c 1.31,-1.65 3.29,-0.66 4.61,-2.31 0,0.33 0,0.66 0,0.66 0.66,0.66 1.32,-0.33 0.99,-0.99 0.33,0 0.33,0.66 0.33,0.66 0.33,0.33 0.65,-1.32 0.98,-0.66 v 0.33 c 0,-0.33 0.99,0 0.66,-0.99 0.66,0.33 0.99,-0.66 1.32,-0.33 0,-0.99 0.99,0.33 0.66,-0.99 0.33,1.32 0.99,0.99 1.32,0.33 0,0.33 0.33,0.33 0.33,0.99 0.33,0 0.66,-0.33 0.66,-1.32 0.98,1.65 1.31,-1.64 1.97,0.66 0.99,-0.98 2.31,-1.64 3.3,-1.97 0,1.31 -1.32,0.33 -0.99,1.97 0.99,-0.66 1.32,-1.97 2.63,-1.97 0.33,0 0,0.66 0,0.99 0.99,-0.66 2.31,-0.33 2.97,-0.99 v 0.33 c 0.33,0 0.33,0 0.33,-0.66 v 0.33 c -0.33,-0.99 0.33,-2.31 0.33,-2.64 0,1.98 0.98,0.33 0.98,2.64 0,0 0.33,-0.66 0,-0.99 0.33,0 0.33,0.33 0.33,0.99 0.66,-0.66 0.33,-1.32 0.99,-1.32 0,0.33 0,0.33 0,0.99 0.33,-0.66 0.33,-1.32 0.99,-1.32 0,0.33 0,0.33 0,0.33 0.99,-0.33 0.99,-1.98 2.31,-1.65 0,1.32 0.33,0.33 0.98,1.32 l 0.33,-0.66 -0.33,-0.33 c 0.33,0 0.66,-0.99 0.99,-0.99 v 0.66 l 0.66,-0.66 -0.66,-0.33 c 0.33,-0.65 -0.66,-1.31 0,-1.31 0,0.33 0.33,-0.33 0.99,0.33 0,-0.33 0,-0.99 0.66,-0.66 0.33,0.33 0.66,1.32 0.66,1.32 -0.33,-0.99 0.99,-0.99 0.66,-1.98 0,0.33 0.33,0.99 0.33,0.99 l -0.33,-0.66 c 0.33,0 0.33,0.33 0.66,0.66 0.66,-0.33 -0.99,-1.32 0,-0.99 v 0.33 c 0.98,-0.33 0.98,-1.32 1.64,-1.65 0.99,0.66 -0.33,0.66 0.66,1.32 0.66,-0.99 0.66,-2.64 1.65,-3.29 h -0.33 c -1.32,-1.32 1.32,0 0.99,-0.99 0,0.33 0.66,0.66 0.66,0.66 0.66,-0.66 0.66,-1.65 0.33,-2.97 l 0.33,0.33 c 0.65,-0.33 0.65,-1.32 0.98,-1.65 -0.33,-0.33 -0.33,-0.33 -0.98,-0.33 2.63,-1.31 -1.32,-2.63 0.98,-3.95 l 0.33,0.33 -0.33,-0.99 c -0.65,0 -0.33,0 -0.98,0.33 -0.33,0 -0.66,-0.33 -0.99,-0.66 0.66,0.33 1.32,0 1.64,-0.33 -0.32,0 -0.32,0 -0.65,0 1.31,-0.65 -1.65,0 -0.66,-0.65 h 0.33 c -0.33,-0.33 -0.66,-0.33 -0.66,-0.66 0.99,-0.33 0.33,0.33 0.99,0.33 0,-0.33 -1.65,-0.66 -0.99,-0.99 0.33,0 0.33,0.33 0.66,0.66 0.98,-0.66 0.66,-0.66 0.98,-0.99 l 0.33,-0.66 -0.33,0.33 c -2.3,0 -0.65,-0.99 -2.3,-1.32 1.65,0.33 0.99,0 1.98,0 0.32,-0.33 0.65,-0.66 0.65,-0.33 -0.98,-0.33 0.66,-0.99 -0.65,-1.31 0.32,0 0,-0.66 0.65,-0.66 -0.33,-0.66 -0.65,0.33 -0.98,0.33 -0.66,-0.33 -0.33,-0.66 -0.33,-1.65 0,-0.66 -0.33,-1.32 -1.32,-1.32 -1.32,-0.33 -1.98,0.66 -2.97,0.66 0,-0.66 0.66,-0.99 0.66,-0.99 -0.33,-0.66 -0.66,-0.66 -1.31,-0.33 0.32,-0.33 0.32,-0.33 0,-0.99 -0.33,0 -0.66,0.99 -0.99,0.66 0,-0.33 0.33,-0.98 0.66,-1.31 -0.66,0.33 -1.32,0.65 -1.65,0.98 0,-0.65 0.33,-0.65 0.66,-1.31 -0.66,0.33 -1.32,0.33 -1.65,1.31 l 0.33,0.33 c 0,0 0,-0.66 0,-0.98 0.33,-0.66 0.66,0.32 0.66,0.65 l -0.33,0.33 c 0,1.98 1.32,-0.33 1.98,0 -0.33,0.33 -0.33,0.99 -0.66,1.32 0.33,-0.33 0.66,-0.66 0.99,-0.99 0,0.33 -0.33,0.99 -0.66,1.32 0,0.66 0.66,-0.33 0.33,0.33 v 0.33 l 0.65,-0.33 c -0.32,0.33 -0.32,0.99 -0.65,0.66 0,0.99 1.31,-0.66 0.98,0.33 0.99,0 0.99,-0.99 2.31,-0.99 -0.66,0.66 -1.32,1.32 -1.98,1.98 l 0.99,-0.66 c 0,0 0,0.33 -0.33,0.33 0.66,0 0.33,-0.33 0.99,-0.33 -0.66,0.99 0.66,0.99 -0.99,1.64 0.66,0 0.66,-0.65 0.99,-0.33 -1.65,0.66 0.33,0.33 -0.33,0.99 -0.99,0 -0.33,-0.33 -1.32,0 1.65,0 -0.33,0.99 0,1.32 1.32,-0.33 0.66,0.66 0.99,1.32 -0.33,0 -0.66,0.99 -0.99,1.64 h -0.33 c 1.32,0 0.99,0.66 1.32,0.99 -0.66,0 -0.99,0 -1.32,-0.33 v 0.33 c 0.33,0 0.66,0.33 0.66,0.33 h -0.99 c 0,0.66 0.99,0.99 0.33,1.65 0.99,0 2.31,-0.33 2.97,0.33 -0.33,0 -1.32,0 -1.32,0 l 0.33,0.33 -0.66,-0.33 c -0.33,0.33 0.66,0.33 0.66,0.33 -0.66,0 -0.33,0 -0.99,0 0,0 0.33,-0.33 0,-0.33 0,0.33 -0.66,0.66 -0.99,0.66 0.33,0 0.99,0 0.99,0.33 0,0.33 -0.66,0 -0.99,0.33 0.33,0 0,0.33 0.99,0.33 0,0 -0.33,0 -0.66,0 0.33,0.32 0,0.98 0.99,0.98 0.66,0.99 -0.99,1.32 -0.99,1.98 l -0.33,-0.33 c 0,0.66 -0.33,0.99 0,1.65 0,0 -0.65,0 -0.98,-0.33 0,0.33 0.33,0.66 -0.66,0.66 0,-0.66 -0.33,-0.33 0,-0.66 -0.66,0 -0.99,-0.33 -0.66,0.66 -0.33,-0.66 -0.99,-0.66 -0.99,-0.33 l 0.66,0.33 c 0,0.33 -0.33,0.33 -0.66,0.33 l -0.66,-0.99 c -1.32,-0.66 0,2.63 -1.65,1.32 0.33,0.65 0.66,0.32 0.99,0.98 -0.33,0 -1.64,-0.98 -1.64,-0.98 -0.66,-0.33 0.32,1.64 -0.33,1.64 0.33,0.33 0.65,1.32 0.33,1.65 -0.66,0 -0.99,-1.32 -0.99,-1.65 h 0.33 c 0,-0.33 0.33,-0.33 0,-0.66 v 0.33 c -0.33,-0.33 -0.99,0 -0.99,-0.66 0,0.33 0,0.66 0.33,0.66 -0.66,-0.33 -0.99,0.33 -1.65,0 0,0.33 0.33,0.66 0.33,0.66 -0.99,-0.33 0,0.99 -0.66,1.32 -0.66,-0.33 -0.33,-1.32 -0.66,-0.66 -0.33,-0.33 -0.33,-0.99 -0.33,-1.32 -0.33,0.99 -0.99,-0.33 -1.31,-0.33 l 0.32,-0.33 c 0,0.33 -0.32,0.33 -0.32,0.33 l 0.32,0.66 c -0.32,0 -0.32,0 -0.32,-0.33 0,0.66 0.32,1.32 0.32,1.98 -0.32,-0.33 -0.65,0.66 -0.98,-0.33 0.66,0.33 -0.33,-0.99 0.33,-1.32 0,0 -0.33,0.33 -0.33,0 v -0.33 c -0.99,-0.66 0,1.32 -0.66,1.32 0,-0.66 -0.33,-0.99 -0.33,-0.99 0.33,0 0.33,0.99 0,1.32 -0.66,-0.33 -0.33,0.33 -0.66,0.33 l 0.33,0.33 c 0,0.66 -0.33,0.66 -0.66,0.66 0,-0.33 0.33,-0.33 0,-0.66 -0.33,0.99 -0.99,-0.99 -1.32,0 -0.33,-0.33 -0.33,-0.99 -0.33,-1.32 -0.33,0.99 -0.66,-0.66 -1.31,0 0.32,0.66 0.32,0.66 0,1.32 l 0.98,-0.66 -0.33,1.32 c 0.33,0 0.66,-0.66 0.66,-0.33 -0.33,0.66 -0.33,0.33 0,0.99 -0.66,-0.99 -0.66,0.65 -1.31,0 l -0.33,-1.98 c -0.66,-0.66 -0.99,1.32 -1.98,0.66 l 0.33,0.33 c 0,0.66 -0.66,0.33 -0.99,0.66 0,-0.66 -0.33,-0.99 -0.33,-1.32 0,0.33 -0.66,0 -0.66,1.32 l -0.66,-0.66 c -0.98,-0.33 -0.66,1.97 -1.31,1.97 0,-0.65 -0.33,-0.98 0,-1.64 -0.33,0 -0.66,0 -0.33,0.33 -0.33,-0.33 -0.66,0.98 -0.99,0.33 0,0.33 0,0.98 -0.33,0.98 v -0.33 c 0,0.33 -0.33,0.66 0,1.32 -1.32,-1.97 -1.98,0.66 -3.3,-0.99 -0.65,0.33 -0.98,0.66 -1.64,0.99 0,-0.33 0,-0.33 0,-0.33 -0.66,-0.33 0,1.98 -0.66,1.32 -0.66,-0.99 0.33,-0.66 0,-0.99 -0.66,-1.97 -0.66,0.66 -1.65,-0.66 -0.66,-0.66 -0.66,0.99 -1.32,0.99 v -0.33 c 0,1.32 -0.98,1.65 -1.31,2.31 0,-0.99 0,-0.66 0,-1.32 -0.33,0.33 0.33,1.32 0,1.65 -0.33,-0.33 -0.66,-0.66 -0.99,-1.65 h 0.33 c -0.66,-0.99 -0.66,0.33 -0.99,0 v -0.66 c -0.66,0.33 -0.33,1.65 -1.32,1.65 v 0.33 c -0.33,1.32 -0.66,-0.66 -0.66,0.33 l -0.33,-1.32 c -0.33,0.33 -0.66,1.32 -1.31,1.65 0,-0.99 0.65,-1.65 0.98,-2.31 -0.33,0 -0.98,0.33 -0.98,0.99 l 0.33,-0.33 c -0.33,0.99 -0.66,1.65 -1.32,1.65 -0.33,-2.64 -1.65,-0.33 -2.31,-2.31 -0.99,0.99 -1.97,0 -3.29,0 0.66,1.98 -0.33,0 0,1.98 -0.33,0 -0.33,0 -0.33,0 l -0.99,-1.32 c -0.33,-0.66 0.33,-0.33 0.33,-0.99 -0.66,0 -0.33,-0.99 -0.66,-1.32 0,0.66 0,0.99 -0.66,0.66 l 0.66,0.99 c -0.66,0.99 -0.66,-1.65 -1.65,-0.66 0,-0.33 0,-0.33 0.33,-0.66 -0.33,0.33 -1.32,0 -1.64,1.65 0,-0.33 0,-0.66 0,-0.99 -0.99,-0.33 -2.31,1.32 -3.3,0.33 v -0.33 c -0.33,0 -0.66,0.99 -0.66,0.33 0,-0.33 0,-0.33 0,-0.66 0,0 -0.66,0.66 -0.99,0.33 l 0.33,-0.66 c -0.98,-0.66 -1.97,0.99 -2.96,1.32 0,-1.32 -0.99,-1.98 -1.32,-2.3 v -0.33 c -0.99,-0.33 -1.98,0.98 -3.29,1.64 -0.66,-1.64 -2.31,-0.99 -3.3,-1.97 0,0.33 0,0.98 -0.33,1.31 -0.33,-0.33 -0.98,0.99 -0.66,-0.33 0,-1.31 -0.65,-0.98 -0.98,-0.98 l -0.33,1.64 c -0.99,-2.63 -2.97,0.66 -3.3,-1.64 -0.33,0.33 -0.66,0.33 -0.99,0.66 v -0.99 c -0.65,-0.33 -0.98,-0.33 -1.97,-0.33 l 0.33,-0.66 c -0.33,0 -0.99,2.63 -1.65,2.63 v -1.31 c -0.99,0 -1.65,-1.32 -2.63,-0.33 0,-0.33 0,-0.66 0.32,-0.66 -0.32,0 -1.31,-1.32 -1.64,0.66 0.33,-1.32 -0.99,-0.33 -1.32,0 l 0.33,-0.99 c -0.66,0.99 -0.66,1.32 -1.32,1.65 0,0 0,-0.66 0.33,-0.33 -0.33,-0.66 -0.66,0.66 -0.99,0 l 0.33,-0.33 c -0.33,-0.33 -0.33,0 -0.99,0.66 -0.33,0.33 -0.65,-0.66 -0.65,-1.32 -0.33,0.33 -0.66,0.99 -0.99,0.66 0,-0.33 0.33,-0.33 0.33,-0.66 -0.66,-0.99 -1.65,0.66 -1.98,-0.33 0,-0.33 0,-0.33 0,-0.66 0.66,0 1.32,0.33 1.32,0.33 0.33,-0.66 -0.33,-1.32 0.66,-1.98 -0.33,0.33 -0.99,0.66 -1.32,0.99 -0.33,0.33 -0.66,0.66 -0.66,0.33 0,0 0,0 0,-0.33 0,0 0,0 -0.33,0 v -0.33 c 0.33,-0.66 0,-0.33 -0.33,-0.66 -0.33,0.99 -0.66,0.66 -0.66,1.32 0,0 0,0 0.33,0 h 0.33 c -0.33,0.33 -0.66,0.66 -0.66,0 -0.33,0.33 -0.66,0.99 -0.99,1.32 0.33,-1.32 0.33,-2.31 0.66,-2.97 -0.99,0 -1.97,-0.65 -3.29,0.66 -0.33,0 0,-0.66 0,-0.99 0.33,0 0.33,0 0.66,-0.32 -0.66,0.32 -1.32,-0.66 -1.98,0.32 -0.33,-0.65 0.99,-0.65 0,-0.98 l 0.33,-0.33 c 0,-2.31 -3.62,1.31 -3.62,-1.65 0,0.33 0,0.33 0,0.33 -0.66,-1.98 -3.63,-1.65 -3.96,-4.28 -0.33,-0.66 -0.65,0 -1.31,0 l 0.66,-0.66 -1.32,0.33 c -1.32,0 0.66,-2.64 -1.32,-2.31 l -0.33,0.66 c -0.33,-0.33 -0.99,-0.33 -0.66,-0.99 0,0 -0.66,0.33 -0.33,0 l 0.33,-0.33 h -1.32 c -0.33,-0.65 1.32,-1.64 0.66,-2.3 -0.33,0 -1.64,0.33 -1.97,0.66 0,0 0,0.66 -0.33,0.99 h -0.33 c -0.99,0.98 -2.31,2.3 -2.31,3.62 l 0.99,-0.33 -0.33,0.66 -0.33,-0.33 c -0.33,0.66 0.33,0.33 0.66,0 -0.33,0.33 -0.33,0.66 -0.33,0.66 l 1.32,-0.66 c -0.33,0.66 -0.99,0.66 -0.99,1.32 0.66,-0.33 0.66,-1.32 1.32,-1.32 -0.33,0.66 -0.66,0.99 0,0.99 -0.33,0.33 -0.33,0.33 -0.66,0.66 0.66,-0.33 0.66,0.32 1.32,-0.33 -0.33,0.98 0.98,0.33 0,1.64 0.33,-0.33 0.98,-0.66 1.31,-0.33 -1.64,0.99 0.66,0.66 -0.65,1.98 1.31,-0.99 1.31,0.33 2.63,0 0,0 -0.33,0.33 -0.33,0 0.33,0.33 0,0.66 0,0.99 0.99,-0.99 1.65,-0.66 2.31,-0.99 -0.66,1.32 -1.32,0.99 -1.98,1.98 0.66,-0.66 1.32,-0.33 1.65,-0.99 -0.33,0.66 0,0.33 -0.66,1.32 0.99,-1.32 0.33,0 1.32,-0.66 0,0.98 -0.99,1.31 0,1.31 1.31,3.3 0.66,3.3 0.66,3.3 z m 13.5,5.27 h -0.33 c 0,-0.33 0,-0.33 0.33,0 z m 0.99,0 c 0,0 0,0 -0.33,0 0,-0.33 0,-0.66 0.33,-0.66 0,0.33 0,0.33 0,0.66 z m 0,-6.59 c 0.33,0 0.33,0 0,0 0,0.33 0,0.33 0,0 l -0.33,0.33 c 0.33,0 0.33,-0.33 0.33,-0.33 z"
         fill="#6b4f94"
         id="path3548" />
      <path
         d="m 1402.97,2379.4 v -0.33 l -0.33,0.33 z"
         fill="#6b4f94"
         id="path3550" />
      <path
         d="m 1480.71,2351.73 0.33,-0.33 c -0.33,0 -0.33,0 -0.33,0.33 z"
         fill="#6b4f94"
         id="path3552" />
      <path
         d="m 1471.16,2369.85 c 0,0.33 0,0.33 0,0.65 0.33,-0.32 0.33,-0.32 0,-0.65 z"
         fill="#6b4f94"
         id="path3554" />
      <path
         d="m 1470.83,2370.5 c 0.33,0 0.33,0 0.33,-0.32 0,0 -0.33,0 -0.33,0.32 z"
         fill="#6b4f94"
         id="path3556" />
      <path
         d="m 1472.48,2342.51 c 0.33,-0.33 0.33,-0.33 0,0 z"
         fill="#6b4f94"
         id="path3558" />
      <path
         d="m 1477.75,2343.5 c -0.33,-0.33 -0.33,-0.99 -0.66,-0.99 v 0.33 c 0.33,-0.33 0.33,0.99 0.66,0.66 z"
         fill="#6b4f94"
         id="path3560" />
      <path
         d="m 1476.76,2348.77 c 0,-0.33 0,-0.33 0,-0.66 -0.33,0.33 -0.66,0.66 -0.99,0.33 -0.66,1.31 0.99,-0.33 0.99,0.33 z"
         fill="#6b4f94"
         id="path3562" />
      <path
         d="m 1476.43,2350.41 c -0.33,-0.33 -0.66,0 -0.66,0 0.33,0.33 0.33,0.33 0.66,0 z"
         fill="#6b4f94"
         id="path3564" />
      <path
         d="m 1474.46,2362.93 -0.66,-0.66 c 0,0.33 0.33,0.33 0.66,0.66 z"
         fill="#6b4f94"
         id="path3566" />
      <path
         d="m 1475.44,2368.2 h 0.66 l -0.33,-0.66 z"
         fill="#6b4f94"
         id="path3568" />
      <path
         d="m 1470.83,2364.25 v -0.33 l -0.33,0.66 z"
         fill="#6b4f94"
         id="path3570" />
      <path
         d="m 1447.77,2369.85 0.33,0.98 c 0.33,-0.33 0,-1.64 -0.33,-0.98 z"
         fill="#6b4f94"
         id="path3572" />
      <path
         d="m 1437.89,2373.47 c -0.33,-0.33 -0.66,-0.66 -0.66,-0.33 0,0 0.33,0.33 0.66,0.33 z"
         fill="#6b4f94"
         id="path3574" />
      <path
         d="m 1406.6,2371.49 v -0.33 l -0.33,0.33 z"
         fill="#6b4f94"
         id="path3576" />
      <g
         opacity="0.2"
         id="g3580">
        <path
           opacity="0.2"
           d="m 1458.31,2305.95 c -1.97,6.58 -13.5,7.9 -19.1,9.88 -7.58,2.63 -15.48,4.28 -22.4,8.56 -2.64,1.65 -4.61,3.95 -7.58,5.27 -3.62,1.98 -7.9,2.97 -11.86,4.61 -7.57,3.3 -14.49,7.91 -20.42,12.85 -6.59,5.6 -13.84,10.21 -19.11,17.46 -3.62,4.94 -4.28,7.24 -4.61,12.84 -0.33,4.28 -1.97,7.91 -2.3,12.52 -0.99,6.26 -0.99,12.84 -2.31,19.1 -0.66,2.97 -1.98,5.93 -2.64,8.89 -0.65,3.96 0.66,7.91 -0.32,11.86 -1.65,6.92 -1.98,13.51 -1.98,21.08 0,7.58 -2.31,13.51 -2.31,21.08 0.33,16.14 -4.94,30.63 -4.61,46.77 0,7.58 -1.98,14.17 -2.3,21.41 -0.66,7.58 0.98,15.81 0.32,23.39 -0.32,3.95 -2.3,7.24 -2.63,11.2 -0.33,2.96 0,5.93 0,8.89 0,3.95 -0.99,8.56 0,12.52 0.66,3.29 2.31,6.25 2.63,9.88 3.3,1.97 10.88,-5.93 13.84,-7.91 3.62,-2.63 5.27,-5.93 8.24,-8.89 7.24,-7.25 18.44,-7.91 27.01,-12.19 9.22,-4.61 19.76,-6.59 29.97,-6.26 4.62,0 10.22,-0.65 14.5,0 5.27,0.99 10.21,4.29 15.81,4.94 5.6,0.66 11.86,-0.98 17.46,-0.32 4.28,0.32 7.58,2.96 11.53,4.28 4.94,1.64 11.86,2.3 17.13,2.63 6.92,0.66 13.5,2.97 20.42,4.28 22.73,3.96 45.13,-2.96 64.9,-12.84 9.88,-4.94 18.44,-11.86 26.35,-19.76 9.55,-9.88 22.4,-16.8 28.33,-29.65 4.61,-10.21 6.26,-22.72 6.26,-33.59 0,-5.93 0.33,-9.56 -2.31,-15.15 -2.3,-4.62 -4.94,-10.22 -7.57,-14.83 -4.95,-8.23 -15.16,-12.84 -22.73,-18.11 -9.89,-6.59 -16.8,-9.88 -28.66,-9.88 -12.19,0 -23.72,0.66 -35.91,2.3 -12.52,1.65 -26.68,6.26 -38.54,11.2 -26.02,10.54 -47.11,31.29 -65.55,52.04 -2.64,2.97 -6.92,9.88 -10.87,11.53 -4.62,1.98 -12.52,-1.98 -17.13,-2.31 -4.29,-0.32 -9.89,-0.98 -14.17,0 -3.29,0.66 -12.85,6.26 -15.15,3.63 10.21,-25.36 17.46,-51.06 17.46,-78.39 0,-11.86 0,-24.05 0,-35.91 0,-4.94 0,-9.55 0,-14.49 0,-8.23 -0.33,-10.87 7.57,-14.49 11.2,-5.27 20.76,-0.66 32.29,-0.33 7.24,0.33 13.17,-0.99 20.42,-2.31 4.28,-0.65 10.54,0.33 13.51,-3.95 5.6,-6.91 3.95,-20.42 3.62,-28.98 0,-5.27 -1.32,-9.55 -4.61,-13.84 -3.3,-4.28 -10.54,-13.5 -16.47,-11.85"
           fill="#6b4f94"
           id="path3578" />
      </g>
    </g>
  </g>
</svg>
