<?xml version="1.0" encoding="UTF-8" standalone="no"?>
<svg
   xmlns:dc="http://purl.org/dc/elements/1.1/"
   xmlns:cc="http://creativecommons.org/ns#"
   xmlns:rdf="http://www.w3.org/1999/02/22-rdf-syntax-ns#"
   xmlns:svg="http://www.w3.org/2000/svg"
   xmlns="http://www.w3.org/2000/svg"
   xmlns:sodipodi="http://sodipodi.sourceforge.net/DTD/sodipodi-0.dtd"
   xmlns:inkscape="http://www.inkscape.org/namespaces/inkscape"
   width="1080mm"
   height="1080mm"
   viewBox="0 0 1080 1080"
   version="1.1"
   id="svg3685"
   inkscape:version="1.0.1 (3bc2e813f5, 2020-09-07)"
   sodipodi:docname="joupLogo.svg">
  <defs
     id="defs3679" />
  <sodipodi:namedview
     id="base"
     pagecolor="#ffffff"
     bordercolor="#666666"
     borderopacity="1.0"
     inkscape:pageopacity="0.0"
     inkscape:pageshadow="2"
     inkscape:zoom="0.058425804"
     inkscape:cx="1919.9164"
     inkscape:cy="3087.6818"
     inkscape:document-units="mm"
     inkscape:current-layer="layer1"
     inkscape:document-rotation="0"
     showgrid="false"
     inkscape:window-width="1366"
     inkscape:window-height="715"
     inkscape:window-x="-8"
     inkscape:window-y="-8"
     inkscape:window-maximized="1" />
  <metadata
     id="metadata3682">
    <rdf:RDF>
      <cc:Work
         rdf:about="">
        <dc:format>image/svg+xml</dc:format>
        <dc:type
           rdf:resource="http://purl.org/dc/dcmitype/StillImage" />
        <dc:title />
      </cc:Work>
    </rdf:RDF>
  </metadata>
  <g
     inkscape:label="Layer 1"
     inkscape:groupmode="layer"
     id="layer1">
    <path
       id="path3662"
       d="m 306.9003,348.43721 c -6.52299,-0.007 -12.95927,4.18529 -12.77656,12.58681 1.7762,84.28314 3.03165,168.56158 3.08223,252.84469 v 34.1848 c 0,14.71573 -0.57196,31.31441 -11.47847,42.68736 -10.90644,11.37695 -26.091,13.51597 -40.38699,12.41983 -0.50622,-0.10032 -1.02294,-0.10032 -1.53379,-0.15926 -0.10905,-0.0475 -0.17958,-0.0841 -0.61466,-0.20465 l -3.54514,-0.62279 c -2.19229,-0.47031 -4.38215,-1.05189 -6.57431,-1.67766 -2.19214,-0.62618 -2.91868,-0.88363 -4.38016,-1.4045 l -2.40679,-0.68323 c -2.08725,-0.78124 0,0.007 -1.09283,-0.46285 -17.63498,-7.92925 -30.21487,-22.64962 -30.21487,-43.21122 -0.1945,-7.35783 1.36058,-14.65549 4.53998,-21.2943 1.96283,-4.09285 4.49173,-7.88799 7.51566,-11.27348 1.34872,-1.55087 2.79923,-3.01215 4.33466,-4.3803 0.67632,-0.6255 5.21161,-4.17724 1.8222,-1.67022 2.90744,-1.81903 5.01244,-4.6745 5.88313,-7.9939 0.87462,-3.31548 0.4527,-6.84153 -1.18397,-9.8538 -1.78798,-2.98518 -4.69211,-5.13858 -8.06987,-5.98981 -3.3739,-0.85124 -6.94473,-0.33002 -9.93763,1.44995 -14.87514,10.73954 -25.33551,26.5233 -29.43223,44.41071 -2.58873,11.78893 -2.24,24.02821 1.0172,35.64994 3.2572,11.62186 9.33199,22.26665 17.67332,30.9888 10.30027,9.7522 22.75568,16.93351 36.35596,20.96035 13.60014,4.02677 27.96675,4.78596 41.9129,2.21668 11.46641,-1.85793 22.20932,-6.77869 31.10258,-14.2493 8.89306,-7.47058 15.60648,-17.20723 19.41186,-28.17994 5.22002,-15.1355 5.21536,-31.31428 5.21536,-47.38653 0,-33.64487 -0.124,-67.27444 -0.36529,-100.88437 -0.52452,-58.76183 -1.3767,-117.50371 -2.5583,-176.23057 -0.18299,-8.37627 -6.79272,-12.58052 -13.31572,-12.58682 z m 490.3394,0.69836 c -13.64732,-0.2243 -27.34456,1.46928 -40.68326,5.10157 -4.30273,1.10794 -6.93612,3.7084 -8.24433,6.83243 -0.13628,0.29411 -0.22565,0.6282 -0.34221,0.94129 -0.10032,0.31106 -0.2216,0.61534 -0.29548,0.93386 -0.32664,1.15597 -0.56179,2.38136 -0.56179,3.76538 v 160.75896 c 0,0.10714 -7.5e-4,0.21212 0,0.31851 v 177.67304 c 0,16.803 26.09229,16.803 26.09229,0 V 546.52359 c 20.52386,6.70542 42.69427,7.44939 63.86762,1.89791 13.36308,-3.61481 25.83571,-9.96528 36.61393,-18.65251 10.77842,-8.68719 19.63815,-19.51833 26.00879,-31.80866 12.83443,-25.31526 15.09043,-54.6951 6.2634,-81.67006 -4.43882,-13.46807 -12.04591,-25.66995 -22.1751,-35.58929 -10.26522,-9.17685 -22.13884,-16.38241 -35.02016,-21.24875 -16.51147,-6.57445 -33.97751,-10.02824 -51.5237,-10.31694 z m -111.43645,0.93383 c -6.52341,-0.007 -13.05021,4.19607 -13.05021,12.62477 0.34969,62.62158 0.34969,125.2506 0,187.87603 0,20.8726 -0.22566,41.74642 -0.67564,62.62287 0.595,15.18605 0.0738,30.3916 -1.5637,45.5038 -2.08723,11.74228 -6.78532,22.65062 -17.53649,28.75693 -5.25501,2.89959 -11.07248,4.64637 -17.05835,5.11667 -5.9858,0.46625 -11.99912,-0.35037 -17.64284,-2.39892 -0.38492,-0.13893 -0.33071,-0.0969 -0.471,-0.13684 -0.19448,-0.10504 -0.14704,-0.0969 -0.52383,-0.2887 -1.0961,-0.57128 -2.1925,-1.14302 -3.23423,-1.7688 -2.63522,-1.44203 -5.08361,-3.19404 -7.303,-5.22301 -4.40391,-4.14725 -8.04427,-9.0399 -10.74956,-14.45435 -4.45446,-9.44116 -7.27773,-19.57057 -8.3507,-29.95629 -3.54861,-28.07496 -1.56314,-56.62158 -4.01587,-84.8054 -2.92296,-33.03457 -10.74759,-66.01132 -28.4912,-94.40108 -7.48999,-12.23205 -17.63369,-22.6227 -29.68297,-30.40428 -12.05327,-7.7776 -25.69426,-12.74227 -39.92412,-14.53026 -24.28525,-2.93457 -48.92072,-0.6072 -72.22632,6.83242 -16.07232,4.8042 -9.23067,30.01321 6.94654,25.15851 l -0.37339,-0.72884 c 18.76582,-6.20341 38.60061,-8.51266 58.28775,-6.7869 11.36522,0.87457 22.34451,4.52196 31.96836,10.62825 9.62785,6.10631 17.60917,14.48012 23.24515,24.39166 16.85341,27.81453 22.9038,59.96141 24.68015,92.05535 1.56639,28.5997 -8.8e-4,57.40127 5.21535,85.84545 5.22003,26.6679 19.77569,52.18652 45.86832,62.62285 27.76019,11.11646 63.50668,4.2e-4 78.27672,-26.09221 10.43632,-18.3189 9.91742,-39.40157 10.43829,-59.75323 0.26023,-18.89417 0.52045,-37.78082 0.67564,-56.67107 0.66074,-69.58298 0.76172,-139.25701 0.31105,-209.01097 0,-8.40342 -6.5194,-12.61852 -13.04248,-12.62482 z m 108.84784,24.99899 c 10.39309,-0.0699 20.79249,1.19529 30.94298,3.80333 21.65389,6.10631 42.52844,17.05998 52.54882,38.04141 18.68023,38.2508 8.9e-4,87.52196 -39.24082,103.28321 -11.64911,4.51268 -24.13719,6.43037 -36.60627,5.61024 -10.06388,-0.66208 -19.90366,-3.12566 -29.09109,-7.19682 V 377.17889 c 7.08886,-1.32629 14.26257,-2.06212 21.44638,-2.1105 z M 442.66042,500.52664 c -7.8974,-0.25346 -15.81649,1.03576 -23.29882,3.84895 -0.9476,0.29478 -1.83835,0.72151 -2.68734,1.207 -0.12868,0.0609 -0.26836,0.088 -0.39441,0.15181 -31.04842,13.98886 -42.99319,53.17981 -46.96175,84.07663 -4.32996,33.76531 -0.47438,73.52984 21.70444,100.82351 7.11292,8.5395 16.45121,14.96621 26.973,18.55385 10.51792,3.5915 21.82168,4.20907 32.67383,1.79917 17.27332,-3.65365 30.74068,-16.27672 39.87101,-30.83699 18.99513,-30.21656 23.26953,-70.03871 18.36436,-104.74076 -2.16119,-18.95245 -9.36825,-36.97881 -20.86962,-52.19211 -7.99919,-9.98146 -18.95158,-17.17245 -31.28473,-20.55794 -4.62487,-1.26949 -9.35136,-1.98125 -14.08997,-2.13319 z m -2.55098,26.27437 c 4.75372,-0.0813 9.47707,0.77519 13.90028,2.52042 2.12222,0.94842 4.16013,2.0691 6.10366,3.34788 l 0.96428,0.66072 c -0.18299,-0.19584 -0.0738,-0.19109 0.86531,0.5923 2.28934,1.94733 4.41028,4.07238 6.36165,6.36172 0.47031,0.6255 0.939,1.25567 1.35874,1.93585 0.4161,0.67634 1.72308,2.65944 2.55887,4.01594 1.71783,2.81413 3.23333,5.74428 4.53935,8.76828 -0.73067,-1.72191 0.77982,2.08449 1.04017,2.86958 0.57536,1.66749 1.15058,3.33811 1.61695,5.21548 1.04553,3.44376 1.93409,6.99067 2.66478,10.43836 1.39553,6.64268 2.16815,13.41075 2.3003,20.20114 0.31105,8.007 0.0474,16.0287 -0.78983,24.00457 -1.68295,13.46028 -5.19474,26.63023 -10.43808,39.14207 -1.35665,2.86856 -2.81651,5.68323 -4.43346,8.39632 -0.88635,1.41094 -1.72043,2.81882 -2.65711,4.17533 l -1.41202,1.98898 c -1.35657,1.92794 0.41543,-0.47368 -0.47097,0.6228 -1.81511,2.20773 -3.78811,4.28206 -5.89866,6.20991 -0.36528,0.32664 -2.00986,1.6256 -2.25478,1.86754 -1.11438,0.77987 -2.24468,1.53623 -3.4313,2.20152 -7.31914,3.99186 -15.89788,5.02302 -23.95142,2.86963 -3.90235,-1.03395 -7.59989,-2.71066 -10.95435,-4.9573 -0.61059,-0.3883 -1.20545,-0.80562 -1.77667,-1.25255 -1.25154,-1.14663 -2.45199,-2.24557 -3.5984,-3.44661 -1.15065,-1.19712 -2.92623,-3.3396 -2.30033,-2.55837 0.6255,0.78522 -1.29979,-1.82236 -1.71575,-2.45206 -1.95117,-2.84516 -3.69919,-5.82221 -5.22273,-8.92007 -1.12332,-2.18831 -2.04794,-4.47696 -2.76324,-6.83244 -1.24383,-3.56425 -2.30255,-7.18672 -3.18096,-10.85596 -1.66758,-6.5844 -2.70136,-13.31613 -3.08242,-20.09482 -0.54825,-7.73102 -0.54825,-15.49161 0,-23.22266 0.45065,-7.95642 1.64459,-15.84818 3.55307,-23.58695 0.99117,-4.01904 2.13314,-8.03768 3.43903,-12.00231 0.62616,-1.93174 1.3037,-3.80869 2.03452,-5.68606 l 0.99421,-2.51278 c -0.67633,1.61694 -8.7e-4,-0.46896 0.52385,-1.04003 1.66758,-3.4477 3.38867,-6.78704 5.21542,-10.02092 l 3.02917,-4.53971 1.87493,-2.19399 c 1.09607,-1.30601 2.29869,-2.50361 3.4998,-3.70467 1.19706,-1.19718 3.54982,-3.07923 2.86957,-2.55836 -0.67632,0.52452 2.29326,-1.51108 3.0747,-1.9814 0.57874,-0.35307 1.20396,-0.6194 1.7991,-0.94138 0.11321,-0.0272 0.22905,-0.0204 0.34223,-0.0541 4.36101,-1.89683 9.05516,-2.91333 13.8088,-2.99107 z"
       style="fill:#7f529a;fill-opacity:1;stroke-width:3.88688"
       inkscape:export-filename="C:\Users\Mateus Emanuel\Documents\Faculdade\Projeto Integrado IV\pj4-front\src\images\joupLogo.png"
       inkscape:export-xdpi="95"
       inkscape:export-ydpi="95" />
  </g>
</svg>
