<?xml version="1.0" encoding="UTF-8" standalone="no"?>
<svg
   xmlns:dc="http://purl.org/dc/elements/1.1/"
   xmlns:cc="http://creativecommons.org/ns#"
   xmlns:rdf="http://www.w3.org/1999/02/22-rdf-syntax-ns#"
   xmlns:svg="http://www.w3.org/2000/svg"
   xmlns="http://www.w3.org/2000/svg"
   xmlns:sodipodi="http://sodipodi.sourceforge.net/DTD/sodipodi-0.dtd"
   xmlns:inkscape="http://www.inkscape.org/namespaces/inkscape"
   viewBox="0 0 841.9 595.3"
   version="1.1"
   id="svg10"
   sodipodi:docname="logo.svg"
   inkscape:version="1.0.1 (3bc2e813f5, 2020-09-07)">
  <metadata
     id="metadata16">
    <rdf:RDF>
      <cc:Work
         rdf:about="">
        <dc:format>image/svg+xml</dc:format>
        <dc:type
           rdf:resource="http://purl.org/dc/dcmitype/StillImage" />
      </cc:Work>
    </rdf:RDF>
  </metadata>
  <defs
     id="defs14" />
  <sodipodi:namedview
     pagecolor="#ffffff"
     bordercolor="#666666"
     borderopacity="1"
     objecttolerance="10"
     gridtolerance="10"
     guidetolerance="10"
     inkscape:pageopacity="0"
     inkscape:pageshadow="2"
     inkscape:window-width="1366"
     inkscape:window-height="715"
     id="namedview12"
     showgrid="false"
     inkscape:zoom="0.5517246"
     inkscape:cx="654.83516"
     inkscape:cy="215.70034"
     inkscape:window-x="-8"
     inkscape:window-y="-8"
     inkscape:window-maximized="1"
     inkscape:current-layer="svg10"
     inkscape:document-rotation="0" />
  <path
     id="path3662-8"
     d="m 160.28657,84.618645 c -7.2943,-0.0086 -14.49166,4.680193 -14.28737,14.075183 1.98622,94.249512 3.39014,188.493772 3.4467,282.743242 v 38.22709 c 0,16.45585 -0.63958,35.01731 -12.83577,47.7351 -12.19612,12.72226 -29.17625,15.11416 -45.162695,13.88846 -0.566084,-0.11215 -1.143933,-0.11215 -1.715151,-0.17812 -0.122057,-0.053 -0.200844,-0.094 -0.687371,-0.22886 l -3.964335,-0.69639 c -2.451514,-0.52597 -4.900355,-1.17633 -7.351719,-1.87607 -2.451378,-0.70022 -3.263793,-0.98811 -4.898099,-1.57057 l -2.691412,-0.76403 c -2.334054,-0.8736 0,0.009 -1.222063,-0.51758 -19.720265,-8.8669 -33.787731,-25.3279 -33.787731,-48.3209 -0.217481,-8.22787 1.521485,-16.38847 5.076833,-23.8123 2.194944,-4.57684 5.022871,-8.82072 8.404371,-12.60656 1.508221,-1.73424 3.130252,-3.36834 4.847231,-4.89824 0.756303,-0.69948 5.827878,-4.67118 2.037687,-1.86773 3.251232,-2.03414 5.605139,-5.22724 6.578788,-8.93917 0.978053,-3.70753 0.506233,-7.65052 -1.323959,-11.019 -1.999432,-3.33817 -5.246959,-5.74621 -9.024125,-6.69809 -3.772864,-0.9519 -7.765924,-0.36906 -11.112753,1.6214 -16.634108,12.00948 -28.33138,29.65964 -32.912545,49.66219 -2.8948455,13.18296 -2.504864,26.86953 1.1374768,39.86553 3.6423582,12.99611 10.4354692,24.89963 19.7631652,34.65318 11.518268,10.90537 25.446504,18.93584 40.655013,23.43888 15.208337,4.5029 31.273783,5.35189 46.869033,2.4788 12.82233,-2.07765 24.83556,-7.58025 34.78043,-15.93427 9.94467,-8.35396 17.45192,-19.24195 21.70731,-31.51221 5.83726,-16.92523 5.83205,-35.01713 5.83205,-52.98991 0,-37.6233 -0.13861,-75.22952 -0.4085,-112.81379 -0.58653,-65.71035 -1.53946,-131.39838 -2.86078,-197.069601 -0.20463,-9.366756 -7.59598,-14.068153 -14.89032,-14.075203 z m 548.3214,0.780938 c -15.2611,-0.250822 -30.57801,1.643013 -45.49403,5.704818 -4.81148,1.238954 -7.75627,4.146912 -9.21919,7.640365 -0.15244,0.32889 -0.25231,0.702483 -0.38266,1.05258 -0.11216,0.347854 -0.24783,0.688114 -0.33043,1.044294 -0.36527,1.29266 -0.62822,2.66295 -0.62822,4.21064 v 179.76849 c 0,0.11983 0,0.2372 0,0.35618 v 198.68262 c 0,18.78993 29.17767,18.78993 29.17767,0 V 306.12848 c 22.95079,7.49833 47.74282,8.33027 71.4199,2.12234 14.94325,-4.04225 28.89076,-11.14367 40.94342,-20.85815 12.053,-9.71443 21.96036,-21.82635 29.08434,-35.56999 14.35209,-28.30876 16.87481,-61.16274 7.00415,-91.32744 -4.96385,-15.06065 -13.47039,-28.70539 -24.79736,-39.79767 -11.47907,-10.262 -24.75678,-18.31962 -39.16127,-23.761404 -18.46396,-7.351858 -37.9953,-11.214065 -57.61632,-11.536891 z M 583.9943,86.443839 c -7.29477,-0.0086 -14.59335,4.692239 -14.59335,14.117631 0.39101,70.0265 0.39101,140.06131 0,210.09213 0,23.34076 -0.25236,46.68288 -0.75553,70.02793 0.66535,16.98178 0.0825,33.98535 -1.74865,50.88454 -2.33404,13.1308 -7.58769,25.32905 -19.61014,32.15743 -5.87639,3.24247 -12.3818,5.19578 -19.07545,5.72169 -6.69363,0.5214 -13.41802,-0.39178 -19.72909,-2.6826 -0.43044,-0.15535 -0.3698,-0.1084 -0.5267,-0.15295 -0.21747,-0.11745 -0.16439,-0.1084 -0.58577,-0.32283 -1.2257,-0.63884 -2.45176,-1.27819 -3.61671,-1.97797 -2.9468,-1.61258 -5.68471,-3.57173 -8.16657,-5.84063 -4.92466,-4.63764 -8.99548,-10.10886 -12.02066,-16.16356 -4.98122,-10.55754 -8.13832,-21.88477 -9.33816,-33.49858 -3.96824,-31.39476 -1.74797,-63.31699 -4.49074,-94.8335 -3.26859,-36.94087 -12.01848,-73.81708 -31.86027,-105.56388 -8.37566,-13.67849 -19.71884,-25.29781 -33.19293,-33.99956 -13.47857,-8.69729 -28.73257,-14.24903 -44.64509,-16.24844 -27.15696,-3.28157 -54.70554,-0.679 -80.76697,7.64034 -17.97286,5.3723 -10.32221,33.56223 7.76794,28.13348 l -0.41751,-0.81502 c 20.98483,-6.93697 43.16504,-9.51928 65.18017,-7.58945 12.70916,0.97798 24.98672,5.05668 35.74858,11.88501 10.76631,6.82839 19.69141,16.19239 25.99386,27.27595 18.8463,31.10358 25.61213,67.05178 27.59854,102.94078 1.75161,31.98159 0,64.18889 5.83204,95.99656 5.83731,29.8213 22.11415,58.35749 51.2922,70.02793 31.04281,12.43094 71.01628,0 87.53288,-29.17761 11.67036,-20.48511 11.09011,-44.06076 11.6726,-66.81897 0.29099,-21.12835 0.58194,-42.24833 0.75554,-63.37233 0.73882,-77.81108 0.85178,-155.72397 0.3478,-233.72625 0,-9.397119 -7.29032,-14.11063 -14.58473,-14.117688 z m 121.71898,27.955091 c 11.62204,-0.0782 23.25114,1.33662 34.60194,4.25306 24.21446,6.82838 47.55743,19.07731 58.76268,42.53976 20.88918,42.77392 0,97.87132 -43.88104,115.49631 -13.02658,5.04629 -26.99136,7.19077 -40.93491,6.27365 -11.25393,-0.74038 -22.25725,-3.49526 -32.53108,-8.04783 V 116.75899 c 7.92712,-1.48313 15.94909,-2.30597 23.98241,-2.36006 z M 312.10014,254.69245 c -8.83126,-0.28343 -17.68677,1.15823 -26.05386,4.30409 -1.05965,0.32964 -2.05573,0.80682 -3.00511,1.34972 -0.1439,0.0681 -0.3001,0.0983 -0.44105,0.16985 -34.71985,15.64302 -48.07707,59.46824 -52.51492,94.01858 -4.84197,37.75802 -0.53049,82.22461 24.27096,112.74572 7.95402,9.54929 18.39654,16.73596 30.16253,20.74785 11.76166,4.01617 24.40204,4.70679 36.53745,2.01192 19.31588,-4.0857 34.37574,-18.2014 44.58571,-34.48345 21.24127,-33.78962 26.02111,-78.32065 20.53592,-117.12619 -2.41675,-21.19356 -10.47602,-41.3515 -23.33743,-58.36376 -8.94506,-11.16174 -21.19257,-19.20308 -34.9841,-22.98889 -5.17175,-1.4196 -10.45713,-2.21554 -15.7561,-2.38544 z m -2.85262,29.38129 c 5.31584,-0.091 10.59771,0.86685 15.54398,2.81845 2.37316,1.06056 4.65205,2.31377 6.82539,3.74376 l 1.07829,0.73886 c -0.20463,-0.21901 -0.0824,-0.21369 0.96765,0.66232 2.56005,2.17761 4.9318,4.55394 7.1139,7.11399 0.52594,0.69947 1.05004,1.40416 1.5194,2.16477 0.46532,0.7563 1.92687,2.97391 2.86149,4.49081 1.92093,3.14691 3.61565,6.42355 5.07612,9.80513 -0.81707,-1.92554 0.872,2.33098 1.16315,3.2089 0.6434,1.86467 1.28665,3.73283 1.80815,5.83221 1.16916,3.85098 2.16282,7.81731 2.97988,11.67267 1.56057,7.42818 2.42454,14.99656 2.57232,22.5899 0.34784,8.95381 0.0529,17.92408 -0.88322,26.84306 -1.88196,15.05193 -5.80903,29.77921 -11.67236,43.77058 -1.51708,3.20774 -3.14958,6.35524 -4.95771,9.38918 -0.99118,1.57775 -1.92388,3.15214 -2.97132,4.66906 l -1.57898,2.22415 c -1.51701,2.15594 0.46454,-0.52969 -0.52666,0.69644 -2.02976,2.46879 -4.23606,4.7884 -6.59618,6.94426 -0.40849,0.36522 -2.24752,1.81779 -2.52141,2.08832 -1.24614,0.87212 -2.5101,1.71791 -3.83705,2.46187 -8.18461,4.46389 -17.77779,5.61701 -26.78362,3.20895 -4.36382,-1.15622 -8.49858,-3.03119 -12.2497,-5.5435 -0.68278,-0.43421 -1.348,-0.90087 -1.98677,-1.40062 -1.39952,-1.2822 -2.74193,-2.51115 -4.02388,-3.8542 -1.28672,-1.33866 -3.27227,-3.73448 -2.57237,-2.86086 0.69948,0.87805 -1.45349,-2.03786 -1.91862,-2.74201 -2.1819,-3.1816 -4.13663,-6.51068 -5.8403,-9.97488 -1.25617,-2.44709 -2.29011,-5.00635 -3.09,-7.64038 -1.39093,-3.98571 -2.57483,-8.03652 -3.55711,-12.13965 -1.86478,-7.36299 -3.0208,-14.89076 -3.44691,-22.47099 -0.61307,-8.64519 -0.61307,-17.32345 0,-25.9687 0.50393,-8.89726 1.83907,-17.72222 3.9732,-26.37609 1.1084,-4.49428 2.38541,-8.98812 3.84569,-13.42156 0.70022,-2.16017 1.45788,-4.25906 2.27513,-6.35844 l 1.11176,-2.8099 c -0.7563,1.80814 0,-0.52441 0.58579,-1.16301 1.86477,-3.85539 3.78939,-7.5896 5.83213,-11.20589 l 3.38739,-5.07651 2.09663,-2.45344 c 1.22567,-1.46045 2.57052,-2.79965 3.91365,-4.14275 1.33861,-1.33873 3.96956,-3.44334 3.20888,-2.86087 -0.75631,0.58653 2.56445,-1.68977 3.43827,-2.2157 0.64719,-0.39481 1.34633,-0.69265 2.01186,-1.05271 0.12667,-0.0304 0.25614,-0.0229 0.38267,-0.0604 4.87672,-2.12112 10.12591,-3.25783 15.4417,-3.34476 z"
     style="fill:#7f529a;fill-opacity:1;stroke:none;stroke-width:6.91296;stroke-miterlimit:4;stroke-dasharray:none;stroke-opacity:1"
     inkscape:export-filename="C:\Users\Mateus Emanuel\Documents\Faculdade\Projeto Integrado IV\pj4-front\src\images\joupLogo.png"
     inkscape:export-xdpi="95"
     inkscape:export-ydpi="95" />
</svg>
