<svg width="203" height="174" viewBox="0 0 203 174" fill="none" xmlns="http://www.w3.org/2000/svg">
<path d="M129.648 118.006C127.318 115.43 128.176 117.148 127.563 116.78C126.214 115.185 125.968 114.694 125.968 114.572C125.968 114.326 126.214 114.449 125.968 113.836C124.374 111.75 123.147 110.156 122.411 108.438C122.411 108.316 122.289 107.948 122.534 108.316C121.798 107.089 121.185 105.126 120.571 103.041C119.958 100.956 119.59 98.7475 118.977 97.1529C118.977 96.9075 118.977 96.7849 118.977 96.6622C118.854 97.2756 118.609 97.3982 118.486 97.2756C118.118 95.6809 117.505 94.3315 117.75 93.7182C117.996 94.6995 118.118 94.6995 118.241 95.1902L117.75 93.4728C117.75 91.8782 118.486 95.6808 118.732 95.6808C118.486 94.8222 118.241 93.9635 117.996 93.1048C117.75 92.2462 117.382 91.3875 117.137 90.6515C116.524 89.0568 116.156 87.4622 115.665 86.2355C115.788 85.8675 116.401 87.3395 116.646 88.4435C117.014 89.5475 117.26 90.2835 116.892 88.5661L117.873 92.4915C117.628 89.3021 118.486 94.8222 118.364 92.0008C117.014 86.8488 116.524 86.3581 114.561 81.3288C113.825 80.3474 114.439 81.8194 113.703 80.8381C113.212 79.9794 112.844 79.2434 112.599 78.6301C112.231 78.0167 111.986 77.5261 111.74 77.0354C111.25 76.1767 111.004 75.4407 110.882 74.8273C110.514 73.6006 110.023 72.742 108.183 70.534C107.57 70.0433 107.202 69.798 106.589 69.1846C105.975 68.694 105.239 67.7126 104.135 66.2406L105.362 66.9766C102.05 63.0513 102.909 65.2593 99.5972 61.0886C100.333 61.7019 102.418 63.9099 101.928 63.2966C99.8425 60.4752 100.088 61.7019 98.3706 59.7392V59.0032C94.6909 55.0779 90.7659 50.7845 87.5768 45.7551C87.8222 46.0005 88.5581 46.7365 87.8222 45.5098C87.5769 45.1418 87.3315 44.7738 87.0862 44.2831C86.8409 43.9151 86.5956 43.4244 86.3503 43.0564C85.8596 42.1977 85.4917 41.339 85.001 40.4804C84.1424 38.763 83.4065 36.923 82.6706 35.083C82.0573 33.243 81.444 31.403 80.8307 29.563C80.2174 27.723 79.8495 25.8829 79.4815 24.1656L78.5003 21.5896C78.3776 20.9762 78.3776 20.3629 78.6229 21.0989C78.1323 18.2775 78.3776 20.9762 77.887 19.7496C77.519 18.1549 77.6417 17.6642 78.0096 18.6455C77.2737 16.3148 76.5378 12.7575 75.6792 9.32279C75.1885 7.60544 74.6979 5.76544 74.0846 4.0481C73.7166 3.18942 73.3487 2.33075 72.6127 1.59474C71.9995 0.858734 71.0182 0.24538 70.0369 0.122713C70.5276 0.122713 71.0182 0.245365 71.5088 0.490701C70.8955 0.122698 70.1596 0 69.5463 0C68.9331 0 68.4424 0.122683 68.0744 0.24535C67.2158 0.613354 66.7252 0.981357 66.2346 1.47203C65.2533 2.3307 64.6401 3.18942 63.2908 4.66143C63.4135 4.4161 63.5361 4.17076 63.6588 4.0481C60.715 7.60546 58.7525 12.1442 57.7713 16.6829C56.9127 21.2216 56.9127 25.3923 56.9127 28.9496C57.158 29.563 57.4033 31.771 57.7713 33.979C58.1393 36.0643 58.6299 38.1497 58.9979 38.2724C59.4885 40.8484 59.7338 41.707 59.9791 42.9337C60.2244 44.0377 60.5924 45.5098 62.0643 48.9445C62.9229 50.7845 63.7815 51.3978 65.008 53.4832L64.7627 53.7285C65.376 54.5872 65.9893 55.4459 66.4799 56.3045C66.6026 56.9179 66.6025 57.4085 66.6025 57.8992C66.8479 58.5125 67.0932 59.1259 67.2158 59.8619C67.0932 59.1259 66.9705 58.1445 67.0932 58.2672C67.7065 59.7392 67.8291 61.8246 67.5838 63.2966C67.3385 64.7686 66.7252 65.8726 66.7252 65.8726C66.3572 66.9766 65.8666 68.2033 65.2533 69.1846C64.6401 70.2886 63.6588 71.1473 62.9228 72.006C62.9228 71.7606 63.7815 70.902 64.3947 70.0433C63.1682 71.638 62.9229 71.638 62.8002 71.638C62.6776 71.638 62.5549 71.638 61.083 72.8647C61.5736 72.6193 60.9604 73.2327 60.9604 73.3554C60.1018 73.7234 58.7525 74.4594 57.158 74.95C55.5635 75.5634 53.7236 76.0541 52.1291 76.4221L52.6197 76.054C46.9775 77.2807 40.2314 77.6487 33.6079 76.9127C35.9384 77.2807 35.4478 77.6487 33.4853 77.526L32.7493 77.0354C31.5228 77.1581 34.7118 77.4034 32.136 77.4034C29.6829 77.0354 30.5415 76.6674 32.0134 76.7901C31.0321 76.6674 30.0509 76.5447 28.947 76.4221C28.8243 76.2994 29.5602 76.2994 29.6829 76.1767C29.0696 76.1767 27.7204 75.9314 26.3712 75.5634C24.8993 75.318 23.3048 75.0727 22.3235 75.318L22.0782 75.1954C20.2383 75.1954 18.5211 75.5634 17.0493 76.1767C15.5774 76.7901 14.3508 77.6487 13.4922 78.6301C12.511 79.6114 11.775 80.5927 11.1618 81.8194C10.5485 82.9234 9.93519 84.1501 9.56722 85.6221C9.68988 85.7448 9.56721 86.3581 9.44456 87.2168C9.3219 88.0755 9.3219 89.0568 9.44456 90.0382C9.44456 92.2462 9.56722 94.2088 9.19925 96.2942C8.83128 98.3795 8.21799 100.465 6.99143 102.182C6.13283 103.532 5.88751 103.654 6.01017 103.777C6.01017 103.9 6.25549 103.777 5.88752 104.39C5.64221 104.39 4.78361 105.249 4.04767 105.985C3.43439 106.721 2.94376 107.212 3.6797 106.108C2.69845 107.334 1.96251 108.561 1.59454 109.788C1.22657 110.892 0.981261 111.996 0.735947 113.1C0.613291 114.204 0.490623 115.553 0.858593 116.902C1.10391 118.374 1.7172 119.724 1.96251 121.441C1.96251 120.705 1.83985 119.846 2.08516 120.214C2.45313 121.441 2.33048 123.158 2.20782 123.036L2.08516 122.668C2.33047 124.63 2.45314 126.838 2.20782 129.046C2.08517 130.15 1.83985 131.255 1.59454 132.236C1.34923 133.34 0.858589 134.321 0.490619 135.548C0.122649 136.775 0 138.124 0 139.351C0 140.577 0.12266 141.681 0.367974 142.908C0.8586 145.239 2.08516 147.201 3.06642 148.428L2.82111 148.183C4.17033 150.145 5.3969 151.863 6.2555 153.825C6.74612 155.297 6.50081 154.807 6.2555 154.316C6.01018 153.825 5.6422 153.212 6.01017 154.316C7.48205 157.628 7.97268 160.449 7.97268 163.025C7.97268 164.375 7.85003 165.601 8.09535 167.319C8.218 168.178 8.58596 169.159 9.07658 169.895C9.56721 170.631 10.3032 171.244 11.1618 171.735C12.2657 172.716 14.1055 173.452 16.1907 173.698C18.2758 173.943 20.6063 173.943 22.8141 173.575C27.3524 172.962 31.8907 171.735 35.0798 171.244L34.7118 171.122C36.3064 170.508 36.6743 170.754 37.9009 170.386C37.6556 170.263 36.0611 170.754 37.0423 170.263C39.3728 169.527 41.7033 168.791 44.0337 168.055L43.5431 168.178C43.6658 168.178 43.7884 168.177 43.9111 168.055H44.0337H44.1564L44.4017 167.932L44.8923 167.81L45.8736 167.564L47.7134 166.951C48.94 166.583 50.1666 166.092 51.5158 165.724C53.9689 164.865 56.5447 163.884 58.9979 162.78C60.2244 162.167 61.451 161.553 62.6776 160.94C63.9041 160.204 65.1307 159.468 66.2346 158.241C66.7252 157.628 67.3385 156.892 67.7065 155.911C67.8291 155.665 67.8291 155.42 67.9518 155.175L68.0744 154.684L68.1971 153.703C68.1971 152.967 68.3198 152.353 68.3198 151.617V150.636C68.3198 150.023 68.3198 149.409 68.3198 148.796C68.3198 147.937 68.0744 147.447 67.4612 147.201C66.8479 146.956 66.3572 146.711 65.6213 146.711C64.6401 146.711 63.6588 146.588 62.6776 146.588C59.9791 146.465 59.2432 146.833 58.3846 147.079C57.4033 147.324 56.4221 147.447 52.9877 147.324L54.8275 146.833C44.1564 147.692 32.872 148.673 22.8141 151.617C23.4274 151.372 23.4274 151.249 24.4087 151.004C22.2008 151.127 16.436 152.967 16.436 153.335C14.9641 153.703 15.8227 153.335 15.2094 153.457L16.3133 156.647H16.436C18.5211 156.156 21.4649 154.684 22.6915 154.684C22.9368 154.684 22.0782 154.929 21.7102 155.052C23.0594 154.561 28.0884 153.58 26.7392 153.457C30.5415 152.844 33.9759 151.863 37.0423 151.617C39.0048 150.881 43.6658 151.127 44.1564 150.513C44.1564 150.636 44.1564 150.636 44.4017 150.636C44.5244 150.636 44.4017 150.636 44.647 150.636C44.7697 150.636 44.8923 150.636 45.1376 150.636C45.7509 150.636 46.7322 150.636 47.8361 150.636C49.9213 150.636 52.2517 150.391 53.4783 150.268C52.6197 150.513 55.6861 150.391 54.7049 150.636C57.526 150.513 60.1018 150.391 59.6111 150.145C60.9604 150.268 62.1869 150.268 63.5361 150.268C64.1494 150.268 64.7627 150.268 65.376 150.145C65.7439 150.145 66.1119 150.145 66.3573 150.023C66.4799 150.023 66.6025 150.023 66.7252 150.023L67.0932 149.9C67.3385 149.777 67.4612 149.777 67.5838 149.655C69.9143 148.551 71.5088 146.956 72.858 145.975C74.3299 144.135 75.3112 141.927 75.8018 139.841C76.2924 137.633 76.4151 135.425 75.9245 133.34C75.6791 132.236 75.1885 131.132 74.5752 130.273C73.9619 129.292 72.9807 128.433 71.7541 128.065C69.4237 127.329 67.4612 127.697 65.6213 127.943C65.744 127.697 67.8291 127.329 70.0369 127.452C71.1409 127.574 72.4901 127.943 73.226 128.556C73.962 129.047 74.3299 129.537 74.4526 129.292C73.7167 128.433 72.6127 127.697 71.5088 127.452C71.0182 127.329 70.5276 127.206 70.0369 127.206C69.5463 127.206 69.1783 127.206 68.6877 127.206C67.0932 127.329 65.6213 127.574 64.2721 127.697C61.451 128.188 58.7525 128.556 55.1955 128.801C53.3556 128.924 56.1767 128.433 56.79 128.311C49.7986 129.169 43.1751 129.047 36.797 129.169C36.797 129.169 37.5329 129.046 38.1462 129.046C36.9197 129.046 35.2024 128.924 35.4478 129.169H36.6743C38.6368 129.537 31.6454 129.783 31.5228 129.905C33.7306 129.292 25.2673 129.415 28.7016 128.678C27.8431 128.678 26.8618 128.801 26.9845 128.924C25.7579 128.801 25.3899 128.679 26.6165 128.556C22.2008 128.433 23.6727 128.801 19.6251 128.556C19.6251 128.433 20.4837 128.433 20.8516 128.311C19.8704 128.311 18.7665 128.433 17.5399 128.433C16.9266 128.433 16.3133 128.433 15.5774 128.433C15.2094 128.433 14.8415 128.433 14.4735 128.311C14.2282 128.311 14.1055 128.311 13.8602 128.311H13.7375C13.7375 128.311 13.7375 128.31 13.7375 128.433V128.556C13.8602 128.679 13.8602 128.924 13.8602 129.046C13.8602 129.169 13.7376 129.292 13.6149 129.292C13.6149 129.292 13.8602 129.292 13.8602 129.414C13.9829 129.537 13.8602 129.783 13.7375 129.905C13.7375 130.028 13.6149 130.028 13.6149 130.151C13.6149 130.273 13.6149 130.151 13.6149 130.151H13.7375C13.6149 130.151 13.7376 130.273 13.6149 130.273V130.028C13.6149 129.905 13.7375 129.905 13.7375 129.783C13.8602 129.66 13.8602 129.415 13.7375 129.292C13.7375 129.169 13.3696 129.169 13.6149 129.169C13.7376 129.169 13.8602 128.924 13.8602 128.801C13.8602 128.678 13.7375 128.556 13.7375 128.556C13.6149 128.556 13.7375 128.188 13.7375 128.311C13.7375 128.311 13.7375 128.311 13.8602 128.311C13.9829 128.311 13.9829 128.311 14.1055 128.311H13.8602H13.7375C13.7375 128.311 13.7375 128.188 13.7375 128.433V128.556V128.678C13.7375 128.678 13.8602 128.801 13.8602 128.924C13.8602 129.047 13.8602 129.169 13.8602 129.292C13.7375 129.415 13.6149 129.414 13.6149 129.414C13.7376 129.414 13.8602 129.415 13.8602 129.537C13.8602 129.66 13.8602 129.783 13.8602 129.905C13.8602 130.028 13.6149 130.028 13.7375 130.396C13.8602 130.519 13.9829 130.396 14.2282 130.396C14.5961 130.396 14.9641 130.396 15.2094 130.396C15.9454 130.396 16.5586 130.396 17.1719 130.396C18.5212 130.396 19.7477 130.396 21.0969 130.396C23.6727 130.396 26.3712 130.396 29.5603 130.641C27.5978 131.132 31.7681 130.887 32.136 131.377H35.5704L34.2212 131.132C37.2876 131.255 39.9861 131.009 42.5619 131.254L40.2314 131.377H45.9962L42.8072 131.132C45.8736 131.009 42.4392 130.519 46.4869 130.764C45.6283 130.764 49.5533 130.764 51.1478 131.009C52.6197 130.887 54.2142 130.764 56.4221 130.764C57.0353 130.887 55.9314 131.255 56.2994 131.377C57.7713 131.009 63.4135 131.255 65.376 130.886C64.7627 131.009 64.7627 131.254 64.8854 131.254L66.1119 130.886C67.5838 131.009 67.7065 131.009 67.4612 131.254C71.7541 131.254 66.1119 130.641 71.1409 130.886C70.7729 130.886 70.8956 131.009 70.1596 131.009C70.7729 131.009 71.3862 131.009 71.9995 131.009H73.226C73.3487 131.009 73.3487 130.886 73.4713 130.886L73.7167 130.641L74.0846 130.151C74.9432 129.169 75.6792 128.188 76.2924 127.084C76.9057 125.98 77.2737 124.753 77.519 123.526C77.6417 122.3 77.3964 120.95 76.9057 119.846C76.7831 119.478 76.9057 119.478 77.151 119.724C77.2737 119.846 77.3964 120.092 77.519 120.337C77.6417 120.582 77.6416 120.828 77.7643 121.073C78.1323 122.177 78.0096 123.281 78.2549 122.422C78.1323 120.46 77.0284 118.497 75.5565 117.393C74.0846 116.166 72.4901 115.308 70.8955 114.572C67.5838 113.222 64.2721 112.364 61.2057 111.382L62.3096 111.75C61.3283 112.118 57.7713 110.156 54.4595 109.542C55.1955 109.665 55.5635 109.42 55.3182 109.542C51.0252 108.316 46.4869 107.334 39.9861 105.74H40.8446C38.3915 104.881 34.2212 103.9 31.5228 103.041C30.6642 103.041 29.0696 102.55 30.0509 103.041C26.7391 101.692 23.4274 100.833 20.2383 100.097L19.7477 101.569C24.4087 103.164 28.8243 104.513 32.9946 106.476C32.136 106.23 30.9095 105.862 31.5228 106.108C33.6079 106.721 35.6931 107.457 37.7782 108.07C37.4103 107.58 37.0423 107.58 35.8157 106.966C36.6743 107.089 38.5142 107.58 39.9861 108.07C37.165 107.334 39.8634 108.561 41.09 109.052C40.9673 108.929 41.3353 108.929 41.3353 108.806C44.5244 110.278 42.0712 108.438 46.4869 110.033L46.2416 110.156C47.9588 110.524 49.5533 110.769 51.3931 111.26C52.1291 111.75 49.5533 110.892 49.308 111.137C51.8838 111.873 54.5822 111.873 56.79 112.732C55.6861 112.609 54.0916 112.241 52.9877 111.996C55.4408 112.977 55.8088 112.977 57.6486 113.468H57.4033C58.8752 113.836 60.3471 114.204 61.8189 114.572L60.715 114.204C62.4322 114.081 64.1494 114.326 65.9893 114.572C67.8291 114.817 69.7916 115.185 72.1221 114.94C67.7065 115.308 71.3862 115.185 71.0182 115.553C72.1221 115.798 73.962 115.798 73.4713 115.921C74.5752 115.676 75.5565 115.676 76.5377 115.43C77.0284 115.308 77.6416 115.185 78.2549 114.817C78.6229 114.694 78.8682 114.449 79.2362 114.204C79.4815 113.958 79.8495 113.59 80.0948 113.222C80.2174 113.222 80.5854 112.609 80.9534 112.118C81.1987 111.628 81.3214 111.137 81.444 111.382C81.6893 110.524 81.5667 110.156 81.5667 110.033C81.5667 109.91 81.5667 110.156 81.444 110.401C81.3214 111.014 80.9534 111.873 80.9534 111.75C81.6893 109.297 80.9534 106.598 79.8495 104.022C79.3589 102.673 78.5003 101.324 77.519 100.22C76.5378 98.9929 75.4338 98.0116 74.0846 97.0302C71.9994 95.3129 70.5276 94.5768 69.1783 93.8408C67.8291 93.1048 66.4799 92.4915 64.2721 91.3875C62.9229 90.4061 65.6213 91.6328 65.6213 91.6328C63.4135 90.1608 61.5736 89.1795 59.2431 88.1981C59.7338 88.3208 59.3658 88.0755 58.6299 87.5848C56.79 86.7261 57.2807 87.3394 54.8275 86.1128C55.3182 86.2354 55.9314 86.2354 56.9127 86.4808C54.7049 85.6221 52.497 84.8861 50.1666 84.0274C49.6759 83.5367 51.6384 84.2728 52.497 84.5181C49.9212 83.5368 45.7509 82.0648 44.7697 82.0648L46.3642 82.8007C45.3829 82.4327 45.9963 82.3101 46.7322 82.5555C49.0627 83.1688 49.9213 83.9047 49.9213 84.0274L48.204 83.4141C49.6759 84.7634 54.8275 85.9901 57.894 87.5848L56.2994 87.4622C57.4033 87.8302 58.6299 88.1982 59.7338 88.6888C60.3471 89.1795 60.7151 89.6701 59.1205 88.9341C61.2057 90.2835 61.2057 89.7928 62.9228 91.0195C63.1682 91.1422 63.0455 91.1422 62.8002 91.0195L65.008 92.1235C64.5174 92.0009 65.1307 92.6142 63.9041 91.8782C67.5838 94.3315 70.1596 95.4356 71.1409 96.6622L70.7729 96.4169C73.226 98.2569 73.3487 98.3796 73.3487 98.2569C73.3487 98.1342 73.3487 97.7662 75.1885 99.3609C75.6791 100.342 76.0471 101.324 76.4151 102.305C76.6604 102.428 76.783 102.428 77.0284 102.55C77.151 102.796 77.3963 103.164 77.6416 103.532C77.7643 103.9 77.887 104.145 77.7643 104.022C78.9909 105.985 77.7643 103.532 78.5003 104.758C78.9909 106.23 79.7268 108.193 79.6042 110.033C79.6042 110.892 79.2362 111.75 78.8682 112.241C78.6229 112.486 78.5002 112.609 78.3776 112.732C78.1323 112.854 78.0096 112.854 77.887 112.854C77.6417 113.345 78.1323 112.977 78.5003 112.609C78.6229 112.486 78.7456 112.364 78.7456 112.486C78.7456 112.609 78.5003 112.854 77.887 113.468C77.2737 113.468 76.6604 113.958 75.5565 114.326C74.4526 114.694 73.1034 114.94 71.6315 114.817C72.4901 114.572 75.0659 114.449 72.3674 114.326C71.5088 114.572 70.1596 114.572 68.8104 114.326C67.3385 114.081 65.8666 113.713 64.7627 113.59C64.64 114.081 59.7338 112.977 55.8088 112.241C56.0541 112.118 48.6947 110.278 45.1376 109.052H45.2603C44.4017 109.297 40.8447 108.193 38.1462 107.334C38.3915 107.089 38.8821 107.212 40.354 107.457L37.9009 106.721C37.2876 106.721 36.429 106.476 34.8345 105.985L35.5704 105.862C32.2587 104.758 28.8243 104.022 24.7766 102.182C24.4087 102.428 27.7204 104.268 23.3048 102.796C23.1821 102.55 23.1821 102.305 24.286 102.55C23.918 102.428 22.9368 102.182 22.2009 101.814L24.0407 102.182C22.2009 101.324 22.9368 102.06 21.4649 101.446C21.5876 101.201 20.361 100.833 20.729 100.71C21.0969 100.833 21.9555 101.324 22.5688 101.446C21.4649 100.956 20.361 100.465 19.5024 100.097L19.0118 101.569C19.6251 101.814 19.993 101.937 20.2383 102.06C20.1157 101.937 20.361 101.692 21.5876 102.06C24.8993 102.918 22.6915 102.673 24.5313 103.286C25.3899 103.286 27.4751 104.022 27.5977 103.777C28.579 104.022 28.7017 104.268 29.0696 104.39C30.7868 104.758 37.165 106.476 35.3251 105.617L34.8345 105.494C34.9571 105.494 34.9571 105.494 35.0798 105.494C40.8447 106.721 46.7322 108.806 52.3744 110.156V110.278C55.8088 111.014 59.8564 112.241 62.3096 112.609C63.2908 112.854 64.5174 113.59 64.0268 113.59C65.2533 113.958 65.9893 114.081 66.8479 114.449C67.7065 114.694 68.6877 115.062 70.2822 116.044C67.8291 115.062 71.0182 116.534 67.8291 115.062C69.4236 115.798 70.2823 116.289 71.1409 116.78C71.9995 117.27 72.9807 117.884 74.2073 118.988C73.7166 118.62 74.0846 119.11 74.4526 119.846C74.8206 120.582 75.1885 121.686 75.1885 122.3C75.3112 121.686 75.1885 120.95 74.9432 120.337C75.6792 121.809 75.4338 123.281 74.9432 124.63C74.9432 124.385 74.8205 124.017 74.8205 123.772C74.3299 125.121 73.4713 126.47 72.6127 127.697C72.3674 127.942 72.2448 128.188 71.9995 128.556C71.8768 128.679 71.8768 128.801 71.7541 128.801C71.6315 128.801 71.6315 128.801 71.5088 128.801H70.8955C70.5276 128.801 70.1596 128.801 69.7916 128.924C66.8479 129.047 64.0268 129.169 61.451 128.801C59.6111 129.046 65.2533 129.046 63.6588 129.292C60.4697 129.292 57.0354 128.678 56.0541 128.678C51.6385 128.433 51.8838 129.292 47.2228 129.169C47.8361 129.292 48.3267 129.783 44.8923 129.783C41.7033 129.66 40.9673 129.046 42.9298 129.046C43.6658 129.046 44.0337 129.047 44.0337 129.169C45.1376 129.169 46.4869 129.047 45.1376 128.924L44.7697 129.046C43.1751 128.924 38.7595 128.801 39.7407 128.556C37.2876 128.679 38.6368 128.801 40.4767 128.924C36.3064 128.556 33.9759 128.678 29.6829 128.433C30.4188 128.556 31.0321 128.678 30.2962 128.678C24.0407 128.188 27.4751 128.801 23.3048 128.678C20.8516 128.31 24.1634 128.188 19.8704 128.188C17.2946 127.942 19.3798 127.82 20.361 127.697C18.3985 127.697 16.5586 127.574 14.9641 127.452C14.5961 127.452 14.1055 127.329 13.7375 127.329C13.4922 127.329 13.3696 127.329 13.1243 127.329H12.8789H12.7563C12.6336 127.329 12.511 127.329 12.3883 127.452C12.143 127.574 11.775 127.697 11.5297 128.065C11.2844 128.31 11.2844 128.678 11.1618 128.801C11.1618 129.046 11.1618 129.169 11.2844 129.537C11.4071 129.783 11.6524 130.15 11.8977 130.273C12.143 130.396 12.3883 130.519 12.511 130.519H12.6336H12.7563C13.4922 130.641 14.1055 130.764 14.7188 130.764H13.6149C13.2469 130.764 13.0016 130.764 12.511 130.764C13.7375 130.887 14.8415 130.887 15.9454 131.009L14.8415 130.641C16.068 130.764 17.0493 130.887 17.0493 131.009C18.2758 130.887 16.068 130.519 18.6438 130.396C20.2383 130.641 23.5501 130.518 24.0407 130.886C19.0118 130.518 24.5313 131.255 20.2383 131.132C21.0969 131.132 22.0782 131.132 23.3048 131.254C23.4274 131.254 23.1821 131.377 22.8141 131.377C27.5978 131.991 25.022 131.132 30.0509 131.254C29.4376 131.5 31.1548 131.745 32.0134 131.745C29.9282 131.623 31.0321 131.377 32.872 131.254C36.0611 131.5 36.429 131.254 38.0236 131.254L36.061 131.132C36.6743 130.887 38.3915 131.009 40.5994 130.886C40.8447 131.009 38.5142 131.009 39.3728 131.132C41.8259 130.764 45.015 131.5 48.572 131.132C50.1666 131.255 48.6947 131.5 50.1666 131.623C54.0916 131.132 54.4596 131.623 58.5072 131.009C57.2807 130.887 57.158 130.887 59.9791 130.396C57.7713 130.764 55.5635 131.009 53.233 131.254C54.7049 131.009 56.0541 130.764 57.526 130.396C55.4408 130.641 53.233 131.009 52.0064 131.009C54.0916 130.641 53.8463 130.764 52.865 130.519C55.6861 130.764 58.3846 129.782 61.5737 129.66V130.396C64.0268 130.273 66.1119 129.905 68.1971 129.783C69.1784 129.783 70.1596 129.905 70.8955 130.641C71.6315 131.254 72.2448 132.481 72.4901 133.831C72.4901 133.217 72.2448 132.727 72.1221 132.113C72.3674 132.359 72.7354 133.217 72.858 134.199C72.9807 135.18 72.9807 136.407 72.858 137.388C72.6127 137.143 72.3674 138.369 71.9995 139.105C72.1221 139.105 71.8768 140.087 71.3862 141.191C71.0182 142.295 70.4049 143.276 70.4049 143.644C69.7916 144.257 69.1783 144.871 68.4424 145.361C67.5838 146.097 66.8479 146.588 66.1119 146.956C65.7439 147.201 65.4987 147.324 65.1307 147.569C65.008 147.692 64.8854 147.692 64.3947 147.815C62.9229 148.06 61.5737 148.305 59.1205 148.305C60.5924 148.06 58.3846 147.937 61.5737 147.569C59.9791 147.569 58.5072 147.569 58.5072 147.815C57.526 147.692 53.9689 148.305 52.497 148.06C51.7611 148.183 51.6385 148.428 49.7986 148.428C49.5533 148.428 49.7986 148.305 49.7986 148.305C49.7986 148.428 46.9775 148.551 48.572 148.796C47.3455 148.673 45.8736 148.551 44.1564 148.551C43.7884 148.551 43.4205 148.551 42.9298 148.551C42.5619 148.551 42.0712 148.673 41.7033 148.673C40.8447 148.796 39.9861 148.796 39.1275 148.919C35.6931 149.287 32.3814 149.9 30.1735 149.9C26.6165 150.636 22.4462 151.617 19.3798 152.476C19.5024 152.353 19.3798 152.353 19.993 152.231C16.1907 153.089 17.1719 153.457 14.3508 154.439L14.5961 155.052C14.9641 154.929 15.5774 154.807 16.3133 154.561C18.8891 154.193 13.8602 155.543 15.4547 155.175C16.3133 155.665 21.2196 153.457 24.654 153.212L23.918 153.457C26.4938 153.089 30.0509 151.863 34.2212 151.249C34.2212 151.249 33.9759 151.372 34.2212 151.372C37.0423 150.513 42.4392 149.655 46.4869 149.287C45.2603 149.655 44.647 149.655 45.5056 149.9C47.3455 149.655 44.8923 149.409 48.572 149.041C49.7986 149.164 52.3744 149.164 52.7424 149.532L49.308 149.777C51.0252 150.145 53.7236 149.532 55.5634 149.532L55.3182 149.777C57.8939 149.655 59.2432 149.532 60.5924 149.409C61.3283 149.409 61.9416 149.287 62.9228 149.287C63.2908 149.287 63.6588 149.287 64.0268 149.287C64.2721 149.287 64.3948 149.287 64.6401 149.287C64.7627 149.409 64.64 149.655 64.7627 149.9L64.8854 149.409C64.8854 149.532 65.008 149.655 65.008 149.777C65.1307 150.268 65.1307 150.636 65.1307 151.004C65.1307 151.372 65.1307 151.617 65.008 151.985C64.8854 152.599 64.8854 153.212 64.8854 154.684C64.64 155.052 64.5174 155.175 64.2721 155.297C64.1494 156.033 63.0455 157.383 61.5737 158.487C59.9791 159.713 58.1392 160.695 56.4221 161.553C57.2807 160.94 58.6299 160.204 59.9791 159.223C61.3283 158.364 62.6776 157.26 63.2908 156.279C62.6776 156.892 61.451 157.873 60.1018 158.732C58.7525 159.591 57.526 160.204 57.0353 160.572C57.7713 160.204 58.6299 159.591 59.3658 159.345C57.4033 160.817 54.4595 162.412 50.7798 163.761C50.9025 163.393 49.7986 163.639 48.3267 164.13C47.5908 164.375 46.6095 164.62 45.6283 164.988C45.1377 165.111 44.647 165.233 44.1564 165.479L43.4204 165.724L43.0525 165.847H42.8072H42.6845H42.8072C42.8072 165.601 42.8072 166.215 42.8072 166.828L42.4392 165.97C40.4767 166.583 38.5142 167.074 37.5329 167.196C34.2212 168.423 30.7868 169.282 27.2298 170.018C25.3899 170.386 23.5501 170.631 21.7102 170.754C19.8704 170.999 17.9079 170.999 15.9454 170.876C17.2946 171.367 16.6813 171.367 15.8227 171.244C14.9641 171.244 13.8602 170.876 13.9829 171.367C13.1243 171.122 12.511 170.999 12.143 170.754C11.775 170.631 11.6524 170.508 11.5297 170.386C10.7938 169.895 10.1805 169.159 9.9352 168.546C9.68988 167.809 9.56721 167.074 9.68987 166.092C9.81252 165.479 9.81254 165.847 9.9352 166.46C9.9352 167.073 10.1805 167.564 10.1805 167.441C10.0578 166.705 10.0578 166.092 10.1805 165.601C10.1805 165.233 10.3032 164.988 10.3032 164.865C10.4258 164.62 10.5485 164.497 10.5485 163.025C10.3032 163.639 10.1805 161.431 9.81253 158.855C9.93519 160.081 9.9352 161.308 9.9352 162.535C9.56723 159.468 9.32191 158.119 9.19925 156.769C8.95393 155.42 8.83128 154.071 7.3594 151.127C7.72737 151.74 8.09534 152.353 8.34066 152.844C7.97269 152.108 7.60472 151.004 6.86878 149.777C6.2555 148.551 5.3969 147.324 4.66096 146.22C3.92502 145.116 3.31172 144.012 2.94375 143.031C2.57578 142.049 2.33047 141.068 2.08516 140.332C2.08516 139.841 2.20782 139.105 2.45313 140.332C2.33048 139.473 2.33047 138.615 2.33047 137.879C2.33047 137.02 2.57579 136.284 2.82111 135.303C3.31173 133.463 3.80235 131.255 3.92501 129.292C4.04767 127.206 4.04767 125.366 3.92501 123.526C3.80235 121.686 3.55705 119.969 3.18908 118.497L3.55704 118.988C3.18907 117.638 2.57579 116.78 2.69844 115.308C2.8211 115.43 2.94375 115.798 2.94375 115.185C2.94375 114.94 2.8211 114.081 2.94375 113.1C3.06641 112.118 3.31173 111.137 3.6797 110.401C3.55704 110.892 3.55705 111.26 3.43439 111.75C3.92502 110.278 4.53829 109.052 5.39688 108.07C6.13282 106.966 7.11409 105.985 7.97268 104.881C8.83128 103.777 9.56723 102.55 9.9352 101.201C10.4258 99.8515 10.6711 98.3795 10.9164 96.9075C11.1617 96.9075 11.5297 95.4356 11.6524 93.5956C11.6524 91.7555 11.6524 89.7928 11.775 88.5661L11.8977 88.6888C12.143 86.8488 12.7563 85.3768 13.4922 83.7821C14.2282 82.3101 15.2094 81.0834 16.3133 80.2247C17.4172 79.3661 18.7665 78.7527 20.361 78.5074C21.9555 78.262 23.6727 78.3847 25.6352 78.6301C26.7391 78.8754 28.3337 79.3661 30.1735 79.6114C32.0134 79.9794 34.2212 80.2247 36.429 80.3474C40.9673 80.5927 45.8736 80.4701 49.7986 79.9794C48.572 80.1021 49.9212 79.4887 51.2705 79.2434C52.1291 79.1207 53.4783 78.7527 54.4595 78.3847C55.4408 78.0167 56.1768 77.7714 56.0541 78.1394L55.4408 78.3847C56.9127 78.5074 60.715 76.9127 63.1682 74.95V74.0913C63.6588 73.846 64.0268 73.478 64.3947 73.11C64.7627 72.742 65.2533 72.374 65.6213 72.006C66.3572 71.1473 67.0932 70.166 67.7065 69.062C68.9331 66.854 69.5463 64.1553 69.4237 61.7019C69.1784 56.6726 66.4799 52.8698 65.9893 51.0298C65.008 49.5578 64.0268 47.5951 63.1682 46.0004H63.5361C62.5549 43.6697 62.0643 41.9524 61.451 39.9897C60.9604 38.027 60.3471 35.9417 59.7338 32.9977L60.2244 34.2243C59.6111 30.9123 58.5072 30.0536 58.2619 26.8643L58.7525 25.8829C58.6299 22.9389 58.9979 19.8722 59.6111 17.0508C60.2244 14.2295 61.3283 11.5308 62.5549 8.83209C62.5549 8.95476 62.5549 9.2001 62.1869 10.0588C62.8002 8.83209 64.2721 6.50141 65.744 5.15206C66.4799 4.41605 67.0932 3.9254 67.5838 3.55739C67.9518 3.31206 68.1971 3.06669 67.9518 3.06669C67.9518 3.18936 68.3197 3.06669 68.6877 3.06669C69.0557 3.06669 69.4237 3.06672 69.9143 3.55739C70.4049 3.9254 70.8956 4.78406 71.3862 5.7654C71.7542 6.62407 72.1221 7.60546 72.3674 8.34147V7.85077C73.4713 10.4268 73.594 10.4268 74.4526 14.2295C74.5753 15.2108 74.3299 15.0882 74.2073 13.8615C74.6979 16.9282 74.9432 16.1922 75.6792 19.8722L75.1885 18.5229C75.8018 21.7122 75.9245 21.3442 76.5377 23.0616C77.151 25.0243 78.0096 28.9496 77.887 29.563C78.1323 29.931 78.9909 31.5256 79.6042 33.3656C79.6042 33.611 79.2362 32.9976 79.1135 32.7523C79.4815 34.1016 79.8495 35.2056 80.3401 36.187C80.8307 37.1683 81.1987 38.027 81.5667 38.7631C81.9346 39.6217 82.3026 40.3577 82.6706 41.0937C83.0385 41.8297 83.4065 42.5657 83.7745 43.4244C83.6518 43.5471 83.7745 43.7924 83.8971 44.0378C83.4065 43.0564 82.9159 42.1977 82.4253 41.339C82.0573 40.4804 81.6893 39.7444 81.444 39.131C80.9534 37.9044 80.5854 37.1684 80.7081 37.291C80.4627 37.4137 81.812 40.603 80.2174 38.2724C80.9534 39.499 81.812 41.2164 82.9159 42.8111C83.8971 44.5284 85.0011 46.2458 85.8596 47.7178C85.9823 47.8405 85.9823 48.0858 85.9823 48.2085L85.737 47.9631C86.105 48.6991 86.4729 49.1898 86.9636 49.8031C87.5768 50.7845 87.9448 51.2751 88.5581 52.1338C88.5581 52.3791 89.1714 53.2378 89.7847 54.0965C90.5206 54.9552 91.3792 56.0592 91.8698 56.6725C91.9925 56.3045 93.4643 58.1445 92.3604 56.3045C92.4831 56.5499 92.1151 56.0592 91.3792 55.2005C91.2565 54.9551 91.0112 54.7099 90.8886 54.7099C90.8886 54.7099 91.0112 54.7098 91.0112 54.8325C90.2753 53.9738 89.4167 52.7472 88.4354 51.3978C89.4167 52.3792 90.2753 53.4832 91.3792 55.0778C92.1151 55.5685 92.8511 56.1819 93.3417 56.5499C93.955 57.5312 94.9362 59.0032 95.7948 60.2299C96.6534 61.4566 97.3894 62.4379 97.512 62.8059C99.3519 64.6459 101.437 66.8539 103.277 68.9393C104.136 70.0433 104.994 71.0247 105.853 71.8833C106.589 72.742 107.325 73.6006 107.938 74.214C108.919 75.318 108.674 75.686 108.919 76.2993C108.428 75.5633 107.815 74.8273 107.57 74.4593C108.551 75.5633 109.532 77.526 110.514 79.1207C111.372 80.7154 112.108 82.1874 112.476 82.4327C113.212 84.1501 112.844 83.7821 112.599 83.4141C112.353 83.1687 112.353 82.9234 113.212 85.3768L112.844 84.7635C113.212 85.9901 113.58 87.0941 113.948 88.1981C114.316 89.3021 114.561 90.4061 114.929 91.3875C115.665 93.4728 116.279 95.4355 116.769 97.3982C117.996 101.446 118.854 105.862 120.939 111.137C120.694 110.401 120.449 110.033 120.449 109.788C122.902 115.798 127.563 121.073 133.205 124.753C138.847 128.433 144.98 130.764 150.745 133.34C154.057 134.689 154.547 134.444 156.755 134.935L157.368 135.548C158.595 135.793 159.822 136.039 161.048 136.161C166.2 137.265 169.757 139.473 176.503 140.209L175.644 139.841C176.871 140.087 178.711 140.455 180.305 140.7C181.9 140.945 183.004 141.191 182.758 141.313C183.004 141.313 183.617 141.191 184.476 141.436V141.681C186.438 141.804 188.401 142.049 190.363 142.049C194.901 142.663 189.505 142.785 196.251 143.399C198.704 143.521 203.365 143.276 202.506 143.153C201.525 143.031 199.93 142.908 199.93 142.663H202.261C202.751 142.172 204.469 141.681 198.949 140.823C197.6 140.823 196.373 140.823 195.024 140.823L193.798 140.455L196.987 140.7C195.147 140.209 194.043 140.455 192.694 140.455C192.448 140.332 191.835 140.087 191.099 139.964C189.872 139.964 188.523 140.087 187.297 140.087C186.929 139.841 189.014 139.841 186.561 139.351C184.721 139.351 188.155 140.087 185.212 139.841C183.372 139.351 183.985 139.228 181.777 139.105C181.532 138.86 182.022 138.86 182.881 138.983C180.919 138.86 177.852 138.247 176.748 138.369C174.908 137.756 170.37 137.143 170.615 136.652C170.002 136.652 167.181 136.284 165.464 135.916C167.058 136.039 165.464 135.548 163.624 135.057C161.784 134.567 159.576 133.831 160.067 133.708C157.614 133.585 151.726 131.377 147.679 130.028C147.924 130.028 148.415 130.15 148.782 130.273C146.575 129.414 145.961 128.924 144.612 128.188C144.122 128.556 140.687 127.084 138.847 126.47C136.517 124.753 140.687 126.838 140.074 125.98C140.074 126.225 138.847 125.734 137.866 125.244C136.885 124.753 135.904 124.262 136.272 124.63C134.554 123.281 134.8 123.526 134.064 122.545C133.45 122.79 132.347 121.441 130.752 120.582C128.667 118.252 130.507 119.724 127.931 117.27C127.44 115.921 129.525 118.006 129.648 118.006ZM87.3315 45.8778C87.6995 46.4911 88.0675 46.9818 88.3128 47.3498C88.0675 47.1045 87.8222 46.6138 87.3315 45.8778ZM83.8971 39.6217C84.1424 40.4804 84.7557 41.339 85.2464 42.3204C85.2464 42.5657 85.0011 42.4431 84.6331 41.8297C85.0011 42.1977 84.2651 40.7257 83.8971 39.6217ZM89.9073 53.8512C89.1714 52.9925 89.0487 52.6245 88.9261 52.3791C89.294 52.8698 89.662 53.3605 90.1526 53.9738C90.1526 53.9738 90.2753 53.9739 90.2753 54.0965C90.1526 54.0965 90.03 53.9738 89.9073 53.8512Z" fill="white"/>
</svg>
