<?xml version="1.0" encoding="UTF-8" standalone="no"?>
<svg
   xmlns:dc="http://purl.org/dc/elements/1.1/"
   xmlns:cc="http://creativecommons.org/ns#"
   xmlns:rdf="http://www.w3.org/1999/02/22-rdf-syntax-ns#"
   xmlns:svg="http://www.w3.org/2000/svg"
   xmlns="http://www.w3.org/2000/svg"
   xmlns:sodipodi="http://sodipodi.sourceforge.net/DTD/sodipodi-0.dtd"
   xmlns:inkscape="http://www.inkscape.org/namespaces/inkscape"
   width="684"
   height="684"
   viewBox="0 0 684 684"
   fill="none"
   version="1.1"
   id="svg380"
   sodipodi:docname="MsgNegative.svg"
   inkscape:version="1.0.1 (3bc2e813f5, 2020-09-07)">
  <metadata
     id="metadata386">
    <rdf:RDF>
      <cc:Work
         rdf:about="">
        <dc:format>image/svg+xml</dc:format>
        <dc:type
           rdf:resource="http://purl.org/dc/dcmitype/StillImage" />
      </cc:Work>
    </rdf:RDF>
  </metadata>
  <defs
     id="defs384" />
  <sodipodi:namedview
     pagecolor="#ffffff"
     bordercolor="#666666"
     borderopacity="1"
     objecttolerance="10"
     gridtolerance="10"
     guidetolerance="10"
     inkscape:pageopacity="0"
     inkscape:pageshadow="2"
     inkscape:window-width="1366"
     inkscape:window-height="715"
     id="namedview382"
     showgrid="false"
     inkscape:zoom="0.48017785"
     inkscape:cx="504.84085"
     inkscape:cy="542.71936"
     inkscape:window-x="-8"
     inkscape:window-y="-8"
     inkscape:window-maximized="1"
     inkscape:current-layer="g1208"
     inkscape:document-rotation="0" />
  <g
     id="g577">
    <g
       id="g1208">
      <g
         id="g1207">
        <path
           opacity="0.2"
           d="M342 684C530.881 684 684 530.881 684 342C684 153.119 530.881 0 342 0C153.119 0 0 153.119 0 342C0 530.881 153.119 684 342 684Z"
           fill="#6A4D93"
           id="path2"
           style="fill:#ffffff;opacity:1" />
        <path
           d="M605.82 190.589C605.423 189.441 603.833 187.409 603.479 188.248L605.423 192.223L605.82 190.589Z"
           fill="white"
           id="path4" />
        <path
           d="M596.898 186.746C597.574 190.026 599.097 193.072 601.315 195.58C599.769 191.561 600.918 192.886 598.974 188.16C599.372 187.276 600.918 188.557 601.669 189.971C601.271 188.91 603.215 189.971 602.066 187.585C599.328 185.333 598.179 185.907 598.577 188.999C597.89 188.352 597.321 187.59 596.898 186.746Z"
           fill="white"
           id="path6" />
        <path
           d="M528.967 223.981H529.674C529.447 223.887 529.193 223.887 528.967 223.981Z"
           fill="white"
           id="path8" />
        <path
           d="M488.067 248.98C488.332 248.715 488.067 248.274 488.067 247.92C487.846 248.362 487.802 248.715 488.067 248.98Z"
           fill="white"
           id="path10" />
        <path
           d="M478.57 249.643H479.144C478.791 249.378 478.482 249.289 478.57 249.643Z"
           fill="white"
           id="path12" />
        <path
           d="M528.967 223.981L527.112 223.583C527.863 224.82 528.261 224.069 528.967 223.981Z"
           fill="white"
           id="path14" />
        <path
           d="M593.895 201.41C594 200.975 594 200.521 593.895 200.085C593.854 200.35 593.764 200.604 593.63 200.836L593.895 201.41Z"
           fill="white"
           id="path16" />
        <path
           d="M544.47 209.228H544.779C544.559 208.67 544.308 208.125 544.028 207.594L544.47 209.228Z"
           fill="white"
           id="path18" />
        <path
           d="M557.544 199.644C557.147 199.644 559.09 202.868 559.885 204.325C559.223 202.912 559.002 202.161 559.134 201.764C559.267 201.366 558.207 200.483 557.544 199.644Z"
           fill="white"
           id="path20" />
        <path
           d="M582.5 190.854V190.191C582.47 190.411 582.47 190.634 582.5 190.854Z"
           fill="white"
           id="path22" />
        <path
           d="M534.444 215.058C534.179 214.696 533.883 214.356 533.561 214.043C533.831 214.401 534.127 214.741 534.444 215.058Z"
           fill="white"
           id="path24" />
        <path
           d="M184.803 503.084L184.405 502.554C184.582 502.907 184.714 503.128 184.803 503.084Z"
           fill="white"
           id="path26" />
        <path
           d="M158.699 500.036V499.683L157.462 498.005L158.699 500.036Z"
           fill="white"
           id="path28" />
        <path
           d="M352.954 335.905C356.178 337.716 353.395 340.852 357.371 342.486C356.443 341.426 355.78 336.523 352.954 335.905Z"
           fill="white"
           id="path30" />
        <path
           d="M593.277 201.234C593.123 201.394 592.944 201.528 592.747 201.631C593.071 201.602 593.247 201.469 593.277 201.234Z"
           fill="white"
           id="path32" />
        <path
           d="M436.522 275.791C436.888 276.221 437.303 276.606 437.758 276.939C437.397 276.505 436.982 276.119 436.522 275.791Z"
           fill="white"
           id="path34" />
        <path
           d="M460.638 265.455H459.843C460.101 265.54 460.38 265.54 460.638 265.455Z"
           fill="white"
           id="path36" />
        <path
           d="M428.439 287.761C427.997 287.761 427.6 287.363 427.511 288.07C427.622 288.187 427.758 288.278 427.909 288.335C427.909 287.849 427.953 287.496 428.439 287.761Z"
           fill="white"
           id="path38" />
        <path
           d="M417.308 295.932L417.926 296.373L418.191 295.976L417.308 295.932Z"
           fill="white"
           id="path40" />
        <path
           d="M216.958 475.964C216.046 475.299 215.203 474.544 214.44 473.712C216.428 475.699 215.191 477.687 216.958 475.964Z"
           fill="white"
           id="path42" />
        <path
           d="M592.703 199.688C593.189 200.527 593.321 200.969 593.277 201.234C593.375 201.108 593.464 200.975 593.542 200.836C593.326 200.41 593.043 200.023 592.703 199.688Z"
           fill="white"
           id="path44" />
        <path
           d="M445.09 312.142L442.97 312.937C443.734 312.86 444.465 312.586 445.09 312.142Z"
           fill="white"
           id="path46" />
        <path
           d="M437.979 317.133C437.252 316.496 436.392 316.028 435.462 315.764C435.544 316.085 435.663 316.396 435.815 316.691L437.979 317.133Z"
           fill="white"
           id="path48" />
        <path
           d="M223.053 437.67C223.053 437.67 223.053 437.979 223.053 438.067L223.848 438.509L223.274 437.272L223.053 437.67Z"
           fill="white"
           id="path52" />
        <path
           d="M529.762 224.157L530.204 224.466C530.035 224.399 529.884 224.293 529.762 224.157Z"
           fill="white"
           id="path54" />
        <path
           d="M293.237 419.958L292.663 419.207L292.884 420.091L293.237 419.958Z"
           fill="white"
           id="path56" />
        <path
           d="M555.734 222.081C555.952 222.323 556.205 222.532 556.484 222.7C556.26 222.464 556.008 222.256 555.734 222.081Z"
           fill="white"
           id="path58" />
        <path
           d="M564.302 217.311L566.202 217.664C565.594 217.437 564.951 217.317 564.302 217.311Z"
           fill="white"
           id="path60" />
        <path
           d="M571.59 214.661C571.368 214.175 571.118 213.703 570.839 213.248L571.59 214.661Z"
           fill="white"
           id="path62" />
        <path
           d="M475.302 285.64C475.271 285.726 475.271 285.82 475.302 285.905C474.993 287.098 475.213 286.391 475.302 285.64Z"
           fill="white"
           id="path64" />
        <path
           d="M499.639 258.256C499.704 258.946 499.704 259.641 499.639 260.332C500.346 260.199 500.788 259.978 499.639 258.256Z"
           fill="white"
           id="path66" />
        <path
           d="M498.27 261.215C499.197 261.48 499.551 261.215 499.683 260.332C499.109 260.597 498.402 260.597 498.27 261.215Z"
           fill="white"
           id="path68" />
        <path
           d="M599.682 198.009H600.035C599.912 197.852 599.822 197.672 599.77 197.479L599.682 198.009Z"
           fill="white"
           id="path70" />
        <path
           d="M599.77 197.391V196.817C599.77 196.817 599.593 197.038 599.77 197.391Z"
           fill="white"
           id="path72" />
        <path
           d="M600.035 195.58V196.817C600.079 196.684 600.698 196.552 600.035 195.58Z"
           fill="white"
           id="path74" />
        <path
           d="M590.406 202.073L591.068 203.265C590.895 202.843 590.673 202.443 590.406 202.073Z"
           fill="white"
           id="path76" />
        <path
           d="M588.109 204.06C588.904 204.06 591.201 205.474 591.598 204.06L591.068 203.133C591.863 205.209 587.446 201.808 588.109 204.06Z"
           fill="white"
           id="path78" />
        <path
           d="M568.322 197.17L571.016 196.684C569.868 195.713 568.322 194.432 569.073 193.504C564.037 191.693 571.414 195.801 568.322 197.17Z"
           fill="white"
           id="path80" />
        <path
           d="M560.636 199.82C561.387 198.495 559.444 198.098 559.046 197.391C559.046 198.981 559.091 199.334 560.636 199.82Z"
           fill="white"
           id="path82" />
        <path
           d="M513.375 231.71L511.608 228.795C510.99 229.678 512.359 229.899 513.375 231.71Z"
           fill="white"
           id="path84" />
        <path
           d="M514.303 252.293L516.334 253.441L514.965 250.614L514.303 252.293Z"
           fill="white"
           id="path86" />
        <path
           d="M495.354 235.995L495.443 235.332L494.692 237.364L495.354 235.995Z"
           fill="white"
           id="path88" />
        <path
           d="M417.44 291.515L420.091 294.739C420.223 293.856 417.661 289.969 417.44 291.515Z"
           fill="white"
           id="path90" />
        <path
           d="M386.213 319.076C384.623 317.619 382.9 317.221 383.519 319.297C384.269 318.988 386.125 319.783 386.213 319.076Z"
           fill="white"
           id="path92" />
        <path
           d="M282.018 386.566L281.842 384.976L281.268 386.831L282.018 386.566Z"
           fill="white"
           id="path94" />
        <path
           d="M497.74 563.816C498.8 563.33 500.788 561.652 499.904 561.343L496.062 563.551L497.74 563.816Z"
           fill="white"
           id="path96" />
        <path
           d="M500.92 554.673C497.58 555.44 494.521 557.122 492.086 559.532C496.017 557.721 494.736 558.958 499.329 556.705C500.213 557.014 499.064 558.649 497.695 559.532C498.755 559.09 497.695 561.078 500.124 559.532C502.2 556.661 501.494 555.557 498.446 556.175C499.167 555.521 500.006 555.011 500.92 554.673Z"
           fill="white"
           id="path98" />
        <path
           d="M458.208 489.392V490.143C458.27 490.027 458.303 489.898 458.303 489.767C458.303 489.636 458.27 489.507 458.208 489.392Z"
           fill="white"
           id="path100" />
        <path
           d="M429.366 450.523C429.519 450.638 429.705 450.7 429.896 450.7C430.087 450.7 430.273 450.638 430.426 450.523C429.984 450.523 429.587 450.523 429.366 450.523Z"
           fill="white"
           id="path102" />
        <path
           d="M427.732 441.292C427.708 441.482 427.708 441.675 427.732 441.866C427.997 441.689 428.041 441.159 427.732 441.292Z"
           fill="white"
           id="path104" />
        <path
           d="M458.208 489.392L458.473 487.537C457.325 488.376 458.076 488.729 458.208 489.392Z"
           fill="white"
           id="path106" />
        <path
           d="M485.858 552.642C486.292 552.758 486.749 552.758 487.183 552.642H486.432H485.858Z"
           fill="white"
           id="path108" />
        <path
           d="M474.33 503.747L474.595 504.012C475.142 503.766 475.673 503.486 476.185 503.172L474.33 503.747Z"
           fill="white"
           id="path110" />
        <path
           d="M485.019 516.114C485.019 515.716 481.927 517.925 480.602 518.808C481.927 518.057 482.678 517.792 483.076 517.881C483.473 517.969 484.224 516.776 485.019 516.114Z"
           fill="white"
           id="path112" />
        <path
           d="M467.66 494.118C468.102 493.72 468.411 493.367 468.632 493.146C468.265 493.424 467.938 493.751 467.66 494.118Z"
           fill="white"
           id="path114" />
        <path
           d="M132.507 186.746L132.949 186.26C132.772 186.481 132.507 186.658 132.507 186.746Z"
           fill="white"
           id="path116" />
        <path
           d="M130.519 160.466H130.828L132.242 158.92L130.519 160.466Z"
           fill="white"
           id="path118" />
        <path
           d="M421.504 426.716C422.078 426.848 421.857 426.716 421.504 426.716V426.716Z"
           fill="white"
           id="path120" />
        <path
           d="M326.187 325.79C324.862 329.191 321.329 326.894 320.313 331.134C321.196 329.986 325.967 328.705 326.187 325.79Z"
           fill="white"
           id="path122" />
        <path
           d="M486.167 552.112C485.985 551.967 485.835 551.787 485.726 551.582C485.858 551.802 485.858 552.112 486.167 552.112Z"
           fill="white"
           id="path124" />
        <path
           d="M396.902 401.937C396.542 402.351 396.217 402.795 395.93 403.262C396.317 402.87 396.644 402.424 396.902 401.937Z"
           fill="white"
           id="path126" />
        <path
           d="M410.02 424.905V424.022C409.959 424.161 409.928 424.311 409.928 424.463C409.928 424.615 409.959 424.766 410.02 424.905Z"
           fill="white"
           id="path128" />
        <path
           d="M384.27 395.312C384.27 394.87 384.535 394.428 383.872 394.428C383.755 394.539 383.664 394.675 383.607 394.826C383.917 394.605 384.27 394.649 384.27 395.312Z"
           fill="white"
           id="path130" />
        <path
           d="M374.685 384.932C374.685 385.197 374.42 385.418 374.287 385.639H374.773L374.685 384.932Z"
           fill="white"
           id="path132" />
        <path
           d="M165.413 213.248C165.921 212.238 166.496 211.264 167.135 210.332C165.545 212.453 163.425 212.011 165.413 213.248Z"
           fill="white"
           id="path134" />
        <path
           d="M487.669 551.361C486.874 551.847 486.433 552.067 486.167 552.023H486.609C486.992 551.854 487.349 551.631 487.669 551.361Z"
           fill="white"
           id="path136" />
        <path
           d="M361.787 414.481L360.727 412.449C360.896 413.208 361.261 413.909 361.787 414.481Z"
           fill="white"
           id="path138" />
        <path
           d="M238.513 280.693H237.85C237.85 280.693 237.983 280.914 238.513 280.693Z"
           fill="white"
           id="path140" />
        <path
           d="M355.958 407.988C356.496 407.191 356.857 406.287 357.018 405.338C356.706 405.466 356.409 405.629 356.134 405.824L355.958 407.988Z"
           fill="white"
           id="path142" />
        <path
           d="M204.282 212.453H203.884C203.767 212.738 203.679 213.034 203.619 213.336L204.547 212.629L204.282 212.453Z"
           fill="white"
           id="path146" />
        <path
           d="M458.12 490.275C458.055 490.435 457.966 490.584 457.855 490.717L458.12 490.275Z"
           fill="white"
           id="path148" />
        <path
           d="M233.83 278.839L234.448 278.176L233.609 278.485L233.83 278.839Z"
           fill="white"
           id="path150" />
        <path
           d="M462.493 516.026C462.239 516.257 462.042 516.544 461.919 516.865C462.136 516.604 462.329 516.323 462.493 516.026Z"
           fill="white"
           id="path152" />
        <path
           d="M467.925 524.241V526.14C468.037 525.512 468.037 524.869 467.925 524.241Z"
           fill="white"
           id="path154" />
        <path
           d="M471.15 531.308L472.519 530.425L471.15 531.308Z"
           fill="white"
           id="path156" />
        <path
           d="M391.513 441.689C391.458 441.665 391.398 441.652 391.337 441.652C391.276 441.652 391.216 441.665 391.16 441.689C390.188 441.689 390.718 441.689 391.513 441.689Z"
           fill="white"
           id="path158" />
        <path
           d="M421.283 463.155C420.593 463.233 419.897 463.233 419.207 463.155C419.605 464.083 419.605 464.48 421.283 463.155Z"
           fill="white"
           id="path160" />
        <path
           d="M418.191 462.095C418.191 463.023 418.5 463.332 419.207 463.376C419.075 462.846 418.942 462.095 418.191 462.095Z"
           fill="white"
           id="path162" />
        <path
           d="M489.877 558.163V558.56C490.025 558.424 490.188 558.306 490.363 558.207L489.877 558.163Z"
           fill="white"
           id="path164" />
        <path
           d="M490.275 558.207H490.893C490.893 558.207 490.805 558.03 490.275 558.207Z"
           fill="white"
           id="path166" />
        <path
           d="M492.307 558.383H491.07C491.07 558.383 491.335 558.869 492.307 558.383Z"
           fill="white"
           id="path168" />
        <path
           d="M485.108 549.196L484.003 549.947C484.398 549.739 484.768 549.487 485.108 549.196Z"
           fill="white"
           id="path170" />
        <path
           d="M482.987 547.032C482.987 547.827 481.794 550.256 482.987 550.521L483.915 549.947C482.104 550.787 485.196 546.193 482.987 547.032Z"
           fill="white"
           id="path172" />
        <path
           d="M488.376 526.759L489.083 529.409C489.966 528.172 491.114 526.538 492.13 527.245C493.5 522.033 490.01 529.718 488.376 526.759Z"
           fill="white"
           id="path174" />
        <path
           d="M485.108 519.206C486.477 519.868 486.742 517.925 487.404 517.483C485.859 517.616 485.461 517.66 485.108 519.206Z"
           fill="white"
           id="path176" />
        <path
           d="M449.109 474.463L451.804 472.431C450.788 471.901 450.788 473.27 449.109 474.463Z"
           fill="white"
           id="path178" />
        <path
           d="M428.616 477.245L427.688 479.365L430.382 477.775L428.616 477.245Z"
           fill="white"
           id="path180" />
        <path
           d="M443.014 456.795L443.677 456.883L441.601 456.309L443.014 456.795Z"
           fill="white"
           id="path182" />
        <path
           d="M378.793 384.579L375.922 387.627C376.982 387.671 380.56 384.623 378.793 384.579Z"
           fill="white"
           id="path184" />
        <path
           d="M347.521 356.708C348.758 354.986 348.935 353.219 346.947 354.058C347.345 354.942 346.815 356.752 347.521 356.708Z"
           fill="white"
           id="path186" />
        <path
           d="M265.057 262.452L266.647 262.054L264.66 261.789L265.057 262.452Z"
           fill="white"
           id="path188" />
        <path
           d="M573.357 190.147C573.357 189.352 572.076 187.983 571.59 188.734L572.738 191.472L573.357 190.147Z"
           fill="#6A4D93"
           id="path190" />
        <path
           d="M565.936 188.557C565.899 190.893 566.788 193.148 568.41 194.829C567.615 192.002 568.41 192.842 567.438 189.485C567.88 188.778 569.116 189.485 569.558 190.501C569.558 189.706 570.971 190.501 570.309 188.601C568.189 187.276 567.04 187.895 566.952 190.236C566.471 189.776 566.12 189.197 565.936 188.557Z"
           fill="#6A4D93"
           id="path192" />
        <path
           d="M499.109 227.735H499.727C499.63 227.691 499.525 227.668 499.418 227.668C499.311 227.668 499.206 227.691 499.109 227.735Z"
           fill="#6A4D93"
           id="path194" />
        <path
           d="M458.827 253.353C458.92 253.242 458.972 253.101 458.972 252.955C458.972 252.81 458.92 252.669 458.827 252.558C458.739 252.911 458.65 253.22 458.827 253.353Z"
           fill="#6A4D93"
           id="path196" />
        <path
           d="M450.523 255.341H451.009C450.523 255.12 450.258 255.12 450.523 255.341Z"
           fill="#6A4D93"
           id="path198" />
        <path
           d="M499.108 227.735H497.562C498.137 228.53 498.623 227.912 499.108 227.735Z"
           fill="#6A4D93"
           id="path200" />
        <path
           d="M560.945 200.306C561.063 199.978 561.063 199.619 560.945 199.29C560.839 199.512 560.705 199.72 560.548 199.909L560.945 200.306Z"
           fill="#6A4D93"
           id="path202" />
        <path
           d="M515.407 213.954H515.716C515.61 213.548 515.478 213.15 515.319 212.762L515.407 213.954Z"
           fill="#6A4D93"
           id="path204" />
        <path
           d="M528.613 204.546C528.26 204.546 529.497 206.799 529.983 207.771C529.585 206.799 529.541 206.269 529.718 205.916C529.385 205.432 529.016 204.974 528.613 204.546Z"
           fill="#6A4D93"
           id="path206" />
        <path
           d="M552.377 193.946V193.416C552.377 193.416 552.421 193.769 552.377 193.946Z"
           fill="#6A4D93"
           id="path208" />
        <path
           d="M505.514 219.961L504.895 219.343C505.067 219.581 505.276 219.79 505.514 219.961Z"
           fill="#6A4D93"
           id="path210" />
        <path
           d="M150.395 500.522L150.13 500.169C150.174 500.434 150.174 500.566 150.395 500.522Z"
           fill="#6A4D93"
           id="path212" />
        <path
           d="M128.046 502.289L128.179 502.024L127.339 500.92L128.046 502.289Z"
           fill="#6A4D93"
           id="path214" />
        <path
           d="M436.168 261.259C436.433 260.597 436.257 260.95 436.168 261.259V261.259Z"
           fill="#6A4D93"
           id="path216" />
        <path
           d="M325.128 342.132C327.69 343.016 324.73 345.887 328.087 346.549C327.336 345.887 327.557 342.132 325.128 342.132Z"
           fill="#6A4D93"
           id="path218" />
        <path
           d="M560.415 200.262C560.28 200.442 560.096 200.58 559.885 200.659C560.209 200.571 560.386 200.439 560.415 200.262Z"
           fill="#6A4D93"
           id="path220" />
        <path
           d="M408.74 282.195C409.016 282.459 409.328 282.682 409.667 282.858C409.402 282.581 409.087 282.357 408.74 282.195Z"
           fill="#6A4D93"
           id="path222" />
        <path
           d="M431.796 270.402H431.089C431.321 270.462 431.564 270.462 431.796 270.402Z"
           fill="#6A4D93"
           id="path224" />
        <path
           d="M399.817 292.707C399.42 292.707 399.155 292.707 398.934 293.061H399.243C399.199 292.884 399.287 292.619 399.817 292.707Z"
           fill="#6A4D93"
           id="path226" />
        <path
           d="M388.687 300.702L389.172 300.967L389.482 300.614L388.687 300.702Z"
           fill="#6A4D93"
           id="path228" />
        <path
           d="M182.948 473.844C182.281 473.509 181.658 473.094 181.093 472.608C182.329 473.756 181.093 475.479 182.948 473.844Z"
           fill="#6A4D93"
           id="path230" />
        <path
           d="M560.195 199.158C560.46 199.732 560.548 200.041 560.195 200.262C560.32 200.166 560.425 200.046 560.504 199.909C560.453 199.64 560.347 199.385 560.195 199.158Z"
           fill="#6A4D93"
           id="path232" />
        <path
           d="M410.771 309.182L408.784 310.154C409.494 309.939 410.165 309.611 410.771 309.182Z"
           fill="#6A4D93"
           id="path234" />
        <path
           d="M261.922 413.73V414.26C261.922 414.26 262.01 414.039 261.922 413.73Z"
           fill="#6A4D93"
           id="path236" />
        <path
           d="M403.527 314.085C402.896 313.771 402.201 313.605 401.495 313.599C401.461 313.819 401.461 314.042 401.495 314.262L403.527 314.085Z"
           fill="#6A4D93"
           id="path238" />
        <path
           d="M173.186 485.858C174.864 484.666 171.993 482.766 171.198 481C172.612 478.747 173.584 482.192 175.306 482.987C176.013 481.353 175.306 478.261 176.145 477.643C176.499 477.996 176.808 478.04 177.029 478.747C176.764 475.655 180.827 475.655 180.386 471.901C180.665 472.088 180.905 472.328 181.092 472.608C179.978 471.592 178.985 470.451 178.133 469.207C178.84 468.588 178.133 466.512 179.856 468.014C179.37 468.279 179.856 469.03 179.856 469.692V468.367C182.417 470.267 179.414 470.046 180.827 471.812C181.711 469.869 181.976 466.512 183.654 466.291C185.73 468.456 181.534 469.162 184.714 470.09L182.197 470.576C186.613 473.27 180.916 471.15 185.244 474.198C188.159 473.093 186.967 470.929 189.661 469.781C189.175 468.058 187.983 467.97 187.497 466.247C189.087 461.256 194.741 470.178 194.829 465.143C194.255 463.067 192.179 459.843 195.182 460.108L196.64 463.244C199.157 461.742 195.006 458.385 198.804 458.341C199.157 459.754 197.656 460.638 198.23 460.682C201.454 461.609 198.23 458.297 199.378 457.369L201.454 459.578C203.618 457.325 205.032 453.571 207.417 451.053C207.814 451.892 207.903 452.997 209.095 453.217C212.177 449.732 216.41 447.474 221.021 446.857L220.756 443.854C221.065 443.854 221.993 444.384 221.993 445.002C223.848 445.002 221.065 443.633 221.065 442.352C221.065 441.071 222.92 442.838 222.92 443.809C223.892 440.32 226.586 434.976 230.65 435.506V436.477C233.167 435.903 229.59 430.647 232.77 431.265V431.884C237.496 429.719 240.588 424.419 246.021 425.258C244.386 421.813 251.1 423.58 248.229 419.207C252.116 419.516 251.983 420.753 256.312 419.693C257.328 419.251 255.649 416.115 256.312 414.879L257.946 417.043V413.642L260.685 415.674L261.259 414.349C260.867 414.376 260.474 414.296 260.124 414.117C259.774 413.938 259.479 413.667 259.271 413.333C260.111 411.169 264.262 412.008 265.146 413.068L267.531 408.651C268.105 409.578 267.531 410.374 267.531 411.301C267.884 407.591 269.607 413.333 269.916 409.932C269.298 409.578 269.077 408.518 268.812 408.033C270.711 408.695 272.787 407.149 273.935 405.427L274.73 407.193C277.713 404.903 280.56 402.44 283.255 399.817C281.621 399.817 279.942 397.123 280.693 396.195L282.769 398.227C282.283 396.372 281.135 398.227 281.091 395.444C282.46 394.826 283.829 397.476 283.697 398.713L284.536 396.858C285.11 397.52 285.066 398.095 285.64 399.066C285.154 397.167 289.792 399.552 288.776 396.46L289.394 397.079C292.53 394.782 293.37 392.927 295.843 390.939C294.43 388.907 295.843 388.598 295.313 386.522C298.044 386.197 300.684 385.342 303.087 384.005C303.926 381.84 302.292 381.929 302.115 380.25C303.573 381.973 305.737 380.25 305.516 382.326C307.83 380.424 309.725 378.063 311.081 375.392C310.154 374.95 309.536 374.906 309.27 374.111C309.668 373.36 311.258 373.846 311.832 374.818V375.127C313.687 369.561 324.641 373.934 325.083 367.839V368.148L326.85 363.731C328.572 362.98 326.85 365.763 328.882 366.072C330.118 360.551 334.668 362.583 336.037 358.475C342.176 362.318 343.59 352.468 349.067 353.749L347.962 352.601C347.962 350.79 349.42 352.601 350.215 352.601C349.42 351.673 348.537 352.026 348.537 351.01C354.234 344.518 363.687 342.883 371.019 339.262C373.713 337.848 367.706 331.62 372.962 332.459L373.757 335.463C376.672 329.103 383.96 328.352 387.008 322.477C387.008 323.228 387.626 323.979 387.008 324.288C389.26 325.304 390.85 321.682 389.879 320.269C390.762 319.871 390.983 321.417 391.955 321.815C393.677 322.08 392.971 317.751 394.737 319.12C395.002 319.12 394.737 319.871 394.737 320.136C394.737 318.811 398.006 318.149 395.974 316.603C398.448 316.249 398.845 313.246 401.098 313.379C400.479 310.463 404.985 312.23 403.085 308.962C405.25 312.318 408.121 309.315 408.209 306.974C408.518 308.255 409.931 307.327 410.462 309.006C411.742 308.034 412.537 306.576 411.124 305.031C416.292 307.239 413.774 298.494 418.677 302.513C421.1 298.403 423.942 294.554 427.157 291.029C429.322 294.386 423.491 294.121 426.053 297.434C428.438 293.723 428.438 289.571 432.281 288.026C433.474 288.026 432.811 289.792 432.899 290.543C435.284 286.877 439.613 286.126 441.336 282.504C441.423 282.714 441.468 282.94 441.468 283.167C441.468 283.394 441.423 283.62 441.336 283.83C441.821 283.299 443.014 283.344 441.91 281.93L441.645 282.725C439.171 281.224 440.85 276.586 440.143 275.349C442.131 280.34 443.853 274.377 446.018 280.87C446.13 280.432 446.133 279.973 446.025 279.534C445.917 279.094 445.702 278.688 445.399 278.353C446.194 278.353 446.768 278.706 446.989 280.252C448.535 277.955 446.68 276.895 448.623 275.835C449.109 276.542 448.933 277.116 449.286 278.088C449.286 276.012 449.286 273.936 451.318 273.406C451.318 273.936 452.113 274.377 451.627 274.687C454.233 272.566 453.791 267.664 457.766 266.913C459.003 270.667 459.489 267.222 461.521 269.828L462.625 267.885L461.035 267.001C462.537 266.074 462.448 263.247 464.303 263.291L463.994 265.146L466.335 262.761H464.083C464.568 260.376 461.565 259.448 464.083 258.874C464.083 259.448 465.54 257.947 467.395 258.874C467.395 257.505 467.395 256.091 469.162 256.047C470.045 256.71 471.017 259.183 471.591 259.669C470.708 256.886 474.506 256.71 473.756 253.662C474.001 254.565 474.455 255.397 475.081 256.091L474.418 253.839C475.478 253.839 475.787 254.192 476.45 255.429C478.703 254.369 473.446 252.425 476.847 252.249C476.847 252.558 476.847 252.735 476.847 253.309C479.763 252.425 480.69 248.892 483.473 248.362C486.035 250.659 482.015 250.349 484.356 252.16C487.183 249.466 488.773 244.387 492.174 242.929H491.423C489.215 238.777 495.001 243.282 495.31 240.411C495.31 240.941 496.282 242.929 496.105 242.399C498.623 241.604 499.727 238.512 502.112 235.155L502.377 236.392C504.232 236.392 505.999 234.714 507.677 234.272C507.368 232.991 508.251 232.638 506.794 231.489C514.789 234.36 512.624 223.097 519.515 225.35C519.073 225.659 519.073 226.94 519.515 226.719L522.032 223.671C520.619 222.17 520.928 222.921 519.382 222.037C519.223 221.488 519.216 220.905 519.364 220.352C519.512 219.799 519.809 219.298 520.221 218.901C519.559 220.977 522.076 221.595 523.313 222.126C522.871 221.684 522.695 220.977 522.297 220.491C525.963 222.391 520.265 216.914 523.843 217.444L524.329 218.371C524.859 217.355 524.859 215.677 525.919 215.323C527.642 217.046 525.654 216.825 526.67 218.504C527.863 217.532 526.67 213.115 529.143 214.087C529.143 215.014 528.216 215.544 528.039 216.428C530.822 217.929 530.601 217.223 531.749 216.958L534.62 216.56L533.649 216.295C531.794 210.112 536.255 213.159 536.122 208.389C536.122 212.806 537.005 210.465 538.331 212.806C539.302 213.027 540.583 213.159 540.804 213.954C540.804 211.481 543.41 214.263 543.101 210.686C543.631 211.348 544.205 210.023 545.177 211.967C546.104 210.509 544.028 210.907 543.542 209.935C543.94 206.136 550.3 209.935 550.963 204.458C552.597 201.41 551.449 198.672 552.995 195.889C554.541 196.508 554.055 198.937 554.055 198.937C554.426 199.021 554.811 199.031 555.186 198.965C555.561 198.899 555.919 198.76 556.24 198.554C556.56 198.349 556.837 198.081 557.053 197.768C557.27 197.454 557.421 197.101 557.5 196.728C557.5 197.479 558.295 197.877 559.178 198.407C560.017 197.612 558.118 195.403 560.062 195.58C560.504 196.722 560.83 197.906 561.033 199.114C561.74 197.7 561.961 195.624 562.712 194.211C563.86 195.227 563.242 196.552 563.374 197.656C564.302 196.198 566.024 194.255 565.141 192.002H563.816C564.258 191.561 565.185 193.548 565.097 194.122C565.097 196.419 563.021 194.52 562.447 193.857L562.977 192.842C559.355 189.175 560.062 195.712 558.251 196.596L556.882 193.062V196.773C555.954 196.198 554.585 194.652 555.115 193.681C552.906 192.93 554.761 195.447 552.597 194.476C552.503 194.412 552.426 194.326 552.372 194.226C552.318 194.127 552.29 194.015 552.288 193.902L551.714 195.58C551.714 194.785 550.079 193.548 551.095 193.504C547.827 193.151 549.196 197.921 546.678 196.287V195.977C544.426 198.981 547.871 198.451 547.429 202.514L542.262 198.098L543.454 200.527C543.314 200.599 543.16 200.64 543.002 200.647C542.844 200.655 542.687 200.628 542.541 200.569C542.394 200.511 542.262 200.422 542.153 200.308C542.044 200.194 541.96 200.057 541.908 199.909C541.908 202.205 542.747 200.748 543.057 202.647C540.23 201.587 539.656 206.313 536.961 202.956C537.58 204.988 539.214 203.31 538.463 205.562C535.46 201.984 537.094 207.417 534.62 206.534C533.693 204.281 535.636 204.502 533.119 203.619C534.576 207.506 530.071 204.635 529.364 206.004C531.087 208.698 527.686 208.742 526.405 210.907C525.919 209.935 521.988 211.834 519.47 212.011L519.205 211.525C520.707 214.484 518.543 215.191 517.615 216.604C517.19 216.113 516.878 215.533 516.703 214.907C516.527 214.281 516.492 213.624 516.599 212.983L515.363 213.822C515.531 214.25 515.587 214.715 515.526 215.171C515.464 215.627 515.286 216.06 515.009 216.428L513.949 214.219C512.359 215.412 512.227 218.636 509.223 218.901C510.372 220.845 514.391 222.965 513.022 225.747C512.271 224.776 510.99 223.097 511.299 222.302C511.299 222.567 511.299 223.583 510.504 223.406L510.592 220.845C509.135 220.845 511.078 222.611 510.195 222.965C509.223 221.507 508.914 222.302 508.252 221.11C508.252 220.845 509.356 221.11 509.267 220.491C508.629 220.662 507.96 220.687 507.31 220.565C506.66 220.443 506.046 220.176 505.513 219.785C506.131 220.58 506.794 221.728 506.308 222.346C504.718 223.583 504.586 221.021 503.128 220.933C503.393 222.17 501.626 221.861 503.128 224.025C502.642 224.334 501.847 223.406 501.273 222.921C501.273 224.466 497.518 225.924 500.036 227.558H500.345C499.02 231.578 493.764 230.253 491.512 233.035L491.026 232.329C489.966 234.272 487.713 235.288 487.58 237.673C487.095 237.982 485.549 237.099 485.151 236.127C484.268 237.496 484.665 238.424 482.059 238.468C482.457 236.348 480.867 237.629 482.722 236.657C480.646 237.143 479.498 236.26 479.1 239.44C479.051 239.071 478.882 238.73 478.618 238.468C478.354 238.207 478.01 238.04 477.642 237.994C477.273 237.949 476.899 238.027 476.58 238.217C476.26 238.406 476.013 238.697 475.876 239.042L477.952 239.572C477.278 240.306 476.426 240.854 475.478 241.162L474.241 238.468C468.897 237.805 471.68 247.611 465.761 244.387C466.026 246.683 468.367 244.387 468.941 246.86C467.174 247.611 463.199 245.226 462.713 245.535C459.666 245.535 463.199 250.438 460.328 251.012C461.212 251.675 463.067 253.795 462.007 255.738C460.24 256.489 457.59 253.441 458.12 252.072C458.163 251.999 458.224 251.938 458.297 251.896C458.371 251.853 458.454 251.831 458.539 251.831C458.624 251.831 458.708 251.853 458.781 251.896C458.855 251.938 458.916 251.999 458.959 252.072C459.268 251.41 459.666 250.614 458.385 250.084L458.782 251.056C457.413 250.703 455.381 252.249 454.895 250.482C454.277 252.116 455.381 252.249 456.53 252.116C453.703 252.116 453.438 254.192 450.832 254.766C451.494 254.987 452.466 255.826 452.157 256.003C448.447 257.019 452.157 258.565 450.214 260.42C448.182 259.89 448.491 257.019 447.21 259.492C445.355 259.492 445.355 257.416 445.355 256.356C444.692 259.272 441.159 257.637 439.922 258.079L440.408 256.71C440.166 257.332 439.713 257.848 439.127 258.167L440.894 259.492C440.099 259.492 439.613 259.934 439.127 259.183C439.127 260.729 441.556 261.745 441.468 264.13C440.099 263.777 439.79 266.648 437.935 264.572C440.894 263.688 436.079 262.452 437.935 260.685C437.758 261.215 437.272 261.524 436.477 261.613C436.212 261.613 436.256 261.083 436.477 260.862C432.767 260.376 437.228 264.174 434.799 265.764C434.224 264.263 432.59 263.688 432.369 264.218C433.341 263.6 434.313 266.074 434.136 267.664C431.928 267.664 432.988 269.563 432.104 270.005H433.341C433.959 271.506 433.076 271.86 432.281 273.008C431.486 272.081 432.767 271.639 432.281 271.462C432.678 274.554 427.864 270.976 427.378 273.626C426.053 273.273 425.656 271.241 424.551 271.153C423.889 274.068 421.371 270.755 420.4 273.494C422.122 274.819 421.945 274.333 421.769 276.983L423.58 273.847L423.315 277.778C424.286 277.116 424.596 275.261 425.346 275.172C425.346 277.248 425.346 276.762 426.627 277.867C423.491 276.188 425.081 281.224 422.21 280.517L419.295 276.1C415.673 275.791 416.778 281.135 413.067 282.107H414.569C415.32 284.095 412.891 283.609 412.405 284.978C411.522 283.476 410.55 283.388 409.534 282.769C410.329 283.829 407.281 284.183 409.004 287.186L406.354 286.391C403.439 287.275 406.354 292.354 403.836 293.458C403.439 291.427 401.716 291.162 402.467 289.041C401.672 289.571 400.789 289.792 401.495 290.764C400.435 290.19 400.7 294.209 399.066 293.326C399.066 294.165 400.126 295.755 399.066 296.241C398.847 296.05 398.68 295.807 398.58 295.534C399.066 296.241 397.918 297.434 399.773 298.494C394.296 295.667 393.412 303.441 388.686 301.055C387.362 302.762 385.883 304.344 384.269 305.781C384.269 305.251 383.783 305.031 384.269 304.986C381.266 304.986 385.904 309.978 382.503 310.198C379.632 308.741 382.856 308.034 381.487 307.725C377.821 303.308 379.102 310.375 375.568 308.785V308.211C373.227 307.504 373.845 312.098 371.637 313.158C371.518 312.895 371.354 312.656 371.151 312.451C371.135 315.413 370.017 318.263 368.015 320.446C367.308 318.193 368.015 318.855 366.513 317.265C365.851 318.149 368.899 320.092 367.573 321.682C366.293 321.064 364.438 321.064 362.847 319.209L364.393 317.972C361.743 315.984 362.362 319.518 361.213 319.695L360.506 318.502C358.298 320.622 360.506 323.493 357.503 325.172L358.386 325.834C358.916 329.677 356.045 325.127 356.09 328.219L353.616 325.702C353.01 328.109 352.09 330.426 350.878 332.592C350.747 330.073 351.107 327.553 351.938 325.172C350.966 325.834 348.846 327.689 349.376 329.589C349.376 329.059 349.376 328.043 350.215 328.175C350.542 329.367 350.506 330.63 350.113 331.802C349.72 332.974 348.986 334.002 348.007 334.756C344.385 329.014 342.088 336.876 337.671 333.608C335.772 338.025 330.427 337.539 326.761 340.631C331.178 343.899 325.745 341.602 329.147 345.799C328.44 346.726 328.042 346.903 327.733 346.682L323.316 346.064C321.77 345.224 323.316 344.473 322.698 343.546C320.489 344.65 320.534 342.265 318.281 342.088C319.694 343.458 319.209 344.827 317.663 345.048L320.71 345.887C319.65 350.304 315.675 343.943 314.527 348.272V346.24C313.687 348.095 309.226 350.039 310.375 354.588C309.756 354.279 308.564 353.307 308.961 352.556C305.163 354.5 304.103 361.832 299.863 361.39L299.332 360.153C298.935 360.948 299.686 362.98 298.14 362.494C297.831 362.009 297.61 361.213 297.257 361.39C296.903 361.567 296.947 364.482 295.622 364.482V362.759C291.205 363.775 292.663 369.385 290.41 372.167C289.555 371.104 288.375 370.351 287.05 370.024C285.726 369.697 284.33 369.813 283.078 370.356L282.681 369.915C278.573 372.388 278.264 377.379 275.393 381.222C270.667 379.455 266.824 385.33 261.877 386.081C262.849 386.081 263.6 388.554 263.158 389.349C261.877 389.349 262.496 393.236 260.464 390.277H260.817C258.123 387.936 256.93 389.923 255.561 390.851L258.123 394.782C250.57 391.911 250.438 403.616 244.872 400.126C244.872 401.716 243.68 402.467 243.503 404.057L242.222 401.937C239.691 402.855 237.418 404.37 235.597 406.354L235.111 404.499C233.388 405.559 237.364 411.787 235.95 413.024L233.256 410.374C230.473 412.538 225.615 412.096 224.864 416.91C224.599 416.425 224.024 415.497 224.378 415.055C223.009 415.983 217.708 416.911 221.286 420.621C219.21 418.015 218.15 422.564 217.488 425.038L216.427 422.697C217.046 426.186 217.532 427.114 216.427 428.969C215.809 428.969 214.837 427.688 215.809 427.776C213.601 427.776 216.118 430.47 213.601 430.691L213.291 428.969C211.701 429.896 212.32 430.515 212.629 432.59C212.938 434.666 209.493 434.181 207.903 432.59C208.521 433.827 208.83 435.903 207.594 436.036C207.379 435.833 207.212 435.585 207.105 435.31C206.998 435.035 206.954 434.74 206.975 434.446C203.486 434.976 205.076 439.525 201.896 438.862C201.611 438.438 201.213 438.101 200.747 437.891C201.819 436.963 203.025 436.203 204.325 435.638C202.956 433.827 201.145 434.711 200.482 431.221C200.262 433.518 200.482 438.156 198.186 438.465L197.523 437.979V437.67C197.037 437.67 196.861 438.156 196.772 438.686C196.19 438.686 195.615 438.822 195.094 439.083C193.813 437.758 192.709 439.658 191.87 440.188C193.415 442.131 192.179 442.573 194.387 443.456C194.122 443.456 194.387 443.103 194.785 442.661C194.821 442.501 194.821 442.335 194.785 442.175L196.64 440.585C196.64 442.043 196.64 443.368 195.05 442.926C195.624 444.516 196.198 446.15 196.419 446.945C193.239 445.002 190.059 445.09 188.469 443.633C186.923 446.548 183.389 448.624 184.758 453.482C184.449 454.454 183.168 452.997 182.462 452.599C182.462 451.936 183.08 451.627 182.859 450.965C182.241 452.952 179.149 454.366 180.783 457.193C178.177 457.193 179.944 454.101 177.912 456.309L177.603 455.293C169.873 454.675 175.218 467.616 166.031 466.247C166.649 466.247 166.958 466.247 167.356 466.689C159.759 468.853 157.064 478.084 148.496 478.835C146.287 479.321 147.391 481.132 147.347 483.252L145.36 481.441V485.196C144.344 488.817 137.144 483.252 136.747 488.994L138.248 490.098C136.923 490.673 135.422 493.632 134.317 491.821C134.317 492.174 135.112 493.588 134.317 493.19L133.39 492.13L132.197 496.105C129.503 496.9 129.105 491.688 125.925 493.588C125.13 494.913 125.219 499.33 126.19 499.727C126.657 499.561 127.164 499.554 127.635 499.706C128.106 499.857 128.514 500.16 128.796 500.566L128.222 501.936C130.563 505.337 132.374 509.268 136.658 509.577L136.879 506.22L138.646 507.368L137.277 508.605C139.264 509.444 138.778 507.722 138.646 506.353C139.213 506.95 139.956 507.353 140.766 507.501L140.059 503.084C141.252 504.188 141.252 506.22 142.975 505.999C142.665 503.967 139.971 503.791 140.545 501.803C142.577 502.598 143.24 504.012 143.24 501.803C143.563 502.035 143.817 502.351 143.973 502.717C144.129 503.083 144.181 503.485 144.123 503.879C144.123 502.201 146.155 501.671 145.271 499.462C147.568 500.566 147.877 496.68 150.174 499.816C149.763 498.348 149.888 496.782 150.527 495.399C151.941 500.213 153.752 493.234 156.402 497.519C154.944 493.102 159.229 493.102 159.759 489.613C159.759 489.966 160.024 490.673 159.759 490.628C161.084 490.054 162.144 490.628 163.336 490.893C161.393 488.067 162.586 486.123 162.232 483.694C165.589 485.328 163.866 487.537 166.252 489.789C164.485 487.581 166.87 485.77 165.015 484.268C167.267 485.107 166.472 484.268 168.769 486.256C166.296 482.678 169.299 484.931 168.504 482.148C171.287 482.722 171.375 485.063 172.214 482.766C173.672 483.65 173.186 485.858 173.186 485.858ZM207.594 450.523L206.887 451.23L207.594 450.523ZM210.818 448.005C210.299 448.277 209.811 448.603 209.36 448.977C208.698 448.403 208.3 447.608 208.654 447.387C208.742 447.74 209.802 447.564 210.73 447.785L210.818 448.005ZM193.504 439.569C193.813 438.907 194.255 439.127 194.652 439.569C194.372 439.853 194.121 440.164 193.901 440.497V440.806C193.681 440.341 193.518 439.852 193.415 439.348L193.504 439.569Z"
           fill="#6A4D93"
           id="path240"
           style="fill:#e54348;fill-opacity:1" />
        <path
           d="M194.343 442.661C194.343 442.661 194.343 442.661 194.343 442.97H194.962L194.697 442.219L194.343 442.661Z"
           fill="#6A4D93"
           id="path242" />
        <path
           d="M259.007 417.44L258.609 416.955L258.653 417.617L259.007 417.44Z"
           fill="#6A4D93"
           id="path244" />
        <path
           d="M523.534 222.081C523.704 222.263 523.917 222.4 524.153 222.479C523.968 222.316 523.759 222.182 523.534 222.081Z"
           fill="#6A4D93"
           id="path246" />
        <path
           d="M531.97 217.09H533.604C533.061 217.04 532.514 217.04 531.97 217.09Z"
           fill="#6A4D93"
           id="path248" />
        <path
           d="M538.861 213.954C538.735 213.614 538.572 213.288 538.375 212.983L538.861 213.954Z"
           fill="#6A4D93"
           id="path250" />
        <path
           d="M441.689 283.741C441.659 283.827 441.659 283.92 441.689 284.006C441.248 284.757 441.689 284.36 441.689 283.741Z"
           fill="#6A4D93"
           id="path252" />
        <path
           d="M467.705 258.742C467.692 259.282 467.603 259.817 467.44 260.332C468.191 260.155 468.5 259.89 467.705 258.742Z"
           fill="#6A4D93"
           id="path254" />
        <path
           d="M410.859 308.962V308.917L410.638 309.05L410.859 308.962Z"
           fill="#6A4D93"
           id="path256" />
        <path
           d="M466.026 261.259C466.334 261.303 466.648 261.232 466.908 261.062C467.168 260.891 467.357 260.632 467.44 260.332C466.91 260.597 466.247 260.597 466.026 261.259Z"
           fill="#6A4D93"
           id="path258" />
        <path
           d="M566.688 196.817H567.041V196.463L566.688 196.817Z"
           fill="#6A4D93"
           id="path260" />
        <path
           d="M566.864 196.331V195.845C566.864 195.845 566.731 196.066 566.864 196.331Z"
           fill="#6A4D93"
           id="path262" />
        <path
           d="M567.394 194.873L567.04 195.845C567.261 195.713 567.614 195.58 567.394 194.873Z"
           fill="#6A4D93"
           id="path264" />
        <path
           d="M557.765 201.366L558.163 202.161C558.068 201.879 557.934 201.612 557.765 201.366Z"
           fill="#6A4D93"
           id="path266" />
        <path
           d="M555.38 203.177C556.086 202.912 557.942 203.751 558.472 202.735L558.162 202.073C558.516 203.53 555.115 201.587 555.38 203.177Z"
           fill="#6A4D93"
           id="path268" />
        <path
           d="M538.861 200.969L541.334 200.174C540.451 199.599 539.258 198.848 540.097 198.053C535.636 197.435 541.643 199.467 538.861 200.969Z"
           fill="#6A4D93"
           id="path270" />
        <path
           d="M531.352 204.193C532.235 203.089 530.557 203.045 530.336 202.559C530.027 203.795 530.027 204.105 531.352 204.193Z"
           fill="#6A4D93"
           id="path272" />
        <path
           d="M484.136 236.083L482.987 234.139C482.281 234.979 483.473 234.846 484.136 236.083Z"
           fill="#6A4D93"
           id="path274" />
        <path
           d="M481.751 251.851L483.385 252.425L482.634 250.438L481.751 251.851Z"
           fill="#6A4D93"
           id="path276" />
        <path
           d="M467.351 242.222L467.572 241.692L466.556 243.327L467.351 242.222Z"
           fill="#6A4D93"
           id="path278" />
        <path
           d="M389.26 297.478L391.115 299.598C391.425 298.759 389.746 295.932 389.26 297.478Z"
           fill="#6A4D93"
           id="path280" />
        <path
           d="M357.238 323.714C356.046 322.875 354.588 322.787 354.809 324.332C355.692 323.935 357.062 324.288 357.238 323.714Z"
           fill="#6A4D93"
           id="path282" />
        <path
           d="M254.457 393.015L254.545 391.778L253.75 393.324L254.457 393.015Z"
           fill="#6A4D93"
           id="path284" />
        <path
           d="M534.709 565.362C535.504 565.362 536.785 563.993 535.99 563.507L533.296 564.832L534.709 565.362Z"
           fill="#6A4D93"
           id="path286" />
        <path
           d="M535.593 557.589C534.43 557.611 533.284 557.874 532.228 558.36C531.171 558.847 530.227 559.546 529.453 560.415C532.28 559.488 531.485 560.415 534.798 559.179C535.593 559.62 534.798 560.901 534.003 561.431C534.754 561.431 534.268 562.845 536.035 562.138C537.139 559.885 536.388 558.737 534.003 558.693C534.444 558.074 535.151 557.854 535.593 557.589Z"
           fill="#6A4D93"
           id="path288" />
        <path
           d="M488.597 490.275V490.893C488.641 490.796 488.664 490.691 488.664 490.584C488.664 490.478 488.641 490.372 488.597 490.275Z"
           fill="#6A4D93"
           id="path290" />
        <path
           d="M457.502 449.861C457.626 449.944 457.772 449.989 457.922 449.989C458.071 449.989 458.217 449.944 458.341 449.861C457.988 449.728 457.634 449.64 457.502 449.861Z"
           fill="#6A4D93"
           id="path292" />
        <path
           d="M454.41 441.115C454.391 441.291 454.391 441.469 454.41 441.645C454.631 441.292 454.631 441.071 454.41 441.115Z"
           fill="#6A4D93"
           id="path294" />
        <path
           d="M488.597 490.275V488.641C487.67 489.083 488.332 489.524 488.597 490.275Z"
           fill="#6A4D93"
           id="path296" />
        <path
           d="M523.136 552.907C523.483 553.003 523.85 553.003 524.197 552.907C523.958 552.825 523.734 552.706 523.534 552.553L523.136 552.907Z"
           fill="#6A4D93"
           id="path298" />
        <path
           d="M504.497 506.22L504.762 506.529L505.911 506.043L504.497 506.22Z"
           fill="#6A4D93"
           id="path300" />
        <path
           d="M515.496 519.471C515.496 519.073 513.287 520.531 512.36 521.061C513.287 520.619 513.861 520.531 514.215 520.708C514.675 520.331 515.103 519.918 515.496 519.471Z"
           fill="#6A4D93"
           id="path302" />
        <path
           d="M497.21 496.238L497.828 495.531C497.587 495.734 497.379 495.972 497.21 496.238Z"
           fill="#6A4D93"
           id="path304" />
        <path
           d="M151.941 162.718L152.206 162.365C151.985 162.497 151.853 162.63 151.941 162.718Z"
           fill="#6A4D93"
           id="path306" />
        <path
           d="M145.007 140.325L145.316 140.413L146.244 139.397L145.007 140.325Z"
           fill="#6A4D93"
           id="path308" />
        <path
           d="M446.46 426.937C446.946 427.158 446.769 426.981 446.46 426.937V426.937Z"
           fill="#6A4D93"
           id="path310" />
        <path
           d="M347.123 319.518C346.638 322.212 343.192 319.518 343.148 323.007C343.678 322.168 347.477 321.991 347.123 319.518Z"
           fill="#6A4D93"
           id="path312" />
        <path
           d="M523.137 552.332C522.943 552.188 522.778 552.008 522.651 551.802C522.688 551.921 522.75 552.03 522.834 552.122C522.918 552.214 523.022 552.286 523.137 552.332Z"
           fill="#6A4D93"
           id="path314" />
        <path
           d="M421.283 400.126C421.052 400.441 420.859 400.782 420.709 401.142C420.971 400.849 421.167 400.502 421.283 400.126Z"
           fill="#6A4D93"
           id="path316" />
        <path
           d="M436.566 423.094V422.343C436.504 422.59 436.504 422.848 436.566 423.094Z"
           fill="#6A4D93"
           id="path318" />
        <path
           d="M409.314 391.778C409.314 391.381 409.314 391.072 408.784 390.895V391.248C409.049 391.116 409.314 391.204 409.314 391.778Z"
           fill="#6A4D93"
           id="path320" />
        <path
           d="M399.419 380.824C399.419 380.824 399.419 381.178 399.419 381.355L399.817 381.62L399.419 380.824Z"
           fill="#6A4D93"
           id="path322" />
        <path
           d="M186.039 191.428C186.287 190.682 186.629 189.969 187.055 189.308C186.039 190.766 184.008 189.926 186.039 191.428Z"
           fill="#6A4D93"
           id="path324" />
        <path
           d="M524.241 552.112C523.667 552.465 523.357 552.553 523.136 552.421C523.249 552.548 523.384 552.652 523.534 552.73C523.816 552.583 524.058 552.371 524.241 552.112Z"
           fill="#6A4D93"
           id="path326" />
        <path
           d="M394.252 404.322L393.104 402.335C393.364 403.061 393.753 403.734 394.252 404.322Z"
           fill="#6A4D93"
           id="path328" />
        <path
           d="M262.981 263.247H262.363C262.45 263.319 262.559 263.358 262.672 263.358C262.785 263.358 262.894 263.319 262.981 263.247Z"
           fill="#6A4D93"
           id="path330" />
        <path
           d="M388.113 397.52C388.404 396.853 388.54 396.128 388.51 395.4C388.292 395.349 388.066 395.349 387.848 395.4L388.113 397.52Z"
           fill="#6A4D93"
           id="path332" />
        <path
           d="M171.685 183.433C173.275 184.935 174.6 181.755 176.101 180.651C178.707 181.755 175.395 183.257 174.953 185.068C176.764 185.509 179.723 184.14 180.563 185.068C180.253 185.509 180.298 185.819 179.635 186.128C182.683 185.377 183.61 189.529 187.32 188.469C187.247 188.738 187.128 188.992 186.967 189.22C187.737 187.938 188.656 186.751 189.706 185.686C190.501 186.349 192.488 185.421 191.34 187.232C190.942 186.79 190.324 187.232 189.661 187.718H191.031C189.706 190.589 189.264 187.718 187.762 189.22C189.926 189.838 193.416 189.529 193.99 191.251C192.223 193.681 190.589 189.529 190.368 192.93L189.308 190.456C187.541 195.182 188.469 189.22 186.305 194.122C188.115 196.861 190.015 195.315 191.737 198.142C193.372 197.391 193.239 196.154 194.873 195.403C200.218 196.242 192.4 203.354 197.523 202.647C199.511 201.764 202.338 199.202 202.691 202.249L199.82 204.237C201.852 206.534 204.237 201.808 205.209 205.695C203.884 206.269 202.691 204.855 202.78 205.695C202.47 209.096 205.165 205.297 206.313 206.357L204.546 208.786C207.241 210.686 211.392 211.525 214.44 213.601C213.689 214.087 212.585 214.352 212.585 215.633C216.761 218.213 219.89 222.187 221.419 226.852L224.422 226.101C224.687 226.41 224.157 227.47 223.495 227.514C224.069 229.413 224.687 226.41 225.968 226.233C226.807 226.763 225.968 228.177 224.908 228.353C228.618 228.795 234.449 230.827 234.846 235.023H233.874C234.934 237.496 239.572 233.124 239.572 236.48H238.954C242.09 240.897 248.097 243.415 248.318 249.113C251.454 246.948 250.968 254.015 254.855 250.526C255.252 254.545 254.015 254.59 255.915 258.874C256.577 259.846 259.404 257.726 260.817 258.344L258.918 260.332L262.319 259.625L260.817 262.673L262.231 263.114C262.131 262.727 262.14 262.321 262.257 261.939C262.374 261.557 262.594 261.214 262.893 260.95C265.279 261.524 265.234 265.853 264.307 266.913L269.475 268.724C268.635 269.43 267.752 269.121 266.824 269.165C270.667 269.165 265.146 271.55 268.68 271.418C268.68 270.755 269.916 270.358 270.358 270.005C270.049 272.036 271.992 274.024 273.936 274.951L272.346 276.012C275.158 278.75 278.106 281.344 281.179 283.785C280.782 282.151 283.299 280.075 284.404 280.693L282.681 283.079C284.492 282.372 282.681 281.4 285.243 281.003C286.082 282.328 283.653 284.05 282.372 284.094L284.404 284.713C283.874 285.42 283.255 285.42 282.416 286.126C284.183 285.375 282.416 290.543 285.64 289.041L285.11 289.704C287.579 291.773 290.159 293.705 292.84 295.49C294.651 293.812 295.181 295.137 297.257 294.43C298.092 297.195 299.424 299.784 301.188 302.071C303.529 302.69 303.131 301.011 304.854 300.658C303.352 302.38 305.561 304.368 303.308 304.368C305.669 306.453 308.394 308.085 311.347 309.182C311.7 308.167 311.568 307.504 312.318 307.151C313.202 307.46 312.981 309.138 312.318 309.845H312.009C318.016 311.126 315.454 322.786 321.682 322.433H321.108L325.79 323.758C326.85 325.437 323.758 324.111 323.758 326.143C329.589 326.806 328.175 331.664 332.592 332.636C329.809 339.482 340.101 340.101 339.615 345.622L340.631 344.385C342.442 344.076 340.631 345.887 341.072 346.682C341.867 345.754 341.337 344.915 342.397 344.783C349.641 349.641 352.689 359.226 357.592 366.602C359.447 369.208 364.791 362.185 364.791 367.927L361.832 369.031C368.855 371.372 370.666 378.793 377.114 381.531C376.363 381.531 375.701 382.282 375.303 381.796C374.597 384.225 378.528 385.55 379.72 384.402C380.25 385.285 378.704 385.639 378.483 386.655C378.483 388.51 382.9 387.361 381.619 389.261C381.619 389.614 380.869 389.481 380.604 389.261C381.929 389.261 383.121 392.441 384.358 390.188C385.109 392.75 388.201 392.838 388.421 395.223C391.292 394.296 390.144 399.11 393.28 396.814C390.188 399.331 393.678 402.025 396.063 401.937C394.826 402.335 396.063 403.748 394.34 404.411C395.488 405.647 397.079 406.354 398.448 404.764C396.946 410.285 405.515 406.972 402.07 412.361C406.699 414.563 411.094 417.227 415.188 420.311C412.052 422.785 411.566 416.734 408.518 419.649C412.626 421.813 416.866 421.46 418.942 425.347C419.296 426.539 417.22 426.009 416.469 426.142C420.576 428.35 421.637 432.767 425.833 434.269C425.391 434.431 424.905 434.431 424.463 434.269C425.082 434.755 425.17 435.991 426.495 434.71H425.656C426.848 432.06 431.751 433.43 432.9 432.635C428.129 435.02 434.401 436.389 428.085 439.083C428.531 439.183 428.995 439.162 429.43 439.023C429.865 438.883 430.255 438.629 430.559 438.288C430.559 439.083 430.559 439.702 428.88 440.055C431.398 441.468 432.237 439.481 433.783 441.38C433.12 441.954 432.546 441.778 431.575 442.263C433.695 442.263 435.991 441.954 436.61 444.03C436.124 444.03 435.771 444.914 435.373 444.428C437.891 446.945 442.793 446.106 444.207 450.17C440.541 451.76 444.207 451.981 441.733 454.277L443.853 455.249L444.56 453.571C445.664 455.028 448.58 454.763 448.977 456.662H447.078L449.772 458.915L449.463 456.618C451.981 456.972 452.511 453.792 453.394 456.265C452.82 456.265 454.542 457.723 453.703 459.71C455.117 459.71 456.574 459.71 456.795 461.344C456.221 462.272 453.836 463.464 453.438 464.083C456.132 463.023 456.795 466.91 459.798 465.938C458.901 466.25 458.097 466.781 457.457 467.484L459.666 466.645C459.666 467.749 459.666 468.102 458.341 468.853C459.666 471.106 461.035 465.54 461.609 468.853C461.3 468.853 461.124 469.074 460.549 468.853C461.786 471.812 465.452 472.519 466.424 475.39C464.392 478.173 464.215 474.021 462.669 476.538C465.717 479.277 471.106 480.514 472.961 484.091V483.296C476.936 480.734 472.961 487.007 476.008 487.183C475.434 487.183 473.579 488.332 474.065 488.111C475.169 490.673 478.482 491.644 482.148 493.941L480.911 494.294C480.911 496.194 483.031 497.916 483.694 499.595C484.975 499.241 485.416 500.125 486.432 498.579C484.401 507.015 495.664 504.144 494.118 511.432C493.764 510.99 492.439 511.034 492.748 511.432L496.061 513.861C497.475 512.359 496.724 512.669 497.43 511.034C497.998 510.844 498.608 510.813 499.192 510.946C499.776 511.078 500.313 511.369 500.743 511.785C498.579 511.211 498.181 513.817 497.784 515.142C498.181 514.656 498.888 514.435 499.374 513.994C497.828 517.881 502.775 511.697 502.642 515.495L501.715 516.025C502.819 516.511 504.542 516.423 504.983 517.527C503.437 519.338 503.437 517.306 501.847 518.455C502.952 519.647 507.368 518.19 506.264 520.796C505.337 520.796 504.718 519.912 503.791 519.78C502.598 522.739 503.261 522.43 503.791 523.667L504.497 526.582V525.566C510.593 523.358 507.943 528.128 512.801 527.774C508.384 528.039 510.769 528.79 508.384 530.292C508.384 531.308 508.384 532.633 507.457 532.854C509.93 532.545 507.457 535.592 511.034 535.106C510.416 535.681 511.829 536.211 509.93 537.315C511.52 538.242 510.902 536.078 511.829 535.548C515.76 535.548 512.713 542.527 518.19 543.013C521.458 544.559 524.108 543.013 527.024 544.735C526.538 546.37 524.02 545.972 524.02 545.972C523.95 546.784 524.181 547.593 524.67 548.245C525.159 548.897 525.871 549.346 526.67 549.506C525.875 549.506 525.566 550.345 525.08 551.316C526.008 552.156 528.039 550.036 528.039 552.111C526.927 552.624 525.755 552.995 524.55 553.216C526.052 553.878 528.216 554.055 529.718 554.762C528.79 555.998 527.377 555.424 526.273 555.601C527.819 556.528 529.983 558.251 532.191 557.235V555.866C532.633 556.263 530.734 557.323 530.115 557.235C527.774 557.235 529.497 555.071 530.115 554.497L531.175 555.027C534.532 551.096 527.951 552.111 526.759 550.212L530.204 548.711H526.449C526.935 547.783 528.349 546.281 529.453 546.767C529.939 544.426 527.554 546.502 528.349 544.205C528.395 544.093 528.475 543.999 528.578 543.935C528.682 543.872 528.802 543.843 528.923 543.852L527.112 543.322C527.907 543.322 529.011 541.555 529.188 542.615C529.188 539.17 524.329 540.804 525.919 538.198H526.229C522.96 535.946 523.888 539.523 519.647 539.258L523.799 533.649L521.414 535.018C521.33 534.881 521.277 534.728 521.256 534.568C521.235 534.409 521.248 534.247 521.294 534.093C521.34 533.939 521.417 533.796 521.522 533.674C521.626 533.552 521.755 533.453 521.9 533.384C519.559 533.384 521.105 534.311 519.25 534.709C520.045 531.705 515.186 531.352 518.322 528.393C516.29 529.099 518.322 530.734 515.805 530.071C519.117 526.803 513.773 528.746 514.391 526.096C516.6 525.036 516.6 527.112 517.218 524.462C513.42 526.14 515.849 521.282 514.347 520.663C511.785 522.562 511.388 519.029 509.047 517.792C509.974 517.218 507.633 513.11 507.148 510.637L507.589 510.372C504.807 512.05 503.835 509.842 502.289 508.914C502.76 508.464 503.326 508.123 503.944 507.917C504.563 507.711 505.219 507.644 505.867 507.722L504.895 506.485C504.453 506.674 503.97 506.748 503.492 506.702C503.013 506.656 502.554 506.49 502.156 506.22L504.321 505.027C502.907 503.437 499.462 503.437 499.02 500.346C497.165 501.626 495.487 505.911 492.483 504.762C493.367 503.923 494.957 502.554 495.796 502.819C495.531 502.819 494.471 502.819 494.559 502.068L496.9 501.671C496.9 500.125 495.134 502.245 494.648 501.361C496.061 500.257 495.178 499.992 496.37 499.241C496.635 499.241 496.37 500.39 497.121 500.257C496.818 499.646 496.66 498.974 496.66 498.292C496.66 497.61 496.818 496.937 497.121 496.326C496.415 496.989 495.31 497.784 494.604 497.298C493.19 495.752 495.796 495.399 495.708 493.897C494.471 494.25 494.604 492.439 492.528 493.897C492.174 493.411 493.013 492.572 493.455 491.953C491.865 491.953 489.966 488.199 488.597 490.893V491.203H488.376C483.959 490.054 484.842 484.489 481.75 482.369L482.457 481.839C480.337 480.823 479.012 478.57 476.627 478.57C476.229 478.084 476.936 476.406 477.908 475.964C476.362 475.125 475.523 475.567 475.125 472.872C477.334 473.182 475.832 471.592 477.024 473.447C476.318 471.327 477.024 470.09 473.8 469.869C474.153 469.753 474.461 469.528 474.679 469.227C474.898 468.925 475.015 468.563 475.015 468.191C475.015 467.818 474.898 467.456 474.679 467.154C474.461 466.853 474.153 466.628 473.8 466.512L473.491 468.676C472.651 468.041 471.983 467.206 471.547 466.247L474.153 464.79C474.153 459.18 464.525 462.714 467.042 456.353C464.701 456.795 467.396 459.092 464.922 459.843C463.95 458.076 465.85 453.747 465.496 453.261C464.966 450.17 460.549 454.101 459.578 451.186C459.048 452.157 457.104 454.189 455.161 453.217C454.189 451.451 456.972 448.491 458.429 448.8C458.502 448.854 458.562 448.923 458.603 449.004C458.644 449.085 458.665 449.174 458.665 449.264C458.665 449.355 458.644 449.444 458.603 449.524C458.562 449.605 458.502 449.675 458.429 449.728C459.136 449.728 460.019 450.302 460.417 448.977L459.445 449.463C459.445 448.005 457.811 445.974 459.445 445.355C457.723 444.869 457.723 445.974 457.988 447.21C457.546 444.251 455.514 444.074 454.587 441.468C454.587 442.131 453.703 443.235 453.438 442.882C451.936 439.127 450.832 442.882 449.021 441.203C449.286 439.083 452.29 439.172 449.551 438.023C449.551 436.124 451.451 435.991 452.511 435.903C449.419 435.417 450.611 431.486 450.037 430.382L451.495 430.779C450.817 430.582 450.226 430.162 449.816 429.587L448.712 431.486C448.491 430.691 448.094 430.205 448.712 429.631C447.166 429.94 446.459 432.37 444.03 432.414C444.03 431 441.203 430.868 443.103 428.836C444.384 431.795 445.002 426.76 447.078 428.439C446.459 428.439 446.106 427.82 445.885 426.981C445.998 426.91 446.128 426.873 446.261 426.873C446.393 426.873 446.524 426.91 446.636 426.981C446.636 423.094 443.368 427.997 441.424 425.612C442.882 424.905 443.235 423.138 442.617 422.962C443.412 423.933 441.027 425.126 439.392 425.038C439.039 422.741 437.316 424.022 436.742 423.138L437.096 424.375C435.638 425.126 435.152 424.375 433.871 423.536C434.711 422.608 435.329 423.933 435.417 423.182C432.325 423.845 435.417 418.766 432.546 418.324C432.546 416.866 434.711 416.292 434.711 415.188C431.619 414.702 434.711 411.831 431.707 411.036C430.603 412.979 431.089 412.714 428.35 412.759L432.193 414.879H428.129C428.924 415.85 430.868 415.983 431.089 416.778C428.969 416.778 429.454 416.778 428.527 418.324C429.764 414.967 424.905 416.999 425.214 413.907L429.189 410.506C429.189 406.752 423.712 408.342 422.167 404.587V406.089C420.267 407.105 420.4 404.543 418.942 404.146C420.356 403.086 420.311 402.07 420.753 400.965C419.826 401.849 418.986 398.757 416.336 400.965L416.91 398.139C415.585 395.179 410.859 398.757 409.358 396.151C411.389 395.577 411.389 393.722 413.774 394.34C413.156 393.589 412.803 392.706 411.875 393.501C412.317 392.308 408.298 392.971 408.916 391.204C408.077 391.204 406.619 392.485 406.001 391.557C406.177 391.32 406.403 391.124 406.663 390.983C406.001 391.557 404.631 390.453 403.836 392.485C405.824 386.566 397.829 386.39 399.42 381.31C397.483 380.099 395.664 378.709 393.987 377.158C394.428 376.893 394.605 376.584 394.738 377.158C394.119 374.022 389.879 379.234 389.172 375.745C390.232 372.697 391.425 375.745 391.557 374.508C395.489 370.091 388.466 372.256 389.57 368.457H390.144C390.542 365.984 385.727 367.044 384.49 364.835C384.762 364.712 384.992 364.512 385.153 364.261C382.009 364.572 378.862 363.707 376.319 361.832C378.483 360.904 377.953 361.832 379.323 359.977C378.307 359.358 376.849 362.671 374.906 361.478C374.975 359.654 375.573 357.889 376.628 356.399L378.174 357.857C379.764 354.941 376.231 355.957 375.878 354.765L376.982 353.926C374.464 351.85 371.902 354.191 369.738 351.452L369.208 352.424C365.409 353.396 369.561 349.95 366.381 350.304L368.545 347.521C365.991 347.137 363.497 346.424 361.125 345.401C363.699 344.998 366.328 345.118 368.855 345.754C368.015 344.827 365.807 342.839 364.084 343.502C364.659 343.502 365.719 343.502 365.674 344.253C364.472 344.693 363.167 344.773 361.919 344.483C360.672 344.192 359.536 343.545 358.652 342.618C363.908 338.201 355.516 336.7 358.122 331.841C353.263 330.383 352.91 324.818 349.288 321.373C346.726 326.32 348.184 320.401 344.473 324.377C343.413 323.758 343.148 323.361 343.325 323.051V318.193C343.899 316.514 344.959 318.193 345.754 317.265C344.297 315.101 346.682 314.924 346.505 312.848C345.357 314.439 343.899 314.085 343.413 312.495L343.06 315.764C338.643 315.101 344.164 310.331 339.571 309.668L341.602 309.315C339.615 308.652 336.832 304.28 332.415 305.958C332.415 305.296 333.387 303.97 334.226 304.28C331.267 300.349 323.581 300.349 323.051 295.932L324.244 295.269C323.405 294.916 321.461 295.932 321.682 294.253C322.124 293.9 322.875 293.591 322.654 293.237C322.433 292.884 319.43 293.237 319.209 291.957L320.931 291.559C319.12 287.142 313.643 289.306 310.419 287.142C311.343 286.082 311.895 284.748 311.991 283.344C312.087 281.941 311.721 280.545 310.949 279.368L311.391 279.059C308.078 275.084 302.955 275.172 298.538 272.92C299.421 267.884 292.752 264.66 291.073 259.669C291.073 260.641 288.865 261.701 287.981 261.392C287.981 260.067 283.918 261.392 286.568 258.742L286.789 259.095C288.644 256.003 286.391 255.031 285.199 253.75L281.709 256.842C283.123 248.804 271.241 250.173 273.671 244.077C272.036 244.077 271.065 243.15 269.254 243.194L271.065 241.427C269.589 238.968 267.582 236.87 265.19 235.288L267.001 234.537C265.544 232.903 260.022 237.805 258.521 236.525L260.685 233.433C257.947 230.827 257.416 225.836 252.337 225.703C252.779 225.35 253.618 224.643 254.148 224.952C252.911 223.671 250.879 218.415 247.832 222.567C250.084 220.138 245.226 219.652 242.752 219.343L244.652 217.753C241.251 218.857 240.632 219.431 238.291 218.415C238.07 217.797 239.263 216.649 239.396 217.62C238.866 215.368 236.701 218.327 235.95 215.765L237.629 215.235C236.348 213.733 235.862 214.44 233.83 215.235C232.284 215.235 231.578 212.232 232.903 210.421C231.799 211.216 229.767 211.834 229.369 210.421C229.526 210.173 229.741 209.968 229.995 209.822C230.249 209.675 230.534 209.593 230.827 209.581C229.59 206.092 225.306 208.389 225.306 205.165C225.686 204.817 225.935 204.349 226.012 203.84C227.912 205.65 229.325 207.152 229.06 207.152C230.606 205.474 229.369 203.751 232.726 202.735C230.297 202.735 225.659 203.619 224.908 201.454C224.969 201.189 225.074 200.935 225.217 200.704H225.571C225.454 200.485 225.273 200.308 225.051 200.197C224.829 200.086 224.579 200.047 224.334 200.085C224.231 199.484 223.972 198.921 223.583 198.451C224.687 196.905 222.479 196.066 221.772 195.315C220.182 197.17 219.431 195.977 218.99 198.318C218.99 198.098 219.343 198.318 219.917 198.628C220.491 198.937 220.226 198.628 220.403 198.628C220.933 199.025 221.64 199.599 222.391 200.262C220.933 200.615 219.608 200.792 219.696 199.025L215.898 200.969C217.179 197.479 216.428 194.211 217.576 192.4C214.308 191.251 211.437 187.983 206.799 190.059C205.739 190.059 206.799 188.38 207.196 187.585C207.903 187.585 208.301 188.071 208.963 187.585C206.843 187.232 204.546 184.317 202.205 186.393C201.499 183.787 205.165 185.068 202.47 183.345L203.486 182.903C202.382 174.909 190.236 182.373 189.794 172.833C189.885 173.05 189.932 173.282 189.932 173.518C189.932 173.753 189.885 173.985 189.794 174.202C185.907 166.826 176.013 165.368 173.319 156.976C172.303 154.812 170.713 156.225 168.681 156.535L170.095 154.194L166.34 155.033C162.409 154.591 166.34 146.199 160.51 146.906L159.759 148.628C158.876 147.392 155.342 146.376 157.065 144.962C156.756 144.962 155.475 146.067 155.651 144.962L156.535 143.902L152.118 143.328C150.66 140.722 156.093 139.441 153.178 136.526C151.676 135.908 147.259 136.747 147.083 137.851C147.347 138.273 147.465 138.77 147.417 139.266C147.369 139.761 147.158 140.227 146.818 140.59L145.316 140.236C142.401 143.196 138.867 145.713 139.574 150.086L142.975 149.733L142.268 151.764L140.678 150.528C140.28 152.692 141.915 151.941 143.284 151.588C142.794 152.251 142.545 153.061 142.577 153.884L146.994 152.471C146.155 153.884 144.123 154.194 144.697 155.872C146.729 155.21 146.287 152.471 148.408 152.736C148.054 154.9 146.817 155.828 148.849 155.519C148.678 155.88 148.41 156.187 148.074 156.406C147.739 156.624 147.35 156.745 146.95 156.755C148.673 156.755 149.644 158.434 151.367 157.153C150.749 159.671 154.768 159.361 152.118 162.188C153.511 161.582 155.07 161.473 156.535 161.879C152.118 164.043 159.406 164.75 155.74 168.151C159.582 165.987 160.952 170.227 164.573 170.227C164.264 170.227 163.602 170.669 163.558 170.227C164.441 171.464 163.911 172.656 164.088 173.893C166.517 171.42 168.769 172.347 171.066 171.596C170.183 175.306 167.577 173.893 165.854 176.676C167.665 174.511 170.05 176.676 171.155 174.511C170.801 176.985 171.375 176.057 169.962 178.663C173.054 175.571 171.42 178.972 174.026 177.736C174.026 180.651 171.729 181.093 174.026 181.578C174.158 183.566 171.685 183.433 171.685 183.433ZM215.103 212.806L214.219 212.187L215.103 212.806ZM218.327 215.721C217.933 215.221 217.489 214.762 217.002 214.352C217.488 213.645 218.194 213.115 218.504 213.424C217.929 213.689 218.327 214.749 218.327 215.721ZM223.23 196.817C223.981 196.817 223.804 197.568 223.539 198.009C223.189 197.773 222.819 197.566 222.435 197.391H222.17C222.5 197.159 222.855 196.966 223.23 196.817Z"
           fill="#6A4D93"
           id="path334"
           style="fill:#e54348;fill-opacity:1" />
        <path
           d="M220.094 198.363C220.094 198.363 220.094 198.363 219.741 198.363C219.72 198.598 219.72 198.834 219.741 199.069L220.403 198.76L220.094 198.363Z"
           fill="#6A4D93"
           id="path336" />
        <path
           d="M488.685 490.938C488.723 491.067 488.723 491.205 488.685 491.335C488.685 491.335 488.641 491.026 488.685 490.938Z"
           fill="#6A4D93"
           id="path338" />
        <path
           d="M258.653 260.729L259.051 260.287L258.432 260.376L258.653 260.729Z"
           fill="#6A4D93"
           id="path340" />
        <path
           d="M497.077 515.054C496.922 515.247 496.816 515.474 496.768 515.716C496.914 515.518 497.019 515.293 497.077 515.054Z"
           fill="#6A4D93"
           id="path342" />
        <path
           d="M503.084 523.578V525.257C503.158 524.7 503.158 524.136 503.084 523.578Z"
           fill="#6A4D93"
           id="path344" />
        <path
           d="M507.06 530.601C507.371 530.437 507.667 530.245 507.943 530.027L507.06 530.601Z"
           fill="#6A4D93"
           id="path346" />
        <path
           d="M424.331 434.357H424.066C423.227 433.96 423.668 434.18 424.331 434.357Z"
           fill="#6A4D93"
           id="path348" />
        <path
           d="M453.173 459.357C452.616 459.427 452.052 459.427 451.495 459.357C451.804 459.843 452.113 460.284 453.173 459.357Z"
           fill="#6A4D93"
           id="path350" />
        <path
           d="M450.523 457.855C450.515 458.171 450.616 458.479 450.81 458.729C451.003 458.978 451.276 459.153 451.583 459.224C451.274 458.694 451.053 458.032 450.523 457.855Z"
           fill="#6A4D93"
           id="path352" />
        <path
           d="M527.288 558.693V559.046H527.642L527.288 558.693Z"
           fill="#6A4D93"
           id="path354" />
        <path
           d="M527.774 558.869H528.26C528.26 558.869 528.039 558.737 527.774 558.869Z"
           fill="#6A4D93"
           id="path356" />
        <path
           d="M529.321 559.355L528.261 559.002C528.437 559.267 528.614 559.62 529.321 559.355Z"
           fill="#6A4D93"
           id="path358" />
        <path
           d="M521.767 549.594L520.972 550.036C521.262 549.939 521.532 549.789 521.767 549.594Z"
           fill="#6A4D93"
           id="path360" />
        <path
           d="M519.603 547.209C519.912 547.96 519.25 549.903 520.354 550.389L520.972 550.036C519.603 550.477 521.193 546.855 519.603 547.209Z"
           fill="#6A4D93"
           id="path362" />
        <path
           d="M520.222 529.762L521.326 532.324C521.768 531.352 522.43 530.071 523.358 530.911C523.534 526.449 522.077 532.766 520.222 529.762Z"
           fill="#6A4D93"
           id="path364" />
        <path
           d="M516.158 522.298C517.395 523.181 517.218 521.414 517.704 521.149C516.423 521.193 516.114 520.928 516.158 522.298Z"
           fill="#6A4D93"
           id="path366" />
        <path
           d="M478.305 474.948L480.16 473.668C479.189 473.005 479.454 474.198 478.305 474.948Z"
           fill="#6A4D93"
           id="path368" />
        <path
           d="M461.919 473.491L461.565 475.214L463.464 474.286L461.919 473.491Z"
           fill="#6A4D93"
           id="path370" />
        <path
           d="M469.958 457.943L470.532 458.12L468.677 457.237L469.958 457.943Z"
           fill="#6A4D93"
           id="path372" />
        <path
           d="M402.821 381.31L400.966 383.386C401.937 383.651 404.322 381.664 402.821 381.31Z"
           fill="#6A4D93"
           id="path374" />
        <path
           d="M371.019 350.701C371.726 349.376 371.505 347.874 370.003 348.228C370.666 348.934 370.533 350.569 371.019 350.701Z"
           fill="#6A4D93"
           id="path376" />
        <path
           d="M282.593 252.867L283.874 252.823L282.107 252.205L282.593 252.867Z"
           fill="#6A4D93"
           id="path378" />
      </g>
    </g>
  </g>
</svg>
