<svg width="21" height="24" viewBox="0 0 21 24" fill="none" xmlns="http://www.w3.org/2000/svg">
<path d="M15.6 18H4.8V10.2C4.8 7.2 7.2 4.8 10.2 4.8C13.2 4.8 15.6 7.2 15.6 10.2V18ZM18 16.8V10.2C18 6.516 15.432 3.432 12 2.616V1.8C12 1.32261 11.8104 0.864773 11.4728 0.527208C11.1352 0.189642 10.6774 0 10.2 0C9.72261 0 9.26477 0.189642 8.92721 0.527208C8.58964 0.864773 8.4 1.32261 8.4 1.8V2.616C4.956 3.432 2.4 6.516 2.4 10.2V16.8L0 19.2V20.4H20.4V19.2L18 16.8ZM10.2 24C10.8365 24 11.447 23.7471 11.8971 23.2971C12.3471 22.847 12.6 22.2365 12.6 21.6H7.8C7.8 22.2365 8.05286 22.847 8.50294 23.2971C8.95303 23.7471 9.56348 24 10.2 24Z" fill="#7F529A"/>
</svg>
