<?xml version="1.0" encoding="UTF-8" standalone="no"?>
<svg
   xmlns:dc="http://purl.org/dc/elements/1.1/"
   xmlns:cc="http://creativecommons.org/ns#"
   xmlns:rdf="http://www.w3.org/1999/02/22-rdf-syntax-ns#"
   xmlns:svg="http://www.w3.org/2000/svg"
   xmlns="http://www.w3.org/2000/svg"
   xmlns:sodipodi="http://sodipodi.sourceforge.net/DTD/sodipodi-0.dtd"
   xmlns:inkscape="http://www.inkscape.org/namespaces/inkscape"
   width="20"
   height="22"
   viewBox="0 0 20 22"
   fill="none"
   version="1.1"
   id="svg4"
   sodipodi:docname="Vector-3.svg"
   inkscape:version="1.0.1 (3bc2e813f5, 2020-09-07)">
  <metadata
     id="metadata10">
    <rdf:RDF>
      <cc:Work
         rdf:about="">
        <dc:format>image/svg+xml</dc:format>
        <dc:type
           rdf:resource="http://purl.org/dc/dcmitype/StillImage" />
      </cc:Work>
    </rdf:RDF>
  </metadata>
  <defs
     id="defs8" />
  <sodipodi:namedview
     pagecolor="#ffffff"
     bordercolor="#666666"
     borderopacity="1"
     objecttolerance="10"
     gridtolerance="10"
     guidetolerance="10"
     inkscape:pageopacity="0"
     inkscape:pageshadow="2"
     inkscape:window-width="1366"
     inkscape:window-height="715"
     id="namedview6"
     showgrid="false"
     inkscape:zoom="23.900448"
     inkscape:cx="10"
     inkscape:cy="11"
     inkscape:window-x="-8"
     inkscape:window-y="-8"
     inkscape:window-maximized="1"
     inkscape:current-layer="svg4" />
  <path
     d="M14 8C20 8 20 12 20 12V14H14V12C14 12 14 10.31 12.85 8.8C12.68 8.57 12.47 8.35 12.25 8.14C12.77 8.06 13.34 8 14 8ZM6 10C9.5 10 9.94 11.56 10 12H2C2.06 11.56 2.5 10 6 10ZM6 8C0 8 0 12 0 12V14H12V12C12 12 12 8 6 8ZM7 16V18H13V16L16 19L13 22V20H7V22L4 19L7 16ZM6 2C6.55 2 7 2.45 7 3C7 3.55 6.55 4 6 4C5.45 4 5 3.55 5 3C5 2.45 5.45 2 6 2ZM6 0C4.34 0 3 1.34 3 3C3 4.66 4.34 6 6 6C7.66 6 9 4.66 9 3C9 1.34 7.66 0 6 0ZM14 0C12.34 0 11 1.34 11 3C11 4.66 12.34 6 14 6C15.66 6 17 4.66 17 3C17 1.34 15.66 0 14 0Z"
     fill="white"
     id="path2"
     style="fill:#000000" />
</svg>
