<?xml version="1.0" encoding="UTF-8" standalone="no"?>
<!-- Created with Inkscape (http://www.inkscape.org/) -->

<svg
   xmlns:dc="http://purl.org/dc/elements/1.1/"
   xmlns:cc="http://creativecommons.org/ns#"
   xmlns:rdf="http://www.w3.org/1999/02/22-rdf-syntax-ns#"
   xmlns:svg="http://www.w3.org/2000/svg"
   xmlns="http://www.w3.org/2000/svg"
   xmlns:sodipodi="http://sodipodi.sourceforge.net/DTD/sodipodi-0.dtd"
   xmlns:inkscape="http://www.inkscape.org/namespaces/inkscape"
   width="210mm"
   height="297mm"
   viewBox="0 0 210 297"
   version="1.1"
   id="svg8"
   inkscape:version="0.92.4 (5da689c313, 2019-01-14)"
   sodipodi:docname="RELOGIO JN.svg">
  <defs
     id="defs2" />
  <sodipodi:namedview
     id="base"
     pagecolor="#ffffff"
     bordercolor="#666666"
     borderopacity="1.0"
     inkscape:pageopacity="0.0"
     inkscape:pageshadow="2"
     inkscape:zoom="0.49497475"
     inkscape:cx="981.82024"
     inkscape:cy="713.66273"
     inkscape:document-units="mm"
     inkscape:current-layer="g4640"
     showgrid="false"
     showguides="true"
     inkscape:guide-bbox="true"
     inkscape:window-width="1811"
     inkscape:window-height="1051"
     inkscape:window-x="-9"
     inkscape:window-y="-9"
     inkscape:window-maximized="1" />
  <metadata
     id="metadata5">
    <rdf:RDF>
      <cc:Work
         rdf:about="">
        <dc:format>image/svg+xml</dc:format>
        <dc:type
           rdf:resource="http://purl.org/dc/dcmitype/StillImage" />
        <dc:title />
      </cc:Work>
    </rdf:RDF>
  </metadata>
  <g
     inkscape:label="Camada 1"
     inkscape:groupmode="layer"
     id="layer1">
    <g
       id="g991"
       transform="matrix(1.0345212,0,-2.2684367e-8,0.99998457,4.2614487,0.00171139)">
      <g
         id="g4586"
         transform="translate(40.920703)">
        <g
           id="g4640"
           inkscape:export-filename="C:\Users\Mateus Emanuel\Desktop\g4640.png"
           inkscape:export-xdpi="96"
           inkscape:export-ydpi="96">
          <path
             inkscape:export-ydpi="96"
             inkscape:export-xdpi="96"
             inkscape:export-filename="C:\Users\Mateus Emanuel\Pictures\path4567.png"
             style="opacity:0.97000002;fill:#000000;fill-opacity:1;stroke:#000000;stroke-width:0;stroke-miterlimit:4;stroke-dasharray:none;stroke-opacity:1"
             d="m 56.223432,22.810346 c -1.25679,-7.81e-4 -2.54702,0.05165 -3.71647,0.198093 -1.34948,0.168952 -2.46083,1.949906 -2.52563,3.452958 -0.1915,4.445623 0.28936,8.495397 0.0328,12.590214 -0.0381,0.608369 -0.26819,1.194467 -0.52271,1.735202 -0.4173,0.886625 -1.61607,2.407425 -1.61607,2.407425 h 0.0143 c -0.99233,0.866359 -1.6374,2.202234 -1.65842,3.712509 -0.0286,2.057116 1.10905,3.807509 2.73661,4.498474 0.30411,0.402113 0.67663,1.023969 0.68336,1.684747 0.0934,9.158143 -0.12224,28.967208 -0.12224,28.967208 0,0 0.1032,20.685664 -1.47621,30.600584 -0.21366,1.34149 -0.9293,2.92862 -1.63046,4.24902 -5.43432,3.89532 -8.72206,10.52382 -8.75254,17.64629 -0.0161,6.06484 2.33711,11.84784 6.46271,15.88726 0.28256,0.93552 2.82801,9.44293 3.52946,15.0912 1.33097,10.71741 0.99906,32.43759 0.99906,32.43759 0,0 0.24762,49.84462 0.46356,74.70854 -0.24906,5.14708 3.92961,10.08627 8.27241,10.13613 4.16256,0.0477 8.66772,-2.97341 8.69476,-9.49322 0.10064,-24.7717 -1.24123,-74.416 -1.24123,-74.416 0,0 -0.64784,-21.63631 0.80325,-32.27892 0.69526,-5.09952 3.36908,-13.96328 3.97863,-15.95052 4.2271,-3.99921 6.67088,-9.80858 6.70247,-15.93313 0.0173,-7.32506 -3.41273,-14.14293 -9.07224,-18.0333 -0.73814,-1.1829 -1.44125,-2.62874 -1.53533,-3.96655 -0.65988,-9.38276 -1.01744,-30.612531 -1.01744,-30.612531 0,0 -0.45837,-18.548011 0.0288,-28.926851 0.0365,-0.775511 0.44894,-1.511802 0.71452,-1.919523 1.36022,-0.794288 2.2948,-2.366269 2.32022,-4.191254 0.0232,-1.667604 -0.71902,-3.135676 -1.86784,-4.000473 -0.35963,-0.509997 -1.06038,-1.544652 -1.32436,-2.23409 -0.20875,-0.545829 -0.28016,-1.149903 -0.33408,-1.739781 -0.3811,-4.165307 0.29237,-8.649121 0.0878,-12.559031 -0.0813,-1.555868 -1.41879,-3.340034 -2.81973,-3.478639 -1.19412,-0.118195 -3.19634,-0.268317 -5.291,-0.269631 z m -1.51377,2.902693 4.58367,9.05e-4 c 0.75146,2.48e-4 1.35653,0.671514 1.35632,1.505005 -2.2e-4,0.83349 -0.60486,1.504312 -1.35632,1.504064 l -4.58447,-9.05e-4 c -0.75146,-2.49e-4 -1.35573,-0.671514 -1.35551,-1.505005 2e-4,-0.833491 0.60486,-1.504312 1.35631,-1.504064 z m -3.06751,18.158036 10.79062,0.03389 c 1.41844,0.0053 2.54379,1.274506 2.524,2.84766 -0.0198,1.573153 -1.17749,2.836549 -2.59593,2.832059 l -10.7906,-0.03389 c -1.41846,-0.0053 -2.54381,-1.274488 -2.52403,-2.847659 0.0198,-1.573153 1.17751,-2.83655 2.59594,-2.83206 z m 5.41489,36.221624 c 0.82465,0.0053 1.48456,0.994563 1.4794,2.218508 l -0.0926,21.992523 c -0.005,1.22396 -0.67313,2.20537 -1.49777,2.20017 -0.82465,-0.005 -1.48456,-0.99457 -1.4794,-2.21851 l 0.0926,-21.992515 c 0.005,-1.223945 0.67315,-2.205375 1.49779,-2.200176 z m -0.056,35.880451 c 9.24979,-3.7e-4 16.74833,8.31666 16.74819,18.57626 -3.2e-4,10.25924 -7.49874,18.5757 -16.74819,18.57533 -9.24911,-1.3e-4 -16.74704,-8.31644 -16.74736,-18.57533 -1.4e-4,-10.25926 7.49793,-18.57614 16.74736,-18.57626 z m -0.0232,47.04822 c 0.82466,0.005 1.48457,0.99456 1.47941,2.2185 l -0.0926,21.99253 c -0.005,1.22396 -0.67312,2.20537 -1.49777,2.20017 -0.82465,-0.005 -1.48456,-0.99549 -1.47941,-2.21943 l 0.0926,-21.99252 c 0.005,-1.22394 0.67314,-2.20445 1.49777,-2.19925 z m -1.85184,31.747 3.75566,0.007 c 1.03265,0.002 1.86284,0.92456 1.86143,2.06994 -9.9e-4,1.14539 -0.83358,2.0662 -1.86624,2.06444 l -3.75564,-0.007 c -1.03266,-0.002 -1.86284,-0.92456 -1.86146,-2.06993 10e-4,-1.14541 0.8336,-2.06619 1.86625,-2.06445 z m 0,8.48152 3.75566,0.007 c 1.03265,0.002 1.86284,0.92547 1.86142,2.07085 -9.9e-4,1.14539 -0.83357,2.06528 -1.86623,2.06352 l -3.75564,-0.007 c -1.03266,-0.002 -1.86284,-0.92455 -1.86146,-2.06993 10e-4,-1.14539 0.8336,-2.06618 1.86625,-2.06444 z m 0,8.45218 3.75566,0.007 c 1.03265,0.002 1.86284,0.92455 1.86142,2.06995 -9.9e-4,1.14539 -0.83357,2.06618 -1.86623,2.06442 l -3.75564,-0.007 c -1.03266,-0.002 -1.86284,-0.92546 -1.86146,-2.07087 10e-4,-1.14537 0.8336,-2.06526 1.86625,-2.0635 z m 0,8.51086 3.75566,0.007 c 1.03265,0.002 1.86284,0.92546 1.86142,2.07085 -9.9e-4,1.14539 -0.83357,2.06618 -1.86623,2.06445 l -3.75564,-0.007 c -1.03266,-0.002 -1.86284,-0.92547 -1.86146,-2.07085 10e-4,-1.14539 0.8336,-2.06619 1.86625,-2.06444 z m 0,9.33169 3.75566,0.007 c 1.03265,0.002 1.86284,0.92546 1.86142,2.07085 -9.9e-4,1.14539 -0.83357,2.06618 -1.86623,2.06445 l -3.75564,-0.007 c -1.03266,-0.002 -1.86284,-0.92547 -1.86146,-2.07085 10e-4,-1.14539 0.8336,-2.0662 1.86625,-2.06444 z m 0,8.45218 3.75566,0.007 c 1.03265,0.002 1.86284,0.92548 1.86142,2.07085 -9.9e-4,1.14539 -0.83357,2.0662 -1.86623,2.06445 l -3.75564,-0.007 c -1.03266,-0.002 -1.86284,-0.92546 -1.86146,-2.07085 10e-4,-1.14539 0.8336,-2.06618 1.86625,-2.06442 z m 0,9.39129 3.75566,0.007 c 1.03264,0.002 1.86284,0.92456 1.86142,2.06994 -9.9e-4,1.14539 -0.83357,2.0662 -1.86623,2.06444 l -3.75564,-0.007 c -1.03266,-0.002 -1.86284,-0.92455 -1.86146,-2.06992 10e-4,-1.14541 0.8336,-2.0662 1.86625,-2.06445 z"
             id="rect956"
             inkscape:connector-curvature="0"
             sodipodi:nodetypes="cccccccccccccccsccccccccccccccccccccccccccscccsccccccccscccccccccccscccccccccccccccccccccccccccccccccccccccccccccccccccc" />
          <rect
             inkscape:export-ydpi="96"
             inkscape:export-xdpi="96"
             inkscape:export-filename="C:\Users\Mateus Emanuel\Pictures\path4567.png"
             style="opacity:1;fill:#000000;fill-opacity:1;stroke:none;stroke-width:0.85753715;stroke-miterlimit:4;stroke-dasharray:none;stroke-opacity:1"
             id="rect4549"
             width="6.020031"
             height="1.7971188"
             x="53.977467"
             y="26.334776"
             ry="0.89855939" />
          <rect
             ry="1.4498113"
             y="195.40344"
             x="53.977467"
             height="2.8996227"
             width="6.020031"
             id="rect856"
             style="opacity:1;fill:#000000;fill-opacity:1;stroke:none;stroke-width:1.0892694;stroke-miterlimit:4;stroke-dasharray:none;stroke-opacity:1"
             inkscape:export-filename="C:\Users\Mateus Emanuel\Pictures\path4567.png"
             inkscape:export-xdpi="96"
             inkscape:export-ydpi="96" />
          <rect
             inkscape:export-ydpi="96"
             inkscape:export-xdpi="96"
             inkscape:export-filename="C:\Users\Mateus Emanuel\Pictures\path4567.png"
             style="opacity:1;fill:#000000;fill-opacity:1;stroke:none;stroke-width:1.0892694;stroke-miterlimit:4;stroke-dasharray:none;stroke-opacity:1"
             id="rect858"
             width="6.020031"
             height="2.8996227"
             x="53.977467"
             y="203.87024"
             ry="1.4498113" />
          <rect
             ry="1.4498113"
             y="212.33704"
             x="53.977467"
             height="2.8996227"
             width="6.020031"
             id="rect860"
             style="opacity:1;fill:#000000;fill-opacity:1;stroke:none;stroke-width:1.0892694;stroke-miterlimit:4;stroke-dasharray:none;stroke-opacity:1"
             inkscape:export-filename="C:\Users\Mateus Emanuel\Pictures\path4567.png"
             inkscape:export-xdpi="96"
             inkscape:export-ydpi="96" />
          <rect
             inkscape:export-ydpi="96"
             inkscape:export-xdpi="96"
             inkscape:export-filename="C:\Users\Mateus Emanuel\Pictures\path4567.png"
             style="opacity:1;fill:#000000;fill-opacity:1;stroke:none;stroke-width:1.0892694;stroke-miterlimit:4;stroke-dasharray:none;stroke-opacity:1"
             id="rect862"
             width="6.020031"
             height="2.8996227"
             x="53.977467"
             y="220.80383"
             ry="1.4498113" />
          <rect
             ry="1.4498113"
             y="230.16193"
             x="53.977467"
             height="2.8996227"
             width="6.020031"
             id="rect864"
             style="opacity:1;fill:#000000;fill-opacity:1;stroke:none;stroke-width:1.0892694;stroke-miterlimit:4;stroke-dasharray:none;stroke-opacity:1"
             inkscape:export-filename="C:\Users\Mateus Emanuel\Pictures\path4567.png"
             inkscape:export-xdpi="96"
             inkscape:export-ydpi="96" />
          <rect
             inkscape:export-ydpi="96"
             inkscape:export-xdpi="96"
             inkscape:export-filename="C:\Users\Mateus Emanuel\Pictures\path4567.png"
             style="opacity:1;fill:#000000;fill-opacity:1;stroke:none;stroke-width:1.0892694;stroke-miterlimit:4;stroke-dasharray:none;stroke-opacity:1"
             id="rect866"
             width="6.020031"
             height="2.8996227"
             x="53.977467"
             y="238.62872"
             ry="1.4498113" />
          <rect
             ry="1.4498113"
             y="248.02394"
             x="53.988884"
             height="2.8996227"
             width="6.020031"
             id="rect868"
             style="opacity:1;fill:#000000;fill-opacity:1;stroke:none;stroke-width:1.0892694;stroke-miterlimit:4;stroke-dasharray:none;stroke-opacity:1"
             inkscape:export-filename="C:\Users\Mateus Emanuel\Pictures\path4567.png"
             inkscape:export-xdpi="96"
             inkscape:export-ydpi="96" />
        </g>
      </g>
    </g>
  </g>
</svg>
