<?xml version="1.0" encoding="UTF-8" standalone="no"?>
<!-- Created with Inkscape (http://www.inkscape.org/) -->

<svg
   xmlns:dc="http://purl.org/dc/elements/1.1/"
   xmlns:cc="http://creativecommons.org/ns#"
   xmlns:rdf="http://www.w3.org/1999/02/22-rdf-syntax-ns#"
   xmlns:svg="http://www.w3.org/2000/svg"
   xmlns="http://www.w3.org/2000/svg"
   xmlns:xlink="http://www.w3.org/1999/xlink"
   xmlns:sodipodi="http://sodipodi.sourceforge.net/DTD/sodipodi-0.dtd"
   xmlns:inkscape="http://www.inkscape.org/namespaces/inkscape"
   sodipodi:docname="Logo Profile.svg"
   inkscape:version="0.92.4 (5da689c313, 2019-01-14)"
   id="svg8"
   version="1.1"
   viewBox="0 0 1920 1080"
   height="1080mm"
   width="1920mm">
  <defs
     id="defs2">
    <linearGradient
       inkscape:collect="always"
       id="linearGradient1784">
      <stop
         style="stop-color:#288972;stop-opacity:1;"
         offset="0"
         id="stop1780" />
      <stop
         style="stop-color:#288972;stop-opacity:0;"
         offset="1"
         id="stop1782" />
    </linearGradient>
    <linearGradient
       inkscape:collect="always"
       id="linearGradient2394">
      <stop
         style="stop-color:#288972;stop-opacity:1;"
         offset="0"
         id="stop2390" />
      <stop
         style="stop-color:#288972;stop-opacity:0;"
         offset="1"
         id="stop2392" />
    </linearGradient>
    <linearGradient
       inkscape:collect="always"
       id="linearGradient2386">
      <stop
         style="stop-color:#ffffff;stop-opacity:1;"
         offset="0"
         id="stop2382" />
      <stop
         style="stop-color:#ffffff;stop-opacity:0;"
         offset="1"
         id="stop2384" />
    </linearGradient>
    <linearGradient
       inkscape:collect="always"
       id="linearGradient5328">
      <stop
         style="stop-color:#006077;stop-opacity:1;"
         offset="0"
         id="stop5324" />
      <stop
         style="stop-color:#006077;stop-opacity:0;"
         offset="1"
         id="stop5326" />
    </linearGradient>
    <linearGradient
       inkscape:collect="always"
       id="linearGradient5095">
      <stop
         style="stop-color:#aa8800;stop-opacity:1;"
         offset="0"
         id="stop5091" />
      <stop
         style="stop-color:#aa8800;stop-opacity:0;"
         offset="1"
         id="stop5093" />
    </linearGradient>
    <linearGradient
       inkscape:collect="always"
       id="linearGradient4786">
      <stop
         style="stop-color:#1a1a1a;stop-opacity:1;"
         offset="0"
         id="stop4782" />
      <stop
         style="stop-color:#1a1a1a;stop-opacity:0;"
         offset="1"
         id="stop4784" />
    </linearGradient>
    <linearGradient
       inkscape:collect="always"
       id="linearGradient4766">
      <stop
         style="stop-color:#000000;stop-opacity:1;"
         offset="0"
         id="stop4762" />
      <stop
         style="stop-color:#000000;stop-opacity:0;"
         offset="1"
         id="stop4764" />
    </linearGradient>
    <linearGradient
       inkscape:collect="always"
       id="linearGradient4691">
      <stop
         style="stop-color:#000000;stop-opacity:1;"
         offset="0"
         id="stop4687" />
      <stop
         style="stop-color:#000000;stop-opacity:0;"
         offset="1"
         id="stop4689" />
    </linearGradient>
    <linearGradient
       inkscape:collect="always"
       id="linearGradient4623">
      <stop
         style="stop-color:#000000;stop-opacity:1;"
         offset="0"
         id="stop4619" />
      <stop
         style="stop-color:#000000;stop-opacity:0;"
         offset="1"
         id="stop4621" />
    </linearGradient>
    <linearGradient
       inkscape:collect="always"
       xlink:href="#linearGradient5095"
       id="linearGradient5097"
       x1="-138.78581"
       y1="103.11721"
       x2="-130.9034"
       y2="103.11721"
       gradientUnits="userSpaceOnUse"
       gradientTransform="translate(4.9461567,2.1047476)" />
    <linearGradient
       inkscape:collect="always"
       xlink:href="#linearGradient5328"
       id="linearGradient5330"
       x1="-140.76724"
       y1="93.77977"
       x2="-127.26443"
       y2="92.966171"
       gradientUnits="userSpaceOnUse" />
    <linearGradient
       inkscape:collect="always"
       xlink:href="#linearGradient4623"
       id="linearGradient5377"
       gradientUnits="userSpaceOnUse"
       gradientTransform="matrix(0.9686868,0,0,0.9686868,-3.445063,4.0601411)"
       x1="-130.80339"
       y1="122.10924"
       x2="-129.84665"
       y2="121.79623" />
    <linearGradient
       inkscape:collect="always"
       xlink:href="#linearGradient4691"
       id="linearGradient5379"
       gradientUnits="userSpaceOnUse"
       gradientTransform="matrix(1.2643499,0,0,1.2643499,34.646674,-31.53902)"
       x1="-131.62491"
       y1="121.92614"
       x2="-131.20963"
       y2="121.92614" />
    <linearGradient
       inkscape:collect="always"
       xlink:href="#linearGradient4691"
       id="linearGradient5381"
       gradientUnits="userSpaceOnUse"
       gradientTransform="matrix(1.2643499,0,0,1.2643499,34.646674,-31.53902)"
       x1="-130.89545"
       y1="121.92615"
       x2="-130.50232"
       y2="121.92615" />
    <linearGradient
       inkscape:collect="always"
       xlink:href="#linearGradient4786"
       id="linearGradient5383"
       gradientUnits="userSpaceOnUse"
       x1="-133.9539"
       y1="122.45795"
       x2="-130.85567"
       y2="120.89985" />
    <linearGradient
       inkscape:collect="always"
       xlink:href="#linearGradient4766"
       id="linearGradient5385"
       gradientUnits="userSpaceOnUse"
       gradientTransform="matrix(0.3238852,0,0,0.49470119,-90.360161,61.438067)"
       x1="-134.02194"
       y1="123.33173"
       x2="-133.66661"
       y2="123.33173" />
    <linearGradient
       inkscape:collect="always"
       xlink:href="#linearGradient4766"
       id="linearGradient5387"
       gradientUnits="userSpaceOnUse"
       gradientTransform="matrix(-0.3238852,0,0,0.49470119,-175.97138,61.438067)"
       x1="-134.02194"
       y1="123.33173"
       x2="-133.66661"
       y2="123.33173" />
    <linearGradient
       inkscape:collect="always"
       xlink:href="#linearGradient4766"
       id="linearGradient5389"
       gradientUnits="userSpaceOnUse"
       gradientTransform="matrix(0,-0.3238852,-0.49470119,0,-72.166889,79.70789)"
       x1="-134.02194"
       y1="123.33173"
       x2="-133.66661"
       y2="123.33173" />
    <linearGradient
       inkscape:collect="always"
       xlink:href="#linearGradient4766"
       id="linearGradient5391"
       gradientUnits="userSpaceOnUse"
       gradientTransform="matrix(0,0.3238852,0.49470119,0,-194.1916,165.22809)"
       x1="-134.02194"
       y1="123.33173"
       x2="-133.66661"
       y2="123.33173" />
    <linearGradient
       inkscape:collect="always"
       xlink:href="#linearGradient4623"
       id="linearGradient5393"
       gradientUnits="userSpaceOnUse"
       gradientTransform="matrix(0.9686868,0,0,0.9686868,-2.012363,4.0601411)"
       x1="-130.80339"
       y1="122.10924"
       x2="-129.84665"
       y2="121.79623" />
    <linearGradient
       inkscape:collect="always"
       xlink:href="#linearGradient4623"
       id="linearGradient5395"
       gradientUnits="userSpaceOnUse"
       gradientTransform="matrix(0.9686868,0,0,0.9686868,3.2678759,-247.34424)"
       x1="-130.80339"
       y1="122.10924"
       x2="-129.84665"
       y2="121.79623" />
    <linearGradient
       inkscape:collect="always"
       xlink:href="#linearGradient4623"
       id="linearGradient5397"
       gradientUnits="userSpaceOnUse"
       gradientTransform="matrix(0.9686868,0,0,0.9686868,4.7005759,-247.34424)"
       x1="-130.80339"
       y1="122.10924"
       x2="-129.84665"
       y2="121.79623" />
    <linearGradient
       inkscape:collect="always"
       xlink:href="#linearGradient2394"
       id="linearGradient5399"
       gradientUnits="userSpaceOnUse"
       x1="-134.61229"
       y1="109.86784"
       x2="-133.9893"
       y2="109.86784" />
    <linearGradient
       inkscape:collect="always"
       xlink:href="#linearGradient2386"
       id="linearGradient5401"
       gradientUnits="userSpaceOnUse"
       x1="-156.63931"
       y1="94.330185"
       x2="-156.1277"
       y2="94.290314" />
    <linearGradient
       inkscape:collect="always"
       xlink:href="#linearGradient2386"
       id="linearGradient5403"
       gradientUnits="userSpaceOnUse"
       x1="-156.63931"
       y1="94.330185"
       x2="-156.1277"
       y2="94.290314" />
    <linearGradient
       inkscape:collect="always"
       xlink:href="#linearGradient1784"
       id="linearGradient1786"
       x1="934.13373"
       y1="-206.62823"
       x2="1589.0442"
       y2="-502.41608"
       gradientUnits="userSpaceOnUse"
       gradientTransform="translate(-2611.7884,784.57295)" />
  </defs>
  <sodipodi:namedview
     id="base"
     pagecolor="#ffffff"
     bordercolor="#666666"
     borderopacity="1.0"
     inkscape:pageopacity="0.0"
     inkscape:pageshadow="2"
     inkscape:zoom="0.11313708"
     inkscape:cx="3838.0221"
     inkscape:cy="2903.2645"
     inkscape:document-units="mm"
     inkscape:current-layer="layer1"
     showgrid="true"
     inkscape:window-width="1920"
     inkscape:window-height="1001"
     inkscape:window-x="-9"
     inkscape:window-y="-9"
     inkscape:window-maximized="1"
     showguides="false" />
  <metadata
     id="metadata5">
    <rdf:RDF>
      <cc:Work
         rdf:about="">
        <dc:format>image/svg+xml</dc:format>
        <dc:type
           rdf:resource="http://purl.org/dc/dcmitype/StillImage" />
        <dc:title />
      </cc:Work>
    </rdf:RDF>
  </metadata>
  <g
     inkscape:label="Camada 1"
     inkscape:groupmode="layer"
     id="layer1"
     transform="translate(0,783)">
    <g
       id="g5164"
       transform="matrix(43.439833,0,0,43.439833,6079.6978,-4686.5036)" />
    <g
       id="g5803"
       transform="matrix(117.70636,0,0,117.70636,14941.513,-14419.562)">
      <g
         transform="translate(0,0.22395599)"
         id="g5662">
        <g
           id="g5640"
           transform="matrix(0.84958865,0,0,0.84958865,-18.520966,16.279758)" />
      </g>
      <g
         id="g1382"
         transform="matrix(2.1764411,0,0,2.1764411,142.59022,-129.82796)">
        <path
           style="fill:#000000;stroke:none;stroke-width:0.01126066;stroke-linecap:butt;stroke-linejoin:miter;stroke-miterlimit:4;stroke-dasharray:none;stroke-opacity:1"
           d="m -123.38913,109.78331 0.30006,0.17325 0.30007,-0.17325 -0.30007,-0.17324 z"
           id="path5257"
           inkscape:connector-curvature="0" />
        <path
           style="fill:#c8ab37;stroke:none;stroke-width:0.01126066;stroke-linecap:butt;stroke-linejoin:miter;stroke-miterlimit:4;stroke-dasharray:none;stroke-opacity:1"
           d="m -122.79585,109.78331 0.15002,-0.0866 -0.30006,-0.17324 -0.15003,0.0866 -0.15003,-0.0866 -0.30006,0.17324 0.15003,0.0866 0.30006,-0.17324 z"
           id="path5259"
           inkscape:connector-curvature="0" />
        <path
           style="fill:#ffffff;stroke:none;stroke-width:0.00293362px;stroke-linecap:butt;stroke-linejoin:miter;stroke-opacity:1"
           d="m -123.27097,110.15585 0.0648,0.0339 -0.0647,-0.0367 z"
           id="path5373"
           inkscape:connector-curvature="0" />
        <rect
           y="109.76548"
           x="-123.30273"
           height="0.09071175"
           width="0.038255055"
           id="rect5579"
           style="opacity:1;fill:#288972;fill-opacity:1;stroke:none;stroke-width:0.00717396;stroke-miterlimit:4;stroke-dasharray:none;stroke-opacity:1" />
        <g
           transform="matrix(0.09153913,0,0,0.09153913,-111.05329,101.03356)"
           id="g5279">
          <path
             style="fill:#808080;fill-opacity:1;stroke:none;stroke-width:0.52531683px;stroke-linecap:butt;stroke-linejoin:miter;stroke-opacity:1"
             d="m -132.74667,97.098832 -0.13518,0.657149 h 1.78941 l -0.13483,-0.655596 z"
             id="path5261"
             inkscape:connector-curvature="0" />
          <rect
             style="opacity:1;fill:#ffffff;fill-opacity:1;stroke:#333333;stroke-width:0.29654232;stroke-miterlimit:4;stroke-dasharray:none;stroke-opacity:1"
             id="rect5263"
             width="4.6918464"
             height="3.2193079"
             x="-134.29543"
             y="93.612267"
             ry="0.14616577" />
          <rect
             style="opacity:1;fill:#333333;fill-opacity:1;stroke:none;stroke-width:0.15898074;stroke-miterlimit:4;stroke-dasharray:none;stroke-opacity:1"
             id="rect5265"
             width="5.0054417"
             height="0.69882721"
             x="-134.4559"
             y="96.548828"
             ry="0.10778318" />
          <rect
             style="opacity:1;fill:#999999;fill-opacity:1;stroke:none;stroke-width:0.20056246;stroke-miterlimit:4;stroke-dasharray:none;stroke-opacity:1"
             id="rect5267"
             width="2.2778971"
             height="0.22324218"
             x="-133.12263"
             y="97.702599" />
        </g>
        <rect
           style="opacity:1;fill:#288972;fill-opacity:1;stroke:none;stroke-width:0.02762107;stroke-miterlimit:4;stroke-dasharray:none;stroke-opacity:1"
           id="rect5445"
           width="0.3763985"
           height="0.13666821"
           x="-123.32407"
           y="109.61229"
           ry="0.029819718"
           transform="matrix(0.84958865,0,0,0.84958865,-18.520967,16.503713)" />
        <g
           id="text5439"
           style="font-style:normal;font-weight:normal;font-size:0.05989012px;line-height:1.25;font-family:sans-serif;letter-spacing:0px;word-spacing:0px;fill:#ffffff;fill-opacity:1;stroke:none;stroke-width:0.00149726"
           aria-label="Propostas "
           transform="matrix(0.84958865,0,0,0.84958865,-18.520967,16.503713)">
          <path
             id="path1236"
             style="font-style:normal;font-variant:normal;font-weight:normal;font-stretch:normal;font-family:'Designer Block';-inkscape-font-specification:'Designer Block';fill:#ffffff;fill-opacity:1;stroke-width:0.00149726"
             d="m -123.24808,109.64251 q 0,0.004 -0.003,0.006 -0.003,0.003 -0.007,0.003 h -0.0134 v 0.0127 q 0,0.002 -0.001,0.003 -0.001,0.001 -0.003,0.001 -0.002,0 -0.003,-0.001 -0.001,-10e-4 -0.001,-0.003 v -0.0285 q 0,-0.004 0.003,-0.006 0.003,-0.003 0.006,-0.003 h 0.0125 q 0.004,0 0.007,0.003 0.003,0.003 0.003,0.006 z m -0.008,0.001 v -0.009 h -0.0144 v 0.009 z"
             inkscape:connector-curvature="0" />
          <path
             id="path1238"
             style="font-style:normal;font-variant:normal;font-weight:normal;font-stretch:normal;font-family:'Designer Block';-inkscape-font-specification:'Designer Block';fill:#ffffff;fill-opacity:1;stroke-width:0.00149726"
             d="m -123.22143,109.64192 q 0,0.002 -0.001,0.003 -10e-4,0.001 -0.003,0.001 h -0.0126 v 0.0181 q 0,0.002 -0.001,0.003 -0.001,0.001 -0.003,0.001 -0.002,0 -0.003,-0.001 -0.001,-10e-4 -0.001,-0.003 v -0.0172 q 0,-0.004 0.003,-0.006 0.003,-0.003 0.007,-0.003 h 0.0116 q 0.002,0 0.003,10e-4 0.001,0.001 0.001,0.003 z"
             inkscape:connector-curvature="0" />
          <path
             id="path1240"
             style="font-style:normal;font-variant:normal;font-weight:normal;font-stretch:normal;font-family:'Designer Block';-inkscape-font-specification:'Designer Block';fill:#ffffff;fill-opacity:1;stroke-width:0.00149726"
             d="m -123.18877,109.6591 q 0,0.004 -0.003,0.007 -0.003,0.003 -0.007,0.003 h -0.0125 q -0.004,0 -0.007,-0.003 -0.003,-0.003 -0.003,-0.007 v -0.0121 q 0,-0.004 0.003,-0.006 0.003,-0.003 0.007,-0.003 h 0.0125 q 0.004,0 0.007,0.003 0.003,0.003 0.003,0.006 z m -0.008,9.6e-4 v -0.014 h -0.0144 v 0.014 z"
             inkscape:connector-curvature="0" />
          <path
             id="path1242"
             style="font-style:normal;font-variant:normal;font-weight:normal;font-stretch:normal;font-family:'Designer Block';-inkscape-font-specification:'Designer Block';fill:#ffffff;fill-opacity:1;stroke-width:0.00149726"
             d="m -123.15614,109.65922 q 0,0.004 -0.003,0.006 -0.003,0.003 -0.007,0.003 h -0.0134 v 0.007 q 0,0.002 -10e-4,0.003 -0.001,0.001 -0.003,0.001 -0.002,0 -0.003,-0.001 -0.001,-10e-4 -0.001,-0.003 v -0.0112 q 0,-7.7e-4 3e-4,-10e-4 3.6e-4,-7.2e-4 9e-4,-0.001 5.9e-4,-6e-4 0.001,-9e-4 7.8e-4,-3.6e-4 0.002,-3.6e-4 h 0.0185 v -0.0144 l -0.0144,6e-5 v 0.008 q 0,0.002 -0.001,0.003 -0.001,0.001 -0.003,0.001 -0.002,0 -0.003,-0.001 -0.001,-0.001 -0.001,-0.003 v -0.007 q 0,-0.004 0.003,-0.006 0.003,-0.003 0.006,-0.003 h 0.0125 q 0.004,0 0.007,0.003 0.003,0.003 0.003,0.006 z"
             inkscape:connector-curvature="0" />
          <path
             id="path1244"
             style="font-style:normal;font-variant:normal;font-weight:normal;font-stretch:normal;font-family:'Designer Block';-inkscape-font-specification:'Designer Block';fill:#ffffff;fill-opacity:1;stroke-width:0.00149726"
             d="m -123.1235,109.6591 q 0,0.004 -0.003,0.007 -0.003,0.003 -0.007,0.003 h -0.0125 q -0.004,0 -0.007,-0.003 -0.003,-0.003 -0.003,-0.007 v -0.0121 q 0,-0.004 0.003,-0.006 0.003,-0.003 0.007,-0.003 h 0.0125 q 0.004,0 0.007,0.003 0.003,0.003 0.003,0.006 z m -0.008,9.6e-4 v -0.014 h -0.0144 v 0.014 z"
             inkscape:connector-curvature="0" />
          <path
             id="path1246"
             style="font-style:normal;font-variant:normal;font-weight:normal;font-stretch:normal;font-family:'Designer Block';-inkscape-font-specification:'Designer Block';fill:#ffffff;fill-opacity:1;stroke-width:0.00149726"
             d="m -123.09087,109.6594 q 0,0.004 -0.003,0.006 -0.003,0.003 -0.006,0.003 h -0.0176 q -0.002,0 -0.003,-0.001 -0.001,-0.001 -0.001,-0.003 0,-0.002 0.001,-0.003 10e-4,-0.001 0.003,-0.001 h 0.0186 v -0.003 h -0.0135 q -0.004,0 -0.007,-0.003 -0.003,-0.003 -0.003,-0.006 v -10e-4 q 0,-0.004 0.003,-0.006 0.003,-0.003 0.006,-0.003 h 0.0176 q 0.002,0 0.003,10e-4 0.001,0.001 0.001,0.003 0,0.002 -0.001,0.003 -0.001,0.001 -0.003,0.001 h -0.0186 v 0.003 h 0.0134 q 0.004,0 0.006,0.003 0.003,0.003 0.003,0.006 z"
             inkscape:connector-curvature="0" />
          <path
             id="path1248"
             style="font-style:normal;font-variant:normal;font-weight:normal;font-stretch:normal;font-family:'Designer Block';-inkscape-font-specification:'Designer Block';fill:#ffffff;fill-opacity:1;stroke-width:0.00149726"
             d="m -123.05823,109.66425 q 0,0.002 -0.001,0.003 -0.001,0.001 -0.003,0.001 h -0.0176 q -0.004,0 -0.007,-0.003 -0.003,-0.003 -0.003,-0.006 v -0.0229 q 0,-0.002 0.001,-0.003 0.001,-10e-4 0.003,-10e-4 0.002,0 0.003,10e-4 0.001,0.001 0.001,0.003 v 0.001 h 0.007 q 0.002,0 0.003,0.001 0.001,10e-4 0.001,0.003 0,0.002 -0.001,0.003 -10e-4,10e-4 -0.003,10e-4 h -0.007 v 0.0144 h 0.0186 q 0.002,0 0.003,10e-4 0.001,0.001 0.001,0.003 z"
             inkscape:connector-curvature="0" />
          <path
             id="path1250"
             style="font-style:normal;font-variant:normal;font-weight:normal;font-stretch:normal;font-family:'Designer Block';-inkscape-font-specification:'Designer Block';fill:#ffffff;fill-opacity:1;stroke-width:0.00149726"
             d="m -123.0256,109.6591 q 0,0.004 -0.003,0.007 -0.003,0.003 -0.007,0.003 h -0.0175 q -0.002,0 -0.003,-0.001 -0.001,-10e-4 -0.001,-0.003 v -0.0112 q 0,-0.002 0.001,-0.003 0.001,-10e-4 0.003,-10e-4 h 0.0113 q 0.002,0 0.003,10e-4 10e-4,0.001 10e-4,0.003 0,0.002 -10e-4,0.003 -0.001,0.001 -0.003,0.001 h -0.007 v 0.003 h 0.0144 v -0.0141 h -0.0185 q -0.002,0 -0.003,-0.001 -0.001,-10e-4 -0.001,-0.003 0,-0.002 0.001,-0.003 10e-4,-10e-4 0.003,-10e-4 h 0.0175 q 0.004,0 0.007,0.003 0.003,0.003 0.003,0.006 z"
             inkscape:connector-curvature="0" />
          <path
             id="path1252"
             style="font-style:normal;font-variant:normal;font-weight:normal;font-stretch:normal;font-family:'Designer Block';-inkscape-font-specification:'Designer Block';fill:#ffffff;fill-opacity:1;stroke-width:0.00149726"
             d="m -122.99296,109.6594 q 0,0.004 -0.003,0.006 -0.003,0.003 -0.006,0.003 h -0.0176 q -0.002,0 -0.003,-0.001 -0.001,-0.001 -0.001,-0.003 0,-0.002 0.001,-0.003 0.001,-0.001 0.003,-0.001 h 0.0186 v -0.003 h -0.0135 q -0.004,0 -0.007,-0.003 -0.003,-0.003 -0.003,-0.006 v -10e-4 q 0,-0.004 0.003,-0.006 0.003,-0.003 0.006,-0.003 h 0.0176 q 0.002,0 0.003,10e-4 0.001,0.001 0.001,0.003 0,0.002 -0.001,0.003 -10e-4,0.001 -0.003,0.001 h -0.0186 v 0.003 h 0.0134 q 0.004,0 0.006,0.003 0.003,0.003 0.003,0.006 z"
             inkscape:connector-curvature="0" />
        </g>
        <g
           id="text5443"
           style="font-style:normal;font-weight:normal;font-size:0.05989012px;line-height:1.25;font-family:sans-serif;letter-spacing:0px;word-spacing:0px;fill:#ffffff;fill-opacity:1;stroke:none;stroke-width:0.00149726"
           aria-label="Criativas"
           transform="matrix(0.84958865,0,0,0.84958865,-18.520967,16.503713)">
          <path
             id="path1255"
             style="font-style:normal;font-variant:normal;font-weight:normal;font-stretch:normal;font-family:'Designer Block';-inkscape-font-specification:'Designer Block';fill:#ffffff;fill-opacity:1;stroke-width:0.00149726"
             d="m -123.22795,109.69109 q 0,0.002 -10e-4,0.003 -0.001,10e-4 -0.003,10e-4 h -0.0186 v 0.0258 h 0.0185 q 0.004,0 0.004,0.004 0,0.002 -0.001,0.003 -9.6e-4,6e-4 -0.003,6e-4 h -0.0176 q -0.009,0 -0.009,-0.009 v -0.024 q 0,-0.004 0.003,-0.006 0.003,-0.003 0.007,-0.003 h 0.0175 q 0.002,0 0.003,10e-4 0.001,0.001 0.001,0.003 z"
             inkscape:connector-curvature="0" />
          <path
             id="path1257"
             style="font-style:normal;font-variant:normal;font-weight:normal;font-stretch:normal;font-family:'Designer Block';-inkscape-font-specification:'Designer Block';fill:#ffffff;fill-opacity:1;stroke-width:0.00149726"
             d="m -123.20131,109.70217 q 0,0.002 -10e-4,0.003 -0.001,0.001 -0.003,0.001 h -0.0126 v 0.0181 q 0,0.002 -10e-4,0.003 -0.001,10e-4 -0.003,10e-4 -0.002,0 -0.003,-10e-4 -0.001,-0.001 -0.001,-0.003 v -0.0172 q 0,-0.004 0.003,-0.006 0.003,-0.003 0.007,-0.003 h 0.0116 q 0.002,0 0.003,0.001 0.001,10e-4 0.001,0.003 z"
             inkscape:connector-curvature="0" />
          <path
             id="path1259"
             style="font-style:normal;font-variant:normal;font-weight:normal;font-stretch:normal;font-family:'Designer Block';-inkscape-font-specification:'Designer Block';fill:#ffffff;fill-opacity:1;stroke-width:0.00149726"
             d="m -123.18997,109.69103 q 0,0.002 -10e-4,0.003 -0.001,0.001 -0.003,0.001 -0.002,0 -0.003,-0.001 -0.001,-0.001 -0.001,-0.003 0,-0.002 0.001,-0.003 10e-4,-0.001 0.003,-0.001 0.002,0 0.003,0.001 10e-4,0.001 10e-4,0.003 z m 0,0.0335 q 0,0.002 -10e-4,0.003 -0.001,0.001 -0.003,0.001 -0.002,0 -0.003,-0.001 -0.001,-0.001 -0.001,-0.003 v -0.0224 q 0,-0.002 0.001,-0.003 10e-4,-10e-4 0.003,-10e-4 0.002,0 0.003,9.6e-4 10e-4,0.001 10e-4,0.003 z"
             inkscape:connector-curvature="0" />
          <path
             id="path1261"
             style="font-style:normal;font-variant:normal;font-weight:normal;font-stretch:normal;font-family:'Designer Block';-inkscape-font-specification:'Designer Block';fill:#ffffff;fill-opacity:1;stroke-width:0.00149726"
             d="m -123.1573,109.71935 q 0,0.004 -0.003,0.007 -0.003,0.003 -0.007,0.003 h -0.0175 q -0.002,0 -0.003,-10e-4 -0.001,-0.001 -0.001,-0.003 v -0.0112 q 0,-0.002 0.001,-0.003 10e-4,-0.001 0.003,-0.001 h 0.0113 q 0.002,0 0.003,0.001 0.001,10e-4 0.001,0.003 0,0.002 -0.001,0.003 -10e-4,10e-4 -0.003,10e-4 h -0.007 v 0.003 h 0.0144 v -0.0141 h -0.0185 q -0.002,0 -0.003,-10e-4 -10e-4,-0.001 -10e-4,-0.003 0,-0.002 10e-4,-0.003 0.001,-0.001 0.003,-0.001 h 0.0175 q 0.004,0 0.007,0.003 0.003,0.003 0.003,0.006 z"
             inkscape:connector-curvature="0" />
          <path
             id="path1263"
             style="font-style:normal;font-variant:normal;font-weight:normal;font-stretch:normal;font-family:'Designer Block';-inkscape-font-specification:'Designer Block';fill:#ffffff;fill-opacity:1;stroke-width:0.00149726"
             d="m -123.12467,109.7245 q 0,0.002 -0.001,0.003 -0.001,10e-4 -0.003,10e-4 h -0.0176 q -0.004,0 -0.007,-0.003 -0.003,-0.003 -0.003,-0.006 v -0.0229 q 0,-0.002 0.001,-0.003 0.001,-0.001 0.003,-0.001 0.002,0 0.003,0.001 0.001,10e-4 0.001,0.003 v 10e-4 h 0.007 q 0.002,0 0.003,0.001 0.001,0.001 0.001,0.003 0,0.002 -0.001,0.003 -10e-4,0.001 -0.003,0.001 h -0.007 v 0.0144 h 0.0186 q 0.002,0 0.003,0.001 0.001,10e-4 0.001,0.003 z"
             inkscape:connector-curvature="0" />
          <path
             id="path1265"
             style="font-style:normal;font-variant:normal;font-weight:normal;font-stretch:normal;font-family:'Designer Block';-inkscape-font-specification:'Designer Block';fill:#ffffff;fill-opacity:1;stroke-width:0.00149726"
             d="m -123.11335,109.69103 q 0,0.002 -0.002,0.003 -10e-4,0.001 -0.003,0.001 -0.002,0 -0.003,-0.001 -10e-4,-0.001 -10e-4,-0.003 0,-0.002 10e-4,-0.003 0.001,-0.001 0.003,-0.001 0.002,0 0.003,0.001 0.002,0.001 0.002,0.003 z m 0,0.0335 q 0,0.002 -0.001,0.003 -0.001,0.001 -0.003,0.001 -0.002,0 -0.003,-0.001 -0.001,-0.001 -0.001,-0.003 v -0.0224 q 0,-0.002 0.001,-0.003 0.001,-10e-4 0.003,-10e-4 0.002,0 0.003,9.6e-4 0.002,0.001 0.002,0.003 z"
             inkscape:connector-curvature="0" />
          <path
             id="path1267"
             style="font-style:normal;font-variant:normal;font-weight:normal;font-stretch:normal;font-family:'Designer Block';-inkscape-font-specification:'Designer Block';fill:#ffffff;fill-opacity:1;stroke-width:0.00149726"
             d="m -123.08068,109.71935 q 0,0.004 -0.003,0.007 -0.003,0.003 -0.007,0.003 h -0.0175 q -0.002,0 -0.003,-10e-4 -10e-4,-0.001 -10e-4,-0.003 v -0.0223 q 0,-0.002 10e-4,-0.003 0.001,-0.001 0.003,-0.001 0.002,0 0.003,0.001 0.001,10e-4 0.001,0.003 v 0.0182 h 0.0144 v -0.0141 h -0.003 q -0.002,0 -0.003,-0.001 -10e-4,-10e-4 -10e-4,-0.003 0,-0.002 10e-4,-0.003 0.001,-10e-4 0.003,-10e-4 h 0.007 q 0.002,0 0.003,10e-4 0.001,0.001 0.001,0.003 z"
             inkscape:connector-curvature="0" />
          <path
             id="path1269"
             style="font-style:normal;font-variant:normal;font-weight:normal;font-stretch:normal;font-family:'Designer Block';-inkscape-font-specification:'Designer Block';fill:#ffffff;fill-opacity:1;stroke-width:0.00149726"
             d="m -123.04805,109.71935 q 0,0.004 -0.003,0.007 -0.003,0.003 -0.007,0.003 h -0.0175 q -0.002,0 -0.003,-10e-4 -10e-4,-0.001 -10e-4,-0.003 v -0.0112 q 0,-0.002 10e-4,-0.003 0.001,-0.001 0.003,-0.001 h 0.0113 q 0.002,0 0.003,0.001 0.001,10e-4 0.001,0.003 0,0.002 -0.001,0.003 -0.001,10e-4 -0.003,10e-4 h -0.007 v 0.003 h 0.0144 v -0.0141 h -0.0185 q -0.002,0 -0.003,-10e-4 -0.001,-0.001 -0.001,-0.003 0,-0.002 0.001,-0.003 0.001,-0.001 0.003,-0.001 h 0.0175 q 0.004,0 0.007,0.003 0.003,0.003 0.003,0.006 z"
             inkscape:connector-curvature="0" />
          <path
             id="path1271"
             style="font-style:normal;font-variant:normal;font-weight:normal;font-stretch:normal;font-family:'Designer Block';-inkscape-font-specification:'Designer Block';fill:#ffffff;fill-opacity:1;stroke-width:0.00149726"
             d="m -123.01541,109.71965 q 0,0.004 -0.003,0.006 -0.003,0.003 -0.006,0.003 h -0.0176 q -0.002,0 -0.003,-0.001 -10e-4,-10e-4 -10e-4,-0.003 0,-0.002 10e-4,-0.003 0.001,-10e-4 0.003,-10e-4 h 0.0186 v -0.003 h -0.0135 q -0.004,0 -0.007,-0.003 -0.003,-0.003 -0.003,-0.006 v -0.001 q 0,-0.004 0.003,-0.006 0.003,-0.003 0.006,-0.003 h 0.0176 q 0.002,0 0.003,0.001 10e-4,10e-4 10e-4,0.003 0,0.002 -10e-4,0.003 -0.001,10e-4 -0.003,10e-4 h -0.0186 v 0.003 h 0.0134 q 0.004,0 0.006,0.003 0.003,0.003 0.003,0.006 z"
             inkscape:connector-curvature="0" />
        </g>
        <rect
           ry="0.0121816"
           y="109.53674"
           x="-123.29433"
           height="0.092123352"
           width="0.038067501"
           id="rect5642"
           style="fill:#288972;fill-opacity:1;stroke-width:0.0060908"
           transform="translate(8.7287646e-7,0.22395569)" />
        <rect
           ry="0.0121816"
           style="fill:#288972;fill-opacity:1;stroke-width:0.0060908"
           id="rect5644"
           width="0.038067501"
           height="0.092123352"
           x="-123.23952"
           y="109.53674"
           transform="translate(8.7287646e-7,0.22395569)" />
        <rect
           ry="0.017130375"
           y="109.53674"
           x="-123.17596"
           height="0.092123352"
           width="0.19909303"
           id="rect5646"
           style="fill:#288972;fill-opacity:1;stroke-width:0.01392916"
           transform="translate(8.7287646e-7,0.22395569)" />
        <g
           id="g5355"
           transform="matrix(0.1444022,0,0,0.1444022,-104.09502,93.953657)">
          <g
             transform="matrix(0.22258984,-0.03483201,0.03627602,0.23181761,-107.16163,81.621443)"
             id="g5335">
            <path
               style="fill:#2b2200;fill-opacity:1;stroke:none;stroke-width:0.27792862px;stroke-linecap:butt;stroke-linejoin:miter;stroke-opacity:1"
               d="m -128.38363,104.92462 c 0.3541,0.098 0.56081,-0.48378 0.8884,-0.64956 0.40179,-0.20332 0.86538,-0.56031 1.28905,-0.40706 0.53967,0.1952 0.93044,0.87536 0.92323,1.44635 -0.0114,0.89671 -0.75446,1.73997 -1.50678,2.2345 -1.02314,0.67256 -2.3984,0.84215 -3.61457,0.68421 -0.97729,-0.12691 -2.07824,-0.48584 -2.66519,-1.27314 -0.4881,-0.65469 -0.66886,-1.65578 -0.37452,-2.41638 0.28904,-0.74692 1.13442,-1.19676 1.8726,-1.51564 0.76335,-0.32976 1.66527,-0.53485 2.47358,-0.33777 0.45301,0.11044 1.04393,0.3518 1.14099,0.80545 0.0498,0.23294 -0.21164,0.43268 -0.36582,0.61492 -0.0835,0.0988 -0.26587,0.12571 -0.29613,0.25117 -0.0476,0.19758 0.0383,0.50845 0.23516,0.56295 z"
               id="path5325"
               inkscape:connector-curvature="0"
               sodipodi:nodetypes="aaaaaaaaaaaaaa" />
            <path
               style="fill:#aa8800;fill-opacity:1;stroke:none;stroke-width:0.26458332px;stroke-linecap:butt;stroke-linejoin:miter;stroke-opacity:1"
               d="m -128.11821,104.81983 c 0.33615,0.0936 0.53238,-0.46185 0.84336,-0.62011 0.38142,-0.19411 0.82151,-0.53491 1.2237,-0.38861 0.51231,0.18635 0.88327,0.83568 0.87643,1.38079 -0.0108,0.85606 -0.71622,1.66109 -1.4304,2.13321 -0.97127,0.64207 -2.27681,0.80397 -3.43132,0.65319 -0.92775,-0.12116 -1.97288,-0.46382 -2.53008,-1.21543 -0.46335,-0.62501 -0.63495,-1.58072 -0.35553,-2.30684 0.27439,-0.71306 1.07691,-1.14251 1.77767,-1.44694 0.72465,-0.31481 1.58084,-0.5106 2.34818,-0.32246 0.43004,0.10544 0.991,0.33586 1.08314,0.76894 0.0473,0.22238 -0.20091,0.41307 -0.34727,0.58705 -0.0793,0.0943 -0.25239,0.12001 -0.28112,0.23978 -0.0452,0.18863 0.0364,0.4854 0.22324,0.53743 z"
               id="path5327"
               inkscape:connector-curvature="0"
               sodipodi:nodetypes="aaaaaaaaaaaaaa" />
            <ellipse
               style="opacity:1;fill:#85d0d7;fill-opacity:1;stroke:none;stroke-width:0.18700001;stroke-miterlimit:4;stroke-dasharray:none;stroke-opacity:1"
               id="ellipse5329"
               cx="-129.54454"
               cy="103.83905"
               rx="0.59531248"
               ry="0.46302083" />
            <ellipse
               ry="0.46302083"
               rx="0.59531248"
               cy="105.56886"
               cx="-128.23779"
               id="ellipse5331"
               style="opacity:1;fill:#ffffff;fill-opacity:1;stroke:none;stroke-width:0.18700001;stroke-miterlimit:4;stroke-dasharray:none;stroke-opacity:1" />
            <ellipse
               style="opacity:1;fill:#288972;fill-opacity:1;stroke:none;stroke-width:0.18700001;stroke-miterlimit:4;stroke-dasharray:none;stroke-opacity:1"
               id="ellipse5333"
               cx="-126.69678"
               cy="105.21753"
               rx="0.59531248"
               ry="0.46302083" />
          </g>
          <g
             transform="matrix(0.01549217,-0.08461544,0.08812329,0.01613442,-142.6367,96.688909)"
             id="g5345">
            <g
               transform="matrix(0.72527446,-0.09852242,0.10686051,0.72527446,-51.983596,50.319605)"
               id="g5343">
              <g
                 id="g5341"
                 transform="translate(0.16113044,-1.5900854)">
                <path
                   style="fill:#800000;fill-opacity:1;stroke:none;stroke-width:0.8643741px;stroke-linecap:butt;stroke-linejoin:miter;stroke-opacity:1"
                   d="m -148.48854,112.43768 c -0.81322,-0.13828 1.80027,1.63446 1.80027,1.63446 l 10.90673,6.82113 0.61937,-0.80442 -10.84282,-6.5721 c 0,0 -1.64412,-0.93633 -2.48355,-1.07907 z"
                   id="path5337"
                   inkscape:connector-curvature="0"
                   sodipodi:nodetypes="sccccs" />
                <path
                   style="fill:#c8ab37;fill-opacity:1;stroke:none;stroke-width:0.91986209px;stroke-linecap:butt;stroke-linejoin:miter;stroke-opacity:1"
                   d="m -135.91664,121.07967 c 0.10434,0.61285 0.61712,1.17778 1.18482,1.47524 0.49047,0.25699 1.14292,-0.0407 1.67016,0.13692 0.49333,0.16617 1.30362,0.83736 1.30362,0.83736 0,0 -0.32406,-1.51339 -0.73132,-2.16264 -0.28103,-0.448 -0.64947,-0.89446 -1.1378,-1.12607 -0.57467,-0.27257 -1.36681,-0.54283 -1.90971,-0.21569 -0.32819,0.19776 -0.44228,0.68771 -0.37977,1.05488 z"
                   id="path5339"
                   inkscape:connector-curvature="0"
                   sodipodi:nodetypes="aaacaaaa" />
              </g>
            </g>
          </g>
          <g
             id="g5353"
             transform="matrix(0.00956801,-0.0854882,-0.08903224,-0.00996466,-117.0327,100.61544)">
            <g
               id="g5351"
               transform="matrix(0.72527446,-0.09852242,0.10686051,0.72527446,-51.983596,50.319605)">
              <path
                 style="fill:#006077;fill-opacity:1;stroke:none;stroke-width:0.8643741px;stroke-linecap:butt;stroke-linejoin:miter;stroke-opacity:1"
                 d="m -148.48854,112.43768 c -0.81322,-0.13828 1.80027,1.63446 1.80027,1.63446 l 10.90673,6.82113 0.61937,-0.80442 -10.84282,-6.5721 c 0,0 -1.64412,-0.93633 -2.48355,-1.07907 z"
                 id="path5347"
                 inkscape:connector-curvature="0"
                 sodipodi:nodetypes="sccccs" />
              <path
                 style="fill:#d3bc5f;fill-opacity:1;stroke:none;stroke-width:0.91986209px;stroke-linecap:butt;stroke-linejoin:miter;stroke-opacity:1"
                 d="m -135.91664,121.07967 c 0.10434,0.61285 0.61712,1.17778 1.18482,1.47524 0.49047,0.25699 1.14292,-0.0407 1.67016,0.13692 0.49333,0.16617 1.30362,0.83736 1.30362,0.83736 0,0 -0.32406,-1.51339 -0.73132,-2.16264 -0.28103,-0.448 -0.64947,-0.89446 -1.1378,-1.12607 -0.57467,-0.27257 -1.36681,-0.54283 -1.90971,-0.21569 -0.32819,0.19776 -0.44228,0.68771 -0.37977,1.05488 z"
                 id="path5349"
                 inkscape:connector-curvature="0"
                 sodipodi:nodetypes="aaacaaaa" />
            </g>
          </g>
        </g>
        <g
           id="g5323"
           transform="matrix(0.15176186,-0.03575314,0.03575314,0.15176186,-105.94746,86.199644)">
          <g
             id="g5321"
             transform="matrix(0.51557325,0,0,0.51557325,-72.356728,57.435315)">
            <g
               id="g5319"
               transform="matrix(0.52525045,-0.24318087,0.24318087,0.52525045,-94.093766,30.374798)">
              <path
                 transform="scale(0.26458333)"
                 inkscape:connector-curvature="0"
                 style="opacity:1;fill:#b3b3b3;fill-opacity:1;stroke:none;stroke-width:0.31526348;stroke-miterlimit:4;stroke-dasharray:none;stroke-opacity:1"
                 d="m -503.125,456.17969 v 0.006 a 6.5401782,6.6071423 0 0 0 -6.38477,6.60156 6.5401782,6.6071423 0 0 0 6.54102,6.60742 6.5401782,6.6071423 0 0 0 6.09766,-4.24023 h 2.99804 a 6.5401782,6.6071423 0 0 0 6.10547,4.24023 6.5401782,6.6071423 0 0 0 6.53906,-6.60742 6.5401782,6.6071423 0 0 0 -6.09375,-6.58399 v -0.0234 h -15.64648 z"
                 id="path5281" />
              <ellipse
                 ry="0.3833034"
                 rx="0.37758246"
                 cy="122.34573"
                 cx="-129.77502"
                 id="ellipse5283"
                 style="opacity:1;fill:url(#linearGradient5377);fill-opacity:1;stroke:none;stroke-width:0.06296464;stroke-miterlimit:4;stroke-dasharray:none;stroke-opacity:1" />
              <rect
                 ry="0.086342186"
                 y="122.50537"
                 x="-131.7733"
                 height="0.22589661"
                 width="0.52505702"
                 id="rect5285"
                 style="opacity:1;fill:url(#linearGradient5379);fill-opacity:1;stroke:none;stroke-width:0.04751405;stroke-miterlimit:4;stroke-dasharray:none;stroke-opacity:1" />
              <path
                 inkscape:connector-curvature="0"
                 id="path5287"
                 d="m -130.85099,122.50476 v 0.22712 l 0.49705,-0.13327 z"
                 style="fill:url(#linearGradient5381);fill-opacity:1;stroke:none;stroke-width:0.39963508;stroke-linecap:butt;stroke-linejoin:miter;stroke-miterlimit:4;stroke-dasharray:none;stroke-opacity:1" />
              <g
                 transform="matrix(1.2335523,0,0,1.2335523,31.103342,-28.734807)"
                 id="g5301">
                <path
                   style="opacity:1;fill:url(#linearGradient5383);fill-opacity:1;stroke:none;stroke-width:0.37664124;stroke-miterlimit:4;stroke-dasharray:none;stroke-opacity:1"
                   d="m -133.24066,121.67911 c -0.12867,0 -0.23216,0.10407 -0.23216,0.23271 v 0.24837 h -0.24838 c -0.12867,0 -0.2327,0.10343 -0.2327,0.23217 v 0.13174 c 0,0.12868 0.10407,0.23217 0.2327,0.23217 h 0.24838 v 0.24836 c 0,0.12868 0.10354,0.23217 0.23216,0.23217 h 0.13174 c 0.12868,0 0.23217,-0.10354 0.23217,-0.23217 v -0.24836 h 0.24836 c 0.12868,0 0.23217,-0.10355 0.23217,-0.23217 v -0.13174 c 0,-0.12868 -0.10354,-0.23217 -0.23217,-0.23217 h -0.24836 v -0.24837 c 0,-0.12868 -0.10355,-0.23271 -0.23217,-0.23271 z"
                   id="path5289"
                   inkscape:connector-curvature="0" />
                <path
                   style="fill:#000000;fill-opacity:0;stroke:none;stroke-width:0.26499999;stroke-linecap:butt;stroke-linejoin:miter;stroke-miterlimit:4;stroke-dasharray:none;stroke-opacity:1"
                   d="m -133.86027,122.4375 0.32448,0.18734 v -0.37109 z"
                   id="path5291"
                   inkscape:connector-curvature="0" />
                <path
                   style="fill:#1a1a1a;fill-opacity:1;stroke:url(#linearGradient5385);stroke-width:0.04002829;stroke-linecap:butt;stroke-linejoin:miter;stroke-miterlimit:4;stroke-dasharray:none;stroke-opacity:1"
                   d="m -133.76788,122.45951 0.11444,0.10218 5.1e-4,-0.22254 z"
                   id="path5293"
                   inkscape:connector-curvature="0" />
                <path
                   inkscape:connector-curvature="0"
                   id="path5295"
                   d="m -132.56366,122.45951 -0.11444,0.10218 -5.1e-4,-0.22254 z"
                   style="fill:#1a1a1a;fill-opacity:1;stroke:url(#linearGradient5387);stroke-width:0.04002829;stroke-linecap:butt;stroke-linejoin:miter;stroke-miterlimit:4;stroke-dasharray:none;stroke-opacity:1" />
                <path
                   style="fill:#1a1a1a;fill-opacity:1;stroke:url(#linearGradient5389);stroke-width:0.04002829;stroke-linecap:butt;stroke-linejoin:miter;stroke-miterlimit:4;stroke-dasharray:none;stroke-opacity:1"
                   d="m -133.18833,123.11561 -0.10218,-0.11444 0.22253,-5.1e-4 z"
                   id="path5297"
                   inkscape:connector-curvature="0" />
                <path
                   inkscape:connector-curvature="0"
                   id="path5299"
                   d="m -133.17016,121.82037 0.10218,0.11444 -0.22253,5.1e-4 z"
                   style="fill:#1a1a1a;fill-opacity:1;stroke:url(#linearGradient5391);stroke-width:0.04002829;stroke-linecap:butt;stroke-linejoin:miter;stroke-miterlimit:4;stroke-dasharray:none;stroke-opacity:1" />
              </g>
              <ellipse
                 style="opacity:1;fill:url(#linearGradient5393);fill-opacity:1;stroke:none;stroke-width:0.06296464;stroke-miterlimit:4;stroke-dasharray:none;stroke-opacity:1"
                 id="ellipse5303"
                 cx="-128.34232"
                 cy="122.34573"
                 rx="0.37758246"
                 ry="0.3833034" />
              <ellipse
                 transform="rotate(-90)"
                 style="opacity:1;fill:url(#linearGradient5395);fill-opacity:1;stroke:none;stroke-width:0.06296464;stroke-miterlimit:4;stroke-dasharray:none;stroke-opacity:1"
                 id="ellipse5305"
                 cx="-123.06208"
                 cy="-129.05867"
                 rx="0.37758246"
                 ry="0.3833034" />
              <ellipse
                 transform="rotate(-90)"
                 ry="0.3833034"
                 rx="0.37758246"
                 cy="-129.05867"
                 cx="-121.62939"
                 id="ellipse5307"
                 style="opacity:1;fill:url(#linearGradient5397);fill-opacity:1;stroke:none;stroke-width:0.06296464;stroke-miterlimit:4;stroke-dasharray:none;stroke-opacity:1" />
              <ellipse
                 ry="0.20186777"
                 rx="0.20080987"
                 cy="122.34808"
                 cx="-128.33318"
                 id="ellipse5309"
                 style="opacity:1;fill:none;fill-opacity:1;stroke:#ff0000;stroke-width:0.09888787;stroke-miterlimit:4;stroke-dasharray:none;stroke-opacity:1" />
              <path
                 sodipodi:nodetypes="cccc"
                 inkscape:connector-curvature="0"
                 id="path5311"
                 d="m -129.2323,121.74794 h 0.33634 l -0.16624,-0.29229 z"
                 style="fill:none;stroke:#008000;stroke-width:0.09171393;stroke-linecap:butt;stroke-linejoin:miter;stroke-miterlimit:4;stroke-dasharray:none;stroke-opacity:1" />
              <rect
                 y="122.18639"
                 x="-129.94064"
                 height="0.32433048"
                 width="0.33040079"
                 id="rect5313"
                 style="opacity:1;fill:none;fill-opacity:1;stroke:#ff0066;stroke-width:0.087;stroke-miterlimit:4;stroke-dasharray:none;stroke-opacity:1" />
              <path
                 inkscape:connector-curvature="0"
                 id="path5315"
                 d="m -129.2487,123.25323 0.38395,-0.38395"
                 style="fill:#000000;fill-opacity:1;stroke:#0066ff;stroke-width:0.07825413px;stroke-linecap:butt;stroke-linejoin:miter;stroke-opacity:1" />
              <path
                 style="fill:#000000;fill-opacity:1;stroke:#0066ff;stroke-width:0.07825413px;stroke-linecap:butt;stroke-linejoin:miter;stroke-opacity:1"
                 d="m -128.86475,123.25323 -0.38395,-0.38395"
                 id="path5317"
                 inkscape:connector-curvature="0" />
            </g>
          </g>
        </g>
        <g
           id="g5361"
           transform="matrix(0.48164727,0,0,0.48164727,-58.253431,57.125627)">
          <path
             inkscape:connector-curvature="0"
             id="path5357"
             d="m -134.61228,110.40737 -0.623,-0.35969 v -0.71937 l 0.623,0.35969 z"
             style="fill:#288972;fill-opacity:1;stroke:none;stroke-width:0.02337947;stroke-linecap:butt;stroke-linejoin:miter;stroke-miterlimit:4;stroke-dasharray:none;stroke-opacity:1" />
          <path
             inkscape:connector-curvature="0"
             id="path5359"
             d="m -134.61229,110.40737 0.62299,-0.35969 v -0.71937 l -0.62299,0.35969 z"
             style="fill:url(#linearGradient5399);fill-opacity:1;stroke:none;stroke-width:0.02337947;stroke-linecap:butt;stroke-linejoin:miter;stroke-miterlimit:4;stroke-dasharray:none;stroke-opacity:1" />
        </g>
        <g
           aria-label="Sousa"
           transform="matrix(0.38988504,0.00175882,-0.01455548,0.53635585,-60.577523,59.741975)"
           style="font-style:normal;font-variant:normal;font-weight:normal;font-stretch:normal;font-size:0.42542842px;line-height:1.25;font-family:Orena;-inkscape-font-specification:Orena;letter-spacing:0px;word-spacing:0px;fill:url(#linearGradient5403);fill-opacity:1;stroke:none;stroke-width:0.01063571"
           id="g5365">
          <path
             id="path5363"
             style="font-style:normal;font-variant:normal;font-weight:normal;font-stretch:normal;font-family:'Conthrax Heavy';-inkscape-font-specification:'Conthrax Heavy, ';fill:url(#linearGradient5401);fill-opacity:1;stroke-width:0.03536973"
             d="m -156.28773,94.466319 c 0.0702,-0.03239 0.0938,-0.08338 0.0938,-0.141561 0,0 0,-0.03587 0,-0.03587 0,-0.06359 -0.028,-0.08565 -0.0933,-0.05915 0,0 -0.20511,0.08277 -0.20511,0.08277 -0.0125,0.0043 -0.0156,0.0015 -0.0156,-0.0079 0,0 0,-0.01743 0,-0.01743 0,-0.01108 0.003,-0.01814 0.0156,-0.02277 0,0 0.28436,-0.111562 0.28436,-0.111562 0.01,-0.0035 0.0124,-0.01063 0.0124,-0.02171 0,0 0,-0.07373 0,-0.07373 0,-0.01063 -0.003,-0.01494 -0.0124,-0.01139 0,0 -0.32038,0.116864 -0.32038,0.116864 -0.082,0.0299 -0.11095,0.08494 -0.11095,0.149852 0,0 0,0.04903 0,0.04903 0,0.07092 0.0336,0.09356 0.11033,0.06089 0,0 0.20853,-0.08896 0.20853,-0.08896 0.01,-0.0043 0.0156,-0.0016 0.0156,0.0074 0,0 0,0.0082 0,0.0082 0,0.0103 -0.003,0.01708 -0.0156,0.02206 0,0 -0.28498,0.124301 -0.28498,0.124301 -0.0125,0.005 -0.0156,0.01317 -0.0156,0.02527 0,0 0,0.08192 0,0.08192 0,0.0121 0.006,0.01566 0.0156,0.0103 0,0 0.31752,-0.147148 0.31752,-0.147148"
             inkscape:connector-curvature="0" />
        </g>
        <g
           aria-label="Emanuel"
           style="font-style:normal;font-variant:normal;font-weight:normal;font-stretch:normal;font-size:0.1402677px;line-height:1.25;font-family:'Conthrax Heavy';-inkscape-font-specification:'Conthrax Heavy, ';letter-spacing:0px;word-spacing:0px;fill:#ffffff;fill-opacity:1;stroke:none;stroke-width:0.00350669"
           id="g5369"
           transform="matrix(2.5837807,0.58700703,-0.02552324,1.6851435,233.53017,5.3524576)">
          <path
             id="path5367"
             style="font-style:normal;font-variant:normal;font-weight:normal;font-stretch:normal;font-family:'Conthrax Heavy';-inkscape-font-specification:'Conthrax Heavy, ';fill:#ffffff;stroke-width:0.00444249"
             d="m -137.00686,109.91787 c -0.0163,-0.009 -0.0226,-0.0263 -0.0226,-0.0626 0,0 0,-0.0324 0,-0.0324 0,-0.0362 0.006,-0.0471 0.0226,-0.04 0,0 0.037,0.016 0.037,0.016 0.001,8.1e-4 0.003,0.003 0.003,0.006 0,0 0,0.0261 0,0.0261 0,0.004 -6.2e-4,0.005 -0.003,0.005 0,0 -0.0367,-0.0172 -0.0367,-0.0172 -0.006,-0.003 -0.006,-3.6e-4 -0.006,0.0114 0,0 0.0429,0.0208 0.0429,0.0208 0.001,9e-4 0.003,0.003 0.003,0.006 0,0 0,0.0214 0,0.0214 0,0.004 -6.2e-4,0.005 -0.003,0.004 0,0 -0.0429,-0.0222 -0.0429,-0.0222 1.7e-4,0.0127 0.001,0.0151 0.006,0.0177 0,0 0.0367,0.0195 0.0367,0.0195 0.001,9.9e-4 0.003,0.003 0.003,0.008 0,0 0,0.0261 0,0.0261 0,0.004 -6.2e-4,0.005 -0.003,0.004 0,0 -0.037,-0.0193 -0.037,-0.0193"
             inkscape:connector-curvature="0" />
        </g>
        <path
           style="fill:#c8ab37;stroke:none;stroke-width:0.01126066;stroke-linecap:butt;stroke-linejoin:miter;stroke-miterlimit:4;stroke-dasharray:none;stroke-opacity:1"
           d="m -123.38913,109.78331 -0.15003,0.0866 0.30006,0.17324 0.15003,-0.0866 0.15003,0.0866 0.30006,-0.17324 -0.15003,-0.0866 -0.30006,0.17325 z"
           id="path5371"
           inkscape:connector-curvature="0" />
      </g>
    </g>
    <g
       id="g253"
       inkscape:export-filename="C:\Users\Mateus Emanuel\Documents\Faculdade\LMS\Trabalhos\EX1\My Website\images\fundo2.png"
       inkscape:export-xdpi="96"
       inkscape:export-ydpi="96"
       transform="matrix(0.84734253,0,0,0.84460269,149.9638,-41.446996)">
      <rect
         inkscape:export-ydpi="96"
         inkscape:export-xdpi="96"
         style="fill:#1f1f1f;fill-opacity:1;stroke:none;stroke-width:1.99800003;stroke-miterlimit:4;stroke-dasharray:none;stroke-opacity:1"
         id="rect1762"
         width="1920.0001"
         height="1080"
         x="-1.3715057"
         y="-778.49756" />
      <rect
         inkscape:export-ydpi="96"
         inkscape:export-xdpi="96"
         transform="scale(-1)"
         y="-301.50256"
         x="-1918.6284"
         height="1080"
         width="1920.0001"
         id="rect1778"
         style="fill:url(#linearGradient1786);fill-opacity:1;stroke:none;stroke-width:1.99800003;stroke-miterlimit:4;stroke-dasharray:none;stroke-opacity:1" />
    </g>
    <g
       id="g1822"
       transform="matrix(0.90883538,0,0,0.90883538,-2492.6985,-46.466165)"
       inkscape:export-xdpi="96"
       inkscape:export-ydpi="96"
       inkscape:export-filename="C:\Users\Mateus Emanuel\Documents\Faculdade\LMS\Trabalhos\EX1\My Website\images\icones.png"
       style="fill:#ffffff">
      <path
         style="fill:#ffffff;stroke-width:0.54131949"
         d="m 1958.8669,-296.59317 -19.04,-19.04021 -2.9789,2.6658 c -25.7612,23.04711 -38.8902,32.7085 -44.4495,32.7085 -2.3565,0 -4.0777,-1.57531 -4.0777,-3.72727 0,-5.03596 11.6359,-21.14665 29.4421,-40.7646 3.1592,-3.48011 5.7437,-6.56372 5.7437,-6.85212 0,-0.29081 -4.9653,-5.31224 -11.0341,-11.16437 l -11.0342,-10.64046 -7.1502,-15.20241 c -6.2142,-13.21275 -7.0744,-15.36915 -6.5703,-16.47522 0.412,-0.9016 1.0285,-1.27473 2.1186,-1.27473 0.8463,0 7.8548,2.9518 15.5745,6.55452 l 14.0357,6.55451 10.5738,10.51009 10.5738,10.51009 9.2974,-7.72699 c 7.7698,-6.4571 9.3013,-7.9669 9.3198,-9.18881 0.073,-4.84209 2.2257,-10.30991 5.3574,-13.60536 3.6454,-3.83392 5.1841,-4.29437 13.0016,-3.86784 6.5169,0.33935 6.9044,0.33935 8.3382,-0.81912 1.8666,-1.47825 3.4613,-4.53668 4.2281,-8.11323 0.6265,-2.92271 1.9014,-4.11506 3.7674,-3.52374 1.4003,0.43623 2.3576,2.37986 4.0284,8.14575 2.8185,9.72633 2.895,18.2831 0.2276,25.41391 -2.4616,6.57923 -10.3825,12.54967 -18.4158,13.88064 l -3.5761,0.59141 -7.6552,9.10786 c -4.2105,5.00974 -7.6552,9.2983 -7.6552,9.53048 0,0.24228 8.0386,8.47437 17.8636,18.3151 9.8249,9.84121 17.8636,18.29717 17.8636,18.7906 0,0.49435 -1.3823,2.38953 -3.0721,4.21676 l -3.0719,3.32016 -37.7939,-37.79101 -37.794,-37.791 -2.0284,2.02603 -2.0284,2.03086 37.4811,37.4842 c 20.6146,20.61594 37.4811,37.76337 37.4811,38.10458 0,0.92577 -5.8997,6.14302 -6.9464,6.14302 -0.4972,0 -9.4726,-8.56842 -19.9447,-19.04017 z m 4.9426,-48.35149 c 3.7355,-4.46405 6.7916,-8.24514 6.7916,-8.40218 0,-0.14576 -2.0172,-2.29259 -4.4824,-4.74514 l -4.4824,-4.45919 -8.5548,7.12306 -8.5547,7.12354 5.8577,5.87594 c 3.2217,3.23285 6.0321,5.81383 6.2454,5.73821 0.2133,-0.096 3.4438,-3.79024 7.1794,-8.25475 z m -54.6642,-20.28589 c 2.359,-2.37499 4.1799,-4.42041 4.0472,-4.55612 -0.5032,-0.50412 -9.414,-4.66275 -9.9862,-4.66275 -0.3295,0 -1.344,0.78996 -2.2547,1.75946 l -1.6556,1.75948 2.3629,5.00688 c 1.2994,2.75306 2.5509,5.00734 2.7801,5.00734 0.228,0 2.3474,-1.94361 4.7065,-4.31375 z"
         id="path1645"
         inkscape:connector-curvature="0" />
      <path
         inkscape:connector-curvature="0"
         id="path1750"
         d="m 1919.5803,-565.62445 c -0.8205,-0.86516 -1.2207,-1.60106 -1.4716,-2.70592 l -0.3445,-1.51758 19.5468,-57.19084 19.5468,-57.19083 1.1911,-1.12962 c 0.8677,-0.82289 1.6031,-1.22318 2.7083,-1.47429 l 1.5171,-0.34472 9.7663,3.26883 9.7662,3.26882 -0.3411,0.53849 c -1.5103,2.38373 -2.1615,3.95226 -4.1484,9.99167 -2.3602,7.17409 -2.3705,7.252 -1.1571,8.82372 0.5313,0.68846 1.6041,1.08109 23.2234,8.49979 25.0199,8.58577 23.6343,8.20929 25.2593,6.86044 0.7275,-0.60376 0.9545,-1.15152 3.1967,-7.71205 1.7348,-5.07771 2.4569,-7.51097 2.5673,-8.65921 l 0.1536,-1.59708 9.2526,3.17426 c 10.0162,3.43629 10.552,3.69008 11.686,5.5357 1.43,2.3276 1.7342,1.11747 -5.8226,23.16507 l -6.7324,19.6454 -3.0992,1.50702 -3.0993,1.50702 7.2785,-21.21584 c 4.0032,-11.66872 7.271,-21.42265 7.262,-21.67536 -0.014,-0.4019 -0.8142,-0.73316 -6.381,-2.64296 l -6.3645,-2.18346 -2.3304,6.44516 c -2.7726,7.66806 -3.2342,8.38985 -6.2423,9.75863 -3.3531,1.52583 -1.5682,1.97936 -28.2957,-7.19001 l -23.3655,-8.01597 -1.4265,-1.43394 c -1.6785,-1.68719 -2.4957,-3.51879 -2.5566,-5.73058 -0.039,-1.40424 0.1699,-2.17455 2.1571,-7.96689 l 2.1998,-6.41236 -6.5053,-2.15512 -6.5052,-2.15511 -19.3307,56.34635 -19.3307,56.34636 42.7032,14.7227 c 33.9932,11.71978 42.7673,14.67138 43.0177,14.47111 0.1731,-0.13834 1.9222,-4.93179 3.8871,-10.65206 l 3.5751,-10.39958 3.0992,-1.50703 3.0993,-1.50702 -4.5843,13.34096 c -4.269,12.42249 -4.6403,13.40208 -5.4162,14.22344 -0.9992,1.05799 -2.8598,1.80844 -4.3389,1.75015 -0.7895,-0.0311 -12.6351,-4.0072 -44.2097,-14.83947 l -43.1312,-14.79697 z m 45.9991,8.6719 c -0.1457,-0.29798 -0.1785,-0.79343 -0.073,-1.10097 0.3552,-1.03443 14.094,-19.28844 15.048,-19.99388 0.5104,-0.37724 12.7988,-6.48991 27.3077,-13.58369 l 26.3799,-12.89779 5.3976,11.03022 c 2.9689,6.06665 5.3576,11.14743 5.3085,11.29067 -0.1695,0.49401 -53.9929,26.57134 -54.8862,26.59219 -2.3025,0.0538 -23.4253,-0.52319 -23.7947,-0.6499 -0.2326,-0.0798 -0.5421,-0.38886 -0.6879,-0.68685 z m 16.8627,-2.16403 4.6335,0.0888 -3.3575,-6.85619 -3.3575,-6.8562 -2.7228,3.6667 c -1.4975,2.0167 -2.7557,3.76247 -2.7959,3.87951 -0.08,0.23232 2.6093,5.88319 2.8305,5.94845 0.075,0.0221 2.2212,0.0801 4.7697,0.12892 z m 27.3481,-26.6172 c 22.275,-10.89391 22.0897,-10.78792 21.4533,-12.27208 -0.6622,-1.54441 -0.4237,-1.64181 -22.8841,9.34417 -22.263,10.88946 -22.0879,10.78933 -21.4537,12.26847 0.6632,1.54679 0.4208,1.64571 22.8845,-9.34056 z m -44.2424,-24.28672 -6.9954,-14.30543 3.9586,-1.94319 c 2.1772,-1.06875 4.0766,-1.90265 4.2211,-1.8531 0.1443,0.0495 2.4618,4.58905 5.1498,10.08779 l 4.8875,9.99772 19.0494,-9.3161 19.0493,-9.31612 2.0236,4.13714 2.0235,4.13713 -23.1861,11.33979 -23.1861,11.33981 z m 77.7971,14.92483 -5.476,-11.20051 3.6231,-1.78958 c 4.6493,-2.29639 6.3815,-2.84847 7.889,-2.51416 0.6422,0.14241 1.4647,0.45046 1.8278,0.68445 0.8348,0.53801 8.5384,16.03587 8.6437,17.38891 0.1993,2.5618 -1.0167,3.75186 -6.6272,6.48541 l -4.4044,2.14598 z m -63.4731,-68.29411 c -0.8861,-1.2171 -0.7287,-2.15531 1.4051,-8.37487 2.9787,-8.68269 2.5437,-8.45209 10.6788,-5.66119 l 5.5319,1.89782 0.2609,-0.76048 c 0.4297,-1.25226 2.1682,-3.13903 3.6959,-4.0107 0.8854,-0.50524 2.2001,-0.91599 3.4372,-1.07393 1.7907,-0.22864 2.2359,-0.17596 4.196,0.49652 1.9602,0.67247 2.3439,0.90414 3.6172,2.18397 0.8796,0.88406 1.6652,2.01537 2.054,2.95777 0.6709,1.62592 0.8851,4.18265 0.4556,5.43491 l -0.261,0.76048 5.8015,1.9903 5.8014,1.99032 0.5734,1.1722 0.5734,1.17223 -2.2633,6.59727 -2.2633,6.59728 -1.1722,0.57335 -1.1723,0.57337 -20.248,-6.9465 c -18.3041,-6.27955 -20.2917,-7.00638 -20.7022,-7.57012 z"
         style="fill:#ffffff;stroke-width:0.27138957" />
      <path
         inkscape:connector-curvature="0"
         id="path1535"
         d="m 1262.616,-476.09167 c -13.656,4.00249 -27.4301,6.64774 -38.3592,7.36319 -6.6027,0.43165 -10.0757,0.0602 -11.9504,-1.287 -1.21,-0.86674 -1.1588,-1.90609 0.1183,-2.69215 0.8908,-0.54666 116.6446,-39.10026 117.7594,-39.22332 2.1718,-0.24055 2.499,1.47186 0.745,3.88293 -1.2771,1.75239 -3.5909,3.65038 -7.7777,6.37758 -9.3571,6.09537 -21.6772,12.07243 -35.6575,17.30023 -4.6787,1.74379 -19.9945,6.8448 -24.8841,8.27778 z m -12.1163,-18.10728 c -5.3004,1.01571 -15.3631,-1.40866 -24.2768,-5.85011 -11.4245,-5.69205 -20.7092,-13.97086 -27.1282,-24.18862 -3.3148,-5.27592 -4.309,-7.48806 -7.3614,-16.35619 l -2.5384,-7.39497 57.2338,-19.06108 57.2338,-19.06127 1.5688,4.70608 1.5689,4.70609 6.5242,-2.10966 c 6.2306,-2.01186 6.5826,-2.10924 7.7801,-2.14342 3.5475,-0.10963 6.3993,1.34483 8.5317,4.34048 1.7816,2.50492 3.8747,8.22223 4.0268,11.02148 0.276,4.39796 -0.9853,9.6088 -3.516,14.84327 -4.6357,9.59971 -12.5226,17.06574 -22.7532,21.53744 -0.9342,0.41381 -2.097,0.86437 -2.5739,1.04344 -0.8199,0.27193 -0.8988,0.34287 -1.1864,1.017 -0.477,1.12663 -3.0982,5.84114 -4.2341,7.6046 -4.0998,6.36752 -8.9472,11.45362 -12.6552,13.27869 -1.3442,0.66016 -34.7372,11.78626 -36.2448,12.07402 z m 59.4506,-46.65949 c 6.7162,-4.55218 11.892,-11.4439 13.942,-18.56238 0.5637,-1.95317 0.8752,-4.0101 0.82,-5.38008 -0.08,-1.76185 -2.1482,-6.79689 -2.9287,-7.09906 -0.2365,-0.0903 -1.7896,0.3706 -6.4975,1.90265 l -6.2006,2.02175 0.3547,2.2093 c 1.1864,7.51984 0.8908,16.29462 -0.8081,23.86867 -0.2759,1.18059 -0.3981,2.11827 -0.3153,2.08559 0.1182,-0.0366 0.8317,-0.49936 1.624,-1.03634 z m -83.4317,-29.19807 c -1.6005,-0.29966 -3.7446,-1.08708 -5.7962,-2.13159 -5.4913,-2.79386 -8.9485,-6.81872 -9.6737,-11.26262 -0.9972,-6.12253 1.3915,-14.28403 6.9932,-23.89058 2.0536,-3.52308 2.7001,-4.82224 3.0943,-6.21925 0.8592,-3.0477 0.7883,-6.11097 -0.2365,-10.0798 -0.6189,-2.45526 -0.5281,-3.88254 0.3154,-4.15054 1.0563,-0.35082 3.1888,1.25453 5.8786,4.42236 2.0694,2.44265 2.7237,3.56169 3.6026,6.19744 0.9066,2.72528 1.0366,3.94263 0.5992,6.63376 -0.4336,2.75759 -1.1943,4.74036 -3.8904,10.09982 -2.7434,5.45145 -3.2677,6.67722 -3.9378,9.17211 -1.34,5.01259 -1.2889,10.06206 0.157,13.86034 0.6227,1.63115 0.6898,1.71649 1.6595,2.67797 1.3717,1.3216 2.3216,2.68703 2.6094,3.73946 0.276,1.04495 0.08,1.18725 -1.3324,0.93058 z m 26.181,-8.65595 c -5.74,-1.26959 -11.5788,-5.12401 -13.9899,-9.23502 -2.4438,-4.1637 -2.2901,-10.31697 0.4416,-17.75452 0.9736,-2.66142 3.1494,-7.1074 5.2735,-10.80064 2.0102,-3.48877 2.5306,-4.58842 2.9366,-6.15069 0.7528,-2.92394 0.6898,-5.43475 -0.276,-9.36932 -0.5557,-2.37565 -0.6071,-3.00908 -0.3153,-3.77771 0.5635,-1.41532 1.9512,-0.83599 4.7394,1.96973 2.7197,2.74104 4.5562,5.43863 5.3855,7.92903 0.8042,2.41545 0.8828,5.31928 0.2365,8.06071 -0.6148,2.53411 -1.218,3.97474 -3.8117,9.10644 -1.3282,2.62711 -2.6685,5.47312 -2.9798,6.32453 -1.7619,4.80069 -2.2074,10.02792 -1.2219,14.45315 0.4572,2.08882 1.1589,3.45449 2.3768,4.66603 1.3205,1.31343 2.302,2.72685 2.5503,3.66853 0.1977,0.67477 0.1569,0.78161 -0.157,0.92391 -0.2364,0.0903 -0.737,0.0796 -1.1863,-0.0147 z"
         style="fill:#ffffff;fill-opacity:1;stroke-width:0.16039717" />
      <path
         inkscape:connector-curvature="0"
         id="path1746"
         d="m 1362.5355,-704.27177 c -2.3769,0.28455 -5.2494,-1.06218 -6.6778,-3.13081 -0.5385,-0.78016 -7.7679,-17.69858 -23.725,-55.52239 l -22.95,-54.40051 0.044,-1.32565 c 0.052,-1.59776 0.8407,-3.64704 1.8591,-4.8317 0.7333,-0.85283 1.5184,-1.19716 40.9888,-17.97499 26.9635,-11.46148 40.5754,-17.15175 41.2539,-17.24549 1.9086,-0.26382 3.8487,0.34768 5.512,1.73713 l 1.5225,1.27189 3.3927,7.80163 c 3.2691,7.51671 3.4052,7.78611 3.7354,7.37695 0.2527,-0.31309 0.4827,-0.36794 0.8754,-0.20878 0.4614,0.18695 0.9461,1.19581 3.6208,7.53569 2.4218,5.745 3.0719,7.47673 3.0111,8.04941 -0.065,0.62017 0.014,0.80557 0.5333,1.23665 0.4849,0.40281 1.2323,1.97669 3.6361,7.65629 2.6163,6.18133 2.9965,7.22155 2.8099,7.68257 -0.2609,0.6439 -0.525,0.78078 -0.95,0.49244 -0.1756,-0.11904 5.5547,13.81105 12.7338,30.95578 l 13.0529,31.17222 -0.06,1.57382 c -0.07,1.82412 -0.6464,3.40965 -1.726,4.74679 l -0.7628,0.9447 -40.4057,17.14823 c -26.0913,11.07312 -40.7309,17.18711 -41.3235,17.25808 z m 39.2238,-24.84525 c 1.7522,-2.1094 0.2575,-5.42599 -2.5084,-5.56566 -4.1064,-0.20736 -4.407,6.02083 -0.3198,6.62669 1.1468,0.16997 2.1039,-0.18905 2.8282,-1.06103 z m 33.6461,-27.42326 c 0.097,-0.32106 -5.2444,-13.09408 -20.1559,-48.20157 l -20.2872,-47.7648 -39.8263,16.85639 -39.8263,16.85638 20.1767,47.84123 c 11.0973,26.31262 20.2845,47.95379 20.4157,48.09158 0.3698,0.38619 79.3159,-33.05697 79.5031,-33.67915 z m -118.0331,-71.00026 c -0.3577,-0.18514 -0.4189,-0.32979 -0.3028,-0.71545 0.1193,-0.39646 0.907,-0.80565 4.3798,-2.27552 4.4185,-1.87013 5.0341,-1.98139 5.0703,-0.91625 0.014,0.39369 -0.5379,0.68511 -4.3418,2.29511 -3.5821,1.51613 -4.4369,1.80293 -4.8055,1.61211 z"
         style="fill:#ffffff;stroke-width:0.25896189" />
      <path
         inkscape:connector-curvature="0"
         id="path1748"
         d="m 1284.7492,-250.7536 c -1.4429,-0.67661 -20.8706,-20.18249 -21.4155,-21.50147 -0.5236,-1.26784 -0.4923,-2.42517 0.1,-3.6866 0.3303,-0.70393 6.5713,-7.11076 19.6111,-20.13225 l 19.1266,-19.09976 1.6124,1.61265 1.6128,1.61263 -18.9702,18.97146 -18.9701,18.97146 9.6126,9.61267 9.6128,9.61268 2.8413,-2.83256 c 1.5628,-1.55791 2.8414,-2.95239 2.8414,-3.09883 0,-0.14644 -1.51,-1.77295 -3.3556,-3.61446 -1.8456,-1.8415 -3.3557,-3.5299 -3.3557,-3.75201 0,-0.55982 0.5188,-1.02333 1.1452,-1.02333 0.3299,0 1.8009,1.27263 3.9503,3.41751 l 3.4245,3.41752 2.3842,-2.38409 2.384,-2.38408 -3.4175,-3.42455 c -2.1449,-2.14932 -3.4175,-3.62034 -3.4175,-3.95027 0,-0.62649 0.4635,-1.14519 1.0232,-1.14519 0.2223,0 1.9106,1.51003 3.7522,3.35565 1.8414,1.84559 3.4681,3.35563 3.6148,3.35563 0.1467,0 1.4242,-1.16186 2.839,-2.5819 l 2.5721,-2.58189 -3.4159,-3.42301 c -2.1438,-2.14825 -3.416,-3.61877 -3.416,-3.94871 0,-0.62648 0.4635,-1.14519 1.0234,-1.14519 0.2221,0 1.9104,1.51004 3.752,3.35565 1.8415,1.8456 3.4682,3.35563 3.6151,3.35563 0.1469,0 1.3666,-1.10417 2.7104,-2.45372 l 2.4436,-2.45372 -5.9706,-5.99992 c -3.2837,-3.29996 -6.0934,-6.24333 -6.2436,-6.54079 -0.325,-0.64333 0.2437,-1.65321 0.9308,-1.65321 0.2338,0 3.248,2.81449 6.6986,6.25441 l 6.2735,6.2544 3.7409,-3.73434 3.741,-3.73433 -3.4846,-3.49138 c -1.9167,-1.92027 -3.4847,-3.67515 -3.4847,-3.89977 0,-0.4753 0.7942,-1.26276 1.2736,-1.26276 0.1814,0 1.9204,1.56558 3.8646,3.47904 l 3.5346,3.47904 0.5702,-0.57024 0.5703,-0.57024 1.6093,1.60937 1.6095,1.60939 -19.0997,19.12659 c -13.0215,13.03979 -19.4284,19.28073 -20.1323,19.61098 -1.3109,0.61494 -2.5608,0.61502 -3.8719,2.1e-4 z m 105.7028,0.15013 c -1.8051,-0.68396 -13.6698,-5.60486 -18.3271,-7.60115 -8.6771,-3.71948 -4.6993,-0.25306 -36.3484,-31.67505 -60.961,-60.52348 -72.6455,-72.23575 -73.1308,-73.30406 -0.6033,-1.3279 -0.5994,-2.8276 0.013,-4.13474 0.3071,-0.6583 2.6673,-3.19955 6.512,-7.0118 5.2696,-5.2252 6.1752,-6.0177 7.1807,-6.28395 1.2822,-0.33947 2.775,-0.18352 3.9221,0.40967 0.4176,0.21598 19.1357,18.65054 41.5958,40.96567 22.46,22.31514 45.1138,44.81476 50.3414,49.99915 l 9.5049,9.42617 2.6546,5.29159 c 1.46,2.91037 4.3098,8.86533 6.3331,13.23321 3.1466,6.79267 3.6555,8.06576 3.5179,8.79955 -0.3172,1.69032 -2.0255,2.54555 -3.767,1.88574 z m -4.1301,-7.49236 c 0,-0.0517 -1.6255,-3.50736 -3.6121,-7.67927 -1.9866,-4.17192 -3.6583,-7.70147 -3.7148,-7.84342 -0.056,-0.14197 -2.1189,1.75817 -4.5834,4.22253 -2.4644,2.46438 -4.3644,4.53117 -4.2225,4.59288 4.2235,1.83585 15.799,6.75604 15.9392,6.77504 0.106,0.0144 0.1936,-0.0161 0.1936,-0.0678 z m -15.6806,-15.07151 5.0937,-5.09851 -41.3325,-41.00666 -41.3326,-41.00664 -5.1537,5.15382 -5.1539,5.15382 16.7392,16.642 c 31.4179,31.23562 65.7829,65.25931 65.9147,65.25999 0.073,2.7e-4 2.4235,-2.29363 5.2251,-5.09782 z m -86.4706,-85.69975 5.0954,-5.10024 -5.7455,-5.74122 -5.7454,-5.74122 -5.1579,5.16281 -5.1579,5.16279 5.6742,5.67868 c 3.1209,3.12327 5.7344,5.67866 5.8079,5.67866 0.073,0 2.4266,-2.2951 5.2292,-5.10026 z m 68.4653,41.23753 -1.533,-1.54922 0.5674,-0.56749 0.5675,-0.5675 -3.479,-3.53472 c -1.9135,-1.94409 -3.4791,-3.70326 -3.4791,-3.90925 0,-0.46239 0.8156,-1.22894 1.3077,-1.22894 0.1999,0 1.9346,1.56813 3.8549,3.48471 l 3.4913,3.4847 3.7344,-3.74099 3.7343,-3.74099 -6.2544,-6.27351 c -3.4399,-3.45042 -6.2544,-6.46474 -6.2544,-6.6985 0,-0.68716 1.0099,-1.25581 1.6532,-0.93089 0.2975,0.15023 3.2408,2.95991 6.5407,6.2437 l 6,5.97053 2.4537,-2.44351 c 1.3495,-1.34395 2.4537,-2.56366 2.4537,-2.71049 0,-0.14681 -1.51,-1.77363 -3.3556,-3.61513 -1.8456,-1.84152 -3.3557,-3.52993 -3.3557,-3.75203 0,-0.55981 0.5188,-1.02333 1.1453,-1.02333 0.3299,0 1.8005,1.27214 3.9487,3.41598 l 3.423,3.41596 2.5818,-2.57221 c 1.4201,-1.41472 2.5821,-2.69221 2.5821,-2.83891 0,-0.14667 -1.5101,-1.77337 -3.3557,-3.61488 -1.8457,-1.84151 -3.3557,-3.52991 -3.3557,-3.75202 0,-0.55981 0.5187,-1.02332 1.1452,-1.02332 0.3299,0 1.8009,1.27262 3.9502,3.41752 l 3.4247,3.4175 2.384,-2.38409 2.3841,-2.38408 -3.4176,-3.42456 c -2.1448,-2.14931 -3.4174,-3.62031 -3.4174,-3.95026 0,-0.62649 0.4635,-1.1452 1.0233,-1.1452 0.2221,0 1.9104,1.51004 3.752,3.35565 1.8416,1.8456 3.4681,3.35564 3.6145,3.35564 0.1465,0 1.5408,-1.27862 3.0987,-2.84138 l 2.8327,-2.84138 -9.6127,-9.61268 -9.6128,-9.61267 -18.9714,18.97014 -18.9714,18.97012 -1.6126,-1.61262 -1.6127,-1.61265 19.0997,-19.12659 c 13.0215,-13.03978 19.4284,-19.28073 20.1323,-19.61097 1.3108,-0.61495 2.5608,-0.61503 3.8719,-2.2e-4 1.4429,0.67661 20.8707,20.18249 21.4154,21.50148 0.5025,1.21674 0.5025,2.28425 2e-4,3.50129 -0.2776,0.6724 -6.1306,6.697 -19.5524,20.12558 -10.536,10.54124 -19.2184,19.16589 -19.2943,19.16589 -0.075,0 -0.8276,-0.69714 -1.6707,-1.54921 z"
         style="fill:#ffffff;stroke-width:0.25812659" />
      <path
         inkscape:connector-curvature="0"
         id="path1545"
         d="m 1786.1286,-751.3956 c -3.1685,-0.3181 -7.5283,-0.90245 -9.6889,-1.29889 -4.6575,-0.85444 -8.3316,-2.82938 -7.418,-3.98849 0.4166,-0.52902 -1.4785,-5.44028 -5.9838,-15.49726 -3.8759,-8.65358 -6.4549,-15.20392 -6.256,-15.88993 0.5387,-1.86304 -1.0464,-4.88645 -2.794,-5.32496 -3.5836,-0.89899 -4.3851,3.43313 -1.1844,6.39996 1.2236,1.13381 15.0822,30.6953 15.0822,32.16996 0,0.22771 -2.6648,-2.30903 -5.9211,-5.64358 -6.2983,-6.44915 -12.2883,-10.74578 -17.3019,-12.41103 -1.6897,-0.56152 -3.4652,-1.64111 -3.9478,-2.40044 -1.1375,-1.79104 -13.1565,-37.29224 -13.1565,-38.8645 0,-3.47642 7.2597,-8.06887 13.8266,-8.74676 5.6987,-0.58764 6.6872,0.18078 10.7289,8.3612 4.5336,9.17398 10.5203,19.90172 14.5863,26.13783 l 3.2023,4.91157 -0.5283,5.33035 c -0.5856,5.89819 -0.5414,7.19315 0.4945,15.6336 l 0.7159,5.8225 6.8118,0.78687 c 12.0161,1.38654 25.9748,1.59819 32.3184,0.48883 3.1147,-0.54435 5.8427,-1.16924 6.0624,-1.38782 0.9608,-0.95925 -5.0294,-3.05137 -16.5264,-5.77404 -8.618,-2.04083 -12.409,-3.92124 -12.6866,-6.29243 -0.1808,-1.60788 0.1808,-1.9183 4.4807,-3.87563 2.5772,-1.17052 7.9979,-3.24491 12.0465,-4.60999 8.1986,-2.76442 14.3194,-6.43282 16.2101,-9.71536 2.316,-4.02121 0.3214,-6.86361 -9.45,-13.45694 -7.2081,-4.86439 -8.9364,-6.82221 -8.9364,-10.12329 0,-2.01002 0.5338,-2.79856 4.2169,-6.23703 13.1479,-12.27289 15.1164,-14.33207 16.5015,-17.2622 1.4991,-3.17025 1.9855,-8.05562 1.16,-11.63834 -0.3487,-1.5131 -0.1771,-1.35276 0.8142,0.75746 1.6698,3.55509 2.2539,9.57457 1.3033,13.44321 -1.0937,4.45056 -4.6977,9.32668 -9.5719,12.94793 -11.0851,8.23561 -10.8889,11.26248 1.1247,17.31952 6.1707,3.11133 9.7925,6.1268 10.6076,8.8321 1.7441,5.78897 -7.0348,12.65099 -26.4517,20.67582 -7.3492,3.03765 -7.414,3.08252 -5.5227,3.83979 1.0516,0.42092 5.5141,1.5867 9.9148,2.58996 8.7967,2.00501 15.4257,4.94809 17.517,7.77724 1.1754,1.58888 1.2078,1.86674 0.325,2.74969 -2.569,2.56888 -24.7741,4.66387 -36.7245,3.4647 z m -62.8907,-61.42391 c -1.1456,-0.6972 -2.08,-1.54086 -2.08,-1.87476 0,-0.33491 -0.6041,-0.79891 -1.3461,-1.03374 -1.5697,-0.49816 -3.3109,-4.18437 -4.4626,-9.45129 l -0.8123,-3.71054 3.4691,-3.53967 c 5.7938,-5.91167 11.9572,-8.72133 20.8134,-9.48864 l 4.4197,-0.38239 3.631,5.25026 c 3.026,4.37549 3.7021,5.86077 4.0564,8.91397 0.2646,2.29998 0.157,4.164 -0.2948,5.00765 l -0.7186,1.34346 -1.9524,-1.44206 c -6.2509,-4.61885 -22.8405,3.21778 -21.5131,10.16198 0.3539,1.85534 -0.4684,1.91828 -3.2128,0.24451 z m -10.4017,-19.29191 c 0,-1.26603 -6.436,-13.46802 -10.4243,-19.76185 -2.1188,-3.34467 -6.1482,-10.02933 -8.953,-14.85503 -6.0166,-10.35043 -6.084,-11.19502 -1.3198,-16.49511 4.5145,-5.02122 18.8213,-11.5373 25.3315,-11.5373 2.6108,0 5.9981,1.57902 7.0934,3.30719 1.2392,1.95311 4.6464,11.58047 9.6494,27.25462 2.2206,6.95519 4.7925,14.13584 5.7172,15.95686 l 1.6814,3.3112 -4.3064,0.43972 c -8.6808,0.88694 -15.4712,4.11018 -20.9118,9.92694 -3.1125,3.32729 -3.5582,3.63453 -3.5582,2.45236 z"
         style="fill:#ffffff;stroke-width:0.64011133" />
      <path
         inkscape:connector-curvature="0"
         id="path1744"
         d="m 1622.5621,-328.61899 c -8.6429,-2.66264 -16.077,-8.91057 -16.077,-13.51172 0,-5.08435 5.2853,-5.45947 14.7626,-1.04778 4.8115,2.23975 11.6667,4.0634 15.2338,4.05251 6.6279,-0.0202 18.9839,-4.66639 20.9744,-7.88689 3.0334,-4.90832 11.9274,1.08484 9.8075,6.60888 -1.2033,3.13587 -13.5443,10.47331 -21.0532,12.51735 -8.3907,2.28406 -14.4677,2.09585 -23.6481,-0.73235 z m -34.9117,-22.52161 c -2.7222,-7.09382 -1.3257,-7.69175 46.4098,-19.87203 25.41,-6.48371 47.4095,-11.40767 48.8878,-10.94218 3.4871,1.09812 4.4962,3.93323 2.9142,8.18771 -1.089,2.92892 -7.3598,4.93471 -44.3548,14.18758 -44.7477,11.19186 -52.3439,12.38212 -53.857,8.43892 z m 1.323,-28.79412 c -2.5269,-2.52692 -2.4872,-6.95135 0.081,-9.01234 1.1148,-0.8946 22.6452,-6.60686 47.8453,-12.69393 41.8766,-10.11527 46.0402,-10.84567 48.396,-8.4898 3.7697,3.76966 0.4084,8.95043 -7.0898,10.92752 -17.0816,4.50401 -84.7755,21.21427 -85.9397,21.21427 -0.7409,0 -2.2227,-0.87558 -3.2928,-1.94572 z m -0.8748,-29.64377 c -1.3221,-1.32199 -2.0195,-3.87252 -1.5501,-5.66781 1.0291,-3.93506 3.8486,-4.82624 51.7947,-16.37054 l 35.9119,-8.64675 0.987,-7.44106 c 1.5851,-11.94891 10.6918,-28.79351 22.5538,-41.71718 21.7364,-23.68213 28.761,-38.65406 29.9292,-63.79052 1.3722,-29.52641 -6.3267,-49.01621 -27.8718,-70.55825 -20.6126,-20.60971 -39.2036,-27.73211 -68.2361,-26.14179 -31.7062,1.73678 -54.3588,14.91706 -72.1134,41.95896 -9.8611,15.01915 -13.8241,29.74656 -13.6693,50.79568 0.2,27.18482 6.6115,42.85082 26.4984,64.74521 13.1865,14.51781 23.6829,33.82765 26.9778,49.63021 2.7253,13.07083 1.3994,17.77167 -5.0126,17.77167 -3.0064,0 -4.2042,-1.07871 -4.9514,-4.45895 -5.8455,-26.44673 -10.3788,-36.00786 -25.1769,-53.10205 -19.7277,-22.78844 -27.8992,-39.53884 -30.4616,-62.44098 -8.2537,-73.77317 53.663,-130.69839 125.9242,-115.77248 56.1105,11.58997 92.6754,71.30721 78.2343,127.7714 -4.4686,17.47193 -12.6006,31.94386 -26.9776,48.0099 -14.2809,15.95846 -20.7632,27.72229 -23.5198,42.68242 -1.6738,9.08398 -2.5793,10.88987 -6.1571,12.27839 -4.801,1.86322 -86.6336,22.86814 -89.0914,22.86814 -0.8902,0 -2.7002,-1.08162 -4.0222,-2.40362 z m 168.7746,-49.62392 c -11.3703,-9.7996 -20.6734,-18.74473 -20.6734,-19.87809 0,-3.51651 4.1381,-7.92649 6.8646,-7.31571 3.247,0.72735 42.8417,33.81525 44.1411,36.88707 1.8208,4.3048 -0.7568,8.28784 -5.3093,8.20414 -3.139,-0.0577 -10.1043,-5.03963 -25.023,-17.89741 z m -271.6718,14.41021 c -1.0701,-1.07014 -1.9457,-3.17794 -1.9457,-4.684 0,-2.98258 39.4512,-37.14907 42.8951,-37.14907 3.8478,0 6.4331,4.73815 4.8109,8.8168 -1.8984,4.77278 -37.3389,34.962 -41.0435,34.962 -1.524,0 -3.6466,-0.87557 -4.7168,-1.94573 z m 133.4685,-0.081 c -0.3766,-1.11475 -1.4537,-10.08762 -2.3936,-19.9397 -1.7302,-18.13683 -5.4362,-34.21397 -11.3385,-49.18819 -3.6668,-9.30256 -3.0545,-12.75721 2.508,-14.15334 5.1697,-1.29749 19.1521,2.19922 23.9803,5.99699 3.8521,3.03005 3.9871,3.01966 10.9634,-0.84556 8.9175,-4.94062 17.8308,-6.6394 22.2963,-4.24948 4.4524,2.38279 4.3272,4.24877 -1.3686,20.38574 -5.5862,15.82721 -9.8013,36.57115 -9.8327,48.39044 -0.033,12.19464 -1.3039,15.62989 -5.785,15.62989 -6.1532,0 -7.7276,-5.18926 -6.5016,-21.42971 0.9453,-12.52094 6.2277,-36.94042 9.8328,-45.45455 1.8665,-4.40817 -0.9946,-3.35754 -7.7483,2.84526 -3.3939,3.117 -7.3369,5.66727 -8.7624,5.66727 -1.4254,0 -5.1199,-2.95347 -8.2096,-6.56328 -3.0899,-3.60978 -5.9107,-6.27062 -6.2683,-5.91291 -0.3577,0.3577 1.2176,7.50665 3.5007,15.88654 4.9779,18.27043 7.3219,48.55157 4.0626,52.47895 -2.4839,2.99274 -7.9836,3.27319 -8.9355,0.45564 z M 1456.314,-570.0345 c -0.4932,-1.2856 -0.6435,-3.65694 -0.3339,-5.26968 0.5109,-2.66 2.9686,-2.97387 26.4756,-3.38077 22.6325,-0.39175 26.1626,-0.10683 27.8864,2.25079 1.3755,1.88107 1.4841,3.61446 0.3581,5.71821 -1.4722,2.75108 -3.9165,3.01889 -27.5523,3.01889 -21.0921,0 -26.1044,-0.43661 -26.8339,-2.33744 z m 304.8301,0 c -0.4933,-1.2856 -0.6436,-3.65694 -0.3339,-5.26968 0.512,-2.66519 2.9968,-2.97296 27.2872,-3.37964 23.3836,-0.3915 26.9707,-0.11017 28.6971,2.25078 1.3748,1.88011 1.4831,3.61352 0.3574,5.71709 -1.4756,2.75692 -3.9368,3.01889 -28.3632,3.01889 -21.7983,0 -26.9136,-0.43252 -27.6446,-2.33744 z m -38.4159,-74.11778 c -5.7049,-3.1926 -2.733,-7.66067 15.9433,-23.97022 10.2772,-8.97489 19.2583,-16.31801 19.9579,-16.31801 0.6997,0 2.6138,0.98095 4.2535,2.17989 5.1988,3.80163 1.597,9.28991 -15.5959,23.76311 -17.9796,15.13537 -20.5079,16.61223 -24.5588,14.34523 z m -199.2651,-13.17059 c -8.6526,-7.33448 -16.213,-14.9866 -16.8007,-17.00471 -1.28,-4.39492 1.9082,-8.84888 5.844,-8.16438 1.5294,0.266 10.5744,7.29251 20.0999,15.61449 13.3946,11.70214 17.2057,15.92753 16.8183,18.64651 -0.3718,2.61106 -1.7522,3.60931 -5.3651,3.87958 -3.9854,0.29818 -7.7067,-2.04548 -20.5964,-12.97149 z m 109.2891,-24.19904 c -1.3366,-1.33659 -1.9456,-9.39625 -1.9456,-25.74445 0,-25.40983 1.035,-28.87252 7.9729,-26.67053 4.4342,1.40733 5.3905,7.77402 4.7337,31.51053 -0.4244,15.34213 -1.087,20.07294 -2.9781,21.26604 -3.2765,2.06719 -5.4554,1.96597 -7.7829,-0.36159 z"
         style="fill:#ffffff;stroke:none;stroke-width:1.62137973;stroke-miterlimit:4;stroke-dasharray:none;stroke-opacity:1" />
      <path
         inkscape:connector-curvature="0"
         id="path1547"
         d="m 1564.2853,-163.34426 c -4.6956,-3.5558 -4.5395,-12.31042 0.4464,-25.12385 3.4377,-8.84934 8.4066,-18.05098 15.6538,-29.02958 14.43,-21.85654 24.5303,-30.92185 36.1319,-32.429 4.0172,-0.52085 8.1382,-0.0408 12.4063,1.44801 3.4348,1.19929 3.9403,1.46627 9.556,5.25196 8.7172,5.85586 10.3711,6.71996 18.1894,9.45777 7.7292,2.7086 9.1725,3.00729 19.8421,3.87616 6.6363,0.55225 7.3172,0.66983 10.7182,1.84182 2.8319,0.97681 4.1505,1.58085 5.9627,2.82632 12.106,8.17632 15.4197,22.24431 12.4699,52.932 -2.2922,23.84864 -7.4366,40.88214 -14.516,48.05958 -4.8756,4.9454 -11.0277,3.7919 -16.1941,-3.03543 -2.0057,-2.65407 -4.9779,-8.72024 -7.5133,-15.34533 -1.2158,-3.17908 -2.7367,-6.58756 -3.3786,-7.57539 -3.4693,-5.33951 -7.7409,-7.50554 -30.5832,-15.51993 -23.7263,-8.32448 -29.0027,-9.46568 -34.9291,-7.56008 -1.3231,0.42584 -4.619,2.10601 -7.5575,3.84812 -5.9347,3.52296 -12.1642,6.47015 -15.4236,7.29692 -4.5971,1.16555 -8.7184,0.71842 -11.2823,-1.22078 z m 104.6977,-7.26349 c 1.5243,0.0258 3.9842,-1.11739 4.8595,-2.25554 1.1808,-1.53249 1.6699,-4.04674 1.077,-5.71498 -0.6086,-1.75475 -2.3062,-3.60746 -3.7578,-4.104 -2.1286,-0.73153 -5.3172,0.12253 -6.7313,1.80785 -1.077,1.28485 -1.7455,3.72694 -1.414,5.22292 0.6636,3.09821 2.9165,4.99944 5.9799,5.04622 z m -65.0389,-30.23259 c 8.1162,1.2382 15.2505,-5.51346 14.494,-13.7144 -0.3352,-3.61788 -2.7804,-7.69348 -5.6946,-9.48286 -3.1316,-1.92113 -7.3386,-2.40741 -10.7675,-1.21992 -7.168,2.4681 -10.6812,10.97308 -7.2477,17.54518 2.0592,3.94269 5.1611,6.25443 9.2151,6.87426 z m 57.9076,12.83491 c 2.5347,-0.3433 4.7028,-2.65428 5.1365,-5.47498 0.1977,-1.4005 -0.8461,-4.11454 -2.0134,-5.1689 -1.9707,-1.77711 -5.287,-2.06366 -7.4666,-0.61781 -2.6336,1.73305 -3.5429,4.78996 -2.2672,7.65588 1.2246,2.7728 3.5312,4.03288 6.6265,3.61471 z m 25.2942,9.03731 c 1.5692,-0.2225 3.2478,-1.30463 4.1908,-2.7073 2.3279,-3.46882 0.8892,-7.88308 -3.0144,-9.25215 -1.6032,-0.56235 -2.8494,-0.4983 -4.4789,0.22958 -5.4111,2.42048 -4.6208,10.42397 1.1465,11.59742 0.6921,0.15908 1.6646,0.20852 2.1595,0.13113 z m -7.7084,-17.43846 c 2.3071,-0.62339 3.3843,-1.67028 4.244,-4.12135 0.6705,-1.9119 0.692,-2.33037 0.2891,-3.59944 -1.2017,-3.69622 -4.706,-5.40563 -8.1967,-3.99819 -1.8053,0.72873 -2.7843,1.80549 -3.5042,3.85787 -0.7448,2.12384 -0.2437,4.48253 1.2972,6.09145 1.434,1.49702 4.0005,2.27191 5.8685,1.76573 z"
         style="fill:#ffffff;stroke-width:0.32010582" />
    </g>
    <path
       style="fill:#000000;stroke:none;stroke-width:2.53646898px;stroke-linecap:butt;stroke-linejoin:miter;stroke-opacity:1"
       d="m 712.61015,-1680.7786 c 0,0 -8.77635,-1.0648 -12.31281,-3.4428 -2.90218,-1.9515 -6.4291,-8.2921 -6.4291,-8.2921 l 9.28339,0.8755 c 0,0 -5.9934,-2.6047 -8.40682,-4.729 -2.34897,-2.0675 -4.45047,-4.6227 -5.60497,-7.5315 -0.93219,-2.3492 -0.87648,-7.5316 -0.87648,-7.5316 0,0 4.71968,2.6522 7.30568,2.615 1.272,-0.017 3.55382,-1.3888 3.55382,-1.3888 0,0 -6.42038,-3.6763 -7.88142,-6.831 -2.30627,-4.9803 -0.17432,-16.4642 -0.17432,-16.4642 0,0 11.2472,10.4421 17.86543,14.1873 5.20926,2.9481 10.85777,5.7111 16.81455,6.3053 1.82439,0.1821 5.42974,-0.8758 5.42974,-0.8758 0,0 -0.60119,-8.2833 1.0508,-11.9102 1.84884,-4.0582 5.25461,-7.722 9.28339,-9.6333 3.86319,-1.8329 8.63166,-2.0671 12.78586,-1.0508 3.61925,0.8854 9.45852,5.9551 9.45852,5.9551 l 11.55911,-5.9551 c 0,0 -1.53956,2.9767 -2.45176,4.3787 -1.27464,1.9572 -3.46503,3.3893 -4.20382,5.6048 -0.27883,0.8312 0,2.6272 0,2.6272 l 9.2833,-5.7801 c -1.31827,4.5532 -3.48329,6.4032 -5.42975,8.4076 -1.44459,1.4449 -3.85355,3.8532 -3.85355,3.8532 0,0 0.6011,9.174 -0.17431,13.6618 -0.8016,4.6211 -2.3298,9.183 -4.55418,13.3116 -3.25763,6.0452 -7.51897,11.6829 -12.61154,16.2892 -4.08458,3.6946 -8.90795,6.688 -14.01179,8.7574 -5.92115,2.4007 -12.36152,3.6673 -18.741,4.0286 -5.33041,0.3015 -10.8674,0.091 -15.93898,-1.5763 -5.42193,-1.7832 -14.71313,-8.7578 -14.71313,-8.7578 0,0 9.07517,0.5228 13.4873,-0.3502 3.37178,-0.6674 7.28113,-1.1716 9.63265,-3.6782 1.21284,-1.2929 1.5771,-5.0795 1.5771,-5.0795 z"
       id="path1872"
       inkscape:connector-curvature="0"
       sodipodi:nodetypes="caccaacacacaacaaaccaaccccaaaaaacaacc" />
    <g
       id="g1885"
       transform="matrix(11.513311,0,0,11.513311,-17350.32,3087.3303)">
      <ellipse
         ry="2.8948417"
         rx="2.8144293"
         cy="-415.36359"
         cx="1598.8694"
         id="path1876"
         style="fill:none;fill-opacity:1;stroke:#000000;stroke-width:1.20813954;stroke-miterlimit:4;stroke-dasharray:none;stroke-opacity:1" />
      <rect
         ry="4.1058717"
         y="-421.22095"
         x="1592.839"
         height="11.672554"
         width="11.896551"
         id="rect1878"
         style="fill:none;fill-opacity:1;stroke:#000000;stroke-width:1.06950057;stroke-miterlimit:4;stroke-dasharray:none;stroke-opacity:1" />
      <ellipse
         ry="0.69387895"
         rx="0.68220997"
         cy="-418.89685"
         cx="1602.3334"
         id="path1880"
         style="fill:#000000;fill-opacity:1;stroke:none;stroke-width:1.5023936;stroke-miterlimit:4;stroke-dasharray:none;stroke-opacity:1" />
    </g>
    <g
       id="g1891"
       transform="matrix(0.77346617,0,0,0.77346617,-297.44993,-1351.4458)">
      <path
         sodipodi:nodetypes="ccccccssccssccccc"
         inkscape:connector-curvature="0"
         id="path1874"
         d="m 1549.8188,-358.3235 h -29.5218 v -70.44815 h -23.1464 v -25.16042 h 25.1594 c 0,0 0.118,-22.23465 0,-34.55291 -0.118,-8.53914 9.5756,-18.02001 18.1151,-18.11524 11.854,-0.13215 35.2246,0 35.2246,0 v 22.47632 c 0,0 -13.5875,0.13806 -19.793,0 -2.6218,-0.059 -6.8427,1.31143 -6.8143,3.93404 0.118,8.85101 0,26.5935 0,26.5935 h 25.6008 v 23.81819 h -25.4958 z"
         style="fill:#000000;stroke:none;stroke-width:3.43518996px;stroke-linecap:butt;stroke-linejoin:miter;stroke-opacity:1" />
      <rect
         ry="29.481869"
         y="-534.23114"
         x="1437.2031"
         height="174.1273"
         width="166.46738"
         id="rect1887"
         style="fill:none;fill-opacity:1;stroke:#000000;stroke-width:15.21789646;stroke-miterlimit:4;stroke-dasharray:none;stroke-opacity:1" />
      <rect
         style="fill:none;fill-opacity:1;stroke:#000000;stroke-width:15.21789646;stroke-miterlimit:4;stroke-dasharray:none;stroke-opacity:1"
         id="rect1893"
         width="166.46738"
         height="174.1273"
         x="1249.7434"
         y="-534.23114"
         ry="29.481869" />
    </g>
  </g>
</svg>
