<?xml version="1.0" encoding="UTF-8" standalone="no"?>
<svg
   xmlns:dc="http://purl.org/dc/elements/1.1/"
   xmlns:cc="http://creativecommons.org/ns#"
   xmlns:rdf="http://www.w3.org/1999/02/22-rdf-syntax-ns#"
   xmlns:svg="http://www.w3.org/2000/svg"
   xmlns="http://www.w3.org/2000/svg"
   xmlns:sodipodi="http://sodipodi.sourceforge.net/DTD/sodipodi-0.dtd"
   xmlns:inkscape="http://www.inkscape.org/namespaces/inkscape"
   sodipodi:docname="ACESSIBILIDADE.svg"
   inkscape:version="1.0 (4035a4fb49, 2020-05-01)"
   id="svg8"
   version="1.1"
   viewBox="0 0 210 297"
   height="297mm"
   width="210mm">
  <defs
     id="defs2" />
  <sodipodi:namedview
     inkscape:window-maximized="0"
     inkscape:window-y="0"
     inkscape:window-x="128"
     inkscape:window-height="1042"
     inkscape:window-width="1749"
     showgrid="false"
     inkscape:document-rotation="0"
     inkscape:current-layer="layer1"
     inkscape:document-units="mm"
     inkscape:cy="538.26685"
     inkscape:cx="311.54535"
     inkscape:zoom="0.7"
     inkscape:pageshadow="2"
     inkscape:pageopacity="0.0"
     borderopacity="1.0"
     bordercolor="#666666"
     pagecolor="#ffffff"
     id="base" />
  <metadata
     id="metadata5">
    <rdf:RDF>
      <cc:Work
         rdf:about="">
        <dc:format>image/svg+xml</dc:format>
        <dc:type
           rdf:resource="http://purl.org/dc/dcmitype/StillImage" />
        <dc:title></dc:title>
      </cc:Work>
    </rdf:RDF>
  </metadata>
  <g
     id="layer1"
     inkscape:groupmode="layer"
     inkscape:label="Layer 1">
    <g
       transform="matrix(2.2905651,0,0,2.2905651,-71.883416,-181.32697)"
       id="g892">
      <path
         id="path874"
         style="fill:#000000;stroke:none;stroke-width:4.11213;stroke-linecap:round;stroke-linejoin:round;stroke-miterlimit:4;stroke-dasharray:none;stroke-opacity:1"
         d="m 258.80859,429.19336 c -4.05597,0.0302 -7.29722,3.31923 -7.26757,7.375 0,0 -2.63967,28.50578 0.375,51.08203 0.1265,0.94726 -1.08527,2.43466 -2.2129,2.61328 -1.27387,0.20183 -2.86325,-1.25578 -3.29101,-2.03515 -8.6376,-15.73818 -17.40039,-44.88868 -17.40039,-44.88868 -1.46603,-3.7819 -5.69078,-5.64569 -9.47266,-4.17968 -3.78188,1.46596 -5.6457,5.69074 -4.17968,9.47265 0,0 12.75972,29.6188 17.82031,45.97852 0.41386,1.33788 1.11429,5.02928 -0.45508,6.55859 -1.41532,1.37923 -4.72209,2.18534 -5.92383,0.25781 -10.43787,-16.74224 -17.76172,-32.49023 -17.76172,-32.49023 -1.94563,-3.55899 -6.37461,-4.85578 -9.93359,-2.91016 -3.55904,1.94552 -4.85969,6.37656 -2.91406,9.93555 l 23.19726,42.43164 c -1.0142,4.6348 -1.40513,9.49393 -1.15625,14.38672 -11.25092,6.38423 -15.73571,20.27237 -10.30664,31.91211 5.75343,12.33335 20.48713,17.63232 32.91016,11.83789 0.94794,-0.44243 1.86695,-0.94244 2.75195,-1.5 6.58345,3.1183 13.62408,3.89784 20.29883,2.25 1.80126,-0.44489 3.56241,-1.06252 5.26953,-1.84961 1.064,-0.49046 2.09519,-1.09133 3.09961,-1.75976 1.14832,-0.89932 2.32387,-1.83224 3.53125,-2.82422 0.16148,-0.13267 0.32626,-0.27779 0.48828,-0.41211 5.98964,-5.68937 10.51565,-13.99163 12.91211,-20.77539 1.3633,-3.85912 4.20959,-6.97981 7.45312,-9.71289 -0.043,-0.58442 -0.0738,-1.14612 -0.13281,-1.76563 -0.319,-3.34969 -0.81109,-7.15352 -0.45117,-11.26367 l -34.93555,-0.0996 c -6.17346,-0.0176 -11.25203,-5.12483 -11.23437,-11.29883 0.0176,-6.17347 5.12484,-11.25203 11.29883,-11.23437 l 19.24023,0.0547 c -0.5177,-1.58266 -0.84132,-3.21844 -0.85547,-4.95703 -0.13735,-16.87241 18.45899,-47.13476 18.45899,-47.13476 1.63981,-3.70984 -0.0267,-8.01451 -3.73633,-9.6543 -3.70981,-1.63982 -8.01644,0.0257 -9.65625,3.73437 0,0 -13.74409,33.42245 -18.08008,40.90626 -7.77603,13.42102 -0.37305,-50.7754 -0.37305,-50.7754 -0.0298,-4.05592 -3.31907,-7.29533 -7.375,-7.26562 z m 69.89258,78.60156 c -0.95065,0.033 -1.91186,0.25363 -2.83203,0.67969 l -23.55078,10.9043 a 3.9462214,3.9462214 0 0 1 2.23242,4.57617 c -0.0702,0.27742 -0.13761,0.55457 -0.20312,0.83203 -0.71537,3.06199 -0.56121,6.30378 -0.25196,9.7793 1.43028,-0.65569 3.13783,-1.16929 3.33203,-1.41602 l 24.59375,-11.38867 c 3.68059,-1.70442 5.2706,-6.04005 3.56641,-9.7207 -1.27806,-2.76058 -4.03475,-4.34518 -6.88672,-4.2461 z m -67.53906,4.38086 c -1.93812,-0.006 -3.37924,1.42854 -3.38477,3.36719 -0.006,1.93812 1.42855,3.37923 3.36719,3.38476 l 26.87891,0.0762 c -1.0677,-2.37843 -2.39437,-4.58836 -3.68164,-6.76368 z"
         transform="scale(0.26458333)" />
      <path
         id="path847"
         style="fill:#000000;stroke:none;stroke-width:4.11213;stroke-linecap:round;stroke-linejoin:round;stroke-miterlimit:4;stroke-dasharray:none;stroke-opacity:1"
         d="m 340.83398,486.16797 c -10.49006,-0.0475 -22.16537,7.8754 -29.04687,14.88672 -4.62109,4.70826 -11.92259,6.05477 -18.40597,7.27461 -1.67195,0.31457 -4.72722,-0.21286 -5.1038,-0.0227 l -27.10351,-0.0762 c -4.05605,-0.0116 -7.33023,3.24472 -7.3418,7.30078 -0.0116,4.05606 3.24473,7.33023 7.30078,7.3418 l 39.59375,0.11328 c -0.076,0.30024 -0.14961,0.60104 -0.2207,0.90234 -2.22425,9.52046 2.4562,18.66232 -1.2579,26.79649 -7.00828,15.34866 -36.65421,34.91054 -36.65421,34.91054 -3.05439,2.66879 -3.3641,7.27569 -0.69531,10.33008 2.66878,3.0544 7.27568,3.36605 10.33008,0.69727 0,0 26.5845,-24.47863 33.67773,-29.42774 12.72071,-8.87553 -21.12695,46.17188 -21.12695,46.17188 -1.68769,3.68824 -0.0769,8.01542 3.61132,9.70312 3.68828,1.68771 8.01544,0.0769 9.70313,-3.61133 0,0 14.44387,-24.71706 21.25586,-46.45117 0.28582,-0.91194 2.01345,-1.74792 3.11087,-1.43308 1.23976,0.35568 2.06338,2.34866 2.12155,3.23582 1.17455,17.91421 -3.20703,48.03515 -3.20703,48.03515 -0.2702,4.04707 2.76934,7.52277 6.81641,7.79297 4.04706,0.2702 7.52276,-2.77129 7.79297,-6.81836 0,0 0.95723,-32.23584 3.2871,-49.20117 0.19053,-1.3874 1.11662,-5.02808 3.18537,-5.75058 1.86569,-0.65158 5.20258,0.0155 5.47674,2.27011 2.38159,19.58518 2.36133,36.95313 2.36133,36.95313 0.25866,4.04782 3.72562,7.09655 7.77344,6.83789 4.04782,-0.25867 7.09851,-3.72562 6.83984,-7.77344 l -3.08398,-48.25977 c 2.87847,-3.77157 5.28604,-8.00955 7.1289,-12.54882 12.89503,-1.02939 22.83147,-11.71892 22.83204,-24.5625 -1.5e-4,-13.60934 -11.11237,-24.64197 -24.82032,-24.64258 -1.04611,2.3e-4 -2.09116,0.0661 -3.1289,0.19726 -4.64799,-5.6091 -10.69776,-9.29274 -17.44336,-10.62109 -1.82047,-0.35826 -3.67879,-0.54239 -5.5586,-0.55078 z"
         sodipodi:nodetypes="csaccscccacscscscsassscsassssccccccc"
         transform="scale(0.26458333)" />
    </g>
  </g>
</svg>
