<svg id="Layer_1" enable-background="new 0 0 512.05 512.05" height="512" viewBox="0 0 512.05 512.05" width="512" xmlns="http://www.w3.org/2000/svg"><g><path d="m142.782 119.141-83.795 181.57c-7.764 17.216-8.359 36.424-1.677 54.087 4.759 12.576 12.815 23.281 23.266 31.216l-33.005 73.184-26.347-11.882c-7.553-3.406-16.435-.044-19.841 7.507-3.405 7.552-.045 16.435 7.507 19.84l80.042 36.098c17.936 7.352 30.034-18.779 12.334-27.348l-26.348-11.883 32.761-72.643c5.467 1.337 11.037 2.031 16.619 2.031 25.981.39 53.893-16.569 64.48-41.673l66.952-148.454 69.368 152.364c7.293 16.171 20.446 28.534 37.038 34.812 7.645 2.892 15.595 4.333 23.53 4.333 6.411 0 12.807-.964 19.026-2.841l32.503 72.07-26.348 11.882c-17.317 8.866-6.409 34.638 12.334 27.348l80.043-36.098c18.262-9.597 4.99-34.518-12.334-27.348l-26.348 11.882-32.683-72.47c11.161-7.604 19.727-18.407 24.606-31.301 6.277-16.591 5.719-34.634-1.574-50.806l-82.324-182.54c-3.399-7.537-12.254-10.903-19.802-7.525l-97.076 43.449-96.302-43.431c-3.628-1.636-7.728-1.689-11.476-.355-3.649 1.302-5.129 4.925-5.129 4.925zm18.65 227.772c-26.26 50.294-95.327 13.295-75.097-33.869l24.307-53.897c25.483 10.931 49.405 29.57 67.31 51.136zm30.006-66.534c-18.734-20.038-41.596-36.463-66.569-47.725l-1.894-.854 37.752-83.711 75.098 33.868zm159.931-132.329 32.575 72.229-1.739.783c-25.133 11.335-48.131 27.897-66.932 48.112l-39.7-87.2zm21.384 221.86c-9.097-3.442-16.309-10.22-20.329-19.135l-23.571-51.774c17.756-21.483 41.459-40.123 67.425-51.374l31.266 69.328c15.577 35.483-26.585 62.847-54.791 52.955z"/><path d="m118.79 87.372c11.234 16.589 34.986.809 25.455-15.876l-25.899-41.526c-4.383-7.028-13.636-9.174-20.665-4.79s-9.174 13.636-4.79 20.666z"/><path d="m179.968 77.294c6.735 1.906 16.229-3.063 17.999-11.226l11.05-47.677c1.871-8.07-3.155-16.129-11.226-18-8.069-1.871-16.128 3.155-17.999 11.226l-11.05 47.677c-1.871 8.07 3.155 16.129 11.226 18z"/><path d="m45.826 122.493 47.678 11.05c20.142 3.497 24.971-24.489 6.773-29.226l-47.677-11.05c-8.069-1.873-16.13 3.155-17.999 11.226-1.872 8.071 3.155 16.129 11.225 18z"/><path d="m358.612 80.122c8.137 0 14.734-6.597 14.734-14.734s-6.597-14.734-14.734-14.734-14.734 6.597-14.734 14.734c0 8.138 6.597 14.734 14.734 14.734z"/><path d="m415.99 112.513c8.137 0 14.734-6.597 14.734-14.734s-6.597-14.734-14.734-14.734-14.734 6.597-14.734 14.734 6.597 14.734 14.734 14.734z"/></g></svg>