<svg id="Capa_1" enable-background="new 0 0 443.294 443.294" height="512" viewBox="0 0 443.294 443.294" width="512" xmlns="http://www.w3.org/2000/svg"><path d="m387.883 360.176v-332.47c0-15.274-12.433-27.706-27.706-27.706h-235.5c-3.68 0-7.197 1.461-9.794 4.058l-110.824 110.824c-2.598 2.597-4.059 6.115-4.059 9.794v235.5c0 15.273 12.432 27.706 27.706 27.706h332.471c15.273 0 27.706-12.432 27.706-27.706zm-277.032-249.325-63.566-.017 63.549-63.549zm-83.145 27.682s83.158-.003 83.172-.003c7.386 0 14.34-2.854 19.575-8.076 5.235-5.249 8.09-12.216 8.076-19.602l.003-83.145h221.644v332.47h-332.47c0-.001 0-221.644 0-221.644z"/><path d="m415.588 83.118v332.471h-332.47v27.706l332.443-.027c15.273 0 27.706-12.432 27.706-27.706l.027-332.443z"/></svg>