<?xml version="1.0" encoding="iso-8859-1"?>
<!-- Generator: Adobe Illustrator 19.0.0, SVG Export Plug-In . SVG Version: 6.00 Build 0)  -->
<svg version="1.1" id="Capa_1" xmlns="http://www.w3.org/2000/svg" xmlns:xlink="http://www.w3.org/1999/xlink" x="0px" y="0px"
	 viewBox="0 0 512 512" style="enable-background:new 0 0 512 512;" xml:space="preserve">
<g>
	<g>
		<path d="M91.055,0C75.981,0,61.978,7.485,53.613,20.039L12.598,81.563c-1.752,2.624-2.593,5.645-3.99,8.438H241V0H91.055z"/>
	</g>
</g>
<g>
	<g>
		<path d="M499.402,81.562l-41.016-61.523C450.022,7.485,435.019,0,419.945,0H271v90h232.392
			C501.995,87.208,501.154,84.187,499.402,81.562z"/>
	</g>
</g>
<g>
	<g>
		<path d="M511.533,120H0.467C0.421,121.077,0,122.082,0,123.164V467c0,24.814,20.186,45,45,45h422c24.814,0,45-20.186,45-45
			V123.164C512,122.082,511.579,121.077,511.533,120z M316,270H196c-24.814,0-45-20.186-45-45c0-24.814,20.186-45,45-45h120
			c24.814,0,45,20.186,45,45C361,249.814,340.814,270,316,270z"/>
	</g>
</g>
<g>
</g>
<g>
</g>
<g>
</g>
<g>
</g>
<g>
</g>
<g>
</g>
<g>
</g>
<g>
</g>
<g>
</g>
<g>
</g>
<g>
</g>
<g>
</g>
<g>
</g>
<g>
</g>
<g>
</g>
</svg>
