<?xml version="1.0" encoding="UTF-8" standalone="no"?>
<svg
   xmlns:dc="http://purl.org/dc/elements/1.1/"
   xmlns:cc="http://creativecommons.org/ns#"
   xmlns:rdf="http://www.w3.org/1999/02/22-rdf-syntax-ns#"
   xmlns:svg="http://www.w3.org/2000/svg"
   xmlns="http://www.w3.org/2000/svg"
   xmlns:sodipodi="http://sodipodi.sourceforge.net/DTD/sodipodi-0.dtd"
   xmlns:inkscape="http://www.inkscape.org/namespaces/inkscape"
   viewBox="0 0 841.9 595.3"
   version="1.1"
   id="svg10"
   sodipodi:docname="user - Copia.svg"
   inkscape:version="0.92.4 (5da689c313, 2019-01-14)">
  <metadata
     id="metadata16">
    <rdf:RDF>
      <cc:Work
         rdf:about="">
        <dc:format>image/svg+xml</dc:format>
        <dc:type
           rdf:resource="http://purl.org/dc/dcmitype/StillImage" />
      </cc:Work>
    </rdf:RDF>
  </metadata>
  <defs
     id="defs14" />
  <sodipodi:namedview
     pagecolor="#ffffff"
     bordercolor="#666666"
     borderopacity="1"
     objecttolerance="10"
     gridtolerance="10"
     guidetolerance="10"
     inkscape:pageopacity="0"
     inkscape:pageshadow="2"
     inkscape:window-width="1920"
     inkscape:window-height="1013"
     id="namedview12"
     showgrid="false"
     showguides="true"
     inkscape:guide-bbox="true"
     inkscape:zoom="1.1212982"
     inkscape:cx="400.6458"
     inkscape:cy="368.99586"
     inkscape:window-x="-9"
     inkscape:window-y="-9"
     inkscape:window-maximized="1"
     inkscape:current-layer="svg10" />
  <path
     style="fill:#000000;stroke-width:0.52559972"
     d="m 417.74149,419.01207 c -6.54844,-2.26333 -6.96442,-2.64772 -59.23978,-54.74219 -27.70564,-27.60978 -51.72052,-51.85524 -53.3664,-53.8788 -8.54403,-10.50463 -13.99384,-22.62664 -16.4228,-36.52918 -1.12113,-6.41697 -0.84227,-20.19914 0.54237,-26.80558 6.59789,-31.4803 29.53605,-54.41847 61.01635,-61.01636 6.60645,-1.38464 20.38861,-1.6635 26.80558,-0.54237 16.41082,2.86719 30.00435,9.73144 41.65379,21.03368 l 3.54779,3.44207 3.5478,-3.44207 c 9.70868,-9.41933 20.32725,-15.53584 33.10982,-19.07191 7.65395,-2.11733 11.98795,-2.65262 21.15836,-2.61328 6.80509,0.0292 9.86067,0.28625 14.19119,1.19388 31.4803,6.59789 54.41845,29.53606 61.01635,61.01636 1.38463,6.60644 1.66349,20.38861 0.54236,26.80558 -2.42894,13.90254 -7.87876,26.02455 -16.4228,36.52918 -1.64588,2.02356 -25.66076,26.26902 -53.36639,53.8788 -52.27537,52.09447 -52.69135,52.47886 -59.23978,54.74219 -3.40571,1.17711 -5.6681,1.17711 -9.07381,0 z"
     id="path26"
     inkscape:connector-curvature="0" />
</svg>
